<svg width="40" height="40" viewBox="0 0 40 40" fill="none" xmlns="http://www.w3.org/2000/svg">
<g clip-path="url(#clip0_2301_15538)">
<path d="M31.9499 6.52138C32.0903 7.18378 33.0335 8.67458 33.8106 8.67458C34.3494 8.67458 34.7735 8.12588 34.9376 6.64198C36.4304 6.48878 36.9791 6.04488 36.9791 5.50508C36.9791 4.75368 35.4754 3.82638 34.8358 3.68598C34.6974 3.02658 33.7532 1.53668 32.9821 1.53668C32.4522 1.53668 32.0182 2.07648 31.8451 3.56928C30.3622 3.71368 29.8125 4.16648 29.8125 4.69638C29.8125 5.44668 31.3123 6.37598 31.9499 6.52138Z" fill="#00034A"/>
<path d="M24.0044 3.53077C24.0044 2.87627 24.5343 2.34637 25.1888 2.34637C25.9283 2.34637 26.998 3.40617 26.998 4.14567C26.998 4.80017 26.4671 5.33007 25.8116 5.33007C25.0731 5.33007 24.0044 4.27117 24.0044 3.53077Z" fill="#00034A"/>
<path d="M35.3421 11.0642C35.3421 10.1971 36.045 9.4942 36.912 9.4942C37.8908 9.4942 39.1058 10.6994 39.1058 11.6791C39.1058 12.5461 38.4029 13.249 37.5358 13.249C36.5571 13.249 35.3421 12.0429 35.3421 11.0642Z" fill="#00034A"/>
<path d="M31.9499 6.52138C32.0903 7.18378 33.0335 8.67458 33.8106 8.67458C34.3494 8.67458 34.7735 8.12588 34.9376 6.64198C36.4304 6.48878 36.9791 6.04488 36.9791 5.50508C36.9791 4.75368 35.4754 3.82638 34.8358 3.68598C34.6974 3.02658 33.7532 1.53668 32.9821 1.53668C32.4522 1.53668 32.0182 2.07648 31.8451 3.56928C30.3622 3.71368 29.8125 4.16648 29.8125 4.69638C29.8125 5.44668 31.3123 6.37598 31.9499 6.52138Z" stroke="#00034A" stroke-miterlimit="10" stroke-linecap="round"/>
<path d="M24.0044 3.53077C24.0044 2.87627 24.5343 2.34637 25.1888 2.34637C25.9283 2.34637 26.998 3.40617 26.998 4.14567C26.998 4.80017 26.4671 5.33007 25.8116 5.33007C25.0731 5.33007 24.0044 4.27117 24.0044 3.53077Z" stroke="#00034A" stroke-miterlimit="10" stroke-linecap="round"/>
<path d="M35.3421 11.0642C35.3421 10.1971 36.045 9.4942 36.912 9.4942C37.8908 9.4942 39.1058 10.6994 39.1058 11.6791C39.1058 12.5461 38.4029 13.249 37.5358 13.249C36.5571 13.249 35.3421 12.0429 35.3421 11.0642Z" stroke="#00034A" stroke-miterlimit="10" stroke-linecap="round"/>
<path d="M8.77436 21.2441C11.5623 24.127 15.2351 24.8783 19.07 23.6643C23.511 22.2575 25.6682 19.3479 25.8125 15.7651C29.4932 13.7513 31.0246 11.7483 30.466 10.0142C29.5031 7.06119 25.0977 7.08789 22.7052 7.37459C19.9271 4.47879 16.2346 3.67899 12.3967 4.92769C7.98436 6.36319 5.79756 9.24309 5.65416 12.8269C1.97246 14.8496 0.441163 16.8526 1.00956 18.6064C1.96856 21.5654 6.38086 21.5269 8.77436 21.2441Z" fill="#00034A" stroke="#00034A" stroke-miterlimit="10"/>
<path d="M29.6296 9.32909C29.0611 7.58609 26.6439 6.86439 22.4818 7.40319C20.2761 4.55199 16.808 3.49219 12.3967 4.92769C7.98436 6.36319 5.79756 9.24309 5.65416 12.8269C1.97246 14.8496 0.441163 16.8526 1.00956 18.6064C1.57806 20.3593 3.98536 21.0632 8.15736 20.5333C10.3532 23.3558 13.7927 24.386 18.2326 22.9802C22.6736 21.5733 24.8318 18.6638 24.9751 15.081C28.6558 13.0671 30.1872 11.0641 29.6286 9.33009L29.6296 9.32909Z" fill="#9BFF00" stroke="#00034A" stroke-miterlimit="10"/>
<path d="M10.8555 19.9549C14.9444 19.1716 18.9186 17.8772 22.6846 16.1022" stroke="#00034A" stroke-miterlimit="10" stroke-linecap="round"/>
<path d="M10.8553 11.9984C12.0715 11.9984 12.8316 10.6819 12.2235 9.62868C11.9413 9.13978 11.4198 8.83868 10.8553 8.83868C9.63922 8.83878 8.87912 10.1554 9.48722 11.2086C9.76942 11.6973 10.2909 11.9984 10.8553 11.9984Z" fill="white" stroke="#00034A" stroke-miterlimit="10"/>
<path d="M18.3019 11.8056C19.2141 11.8056 19.7841 10.8182 19.3281 10.0283C19.1164 9.66171 18.7252 9.43591 18.3019 9.43591C17.3898 9.43591 16.8197 10.4233 17.2758 11.2132C17.4875 11.5798 17.8786 11.8056 18.3019 11.8056Z" fill="white" stroke="#00034A" stroke-miterlimit="10"/>
<path d="M25.8826 10.6212C21.5187 13.2985 10.1425 16.9881 5.02734 17.3637" stroke="#00034A" stroke-miterlimit="10" stroke-linecap="round"/>
<path d="M5.6731 12.8269C5.7156 13.6613 5.8649 14.4868 6.116 15.2827" stroke="#00034A" stroke-miterlimit="10" stroke-linecap="round"/>
<path d="M22.4817 7.37457C22.799 7.92127 23.0511 8.50257 23.233 9.10857" stroke="#00034A" stroke-miterlimit="10" stroke-linecap="round"/>
<path d="M26.0518 33.1582C26.1725 33.5259 26.302 33.8898 26.4414 34.2506C26.8348 35.26 27.3292 36.2279 27.9144 37.1404C28.5185 37.9886 29.3391 38.7272 30.3959 38.2961C30.8685 38.1033 31.4557 37.7375 31.3598 37.1295C31.1506 36.0674 30.8275 35.0309 30.3959 34.0381C30.0383 33.1422 29.6167 32.2733 29.1344 31.4379C29.517 30.8645 29.7434 30.1992 29.7889 29.5101L30.4157 29.2896C31.7642 28.8072 33.3055 28.2486 34.3554 27.7474C34.914 28.3939 36.0025 28.123 36.6391 27.9026C37.2738 27.6801 38.4582 27.1117 38.305 26.1389C37.9034 24.4279 37.3621 22.7528 36.6866 21.1304C36.1664 19.4787 35.5223 17.8686 34.7597 16.3138C34.0153 15.078 32.7479 14.5105 31.3727 15.0137C30.6895 15.2639 29.7256 15.7256 29.6969 16.5738C28.5501 16.8823 27.0286 17.4122 25.6801 17.8936C23.4063 18.7122 20.6707 19.7335 20.3049 20.3306C19.9931 20.6986 19.8561 21.1836 19.9292 21.6603C18.4342 22.1855 17.0204 22.9183 15.7295 23.8373C15.3703 24.1439 15.1714 24.5982 15.1897 25.0701C14.5508 25.2996 13.9502 25.6243 13.4082 26.0331C12.907 26.4285 13.1383 27.4201 13.4082 28.1428C13.6662 28.8349 14.8506 30.7904 15.7256 30.7627C16.4104 30.7437 17.0886 30.6237 17.7384 30.4068C18.0264 30.7806 18.4706 31.0009 18.9426 31.0039C19.7983 30.9823 20.6487 30.8612 21.4764 30.6431C21.0474 31.4103 20.6658 32.2031 20.3336 33.0168C19.9049 34.0109 19.5821 35.0475 19.3707 36.1092C19.2797 36.6293 20.819 38.0737 21.3123 38.2763C21.8037 38.479 22.4493 38.6233 22.8052 38.1231C23.3993 37.2155 23.8927 36.2467 24.2792 35.2323C24.5778 34.5205 24.8665 33.7009 25.0603 33.0751C25.3858 33.1456 25.719 33.1736 26.0518 33.1582Z" fill="#00034A" stroke="#00034A" stroke-miterlimit="10"/>
<path d="M35.7078 20.128C35.1876 18.4766 34.5435 16.8668 33.781 15.3123C33.2709 14.4641 32.0568 14.7626 31.3727 15.0137C30.6895 15.2639 29.7256 15.7256 29.6969 16.5738C28.5501 16.8823 27.0286 17.4122 25.6801 17.8936C23.4063 18.7122 20.6707 19.7335 20.3049 20.3306C19.993 20.6985 19.8559 21.1836 19.9292 21.6603C18.4342 22.1855 17.0204 22.9183 15.7295 23.8373C15.3702 24.1438 15.1712 24.5982 15.1897 25.0701C14.5508 25.2996 13.9502 25.6242 13.4082 26.0331C12.907 26.4285 13.1383 27.4201 13.4082 28.1428C13.6781 28.8645 14.12 29.781 14.7468 29.7612C15.4319 29.7423 16.1105 29.6224 16.7607 29.4053C17.0486 29.7793 17.4929 29.9996 17.9648 30.0025C19.0422 29.9748 20.1097 29.7896 21.1334 29.4528C21.2421 29.7958 21.4003 30.1201 21.605 30.4167C21.1227 31.2535 20.6979 32.1223 20.3336 33.0168C19.9049 34.0109 19.5821 35.0475 19.3707 36.1093C19.2649 36.7163 19.8422 37.0732 20.3336 37.2758C20.8249 37.4775 21.4705 37.6219 21.8264 37.1206C22.4205 36.2133 22.9147 35.2444 23.3005 34.2308C23.5991 33.519 23.8887 32.6985 24.0815 32.0736C24.3504 32.131 24.6253 32.1606 24.9001 32.1597C25.1789 32.1606 25.4567 32.132 25.7286 32.0736C25.9283 32.8112 26.1656 33.5368 26.4404 34.2506C26.8359 35.26 27.3292 36.2279 27.9154 37.1404C28.2714 37.6406 28.9456 37.4864 29.4182 37.2946C29.8898 37.1018 30.477 36.7351 30.3811 36.128C30.1723 35.0659 29.8494 34.0294 29.4182 33.0366C29.0602 32.1407 28.6383 31.2718 28.1557 30.4365C28.539 29.8622 28.765 29.1975 28.8112 28.5086L29.437 28.2872C30.7855 27.8057 32.3267 27.2471 33.3767 26.7459C33.9353 27.3915 35.0237 27.1216 35.6604 26.9001C36.2951 26.6787 37.4805 26.1102 37.3263 25.1374C36.9247 23.4261 36.3833 21.7507 35.7078 20.128Z" fill="white" stroke="#00034A" stroke-miterlimit="10"/>
<path d="M24.8327 29.7998C26.0488 29.7998 26.8089 28.4833 26.2009 27.4301C25.9187 26.9412 25.3971 26.6401 24.8327 26.6401C23.6165 26.6402 22.8564 27.9567 23.4645 29.0099C23.7467 29.4987 24.2683 29.7998 24.8327 29.7998Z" fill="#9BFF00" stroke="#00034A" stroke-miterlimit="10"/>
<path d="M30.4106 18.731C30.984 20.7617 31.6959 22.7508 32.5382 24.6846" stroke="#00034A" stroke-miterlimit="10" stroke-linecap="round"/>
<path d="M19.9004 21.6218C20.2434 23.3232 20.7011 25 21.2676 26.6401" stroke="#00034A" stroke-miterlimit="10" stroke-linecap="round"/>
<path d="M15.1609 25.0316C15.1975 25.519 15.3112 25.9965 15.4981 26.4473" stroke="#00034A" stroke-miterlimit="10" stroke-linecap="round"/>
<path d="M36.1507 4.69638C36.1507 4.16638 35.602 3.73338 34.1091 3.56928C33.9648 2.07648 33.512 1.53668 32.9821 1.53668C32.4522 1.53668 32.0182 2.07648 31.8452 3.56928C30.3622 3.71368 29.8125 4.16648 29.8125 4.69638C29.8125 5.22628 30.3612 5.66028 31.8452 5.83328C31.9994 7.31618 32.4423 7.86588 32.9821 7.86588C33.5209 7.86588 33.945 7.31718 34.1091 5.83328C35.602 5.67908 36.1507 5.23608 36.1507 4.69638Z" fill="#9BFF00" stroke="#00034A" stroke-miterlimit="10"/>
<path d="M25.1886 4.71607C26.1007 4.71617 26.6707 3.72877 26.2147 2.93887C26.0031 2.57217 25.6119 2.34637 25.1886 2.34637C24.2764 2.34637 23.7064 3.33377 24.1624 4.12367C24.3741 4.49027 24.7653 4.71607 25.1886 4.71607Z" fill="#9BFF00" stroke="#00034A" stroke-miterlimit="10" stroke-linecap="round"/>
<path d="M36.9119 12.6341C38.1205 12.6341 38.8758 11.3258 38.2715 10.2792C37.9911 9.7934 37.4728 9.4942 36.9119 9.4942C35.7033 9.4942 34.948 10.8025 35.5523 11.8491C35.8327 12.3349 36.351 12.6341 36.9119 12.6341Z" fill="#9BFF00" stroke="#00034A" stroke-miterlimit="10" stroke-linecap="round"/>
</g>
<defs>
<clipPath id="clip0_2301_15538">
<rect width="40" height="40" fill="white"/>
</clipPath>
</defs>
</svg>
