<svg width="40" height="40" viewBox="0 0 40 40" fill="none" xmlns="http://www.w3.org/2000/svg">
<path d="M29.2801 23.36C31.7501 21.08 33.0001 17.66 33.0001 13.5C33.0001 5.7 28.6701 0.5 20.0001 0.5C11.3301 0.5 7.00006 5.7 7.00006 13.5C7.00006 17.66 8.25006 21.08 10.7201 23.36C7.29006 25.86 5.56006 30 5.56006 35.17C5.56006 38.0633 10.3734 39.5067 20.0001 39.5C29.6267 39.4933 34.4401 38.05 34.4401 35.17C34.4401 30 32.7101 25.86 29.2801 23.36Z" fill="#FFE236" stroke="#231F20" stroke-miterlimit="10"/>
<path d="M24.8 4.21C26.0793 4.65261 27.1949 5.47181 28 6.56" stroke="white" stroke-linecap="round" stroke-linejoin="round"/>
<path d="M20.47 0.5C19.287 0.828638 18.2664 1.58101 17.6025 2.61375C16.9386 3.64649 16.6778 4.8874 16.87 6.1C17.39 8.77 21.95 8.43 21.4 5.64C21.11 4.21 19.53 4.94 19.53 4.94" stroke="#231F20" stroke-miterlimit="10" stroke-linecap="round"/>
<path d="M12.77 12.78C12.77 13.3555 12.9986 13.9075 13.4056 14.3144C13.8126 14.7214 14.3645 14.95 14.94 14.95C15.5155 14.95 16.0675 14.7214 16.4744 14.3144C16.8814 13.9075 17.11 13.3555 17.11 12.78C17.11 12.2045 16.8814 11.6525 16.4744 11.2456C16.0675 10.8386 15.5155 10.61 14.94 10.61C14.3645 10.61 13.8126 10.8386 13.4056 11.2456C12.9986 11.6525 12.77 12.2045 12.77 12.78Z" fill="#231F20"/>
<path d="M22.8901 12.78C22.8901 13.3555 23.1188 13.9075 23.5257 14.3144C23.9327 14.7214 24.4846 14.95 25.0601 14.95C25.6357 14.95 26.1876 14.7214 26.5946 14.3144C27.0015 13.9075 27.2301 13.3555 27.2301 12.78C27.2301 12.2045 27.0015 11.6525 26.5946 11.2456C26.1876 10.8386 25.6357 10.61 25.0601 10.61C24.4846 10.61 23.9327 10.8386 23.5257 11.2456C23.1188 11.6525 22.8901 12.2045 22.8901 12.78Z" fill="#231F20"/>
<path d="M15.6702 17.83C16.8814 18.8378 18.4263 19.3552 20.0002 19.28C21.574 19.3552 23.1189 18.8378 24.3302 17.83" stroke="#231F20" stroke-miterlimit="10" stroke-linecap="round"/>
<path d="M20 26.5C18.1955 26.5057 16.401 26.2325 14.68 25.69C14.3782 26.4018 14.2218 27.1668 14.22 27.94C14.22 31.14 16.15 33.72 20 33.72C23.85 33.72 25.78 31.14 25.78 27.94C25.7781 27.1668 25.6217 26.4018 25.32 25.69C23.599 26.2325 21.8044 26.5057 20 26.5Z" fill="#48EEFF" stroke="#231F20" stroke-miterlimit="10"/>
</svg>
