<svg width="40" height="40" viewBox="0 0 40 40" fill="none" xmlns="http://www.w3.org/2000/svg">
<g clip-path="url(#clip0_2301_15505)">
<path d="M34.6679 21.758C35.8079 21.86 36.6799 22.041 36.9609 22.355C39.3539 23.709 38.9389 28.815 38.9389 31.015C38.9389 33.608 38.7829 38.063 37.5939 38.725C37.0379 39.398 33.8209 39.467 31.1899 39.467H10.0359C7.40394 39.467 4.22594 39.398 3.63194 38.726C1.23594 37.39 1.65394 32.252 1.65394 30.066C1.65394 27.473 1.80994 23.028 2.99894 22.356C3.36894 21.985 4.51894 21.799 5.92294 21.712C5.92294 13.932 6.16694 8.844 13.1759 6.281C13.1639 5.211 13.2979 4.145 13.5759 3.112C14.1499 0.792 17.8359 0.5 19.9999 0.5C22.6109 0.5 26.3159 1.027 27.0169 4.062C27.2469 4.864 27.3879 5.687 27.4419 6.518C29.8619 7.519 31.3939 8.861 32.3649 10.556C34.4319 13.236 34.6499 16.95 34.6679 21.758Z" fill="#00034A" stroke="#00034A" stroke-miterlimit="10"/>
<path d="M36.9611 22.355C36.6301 21.985 35.4791 21.799 34.0371 21.712C34.0371 13.913 33.7931 8.844 26.8331 6.281C26.8293 5.20908 26.6782 4.14276 26.3841 3.112C25.8481 0.792 22.1641 0.5 20.0001 0.5C17.8351 0.5 14.1501 0.792 13.5751 3.112C13.2975 4.14508 13.1629 5.21135 13.1751 6.281C6.16705 8.844 5.92305 13.933 5.92305 21.711C4.52005 21.799 3.36905 21.985 2.99905 22.355C1.80905 23.028 1.65405 27.473 1.65405 30.065C1.65405 32.659 1.81005 37.114 2.99905 37.776C3.59405 38.449 6.77105 38.517 9.40305 38.517H30.5571C33.1891 38.517 36.4051 38.449 36.9611 37.777C38.1511 37.114 38.3061 32.659 38.3061 30.066C38.3061 27.473 38.1501 23.028 36.9611 22.356V22.355Z" fill="#9BFF00" stroke="#00034A" stroke-miterlimit="10"/>
<path d="M33.6471 26.332C33.7103 29.1158 33.5833 31.9006 33.2671 34.667" stroke="#00034A" stroke-miterlimit="10" stroke-linecap="round"/>
<path d="M6.35194 26.332C6.28874 29.1158 6.41571 31.9006 6.73194 34.667" stroke="#00034A" stroke-miterlimit="10" stroke-linecap="round"/>
<path d="M27.7101 22.716C27.0381 21.741 22.5931 21.624 20.0001 21.624C17.4071 21.624 12.9611 21.741 12.2891 22.716C11.6161 23.203 11.5481 25.806 11.5481 27.96C11.5481 30.114 11.6161 32.708 12.2881 33.195C12.9611 34.17 17.4071 34.296 20.0001 34.296C22.5931 34.296 27.0381 34.131 27.7101 33.156C28.3831 32.669 28.4511 30.066 28.4511 27.921C28.4511 25.777 28.3831 23.203 27.7111 22.716H27.7101Z" fill="white" stroke="#00034A" stroke-miterlimit="10"/>
<path d="M14.3069 26.732C18.0919 27.112 21.9069 27.112 25.6919 26.732H14.3069Z" fill="white"/>
<path d="M14.3069 26.732C18.0919 27.112 21.9069 27.112 25.6919 26.732" stroke="#00034A" stroke-miterlimit="10" stroke-linecap="round"/>
<path d="M22.8169 5.45201C20.9436 5.25705 19.0552 5.25705 17.1819 5.45201H22.8169Z" fill="white"/>
<path d="M22.8169 5.45201C20.9436 5.25705 19.0552 5.25705 17.1819 5.45201" stroke="#00034A" stroke-miterlimit="10" stroke-linecap="round"/>
</g>
<defs>
<clipPath id="clip0_2301_15505">
<rect width="40" height="40" fill="white"/>
</clipPath>
</defs>
</svg>
