<svg width="40" height="40" viewBox="0 0 40 40" fill="none" xmlns="http://www.w3.org/2000/svg">
<path d="M37.3999 22.92C37.0599 22.54 35.8799 22.35 34.3999 22.26C34.3999 14.26 34.1499 9.06 27.0099 6.43C27.0062 5.33071 26.8514 4.23715 26.5499 3.18C25.9999 0.8 22.2199 0.5 19.9999 0.5C17.7799 0.5 13.9999 0.8 13.4099 3.18C13.1253 4.2395 12.9874 5.33302 12.9999 6.43C5.80993 9.06 5.55993 14.28 5.55993 22.26C4.11993 22.35 2.93993 22.54 2.55993 22.92C1.33993 23.61 1.17993 28.17 1.17993 30.83C1.17993 33.49 1.33993 38.06 2.55993 38.74C3.16993 39.43 6.42993 39.5 9.12993 39.5H30.8299C33.5299 39.5 36.8299 39.43 37.3999 38.74C38.6199 38.06 38.7799 33.49 38.7799 30.83C38.7799 28.17 38.6199 23.61 37.3999 22.92Z" fill="#FFE236" stroke="#231F20" stroke-miterlimit="10"/>
<path d="M33.9999 27C34.0646 29.8556 33.9343 32.7122 33.6099 35.55" stroke="#231F20" stroke-miterlimit="10" stroke-linecap="round"/>
<path d="M6.00001 27C5.93527 29.8556 6.06557 32.7122 6.39001 35.55" stroke="#231F20" stroke-miterlimit="10" stroke-linecap="round"/>
<path d="M27.9098 23.29C27.2198 22.29 22.6598 22.17 19.9998 22.17C17.3398 22.17 12.7798 22.29 12.0898 23.29C11.3998 23.79 11.3298 26.46 11.3298 28.67C11.3298 30.88 11.3998 33.54 12.0898 34.04C12.7798 35.04 17.3398 35.17 19.9998 35.17C22.6598 35.17 27.2198 35 27.9098 34C28.5998 33.5 28.6698 30.83 28.6698 28.63C28.6698 26.43 28.5998 23.79 27.9098 23.29Z" fill="white" stroke="#231F20" stroke-miterlimit="10"/>
<path d="M14.1599 27.41C18.0435 27.8 21.9563 27.8 25.8399 27.41H14.1599Z" fill="white"/>
<path d="M14.1599 27.41C18.0435 27.8 21.9563 27.8 25.8399 27.41" stroke="#231F20" stroke-miterlimit="10" stroke-linecap="round"/>
<path d="M22.8899 5.58C20.9684 5.38003 19.0313 5.38003 17.1099 5.58H22.8899Z" fill="white"/>
<path d="M22.8899 5.58C20.9684 5.38003 19.0313 5.38003 17.1099 5.58" stroke="#231F20" stroke-miterlimit="10" stroke-linecap="round"/>
<path d="M26.8499 9.71C28.2192 10.3509 29.3576 11.3985 30.1099 12.71" stroke="white" stroke-miterlimit="10" stroke-linecap="round"/>
</svg>
