<svg width="40" height="40" viewBox="0 0 40 40" fill="none" xmlns="http://www.w3.org/2000/svg">
<path d="M25.5439 7.169C26.3709 7.955 27.8669 10.213 28.7039 10.993C29.6849 12.245 29.8199 15.74 29.8199 17.887C29.8199 20.341 29.6469 24.52 28.2409 25.155C27.9979 25.3192 27.7217 25.4278 27.4319 25.473C27.5479 26.927 27.5479 28.756 27.5479 30.403C27.5479 33.493 27.4899 37.218 26.9509 37.921C26.4109 39.317 22.8209 39.5 20.7219 39.5C18.6229 39.5 15.0319 39.317 14.4929 37.921C14.0929 37.41 13.0489 36.477 13.0489 36.477C12.4999 35.774 12.4519 32.048 12.4519 28.958C12.4519 27.474 12.4679 25.841 12.5419 24.468C12.4548 24.3087 12.3792 24.1432 12.3159 23.973C12.1178 23.915 11.9299 23.8266 11.7589 23.711C10.3529 23.076 10.1799 18.878 10.1799 16.442C10.1799 14.267 10.3249 10.598 11.3839 9.452C12.167 8.73068 12.9467 8.00567 13.7229 7.277C13.7329 6.841 13.8599 6.416 14.0889 6.045C14.2549 5.80486 14.5003 5.63099 14.7819 5.554C15.1172 4.63947 15.5915 3.78207 16.1879 3.012C16.7962 2.18045 17.5113 1.43267 18.3149 0.788C18.6009 0.6 18.9349 0.5 19.2779 0.5C21.6699 0.5 23.3019 3.959 24.4379 5.525C24.7429 5.60178 25.0097 5.78653 25.1889 6.045C25.4059 6.381 25.5279 6.769 25.5439 7.169Z" fill="#00034A" stroke="#00034A" stroke-miterlimit="10"/>
<path d="M27.26 9.55003C26.104 8.47003 24.823 7.22903 24.823 7.22903C24.8176 6.8088 24.6942 6.39853 24.467 6.04503C24.288 5.78676 24.0216 5.60203 23.717 5.52503C23.4099 4.60434 22.9289 3.75121 22.3 3.01203C21.7124 2.1847 21.0199 1.43712 20.24 0.78803C19.954 0.599894 19.6192 0.499634 19.277 0.499634C18.9347 0.499634 18.5999 0.599894 18.314 0.78803C17.5103 1.43271 16.7952 2.18048 16.187 3.01203C15.5905 3.7821 15.1162 4.6395 14.781 5.55403C14.499 5.63103 14.254 5.80403 14.088 6.04403C13.859 6.4154 13.7327 6.84088 13.722 7.27703C13.722 7.27703 12.452 8.47103 11.382 9.45303C10.324 10.599 10.179 14.267 10.179 16.443C10.179 18.878 10.352 23.076 11.758 23.711C12.001 23.875 12.277 23.984 12.567 24.029C12.47 25.483 12.451 27.312 12.451 28.958C12.451 32.048 12.499 35.774 13.048 36.477C13.588 37.873 17.178 38.056 19.277 38.056C21.376 38.056 24.967 37.873 25.506 36.477C26.045 35.774 26.103 32.048 26.103 28.958C26.103 27.312 26.103 25.483 25.987 24.028C26.277 23.984 26.553 23.875 26.796 23.711C28.202 23.076 28.375 18.897 28.375 16.442C28.375 14.295 28.24 10.801 27.258 9.54903L27.26 9.55003Z" fill="#9BFF00" stroke="#00034A" stroke-miterlimit="10"/>
<path d="M19.278 22.132C19.9566 22.1415 20.6303 22.016 21.2599 21.7629C21.8896 21.5098 22.4627 21.134 22.9459 20.6575C23.4292 20.181 23.8129 19.6132 24.0748 18.9871C24.3367 18.361 24.4715 17.6891 24.4715 17.0105C24.4715 16.3318 24.3367 15.6599 24.0748 15.0339C23.8129 14.4078 23.4292 13.84 22.9459 13.3635C22.4627 12.887 21.8896 12.5112 21.2599 12.2581C20.6303 12.005 19.9566 11.8795 19.278 11.889C17.9321 11.9078 16.6476 12.4557 15.7025 13.4141C14.7574 14.3725 14.2275 15.6644 14.2275 17.0105C14.2275 18.3565 14.7574 19.6485 15.7025 20.6069C16.6476 21.5653 17.9321 22.1132 19.278 22.132Z" fill="white" stroke="#00034A" stroke-miterlimit="10"/>
<path d="M23.8321 9.65498C23.8321 9.65498 22.3111 9.47198 19.2781 9.47198C16.2451 9.47198 14.7241 9.60699 14.7241 9.60699" stroke="#00034A" stroke-miterlimit="10" stroke-linecap="round"/>
<path d="M15.8601 24.28C15.8601 24.28 17.0061 24.385 19.2781 24.385C21.5501 24.385 22.6961 24.279 22.6961 24.279" stroke="#00034A" stroke-miterlimit="10" stroke-linecap="round"/>
<path d="M21.5501 6.15003C21.5501 6.15003 20.8001 6.10303 19.2781 6.10303C17.7571 6.10303 17.0061 6.15103 17.0061 6.15103" stroke="#00034A" stroke-miterlimit="10" stroke-linecap="round"/>
<path d="M19.2781 27.812V32.366" stroke="#00034A" stroke-miterlimit="10" stroke-linecap="round"/>
<path d="M15.8601 27.812V32.366" stroke="#00034A" stroke-miterlimit="10" stroke-linecap="round"/>
<path d="M22.696 27.812V32.366" stroke="#00034A" stroke-miterlimit="10" stroke-linecap="round"/>
<path d="M19.2781 14.45V17.01L21.8381 18.29" stroke="#00034A" stroke-linecap="round" stroke-linejoin="round"/>
</svg>
