<svg width="40" height="40" viewBox="0 0 40 40" fill="none" xmlns="http://www.w3.org/2000/svg">
<path d="M25.44 20C29.3 16.62 33.19 13.08 33.84 11.94C34.0506 11.6739 34.2057 11.3683 34.2963 11.0412C34.3868 10.7142 34.4108 10.3723 34.367 10.0358C34.3232 9.69928 34.2124 9.37495 34.0412 9.08198C33.8699 8.789 33.6417 8.53331 33.37 8.33C31.58 7 21.33 0.5 19.49 0.5C18.24 0.5 16.73 0.97 16.49 2.7C16.14 3.77 15.96 7.56 15.88 11.88C14.095 10.3021 12.1629 8.89899 10.11 7.69C8.74 6.89 7.44 7.75 6.62 8.69C5.8 9.63 5.15 11.07 6.15 12.3C6.78 13.4 10.4 16.73 14.15 19.99C10.43 23.25 6.81 26.58 6.15 27.67C5.15 28.91 5.81 30.33 6.62 31.28C7.43 32.23 8.74 33.1 10.11 32.28C12.1659 31.0795 14.0986 29.6794 15.88 28.1C15.96 32.42 16.14 36.21 16.49 37.27C16.607 37.9233 16.9622 38.5099 17.4868 38.9163C18.0115 39.3227 18.6682 39.52 19.33 39.47C21 39.85 31.6 33 33.37 31.66C33.6414 31.4576 33.8694 31.2028 34.0405 30.9107C34.2117 30.6186 34.3224 30.2951 34.3662 29.9594C34.4101 29.6237 34.3861 29.2826 34.2957 28.9563C34.2053 28.6301 34.0503 28.3253 33.84 28.06C33.19 26.92 29.3 23.38 25.44 20ZM23.11 10.73L24.21 11.42L23.14 12.29C23.1333 11.7633 23.1233 11.2433 23.11 10.73ZM23.11 27.73L24.2 28.61L23.08 29.31L23.11 27.73Z" fill="#FF52A1" stroke="#231F20" stroke-miterlimit="10"/>
<path d="M27.54 7.41C29.41 8.41 31.27 9.33 31.86 10.11" stroke="white" stroke-miterlimit="10" stroke-linecap="round"/>
</svg>
