<svg width="40" height="40" viewBox="0 0 40 40" fill="none" xmlns="http://www.w3.org/2000/svg">
<path d="M6.843 1.59701C4.686 1.59701 2.091 1.79201 1.603 3.14801C0.627 4.55301 0.5 13.911 0.5 19.356C0.5 24.801 0.627 34.159 1.603 35.564C2.507 38.168 5.295 38.404 7.701 38.404C9.858 38.404 12.453 38.257 12.941 36.852C13.917 35.447 14.044 26.118 14.044 20.644C14.044 15.169 13.917 5.84101 12.941 4.43601C12.014 1.85801 9.253 1.59601 6.843 1.59601V1.59701Z" fill="#00034A" stroke="#00034A" stroke-miterlimit="10"/>
<path d="M24.0701 2.34798C23.0381 1.70798 21.1581 1.59698 19.5281 1.59698C17.3721 1.59698 14.7761 1.79198 14.2881 3.14798C13.3121 4.55298 13.1851 13.882 13.1851 19.356C13.1851 24.83 13.3121 34.159 14.2881 35.564C14.5061 36.192 15.3221 37.356 15.8761 37.692C16.9141 38.322 18.7731 38.403 20.3861 38.403C22.5431 38.403 25.1391 38.257 25.6261 36.852C26.6021 35.447 26.7291 26.118 26.7291 20.644C26.7291 15.169 26.6021 5.84098 25.6271 4.43598C25.3891 3.77498 24.6821 2.72598 24.0701 2.34798Z" fill="#00034A" stroke="#00034A" stroke-miterlimit="10"/>
<path d="M36.7311 2.33298C35.6941 1.70598 33.8311 1.59698 32.2141 1.59698C30.0571 1.59698 27.4621 1.79198 26.9741 3.14798C25.9981 4.55298 25.8711 13.882 25.8711 19.356C25.8711 24.83 25.9981 34.159 26.9741 35.564C27.1891 36.184 27.9981 37.344 28.5421 37.68C29.5771 38.32 31.4491 38.403 33.0721 38.403C35.2291 38.403 37.8241 38.257 38.3121 36.852C39.2881 35.447 39.4151 26.118 39.4151 20.644C39.4151 15.169 39.2881 5.84098 38.3121 4.43598C38.0721 3.76598 37.3541 2.70898 36.7311 2.33298Z" fill="#00034A" stroke="#00034A" stroke-miterlimit="10"/>
<path d="M12.083 35.564C13.059 34.159 13.185 24.831 13.185 19.356C13.185 13.882 13.059 4.55298 12.083 3.14798C11.595 1.79198 8.999 1.59698 6.843 1.59698C4.686 1.59698 2.091 1.79198 1.603 3.14798C0.627 4.55298 0.5 13.911 0.5 19.356C0.5 24.801 0.627 34.159 1.603 35.564C2.091 36.97 4.686 37.116 6.843 37.116C8.999 37.116 11.595 36.97 12.083 35.564Z" fill="#9BFF00" stroke="#00034A" stroke-miterlimit="10"/>
<path d="M3.36911 29.173C3.67111 29.466 5.68211 29.505 6.84311 29.505C8.00411 29.505 10.0141 29.505 10.3171 29.173C10.6191 29.027 10.6481 28.246 10.6481 27.602C10.6481 26.958 10.6481 26.177 10.3171 26.031C10.0141 25.738 8.01411 25.699 6.84311 25.699C5.67211 25.699 3.67111 25.699 3.36911 26.031C3.06611 26.177 3.03711 26.958 3.03711 27.601C3.03711 28.246 3.06711 29.026 3.36911 29.173Z" fill="white" stroke="#00034A" stroke-miterlimit="10"/>
<path d="M10.6481 9.40298C8.11776 9.14937 5.56841 9.14937 3.03809 9.40298" stroke="#00034A" stroke-miterlimit="10" stroke-linecap="round"/>
<path d="M10.6481 11.94C8.11825 11.6767 5.56792 11.6767 3.03809 11.94" stroke="#00034A" stroke-miterlimit="10" stroke-linecap="round"/>
<path d="M24.7681 35.564C25.7441 34.159 25.8711 24.831 25.8711 19.356C25.8711 13.882 25.7441 4.55298 24.7681 3.14798C24.2801 1.79198 21.6851 1.59698 19.5281 1.59698C17.3721 1.59698 14.7761 1.79198 14.2881 3.14798C13.3121 4.55298 13.1851 13.882 13.1851 19.356C13.1851 24.83 13.3121 34.159 14.2881 35.564C14.7761 36.97 17.3721 37.116 19.5281 37.116C21.6851 37.116 24.2801 36.97 24.7681 35.564Z" fill="#9BFF00" stroke="#00034A" stroke-miterlimit="10"/>
<path d="M16.0539 29.173C16.3569 29.466 18.3669 29.505 19.5279 29.505C20.6899 29.505 22.6999 29.505 23.0019 29.173C23.3049 29.027 23.3339 28.246 23.3339 27.602C23.3339 26.958 23.3339 26.177 23.0019 26.031C22.6999 25.738 20.6989 25.699 19.5279 25.699C18.3579 25.699 16.3569 25.699 16.0539 26.031C15.7519 26.177 15.7229 26.958 15.7229 27.601C15.7229 28.246 15.7519 29.026 16.0539 29.173Z" fill="white" stroke="#00034A" stroke-miterlimit="10"/>
<path d="M23.3339 9.40303C20.8032 9.14935 18.2536 9.14935 15.7229 9.40303" stroke="#00034A" stroke-miterlimit="10" stroke-linecap="round"/>
<path d="M23.3339 11.94C20.8037 11.6766 18.2531 11.6766 15.7229 11.94" stroke="#00034A" stroke-miterlimit="10" stroke-linecap="round"/>
<path d="M37.4541 35.564C38.4301 34.159 38.5561 24.831 38.5561 19.356C38.5561 13.882 38.4301 4.55298 37.4541 3.14798C36.9661 1.79198 34.3701 1.59698 32.2141 1.59698C30.0571 1.59698 27.4621 1.79198 26.9741 3.14798C25.9981 4.55298 25.8711 13.882 25.8711 19.356C25.8711 24.83 25.9981 34.159 26.9741 35.564C27.4621 36.97 30.0571 37.116 32.2141 37.116C34.3701 37.116 36.9661 36.97 37.4541 35.564Z" fill="#9BFF00" stroke="#00034A" stroke-miterlimit="10"/>
<path d="M28.74 29.173C29.042 29.466 31.053 29.505 32.214 29.505C33.374 29.505 35.385 29.505 35.688 29.173C35.99 29.027 36.019 28.246 36.019 27.602C36.019 26.958 36.019 26.177 35.688 26.031C35.385 25.738 33.385 25.699 32.214 25.699C31.043 25.699 29.042 25.699 28.74 26.031C28.437 26.177 28.408 26.958 28.408 27.601C28.408 28.246 28.438 29.026 28.74 29.173Z" fill="white" stroke="#00034A" stroke-miterlimit="10"/>
<path d="M36.02 9.40302C33.489 9.14927 30.9389 9.14927 28.408 9.40302" stroke="#00034A" stroke-miterlimit="10" stroke-linecap="round"/>
<path d="M36.02 11.94C33.4895 11.6766 30.9385 11.6766 28.408 11.94" stroke="#00034A" stroke-miterlimit="10" stroke-linecap="round"/>
</svg>
