<svg width="40" height="40" viewBox="0 0 40 40" fill="none" xmlns="http://www.w3.org/2000/svg">
<path d="M35.8536 28.3491C34.8362 27.5178 33.7741 26.7429 32.672 26.0278C32.8679 25.1025 33.0047 24.1653 33.0825 23.2223C34.2905 23.186 35.4945 23.0646 36.6854 22.859C38.1617 22.7321 39.2469 21.4189 39.0933 19.9451C39.1301 19.5949 39.0966 19.2408 38.9949 18.9036C38.6946 17.9054 37.6885 16.7369 36.7917 16.2664C36.4798 16.1031 36.1385 16.0037 35.7876 15.974C34.8099 15.8158 33.8239 15.7146 32.8344 15.6708C32.7163 15.0132 32.5686 14.3596 32.3944 13.7138C33.9304 12.7895 35.3995 11.7582 36.7908 10.6277C38.0057 9.7778 38.2815 8.0937 37.4011 6.9007C37.1235 6.2333 36.4285 5.4713 35.9048 4.9653C35.1089 4.196 33.9173 4.0053 32.921 4.4879C31.3418 5.1108 29.806 5.8386 28.3238 6.6664C26.0294 4.3019 22.8347 3.0293 19.5429 3.1688C16.2504 3.0286 13.0548 4.3012 10.7599 6.6664C9.27776 5.8386 7.74196 5.1108 6.16266 4.4879C4.81346 3.823 3.18226 4.4191 2.57946 5.7972C1.94036 6.6717 1.89826 7.8472 2.47316 8.7652C2.81966 9.3184 3.57076 10.2142 4.08856 10.5794C5.17226 11.4601 6.30336 12.2807 7.47686 13.0375C7.26326 13.8979 7.09886 14.7701 6.98466 15.6492C5.74926 15.6689 4.51676 15.7771 3.29606 15.974C1.82676 16.1096 0.751958 17.4205 0.906958 18.8879C0.870058 19.2367 0.902858 19.5894 1.00336 19.9255C1.28886 20.8803 2.29096 22.0813 3.19566 22.5617C3.50576 22.7261 3.84536 22.8275 4.19386 22.859C5.09956 23.0165 6.01306 23.1248 6.93056 23.1839C7.02606 23.93 7.15896 24.6723 7.32926 25.4057C5.86936 26.2867 4.47386 27.2703 3.15336 28.3491C1.94236 29.2013 1.66636 30.8812 2.54106 32.0761C2.82456 32.7356 3.52546 33.5133 4.05306 34.0104C4.86366 34.7754 6.06766 34.948 7.06046 34.4416C8.43676 33.9175 9.77486 33.2981 11.0651 32.588C13.3444 35.4035 16.8201 36.9766 20.4397 36.8308C24.0726 36.9891 27.5652 35.4148 29.8526 32.588C31.1304 33.2965 32.4556 33.9159 33.8188 34.4416C35.1584 35.0797 36.7605 34.4879 37.3637 33.1323C38.0073 32.259 38.0507 31.0807 37.473 30.1624C37.1265 29.6111 36.3724 28.7113 35.8536 28.3491Z" fill="#00034A" stroke="#00034A" stroke-miterlimit="10"/>
<path d="M35.7875 21.8037C37.2648 21.6779 38.3507 20.3634 38.1954 18.8889C38.3519 17.414 37.2654 16.0988 35.7875 15.974C34.5669 15.7771 33.3344 15.6688 32.099 15.6492C31.9636 14.6399 31.7624 13.6405 31.4965 12.6575C33.0325 11.7335 34.5016 10.7026 35.8929 9.57238C37.1087 8.72318 37.385 7.03848 36.5042 5.84538C35.9205 4.44858 34.2833 3.82878 32.9209 4.48888C31.3417 5.11178 29.8059 5.83958 28.3237 6.66738C26.0293 4.30288 22.8346 3.03028 19.5428 3.16978C16.2503 3.02958 13.0546 4.30218 10.7598 6.66738C9.2777 5.83958 7.7419 5.11178 6.1626 4.48888C4.8134 3.82398 3.1821 4.41998 2.5794 5.79818C1.7066 6.99308 1.9824 8.67138 3.1917 9.52418C4.5826 10.655 6.0514 11.6866 7.5871 12.6113C7.3186 13.6096 7.1173 14.6249 6.9846 15.6502C5.7492 15.6698 4.5167 15.7781 3.296 15.975C1.8267 16.1106 0.751904 17.4215 0.906804 18.8889C0.751304 20.3569 1.8261 21.6686 3.296 21.8047C4.4616 22.0065 5.6399 22.1276 6.8222 22.168C6.9122 23.2584 7.0817 24.3409 7.3292 25.4067C5.8693 26.2877 4.4738 27.2713 3.1533 28.3501C1.9423 29.2022 1.6663 30.8822 2.541 32.0771C3.1428 33.4788 4.805 34.0791 6.1636 33.3853C7.5396 32.8612 8.8774 32.2419 10.1672 31.5317C12.4465 34.3473 15.9222 35.9203 19.5418 35.7745C23.1746 35.9325 26.6672 34.3583 28.9547 31.5317C30.2325 32.2403 31.5577 32.8596 32.9209 33.3853C34.2605 34.0234 35.8626 33.4317 36.4658 32.0761C37.346 30.8828 37.0698 29.1986 35.8545 28.3491C34.534 27.2703 33.1385 26.2867 31.6786 25.4057C31.9257 24.3396 32.095 23.2577 32.1846 22.167C33.3926 22.1299 34.5966 22.0082 35.7876 21.8027L35.7875 21.8037Z" fill="#9BFF00" stroke="#00034A" stroke-miterlimit="10"/>
<path d="M12.5564 11.3207C12.5564 11.3207 14.8885 12.4862 19.5418 12.4862C24.1961 12.4862 26.5272 11.3207 26.5272 11.3207" stroke="#00034A" stroke-miterlimit="10" stroke-linecap="round"/>
<path d="M16.0443 8.98772C16.9415 8.98772 17.5023 8.01642 17.0537 7.23932C16.8455 6.87872 16.4607 6.65662 16.0443 6.65662C15.1467 6.65662 14.5856 7.62832 15.0345 8.40572C15.2428 8.76642 15.6277 8.98772 16.0443 8.98772Z" fill="#00034A"/>
<path d="M23.0396 8.98772C23.9368 8.98772 24.4976 8.01642 24.049 7.23932C23.8408 6.87872 23.456 6.65662 23.0396 6.65662C22.142 6.65662 21.581 7.62832 22.0298 8.40572C22.2381 8.76642 22.623 8.98772 23.0396 8.98772Z" fill="#00034A"/>
</svg>
