<svg width="40" height="40" viewBox="0 0 40 40" fill="none" xmlns="http://www.w3.org/2000/svg">
<g clip-path="url(#clip0_2301_14143)">
<path d="M37 22.44C37.3671 22.4088 37.7243 22.3046 38.0507 22.1337C38.377 21.9627 38.666 21.7283 38.9007 21.4443C39.1353 21.1603 39.311 20.8323 39.4173 20.4796C39.5237 20.1268 39.5586 19.7564 39.52 19.39C39.5586 19.0236 39.5237 18.6532 39.4173 18.3004C39.311 17.9477 39.1353 17.6197 38.9007 17.3357C38.666 17.0517 38.377 16.8173 38.0507 16.6463C37.7243 16.4754 37.3671 16.3712 37 16.34C35.7233 16.1334 34.4332 16.0198 33.14 16C32.9986 14.944 32.7881 13.8985 32.51 12.87C34.1172 11.9025 35.6543 10.8232 37.11 9.64C37.4119 9.42897 37.6684 9.15966 37.8646 8.84793C38.0608 8.5362 38.1925 8.18837 38.2522 7.82492C38.3118 7.46147 38.2981 7.08976 38.2119 6.73169C38.1256 6.37362 37.9686 6.03644 37.75 5.74C37.6054 5.39369 37.3916 5.08052 37.1217 4.81964C36.8519 4.55876 36.5317 4.35566 36.1807 4.22275C35.8297 4.08983 35.4553 4.02991 35.0803 4.04663C34.7054 4.06335 34.3378 4.15637 34 4.32C32.3477 4.97195 30.7407 5.73365 29.19 6.6C28.0028 5.37648 26.5703 4.41787 24.9865 3.78709C23.4026 3.15631 21.7033 2.86763 20 2.94C18.2967 2.86763 16.5974 3.15631 15.0136 3.78709C13.4297 4.41787 11.9972 5.37648 10.81 6.6C9.2593 5.73365 7.65238 4.97195 6.00002 4.32C5.66534 4.15491 5.30065 4.05941 4.928 4.03927C4.55535 4.01913 4.1825 4.07477 3.83197 4.20283C3.48144 4.3309 3.16052 4.52871 2.88861 4.78433C2.61671 5.03994 2.39947 5.34804 2.25002 5.69C2.03277 5.98693 1.87685 6.32416 1.79135 6.68201C1.70586 7.03986 1.69252 7.41116 1.7521 7.77423C1.81168 8.13729 1.94299 8.48485 2.13836 8.79661C2.33374 9.10837 2.58927 9.37808 2.89002 9.59C4.34572 10.7732 5.88285 11.8525 7.49002 12.82C7.20924 13.8647 6.99877 14.9271 6.86002 16C5.56687 16.0207 4.27689 16.1344 3.00002 16.34C2.63468 16.3737 2.27967 16.4797 1.95561 16.6518C1.63156 16.8238 1.34491 17.0585 1.11232 17.3423C0.879734 17.6261 0.705835 17.9532 0.600724 18.3047C0.495612 18.6562 0.461383 19.0251 0.500024 19.39C0.461383 19.7549 0.495612 20.1238 0.600724 20.4753C0.705835 20.8268 0.879734 21.1539 1.11232 21.4377C1.34491 21.7215 1.63156 21.9562 1.95561 22.1283C2.27967 22.3003 2.63468 22.4063 3.00002 22.44C4.21981 22.6514 5.45275 22.7784 6.69002 22.82C6.78406 23.9614 6.9612 25.0944 7.22002 26.21C5.69225 27.1319 4.2319 28.1611 2.85002 29.29C2.54927 29.5019 2.29374 29.7716 2.09836 30.0834C1.90299 30.3952 1.77168 30.7427 1.7121 31.1058C1.65252 31.4688 1.66586 31.8401 1.75135 32.198C1.83685 32.5558 1.99277 32.8931 2.21002 33.19C2.35906 33.5372 2.57778 33.85 2.85264 34.1092C3.1275 34.3684 3.45264 34.5684 3.80794 34.6969C4.16324 34.8253 4.54112 34.8794 4.91818 34.8559C5.29525 34.8323 5.66346 34.7316 6.00002 34.56C7.44007 34.0115 8.84013 33.3632 10.19 32.62C11.3663 34.0731 12.8658 35.2313 14.569 36.0021C16.2723 36.773 18.132 37.1352 20 37.06C21.8747 37.1416 23.7423 36.7824 25.453 36.0113C27.1637 35.2402 28.6697 34.0787 29.85 32.62C31.187 33.3616 32.5736 34.0098 34 34.56C34.3328 34.7187 34.6939 34.8091 35.0622 34.8259C35.4304 34.8427 35.7983 34.7856 36.1441 34.6579C36.4899 34.5302 36.8067 34.3345 37.0756 34.0824C37.3446 33.8303 37.5603 33.5268 37.71 33.19C37.9286 32.8936 38.0856 32.5564 38.1719 32.1983C38.2581 31.8402 38.2718 31.4685 38.2122 31.1051C38.1525 30.7416 38.0208 30.3938 37.8246 30.0821C37.6284 29.7703 37.3719 29.501 37.07 29.29C35.6881 28.1611 34.2278 27.1319 32.7 26.21C32.9589 25.0944 33.136 23.9614 33.23 22.82C34.494 22.7814 35.7537 22.6544 37 22.44Z" fill="#48EEFF" stroke="#231F20" stroke-miterlimit="10"/>
<path d="M12.6899 11.47C12.6899 11.47 15.1299 12.69 19.9999 12.69C24.8699 12.69 27.3099 11.47 27.3099 11.47" stroke="#231F20" stroke-miterlimit="10" stroke-linecap="round"/>
<path d="M15.1201 7.81C15.1201 7.97021 15.1517 8.12886 15.213 8.27687C15.2743 8.42489 15.3642 8.55938 15.4774 8.67267C15.5907 8.78596 15.7252 8.87582 15.8732 8.93713C16.0213 8.99844 16.1799 9.03 16.3401 9.03C16.5003 9.03 16.659 8.99844 16.807 8.93713C16.955 8.87582 17.0895 8.78596 17.2028 8.67267C17.3161 8.55938 17.4059 8.42489 17.4672 8.27687C17.5286 8.12886 17.5601 7.97021 17.5601 7.81C17.5601 7.64979 17.5286 7.49114 17.4672 7.34313C17.4059 7.19511 17.3161 7.06062 17.2028 6.94733C17.0895 6.83404 16.955 6.74418 16.807 6.68287C16.659 6.62156 16.5003 6.59 16.3401 6.59C16.1799 6.59 16.0213 6.62156 15.8732 6.68287C15.7252 6.74418 15.5907 6.83404 15.4774 6.94733C15.3642 7.06062 15.2743 7.19511 15.213 7.34313C15.1517 7.49114 15.1201 7.64979 15.1201 7.81Z" fill="#231F20"/>
<path d="M22.4399 7.81C22.4399 8.13356 22.5685 8.44388 22.7973 8.67267C23.0261 8.90146 23.3364 9.03 23.6599 9.03C23.9835 9.03 24.2938 8.90146 24.5226 8.67267C24.7514 8.44388 24.8799 8.13356 24.8799 7.81C24.8799 7.48644 24.7514 7.17612 24.5226 6.94733C24.2938 6.71854 23.9835 6.59 23.6599 6.59C23.3364 6.59 23.0261 6.71854 22.7973 6.94733C22.5685 7.17612 22.4399 7.48644 22.4399 7.81Z" fill="#231F20"/>
<path d="M32.1401 7.32C34.9401 5.78 35.4901 6.11 35.7801 6.32" stroke="white" stroke-miterlimit="10" stroke-linecap="round"/>
</g>
<defs>
<clipPath id="clip0_2301_14143">
<rect width="40" height="40" fill="white"/>
</clipPath>
</defs>
</svg>
