<svg width="40" height="40" viewBox="0 0 40 40" fill="none" xmlns="http://www.w3.org/2000/svg">
<g clip-path="url(#clip0_2301_14120)">
<path d="M0.5 20C0.5 25.1717 2.55446 30.1316 6.21142 33.7886C9.86838 37.4455 14.8283 39.5 20 39.5C25.1717 39.5 30.1316 37.4455 33.7886 33.7886C37.4455 30.1316 39.5 25.1717 39.5 20C39.5 14.8283 37.4455 9.86838 33.7886 6.21142C30.1316 2.55446 25.1717 0.5 20 0.5C14.8283 0.5 9.86838 2.55446 6.21142 6.21142C2.55446 9.86838 0.5 14.8283 0.5 20Z" fill="#FF52A1" stroke="#231F20" stroke-miterlimit="10"/>
<path d="M30.0799 25.41C29.9199 24.64 27.77 22.26 25.5999 20C27.77 17.74 29.9199 15.36 30.0799 14.59C30.5399 13.7 29.4499 12.48 28.4899 11.51C27.5299 10.54 26.2999 9.51 25.4099 9.92C24.6399 10.08 22.2599 12.23 19.9999 14.4C17.7399 12.23 15.3599 10.08 14.5899 9.92C13.6999 9.46 12.4799 10.55 11.5199 11.51C10.5599 12.47 9.45995 13.7 9.91995 14.59C10.0799 15.36 12.2299 17.74 14.3999 20C12.2299 22.26 10.0799 24.64 9.91995 25.41C9.45995 26.3 10.5499 27.52 11.5099 28.49C12.4699 29.46 13.6999 30.54 14.5899 30.08C15.3599 29.92 17.7399 27.77 19.9999 25.6C22.2599 27.77 24.6399 29.92 25.4099 30.08C26.2999 30.54 27.5199 29.45 28.4899 28.49C29.4599 27.53 30.5399 26.3 30.0799 25.41Z" fill="white" stroke="#231F20" stroke-miterlimit="10"/>
<path d="M27.5601 5C29.5576 5.85715 31.3504 7.12849 32.8201 8.73" stroke="white" stroke-miterlimit="10" stroke-linecap="round"/>
</g>
<defs>
<clipPath id="clip0_2301_14120">
<rect width="40" height="40" fill="white"/>
</clipPath>
</defs>
</svg>
