<svg width="40" height="40" viewBox="0 0 40 40" fill="none" xmlns="http://www.w3.org/2000/svg">
<path d="M20 0.5C17.71 0.5 4.5 1.07 4.86 14.94C4.86 15.64 4.86 18.48 5.86 19.82C6.2 21 8.4 22.17 10.22 22.17C12.04 22.17 14.22 20.99 14.66 19.82C16.56 17.12 13.99 11.33 19.97 11.33C25.78 11.33 24.3 17.14 24.3 24.88C24.3 29.59 24.46 35.88 25.3 37.06C25.72 38.28 27.92 39.5 29.74 39.5C31.56 39.5 33.74 38.28 34.18 37.06C35 35.84 35.18 29.59 35.18 24.88C35.14 14.53 36.67 0.5 20 0.5Z" fill="#FF52A1" stroke="#231F20" stroke-miterlimit="10"/>
<path d="M27.47 30.49C27.47 30.49 28.3 29.97 29.87 28.82C31.44 27.67 32.18 27 32.18 27" stroke="#231F20" stroke-miterlimit="10" stroke-linecap="round"/>
<path d="M27.47 20.68C27.47 20.68 28.3 20.16 29.87 19.01C31.44 17.86 32.18 17.21 32.18 17.21" stroke="#231F20" stroke-miterlimit="10" stroke-linecap="round"/>
<path d="M8.30005 16.5C8.30005 16.5 9.12005 15.98 10.69 14.83C12.26 13.68 13 13 13 13" stroke="#231F20" stroke-miterlimit="10" stroke-linecap="round"/>
<path d="M25.54 10.25C25.54 10.25 25.82 9.32 26.25 7.42C26.68 5.52 26.82 4.55 26.82 4.55" stroke="#231F20" stroke-miterlimit="10" stroke-linecap="round"/>
<path d="M18.8599 8.46C18.8599 8.46 18.3399 7.63 17.1799 6.07C16.0199 4.51 15.3799 3.77 15.3799 3.77" stroke="#231F20" stroke-miterlimit="10" stroke-linecap="round"/>
<path d="M30 7.4C30.9254 8.6366 31.5518 10.0708 31.83 11.59" stroke="white" stroke-miterlimit="10" stroke-linecap="round"/>
</svg>
