<svg width="40" height="40" viewBox="0 0 40 40" fill="none" xmlns="http://www.w3.org/2000/svg">
<g clip-path="url(#clip0_2301_14095)">
<path d="M36.4101 22.46C35.5202 22.3672 34.6218 22.3975 33.7401 22.55C33.2901 21.9 32.7401 21.13 32.1501 20.46C31.2616 19.3544 30.2557 18.3486 29.1501 17.46C28.8119 17.2693 28.4223 17.1899 28.0364 17.233C27.6505 17.2761 27.288 17.4394 27.0001 17.7C26.6908 17.9302 26.4637 18.2537 26.3521 18.6228C26.2404 18.9918 26.2503 19.387 26.3801 19.75C27.0542 20.9937 27.866 22.1576 28.8001 23.22C27.5701 23.43 26.3701 23.65 25.3401 23.86C24.3101 24.07 23.1201 24.34 21.9101 24.62C22.3452 23.275 22.6336 21.887 22.7701 20.48C22.7463 20.0948 22.5993 19.7275 22.3508 19.4322C22.1024 19.1369 21.7656 18.9293 21.3901 18.84C21.0265 18.7099 20.6308 18.699 20.2605 18.8086C19.8902 18.9183 19.5643 19.1429 19.3301 19.45C18.669 20.6983 18.1491 22.0165 17.7801 23.38C17.5301 24.21 17.2901 25.14 17.1301 25.92C16.2597 26.1422 15.4225 26.4785 14.6401 26.92C13.2201 28.1 14.5901 30.92 15.9401 33.32C18.6401 38.02 18.8901 38.88 20.6601 39.41C21.7101 39.72 24.5501 39.41 28.3301 38.65C32.1101 37.89 34.8301 37.04 35.6701 36.34C37.0901 35.16 37.3701 34.29 37.6701 28.89C37.8801 25.39 38.1801 23 36.4101 22.46Z" fill="#FF52A1" stroke="#231F20" stroke-miterlimit="10"/>
<path d="M20.4001 29.56C20.9542 31.5075 21.622 33.4207 22.4001 35.29" stroke="#231F20" stroke-linecap="round" stroke-linejoin="round"/>
<path d="M32.1902 27.15C32.4279 29.1647 32.5514 31.1913 32.5602 33.22" stroke="#231F20" stroke-linecap="round" stroke-linejoin="round"/>
<path d="M26.29 28.36L27.5 34.26" stroke="#231F20" stroke-linecap="round" stroke-linejoin="round"/>
<path d="M35.05 24C35.87 23.94 36.12 24 35.94 26.15" stroke="white" stroke-miterlimit="10" stroke-linecap="round"/>
<path d="M25.0601 13.23C24.5707 11.7845 23.8404 10.4321 22.9001 9.23C22.0542 7.9912 21.0102 6.89997 19.8101 6L18.8101 5.6C18.59 5.52685 18.3498 5.5436 18.1419 5.6466C17.9341 5.7496 17.7753 5.93052 17.7001 6.15C17.3915 6.95939 16.8203 7.64185 16.0779 8.08815C15.3355 8.53444 14.4648 8.71876 13.6053 8.6116C12.7457 8.50444 11.9469 8.112 11.3368 7.4971C10.7267 6.88219 10.3405 6.08038 10.2401 5.22C10.2197 4.98999 10.1098 4.77721 9.9339 4.62756C9.75805 4.4779 9.53043 4.40335 9.30012 4.42C8.64012 4.48 8.20012 4.54 8.18012 4.55C6.78419 5.14622 5.49935 5.97461 4.38012 7C3.18413 7.91711 2.14408 9.02132 1.30012 10.27C0.85012 11.03 1.45012 12.48 2.14012 13.37C2.69336 14.1466 3.51132 14.6943 4.44012 14.91C4.18012 18.01 4.04012 20.53 4.44012 21.36C5.18012 22.86 9.01012 23.66 11.6701 23.99C14.3301 24.32 18.2401 24.49 19.3301 23.21C19.9301 22.51 20.4101 20.03 20.9201 16.96C21.8646 16.9609 22.7775 16.6199 23.4901 16C24.3801 15.33 25.3201 14.08 25.0601 13.23Z" fill="#48EEFF" stroke="#231F20" stroke-miterlimit="10"/>
<path d="M5.27002 12.79C5.39298 11.9296 5.60753 11.0848 5.91002 10.27" stroke="#231F20" stroke-miterlimit="10" stroke-linecap="round"/>
<path d="M20.6401 14.71C20.7328 13.8458 20.7328 12.9742 20.6401 12.11" stroke="#231F20" stroke-miterlimit="10" stroke-linecap="round"/>
<path d="M19.6702 8C20.2708 8.53079 20.8017 9.13562 21.2502 9.8" stroke="white" stroke-miterlimit="10" stroke-linecap="round"/>
<path d="M22.3601 2.22C22.3601 2.67617 22.5413 3.11366 22.8639 3.43622C23.1864 3.75879 23.6239 3.94 24.0801 3.94C24.5363 3.94 24.9738 3.75879 25.2963 3.43622C25.6189 3.11366 25.8001 2.67617 25.8001 2.22C25.8001 1.76383 25.6189 1.32634 25.2963 1.00378C24.9738 0.681214 24.5363 0.5 24.0801 0.5C23.6239 0.5 23.1864 0.681214 22.8639 1.00378C22.5413 1.32634 22.3601 1.76383 22.3601 2.22Z" fill="#FFE236" stroke="#231F20" stroke-miterlimit="10"/>
<path d="M28.3801 5.66C28.3801 6.11617 28.5613 6.55366 28.8839 6.87622C29.2065 7.19878 29.644 7.38 30.1001 7.38C30.5563 7.38 30.9938 7.19878 31.3164 6.87622C31.6389 6.55366 31.8201 6.11617 31.8201 5.66C31.8201 5.20383 31.6389 4.76634 31.3164 4.44377C30.9938 4.12121 30.5563 3.94 30.1001 3.94C29.644 3.94 29.2065 4.12121 28.8839 4.44377C28.5613 4.76634 28.3801 5.20383 28.3801 5.66Z" fill="#FFE236" stroke="#231F20" stroke-miterlimit="10"/>
<path d="M36.6002 7.15C35.7508 8.20868 35.001 9.34349 34.3602 10.54L33.7602 11.64C33.0352 11.1867 32.2556 10.8271 31.4402 10.57C30.9602 10.46 30.5402 11.02 30.2802 11.49C30.0202 11.96 29.7602 12.61 30.1102 12.96C30.7625 13.5138 31.4814 13.9841 32.2502 14.36C32.9552 14.8492 33.7404 15.2113 34.5702 15.43C35.2502 15.59 35.5702 14.76 37.1002 12.06C37.7765 10.8815 38.3423 9.64288 38.7902 8.36C38.8416 8.22475 38.8658 8.0807 38.8614 7.93608C38.8571 7.79146 38.8242 7.64912 38.7648 7.51722C38.7053 7.38531 38.6204 7.26643 38.515 7.16738C38.4095 7.06833 38.2855 6.99106 38.1502 6.94C37.9164 6.76333 37.6223 6.68626 37.3319 6.7256C37.0415 6.76494 36.7785 6.9175 36.6002 7.15Z" fill="#FFE236" stroke="#231F20" stroke-miterlimit="10"/>
</g>
<defs>
<clipPath id="clip0_2301_14095">
<rect width="40" height="40" fill="white"/>
</clipPath>
</defs>
</svg>
