<svg width="40" height="40" viewBox="0 0 40 40" fill="none" xmlns="http://www.w3.org/2000/svg">
<g clip-path="url(#clip0_2301_14080)">
<path d="M27.6401 15.86C27.7759 15.0725 27.7759 14.2675 27.6401 13.48C27.1201 10.07 24.8701 8.09 21.0801 8.67C20.7601 8.72 20.4701 8.79 20.1801 8.86C18.7401 7 16.4201 6.06 13.2601 6.55C9.00005 7.21 6.93005 9.83 7.00005 13.42C6.6854 13.4195 6.37117 13.4429 6.06005 13.49C5.50377 13.5181 4.96073 13.6697 4.47039 13.9339C3.98004 14.1981 3.5547 14.5682 3.22528 15.0173C2.89585 15.4665 2.67061 15.9833 2.56592 16.5304C2.46124 17.0775 2.47973 17.641 2.62005 18.18C2.68613 18.5702 2.7934 18.9524 2.94005 19.32C2.20121 19.8873 1.63043 20.6448 1.28873 21.5113C0.947022 22.3779 0.847242 23.3211 1.00005 24.24C1.29005 26.07 2.72005 28.34 4.92005 28.49C6.06005 28.8 11.8001 28.4 16.5001 27.67C21.2001 26.94 26.8101 25.6 27.8001 25C29.8501 24.2 30.5401 21.6 30.2601 19.77C30.1475 18.9626 29.8532 18.1912 29.3994 17.5139C28.9456 16.8367 28.344 16.2712 27.6401 15.86Z" fill="#48EEFF" stroke="#231F20" stroke-miterlimit="10"/>
<path d="M21.6301 10.51C22.1813 10.3802 22.7576 10.4049 23.2957 10.5813C23.8338 10.7577 24.3128 11.0791 24.6801 11.51" stroke="white" stroke-miterlimit="10" stroke-linecap="round"/>
<path d="M37.8001 27.94C38.017 25.7495 38.0371 23.5441 37.8601 21.35C37.7301 18.04 34.8601 15.35 28.0801 14.84C21.3001 14.33 18.0801 16.55 17.4301 19.84C16.9187 21.9801 16.6041 24.1626 16.4901 26.36C16.2734 28.5505 16.2533 30.756 16.4301 32.95C16.5701 36.26 19.4301 38.95 26.2201 39.47C33.0101 39.99 36.2201 37.75 36.8701 34.47C37.3757 32.3257 37.6869 30.1402 37.8001 27.94Z" fill="#FF52A1" stroke="#231F20" stroke-miterlimit="10"/>
<path d="M19.28 22.19C20.77 23.48 23.45 24.38 27.28 24.67C31.11 24.96 33.95 24.48 35.62 23.43" stroke="#231F20" stroke-miterlimit="10" stroke-linecap="round"/>
<path d="M18.9102 27.1C20.4002 28.4 23.0802 29.29 26.9602 29.59C30.8402 29.89 33.6302 29.4 35.3002 28.35" stroke="#231F20" stroke-miterlimit="10" stroke-linecap="round"/>
<path d="M18.53 32C20.03 33.3 22.71 34.19 26.59 34.49C30.47 34.79 33.25 34.3 34.93 33.25" stroke="#231F20" stroke-miterlimit="10" stroke-linecap="round"/>
<path d="M30.4902 16.6C32.1002 16.98 34.0202 17.78 34.4302 18.37" stroke="white" stroke-miterlimit="10" stroke-linecap="round"/>
<path d="M32.0002 2.85C31.5133 2.35837 30.9733 1.92236 30.3902 1.55C28.8202 0.480001 28.6702 0.550001 28.4702 0.550001C28.2636 0.523285 28.0538 0.561741 27.8702 0.660001C27.6902 0.750001 27.5402 0.780001 26.4802 2.34C26.0824 2.90544 25.7471 3.51232 25.4802 4.15C25.4293 4.33858 25.4419 4.53865 25.516 4.71936C25.5901 4.90008 25.7216 5.0514 25.8902 5.15C26.0426 5.26134 26.2264 5.32134 26.4152 5.32134C26.6039 5.32134 26.7878 5.26134 26.9402 5.15C27.6202 4.74 27.6202 4.86 27.6202 4.86C27.862 6.35317 28.2232 7.82454 28.7002 9.26C28.8069 9.50242 28.9928 9.70143 29.2274 9.82448C29.462 9.94753 29.7313 9.98735 29.9915 9.93741C30.2516 9.88748 30.4871 9.75074 30.6594 9.54958C30.8318 9.34841 30.9307 9.09472 30.9402 8.83C30.8563 7.30123 30.6422 5.78239 30.3002 4.29C30.3002 4.29 30.3002 4.18 31.0302 4.29C31.2177 4.34176 31.4169 4.33067 31.5975 4.25844C31.7781 4.1862 31.9301 4.05679 32.0302 3.89C32.1335 3.73488 32.186 3.55152 32.1807 3.36523C32.1753 3.17894 32.1122 2.99891 32.0002 2.85Z" fill="#FFE236" stroke="#231F20" stroke-miterlimit="10"/>
<path d="M32.4701 12C32.9586 12.4927 33.4983 12.9319 34.0801 13.31C35.6501 14.38 35.8001 14.31 36.0001 14.31C36.2067 14.3367 36.4164 14.2983 36.6001 14.2C36.7801 14.1 36.9301 14.08 37.9901 12.52C38.3878 11.9546 38.7231 11.3477 38.9901 10.71C39.036 10.5214 39.0211 10.3231 38.9474 10.1434C38.8738 9.96383 38.7452 9.81211 38.5801 9.71C38.4277 9.59867 38.2438 9.53866 38.0551 9.53866C37.8663 9.53866 37.6825 9.59867 37.5301 9.71C36.8501 10.12 36.8601 10 36.8601 10C36.6187 8.50769 36.2609 7.03654 35.7901 5.6C35.6848 5.35918 35.5015 5.16082 35.2697 5.0369C35.0379 4.91298 34.7711 4.87071 34.5124 4.91692C34.2537 4.96312 34.018 5.0951 33.8434 5.29159C33.6689 5.48807 33.5655 5.73762 33.5501 6C33.6402 7.52816 33.8543 9.04648 34.1901 10.54C34.1901 10.54 34.1901 10.64 33.4601 10.54C33.2715 10.4941 33.0732 10.509 32.8935 10.5827C32.7139 10.6563 32.5622 10.7849 32.4601 10.95C32.3502 11.1035 32.2919 11.2879 32.2937 11.4766C32.2955 11.6654 32.3573 11.8487 32.4701 12Z" fill="#FFE236" stroke="#231F20" stroke-miterlimit="10"/>
<path d="M19.48 3.08C19.48 3.29143 19.5216 3.50079 19.6025 3.69612C19.6834 3.89146 19.802 4.06894 19.9515 4.21844C20.101 4.36795 20.2785 4.48654 20.4739 4.56745C20.6692 4.64836 20.8786 4.69 21.09 4.69C21.3014 4.69 21.5108 4.64836 21.7061 4.56745C21.9014 4.48654 22.0789 4.36795 22.2284 4.21844C22.3779 4.06894 22.4965 3.89146 22.5774 3.69612C22.6583 3.50079 22.7 3.29143 22.7 3.08C22.7 2.86857 22.6583 2.65922 22.5774 2.46388C22.4965 2.26855 22.3779 2.09106 22.2284 1.94156C22.0789 1.79206 21.9014 1.67347 21.7061 1.59256C21.5108 1.51165 21.3014 1.47 21.09 1.47C20.8786 1.47 20.6692 1.51165 20.4739 1.59256C20.2785 1.67347 20.101 1.79206 19.9515 1.94156C19.802 2.09106 19.6834 2.26855 19.6025 2.46388C19.5216 2.65922 19.48 2.86857 19.48 3.08Z" fill="#FFE236" stroke="#231F20" stroke-miterlimit="10"/>
<path d="M5.84009 33.38C5.84009 33.644 5.89208 33.9053 5.99309 34.1492C6.0941 34.3931 6.24216 34.6146 6.4288 34.8013C6.61545 34.9879 6.83703 35.136 7.08089 35.237C7.32476 35.338 7.58613 35.39 7.85009 35.39C8.11404 35.39 8.37542 35.338 8.61928 35.237C8.86315 35.136 9.08473 34.9879 9.27137 34.8013C9.45802 34.6146 9.60607 34.3931 9.70709 34.1492C9.8081 33.9053 9.86009 33.644 9.86009 33.38C9.86009 33.116 9.8081 32.8547 9.70709 32.6108C9.60607 32.3669 9.45802 32.1454 9.27137 31.9587C9.08473 31.7721 8.86315 31.624 8.61928 31.523C8.37542 31.422 8.11404 31.37 7.85009 31.37C7.58613 31.37 7.32476 31.422 7.08089 31.523C6.83703 31.624 6.61545 31.7721 6.4288 31.9587C6.24216 32.1454 6.0941 32.3669 5.99309 32.6108C5.89208 32.8547 5.84009 33.116 5.84009 33.38Z" fill="#FFE236" stroke="#231F20" stroke-miterlimit="10"/>
</g>
<defs>
<clipPath id="clip0_2301_14080">
<rect width="40" height="40" fill="white"/>
</clipPath>
</defs>
</svg>
