<svg width="40" height="40" viewBox="0 0 40 40" fill="none" xmlns="http://www.w3.org/2000/svg">
<g clip-path="url(#clip0_2301_14049)">
<path d="M0.5 20C0.5 25.1717 2.55446 30.1316 6.21142 33.7886C9.86838 37.4455 14.8283 39.5 20 39.5C25.1717 39.5 30.1316 37.4455 33.7886 33.7886C37.4455 30.1316 39.5 25.1717 39.5 20C39.5 14.8283 37.4455 9.86838 33.7886 6.21142C30.1316 2.55446 25.1717 0.5 20 0.5C14.8283 0.5 9.86838 2.55446 6.21142 6.21142C2.55446 9.86838 0.5 14.8283 0.5 20Z" fill="#FF52A1" stroke="#231F20" stroke-miterlimit="10"/>
<path d="M25.3101 25.31C25.6601 24.97 26.9801 23.98 28.9101 18.31C29.6472 16.2279 30.1372 14.0664 30.3701 11.87C30.3875 11.5713 30.3415 11.2723 30.2351 10.9926C30.1287 10.7129 29.9643 10.4589 29.7528 10.2473C29.5412 10.0357 29.2872 9.87134 29.0075 9.76494C28.7278 9.65854 28.4288 9.61256 28.1301 9.63C25.9337 9.86288 23.7722 10.3529 21.6901 11.09C19.9101 11.7 16.1201 13.24 14.6901 14.68C13.2601 16.12 11.6901 19.91 11.1001 21.68C10.363 23.7621 9.87296 25.9236 9.64008 28.12C9.62263 28.4187 9.66862 28.7178 9.77502 28.9974C9.88142 29.2771 10.0458 29.5311 10.2574 29.7427C10.469 29.9543 10.723 30.1187 11.0027 30.2251C11.2823 30.3315 11.5814 30.3774 11.8801 30.36C14.0765 30.1271 16.238 29.6371 18.3201 28.9C24.0001 27 25.0001 25.63 25.3101 25.31Z" fill="white" stroke="#231F20" stroke-miterlimit="10"/>
<path d="M17.1699 16.59C17.1699 16.59 21.3299 16.59 22.3699 17.59C23.4099 18.59 23.3699 22.79 23.3699 22.79" stroke="#231F20" stroke-miterlimit="10" stroke-linecap="round"/>
<path d="M3.29004 20H6.07004" stroke="#231F20" stroke-miterlimit="10" stroke-linecap="round"/>
<path d="M33.9299 20H36.7099" stroke="#231F20" stroke-miterlimit="10" stroke-linecap="round"/>
<path d="M20 3.29V6.07" stroke="#231F20" stroke-miterlimit="10" stroke-linecap="round"/>
<path d="M20 33.93V36.71" stroke="#231F20" stroke-miterlimit="10" stroke-linecap="round"/>
<path d="M8.17993 8.18L10.1499 10.15" stroke="#231F20" stroke-miterlimit="10" stroke-linecap="round"/>
<path d="M29.8501 29.85L31.8201 31.82" stroke="#231F20" stroke-miterlimit="10" stroke-linecap="round"/>
<path d="M25.76 3.94C27.6741 4.3634 29.4791 5.18075 31.06 6.34" stroke="white" stroke-miterlimit="10" stroke-linecap="round"/>
</g>
<defs>
<clipPath id="clip0_2301_14049">
<rect width="40" height="40" fill="white"/>
</clipPath>
</defs>
</svg>
