<svg width="40" height="40" viewBox="0 0 40 40" fill="none" xmlns="http://www.w3.org/2000/svg">
<path d="M0.918945 10.1603C0.918945 13.4869 2.74365 17.3728 6.23805 18.2312C7.62135 18.8816 14.8809 19.532 21.0006 19.532C27.1212 19.532 34.4289 18.8453 35.8318 18.1949C38.6179 17.5533 39.1094 14.2296 39.1094 11.6936C39.1094 8.39052 37.3553 4.53502 33.8854 3.69722C32.511 3.04682 25.1464 2.39642 19.0267 2.39642C12.907 2.39642 5.57975 3.04682 4.16805 3.69722C1.43885 4.35652 0.918945 7.66262 0.918945 10.1603Z" fill="#00034A" stroke="#00034A" stroke-miterlimit="10" stroke-linecap="round" stroke-linejoin="round"/>
<path d="M33.8854 21.7315C32.511 21.0811 25.1464 20.4307 19.0267 20.4307C12.907 20.4307 5.57968 21.0811 4.16798 21.7315C1.38188 22.3721 0.890381 25.6968 0.890381 28.2318C0.890381 31.5477 2.71608 35.4591 6.21048 36.3028C7.59378 36.9532 14.8338 37.6036 20.9544 37.6036C27.0741 37.6036 34.4103 36.9532 35.8121 36.3028C38.5983 35.6621 39.0907 32.3374 39.0907 29.8024C39.0907 26.4689 37.3867 22.5919 33.8854 21.7315Z" fill="#00034A" stroke="#00034A" stroke-miterlimit="10" stroke-linecap="round" stroke-linejoin="round"/>
<path d="M33.8854 16.6233C36.6715 15.9827 37.163 12.658 37.163 10.123C37.163 7.58802 36.6157 4.35652 33.8854 3.69722C32.511 3.04682 25.1464 2.39642 19.0267 2.39642C12.907 2.39642 5.57975 3.04682 4.16805 3.69722C1.43885 4.35652 0.918945 7.66262 0.918945 10.1603C0.918945 12.658 1.43885 15.9827 4.19755 16.6606C5.58075 17.311 12.9355 17.9604 19.0561 17.9604C25.1758 17.9604 32.4825 17.2737 33.8854 16.6233Z" fill="#9BFF00" stroke="#00034A" stroke-miterlimit="10" stroke-linecap="round" stroke-linejoin="round"/>
<path d="M33.8854 34.7321C36.6715 34.0915 37.163 30.7668 37.163 28.2318C37.163 25.6968 36.6431 22.4094 33.8854 21.7315C32.511 21.0811 25.1464 20.4307 19.0267 20.4307C12.907 20.4307 5.57968 21.0811 4.16798 21.7315C1.38188 22.3721 0.890381 25.6968 0.890381 28.2318C0.890381 30.7668 1.43778 34.0729 4.16798 34.7321C5.55128 35.3825 12.9071 36.032 19.0267 36.032C25.1464 36.032 32.4825 35.3825 33.8854 34.7321Z" fill="white" stroke="#00034A" stroke-miterlimit="10" stroke-linecap="round" stroke-linejoin="round"/>
<path d="M8.68183 14.0422C11.6701 14.047 13.543 10.8151 12.053 8.22473C11.3592 7.01873 10.0731 6.27613 8.68183 6.27833C5.69343 6.28313 3.83093 9.52113 5.32933 12.1066C6.02243 13.3027 7.29933 14.04 8.68183 14.0422Z" fill="white" stroke="#00034A" stroke-miterlimit="10" stroke-linecap="round" stroke-linejoin="round"/>
<path d="M29.3717 32.151C32.36 32.1558 34.2329 28.9239 32.7429 26.3335C32.0491 25.1275 30.763 24.3849 29.3717 24.3872C26.3834 24.392 24.5209 27.6299 26.0192 30.2155C26.7123 31.4116 27.9892 32.1488 29.3717 32.151Z" fill="#9BFF00" stroke="#00034A" stroke-miterlimit="10" stroke-linecap="round" stroke-linejoin="round"/>
</svg>
