<svg width="40" height="40" viewBox="0 0 40 40" fill="none" xmlns="http://www.w3.org/2000/svg">
<g clip-path="url(#clip0_2301_15262)">
<path d="M29.543 13.5721C29.5609 14.4548 29.7821 14.8513 30.079 15.0664C30.7982 15.5855 30.9058 15.7 31.7626 15.8684C32.434 16.0009 32.9351 15.9909 33.5598 14.5912C34.1504 14.5273 34.7226 14.3472 35.2434 14.0613C36.5494 14.8283 36.9758 14.5723 37.448 14.0613C37.9212 13.5502 38.1394 13.1049 37.2498 11.8666C37.4889 11.3196 37.6184 10.7309 37.6284 10.1351C38.9533 9.38797 38.9334 8.88587 38.7262 8.24227C38.6276 7.94037 38.5509 7.69237 37.6284 7.11757C37.1073 6.79377 36.4976 6.72897 36.2695 6.71907C36.2416 5.33227 35.6479 4.98557 35.2593 4.70667C34.7074 4.31017 34.4016 3.89277 33.1932 3.65467C32.5217 3.52217 32.0206 3.52217 31.396 4.92287C30.805 4.99117 30.2331 5.17427 29.7124 5.46177C28.4063 4.68677 27.9799 4.94177 27.5067 5.46177C27.0335 5.98287 26.8163 6.40817 27.706 7.64747C27.5903 7.92307 27.4983 8.20807 27.431 8.49927C27.3684 8.79187 27.3337 9.08977 27.3274 9.38887C26.0024 10.1361 26.0223 10.6283 26.2295 11.2818C26.3142 11.5478 26.4119 11.7759 26.6011 11.9443C26.9797 12.283 28.2808 13.1487 28.7829 13.4057C28.9652 13.4994 29.2093 13.5581 29.543 13.5721Z" fill="#00034A" stroke="#00034A" stroke-miterlimit="10" stroke-linecap="round" stroke-linejoin="round"/>
<path d="M21.613 2.76603C21.613 1.90933 22.3074 1.21393 23.1641 1.21393C24.0548 1.21393 26.0233 2.74013 26.0233 3.65473C26.0233 4.51143 25.3289 5.20683 24.4722 5.20683C23.6373 5.20683 21.613 3.68753 21.613 2.76603Z" fill="#00034A" stroke="#00034A" stroke-miterlimit="10" stroke-linecap="round" stroke-linejoin="round"/>
<path d="M9.88062 32.5313C9.88062 31.549 10.6775 30.753 11.6588 30.753C12.6351 30.753 14.5738 32.3619 14.5738 33.3801C14.5738 34.3624 13.7768 35.1583 12.7945 35.1583C11.8192 35.1583 9.88062 33.5494 9.88062 32.5313Z" fill="#00034A" stroke="#00034A" stroke-miterlimit="10" stroke-linecap="round" stroke-linejoin="round"/>
<path d="M36.1261 11.3097C36.3661 10.7627 36.4947 10.174 36.5046 9.57817C37.8296 8.83107 37.8097 8.32897 37.6025 7.68537C37.3943 7.04177 37.1203 6.60747 35.606 6.73897C35.2503 6.25917 34.8034 5.85427 34.291 5.54747C34.291 4.02327 33.8646 3.78717 33.1932 3.65467C32.5217 3.52217 32.0206 3.52217 31.396 4.92287C30.805 4.99117 30.2331 5.17427 29.7124 5.46177C28.4063 4.68677 27.9799 4.94177 27.5067 5.46177C27.0335 5.98277 26.8163 6.40817 27.706 7.64747C27.5903 7.92307 27.4983 8.20807 27.431 8.49927C27.3684 8.79187 27.3337 9.08977 27.3274 9.38887C26.0024 10.1361 26.0223 10.6282 26.2295 11.2818C26.4388 11.9333 26.7217 12.3597 28.2359 12.2272C28.5879 12.707 29.0315 13.1123 29.541 13.4197C29.541 14.9429 29.9674 15.179 30.6388 15.3125C31.3103 15.444 31.8124 15.435 32.436 14.0343C33.0267 13.9705 33.5989 13.7903 34.1197 13.5043C35.4267 14.2714 35.8521 14.0154 36.3253 13.5043C36.7985 12.9933 37.0157 12.548 36.1261 11.3097Z" fill="#9BFF00" stroke="#00034A" stroke-miterlimit="10" stroke-linecap="round" stroke-linejoin="round"/>
<path d="M31.9162 11.7361C33.6502 11.7361 34.7339 9.85898 33.8669 8.35728C33.4645 7.66038 32.721 7.23108 31.9162 7.23108C30.1826 7.23108 29.0992 9.10778 29.9659 10.6091C30.3682 11.3058 31.1117 11.735 31.9162 11.7351V11.7361Z" fill="white" stroke="#00034A" stroke-miterlimit="10" stroke-linecap="round" stroke-linejoin="round"/>
<path d="M19.031 7.14541C20.3759 7.40651 21.6859 8.29711 22.47 9.42181C23.3377 10.6661 24.5501 13.5233 25.0293 16.1653C25.5971 19.2964 25.3321 23.0811 24.8021 24.0275C24.0261 25.4661 18.6235 27.2911 15.5113 27.9068C12.8644 28.4298 8.35639 28.5902 6.28629 27.9746C5.38169 27.7056 4.42529 26.8837 3.86049 26.1166C2.99369 24.9401 1.70859 21.9673 1.21349 19.2386C0.64559 16.1065 0.92059 12.3218 1.44059 11.3754C2.02509 10.6102 2.81189 10.0236 3.71199 9.68181C3.60449 8.99031 3.56639 8.28981 3.59849 7.59081C3.66559 6.77551 4.29989 6.12161 5.11269 6.02971C5.48809 5.95771 5.87659 6.01131 6.21849 6.18211C6.80429 6.47601 7.93699 7.42541 8.23489 8.03711L8.25679 8.09681C9.05899 7.88281 9.86889 7.69841 10.6846 7.54391C11.8085 7.34101 12.9426 7.19871 14.0818 7.11751C14.0298 6.64611 14.0298 6.17031 14.0818 5.69891C14.2397 4.50371 15.511 3.80411 16.6052 4.31021C17.1711 4.57221 18.3217 5.54751 18.6425 6.11631C18.7889 6.45301 18.9184 6.79671 19.031 7.14541Z" fill="#00034A" stroke="#00034A" stroke-miterlimit="10" stroke-linecap="round" stroke-linejoin="round"/>
<path d="M20.7993 7.84683C19.9807 7.32993 19.0328 7.05433 18.0647 7.05183C17.9101 6.36743 17.6916 5.69893 17.4121 5.05543C16.736 3.85633 15.0153 3.83883 14.315 5.02393C14.1927 5.23103 14.1133 5.46053 14.0817 5.69893C14.0298 6.17043 14.0298 6.64613 14.0817 7.11753C12.9426 7.19873 11.8085 7.34103 10.6846 7.54393C9.56456 7.75583 8.45605 8.02413 7.36315 8.34793C7.28835 7.88013 7.16825 7.42063 7.00455 6.97613C6.65965 6.26943 5.88396 5.88163 5.11165 6.02973C4.29885 6.12163 3.66456 6.77553 3.59746 7.59083C3.56556 8.29013 3.60436 8.99053 3.71196 9.68283C2.81186 10.0247 2.02516 10.6113 1.44056 11.3764C0.921555 12.3208 0.645555 16.1055 1.21346 19.2376C1.78126 22.3698 3.39015 25.8227 4.21205 26.5141C5.48126 27.5741 11.1668 27.4605 14.28 26.8448C17.3932 26.2302 22.7957 24.4041 23.5708 22.9655C24.1008 22.0191 24.3658 18.2354 23.7979 15.1033C23.2301 11.9722 21.6311 8.53723 20.7993 7.84683Z" fill="#9BFF00" stroke="#00034A" stroke-miterlimit="10" stroke-linecap="round" stroke-linejoin="round"/>
<path d="M19.5778 21.783C20.5721 20.8366 20.4107 19.3522 19.9185 16.6265C19.4274 13.9019 19.0199 12.4254 17.7717 11.8964C17.0803 11.2997 14.0627 11.6693 11.5931 12.1236C9.12339 12.5769 6.16159 13.3629 5.73529 14.2137C4.78979 15.1601 4.89439 16.6455 5.39549 19.3612C5.89659 22.0769 6.34199 23.5623 7.54339 24.0922C8.23379 24.697 11.2424 24.3194 13.722 23.8741C16.2006 23.4298 19.1435 22.6248 19.5778 21.783Z" fill="white" stroke="#00034A" stroke-miterlimit="10" stroke-linecap="round" stroke-linejoin="round"/>
<path d="M9.55884 14.2137C9.55884 14.2137 9.71024 15.9362 10.1734 18.4715C10.6377 21.0069 11.1199 22.6726 11.1199 22.6726" stroke="#00034A" stroke-miterlimit="10" stroke-linecap="round" stroke-linejoin="round"/>
<path d="M15.7552 21.783C15.7552 21.783 15.6048 20.0615 15.1405 17.5251C14.6773 14.9897 14.1941 13.325 14.1941 13.325" stroke="#00034A" stroke-miterlimit="10" stroke-linecap="round" stroke-linejoin="round"/>
<path d="M17.4121 15.0754C17.4121 15.0754 15.3111 15.2268 12.2367 15.7937C10.5232 16.0955 8.82861 16.4841 7.15601 16.9583" stroke="#00034A" stroke-miterlimit="10" stroke-linecap="round" stroke-linejoin="round"/>
<path d="M7.88403 20.9223C7.88403 20.9223 9.97513 20.7708 13.0594 20.203C16.1437 19.6352 18.1591 19.0394 18.1591 19.0394" stroke="#00034A" stroke-miterlimit="10" stroke-linecap="round" stroke-linejoin="round"/>
<path d="M27.2897 16.9762C21.8553 16.9762 17.45 21.3825 17.45 26.8169C17.45 32.6937 23.3626 38.7866 29.2622 38.7866C34.6967 38.7866 39.1019 34.3813 39.1019 28.9469C39.1019 23.0691 33.1894 16.9762 27.2897 16.9762Z" fill="#00034A" stroke="#00034A" stroke-miterlimit="10" stroke-linecap="round" stroke-linejoin="round"/>
<path d="M27.2897 36.6567C32.7241 36.6567 37.1294 32.2514 37.1294 26.8169C37.1294 21.3825 32.7241 16.9772 27.2897 16.9772C21.8553 16.9772 17.45 21.3825 17.45 26.8169C17.45 32.2514 21.8553 36.6567 27.2897 36.6567Z" fill="white" stroke="#00034A" stroke-miterlimit="10" stroke-linecap="round" stroke-linejoin="round"/>
<path d="M27.2895 33.3741C32.3372 33.3803 35.4988 27.9199 32.9803 23.5454C31.8086 21.5101 29.638 20.2569 27.2895 20.2598C22.2422 20.3221 19.1551 25.825 21.7327 30.1649C22.8995 32.1294 25.0048 33.3459 27.2895 33.3741Z" fill="#9BFF00" stroke="#00034A" stroke-miterlimit="10" stroke-linecap="round" stroke-linejoin="round"/>
<path d="M28.0657 26.3527C28.2261 24.3194 27.8385 22.843 27.2139 22.7862C26.5893 22.7294 26.0025 23.6001 25.8421 25.5677C25.6429 28.0373 26.665 28.5195 28.3207 28.662C29.9764 28.8034 31.0643 28.378 31.1121 27.7155C31.159 27.053 30.5543 26.5141 28.0657 26.3527Z" fill="white" stroke="#00034A" stroke-miterlimit="10" stroke-linecap="round" stroke-linejoin="round"/>
<path d="M11.6588 34.3106C13.0281 34.3429 13.9189 32.8807 13.2622 31.6787C12.943 31.0945 12.3244 30.7373 11.6588 30.753C10.2899 30.7988 9.48394 32.3093 10.208 33.4719C10.5217 33.9756 11.0658 34.2907 11.6588 34.3106Z" fill="#9BFF00" stroke="#00034A" stroke-miterlimit="10" stroke-linecap="round" stroke-linejoin="round"/>
<path d="M23.1643 4.31718C24.3588 4.34728 25.138 3.07318 24.5669 2.02368C24.2884 1.51188 23.7468 1.19918 23.1643 1.21388C21.9699 1.24408 21.256 2.55598 21.8794 3.57528C22.1541 4.02448 22.6379 4.30388 23.1643 4.31718Z" fill="#9BFF00" stroke="#00034A" stroke-miterlimit="10" stroke-linecap="round" stroke-linejoin="round"/>
</g>
<defs>
<clipPath id="clip0_2301_15262">
<rect width="40" height="40" fill="white"/>
</clipPath>
</defs>
</svg>
