<svg width="40" height="40" viewBox="0 0 40 40" fill="none" xmlns="http://www.w3.org/2000/svg">
<g clip-path="url(#clip0_2301_13951)">
<path d="M35.8 13.86V12.69C35.7987 11.8435 35.7386 10.9981 35.62 10.16C36.4717 10.1336 37.316 9.99229 38.13 9.73999C38.552 9.63633 38.9226 9.3843 39.1741 9.02995C39.4257 8.67559 39.5413 8.24257 39.5 7.80999C39.5412 7.38316 39.4303 6.95549 39.187 6.60239C38.9437 6.2493 38.5835 5.99346 38.17 5.87999C36.6129 5.50064 35.0119 5.33246 33.41 5.37999C31.8048 5.33314 30.2005 5.50129 28.64 5.87999C28.2275 5.99521 27.8685 6.25146 27.6254 6.60412C27.3824 6.95678 27.2708 7.3835 27.31 7.80999C27.2688 8.23682 27.3796 8.6645 27.6229 9.01759C27.8662 9.37069 28.2264 9.62653 28.64 9.73999C29.4542 9.99123 30.2983 10.1325 31.15 10.16C31.0414 10.9988 30.9913 11.8442 31 12.69V13.12C27.92 12.87 23.75 12.69 20 12.69C16.25 12.69 12.1 12.87 8.99996 13.12V12.69C8.99871 11.8435 8.93857 10.9981 8.81996 10.16C9.67161 10.1325 10.5158 9.99123 11.33 9.73999C11.7435 9.62653 12.1037 9.37069 12.347 9.01759C12.5903 8.6645 12.7012 8.23682 12.66 7.80999C12.6992 7.3835 12.5875 6.95678 12.3445 6.60412C12.1015 6.25146 11.7425 5.99521 11.33 5.87999C9.76939 5.50129 8.16515 5.33314 6.55996 5.37999C4.95805 5.33246 3.35703 5.50064 1.79996 5.87999C1.39201 5.99927 1.03867 6.25757 0.801224 6.61009C0.563776 6.96261 0.457194 7.38712 0.499963 7.80999C0.456719 8.23717 0.566738 8.66581 0.810371 9.01935C1.054 9.37289 1.41538 9.62831 1.82996 9.73999C2.64392 9.99229 3.48821 10.1336 4.33996 10.16C4.22136 10.9981 4.16122 11.8435 4.15996 12.69V13.86C3.11366 14.197 2.19864 14.8523 1.54254 15.7342C0.886435 16.6162 0.521964 17.681 0.499963 18.78C0.520661 19.9851 0.953808 21.1467 1.72719 22.0711C2.50057 22.9955 3.56745 23.6269 4.74996 23.86C5.81637 24.1206 6.90411 24.2846 7.99996 24.35C7.89082 24.9237 7.83392 25.506 7.82996 26.09C7.82996 28.09 8.51996 30.66 9.89996 31.17C10.0387 31.2529 10.1911 31.3105 10.35 31.34C10.3688 32.0988 10.5141 32.8491 10.78 33.56C10.943 33.9222 11.2195 34.2215 11.5677 34.4127C11.9159 34.604 12.3168 34.6767 12.71 34.62C13.103 34.675 13.5032 34.6016 13.851 34.4106C14.1988 34.2195 14.4756 33.9212 14.64 33.56C14.843 33.0627 14.9645 32.536 15 32C16.82 32.14 18.72 32.24 20 32.24C21.28 32.24 23.2 32.14 25 32C25.03 32.5529 25.1516 33.097 25.36 33.61C25.5243 33.9712 25.8011 34.2695 26.1489 34.4606C26.4967 34.6516 26.897 34.725 27.29 34.67C27.6831 34.7267 28.0841 34.654 28.4322 34.4627C28.7804 34.2715 29.0569 33.9722 29.22 33.61C29.4858 32.8991 29.6312 32.1488 29.65 31.39C29.8089 31.3605 29.9613 31.3029 30.1 31.22C31.48 30.71 32.17 28.11 32.17 26.14C32.1691 25.5393 32.1122 24.9401 32 24.35C33.0891 24.2834 34.1701 24.1195 35.23 23.86C36.4125 23.6269 37.4794 22.9955 38.2527 22.0711C39.0261 21.1467 39.4593 19.9851 39.48 18.78C39.4566 17.6785 39.0892 16.6119 38.4293 15.7296C37.7694 14.8473 36.85 14.1936 35.8 13.86Z" fill="#48EEFF" stroke="#231F20" stroke-miterlimit="10"/>
<path d="M14.52 23.05C14.52 24.5034 15.0974 25.8972 16.1251 26.9249C17.1528 27.9526 18.5466 28.53 20 28.53C21.4534 28.53 22.8473 27.9526 23.875 26.9249C24.9027 25.8972 25.48 24.5034 25.48 23.05C25.48 21.5966 24.9027 20.2027 23.875 19.175C22.8473 18.1473 21.4534 17.57 20 17.57C18.5466 17.57 17.1528 18.1473 16.1251 19.175C15.0974 20.2027 14.52 21.5966 14.52 23.05Z" fill="white" stroke="#231F20" stroke-miterlimit="10"/>
<path d="M17.2101 23.21C17.2028 22.7096 17.3088 22.214 17.52 21.7603C17.7313 21.3066 18.0424 20.9065 18.4301 20.59" fill="white"/>
<path d="M17.2101 23.21C17.2028 22.7096 17.3088 22.214 17.52 21.7603C17.7313 21.3066 18.0424 20.9065 18.4301 20.59" stroke="#231F20" stroke-miterlimit="10" stroke-linecap="round"/>
<path d="M33.0601 15.71C35.0601 16.05 36.0101 16.71 36.4401 17.71" stroke="white" stroke-linecap="round" stroke-linejoin="round"/>
</g>
<defs>
<clipPath id="clip0_2301_13951">
<rect width="40" height="40" fill="white"/>
</clipPath>
</defs>
</svg>
