<svg width="40" height="40" viewBox="0 0 40 40" fill="none" xmlns="http://www.w3.org/2000/svg">
<path d="M3.20288 22.301C3.20288 12.611 8.59988 0.5 19.3939 0.5C30.6569 0.5 36.7969 13.825 36.7969 23.512C36.7969 33.086 31.3999 39.5 20.6059 39.5C10.6099 39.5 3.20288 32.365 3.20288 22.301Z" fill="#00034A" stroke="#00034A" stroke-miterlimit="10"/>
<path d="M3.20288 22.301C3.20288 31.874 8.59988 38.289 19.3939 38.289C30.1889 38.289 35.5859 31.874 35.5859 22.301C35.5859 12.728 30.1889 0.5 19.3939 0.5C8.59988 0.5 3.20288 12.612 3.20288 22.301Z" fill="#9BFF00" stroke="#00034A" stroke-miterlimit="10"/>
<path d="M30.537 26.177C30.4005 25.6411 30.199 25.124 29.937 24.637C29.7422 24.2676 29.5185 23.9142 29.268 23.58C29.463 23.239 29.632 22.882 29.772 22.514C29.984 22.002 30.131 21.464 30.208 20.916C30.2194 20.7539 30.1687 20.5935 30.0662 20.4674C29.9637 20.3413 29.817 20.259 29.656 20.237C29.1048 20.203 28.5514 20.2355 28.008 20.334C27.622 20.407 27.241 20.5 26.865 20.615C26.5972 20.3237 26.3091 20.0517 26.003 19.801C25.5806 19.4441 25.1149 19.1417 24.617 18.901C24.4675 18.8379 24.2994 18.8349 24.1478 18.8927C23.9962 18.9504 23.8726 19.0645 23.803 19.211C23.5989 19.7245 23.4592 20.2612 23.387 20.809C23.3241 21.1969 23.285 21.5883 23.27 21.981C22.883 22.151 22.51 22.351 22.156 22.582C21.685 22.872 21.252 23.221 20.867 23.619C20.7587 23.7384 20.6987 23.8938 20.6987 24.055C20.6987 24.2162 20.7587 24.3716 20.867 24.491C21.297 24.841 21.764 25.141 22.262 25.383C22.6194 25.5572 22.9886 25.7059 23.367 25.828C23.409 26.224 23.48 26.616 23.58 27.001C23.706 27.537 23.902 28.055 24.162 28.541C24.2467 28.6796 24.381 28.7807 24.5375 28.824C24.694 28.8673 24.8611 28.8494 25.005 28.774C25.469 28.4703 25.8979 28.1162 26.284 27.718C26.572 27.434 26.834 27.126 27.069 26.798C27.486 26.891 27.911 26.949 28.338 26.972C28.9107 27.0144 29.4865 26.9882 30.053 26.894C30.2077 26.8549 30.3426 26.7602 30.4319 26.6279C30.5212 26.4957 30.5586 26.3351 30.537 26.177Z" fill="white" stroke="#00034A" stroke-miterlimit="10"/>
<path d="M20.5331 12.578C21.3041 9.69903 19.8521 6.80803 17.2881 6.12103C14.7241 5.43403 12.0201 7.21103 11.2481 10.091C10.4781 12.97 11.9301 15.861 14.4941 16.547C17.0581 17.234 19.7621 15.457 20.5331 12.578Z" fill="white" stroke="#00034A" stroke-miterlimit="10"/>
<path d="M14.7221 31.078C16.2051 30.222 16.4821 27.924 15.3391 25.945C14.1961 23.966 12.0681 23.055 10.5851 23.912C9.10208 24.768 8.82508 27.067 9.96808 29.046C11.1111 31.024 13.2391 31.935 14.7221 31.078Z" fill="white" stroke="#00034A" stroke-miterlimit="10"/>
</svg>
