<svg width="40" height="40" viewBox="0 0 40 40" fill="none" xmlns="http://www.w3.org/2000/svg">
<path d="M24.8971 33.191C25.5912 34.2012 26.1249 35.3126 26.4791 36.486C26.6991 37.23 28.1191 38.623 28.7211 39.063C29.1031 39.343 29.5671 39.489 30.0411 39.48C38.4201 39.298 37.9541 38.4 35.6411 33.944C35.3941 33.469 35.1261 32.954 34.8461 32.394C34.4611 31.614 34.0861 30.873 33.7191 30.16V29.13C33.7191 26.509 33.0111 22.13 29.9161 21.293C29.8919 21.2817 29.8675 21.2707 29.8431 21.26C28.1481 17.374 27.0271 14.222 26.5171 10.009C26.7991 9.74599 27.0161 9.42099 27.1501 9.05999C27.2841 8.69999 27.3301 6.62699 27.2881 6.24399C27.2881 5.36799 27.0951 4.20299 26.1041 3.98099C25.9901 3.95099 24.3181 3.40799 24.2041 3.38099L21.9341 1.38099C21.1971 0.766148 20.2544 0.453482 19.2961 0.505992C18.1991 0.505992 16.8701 0.957992 16.6201 1.41099C16.2211 2.16946 16.0254 3.01838 16.0521 3.87499C15.3334 3.9041 14.6199 4.01072 13.9241 4.19299C12.9611 4.41499 12.7401 5.57999 12.7401 6.45599C12.692 6.84563 12.7376 7.24114 12.8733 7.60955C13.009 7.97797 13.2307 8.30863 13.5201 8.57399C12.9549 13.2134 11.6306 17.7284 9.60009 21.938C9.24854 22.0026 8.90607 22.1094 8.58009 22.256C6.58709 22.795 6.22109 25.587 6.22109 27.686V28.716C6.00109 29.145 5.78109 29.584 5.55409 30.036C5.40409 30.335 5.25209 30.639 5.09409 30.95C4.88109 31.378 4.67609 31.78 4.48409 32.158C3.50309 34.084 2.84009 35.386 2.91009 36.266C2.97109 37.033 4.81309 38.699 5.55409 38.951C6.61709 39.313 8.45609 39.451 11.3541 39.5C11.8275 39.5072 12.2904 39.3597 12.6725 39.08C13.0545 38.8002 13.3349 38.4035 13.4711 37.95C13.9562 36.3002 14.7942 34.7757 15.9271 33.482C16.5141 32.952 18.4391 32.77 20.6831 32.77C22.4521 32.77 24.0231 32.883 24.8971 33.191Z" fill="#00034A" stroke="#00034A" stroke-miterlimit="10"/>
<path d="M33.4021 30.95C33.0161 30.17 32.6411 29.429 32.2751 28.716V27.686C32.2751 25.587 31.9091 22.795 29.9161 22.256C29.5994 22.1105 29.2663 22.0037 28.9241 21.938C26.9341 17.7144 25.6343 13.1991 25.0741 8.56399C25.3559 8.30151 25.5724 7.97665 25.7061 7.61544C25.8398 7.25424 25.8871 6.86674 25.8441 6.48399C25.8441 5.60899 25.6511 4.44399 24.6591 4.22199C23.9458 4.02597 23.213 3.90959 22.4741 3.87499C22.5215 3.01056 22.3349 2.14933 21.9341 1.38199C21.1972 0.766788 20.2545 0.45376 19.2961 0.505991C18.1991 0.505991 16.8701 0.957991 16.6201 1.41099C16.221 2.16946 16.0253 3.01838 16.0521 3.87499C15.3333 3.9041 14.6199 4.01072 13.9241 4.19299C12.9611 4.41499 12.7401 5.57999 12.7401 6.45599C12.6919 6.84563 12.7376 7.24114 12.8733 7.60955C13.009 7.97797 13.2307 8.30863 13.5201 8.57399C12.9549 13.2134 11.6305 17.7284 9.60006 21.938C9.24851 22.0026 8.90604 22.1094 8.58006 22.256C6.58706 22.795 6.22106 25.587 6.22106 27.686V28.716C5.85506 29.429 5.49006 30.17 5.09506 30.95C2.12006 36.9 0.90706 37.9 9.90906 38.056C10.3827 38.0634 10.8458 37.916 11.2281 37.6363C11.6103 37.3565 11.8908 36.9597 12.0271 36.506C12.5119 34.8563 13.3496 33.3318 14.4821 32.038C15.0701 31.508 16.9951 31.325 19.2391 31.325C21.4821 31.325 23.4081 31.508 23.9951 32.038C25.1349 33.3236 25.9824 34.8412 26.4791 36.486C26.6138 36.9405 26.894 37.3383 27.2766 37.6183C27.6592 37.8983 28.123 38.045 28.5971 38.036C37.8691 37.834 36.3091 36.756 33.4021 30.95Z" fill="#9BFF00" stroke="#00034A" stroke-miterlimit="10"/>
<path d="M24.7069 21.39C22.9082 21.2316 21.1023 21.1702 19.2969 21.206C17.4809 21.1821 15.665 21.2562 13.8569 21.428" stroke="#00034A" stroke-miterlimit="10" stroke-linecap="round"/>
<path d="M12.836 24.422C12.836 24.422 12.749 25.192 12.749 26.713C12.749 28.235 12.836 29.005 12.836 29.005" stroke="#00034A" stroke-miterlimit="10" stroke-linecap="round"/>
<path d="M25.7949 29.005C25.8696 28.2437 25.9019 27.4789 25.8919 26.714C25.902 25.9488 25.8696 25.1836 25.7949 24.422" stroke="#00034A" stroke-miterlimit="10" stroke-linecap="round"/>
<path d="M22.531 8.27603C22.531 8.27603 21.444 8.18903 19.296 8.18903C17.149 8.18903 16.032 8.27603 16.032 8.27603" stroke="#00034A" stroke-miterlimit="10" stroke-linecap="round"/>
<path d="M19.2671 24.422V28.774" stroke="#00034A" stroke-miterlimit="10" stroke-linecap="round"/>
<path d="M16.0029 11.376L23.6189 17.904" stroke="#00034A" stroke-miterlimit="10" stroke-linecap="round"/>
<path d="M22.531 11.376L14.916 17.904" stroke="#00034A" stroke-miterlimit="10" stroke-linecap="round"/>
</svg>
