<svg width="40" height="40" viewBox="0 0 40 40" fill="none" xmlns="http://www.w3.org/2000/svg">
<g clip-path="url(#clip0_2301_13897)">
<path d="M34.6501 32.12C34.2501 31.31 33.8601 30.54 33.4801 29.8V28.73C33.4801 26.55 33.1001 23.65 31.0301 23.09C30.7012 22.939 30.3554 22.8282 30.0001 22.76C27.9329 18.3736 26.5824 13.684 26.0001 8.87C26.2929 8.5975 26.5178 8.26017 26.6567 7.88506C26.7956 7.50995 26.8447 7.10751 26.8001 6.71C26.8001 5.8 26.6001 4.59 25.5701 4.36C24.829 4.15651 24.0677 4.03577 23.3001 4C23.3497 3.10202 23.1563 2.20726 22.7401 1.41C21.9748 0.770906 20.9956 0.44572 20.0001 0.500004C18.8601 0.500004 17.4801 0.970004 17.2201 1.44C16.8054 2.22798 16.6021 3.11001 16.6301 4C15.8837 4.03016 15.1427 4.1408 14.4201 4.33C13.4201 4.56 13.1901 5.77 13.1901 6.68C13.1401 7.08471 13.1875 7.4955 13.3284 7.87817C13.4693 8.26084 13.6996 8.60432 14.0001 8.88C13.4135 13.6985 12.0385 18.3878 9.93006 22.76C9.56475 22.827 9.20884 22.9378 8.87006 23.09C6.80006 23.65 6.42006 26.55 6.42006 28.73V29.8C6.04006 30.54 5.66006 31.31 5.25006 32.12C2.16006 38.3 0.900059 39.34 10.2501 39.5C10.742 39.5077 11.2231 39.3547 11.6202 39.0641C12.0172 38.7735 12.3086 38.3613 12.4501 37.89C12.9537 36.1768 13.8238 34.5936 15.0001 33.25C15.6101 32.7 17.6101 32.51 19.9401 32.51C22.2701 32.51 24.2701 32.7 24.8801 33.25C26.064 34.5853 26.9442 36.1616 27.4601 37.87C27.6 38.3421 27.8911 38.7553 28.2885 39.0461C28.6859 39.337 29.1677 39.4894 29.6601 39.48C39.2901 39.27 37.6701 38.15 34.6501 32.12Z" fill="#48EEFF" stroke="#231F20" stroke-miterlimit="10"/>
<path d="M25.6201 22.19C23.7515 22.0258 21.8755 21.9623 20.0001 22C18.114 21.975 16.2279 22.0518 14.3501 22.23" stroke="#231F20" stroke-miterlimit="10" stroke-linecap="round"/>
<path d="M13.29 25.34C13.29 25.34 13.2 26.14 13.2 27.72C13.2 29.3 13.29 30.1 13.29 30.1" stroke="#231F20" stroke-miterlimit="10" stroke-linecap="round"/>
<path d="M26.75 30.1C26.8273 29.3091 26.8607 28.5146 26.85 27.72C26.8607 26.9254 26.8273 26.1309 26.75 25.34" stroke="#231F20" stroke-miterlimit="10" stroke-linecap="round"/>
<path d="M23.3601 8.57001C23.3601 8.57001 22.2301 8.48001 20.0001 8.48001C17.7701 8.48001 16.6101 8.57001 16.6101 8.57001" stroke="#231F20" stroke-miterlimit="10" stroke-linecap="round"/>
<path d="M19.97 25.34V29.86" stroke="#231F20" stroke-miterlimit="10" stroke-linecap="round"/>
<path d="M16.5801 11.79L24.4901 18.57" stroke="#231F20" stroke-miterlimit="10" stroke-linecap="round"/>
<path d="M23.36 11.79L15.45 18.57" stroke="#231F20" stroke-miterlimit="10" stroke-linecap="round"/>
<path d="M22.55 6C24.47 6.2 24.5501 6.09 24.7001 6.75" stroke="white" stroke-miterlimit="10" stroke-linecap="round"/>
</g>
<defs>
<clipPath id="clip0_2301_13897">
<rect width="40" height="40" fill="white"/>
</clipPath>
</defs>
</svg>
