<svg width="40" height="40" viewBox="0 0 40 40" fill="none" xmlns="http://www.w3.org/2000/svg">
<g clip-path="url(#clip0_2301_13890)">
<path d="M36.48 34.5C39.02 33.5 39.48 23.79 39.48 20C39.48 16.21 39 6.48 36.48 5.5C35.2 4.53 25.63 3.55 20 3.55C14.37 3.55 4.8 4.55 3.53 5.55C1 6.48 0.5 16.21 0.5 20C0.5 23.79 0.98 33.52 3.5 34.5C4.77 35.5 14.34 36.5 19.97 36.5C25.6 36.5 35.2 35.47 36.48 34.5Z" fill="#48EEFF" stroke="#231F20" stroke-miterlimit="10"/>
<path d="M15.8101 16.25C16.485 15.7964 17.0263 15.1706 17.3779 14.4374C17.7296 13.7042 17.8788 12.8903 17.8101 12.08C17.8101 9.15 16.1901 7.2 12.9401 7.2C9.69007 7.2 8.06007 9.2 8.06007 12.08C7.99555 12.8951 8.15188 13.7126 8.51262 14.4464C8.87337 15.1802 9.4252 15.8033 10.1101 16.25C4.55007 18.55 7.67007 27.25 7.90007 27.39C8.32523 27.6484 8.81254 27.7867 9.31007 27.79C9.37007 29.73 9.52007 31.79 9.92007 32.16C10.2001 32.74 11.6901 32.8 12.9201 32.8C14.1501 32.8 15.6601 32.74 15.9201 32.16C16.3101 31.75 16.4701 29.73 16.5201 27.79C17.0179 27.7887 17.5057 27.6503 17.9301 27.39C18.2801 27.26 21.3301 18.53 15.8101 16.25Z" fill="white" stroke="#231F20" stroke-miterlimit="10"/>
<path d="M23.0999 28.41C23.6613 29.2506 24.3154 30.0255 25.0499 30.72C26.9999 32.72 27.2099 32.65 27.4999 32.72C27.7866 32.8086 28.0933 32.8086 28.3799 32.72C28.6699 32.64 28.8899 32.65 30.8299 30.72C31.5819 30.0282 32.2529 29.2533 32.8299 28.41C32.9304 28.155 32.9538 27.8762 32.8972 27.608C32.8407 27.3399 32.7067 27.0942 32.5119 26.9015C32.317 26.7088 32.0699 26.5775 31.8011 26.5239C31.5324 26.4703 31.2538 26.4968 30.9999 26.6C30.6415 26.8261 30.3065 27.0874 29.9999 27.38V26.83C29.9917 25.5632 29.8814 24.2991 29.6699 23.05C29.5782 22.6791 29.3649 22.3495 29.064 22.114C28.7631 21.8785 28.392 21.7505 28.0099 21.7505C27.6278 21.7505 27.2567 21.8785 26.9558 22.114C26.655 22.3495 26.4417 22.6791 26.3499 23.05C26.1318 24.2985 26.0147 25.5626 25.9999 26.83V27.38C25.6799 27.0819 25.3278 26.8203 24.9499 26.6C24.6971 26.5025 24.4213 26.4804 24.1562 26.5366C23.891 26.5927 23.6478 26.7246 23.4562 26.9163C23.2645 27.1079 23.1326 27.3511 23.0765 27.6162C23.0204 27.8814 23.0424 28.1571 23.1399 28.41H23.0999Z" fill="white" stroke="#231F20" stroke-miterlimit="10"/>
<path d="M32.7801 11.59C32.2031 10.7467 31.5321 9.97178 30.7801 9.28C28.8301 7.33 28.6201 7.35 28.3301 7.28C28.0433 7.19202 27.7368 7.19202 27.4501 7.28C27.1501 7.36 26.9401 7.35 25.0001 9.28C24.2656 9.97451 23.6115 10.7494 23.0501 11.59C22.9526 11.8429 22.9305 12.1186 22.9867 12.3838C23.0428 12.6489 23.1747 12.8921 23.3664 13.0837C23.558 13.2754 23.8012 13.4073 24.0663 13.4634C24.3315 13.5196 24.6072 13.4975 24.8601 13.4C25.2693 13.1855 25.6519 12.9237 26.0001 12.62V13.17C25.9885 14.4522 26.0822 15.7331 26.2801 17C26.3718 17.3709 26.5851 17.7005 26.886 17.936C27.1869 18.1715 27.558 18.2995 27.9401 18.2995C28.3222 18.2995 28.6933 18.1715 28.9942 17.936C29.295 17.7005 29.5084 17.3709 29.6001 17C29.8121 15.751 29.9224 14.4869 29.9301 13.22V12.67C30.2366 12.9626 30.5716 13.2239 30.9301 13.45C31.1835 13.5504 31.4606 13.5746 31.7276 13.5197C31.9945 13.4648 32.2396 13.3332 32.4329 13.1411C32.6261 12.9489 32.7591 12.7045 32.8154 12.4379C32.8717 12.1712 32.849 11.8939 32.7501 11.64L32.7801 11.59Z" fill="white" stroke="#231F20" stroke-miterlimit="10"/>
<path d="M33.4099 7.46001C35.4599 7.75001 35.2899 8.12001 35.8399 9.64001" stroke="white" stroke-miterlimit="10" stroke-linecap="round"/>
</g>
<defs>
<clipPath id="clip0_2301_13890">
<rect width="40" height="40" fill="white"/>
</clipPath>
</defs>
</svg>
