<svg width="40" height="40" viewBox="0 0 40 40" fill="none" xmlns="http://www.w3.org/2000/svg">
<g clip-path="url(#clip0_2301_15167)">
<path d="M6.929 0.835018C8.61731 0.779226 10.3044 0.977096 11.934 1.42202C13.667 1.98802 15.266 3.96702 15.266 5.77402C15.266 6.92202 14.82 8.43802 13.873 8.73202C12.4752 9.14081 11.0242 9.33899 9.568 9.32002C9.58484 10.7757 9.38705 12.226 8.981 13.624C8.687 14.554 7.151 15.018 6.013 15.018C4.883 15.018 1.5 13.443 1.127 12.24C0.677705 10.6108 0.476115 8.92323 0.529004 7.23402V6.65102C0.524004 4.11402 0.520004 2.78002 1.439 1.78302C2.33 0.816018 3.721 0.822018 6.116 0.833018L6.929 0.835018Z" fill="#00034A" stroke="#00034A" stroke-miterlimit="10"/>
<path d="M1.12691 26.384C0.682399 28.014 0.484206 29.7013 0.538913 31.39C0.538913 31.69 0.536913 31.977 0.535913 32.25C0.523913 34.623 0.517913 35.995 1.48591 36.88C3.61091 38.817 5.74991 39.214 8.59291 39.212H8.90491C10.5933 39.2675 12.2804 39.0693 13.9099 38.624C14.8579 38.321 15.3039 36.804 15.3039 35.657C15.3039 33.858 13.7239 31.866 11.9819 31.314C11.1811 31.0724 10.3611 30.8997 9.53091 30.798C9.45618 29.7723 9.27487 28.7572 8.98991 27.769C8.59491 26.561 5.22991 25 4.08491 25C2.93691 25 1.41991 25.456 1.12691 26.384Z" fill="#00034A" stroke="#00034A" stroke-miterlimit="10"/>
<path d="M28.0271 38.587C29.6571 39.032 31.3441 39.23 33.0331 39.174C33.3321 39.174 33.6171 39.176 33.8891 39.177C36.2571 39.189 37.6371 39.196 38.5221 38.227C39.4721 37.185 39.4721 35.756 39.4701 33.049V32.737C39.5256 31.0483 39.3274 29.3608 38.8821 27.731C38.4091 26.508 35.1421 25.001 33.9481 25.001C32.7631 25.001 31.2751 25.465 30.9811 26.394C30.5747 27.7889 30.3766 29.2362 30.3931 30.689C28.9378 30.6684 27.4874 30.8632 26.0891 31.267C25.1411 31.561 24.6951 33.087 24.6951 34.234C24.6951 36.031 26.2911 38.037 28.0271 38.586V38.587Z" fill="#00034A" stroke="#00034A" stroke-miterlimit="10"/>
<path d="M38.4741 3.12C36.3511 1.182 34.2111 0.785998 31.3681 0.786998H31.0571C29.3679 0.733067 27.6802 0.934333 26.0511 1.384C25.1691 1.716 24.7051 3.243 24.7051 4.38C24.7051 6.18 26.2851 8.181 28.0271 8.732C28.8141 8.962 29.6181 9.125 30.4311 9.22C30.5061 10.241 30.6861 11.254 30.9711 12.24C31.3951 13.607 34.5651 15.018 35.8671 15.018C37.0141 15.018 38.5411 14.544 38.8351 13.615C39.2802 11.9851 39.478 10.2976 39.4221 8.609C39.4221 8.31 39.4241 8.025 39.4251 7.753C39.4371 5.385 39.4431 4.004 38.4741 3.12Z" fill="#00034A" stroke="#00034A" stroke-miterlimit="10"/>
<path d="M30.9 20.697C30.9 26.195 26.443 30.651 20.945 30.651C15.131 30.651 9.06201 25.194 9.06201 19.312C9.06201 13.814 13.519 9.35797 19.016 9.35797C24.831 9.35797 30.9 14.815 30.9 20.697Z" fill="#00034A" stroke="#00034A" stroke-miterlimit="10"/>
<path d="M11.934 1.42199C10.3047 0.977166 8.61792 0.779297 6.92995 0.834989C4.02895 0.834989 2.42595 0.710989 1.43995 1.78299C0.453953 2.85299 0.529953 4.31299 0.529953 7.23299C0.477161 8.92253 0.678749 10.6104 1.12795 12.24C1.42095 13.188 2.94795 13.633 4.08595 13.633C5.22295 13.633 6.75895 13.169 7.05295 12.24C7.45895 10.841 7.65695 9.39099 7.64095 7.93499C9.09695 7.95499 10.547 7.75599 11.945 7.34799C12.893 7.05399 13.338 5.53699 13.338 4.38999C13.338 3.24299 12.865 1.72599 11.935 1.42199H11.934Z" fill="white" stroke="#00034A" stroke-miterlimit="10"/>
<path d="M36.9061 12.23C37.3511 10.6 37.5491 8.91297 37.4941 7.22397C37.4941 4.32397 37.6271 2.72097 36.5461 1.73497C35.4651 0.74897 33.9671 0.78697 31.0561 0.78697C29.3672 0.73314 27.6799 0.934404 26.0511 1.38397C25.1691 1.71597 24.7051 3.24297 24.7051 4.37997C24.7051 5.51797 25.1691 7.05397 26.0981 7.34797C27.4931 7.75397 28.9401 7.95197 30.3931 7.93497C30.3727 9.3906 30.5675 10.8413 30.9711 12.24C31.2651 13.188 32.7911 13.633 33.9391 13.633C35.0861 13.633 36.6121 13.159 36.9061 12.23Z" fill="white" stroke="#00034A" stroke-miterlimit="10"/>
<path d="M1.12691 26.384C0.682399 28.014 0.484206 29.7013 0.538913 31.39C0.538913 34.3 0.405913 35.894 1.48691 36.88C2.56691 37.865 4.06591 37.827 6.97691 37.827C8.66522 37.8828 10.3523 37.6849 11.9819 37.24C12.9299 36.936 13.3749 35.42 13.3749 34.272C13.3749 33.125 12.9109 31.608 11.9819 31.314C10.5741 30.889 9.1104 30.6783 7.63991 30.689C7.65943 29.2333 7.46434 27.7828 7.06091 26.384C6.75791 25.456 5.23091 25 4.08491 25C2.93691 25 1.41991 25.455 1.12691 26.384Z" fill="white" stroke="#00034A" stroke-miterlimit="10"/>
<path d="M26.0981 37.202C27.7281 37.647 29.4151 37.845 31.1041 37.79C34.0051 37.79 35.6071 37.922 36.5941 36.842C37.5791 35.761 37.5411 34.262 37.5411 31.352C37.5966 29.6636 37.3983 27.9765 36.9531 26.347C36.6131 25.465 35.1331 25 33.9481 25C32.7631 25 31.2751 25.465 30.9811 26.394C30.5747 27.7889 30.3766 29.2362 30.3931 30.689C28.9378 30.6684 27.4874 30.8632 26.0891 31.267C25.1411 31.561 24.6951 33.087 24.6951 34.234C24.6951 35.382 25.1691 36.908 26.0981 37.202Z" fill="white" stroke="#00034A" stroke-miterlimit="10"/>
<path d="M19.016 29.267C24.514 29.267 28.971 24.81 28.971 19.312C28.971 13.814 24.514 9.35797 19.016 9.35797C13.519 9.35797 9.06201 13.814 9.06201 19.312C9.06201 24.81 13.519 29.267 19.016 29.267Z" fill="#9BFF00" stroke="#00034A" stroke-miterlimit="10"/>
<path d="M14.6551 19.312C14.904 19.3177 15.1515 19.2737 15.3831 19.1824C15.6147 19.0912 15.8258 18.9545 16.0038 18.7805C16.1819 18.6066 16.3234 18.3987 16.42 18.1693C16.5166 17.9399 16.5663 17.6934 16.5663 17.4445C16.5663 17.1955 16.5166 16.9491 16.42 16.7197C16.3234 16.4902 16.1819 16.2824 16.0038 16.1084C15.8258 15.9344 15.6147 15.7978 15.3831 15.7065C15.1515 15.6153 14.904 15.5712 14.6551 15.577C14.1673 15.5883 13.7033 15.79 13.3623 16.139C13.0212 16.488 12.8303 16.9565 12.8303 17.4445C12.8303 17.9324 13.0212 18.401 13.3623 18.75C13.7033 19.099 14.1673 19.3007 14.6551 19.312Z" fill="#00034A"/>
<path d="M23.368 19.312C23.6169 19.3177 23.8644 19.2737 24.096 19.1824C24.3276 19.0912 24.5387 18.9545 24.7167 18.7805C24.8948 18.6066 25.0363 18.3987 25.1329 18.1693C25.2295 17.9399 25.2792 17.6934 25.2792 17.4445C25.2792 17.1955 25.2295 16.9491 25.1329 16.7197C25.0363 16.4902 24.8948 16.2824 24.7167 16.1084C24.5387 15.9344 24.3276 15.7978 24.096 15.7065C23.8644 15.6153 23.6169 15.5712 23.368 15.577C22.8802 15.5883 22.4162 15.79 22.0751 16.139C21.7341 16.488 21.5432 16.9565 21.5432 17.4445C21.5432 17.9324 21.7341 18.401 22.0751 18.75C22.4162 19.099 22.8802 19.3007 23.368 19.312Z" fill="#00034A"/>
<path d="M20.8151 20.562C20.8211 21.336 20.0191 21.971 19.0221 21.979C18.0261 21.988 17.2121 21.366 17.2061 20.592" stroke="#00034A" stroke-linecap="round"/>
</g>
<defs>
<clipPath id="clip0_2301_15167">
<rect width="40" height="40" fill="white"/>
</clipPath>
</defs>
</svg>
