<svg width="40" height="40" viewBox="0 0 40 40" fill="none" xmlns="http://www.w3.org/2000/svg">
<g clip-path="url(#clip0_2301_13878)">
<path d="M12.53 1.12999C10.8109 0.660324 9.03109 0.45133 7.24999 0.509986C4.18999 0.509986 2.49999 0.379986 1.45999 1.50999C0.419985 2.63999 0.499985 4.17999 0.499985 7.25999C0.443977 9.04162 0.656354 10.8215 1.12999 12.54C1.43999 13.54 3.04999 14.01 4.24999 14.01C5.44999 14.01 7.06999 13.52 7.37999 12.54C7.80856 11.0653 8.01747 9.53556 7.99999 7.99999C9.53571 8.01998 11.0658 7.81102 12.54 7.37999C13.54 7.06999 14.01 5.46999 14.01 4.25999C14.01 3.04999 13.51 1.44999 12.53 1.12999Z" fill="#48EEFF" stroke="#231F20" stroke-miterlimit="10"/>
<path d="M38.87 12.53C39.3397 10.8109 39.5487 9.0311 39.49 7.24999C39.49 4.18999 39.63 2.49999 38.49 1.45999C37.35 0.419993 35.77 0.459993 32.7 0.459993C30.9183 0.403222 29.1383 0.615613 27.42 1.08999C26.49 1.43999 26 3.04999 26 4.24999C26 5.44999 26.49 7.06999 27.47 7.37999C28.9413 7.80845 30.4677 8.01737 32 7.99999C31.9784 9.53512 32.1839 11.065 32.61 12.54C32.92 13.54 34.53 14.01 35.74 14.01C36.95 14.01 38.56 13.51 38.87 12.53Z" fill="#48EEFF" stroke="#231F20" stroke-miterlimit="10"/>
<path d="M1.12988 27.46C0.661103 29.1792 0.452124 30.9589 0.509875 32.74C0.509875 35.81 0.369875 37.49 1.50988 38.53C2.64988 39.57 4.22988 39.53 7.29988 39.53C9.08098 39.5887 10.8608 39.3797 12.5799 38.91C13.5799 38.59 14.0499 36.99 14.0499 35.78C14.0499 34.57 13.5599 32.97 12.5799 32.66C11.095 32.2115 9.55101 31.989 7.99988 32C8.02061 30.4649 7.81507 28.9352 7.38987 27.46C7.06987 26.48 5.45988 26 4.24988 26C3.03988 26 1.43988 26.48 1.12988 27.46Z" fill="#48EEFF" stroke="#231F20" stroke-miterlimit="10"/>
<path d="M27.47 38.87C29.1891 39.3397 30.9689 39.5487 32.75 39.49C35.81 39.49 37.5 39.63 38.54 38.49C39.58 37.35 39.54 35.77 39.54 32.7C39.5986 30.9189 39.3897 29.1391 38.92 27.42C38.56 26.49 37 26 35.75 26C34.5 26 32.93 26.49 32.62 27.47C32.1915 28.9413 31.9826 30.4677 32 32C30.4649 31.9784 28.935 32.1839 27.46 32.61C26.46 32.92 25.99 34.53 25.99 35.74C25.99 36.95 26.49 38.56 27.47 38.87Z" fill="#48EEFF" stroke="#231F20" stroke-miterlimit="10"/>
<path d="M9.5 20C9.5 22.7848 10.6062 25.4555 12.5754 27.4246C14.5445 29.3938 17.2152 30.5 20 30.5C22.7848 30.5 25.4555 29.3938 27.4246 27.4246C29.3938 25.4555 30.5 22.7848 30.5 20C30.5 17.2152 29.3938 14.5445 27.4246 12.5754C25.4555 10.6062 22.7848 9.5 20 9.5C17.2152 9.5 14.5445 10.6062 12.5754 12.5754C10.6062 14.5445 9.5 17.2152 9.5 20Z" fill="#FFE236" stroke="#231F20" stroke-miterlimit="10"/>
<path d="M14.75 23.94C14.75 23.94 16.06 25.25 20 25.25C23.94 25.25 25.25 23.94 25.25 23.94" stroke="#231F20" stroke-miterlimit="10" stroke-linecap="round"/>
<path d="M13.4299 18.03C13.4299 18.2887 13.4809 18.5449 13.5799 18.7839C13.6789 19.0229 13.824 19.2401 14.0069 19.423C14.1899 19.6059 14.407 19.751 14.646 19.85C14.8851 19.949 15.1412 20 15.3999 20C15.6586 20 15.9148 19.949 16.1538 19.85C16.3928 19.751 16.61 19.6059 16.7929 19.423C16.9759 19.2401 17.121 19.0229 17.22 18.7839C17.319 18.5449 17.3699 18.2887 17.3699 18.03C17.3699 17.5075 17.1624 17.0064 16.7929 16.637C16.4235 16.2676 15.9224 16.06 15.3999 16.06C14.8775 16.06 14.3764 16.2676 14.0069 16.637C13.6375 17.0064 13.4299 17.5075 13.4299 18.03Z" fill="#231F20"/>
<path d="M22.6199 18.03C22.6199 18.5525 22.8274 19.0536 23.1969 19.423C23.5663 19.7924 24.0674 20 24.5899 20C25.1123 20 25.6134 19.7924 25.9829 19.423C26.3523 19.0536 26.5599 18.5525 26.5599 18.03C26.5599 17.5075 26.3523 17.0064 25.9829 16.637C25.6134 16.2676 25.1123 16.06 24.5899 16.06C24.0674 16.06 23.5663 16.2676 23.1969 16.637C22.8274 17.0064 22.6199 17.5075 22.6199 18.03Z" fill="#231F20"/>
<path d="M34.1699 3.23C36.7999 3.39 36.5999 3.47 36.6599 5.79" stroke="white" stroke-miterlimit="10" stroke-linecap="round"/>
<path d="M23 12.41C23.6736 12.4346 24.3324 12.6154 24.9241 12.9382C25.5159 13.261 26.0246 13.7169 26.41 14.27" stroke="white" stroke-miterlimit="10" stroke-linecap="round"/>
</g>
<defs>
<clipPath id="clip0_2301_13878">
<rect width="40" height="40" fill="white"/>
</clipPath>
</defs>
</svg>
