<svg width="40" height="40" viewBox="0 0 40 40" fill="none" xmlns="http://www.w3.org/2000/svg">
<g clip-path="url(#clip0_2301_13848)">
<path d="M22.18 4.48999C21.07 2.99999 15 3.49 11.48 3.92C7.96 4.35 1.94 5.30999 1.23 7.05999C0.420001 7.99999 0.870001 12.37 1.31 16C1.75 19.63 2.39 24 3.4 24.69C4.51 26.21 10.58 25.69 14.1 25.25C17.62 24.81 23.64 23.86 24.35 22.11C25.16 21.18 24.71 16.8 24.27 13.18C23.83 9.56 23.2 5.19999 22.18 4.48999Z" fill="#48EEFF" stroke="#231F20" stroke-miterlimit="10"/>
<path d="M20.07 12C19.32 11.24 15 11.78 12.49 12.09C9.97997 12.4 5.65997 12.91 5.10997 13.83C4.50997 14.33 4.71997 16.57 4.93997 18.43C5.15997 20.29 5.50997 22.51 6.20997 22.85C6.96997 23.6 11.28 23.06 13.8 22.75C16.32 22.44 20.63 22 21.18 21C21.78 20.5 21.57 18.26 21.34 16.4C21.11 14.54 20.77 12.37 20.07 12Z" fill="white" stroke="#231F20" stroke-miterlimit="10"/>
<path d="M21.22 8.7C21.22 8.7 18.22 8.93 12.22 9.7C6.21997 10.47 3.21997 10.95 3.21997 10.95" stroke="#231F20" stroke-miterlimit="10" stroke-linecap="round"/>
<path d="M18.8999 16.87C18.8999 16.87 16.9699 16.98 13.1399 17.45C9.30992 17.92 7.41992 18.28 7.41992 18.28" stroke="#231F20" stroke-miterlimit="10" stroke-linecap="round"/>
<path d="M9.65991 14.97L10.0099 17.84" stroke="#231F20" stroke-miterlimit="10" stroke-linecap="round"/>
<path d="M16.2699 17.07L15.9199 14.2" stroke="#231F20" stroke-miterlimit="10" stroke-linecap="round"/>
<path d="M11.5801 17.64L11.9301 20.51" stroke="#231F20" stroke-miterlimit="10" stroke-linecap="round"/>
<path d="M4.81006 10.57L6.05006 7.09" stroke="#231F20" stroke-miterlimit="10" stroke-linecap="round"/>
<path d="M8.90991 10.07L10.1399 6.59" stroke="#231F20" stroke-miterlimit="10" stroke-linecap="round"/>
<path d="M13.01 9.56L14.24 6.08" stroke="#231F20" stroke-miterlimit="10" stroke-linecap="round"/>
<path d="M17.1101 9.06L18.3401 5.58" stroke="#231F20" stroke-miterlimit="10" stroke-linecap="round"/>
<path d="M20.47 5.14999C21.29 5.42999 21.55 6.49999 21.66 7.20999" stroke="white" stroke-miterlimit="10" stroke-linecap="round"/>
<path d="M29.2017 13.8293C29.5236 13.8793 29.8472 13.8971 30.154 13.8817C30.4609 13.8663 30.7451 13.818 30.9903 13.7396C31.2356 13.6612 31.4371 13.5541 31.5833 13.4246C31.7296 13.2951 31.8177 13.1456 31.8427 12.9847C31.8677 12.8238 31.8291 12.6546 31.729 12.4868C31.6289 12.319 31.4694 12.1559 31.2595 12.0068C31.0496 11.8576 30.7935 11.7254 30.5058 11.6176C30.218 11.5099 29.9043 11.4287 29.5824 11.3787C29.2606 11.3287 28.937 11.3109 28.6301 11.3263C28.3232 11.3417 28.0391 11.3899 27.7938 11.4684C27.5486 11.5468 27.3471 11.6538 27.2008 11.7834C27.0546 11.9129 26.9665 12.0624 26.9415 12.2233C26.9165 12.3842 26.9551 12.5534 27.0552 12.7212C27.1552 12.889 27.3148 13.0521 27.5246 13.2012C27.7345 13.3504 27.9907 13.4826 28.2784 13.5903C28.5662 13.6981 28.8799 13.7793 29.2017 13.8293Z" fill="#FFE236" stroke="#231F20" stroke-miterlimit="10"/>
<path d="M26.8697 7.66117C26.8936 7.82225 26.9807 7.97237 27.126 8.10294C27.2713 8.23351 27.472 8.34199 27.7167 8.42217C27.9614 8.50235 28.2452 8.55267 28.5519 8.57026C28.8587 8.58784 29.1824 8.57235 29.5046 8.52466C29.8268 8.47697 30.1411 8.39802 30.4296 8.29232C30.7181 8.18662 30.9752 8.05623 31.1861 7.90861C31.3971 7.76098 31.5578 7.59901 31.659 7.43194C31.7603 7.26487 31.8001 7.09597 31.7763 6.93489C31.7524 6.7738 31.6654 6.62369 31.5201 6.49312C31.3747 6.36254 31.174 6.25407 30.9293 6.17389C30.6847 6.0937 30.4009 6.04338 30.0941 6.0258C29.7873 6.00821 29.4636 6.0237 29.1414 6.07139C28.8193 6.11908 28.505 6.19803 28.2164 6.30373C27.9279 6.40944 27.6708 6.53982 27.4599 6.68745C27.249 6.83507 27.0883 6.99704 26.987 7.16411C26.8857 7.33119 26.8459 7.50009 26.8697 7.66117Z" fill="#FFE236" stroke="#231F20" stroke-miterlimit="10"/>
<path d="M25.3473 3.72201C25.4391 3.85649 25.583 3.95347 25.7708 4.00742C25.9586 4.06137 26.1865 4.07123 26.4416 4.03645C26.6967 4.00166 26.974 3.92291 27.2576 3.80468C27.5413 3.68645 27.8257 3.53107 28.0946 3.3474C28.3636 3.16373 28.6118 2.95537 28.8251 2.73422C29.0384 2.51307 29.2127 2.28346 29.3379 2.0585C29.4632 1.83354 29.5369 1.61763 29.555 1.42311C29.5731 1.22858 29.5351 1.05925 29.4433 0.924777C29.3515 0.790302 29.2076 0.69332 29.0198 0.639369C28.832 0.585418 28.6041 0.575554 28.349 0.610341C28.0939 0.645127 27.8166 0.723882 27.533 0.84211C27.2493 0.960337 26.9649 1.11572 26.696 1.29939C26.427 1.48306 26.1788 1.69142 25.9655 1.91257C25.7522 2.13372 25.5779 2.36333 25.4527 2.58829C25.3274 2.81325 25.2537 3.02916 25.2356 3.22368C25.2175 3.41821 25.2555 3.58754 25.3473 3.72201Z" fill="#FFE236" stroke="#231F20" stroke-miterlimit="10"/>
<path d="M34.3001 22.34C33.241 22.9221 32.2542 23.6269 31.3601 24.44C30.9878 23.842 30.5699 23.2737 30.1101 22.74C26.2601 18.22 21.1701 17.34 16.1101 21.62C11.0501 25.9 11.1101 31.07 14.9901 35.62C18.8701 40.17 24.0001 41 29.0001 36.71C35.0001 31.64 38.5701 28.63 39.0001 27.79C39.8101 26.69 38.6001 25.01 37.8201 24.09C37.0401 23.17 35.5201 21.71 34.3001 22.34Z" fill="#FF52A1" stroke="#231F20" stroke-miterlimit="10"/>
<path d="M20.0901 29.17C20.0901 29.8277 20.3514 30.4585 20.8165 30.9236C21.2816 31.3887 21.9124 31.65 22.5701 31.65C23.2278 31.65 23.8586 31.3887 24.3237 30.9236C24.7888 30.4585 25.0501 29.8277 25.0501 29.17C25.0501 28.5123 24.7888 27.8815 24.3237 27.4164C23.8586 26.9513 23.2278 26.69 22.5701 26.69C21.9124 26.69 21.2816 26.9513 20.8165 27.4164C20.3514 27.8815 20.0901 28.5123 20.0901 29.17Z" fill="white" stroke="#231F20" stroke-miterlimit="10"/>
<path d="M15.1501 28.67C15.1501 28.9989 15.2808 29.3143 15.5133 29.5468C15.7459 29.7793 16.0613 29.91 16.3901 29.91C16.719 29.91 17.0344 29.7793 17.267 29.5468C17.4995 29.3143 17.6301 28.9989 17.6301 28.67C17.6301 28.3411 17.4995 28.0257 17.267 27.7932C17.0344 27.5606 16.719 27.43 16.3901 27.43C16.0613 27.43 15.7459 27.5606 15.5133 27.7932C15.2808 28.0257 15.1501 28.3411 15.1501 28.67Z" fill="white" stroke="#231F20" stroke-miterlimit="10"/>
<path d="M27.5 29.66C27.5 29.9889 27.6306 30.3043 27.8632 30.5368C28.0957 30.7694 28.4111 30.9 28.74 30.9C29.0689 30.9 29.3843 30.7694 29.6168 30.5368C29.8494 30.3043 29.98 29.9889 29.98 29.66C29.98 29.3311 29.8494 29.0157 29.6168 28.7832C29.3843 28.5506 29.0689 28.42 28.74 28.42C28.4111 28.42 28.0957 28.5506 27.8632 28.7832C27.6306 29.0157 27.5 29.3311 27.5 29.66Z" fill="white" stroke="#231F20" stroke-miterlimit="10"/>
<path d="M20.8301 35.34C20.8301 35.6689 20.9607 35.9843 21.1933 36.2168C21.4258 36.4494 21.7412 36.58 22.0701 36.58C22.3989 36.58 22.7143 36.4494 22.9469 36.2168C23.1794 35.9843 23.3101 35.6689 23.3101 35.34C23.3101 35.0111 23.1794 34.6957 22.9469 34.4632C22.7143 34.2307 22.3989 34.1 22.0701 34.1C21.7412 34.1 21.4258 34.2307 21.1933 34.4632C20.9607 34.6957 20.8301 35.0111 20.8301 35.34Z" fill="white" stroke="#231F20" stroke-miterlimit="10"/>
<path d="M21.8201 22.99C21.8201 23.3189 21.9507 23.6343 22.1833 23.8668C22.4158 24.0994 22.7312 24.23 23.0601 24.23C23.3889 24.23 23.7043 24.0994 23.9369 23.8668C24.1694 23.6343 24.3001 23.3189 24.3001 22.99C24.3001 22.6611 24.1694 22.3457 23.9369 22.1132C23.7043 21.8806 23.3889 21.75 23.0601 21.75C22.7312 21.75 22.4158 21.8806 22.1833 22.1132C21.9507 22.3457 21.8201 22.6611 21.8201 22.99Z" fill="white" stroke="#231F20" stroke-miterlimit="10"/>
<path d="M31.3601 24.44C31.8548 25.3539 32.1928 26.3443 32.3601 27.37" stroke="#231F20" stroke-miterlimit="10" stroke-linecap="round"/>
<path d="M33.4202 25.35L34.6802 24.28" stroke="#231F20" stroke-miterlimit="10" stroke-linecap="round"/>
<path d="M36.1001 28.5L37.3601 27.42" stroke="#231F20" stroke-miterlimit="10" stroke-linecap="round"/>
<path d="M34.05 24.82L36.73 27.96" stroke="#231F20" stroke-miterlimit="10" stroke-linecap="round"/>
<path d="M18.0801 22.08C18.9809 21.4184 19.9988 20.9332 21.0801 20.65" stroke="white" stroke-miterlimit="10" stroke-linecap="round"/>
</g>
<defs>
<clipPath id="clip0_2301_13848">
<rect width="40" height="40" fill="white"/>
</clipPath>
</defs>
</svg>
