<svg width="40" height="40" viewBox="0 0 40 40" fill="none" xmlns="http://www.w3.org/2000/svg">
<g clip-path="url(#clip0_2301_13810)">
<path d="M0.5 20C0.5 25.1717 2.55446 30.1316 6.21142 33.7886C9.86838 37.4455 14.8283 39.5 20 39.5C25.1717 39.5 30.1316 37.4455 33.7886 33.7886C37.4455 30.1316 39.5 25.1717 39.5 20C39.5 14.8283 37.4455 9.86838 33.7886 6.21142C30.1316 2.55446 25.1717 0.5 20 0.5C14.8283 0.5 9.86838 2.55446 6.21142 6.21142C2.55446 9.86838 0.5 14.8283 0.5 20Z" fill="#48EEFF" stroke="#231F20" stroke-miterlimit="10"/>
<path d="M15.82 6.23999C18.97 6.14999 21.22 6.65999 21.9 7.49999C22.57 7.92999 23.25 10.2 23.25 12.08C23.25 13.96 22.57 16.22 21.9 16.65C21.3265 17.1123 20.6323 17.4004 19.9 17.48C18.65 22.74 15.95 26.64 10.48 25.73C8.30998 25.37 5.28998 23.43 6.08998 15.05C6.63998 9.07999 9.99998 6.23999 15.82 6.23999Z" fill="#FFE236" stroke="#231F20" stroke-miterlimit="10"/>
<path d="M25 24.76C25.48 24.14 27.26 24.15 28.54 24.42C29.82 24.69 31.44 25.42 31.63 26.17C31.8588 27.4419 31.8111 28.7482 31.49 30C30.98 32.38 27.49 34.13 26.49 33.92C25.21 33.65 23.58 32.92 23.4 32.18C23.1531 30.8965 23.1975 29.574 23.53 28.31C23.7532 27.033 24.2551 25.8209 25 24.76Z" fill="#FFE236" stroke="#231F20" stroke-miterlimit="10"/>
<path d="M34 10.59C32.7485 8.47856 30.9434 6.74954 28.78 5.59" stroke="white" stroke-miterlimit="10" stroke-linecap="round"/>
<path d="M17 8.52C17.9724 8.5338 18.9331 8.73409 19.83 9.11" stroke="white" stroke-miterlimit="10" stroke-linecap="round"/>
<path d="M28.1 26.53C28.5716 26.6255 29.02 26.8123 29.42 27.08" stroke="white" stroke-miterlimit="10" stroke-linecap="round"/>
</g>
<defs>
<clipPath id="clip0_2301_13810">
<rect width="40" height="40" fill="white"/>
</clipPath>
</defs>
</svg>
