<svg width="40" height="40" viewBox="0 0 40 40" fill="none" xmlns="http://www.w3.org/2000/svg">
<g clip-path="url(#clip0_2301_15101)">
<path d="M19.635 0.533997C9.26499 0.533997 0.859985 8.94 0.859985 19.31C0.859985 29.83 9.65998 39.485 20.365 39.485C30.735 39.485 39.14 31.079 39.14 20.711C39.14 10.191 30.34 0.534997 19.635 0.534997V0.533997Z" fill="#00034A" stroke="#00034A" stroke-miterlimit="10"/>
<path d="M19.635 38.084C30.003 38.084 38.409 29.678 38.409 19.309C38.41 8.94 30.004 0.533997 19.635 0.533997C9.26499 0.533997 0.859985 8.94 0.859985 19.31C0.859985 29.679 9.26598 38.084 19.635 38.084Z" fill="#9BFF00" stroke="#00034A" stroke-miterlimit="10"/>
<path d="M15.61 6.06102C18.643 5.97402 20.81 6.46502 21.464 7.27402C22.109 7.68802 22.764 9.87402 22.764 11.684C22.764 13.494 22.109 15.67 21.464 16.084C20.9117 16.5292 20.2432 16.8065 19.538 16.883C18.335 21.947 15.735 25.702 10.468 24.826C8.37999 24.479 5.47199 22.611 6.24199 14.543C6.77199 8.79502 10.007 6.06102 15.61 6.06102Z" fill="white" stroke="#00034A" stroke-miterlimit="10"/>
<path d="M24.449 23.892C24.911 23.295 26.624 23.305 27.857 23.565C29.089 23.825 30.649 24.527 30.832 25.249C31.0523 26.4738 31.0063 27.7316 30.697 28.937C30.207 31.228 26.846 32.913 25.883 32.711C24.651 32.451 23.081 31.748 22.908 31.036C22.6702 29.8003 22.7129 28.527 23.033 27.31C23.2481 26.0804 23.7316 24.9134 24.449 23.892Z" fill="white" stroke="#00034A" stroke-miterlimit="10"/>
</g>
<defs>
<clipPath id="clip0_2301_15101">
<rect width="40" height="40" fill="white"/>
</clipPath>
</defs>
</svg>
