<svg width="40" height="40" viewBox="0 0 40 40" fill="none" xmlns="http://www.w3.org/2000/svg">
<g clip-path="url(#clip0_2301_13802)">
<path d="M10.23 22.33C9.78 21.33 7.45 21.33 5.7 21.33C3.95 21.33 1.62 21.33 1.17 22.33C0.72 22.84 0.5 25.55 0.5 27.8C0.5 30.05 0.72 32.8 1.17 33.27C1.62 34.27 3.95 34.27 5.7 34.27C7.45 34.27 9.78 34.27 10.23 33.27C10.68 32.76 10.9 30.05 10.9 27.8C10.9 25.55 10.68 22.84 10.23 22.33Z" fill="#FF52A1" stroke="#231F20" stroke-miterlimit="10"/>
<path d="M24.53 15.14C24.08 13.51 21.75 13.5 20 13.5C18.25 13.5 15.92 13.5 15.47 15.14C15 16 14.8 20.3 14.8 23.9C14.8 27.5 15.02 31.84 15.47 32.66C15.92 34.29 18.25 34.3 20 34.3C21.75 34.3 24.08 34.3 24.53 32.66C24.98 31.84 25.2 27.5 25.2 23.9C25.2 20.3 25 16 24.53 15.14Z" fill="#FF52A1" stroke="#231F20" stroke-miterlimit="10"/>
<path d="M38.8301 8C38.3801 5.72 36.0501 5.7 34.3001 5.7C32.5501 5.7 30.2201 5.7 29.7701 7.96C29.3201 9.08 29.1001 15.05 29.1001 19.96C29.1001 24.87 29.3201 30.88 29.7701 31.96C30.2201 34.2 32.5501 34.22 34.3001 34.22C36.0501 34.22 38.3801 34.22 38.8301 31.96C39.2801 30.84 39.5001 24.87 39.5001 19.96C39.5001 15.05 39.2801 9.08 38.8301 8Z" fill="#FFE236" stroke="#231F20" stroke-miterlimit="10"/>
<path d="M35.7 8C36.53 8 36.7 8.19 36.9 9.82" stroke="white" stroke-miterlimit="10" stroke-linecap="round"/>
<path d="M21.6599 16C22.4799 16 22.7099 16.19 22.8599 17.82" stroke="white" stroke-miterlimit="10" stroke-linecap="round"/>
<path d="M7.1001 23.63C7.9201 23.63 8.1501 23.82 8.3001 25.45" stroke="white" stroke-miterlimit="10" stroke-linecap="round"/>
</g>
<defs>
<clipPath id="clip0_2301_13802">
<rect width="40" height="40" fill="white"/>
</clipPath>
</defs>
</svg>
