<svg width="40" height="40" viewBox="0 0 40 40" fill="none" xmlns="http://www.w3.org/2000/svg">
<g clip-path="url(#clip0_2301_13796)">
<path d="M35 21.53C35.1848 21.5377 35.3662 21.5819 35.5338 21.6601C35.7014 21.7383 35.8519 21.849 35.9765 21.9857C36.101 22.1223 36.1973 22.2824 36.2597 22.4565C36.3221 22.6306 36.3494 22.8153 36.34 23C35.82 33 29.85 39.49 18.44 39.49C6.48 39.5 0.5 32.33 0.5 21.56C0.5 11.23 6 4.20001 17 3.66001C17.1848 3.6478 17.3702 3.67321 17.545 3.73469C17.7197 3.79617 17.8802 3.89245 18.0166 4.0177C18.1531 4.14296 18.2628 4.29459 18.339 4.46343C18.4152 4.63226 18.4563 4.8148 18.46 5.00001C18.46 8.06001 18.57 15.6 18.46 21.54C24 21.34 31.83 21.47 35 21.53Z" fill="#FF52A1" stroke="#231F20" stroke-miterlimit="10"/>
<path d="M39.5001 16.07C39.0001 7.05001 33.8101 1.00001 23.8701 0.500007C23.6952 0.494617 23.521 0.524591 23.3579 0.588134C23.1949 0.651678 23.0464 0.747481 22.9213 0.869804C22.7961 0.992127 22.697 1.13845 22.6298 1.30001C22.5626 1.46157 22.5286 1.63503 22.5301 1.81001V17.47H38.1901C38.3695 17.469 38.5469 17.4314 38.7113 17.3595C38.8757 17.2876 39.0237 17.1829 39.1463 17.0519C39.269 16.9209 39.3636 16.7662 39.4244 16.5974C39.4852 16.4286 39.511 16.2491 39.5001 16.07Z" fill="#FFE236" stroke="#231F20" stroke-linejoin="round"/>
<path d="M26.3799 3.69C28.0614 3.9184 29.6725 4.51231 31.0999 5.43" stroke="white" stroke-miterlimit="10" stroke-linecap="round"/>
<path d="M11.49 7.43001C12.5323 6.99653 13.6187 6.67799 14.73 6.48001" stroke="white" stroke-miterlimit="10" stroke-linecap="round"/>
</g>
<defs>
<clipPath id="clip0_2301_13796">
<rect width="40" height="40" fill="white"/>
</clipPath>
</defs>
</svg>
