<svg width="40" height="40" viewBox="0 0 40 40" fill="none" xmlns="http://www.w3.org/2000/svg">
<g clip-path="url(#clip0_2301_13773)">
<path d="M12.71 5.60001C12.71 6.05884 12.8922 6.49887 13.2167 6.82331C13.5411 7.14774 13.9811 7.33001 14.44 7.33001C14.8988 7.33001 15.3388 7.14774 15.6633 6.82331C15.9877 6.49887 16.17 6.05884 16.17 5.60001C16.17 5.14119 15.9877 4.70115 15.6633 4.37672C15.3388 4.05228 14.8988 3.87001 14.44 3.87001C13.9811 3.87001 13.5411 4.05228 13.2167 4.37672C12.8922 4.70115 12.71 5.14119 12.71 5.60001Z" fill="#FFE236" stroke="#231F20" stroke-miterlimit="10"/>
<path d="M18.6599 3.85001C18.6012 3.68987 18.5748 3.51967 18.5823 3.34926C18.5898 3.17885 18.631 3.01162 18.7035 2.85724C18.7761 2.70286 18.8785 2.5644 19.0049 2.44987C19.1313 2.33534 19.2792 2.24702 19.4399 2.19001C20.1257 1.87627 20.8716 1.71544 21.6257 1.71869C22.3798 1.72194 23.1242 1.88919 23.8073 2.20884C24.4904 2.52849 25.0957 2.99289 25.5814 3.56983C26.0671 4.14677 26.4214 4.82245 26.6199 5.55001C26.7358 5.87362 26.7188 6.22993 26.5726 6.54102C26.4264 6.8521 26.163 7.09264 25.8399 7.21001C25.6805 7.26859 25.511 7.29484 25.3413 7.28724C25.1716 7.27964 25.0051 7.23833 24.8515 7.16574C24.6979 7.09314 24.5603 6.99069 24.4468 6.86438C24.3332 6.73807 24.2459 6.59041 24.1899 6.43001C23.4899 4.52001 22.1899 3.93001 20.3199 4.62001C20.1604 4.67899 19.9908 4.70584 19.8209 4.69902C19.651 4.69221 19.4841 4.65186 19.3298 4.58029C19.1755 4.50873 19.0369 4.40737 18.9219 4.28204C18.807 4.15671 18.7179 4.00988 18.6599 3.85001Z" fill="#FFE236" stroke="#231F20" stroke-miterlimit="10"/>
<path d="M34.6199 38.26C36.5199 37 37.9999 31.42 38.7799 26.88C39.5599 22.34 39.9999 16.56 38.5999 14.77C37.6999 13.61 33.1199 11.92 29.0799 11.24C25.0399 10.56 20.1599 10.64 18.9299 11.44C17.0299 12.67 15.5299 18.28 14.7699 22.82C14.0099 27.36 13.5699 33.14 14.9499 34.93C15.8499 36.09 20.4299 37.78 24.4699 38.46C28.5099 39.14 33.3899 39.06 34.6199 38.26Z" fill="#48EEFF" stroke="#231F20" stroke-miterlimit="10"/>
<path d="M19.47 24.85C19.47 25.81 19.659 26.7605 20.0264 27.6474C20.3938 28.5343 20.9322 29.3402 21.611 30.019C22.2898 30.6978 23.0957 31.2362 23.9826 31.6036C24.8694 31.9709 25.82 32.16 26.78 32.16C27.7399 32.16 28.6905 31.9709 29.5774 31.6036C30.4643 31.2362 31.2701 30.6978 31.9489 30.019C32.6277 29.3402 33.1662 28.5343 33.5335 27.6474C33.9009 26.7605 34.09 25.81 34.09 24.85C34.09 23.89 33.9009 22.9395 33.5335 22.0526C33.1662 21.1657 32.6277 20.3599 31.9489 19.6811C31.2701 19.0023 30.4643 18.4638 29.5774 18.0965C28.6905 17.7291 27.7399 17.54 26.78 17.54C25.82 17.54 24.8694 17.7291 23.9826 18.0965C23.0957 18.4638 22.2898 19.0023 21.611 19.6811C20.9322 20.3599 20.3938 21.1657 20.0264 22.0526C19.659 22.9395 19.47 23.89 19.47 24.85Z" fill="white" stroke="#231F20" stroke-miterlimit="10"/>
<path d="M19.4399 14.82C19.4399 15.0328 19.4818 15.2434 19.5633 15.44C19.6447 15.6365 19.764 15.8151 19.9144 15.9655C20.0649 16.116 20.2434 16.2353 20.44 16.3167C20.6365 16.3981 20.8472 16.44 21.0599 16.44C21.2727 16.44 21.4833 16.3981 21.6799 16.3167C21.8764 16.2353 22.055 16.116 22.2055 15.9655C22.3559 15.8151 22.4752 15.6365 22.5566 15.44C22.638 15.2434 22.6799 15.0328 22.6799 14.82C22.6799 14.3904 22.5093 13.9783 22.2055 13.6745C21.9016 13.3707 21.4896 13.2 21.0599 13.2C20.6303 13.2 20.2182 13.3707 19.9144 13.6745C19.6106 13.9783 19.4399 14.3904 19.4399 14.82Z" fill="white" stroke="#231F20" stroke-miterlimit="10"/>
<path d="M33.8499 17.26C33.8499 17.6897 34.0205 18.1017 34.3243 18.4055C34.6281 18.7093 35.0402 18.88 35.4699 18.88C35.8995 18.88 36.3116 18.7093 36.6154 18.4055C36.9192 18.1017 37.0899 17.6897 37.0899 17.26C37.0899 16.8304 36.9192 16.4183 36.6154 16.1145C36.3116 15.8107 35.8995 15.64 35.4699 15.64C35.0402 15.64 34.6281 15.8107 34.3243 16.1145C34.0205 16.4183 33.8499 16.8304 33.8499 17.26Z" fill="white" stroke="#231F20" stroke-miterlimit="10"/>
<path d="M30.8699 34.88C30.8699 35.3097 31.0405 35.7217 31.3444 36.0255C31.6482 36.3293 32.0602 36.5 32.4899 36.5C32.9195 36.5 33.3316 36.3293 33.6354 36.0255C33.9392 35.7217 34.1099 35.3097 34.1099 34.88C34.1099 34.4504 33.9392 34.0383 33.6354 33.7345C33.3316 33.4307 32.9195 33.26 32.4899 33.26C32.0602 33.26 31.6482 33.4307 31.3444 33.7345C31.0405 34.0383 30.8699 34.4504 30.8699 34.88Z" fill="white" stroke="#231F20" stroke-miterlimit="10"/>
<path d="M16.46 32.44C16.46 32.8697 16.6306 33.2817 16.9344 33.5855C17.2383 33.8893 17.6503 34.06 18.08 34.06C18.5096 34.06 18.9217 33.8893 19.2255 33.5855C19.5293 33.2817 19.7 32.8697 19.7 32.44C19.7 32.0104 19.5293 31.5983 19.2255 31.2945C18.9217 30.9907 18.5096 30.82 18.08 30.82C17.6503 30.82 17.2383 30.9907 16.9344 31.2945C16.6306 31.5983 16.46 32.0104 16.46 32.44Z" fill="white" stroke="#231F20" stroke-miterlimit="10"/>
<path d="M24.3398 24.85C24.3398 25.4971 24.5969 26.1178 25.0545 26.5753C25.5121 27.0329 26.1327 27.29 26.7798 27.29C27.427 27.29 28.0476 27.0329 28.5052 26.5753C28.9628 26.1178 29.2198 25.4971 29.2198 24.85C29.2198 24.2029 28.9628 23.5823 28.5052 23.1247C28.0476 22.6671 27.427 22.41 26.7798 22.41C26.1327 22.41 25.5121 22.6671 25.0545 23.1247C24.5969 23.5823 24.3398 24.2029 24.3398 24.85Z" fill="#FFE236" stroke="#231F20" stroke-miterlimit="10"/>
<path d="M30.73 13.08C31.8411 13.3061 32.934 13.6136 34 14" stroke="white" stroke-miterlimit="10" stroke-linecap="round"/>
<path d="M14.1099 18.8C14.3914 17.779 14.3914 16.701 14.1099 15.68C13.8992 14.4953 13.2872 13.4192 12.3767 12.6326C11.4662 11.8459 10.3127 11.3965 9.10994 11.36L8.99994 11C8.74994 10 8.42994 8.79001 8.11994 7.79001C8.23624 7.71176 8.3378 7.61359 8.41994 7.50001C8.90994 7.05001 8.62994 5.42001 8.32994 4.21001C8.02994 3.00001 7.55994 1.40001 6.90994 1.23001C5.84402 0.993839 4.73533 1.03516 3.68994 1.35001C2.61642 1.55825 1.61237 2.03277 0.769945 2.73001C0.269945 3.18001 0.559945 4.81001 0.849945 6.00001C1.13994 7.19001 1.64994 8.80001 2.29994 9.00001C2.42248 9.05927 2.5545 9.09651 2.68994 9.11001C2.86994 10.11 3.13994 11.34 3.38994 12.37C3.38994 12.49 3.45994 12.63 3.48994 12.76C2.43458 13.341 1.61114 14.2673 1.15776 15.3834C0.704386 16.4995 0.648664 17.7376 0.999945 18.89C1.2363 19.9212 1.74379 20.8706 2.46994 21.64C2.0447 22.3927 1.77511 23.2232 1.6772 24.0821C1.57928 24.9411 1.65503 25.8109 1.89994 26.64C2.89994 30.58 5.99994 32.64 10.9999 31.37C15.9999 30.1 17.8499 26.91 16.8899 22.98C16.7311 22.1323 16.4031 21.3252 15.9254 20.607C15.4478 19.8888 14.8303 19.2743 14.1099 18.8Z" fill="#FF52A1" stroke="#231F20" stroke-miterlimit="10"/>
<path d="M8.45996 29C9.10032 28.9206 9.73495 28.8004 10.36 28.64C10.988 28.4933 11.606 28.3062 12.21 28.08" stroke="#231F20" stroke-miterlimit="10" stroke-linecap="round"/>
<path d="M2.69995 5.46C3.34132 5.38716 3.97639 5.26683 4.59995 5.1C5.22886 4.96068 5.84708 4.77689 6.44995 4.55" stroke="#231F20" stroke-miterlimit="10" stroke-linecap="round"/>
<path d="M5.60986 21.03C5.60986 21.4095 5.68462 21.7853 5.82985 22.136C5.97509 22.4866 6.18796 22.8052 6.45632 23.0736C6.72469 23.3419 7.04328 23.5548 7.39391 23.7C7.74454 23.8453 8.12034 23.92 8.49986 23.92C8.87938 23.92 9.25519 23.8453 9.60582 23.7C9.95645 23.5548 10.275 23.3419 10.5434 23.0736C10.8118 22.8052 11.0246 22.4866 11.1699 22.136C11.3151 21.7853 11.3899 21.4095 11.3899 21.03C11.3899 20.6505 11.3151 20.2747 11.1699 19.9241C11.0246 19.5734 10.8118 19.2548 10.5434 18.9865C10.275 18.7181 9.95645 18.5052 9.60582 18.36C9.25519 18.2148 8.87938 18.14 8.49986 18.14C8.12034 18.14 7.74454 18.2148 7.39391 18.36C7.04328 18.5052 6.72469 18.7181 6.45632 18.9865C6.18796 19.2548 5.97509 19.5734 5.82985 19.9241C5.68462 20.2747 5.60986 20.6505 5.60986 21.03Z" fill="white" stroke="#231F20" stroke-miterlimit="10"/>
<path d="M8.8999 26.73L9.3999 28.76" stroke="#231F20" stroke-miterlimit="10" stroke-linecap="round"/>
<path d="M10.77 26.27L11.27 28.3" stroke="#231F20" stroke-miterlimit="10" stroke-linecap="round"/>
<path d="M5.70996 13.7L6.86996 18.45" stroke="#231F20" stroke-miterlimit="10" stroke-linecap="round"/>
<path d="M7.57983 13.24L8.74983 17.99" stroke="#231F20" stroke-miterlimit="10" stroke-linecap="round"/>
<path d="M2.59988 17.57C2.42997 16.8735 2.51511 16.1392 2.83988 15.5" stroke="white" stroke-miterlimit="10" stroke-linecap="round"/>
</g>
<defs>
<clipPath id="clip0_2301_13773">
<rect width="40" height="40" fill="white"/>
</clipPath>
</defs>
</svg>
