<svg width="40" height="40" viewBox="0 0 40 40" fill="none" xmlns="http://www.w3.org/2000/svg">
<path d="M15.8379 33.297C15.8379 36.027 18.7339 39.32 21.4889 39.32C22.0688 39.32 22.643 39.2058 23.1787 38.9838C23.7144 38.7619 24.2011 38.4366 24.6111 38.0265C25.0211 37.6164 25.3463 37.1296 25.5681 36.5938C25.7899 36.0581 25.904 35.4839 25.9039 34.904C25.9039 32.174 23.0089 28.881 20.2539 28.881C19.6739 28.8809 19.0996 28.995 18.5638 29.2169C18.028 29.4387 17.5411 29.764 17.131 30.1741C16.7209 30.5842 16.3956 31.0711 16.1738 31.6069C15.9519 32.1427 15.8378 32.717 15.8379 33.297Z" fill="#00034A" stroke="#00034A" stroke-miterlimit="10"/>
<path fill-rule="evenodd" clip-rule="evenodd" d="M19.3601 0.679993C11.3381 0.679993 6.95011 5.49499 7.36011 12.692C7.54511 15.892 11.0781 19.028 14.1791 19.028C14.5011 19.028 14.8111 19.009 15.1071 18.973C15.0884 19.1798 15.0791 19.3873 15.0791 19.595V20.886C15.0791 22.956 15.2981 24.684 15.9811 25.387C15.9811 25.387 16.8411 26.597 17.6541 27.431C18.9464 28.1642 20.4126 28.5349 21.8981 28.504C23.3808 28.5357 24.8444 28.1649 26.1331 27.431C26.3981 27.215 26.6097 26.9407 26.7514 26.6296C26.8931 26.3184 26.9611 25.9787 26.9501 25.637C31.0141 23.776 33.0651 19.873 33.0651 14.737C33.0641 7.04199 27.1381 0.679993 19.3601 0.679993Z" fill="#00034A" stroke="#00034A" stroke-miterlimit="10"/>
<path d="M20.2529 37.712C21.4238 37.712 22.5468 37.2469 23.3748 36.4189C24.2027 35.5909 24.6679 34.468 24.6679 33.297C24.6679 32.1261 24.2027 31.0031 23.3748 30.1751C22.5468 29.3472 21.4238 28.882 20.2529 28.882C19.082 28.882 17.959 29.3472 17.131 30.1751C16.303 31.0031 15.8379 32.1261 15.8379 33.297C15.8379 34.468 16.303 35.5909 17.131 36.4189C17.959 37.2469 19.082 37.712 20.2529 37.712Z" fill="#9BFF00" stroke="#00034A" stroke-miterlimit="10"/>
<path d="M31.391 12.692C31.391 5.48499 27.384 0.679993 19.361 0.679993C11.337 0.679993 6.95001 5.49499 7.35901 12.692C7.51101 15.312 9.40001 16.984 12.505 16.984C15.61 16.984 17.49 15.256 17.661 12.692C17.6705 12.2423 17.8521 11.8134 18.1684 11.4936C18.4846 11.1738 18.9115 10.9875 19.361 10.973C19.8167 10.9733 20.2537 11.1545 20.5759 11.4768C20.898 11.7992 21.079 12.2363 21.079 12.692C21.0766 13.1504 20.896 13.59 20.5754 13.9177C20.2548 14.2454 19.8193 14.4355 19.361 14.448C16.645 14.648 15.078 16.86 15.078 19.595V20.886C15.078 22.956 15.297 24.684 15.98 25.387C17.2726 26.1204 18.7392 26.4911 20.225 26.46C21.7074 26.4915 23.1706 26.1207 24.459 25.387C24.7243 25.171 24.9361 24.8966 25.0778 24.5852C25.2195 24.2738 25.2873 23.9339 25.276 23.592C29.34 21.732 31.391 17.829 31.391 12.692Z" fill="#9BFF00" stroke="#00034A" stroke-miterlimit="10"/>
</svg>
