<svg width="40" height="40" viewBox="0 0 40 40" fill="none" xmlns="http://www.w3.org/2000/svg">
<g clip-path="url(#clip0_2301_15044)">
<path d="M32.4359 4.6C32.1124 4.59987 31.792 4.66348 31.4931 4.7872C31.1941 4.91092 30.9225 5.09232 30.6937 5.32104C30.4649 5.54977 30.2833 5.82133 30.1595 6.12022C30.0357 6.41911 29.9719 6.73947 29.9719 7.063C29.9719 8.517 31.5059 10.033 32.9579 10.033C33.2815 10.033 33.6019 9.96927 33.9009 9.84544C34.1998 9.72161 34.4714 9.54011 34.7002 9.31131C34.929 9.08251 35.1105 8.81088 35.2344 8.51193C35.3582 8.21299 35.4219 7.89258 35.4219 7.569C35.4219 6.115 33.8889 4.6 32.4359 4.6Z" fill="#00034A" stroke="#00034A" stroke-miterlimit="10"/>
<path d="M25.0549 7.89001C24.1509 7.89001 23.4189 8.62302 23.4189 9.52702C23.4189 10.491 24.4189 11.516 25.3849 11.516C26.2879 11.516 27.0209 10.784 27.0209 9.88001C27.0209 8.91601 26.0209 7.89001 25.0549 7.89001Z" fill="#00034A" stroke="#00034A" stroke-miterlimit="10"/>
<path d="M4.45006 4.47302C3.79691 4.47329 3.17059 4.73287 2.70875 5.19471C2.2469 5.65656 1.98733 6.28288 1.98706 6.93602C1.98706 8.55202 3.59706 9.60402 5.09706 9.60402C5.75038 9.60402 6.37696 9.34456 6.83902 8.88269C7.30108 8.42081 7.5608 7.79434 7.56106 7.14102C7.56106 5.52502 5.95106 4.47302 4.45106 4.47302H4.45006Z" fill="#00034A"/>
<path d="M8.77798 12.76C7.89098 11.509 5.58798 11.759 4.31798 11.907L4.09998 11.932C2.89298 12.068 1.46998 12.312 1.17898 12.652C0.828164 13.1571 0.691545 13.7805 0.798978 14.386C0.836978 15.003 1.11698 15.58 1.57798 15.992C2.28798 16.2 2.97298 16.412 3.73198 16.376C3.79098 17.11 3.87598 17.87 3.95398 18.553C4.09998 19.741 4.29398 21.153 4.51898 22.233C3.8988 22.2912 3.28761 22.4221 2.69798 22.623C1.90898 22.896 1.94798 24.084 2.03598 24.775C2.10298 25.305 2.25598 26.112 2.69798 26.502C2.94098 26.717 3.51498 26.89 3.83098 26.927C5.29471 26.9419 6.75712 26.8345 8.20298 26.606C9.66298 26.496 11.11 26.256 12.527 25.886C13.316 25.612 13.277 24.424 13.199 23.733C13.149 23.292 13.044 22.656 12.759 22.233C12.512 21.867 11.869 21.633 11.432 21.591C11.028 21.5497 10.6212 21.5423 10.216 21.569C10.191 20.521 10.036 19.259 9.90298 18.177L9.89798 18.134C9.65398 16.031 9.16798 13.314 8.77798 12.759V12.76Z" fill="#00034A"/>
<path d="M4.45006 4.47302C3.79691 4.47329 3.17059 4.73287 2.70875 5.19471C2.2469 5.65656 1.98733 6.28288 1.98706 6.93602C1.98706 8.55202 3.59706 9.60402 5.09706 9.60402C5.75038 9.60402 6.37696 9.34456 6.83902 8.88269C7.30108 8.42081 7.5608 7.79434 7.56106 7.14102C7.56106 5.52502 5.95106 4.47302 4.45106 4.47302H4.45006Z" stroke="#00034A" stroke-miterlimit="10"/>
<path d="M8.77798 12.76C7.89098 11.509 5.58798 11.759 4.31798 11.907L4.09998 11.932C2.89298 12.068 1.46998 12.312 1.17898 12.652C0.828164 13.1571 0.691545 13.7805 0.798978 14.386C0.836978 15.003 1.11698 15.58 1.57798 15.992C2.28798 16.2 2.97298 16.412 3.73198 16.376C3.79098 17.11 3.87598 17.87 3.95398 18.553C4.09998 19.741 4.29398 21.153 4.51898 22.233C3.8988 22.2912 3.28761 22.4221 2.69798 22.623C1.90898 22.896 1.94798 24.084 2.03598 24.775C2.10298 25.305 2.25598 26.112 2.69798 26.502C2.94098 26.717 3.51498 26.89 3.83098 26.927C5.29471 26.9419 6.75712 26.8345 8.20298 26.606C9.66298 26.496 11.11 26.256 12.527 25.886C13.316 25.612 13.277 24.424 13.199 23.733C13.149 23.292 13.044 22.656 12.759 22.233C12.512 21.867 11.869 21.633 11.432 21.591C11.028 21.5497 10.6212 21.5423 10.216 21.569C10.191 20.521 10.036 19.259 9.90298 18.177L9.89798 18.134C9.65398 16.031 9.16798 13.314 8.77798 12.759V12.76Z" stroke="#00034A" stroke-miterlimit="10"/>
<path d="M12.3269 11.23C11.5409 10.172 9.59094 6.39198 10.5469 3.63498C11.4229 1.07498 13.4479 -0.143015 16.2909 0.840985C19.0309 1.78898 20.6249 4.73398 19.6629 7.51398C18.5529 10.679 13.5279 12.529 13.1779 12.441C13.0679 12.414 12.7209 11.951 12.3279 11.229L12.3269 11.23Z" fill="#00034A" stroke="#00034A" stroke-miterlimit="10"/>
<path d="M10.546 3.63497C9.43601 6.83897 12.25 11.425 12.601 11.513C12.951 11.601 17.976 9.75097 19.086 6.58597C19.972 4.02497 19.135 1.82397 16.291 0.840972C13.448 -0.143028 11.422 1.07397 10.546 3.63497Z" fill="#9BFF00" stroke="#00034A" stroke-miterlimit="10"/>
<path d="M14.8111 6.98501C15.063 6.99323 15.314 6.95071 15.5492 6.85999C15.7843 6.76926 15.9988 6.63217 16.1799 6.45688C16.361 6.28158 16.5051 6.07166 16.6034 5.8396C16.7017 5.60753 16.7524 5.35806 16.7524 5.10601C16.7524 4.85397 16.7017 4.6045 16.6034 4.37243C16.5051 4.14036 16.361 3.93044 16.1799 3.75515C15.9988 3.57986 15.7843 3.44277 15.5492 3.35204C15.314 3.26131 15.063 3.21879 14.8111 3.22701C14.3234 3.24293 13.861 3.44787 13.5216 3.79851C13.1822 4.14915 12.9924 4.61802 12.9924 5.10601C12.9924 5.594 13.1822 6.06287 13.5216 6.41352C13.861 6.76416 14.3234 6.9691 14.8111 6.98501Z" fill="white" stroke="#00034A" stroke-miterlimit="10"/>
<path d="M36.75 16.956C35.893 16.177 29.125 14.931 25.113 14.61C21.102 14.288 14.227 14.444 13.263 15.077C11.354 15.593 10.449 22.614 10.225 25.331C10.049 27.459 9.862 32.231 10.651 34.627C10.914 35.427 11.742 36.51 12.521 36.9C13.369 37.68 20.137 38.926 24.148 39.247C28.16 39.569 35.074 39.413 36.048 38.78C37.917 38.225 38.823 31.243 39.037 28.507C39.205 26.361 39.379 21.591 38.6 19.21C38.341 18.417 37.522 17.343 36.75 16.956Z" fill="#00034A" stroke="#00034A" stroke-miterlimit="10"/>
<path d="M35.0749 37.843C36.9449 37.288 37.8499 30.306 38.0649 27.57C38.2779 24.834 38.5019 17.833 36.7499 16.956C35.8929 16.177 29.1249 14.931 25.1129 14.61C21.1019 14.288 14.2269 14.444 13.2629 15.077C11.3539 15.593 10.4489 22.614 10.2249 25.331C10.0009 28.047 9.75692 35.068 11.5489 35.964C12.3959 36.743 19.1639 37.989 23.1759 38.31C27.1869 38.632 34.1009 38.476 35.0749 37.843Z" fill="white" stroke="#00034A" stroke-miterlimit="10"/>
<path d="M20.5171 23.646C21.0004 23.3807 21.4037 22.9905 21.6846 22.516C21.9655 22.0416 22.1139 21.5004 22.1141 20.949C22.1936 20.512 22.175 20.0627 22.0596 19.6338C21.9443 19.2048 21.7351 18.8068 21.4472 18.4686C21.1592 18.1303 20.7998 17.8602 20.3947 17.6779C19.9897 17.4955 19.5492 17.4054 19.1051 17.414C18.6667 17.3371 18.2166 17.359 17.7878 17.4782C17.359 17.5973 16.9621 17.8107 16.6263 18.1028C16.2904 18.3949 16.024 18.7582 15.8465 19.1664C15.6689 19.5745 15.5847 20.0172 15.6001 20.462C15.5066 21.0073 15.5643 21.5677 15.7668 22.0825C15.9694 22.5972 16.3091 23.0467 16.7491 23.382C12.8541 24.629 14.5191 30.647 14.6651 30.735C14.9501 30.94 15.2881 31.059 15.6391 31.075C15.5036 32.0505 15.5597 33.043 15.8041 33.997C15.9601 34.406 16.9641 34.523 17.8011 34.591C18.6381 34.659 19.6411 34.698 19.8651 34.318C20.268 33.396 20.4831 32.4031 20.4981 31.397C20.8341 31.417 21.1691 31.35 21.4721 31.202C21.5881 31.172 24.1011 25.467 20.5171 23.646Z" fill="#9BFF00" stroke="#00034A" stroke-miterlimit="10"/>
<path d="M33.5171 28.447C33.5171 26.645 33.0301 25.253 31.6271 24.552C32.1086 24.2868 32.5107 23.8979 32.7916 23.4253C33.0725 22.9528 33.2222 22.4138 33.2251 21.864C33.31 21.4245 33.2952 20.9715 33.1816 20.5385C33.068 20.1055 32.8585 19.7035 32.5687 19.3623C32.2788 19.0211 31.9161 18.7494 31.5071 18.5673C31.0982 18.3851 30.6535 18.2972 30.2061 18.31C29.7688 18.2288 29.3189 18.2462 28.8892 18.3609C28.4596 18.4756 28.0609 18.6847 27.7222 18.9729C27.3835 19.2612 27.1135 19.6214 26.9316 20.0272C26.7498 20.4331 26.6608 20.8744 26.6711 21.319C26.5842 21.8641 26.6451 22.4225 26.8473 22.936C27.0496 23.4496 27.3858 23.8995 27.8211 24.239C26.3211 24.717 25.6681 26.032 25.3281 27.804C24.9871 29.576 24.4511 30.998 25.0351 31.524C25.4953 31.91 26.0564 32.1564 26.6521 32.234C26.5331 33.1237 26.596 34.0283 26.8371 34.893C26.9931 35.302 27.9961 35.419 28.8331 35.487C29.6711 35.555 30.6731 35.594 30.8881 35.224C31.2648 34.4077 31.47 33.5228 31.4911 32.624C32.0996 32.6341 32.6982 32.4685 33.2151 32.147C33.8771 31.747 33.5651 30.247 33.5171 28.447Z" fill="#9BFF00" stroke="#00034A" stroke-miterlimit="10"/>
<path d="M32.4359 9.527C33.0894 9.527 33.7161 9.2674 34.1782 8.80531C34.6403 8.34322 34.8999 7.71649 34.8999 7.063C34.8999 6.40951 34.6403 5.78278 34.1782 5.32069C33.7161 4.8586 33.0894 4.599 32.4359 4.599C31.7824 4.599 31.1557 4.8586 30.6936 5.32069C30.2315 5.78278 29.9719 6.40951 29.9719 7.063C29.9719 7.71649 30.2315 8.34322 30.6936 8.80531C31.1557 9.2674 31.7824 9.527 32.4359 9.527Z" fill="#9BFF00" stroke="#00034A" stroke-miterlimit="10"/>
<path d="M25.055 11.162C25.2732 11.1674 25.4903 11.1291 25.6934 11.0493C25.8966 10.9696 26.0817 10.8499 26.2379 10.6975C26.3941 10.5451 26.5183 10.363 26.603 10.1619C26.6878 9.96079 26.7315 9.74475 26.7315 9.5265C26.7315 9.30826 26.6878 9.09222 26.603 8.8911C26.5183 8.68999 26.3941 8.50787 26.2379 8.35546C26.0817 8.20306 25.8966 8.08345 25.6934 8.00369C25.4903 7.92392 25.2732 7.88561 25.055 7.891C24.6283 7.90156 24.2225 8.0785 23.9244 8.38406C23.6263 8.68963 23.4595 9.09961 23.4595 9.5265C23.4595 9.95339 23.6263 10.3634 23.9244 10.6689C24.2225 10.9745 24.6283 11.1514 25.055 11.162Z" fill="#9BFF00" stroke="#00034A" stroke-miterlimit="10"/>
<path d="M11.432 21.591C10.8124 21.5275 10.1873 21.5439 9.57198 21.64C9.57198 20.53 9.39698 19.118 9.25198 17.93C9.00798 15.827 8.52098 13.11 8.13198 12.555C7.37198 11.484 5.30698 11.795 4.09998 11.932C2.89298 12.068 1.46998 12.312 1.17898 12.652C0.828164 13.1571 0.691545 13.7805 0.798978 14.386C0.836978 15.003 1.11698 15.58 1.57798 15.992C2.27078 16.1943 3.00141 16.2309 3.71098 16.099C3.76898 16.917 3.86598 17.784 3.95398 18.553C4.09998 19.741 4.29398 21.153 4.51898 22.233C3.89879 22.2912 3.2876 22.4221 2.69798 22.623C1.90898 22.896 1.94798 24.084 2.03598 24.775C2.12298 25.467 2.35698 26.625 3.18498 26.723C4.64874 26.7376 6.11115 26.6299 7.55698 26.401C9.01675 26.2919 10.4637 26.0509 11.88 25.681C12.669 25.408 12.63 24.221 12.552 23.529C12.474 22.838 12.26 21.669 11.432 21.591Z" fill="#9BFF00" stroke="#00034A" stroke-miterlimit="10"/>
<path d="M4.45001 9.39997C4.7777 9.40658 5.10341 9.34774 5.40807 9.2269C5.71274 9.10606 5.99024 8.92566 6.22432 8.69625C6.4584 8.46684 6.64436 8.19303 6.77131 7.89086C6.89826 7.58869 6.96364 7.26423 6.96364 6.93647C6.96364 6.60872 6.89826 6.28426 6.77131 5.98209C6.64436 5.67992 6.4584 5.40611 6.22432 5.1767C5.99024 4.94729 5.71274 4.76688 5.40807 4.64605C5.10341 4.52521 4.7777 4.46637 4.45001 4.47297C3.80524 4.48596 3.19127 4.75122 2.73987 5.2118C2.28848 5.67238 2.03564 6.29158 2.03564 6.93647C2.03564 7.58137 2.28848 8.20056 2.73987 8.66115C3.19127 9.12173 3.80524 9.38698 4.45001 9.39997Z" fill="#9BFF00" stroke="#00034A" stroke-miterlimit="10"/>
</g>
<defs>
<clipPath id="clip0_2301_15044">
<rect width="40" height="40" fill="white"/>
</clipPath>
</defs>
</svg>
