<svg width="40" height="40" viewBox="0 0 40 40" fill="none" xmlns="http://www.w3.org/2000/svg">
<g clip-path="url(#clip0_2301_13735)">
<path d="M34.9999 3.23C33.2599 1.49 30.8099 1.13 20.3299 11.61C17.8799 14 16.0499 16 14.6699 17.68C12.4521 16.8087 10.0019 16.7278 7.73147 17.4508C5.461 18.1738 3.50879 19.6567 2.20321 21.65C0.897632 23.6433 0.318343 26.0254 0.562781 28.3957C0.80722 30.7659 1.86047 32.9797 3.54538 34.6646C5.23028 36.3495 7.44403 37.4027 9.81428 37.6472C12.1845 37.8916 14.5666 37.3123 16.5599 36.0067C18.5533 34.7012 20.0361 32.7489 20.7592 30.4785C21.4822 28.208 21.4012 25.7578 20.5299 23.54C21.9499 22.35 23.6299 20.81 25.6099 18.87C25.917 19.2691 26.2511 19.6467 26.6099 20C27.9599 21.35 30.1299 22.76 31.2399 22.35C31.9458 22.1469 32.605 21.8071 33.1799 21.35C33.4931 21.1344 33.7127 20.808 33.7943 20.4368C33.876 20.0655 33.8137 19.6771 33.6199 19.35C33.081 18.4644 32.4653 17.6279 31.7799 16.85C32.1499 16.51 32.5299 16.16 32.8899 15.79C33.2499 15.42 33.6099 15.05 33.9499 14.68C34.7278 15.3653 35.5644 15.981 36.4499 16.52C36.777 16.7137 37.1654 16.7761 37.5367 16.6944C37.908 16.6127 38.2344 16.3931 38.4499 16.08C38.9071 15.505 39.2468 14.8459 39.4499 14.14C39.8599 13.03 38.4499 10.86 37.0999 9.51C36.495 8.90085 35.8242 8.36087 35.0999 7.9C36.4499 5.35 35.9299 4.17 34.9999 3.23Z" fill="#FFE236" stroke="#231F20" stroke-miterlimit="10"/>
<path d="M6.42993 27.33C6.42993 28.5102 6.89877 29.6421 7.73331 30.4766C8.56784 31.3112 9.69972 31.78 10.8799 31.78C12.0601 31.78 13.192 31.3112 14.0266 30.4766C14.8611 29.6421 15.3299 28.5102 15.3299 27.33C15.3299 26.1498 14.8611 25.0179 14.0266 24.1834C13.192 23.3488 12.0601 22.88 10.8799 22.88C9.69972 22.88 8.56784 23.3488 7.73331 24.1834C6.89877 25.0179 6.42993 26.1498 6.42993 27.33Z" fill="white" stroke="#231F20" stroke-miterlimit="10"/>
<path d="M26.72 9.69C29.86 6.31 31.94 5.5 31.94 5.5" stroke="white" stroke-miterlimit="10" stroke-linecap="round"/>
</g>
<defs>
<clipPath id="clip0_2301_13735">
<rect width="40" height="40" fill="white"/>
</clipPath>
</defs>
</svg>
