<svg width="40" height="40" viewBox="0 0 40 40" fill="none" xmlns="http://www.w3.org/2000/svg">
<g clip-path="url(#clip0_2301_15006)">
<path d="M31.5719 3.86C29.0849 3.245 23.9219 2.992 19.4899 2.992C13.9959 2.992 7.37692 3.38 6.12692 4.368C3.64692 5.338 3.53992 10.434 3.53992 14.252C3.53992 17.654 3.62692 22.004 5.39992 23.662C2.91992 24.466 2.25092 26.122 0.884919 29.534C0.651742 30.1112 0.546327 30.7321 0.575919 31.354C0.682919 33.568 2.80692 35.913 4.97592 36.417C6.42092 37.007 14.1529 37.007 20.5589 37.007C26.9639 37.007 34.6969 37.007 36.1399 36.377C36.7416 36.2351 37.3058 35.9654 37.7942 35.5863C38.2826 35.2073 38.6837 34.7277 38.9705 34.18C39.2573 33.6323 39.423 33.0293 39.4564 32.412C39.4897 31.7947 39.39 31.1774 39.1639 30.602C38.1209 27.999 37.4839 26.418 36.1389 25.457C35.8264 25.0232 35.4422 24.6458 35.0029 24.341C36.4329 22.482 36.5089 18.48 36.5089 15.321C36.5089 13.677 36.4889 11.799 36.2689 10.115C35.8989 7.302 34.4629 4.577 31.5719 3.861V3.86Z" fill="#00034A" stroke="#00034A" stroke-linejoin="round"/>
<path d="M38.0949 29.534C36.7289 26.123 36.0599 24.466 33.5789 23.661C35.3529 22.033 35.4389 17.653 35.4389 14.252C35.4389 10.434 35.3329 5.357 32.8529 4.368C31.6029 3.38 24.9839 2.992 19.4899 2.992C13.9959 2.992 7.37692 3.38 6.12692 4.368C3.64692 5.338 3.53992 10.434 3.53992 14.252C3.53992 17.654 3.62692 22.004 5.39992 23.662C2.91992 24.466 2.25092 26.122 0.884917 29.534C0.651869 30.1114 0.546647 30.7325 0.576488 31.3545C0.606328 31.9764 0.770522 32.5846 1.05778 33.137C1.34504 33.6895 1.74854 34.1732 2.24054 34.5549C2.73255 34.9365 3.30138 35.2071 3.90792 35.348C5.35192 35.938 13.0849 35.938 19.4899 35.938C25.8949 35.938 33.6279 35.938 35.0719 35.309C35.6736 35.1671 36.2378 34.8974 36.7261 34.5184C37.2145 34.1393 37.6156 33.6596 37.9023 33.1119C38.189 32.5642 38.3546 31.9612 38.3879 31.3439C38.4211 30.7266 38.3212 30.1093 38.0949 29.534Z" fill="#9BFF00" stroke="#00034A" stroke-linejoin="round"/>
<path d="M28.8701 20.24C30.6141 19.64 30.6921 16.568 30.6921 14.252C30.6921 11.936 30.6141 8.86501 28.8701 8.26401C27.9981 7.66301 23.3461 7.41101 19.4901 7.41101C15.6331 7.41101 10.9821 7.66301 10.1101 8.26401C8.36609 8.86401 8.28809 11.936 8.28809 14.252C8.28809 16.568 8.36609 19.64 10.1101 20.241C10.9821 20.841 15.6331 21.093 19.4901 21.093C23.3471 21.093 27.9981 20.841 28.8701 20.24Z" fill="white" stroke="#00034A" stroke-miterlimit="10"/>
<path d="M23.25 32.276C23.398 32.2374 23.536 32.1677 23.6549 32.0715C23.7738 31.9753 23.8709 31.8549 23.9396 31.7182C24.0083 31.5816 24.0471 31.4318 24.0533 31.279C24.0596 31.1262 24.0332 30.9738 23.976 30.832C23.366 29.156 23.366 29.156 19.49 29.156C15.614 29.156 15.614 29.156 15.003 30.813C14.9457 30.9549 14.9194 31.1074 14.9257 31.2602C14.9321 31.4131 14.9709 31.5629 15.0397 31.6995C15.1085 31.8362 15.2057 31.9566 15.3247 32.0527C15.4437 32.1488 15.5819 32.2185 15.73 32.257C16.974 32.44 18.233 32.511 19.49 32.47C20.7466 32.5178 22.005 32.4529 23.25 32.276Z" fill="white" stroke="#00034A" stroke-miterlimit="10"/>
<path d="M10.187 24.611C10.187 24.611 12.513 24.882 19.49 24.882C26.467 24.882 28.792 24.611 28.792 24.611" stroke="#00034A" stroke-miterlimit="10" stroke-linecap="round"/>
</g>
<defs>
<clipPath id="clip0_2301_15006">
<rect width="40" height="40" fill="white"/>
</clipPath>
</defs>
</svg>
