<svg width="40" height="40" viewBox="0 0 40 40" fill="none" xmlns="http://www.w3.org/2000/svg">
<path d="M26.6 34.6272C26.654 35.008 26.7217 35.3879 26.8051 35.7638C26.9572 36.8709 28.0693 38.3863 29.1273 38.8388C29.7721 39.1145 30.5426 39.1116 31.2228 39.1087C31.353 39.1081 31.4832 39.1081 31.6134 39.1087C32.9875 39.1146 34.7129 39.1214 35.0584 36.812C35.4313 35.6008 35.7925 29.1859 35.7925 23.8025V21.0857C35.7925 15.984 35.6826 11.6399 34.2703 8.38535C33.3153 6.18495 31.4289 4.06005 29.3413 2.86555C27.1025 1.58375 23.95 0.890747 19.5137 0.890747C4.76992 0.890747 4.20752 8.54435 4.20752 20.0385V22.7542C4.20752 28.1013 4.56962 34.5536 4.94062 35.7638C5.10652 36.8679 6.21362 38.3833 7.27172 38.8388C7.91162 39.1145 8.67522 39.1116 9.35832 39.1087C9.48922 39.1081 9.62002 39.1081 9.75092 39.1087C11.1338 39.1146 12.8494 39.1214 13.1959 36.812C13.3578 36.0739 13.4628 35.3251 13.51 34.5713C15.6731 34.7146 18.1612 34.7332 20.4863 34.7332C22.5082 34.7332 24.6527 34.7332 26.6 34.6272Z" fill="#00034A" stroke="#00034A" stroke-miterlimit="10"/>
<path d="M34.8199 20.0385C34.8199 8.54435 34.2575 0.890747 19.5137 0.890747C4.76992 0.890747 4.20752 8.54435 4.20752 20.0385V22.7542C4.20752 28.1013 4.56962 34.5536 4.94062 35.7638C5.30382 38.1851 7.17162 38.0604 8.58192 38.0604C9.99232 38.0604 11.8601 38.1851 12.2232 35.7638C12.3852 35.0267 12.4902 34.2778 12.5373 33.524C14.7005 33.6673 17.1886 33.686 19.5137 33.686C21.8398 33.686 24.3269 33.686 26.4901 33.524C26.5372 34.2778 26.6422 35.0257 26.8041 35.7638C27.1378 38.1851 29.0448 38.0604 30.4454 38.0604C31.846 38.0604 33.7236 38.1851 34.0867 35.7638C34.4577 34.5536 34.8199 28.1396 34.8199 22.7542V20.0385Z" fill="#9BFF00" stroke="#00034A" stroke-miterlimit="10"/>
<path d="M23.9933 10.574C24.8226 10.4307 24.9463 9.66807 24.9463 9.08707C25.0534 8.42107 24.6431 7.78097 23.9933 7.60017C22.5052 7.44827 21.0087 7.39747 19.5138 7.44797C18.019 7.39697 16.5222 7.44797 15.0343 7.60017C14.2049 7.75327 14.0813 8.55317 14.0813 9.08707C14.0813 9.62097 14.2334 10.4317 15.0343 10.574C16.5222 10.7311 18.018 10.7821 19.5138 10.7262C21.0087 10.7818 22.5056 10.7309 23.9933 10.574Z" fill="white" stroke="#00034A" stroke-miterlimit="10"/>
<path d="M10.1072 9.63965C9.67822 12.1747 9.67822 16.8927 9.67822 30.4077" stroke="#00034A" stroke-miterlimit="10" stroke-linecap="round"/>
<path d="M29.3491 30.4077C29.3491 16.8927 29.3491 12.1747 28.9202 9.63965" stroke="#00034A" stroke-miterlimit="10" stroke-linecap="round"/>
<path d="M9.89722 14.0052H29.1402" stroke="#00034A" stroke-miterlimit="10" stroke-linecap="round"/>
<path d="M20.8582 27.1002C20.8582 27.1002 21.61 26.5477 22.5827 23.5267C22.9299 22.4171 23.2474 21.2985 23.5347 20.172C23.7133 19.0403 23.2373 18.5643 22.1057 18.7419C21.7435 18.7989 20.0946 19.2278 18.7411 19.695C17.4554 20.0542 16.2384 20.6244 15.1391 21.3821C14.5865 21.9445 14.8152 22.4019 15.2343 22.821C15.8065 23.3932 17.6743 23.774 18.2278 24.0125C18.4271 24.5749 18.856 26.4328 19.4282 27.005C19.8375 27.4241 20.285 27.6528 20.8386 27.1101L20.8582 27.1002Z" fill="white" stroke="#00034A" stroke-miterlimit="10"/>
</svg>
