<svg width="40" height="40" viewBox="0 0 40 40" fill="none" xmlns="http://www.w3.org/2000/svg">
<path d="M34.8347 6.48842C33.4181 5.18882 25.8472 4.83472 19.5366 4.83472C13.2259 4.83472 5.69145 5.18882 4.23845 6.48832C1.42795 7.78892 0.891846 14.4625 0.891846 19.4825C0.891846 23.1991 1.18595 27.8217 2.47855 30.5004C3.01375 31.6081 4.00335 32.9863 5.13665 33.5107C6.56105 34.8121 14.1339 35.1653 20.4347 35.1653C26.7355 35.1653 34.2887 34.8603 35.7318 33.5116C38.6014 32.2111 39.108 25.5375 39.108 20.5174C39.108 17.2505 38.869 13.2821 37.9275 10.5512C37.4209 9.08542 36.3201 7.17702 34.8347 6.48842Z" fill="#00034A" stroke="#00034A" stroke-miterlimit="10"/>
<path d="M34.8347 32.4767C37.7023 31.1762 38.2089 24.5026 38.2089 19.4825C38.2089 14.4624 37.6452 7.78882 34.8347 6.48832C33.4181 5.18882 25.8472 4.83472 19.5366 4.83472C13.2259 4.83472 5.69145 5.18882 4.23845 6.48832C1.42795 7.78892 0.891846 14.4625 0.891846 19.4825C0.891846 24.5025 1.42795 31.1762 4.23845 32.4767C5.66295 33.7763 13.2357 34.1294 19.5356 34.1294C25.8374 34.1294 33.3905 33.8245 34.8347 32.4767Z" fill="#9BFF00" stroke="#00034A" stroke-miterlimit="10"/>
<path d="M4.87988 12.7902C8.36928 16.433 13.4267 20.3718 14.9849 21.0506C17.8558 22.4586 21.2166 22.4586 24.0874 21.0506C25.6368 20.4387 30.6942 16.4713 34.1845 12.7892" stroke="#00034A" stroke-miterlimit="10" stroke-linecap="round"/>
<path d="M14.2106 20.8116L7.55664 27.4754" stroke="#00034A" stroke-miterlimit="10" stroke-linecap="round"/>
<path d="M24.8616 20.8116L31.5265 27.4754" stroke="#00034A" stroke-miterlimit="10" stroke-linecap="round"/>
</svg>
