<svg width="40" height="40" viewBox="0 0 40 40" fill="none" xmlns="http://www.w3.org/2000/svg">
<g clip-path="url(#clip0_2301_14920)">
<path d="M9.28603 24.383C9.37803 24.57 9.47803 24.754 9.58603 24.933C10.312 26.244 12.184 27.223 13.63 26.858C14.583 26.618 15.738 25.896 15.786 25.01C15.8495 24.3359 15.8206 23.6562 15.7 22.99C18.346 21.71 20.425 19.313 19.367 14.732C19.074 12.902 17.739 11.686 16.412 10.528C16.1481 10.2974 15.8609 10.095 15.555 9.92396C16.0488 9.57965 16.4289 9.09605 16.6467 8.53484C16.8645 7.97363 16.9103 7.36026 16.778 6.77296C16.244 4.47296 13.051 3.27296 11.001 3.21796C10.8938 2.99235 10.7757 2.77209 10.647 2.55796C9.94503 1.23196 8.05203 0.303961 6.62203 0.621961C5.66903 0.832961 4.51403 1.58396 4.46603 2.46996C4.39703 3.16996 4.43003 3.87696 4.56203 4.56796C1.94403 5.93496 -0.0959712 8.49496 0.876029 12.779C1.0617 13.9404 1.65047 14.9993 2.53903 15.77C2.98903 16.16 3.38103 16.583 3.83103 16.973C4.09103 17.199 4.37103 17.395 4.66803 17.561C4.17738 17.9044 3.80065 18.3867 3.58627 18.9458C3.37189 19.505 3.32967 20.1156 3.46503 20.699C4.00803 23.083 7.11603 24.384 9.28603 24.383Z" fill="#00034A" stroke="#00034A" stroke-linejoin="round"/>
<path d="M32.584 13.505C32.11 12.799 32.869 11.458 34.281 10.509C35.168 9.91303 37.768 8.99403 38.607 10.242C39.081 10.948 38.322 12.29 36.91 13.239C36.023 13.835 33.423 14.753 32.584 13.505Z" fill="#00034A" stroke="#00034A" stroke-miterlimit="10"/>
<path d="M33.264 5.33795C33.978 5.79995 33.807 7.33195 32.881 8.75995C32.066 10.0169 30.441 11.2649 29.003 10.3329C28.29 9.86995 28.461 8.33795 29.386 6.91095C30.151 5.73095 31.848 4.41995 33.264 5.33795Z" fill="#00034A" stroke="#00034A" stroke-miterlimit="10"/>
<path d="M25.488 2.85803C24.639 2.80003 23.858 4.13003 23.744 5.82703C23.63 7.52403 24.224 8.94603 25.073 9.00303C26.889 9.12603 27.59 8.24203 27.728 6.20703C27.844 4.48503 27.303 2.98103 25.488 2.85803Z" fill="#00034A" stroke="#00034A" stroke-miterlimit="10"/>
<path fill-rule="evenodd" clip-rule="evenodd" d="M31.346 21.5931C31.846 21.8491 32.316 22.1601 32.746 22.5231C33.725 23.2051 34.691 24.6981 34.99 25.8171C35.475 27.6351 35.465 30.2181 35.133 32.2831C34.633 35.3921 33.285 38.3181 31.437 38.8471C30.446 39.5111 25.73 39.5781 21.938 38.9621C18.146 38.3461 13.69 36.8261 12.968 35.8631C11.878 35.1161 10.816 33.5291 10.499 32.2831C10.133 30.8421 10.132 28.9911 10.409 27.1731C10.879 24.0631 12.41 20.0701 14.258 19.5401C15.1984 19.1602 16.2084 18.983 17.222 19.0201C17.261 18.7221 17.299 18.4431 17.347 18.1351C17.4727 17.2944 17.7694 16.4884 18.2188 15.7669C18.6682 15.0454 19.2608 14.4237 19.9599 13.9402C20.659 13.4568 21.4499 13.1217 22.2836 12.9559C23.1172 12.7901 23.9761 12.7969 24.807 12.9761C25.649 13.0701 26.464 13.3361 27.201 13.7561C28.395 14.4371 29.375 15.6181 30.198 16.7101C30.7175 17.3999 31.0878 18.1902 31.2854 19.0309C31.4831 19.8715 31.5037 20.744 31.346 21.5931ZM26.566 17.9011C26.8 18.4731 26.878 19.1891 26.75 20.0511C25.7654 19.7958 24.7701 19.5836 23.767 19.4151C23.2402 19.3282 22.711 19.2568 22.18 19.2011C22.797 17.7781 24.032 17.2731 25.355 17.4911H25.393C25.823 17.5591 26.22 17.6951 26.566 17.9011Z" fill="#00034A" stroke="#00034A" stroke-miterlimit="10"/>
<path d="M32.746 22.5241C31.9684 21.8689 31.0643 21.3808 30.09 21.0901C30.148 20.8011 30.205 20.5221 30.253 20.2141C30.396 19.378 30.3666 18.5216 30.1667 17.6973C29.9668 16.8731 29.6006 16.0983 29.0905 15.4207C28.5805 14.743 27.9373 14.1767 27.2006 13.7565C26.4638 13.3363 25.6489 13.0711 24.806 12.9771C23.9752 12.7979 23.1165 12.791 22.2829 12.9568C21.4494 13.1226 20.6586 13.4575 19.9596 13.9409C19.2606 14.4243 18.6681 15.0459 18.2187 15.7673C17.7694 16.4887 17.4727 17.2945 17.347 18.1351C17.299 18.4431 17.261 18.7221 17.222 19.0201C16.2084 18.9829 15.1984 19.1601 14.258 19.5401C12.41 20.0701 10.88 24.0641 10.408 27.1721C9.937 30.2811 10.274 33.4861 11.862 34.5731C12.583 35.5361 17.039 37.0561 20.832 37.6731C24.623 38.2881 29.339 38.2211 30.33 37.5571C32.178 37.0271 33.526 34.1021 34.026 30.9931C34.526 27.8841 34.296 23.6031 32.746 22.5241ZM24.286 16.2011C25.932 16.4611 27.096 17.7211 26.75 20.0511C25.7654 19.7957 24.7701 19.5835 23.767 19.4151C22.7658 19.2532 21.7573 19.1407 20.745 19.0781C21.11 16.7681 22.612 15.9311 24.248 16.2011H24.286Z" fill="#9BFF00" stroke="#00034A" stroke-miterlimit="10"/>
<path d="M12.853 25.3719C13.719 27.7209 17.944 28.4039 22.169 29.0869C26.394 29.7709 30.629 30.4439 32.179 28.4999" stroke="#00034A" stroke-miterlimit="10" stroke-linecap="round"/>
<path d="M18.9549 26.8449C18.8679 26.5079 18.2039 26.2389 17.6849 26.1519C17.1649 26.0649 16.4519 26.1519 16.2699 26.4019C15.979 26.9042 15.7951 27.4612 15.7299 28.0379C15.6148 28.6065 15.6148 29.1924 15.7299 29.7609C15.8169 30.0979 16.4809 30.3669 17.0009 30.4539C17.5209 30.5409 18.2329 30.4539 18.4159 30.1939C18.7083 29.6924 18.892 29.135 18.9549 28.5579C19.0697 27.9927 19.0697 27.4102 18.9549 26.8449Z" fill="white" stroke="#00034A" stroke-miterlimit="10"/>
<path d="M28.6169 28.4041C28.5309 28.0671 27.8669 27.7981 27.3469 27.7111C26.8269 27.6251 26.1149 27.7111 25.9319 27.9711C25.6396 28.4726 25.4559 29.03 25.3929 29.6071C25.2717 30.175 25.2717 30.7621 25.3929 31.3301C25.4699 31.6571 26.1339 31.9271 26.6539 32.0131C27.1739 32.1001 27.8859 32.0131 28.0689 31.7631C28.3593 31.2599 28.5456 30.7036 28.6169 30.1271C28.7286 29.5581 28.7286 28.973 28.6169 28.4041Z" fill="white" stroke="#00034A" stroke-miterlimit="10"/>
<path d="M18.079 13.554C17.8926 12.3902 17.3044 11.3284 16.4166 10.5531C15.5287 9.77779 14.3974 9.33798 13.219 9.31004V9.21304C13.9984 9.03168 14.6744 8.5496 15.0998 7.87188C15.5253 7.19415 15.6655 6.37574 15.49 5.59504C15.028 3.60204 12.449 3.16904 10.168 3.24604C9.98212 2.59067 9.71008 1.96286 9.35903 1.37904C8.93603 0.580043 7.58003 0.436043 6.62603 0.648043C5.67303 0.859043 4.51803 1.61004 4.47003 2.49604C4.40103 3.19604 4.43403 3.90304 4.56603 4.59404C1.95003 5.96004 -0.0919701 8.52004 0.88003 12.804C1.06556 13.9658 1.65439 15.025 2.54314 15.7958C3.43189 16.5666 4.56375 16.9997 5.74003 17.019V17.115C5.3533 17.2017 4.98754 17.364 4.66381 17.5926C4.34008 17.8212 4.06478 18.1116 3.85378 18.447C3.64278 18.7825 3.50024 19.1564 3.43438 19.5472C3.36852 19.938 3.38063 20.338 3.47003 20.724C3.98903 23.004 6.66503 23.313 8.82003 23.178C8.99703 23.803 9.25603 24.402 9.59003 24.958C10.033 25.758 11.39 25.921 12.343 25.68C13.296 25.44 14.45 24.718 14.499 23.833C14.5623 23.1586 14.533 22.4786 14.412 21.812C17.059 20.532 19.137 18.135 18.079 13.554Z" fill="white" stroke="#00034A" stroke-linejoin="round"/>
<path d="M13.2191 9.271C11.7024 9.28741 10.2052 9.61482 8.82007 10.233" stroke="#00034A" stroke-linecap="round" stroke-linejoin="round"/>
<path d="M5.73999 17.019C7.26106 17.0425 8.76683 16.7128 10.139 16.056" stroke="#00034A" stroke-linecap="round" stroke-linejoin="round"/>
<path d="M26.817 6.03403C26.931 4.33703 26.337 2.91403 25.487 2.85803C24.639 2.80003 23.858 4.13003 23.744 5.82703C23.629 7.52403 24.224 8.94603 25.073 9.00303C25.922 9.06003 26.703 7.73103 26.817 6.03403Z" fill="#9BFF00" stroke="#00034A" stroke-miterlimit="10"/>
<path d="M31.97 8.58605C32.896 7.15905 33.067 5.62605 32.353 5.16405C31.64 4.70205 30.311 5.48405 29.386 6.91105C28.461 8.33805 28.29 9.87105 29.003 10.3331C29.717 10.7961 31.045 10.0131 31.971 8.58605H31.97Z" fill="#9BFF00" stroke="#00034A" stroke-miterlimit="10"/>
<path d="M36.0001 13.065C37.4101 12.116 38.1701 10.775 37.6961 10.069C37.2221 9.36299 35.6931 9.55999 34.2811 10.509C32.8701 11.459 32.1101 12.799 32.5841 13.505C33.0591 14.211 34.5891 14.015 36.0001 13.065Z" fill="#9BFF00" stroke="#00034A" stroke-miterlimit="10"/>
</g>
<defs>
<clipPath id="clip0_2301_14920">
<rect width="40" height="40" fill="white"/>
</clipPath>
</defs>
</svg>
