<svg width="40" height="40" viewBox="0 0 40 40" fill="none" xmlns="http://www.w3.org/2000/svg">
<path d="M35.1701 5.77C35.0001 5.54 31.2901 0.5 20.0001 0.5C8.7101 0.5 5.0001 5.54 4.8301 5.77C3.5601 7.33 3.1001 14.15 3.1001 20C3.1001 25.85 3.5601 32.67 4.8301 34.23C5.0001 34.46 8.7101 39.5 20.0001 39.5C31.2901 39.5 35.0001 34.5 35.1701 34.23C36.4401 32.67 36.9001 25.85 36.9001 20C36.9001 14.15 36.4401 7.33 35.1701 5.77Z" fill="#FFE236" stroke="#231F20" stroke-miterlimit="10"/>
<path d="M27.9202 3.94C29.1188 4.26675 30.2521 4.79788 31.2702 5.51" stroke="white" stroke-miterlimit="10" stroke-linecap="round"/>
<path d="M33.48 10.9C31.07 13.35 26.57 14.8 20 14.8C13.43 14.8 8.93001 13.35 6.51001 10.9" stroke="#231F20" stroke-miterlimit="10" stroke-linecap="round"/>
<path d="M33.48 20C31.07 22.45 26.57 23.9 20 23.9C13.43 23.9 8.93001 22.45 6.51001 20" stroke="#231F20" stroke-miterlimit="10" stroke-linecap="round"/>
<path d="M33.48 27.8C31.07 30.25 26.57 31.7 20 31.7C13.43 31.7 8.93001 30.25 6.51001 27.8" stroke="#231F20" stroke-miterlimit="10" stroke-linecap="round"/>
<path d="M13.1301 7.33001C13.1301 8.01957 13.8539 8.68089 15.1423 9.16849C16.4307 9.65608 18.1781 9.93001 20.0001 9.93001C21.8222 9.93001 23.5696 9.65608 24.858 9.16849C26.1463 8.68089 26.8701 8.01957 26.8701 7.33001C26.8701 6.64045 26.1463 5.97913 24.858 5.49153C23.5696 5.00394 21.8222 4.73001 20.0001 4.73001C18.1781 4.73001 16.4307 5.00394 15.1423 5.49153C13.8539 5.97913 13.1301 6.64045 13.1301 7.33001Z" fill="#FFE236" stroke="#231F20" stroke-miterlimit="10"/>
</svg>
