<svg width="40" height="40" viewBox="0 0 40 40" fill="none" xmlns="http://www.w3.org/2000/svg">
<g clip-path="url(#clip0_2301_13600)">
<path d="M39.4799 24.75C39.5172 24.3674 39.475 23.9812 39.356 23.6157C39.237 23.2502 39.0437 22.9132 38.7883 22.6258C38.5329 22.3385 38.2209 22.1071 37.8718 21.9461C37.5228 21.785 37.1442 21.6978 36.7599 21.69C35.8599 21.69 34.7599 21.69 33.5399 21.75C32.9999 21.75 32.4399 21.83 31.8799 21.9C31.3125 21.9733 30.7812 22.2187 30.3575 22.6031C29.9338 22.9875 29.638 23.4924 29.5099 24.05C29.0572 25.8221 28.1186 27.4326 26.7999 28.7C26.4006 29.0646 26.1223 29.5427 26.0026 30.07C25.8828 30.5973 25.9272 31.1487 26.1299 31.65C26.3699 32.21 26.6199 32.76 26.8899 33.28C27.4898 34.4836 28.1575 35.6521 28.8899 36.78C29.1101 37.1003 29.3938 37.372 29.7233 37.5782C30.0528 37.7845 30.4211 37.9209 30.8054 37.979C31.1898 38.0371 31.582 38.0157 31.9577 37.9161C32.3335 37.8165 32.6848 37.6409 32.9899 37.4C36.7399 34.52 38.8999 30.14 39.4799 24.75Z" fill="#FFE236" stroke="#231F20" stroke-miterlimit="10"/>
<path d="M10.4799 24.06C10.3545 23.5011 10.0595 22.9947 9.63525 22.6098C9.21104 22.225 8.6783 21.9806 8.1099 21.91C7.5499 21.84 6.9899 21.79 6.4499 21.76C5.9099 21.73 4.7199 21.68 3.2399 21.76C2.85788 21.7695 2.48185 21.8571 2.13495 22.0174C1.78806 22.1777 1.47766 22.4073 1.22285 22.6921C0.968037 22.9769 0.774219 23.3108 0.653327 23.6733C0.532435 24.0359 0.487028 24.4193 0.519901 24.8C1.1099 30.2 3.2799 34.57 7.0199 37.45C7.32517 37.688 7.67602 37.8609 8.05076 37.9579C8.4255 38.0549 8.81615 38.074 9.19857 38.014C9.58099 37.954 9.94703 37.8162 10.2741 37.6091C10.6011 37.402 10.8822 37.1301 11.0999 36.81C11.838 35.6787 12.5059 34.5032 13.0999 33.29C13.3699 32.76 13.6299 32.21 13.8699 31.65C14.0735 31.1496 14.1174 30.5986 13.9957 30.0723C13.8739 29.546 13.5925 29.0702 13.1899 28.71C11.8745 27.44 10.9365 25.8305 10.4799 24.06Z" fill="#FFE236" stroke="#231F20" stroke-miterlimit="10"/>
<path d="M13.3098 2.77999C12.9054 2.88944 12.5306 3.08826 12.2133 3.3618C11.8959 3.63534 11.6439 3.97662 11.476 4.36049C11.308 4.74436 11.2284 5.16103 11.2429 5.57978C11.2574 5.99852 11.3657 6.40867 11.5598 6.77999C11.9998 7.61999 12.5598 8.60999 13.3398 9.77999C13.6098 10.2 13.9098 10.62 14.2098 11.03C14.5426 11.5062 15.0135 11.869 15.5588 12.0692C16.1042 12.2695 16.6979 12.2977 17.2598 12.15C19.0475 11.6164 20.9521 11.6164 22.7398 12.15C23.3017 12.2977 23.8954 12.2695 24.4408 12.0692C24.9862 11.869 25.457 11.5062 25.7898 11.03C26.0898 10.62 26.3798 10.2 26.6598 9.77999C26.9398 9.35999 27.6598 8.18999 28.4098 6.77999C28.5962 6.40613 28.6977 5.99575 28.7073 5.57813C28.7169 5.1605 28.6342 4.74591 28.4652 4.3639C28.2961 3.9819 28.0449 3.64188 27.7294 3.3681C27.4139 3.09432 27.0418 2.89351 26.6398 2.77999C24.469 2.23685 22.2374 1.97471 19.9998 1.99999C17.7452 1.96329 15.4956 2.22557 13.3098 2.77999Z" fill="#FFE236" stroke="#231F20" stroke-miterlimit="10"/>
<path d="M14.3799 21.62C14.3799 23.1105 14.972 24.54 16.0259 25.5939C17.0799 26.6479 18.5094 27.24 19.9999 27.24C21.4904 27.24 22.9199 26.6479 23.9738 25.5939C25.0278 24.54 25.6199 23.1105 25.6199 21.62C25.6199 20.1295 25.0278 18.7 23.9738 17.6461C22.9199 16.5921 21.4904 16 19.9999 16C18.5094 16 17.0799 16.5921 16.0259 17.6461C14.972 18.7 14.3799 20.1295 14.3799 21.62Z" fill="#FFE236" stroke="#231F20" stroke-miterlimit="10"/>
<path d="M22.1299 4.57999C23.361 4.63001 24.5838 4.80422 25.7799 5.09999" stroke="white" stroke-miterlimit="10" stroke-linecap="round"/>
<path d="M20.73 18.5C21.2634 18.5774 21.7538 18.8366 22.1182 19.2338C22.4826 19.631 22.6987 20.1419 22.73 20.68" stroke="white" stroke-miterlimit="10" stroke-linecap="round"/>
<path d="M34.27 24.26C35.22 24.12 36.64 23.75 37 24.42" stroke="white" stroke-miterlimit="10" stroke-linecap="round"/>
<path d="M5.17993 23.87C6.93993 23.78 7.31993 23.78 7.68993 24.2" stroke="white" stroke-miterlimit="10" stroke-linecap="round"/>
</g>
<defs>
<clipPath id="clip0_2301_13600">
<rect width="40" height="40" fill="white"/>
</clipPath>
</defs>
</svg>
