<svg width="40" height="40" viewBox="0 0 40 40" fill="none" xmlns="http://www.w3.org/2000/svg">
<path d="M27.5 4.4C26.8547 4.41606 26.2218 4.58029 25.65 4.88H24.89C24.86 4.03372 24.6449 3.2043 24.26 2.45C23.8601 1.48 21.75 0.5 20 0.5C18.25 0.5 16.14 1.5 15.74 2.5C15.3541 3.25745 15.139 4.09037 15.11 4.94H14.36C13.7902 4.61857 13.1535 4.43373 12.5 4.4C10 4.4 1.80005 9.13 1.80005 21.3C1.80005 32.22 7.87005 39.5 20 39.5C32.1301 39.5 38.2001 32.22 38.2001 21.3C38.2001 9.3 30.06 4.4 27.5 4.4Z" fill="#FF52A1" stroke="#231F20" stroke-miterlimit="10"/>
<path d="M25.6501 4.88C25.2385 5.52699 25.0327 6.28364 25.0601 7.05C25.0403 6.32426 24.9836 5.59999 24.8901 4.88" stroke="#231F20" stroke-linejoin="round"/>
<path d="M14.3501 4.89001C14.761 5.53365 14.9667 6.28688 14.9401 7.05001C14.9601 6.3276 15.0169 5.60667 15.1101 4.89001" stroke="#231F20" stroke-linejoin="round"/>
<path d="M12.2 21.3C12.2 23.3687 13.0217 25.3526 14.4845 26.8154C15.9473 28.2782 17.9313 29.1 20 29.1C22.0686 29.1 24.0526 28.2782 25.5154 26.8154C26.9782 25.3526 27.8 23.3687 27.8 21.3C27.8 19.2313 26.9782 17.2474 25.5154 15.7846C24.0526 14.3218 22.0686 13.5 20 13.5C17.9313 13.5 15.9473 14.3218 14.4845 15.7846C13.0217 17.2474 12.2 19.2313 12.2 21.3Z" fill="white" stroke="#231F20" stroke-miterlimit="10"/>
<path d="M24.22 22C25.01 21 25.16 16 25.16 12.25C25.16 8.5 25 3.43 24.22 2.45C23.82 1.48 21.71 0.5 20 0.5C18.29 0.5 16.14 1.5 15.74 2.5C14.95 3.5 14.8 8.5 14.8 12.25C14.8 16 14.91 21 15.7 22C16.1 23 18.21 23.95 19.96 23.95C21.71 23.95 23.82 22.93 24.22 22Z" fill="#FFE236" stroke="#231F20" stroke-miterlimit="10"/>
<path d="M20.6501 2.60001C22.7801 3.08001 22.5001 3.53001 22.6501 4.88001" stroke="white" stroke-miterlimit="10" stroke-linecap="round"/>
<path d="M32.1602 10.23C33.4085 11.4879 34.3288 13.0332 34.8402 14.73" stroke="white" stroke-miterlimit="10" stroke-linecap="round"/>
</svg>
