<svg width="40" height="40" viewBox="0 0 40 40" fill="none" xmlns="http://www.w3.org/2000/svg">
<g clip-path="url(#clip0_2301_13554)">
<path d="M21.2901 6.82999C17.2901 10.83 13.0201 16.08 12.6201 17.47C12.4564 17.7413 12.3413 18.0391 12.2801 18.35C9.73011 18.07 7.09011 19.06 4.59011 21.57C0.000113487 26.15 -0.319886 36.3 1.64011 38.27C3.60011 40.24 13.7601 39.91 18.3401 35.27C20.8501 32.77 21.8401 30.13 21.5601 27.58C21.8692 27.5125 22.166 27.3978 22.4401 27.24C23.8301 26.84 29.1101 22.54 33.0801 18.57C40.9301 10.77 40.8001 6.99999 36.8701 2.99999C32.9401 -1.00001 28.5301 -0.410006 21.2901 6.82999Z" fill="#FFE236" stroke="#231F20" stroke-miterlimit="10"/>
<path d="M15.1001 20C16.0768 20.6213 16.9735 21.3601 17.7701 22.2C18.6233 22.9921 19.3726 23.8893 20.0001 24.87" stroke="#231F20" stroke-miterlimit="10" stroke-linecap="round"/>
<path d="M8.69019 28.44C8.69019 29.1773 8.98308 29.8844 9.50443 30.4058C10.0258 30.9271 10.7329 31.22 11.4702 31.22C12.2075 31.22 12.9146 30.9271 13.4359 30.4058C13.9573 29.8844 14.2502 29.1773 14.2502 28.44C14.2502 28.0749 14.1783 27.7134 14.0386 27.3761C13.8989 27.0389 13.6941 26.7324 13.4359 26.4742C13.1778 26.2161 12.8713 26.0113 12.534 25.8716C12.1968 25.7319 11.8353 25.66 11.4702 25.66C11.1051 25.66 10.7436 25.7319 10.4063 25.8716C10.069 26.0113 9.76258 26.2161 9.50443 26.4742C9.24628 26.7324 9.04151 27.0389 8.9018 27.3761C8.76209 27.7134 8.69019 28.0749 8.69019 28.44Z" fill="white" stroke="#231F20" stroke-miterlimit="10"/>
<path d="M9.50007 30.41L5.57007 34.34" stroke="#231F20" stroke-miterlimit="10" stroke-linecap="round"/>
<path d="M28.28 4.99999C31.13 2.99999 31.45 3.05999 32.88 3.82999" stroke="white" stroke-miterlimit="10" stroke-linecap="round"/>
</g>
<defs>
<clipPath id="clip0_2301_13554">
<rect width="40" height="40" fill="white"/>
</clipPath>
</defs>
</svg>
