<svg width="40" height="40" viewBox="0 0 40 40" fill="none" xmlns="http://www.w3.org/2000/svg">
<g clip-path="url(#clip0_2301_14853)">
<path d="M12.302 17.536C12.692 16.182 16.849 11.07 20.744 7.17605C26.924 0.993047 30.987 -0.209953 34.474 2.21205C35.313 2.61805 36.113 3.22605 36.894 4.02105C40.72 7.91505 40.846 11.586 33.203 19.181C29.337 23.047 24.196 27.234 22.843 27.624C22.5756 27.7775 22.2862 27.8888 21.985 27.954C22.258 30.438 21.294 33.008 18.85 35.443C15.836 38.496 10.34 39.633 6.50498 39.457C4.88098 39.382 2.82098 39.005 1.60998 37.788C-0.298021 35.871 0.0129788 25.988 4.48298 21.528C6.91698 19.084 9.48798 18.12 11.971 18.393C12.031 18.09 12.142 17.8 12.301 17.536H12.302Z" fill="#00034A" stroke="#00034A" stroke-miterlimit="10"/>
<path d="M20.744 7.17498C16.849 11.07 12.691 16.182 12.302 17.535C12.142 17.8 12.03 18.09 11.971 18.393C9.48798 18.12 6.91698 19.084 4.48298 21.528C0.0129788 25.988 -0.298021 35.871 1.60998 37.789C3.51898 39.708 13.412 39.386 17.871 34.869C20.315 32.434 21.279 29.863 21.007 27.38C21.307 27.314 21.597 27.203 21.864 27.05C23.217 26.66 28.358 22.473 32.224 18.607C39.868 11.012 39.741 7.34098 35.914 3.44598C32.088 -0.449021 27.794 0.124979 20.744 7.17498Z" fill="#9BFF00" stroke="#00034A" stroke-miterlimit="10"/>
<path d="M14.7161 20C15.6672 20.6049 16.5404 21.3242 17.3161 22.142C18.1474 22.9131 18.8772 23.7867 19.4881 24.742" stroke="#00034A" stroke-miterlimit="10" stroke-linecap="round"/>
<path d="M11.1821 30.924C11.9 30.924 12.5886 30.6388 13.0962 30.1311C13.6039 29.6235 13.8891 28.9349 13.8891 28.217C13.8891 27.4991 13.6039 26.8105 13.0962 26.3029C12.5886 25.7952 11.9 25.51 11.1821 25.51C10.4642 25.51 9.77562 25.7952 9.26796 26.3029C8.7603 26.8105 8.4751 27.4991 8.4751 28.217C8.4751 28.9349 8.7603 29.6235 9.26796 30.1311C9.77562 30.6388 10.4642 30.924 11.1821 30.924Z" fill="white" stroke="#00034A" stroke-miterlimit="10"/>
<path d="M9.26401 30.136L5.43701 33.962" stroke="#00034A" stroke-miterlimit="10" stroke-linecap="round"/>
</g>
<defs>
<clipPath id="clip0_2301_14853">
<rect width="40" height="40" fill="white"/>
</clipPath>
</defs>
</svg>
