<svg width="40" height="40" viewBox="0 0 40 40" fill="none" xmlns="http://www.w3.org/2000/svg">
<path d="M8.61466 33.1828C8.73346 33.8524 9.48065 35.176 10.2947 35.176C10.8014 35.176 11.2511 34.6497 11.365 33.2642C12.7514 33.1307 13.2767 32.7006 13.2767 32.194C13.2767 31.4497 11.9079 30.7241 11.2972 30.6053C11.1794 29.9327 10.4331 28.6121 9.61616 28.6121C9.10956 28.6121 8.65985 29.1286 8.54595 30.5238C7.13205 30.6574 6.63416 31.0874 6.63416 31.5941C6.63416 32.3383 8.00396 33.0639 8.61466 33.1828Z" fill="#00034A" stroke="#00034A" stroke-miterlimit="10"/>
<path d="M27.945 4.59814C27.1006 4.59814 26.4153 5.28244 26.4153 6.12694C26.4153 7.07144 27.5562 8.34894 28.5087 8.34894C29.3531 8.34894 30.0384 7.66454 30.0384 6.82014C30.0384 5.87554 28.8975 4.59814 27.945 4.59814Z" fill="#00034A" stroke="#00034A" stroke-miterlimit="10"/>
<path d="M33.2325 13.3477C33.3749 14.3031 34.2831 15.8476 35.4388 15.8476C36.0603 15.8476 36.5758 15.2074 36.7486 13.4872C38.4777 13.3143 39.1091 12.7989 39.1091 12.1773C39.1091 11.3103 37.4232 10.6171 36.6975 10.4522C36.5562 9.49477 35.6469 7.95227 34.4903 7.95227C33.8697 7.95227 33.3533 8.58257 33.1814 10.3127C31.4513 10.4846 30.821 11 30.821 11.6216C30.821 12.4886 32.5069 13.1828 33.2325 13.3467V13.3477Z" fill="#00034A" stroke="#00034A" stroke-miterlimit="10"/>
<path d="M38.1596 11.6216C38.1596 11.001 37.5292 10.4846 35.8001 10.3127C35.6273 8.58257 35.1118 7.95227 34.4903 7.95227C33.8697 7.95227 33.3533 8.58257 33.1814 10.3127C31.4513 10.4846 30.821 11 30.821 11.6216C30.821 12.2432 31.4513 12.7586 33.1814 12.9314C33.3533 14.6517 33.8687 15.2909 34.4903 15.2909C35.1119 15.2909 35.6273 14.6507 35.8001 12.9314C37.5292 12.7586 38.1596 12.2431 38.1596 11.6216Z" fill="#9BFF00" stroke="#00034A" stroke-miterlimit="10"/>
<path d="M12.5972 31.5942C12.5972 31.0875 12.0719 30.6388 10.6865 30.5239C10.552 29.1002 10.1229 28.6132 9.61616 28.6132C9.10956 28.6132 8.65985 29.1287 8.54595 30.5239C7.13205 30.6575 6.63416 31.0875 6.63416 31.5942C6.63416 32.1008 7.15955 32.5495 8.54595 32.6644C8.67945 34.0783 9.10956 34.5761 9.61616 34.5761C10.1229 34.5761 10.5716 34.0499 10.6865 32.6644C12.0709 32.5309 12.5972 32.1008 12.5972 31.5942Z" fill="#9BFF00" stroke="#00034A" stroke-miterlimit="10"/>
<path d="M18.6241 4.57749C20.0734 4.53729 21.228 4.66489 21.6659 5.08519C22.1421 5.31399 22.8442 6.26339 23.0847 6.73669C23.7259 7.99739 24.2021 10.4286 24.5782 12.5298C25.076 15.3017 25.5728 18.6558 24.7981 19.4393C24.101 20.8336 18.3001 22.0384 14.8694 22.6403C11.4387 23.2422 5.54245 24.1219 4.43385 23.0232C3.92825 22.7866 3.20255 21.7782 2.96105 21.2804C2.34045 20.0039 1.87905 17.6543 1.51275 15.607C1.01595 12.8352 0.51815 9.48109 1.29285 8.69749C1.57855 8.08579 2.84025 7.51239 4.44565 7.01559C4.30235 5.7352 4.35045 4.29279 5.13395 3.82439C5.58365 3.29819 8.36435 2.45769 10.6483 2.04719C12.9321 1.63479 15.7894 1.53079 16.3825 1.83609C17.3938 2.02169 18.3304 3.71739 18.623 4.57759L18.6241 4.57749Z" fill="#00034A" stroke="#00034A" stroke-miterlimit="10"/>
<path d="M21.6659 5.08521C21.1789 4.61681 19.8023 4.51181 18.1213 4.59821C17.8051 3.29821 17.27 1.99911 16.3814 1.83611C15.7893 1.53081 12.932 1.63581 10.6472 2.04631C8.36533 2.45861 5.58463 3.29821 5.13493 3.82351C4.35143 4.29281 4.30323 5.73521 4.44763 7.01561C2.84123 7.51241 1.58053 8.08581 1.29383 8.69751C0.519127 9.48111 1.01693 12.8352 1.51373 15.607C2.01053 18.3779 2.67923 21.7036 3.68273 22.1719C4.79123 23.2716 10.6875 22.3919 14.1182 21.789C17.5489 21.1871 23.3488 19.9833 24.047 18.588C24.8207 17.8045 24.3239 14.4504 23.827 11.6795C23.3302 8.90771 22.6605 5.56241 21.6669 5.08521H21.6659Z" fill="#9BFF00" stroke="#00034A" stroke-miterlimit="10"/>
<path d="M8.13464 6.16524C8.13464 6.16524 9.21464 5.91674 11.3934 5.53484C13.5722 5.15194 14.6808 5.00854 14.6808 5.00854" stroke="#00034A" stroke-miterlimit="10" stroke-linecap="round"/>
<path d="M17.8531 7.8855C17.8531 7.8855 18.2734 7.7903 19.1335 7.6371C19.9937 7.4839 20.4237 7.427 20.4237 7.427" stroke="#00034A" stroke-miterlimit="10" stroke-linecap="round"/>
<path d="M12.5972 17.5561C15.9517 17.5561 18.0483 13.9248 16.371 11.0197C15.5926 9.67144 14.154 8.84094 12.5972 8.84094C9.24275 8.84094 7.14625 12.4722 8.82345 15.3773C9.60185 16.7255 11.0404 17.5561 12.5972 17.5561Z" fill="white" stroke="#00034A" stroke-miterlimit="10"/>
<path d="M36.4766 18.1423C34.667 17.0347 30.5588 16.4799 27.9539 16.208C24.7431 15.8741 19.2102 15.5206 18.2165 17.0406C17.3083 17.7672 16.783 22.0482 16.4197 25.6409C16.0564 29.2346 15.6931 33.4862 16.4197 34.3846C16.6897 35.067 17.8523 35.9448 18.4915 36.2777C20.4159 37.2821 24.2571 37.8015 26.7393 38.0529C29.95 38.3779 35.4829 38.7402 36.4776 37.2212C37.433 36.4947 37.921 32.2136 38.2833 28.6209C38.6466 25.0272 39.0197 20.7757 38.2735 19.8871C38.0407 19.2852 37.0324 18.482 36.4766 18.1423Z" fill="#00034A" stroke="#00034A" stroke-miterlimit="10"/>
<path d="M37.3191 19.0093C36.6593 17.3077 31.1646 16.5438 27.9539 16.2089C24.7431 15.8751 19.2102 15.5216 18.2165 17.0406C17.3083 17.7672 16.783 22.0482 16.4197 25.6409C16.0564 29.2346 15.6931 33.4862 16.4197 34.3846C17.0884 36.0764 22.5741 36.8501 25.7849 37.1751C28.9957 37.4991 34.5286 37.8624 35.5222 36.3434C36.4786 35.6168 36.9656 31.3358 37.3289 27.7431C37.6922 24.1494 38.0653 19.8979 37.3191 19.0093Z" fill="white" stroke="#00034A" stroke-miterlimit="10"/>
<path d="M35.0449 21.0732C34.4902 20.0314 30.1709 19.458 27.6484 19.1615C25.125 18.8649 20.787 18.5782 20.0035 19.4953C19.2965 19.9165 18.9715 22.5156 18.7418 24.6659C18.513 26.8162 18.3215 29.4437 18.9234 29.9975C19.4782 31.0403 23.7975 31.6137 26.3199 31.9093C28.8434 32.2058 33.1813 32.4827 33.9649 31.5754C34.662 31.1542 34.9968 28.5551 35.2168 26.396C35.4367 24.2358 35.6468 21.627 35.0449 21.0732Z" fill="#9BFF00" stroke="#00034A" stroke-miterlimit="10"/>
<path d="M31.146 24.934C30.7506 24.0616 30.2465 23.2428 29.6457 22.4969C29.244 22.0831 28.6029 22.0185 28.1267 22.3438C27.4016 22.9485 26.7589 23.6457 26.215 24.4175L25.995 24.7238C25.8066 24.3847 25.5859 24.0644 25.3362 23.7675C25.0324 23.4478 24.5403 23.3989 24.1795 23.6526C23.6284 24.1049 23.1369 24.6252 22.7165 25.201C22.2205 25.8273 21.845 26.5401 21.609 27.3033C21.5543 27.6855 21.7668 28.056 22.1244 28.2017C22.8609 28.6131 30.114 29.3868 31.1843 29.0422C31.7042 28.9706 32.1028 28.5445 32.1397 28.021C32.1766 27.4975 32.2447 27.2846 31.146 24.934Z" fill="white" stroke="#00034A" stroke-miterlimit="10"/>
<path d="M27.945 7.65574C29.1219 7.65574 29.8575 6.38174 29.269 5.36254C28.9959 4.88954 28.4912 4.59814 27.945 4.59814C26.7682 4.59814 26.0326 5.87214 26.6211 6.89134C26.8942 7.36434 27.3989 7.65574 27.945 7.65574Z" fill="#9BFF00" stroke="#00034A" stroke-miterlimit="10"/>
</svg>
