<svg width="40" height="40" viewBox="0 0 40 40" fill="none" xmlns="http://www.w3.org/2000/svg">
<g clip-path="url(#clip0_2301_13512)">
<path d="M27.17 23.8C28.33 22.01 27.12 18.34 25.74 15.57C24.36 12.8 22.15 9.64001 20 9.49001C18.73 9.41001 13.92 11.37 9.99996 13.33C6.07996 15.29 1.65996 17.94 0.999964 19C-0.200036 20.8 0.999964 24.48 2.38996 27.24C3.77996 30 5.99996 33.18 8.11996 33.32C9.38996 33.41 14.19 31.45 18.12 29.49C22.05 27.53 26.48 24.87 27.17 23.8Z" fill="#FF52A1" stroke="#231F20" stroke-miterlimit="10"/>
<path d="M17.17 14C17.553 14.6628 18.163 15.1647 18.8872 15.4128C19.6114 15.661 20.401 15.6387 21.11 15.35C22.0608 16.5849 22.7668 17.9901 23.19 19.49C22.5218 19.8826 22.0206 20.5063 21.7811 21.2434C21.5415 21.9804 21.5803 22.7796 21.89 23.49C18.4089 25.5702 14.7673 27.3692 11 28.87C10.6154 28.193 9.99513 27.6813 9.25742 27.4323C8.51971 27.1833 7.71617 27.2145 7 27.52C6.04311 26.3 5.3609 24.8879 5 23.38C5.66642 22.9858 6.16553 22.3614 6.40318 21.6245C6.64083 20.8876 6.60057 20.0892 6.29 19.38C9.76705 17.2988 13.4054 15.4997 17.17 14Z" fill="white" stroke="#231F20" stroke-linecap="round" stroke-linejoin="round"/>
<path d="M17.3499 11.86C19.1099 11.08 19.8999 11.13 20.3499 11.41" stroke="white" stroke-miterlimit="10" stroke-linecap="round"/>
<path d="M10.78 21.41C10.78 22.2826 11.1267 23.1194 11.7436 23.7364C12.3606 24.3534 13.1975 24.7 14.07 24.7C14.9426 24.7 15.7794 24.3534 16.3964 23.7364C17.0134 23.1194 17.36 22.2826 17.36 21.41C17.36 20.5374 17.0134 19.7006 16.3964 19.0836C15.7794 18.4666 14.9426 18.12 14.07 18.12C13.1975 18.12 12.3606 18.4666 11.7436 19.0836C11.1267 19.7006 10.78 20.5374 10.78 21.41Z" fill="#FF52A1" stroke="#231F20" stroke-miterlimit="10"/>
<path d="M13.51 19.8C13.7775 19.7231 14.0595 19.7111 14.3325 19.765C14.6056 19.8189 14.8618 19.9372 15.08 20.11" stroke="white" stroke-miterlimit="10" stroke-linecap="round"/>
<path d="M38.6899 22.24C38.5999 22.13 36.8699 19.77 31.5899 19.77C26.3099 19.77 24.5899 22.13 24.4899 22.24C23.8899 22.97 23.6799 26.16 23.6799 28.9C23.6799 31.64 23.8899 34.83 24.4899 35.56C24.5799 35.67 26.3099 38.02 31.5899 38.02C36.8699 38.02 38.5899 35.67 38.6899 35.56C39.2899 34.83 39.4999 31.64 39.4999 28.9C39.4999 26.16 39.2899 23 38.6899 22.24Z" fill="#FFE236" stroke="#231F20" stroke-miterlimit="10"/>
<path d="M35.3 21.38C35.8618 21.5353 36.3927 21.7856 36.87 22.12" stroke="white" stroke-miterlimit="10" stroke-linecap="round"/>
<path d="M37.9 24.64C36.77 25.78 34.67 26.46 31.59 26.46C28.51 26.46 26.41 25.78 25.28 24.64" stroke="#231F20" stroke-miterlimit="10" stroke-linecap="round"/>
<path d="M37.9 28.9C36.77 30.04 34.67 30.72 31.59 30.72C28.51 30.72 26.41 30 25.28 28.9" stroke="#231F20" stroke-miterlimit="10" stroke-linecap="round"/>
<path d="M37.9 32.55C36.77 33.69 34.67 34.37 31.59 34.37C28.51 34.37 26.41 33.69 25.28 32.55" stroke="#231F20" stroke-miterlimit="10" stroke-linecap="round"/>
<path d="M28.3699 22.97C28.3699 23.2936 28.7091 23.6039 29.313 23.8327C29.9169 24.0615 30.7359 24.19 31.5899 24.19C32.4439 24.19 33.2629 24.0615 33.8668 23.8327C34.4706 23.6039 34.8099 23.2936 34.8099 22.97C34.8099 22.6464 34.4706 22.3361 33.8668 22.1073C33.2629 21.8785 32.4439 21.75 31.5899 21.75C30.7359 21.75 29.9169 21.8785 29.313 22.1073C28.7091 22.3361 28.3699 22.6464 28.3699 22.97Z" fill="#FFE236" stroke="#231F20" stroke-miterlimit="10"/>
<path d="M36.0899 12.65C36.0899 11.99 35.4099 11.43 33.5499 11.24C33.3599 9.38001 32.8099 8.70001 32.1399 8.70001C31.4699 8.70001 30.9099 9.38001 30.7199 11.24C28.8599 11.43 28.1799 11.99 28.1799 12.65C28.1799 13.31 28.8599 13.88 30.7199 14.07C30.9099 15.93 31.4699 16.61 32.1399 16.61C32.8099 16.61 33.3599 15.93 33.5499 14.07C35.4099 13.88 36.0899 13.32 36.0899 12.65Z" fill="#48EEFF" stroke="#231F20" stroke-miterlimit="10"/>
<path d="M29 5.52999C29 4.99999 28.46 4.52999 27 4.39999C26.85 2.90999 26.4 2.39999 25.87 2.39999C25.34 2.39999 24.87 2.93999 24.74 4.39999C23.25 4.54999 22.74 4.99999 22.74 5.52999C22.74 6.05999 23.29 6.52999 24.74 6.65999C24.89 8.14999 25.33 8.65999 25.87 8.65999C26.41 8.65999 26.87 8.10999 27 6.65999C28.43 6.51999 29 6.06999 29 5.52999Z" fill="#48EEFF" stroke="#231F20" stroke-miterlimit="10"/>
<path d="M34.1099 3.16C34.1099 3.47561 34.2352 3.77829 34.4584 4.00146C34.6816 4.22463 34.9843 4.35 35.2999 4.35C35.6155 4.35 35.9182 4.22463 36.1413 4.00146C36.3645 3.77829 36.4899 3.47561 36.4899 3.16C36.4899 2.84439 36.3645 2.54171 36.1413 2.31854C35.9182 2.09538 35.6155 1.97 35.2999 1.97C34.9843 1.97 34.6816 2.09538 34.4584 2.31854C34.2352 2.54171 34.1099 2.84439 34.1099 3.16Z" fill="#48EEFF" stroke="#231F20" stroke-miterlimit="10" stroke-linecap="round"/>
</g>
<defs>
<clipPath id="clip0_2301_13512">
<rect width="40" height="40" fill="white"/>
</clipPath>
</defs>
</svg>
