<svg width="40" height="40" viewBox="0 0 40 40" fill="none" xmlns="http://www.w3.org/2000/svg">
<g clip-path="url(#clip0_2301_13499)">
<path d="M39.3501 15.53C39.2301 14.71 37.1101 11.76 35.0801 9.59999C33.0501 7.43999 30.2701 5.15999 29.4801 4.99999C29.4801 4.99999 28.7901 4.79999 27.7801 4.56999C27.598 4.53062 27.41 4.52796 27.227 4.56217C27.0439 4.59637 26.8695 4.66675 26.714 4.76919C26.5585 4.87162 26.425 5.00406 26.3213 5.15873C26.2176 5.31341 26.1458 5.48722 26.1101 5.66999C25.7649 7.01438 24.9821 8.20565 23.8851 9.05593C22.788 9.90621 21.4392 10.3671 20.0512 10.366C18.6632 10.3648 17.3151 9.90169 16.2194 9.0496C15.1238 8.19751 14.3429 7.00495 14.0001 5.65999C13.9207 5.29476 13.7014 4.97514 13.3893 4.76954C13.0772 4.56395 12.697 4.48873 12.3301 4.55999C11.3301 4.79999 10.5901 4.97999 10.5601 4.99999C9.77006 5.15999 6.98006 7.43999 4.96006 9.59999C2.94006 11.76 0.770058 14.71 0.650058 15.53C0.0600577 16.85 1.32006 19.04 2.65006 20.33C3.69451 21.4626 5.11727 22.174 6.65006 22.33C6.85006 27.33 7.13006 31.42 7.95006 32.67C9.39006 35 15.6901 35.47 20.0001 35.47C24.3101 35.47 30.6701 35 32.1601 32.69C32.9801 31.44 33.2601 27.37 33.4601 22.35C34.9651 22.1682 36.3573 21.4597 37.3901 20.35C38.6801 19 39.9401 16.85 39.3501 15.53Z" fill="#48EEFF" stroke="#231F20" stroke-miterlimit="10"/>
<path d="M7.52002 18.79C7.53156 17.3836 7.69246 15.9824 8.00002 14.61" stroke="#231F20" stroke-miterlimit="10" stroke-linecap="round"/>
<path d="M32.55 18.79C32.5155 17.3811 32.3311 15.9799 32 14.61" stroke="#231F20" stroke-miterlimit="10" stroke-linecap="round"/>
<path d="M29.6602 8.20999C30.7279 8.94148 31.6989 9.80498 32.5502 10.78" stroke="white" stroke-miterlimit="10" stroke-linecap="round"/>
</g>
<defs>
<clipPath id="clip0_2301_13499">
<rect width="40" height="40" fill="white"/>
</clipPath>
</defs>
</svg>
