<svg width="40" height="40" viewBox="0 0 40 40" fill="none" xmlns="http://www.w3.org/2000/svg">
<path d="M32.923 19.708C32.2184 19.0227 31.5332 18.3177 30.868 17.594C29.4165 16.0794 28.0968 14.4438 26.923 12.705C26.693 12.2915 26.6157 11.8103 26.7047 11.3456C26.7937 10.8808 27.0434 10.4622 27.41 10.163C27.956 9.56904 28.783 8.94604 29.757 9.64704C30.9314 10.5798 32.0462 11.5851 33.095 12.657C33.7981 13.3294 34.4737 14.03 35.12 14.757C36.375 16.1036 37.5554 17.5177 38.656 18.993C38.8704 19.19 39.0415 19.4294 39.1586 19.6959C39.2756 19.9625 39.3361 20.2504 39.3361 20.5415C39.3361 20.8327 39.2756 21.1206 39.1586 21.3872C39.0415 21.6537 38.8704 21.8931 38.656 22.09C37.5505 23.5619 36.3703 24.9761 35.12 26.327C33.7425 27.8764 32.2336 29.3038 30.61 30.593C29.27 31.584 26.972 29.434 26.705 28.041C26.6158 27.5762 26.6929 27.0947 26.923 26.681C28.1001 24.9507 29.4197 23.3217 30.868 21.811C31.5356 21.0933 32.2209 20.3921 32.923 19.708Z" fill="#00034A" stroke="#00034A" stroke-miterlimit="10"/>
<path d="M23.086 9.03294C22.8082 8.91197 22.509 8.84782 22.2061 8.84427C21.9031 8.84073 21.6026 8.89786 21.322 9.0123C21.0415 9.12675 20.7868 9.29618 20.5727 9.51063C20.3587 9.72508 20.1898 9.98019 20.076 10.2609C18.7847 13.1271 17.6915 16.0783 16.804 19.0939C15.8217 22.0822 15.0472 25.1348 14.486 28.2299C14.3848 28.6753 14.4206 29.1408 14.5885 29.5654C14.7564 29.9901 15.0486 30.3542 15.427 30.6099C15.947 30.9619 16.727 31.3909 17.349 31.5139C17.6253 31.6351 17.9231 31.6996 18.2249 31.7038C18.5266 31.7079 18.8261 31.6517 19.1057 31.5382C19.3853 31.4248 19.6393 31.2565 19.8529 31.0433C20.0664 30.8302 20.2351 30.5764 20.349 30.2969C21.6494 27.4331 22.7461 24.4811 23.631 21.4629C24.6136 18.4717 25.3881 15.4161 25.949 12.3179C26.0496 11.8726 26.0137 11.4073 25.8458 10.9827C25.678 10.5581 25.386 10.194 25.008 9.93794C24.488 9.58594 23.708 9.15694 23.086 9.03294Z" fill="#00034A" stroke="#00034A" stroke-miterlimit="10"/>
<path d="M9.17803 9.66598C7.55449 10.9553 6.04553 12.3826 4.66802 13.932C3.43042 15.2769 2.26671 16.688 1.18202 18.159C0.967797 18.356 0.796789 18.5954 0.679814 18.8619C0.562839 19.1285 0.502441 19.4164 0.502441 19.7075C0.502441 19.9986 0.562839 20.2865 0.679814 20.553C0.796789 20.8196 0.967797 21.0589 1.18202 21.256C2.28719 22.7278 3.46707 24.142 4.71702 25.493C5.92516 26.8453 7.2339 28.1042 8.63202 29.259C9.14902 29.719 9.67902 30.163 10.222 30.593C11.196 31.284 12.024 30.661 12.57 30.067C12.9366 29.7678 13.1863 29.3492 13.2753 28.8845C13.3644 28.4197 13.2871 27.9385 13.057 27.525C11.8794 25.7981 10.5598 24.1725 9.11203 22.665C8.44433 21.947 7.75912 21.2454 7.05702 20.561C7.76154 19.8759 8.44681 19.1713 9.11203 18.448C10.5456 16.9374 11.849 15.3082 13.008 13.578C13.2381 13.1645 13.3154 12.6832 13.2263 12.2185C13.1373 11.7538 12.8876 11.3352 12.521 11.036C11.737 10.182 10.345 8.79098 9.17803 9.66598Z" fill="#00034A" stroke="#00034A" stroke-miterlimit="10"/>
<path d="M24.8579 11.7599C24.9252 11.4643 24.9324 11.1581 24.8792 10.8595C24.8261 10.561 24.7135 10.2762 24.5483 10.0219C24.3831 9.76763 24.1685 9.54909 23.9173 9.37922C23.6661 9.20935 23.3834 9.0916 23.0859 9.03294C22.8081 8.91197 22.509 8.84782 22.206 8.84427C21.9031 8.84073 21.6025 8.89786 21.322 9.0123C21.0415 9.12675 20.7867 9.29618 20.5727 9.51063C20.3587 9.72508 20.1898 9.98019 20.0759 10.2609C18.7847 13.1271 17.6915 16.0783 16.8039 19.0939C15.8216 22.0822 15.0471 25.1348 14.4859 28.2299C14.4187 28.5256 14.4114 28.8318 14.4646 29.1303C14.5178 29.4289 14.6303 29.7137 14.7955 29.968C14.9607 30.2223 15.1753 30.4408 15.4265 30.6107C15.6777 30.7805 15.9604 30.8983 16.2579 30.9569C16.5343 31.0785 16.8322 31.1433 17.1341 31.1476C17.436 31.1519 17.7356 31.0956 18.0154 30.982C18.2951 30.8685 18.5492 30.6999 18.7626 30.4864C18.976 30.2729 19.1445 30.0187 19.2579 29.7389C20.5582 26.8754 21.6549 23.9238 22.5399 20.9059C23.5227 17.9144 24.2972 14.8584 24.8579 11.7599Z" fill="#9BFF00" stroke="#00034A" stroke-miterlimit="10"/>
<path d="M8.11602 21.811C7.44832 21.0933 6.76311 20.3921 6.06102 19.708C6.76558 19.0226 7.45085 18.3176 8.11602 17.594C9.54971 16.0834 10.853 14.4543 12.012 12.724C12.2423 12.3105 12.3197 11.8292 12.2306 11.3644C12.1416 10.8996 11.8918 10.481 11.525 10.182C10.98 9.58796 10.113 8.96496 9.17803 9.66596C7.55449 10.9552 6.04553 12.3826 4.66802 13.932C3.43042 15.2769 2.26671 16.6879 1.18202 18.159C0.967797 18.356 0.796789 18.5954 0.679814 18.8619C0.562839 19.1285 0.502441 19.4164 0.502441 19.7075C0.502441 19.9985 0.562839 20.2865 0.679814 20.553C0.796789 20.8195 0.967797 21.0589 1.18202 21.256C2.28719 22.7278 3.46707 24.142 4.71702 25.493C6.09538 27.0354 7.60432 28.456 9.22703 29.739C10.2 30.431 11.028 29.808 11.574 29.213C11.9406 28.9138 12.1903 28.4952 12.2793 28.0304C12.3684 27.5657 12.2911 27.0845 12.061 26.671C10.8834 24.9441 9.56386 23.3185 8.11602 21.811Z" fill="#9BFF00" stroke="#00034A" stroke-miterlimit="10"/>
<path d="M30.868 17.594C31.5332 18.3177 32.2184 19.0227 32.923 19.708C32.2208 20.3924 31.5356 21.0939 30.868 21.812C29.4197 23.3227 28.1001 24.9517 26.923 26.682C26.6932 27.0954 26.6161 27.5765 26.7051 28.041C26.7942 28.5055 27.0437 28.9239 27.41 29.223C27.956 29.817 28.822 30.441 29.757 29.749C31.3805 28.4597 32.8895 27.0324 34.267 25.483C35.517 24.1324 36.6968 22.7185 37.802 21.247C38.0164 21.05 38.1875 20.8105 38.3046 20.5439C38.4217 20.2773 38.4821 19.9892 38.4821 19.698C38.4821 19.4068 38.4217 19.1188 38.3046 18.8522C38.1875 18.5855 38.0164 18.3461 37.802 18.149C36.7018 16.6737 35.5217 15.2595 34.267 13.913C32.8895 12.3636 31.3805 10.9363 29.757 9.64704C28.783 8.94604 27.955 9.56904 27.41 10.163C27.0434 10.4622 26.7937 10.8808 26.7047 11.3456C26.6157 11.8103 26.693 12.2915 26.923 12.705C28.0967 14.4441 29.4165 16.0791 30.868 17.594Z" fill="#9BFF00" stroke="#00034A" stroke-miterlimit="10"/>
</svg>
