<svg width="40" height="40" viewBox="0 0 40 40" fill="none" xmlns="http://www.w3.org/2000/svg">
<g clip-path="url(#clip0_2301_13478)">
<path d="M37.8 3.88C36.25 0.88 26 0.5 20 0.5C14 0.5 3.75 0.88 2.2 3.88C0.65 5.38 0.5 13.38 0.5 20C0.5 26.62 0.65 34.62 2.2 36.12C3.75 39.12 14 39.5 20 39.5C26 39.5 36.25 39.12 37.8 36.12C39.35 34.62 39.5 26.62 39.5 20C39.5 13.38 39.35 5.38 37.8 3.88Z" fill="#FFE236" stroke="#231F20" stroke-miterlimit="10"/>
<path d="M32.32 8.84C31.25 6.77 24.14 6.5 20 6.5C15.86 6.5 8.75 6.77 7.68 8.84C6.61 9.88 6.5 15.41 6.5 20C6.5 24.59 6.61 30.12 7.68 31.16C8.75 33.23 15.86 33.5 20 33.5C24.14 33.5 31.25 33.23 32.32 31.16C33.39 30.16 33.5 24.59 33.5 20C33.5 15.41 33.39 9.88 32.32 8.84Z" fill="white" stroke="#231F20" stroke-miterlimit="10"/>
<path d="M16.74 11.52C16.5 11.06 14.92 11 14 11C13.08 11 11.5 11.06 11.26 11.52C11.0058 12.3204 10.9173 13.1643 11 14C10.9173 14.8357 11.0058 15.6796 11.26 16.48C11.5 16.94 13.08 17 14 17C14.92 17 16.5 16.94 16.74 16.48C16.9943 15.6796 17.0828 14.8357 17 14C17.0828 13.1643 16.9943 12.3204 16.74 11.52Z" fill="white" stroke="#231F20" stroke-miterlimit="10"/>
<path d="M16.74 23.52C16.5 23.06 14.92 23 14 23C13.08 23 11.5 23.06 11.26 23.52C11.0058 24.3204 10.9173 25.1643 11 26C10.9173 26.8357 11.0058 27.6796 11.26 28.48C11.5 28.94 13.08 29 14 29C14.92 29 16.5 28.94 16.74 28.48C16.9943 27.6796 17.0828 26.8357 17 26C17.0828 25.1643 16.9943 24.3204 16.74 23.52Z" fill="white" stroke="#231F20" stroke-miterlimit="10"/>
<path d="M28.74 11.52C28.5 11.06 26.92 11 26 11C25.08 11 23.5 11.06 23.26 11.52C23.0058 12.3204 22.9173 13.1643 23 14C22.9173 14.8357 23.0058 15.6796 23.26 16.48C23.5 16.94 25.08 17 26 17C26.92 17 28.5 16.94 28.74 16.48C28.9943 15.6796 29.0828 14.8357 29 14C29.0828 13.1643 28.9943 12.3204 28.74 11.52Z" fill="white" stroke="#231F20" stroke-miterlimit="10"/>
<path d="M30.9399 4.14999C34.9399 5.06999 34.9399 5.06999 35.8499 8.64999" stroke="white" stroke-miterlimit="10" stroke-linecap="round"/>
<path d="M20 11C19.86 14 19.86 17 20 20H23" stroke="#231F20" stroke-linecap="round" stroke-linejoin="round"/>
<path d="M11 20C12.9964 19.83 15.0036 19.83 17 20H11Z" fill="white"/>
<path d="M11 20C12.9964 19.83 15.0036 19.83 17 20" stroke="#231F20" stroke-linecap="round" stroke-linejoin="round"/>
<path d="M26 23H23V26" stroke="#231F20" stroke-linecap="round" stroke-linejoin="round"/>
<path d="M26 20C26.9982 19.915 28.0018 19.915 29 20C29.1 21 29.1 25 29 26H26" stroke="#231F20" stroke-linecap="round" stroke-linejoin="round"/>
<path d="M20 23C19.86 24.9976 19.86 27.0024 20 29C22.9976 29.17 26.0024 29.17 29 29" stroke="#231F20" stroke-linecap="round" stroke-linejoin="round"/>
</g>
<defs>
<clipPath id="clip0_2301_13478">
<rect width="40" height="40" fill="white"/>
</clipPath>
</defs>
</svg>
