<svg width="40" height="40" viewBox="0 0 40 40" fill="none" xmlns="http://www.w3.org/2000/svg">
<path d="M32.7262 1.59736C32.3474 1.19616 31.7446 1.10316 31.2625 1.37136L28.7349 2.70146C28.376 2.89416 27.9445 2.89416 27.5856 2.70146L24.448 1.03546C24.0886 0.84456 23.658 0.84456 23.2986 1.03546L20.2366 2.70146C19.8773 2.89236 19.4466 2.89236 19.0873 2.70146L15.9851 1.03546C15.6264 0.84316 15.1953 0.84316 14.8367 1.03546L11.7354 2.70146C11.3765 2.89396 10.945 2.89396 10.5861 2.70146L8.06151 1.37046C7.39001 1.00346 6.55081 1.34636 6.32861 2.07866C5.37081 5.17996 5.08301 12.1301 5.08301 18.7629C5.08301 25.3957 5.41801 33.6081 6.34631 37.0443C6.49271 37.5188 6.96321 38.0384 7.29031 38.394C7.66841 38.8053 8.27951 38.9028 8.76681 38.6298L11.2649 37.2909C11.6238 37.0982 12.0553 37.0982 12.4142 37.2909L15.5538 38.9658C15.9128 39.1565 16.3431 39.1565 16.7022 38.9658L19.8034 37.2997C20.1624 37.1072 20.5938 37.1072 20.9528 37.2997L24.053 38.9658C24.4124 39.1566 24.843 39.1566 25.2024 38.9658L28.3036 37.2997C28.6623 37.1076 29.0933 37.1076 29.452 37.2997L31.9118 38.6308C32.5941 39.005 33.4469 38.6442 33.6535 37.894C34.6113 34.4568 34.9168 26.2925 34.9168 19.6116C34.9168 12.9307 34.5828 6.08666 33.6731 2.93726C33.5209 2.47166 33.0533 1.94506 32.7262 1.59736Z" fill="#00034A" stroke="#00034A" stroke-miterlimit="10"/>
<path d="M31.233 37.7437C31.9155 38.1188 32.7692 37.7579 32.9757 37.007C33.9325 33.5697 34.239 25.4055 34.239 18.7246C34.239 12.0437 33.904 5.19956 32.9943 2.05016C32.7587 1.32996 31.9251 1.00266 31.2625 1.37046L28.7359 2.70146C28.377 2.89416 27.9455 2.89416 27.5866 2.70146L24.448 1.03546C24.0886 0.84456 23.658 0.84456 23.2986 1.03546L20.2366 2.70146C19.8773 2.89236 19.4466 2.89236 19.0873 2.70146L15.9851 1.03546C15.6264 0.84316 15.1953 0.84316 14.8367 1.03546L11.7354 2.70146C11.3765 2.89396 10.945 2.89396 10.5861 2.70146L8.06151 1.37046C7.39001 1.00346 6.55081 1.34636 6.32861 2.07866C5.37081 5.17996 5.08301 12.1301 5.08301 18.7629C5.08301 25.3957 5.41801 33.6081 6.34631 37.0443C6.57081 37.7802 7.41801 38.1202 8.08901 37.7437L10.5871 36.4028C10.946 36.2104 11.3775 36.2104 11.7364 36.4028L14.875 38.0787C15.2343 38.2696 15.665 38.2696 16.0243 38.0787L19.1246 36.4126C19.4835 36.22 19.9151 36.22 20.274 36.4126L23.3752 38.0787C23.7343 38.2692 24.1645 38.2692 24.5236 38.0787L27.6248 36.4126C27.9837 36.22 28.4153 36.22 28.7742 36.4126L31.233 37.7437Z" fill="#9BFF00" stroke="#00034A" stroke-miterlimit="10"/>
<path d="M26.1701 20.3424C26.2951 18.4283 25.0411 16.6958 23.1838 16.2165C24.5115 16.222 25.5877 15.1414 25.5768 13.8137C25.5768 12.2056 23.6612 11.4207 21.9008 11.0759C21.8655 10.5341 21.7561 9.99961 21.5757 9.48751C21.3743 8.78901 20.3595 8.44421 19.5943 8.44421C18.8281 8.44421 17.8045 8.78801 17.6031 9.48751C17.4359 10.0116 17.3394 10.5557 17.3162 11.1054C14.6778 11.6628 12.8553 14.0817 13.047 16.7716C12.9206 18.6796 14.1781 20.4045 16.0333 20.8679V20.9357C14.7187 20.9303 13.6501 21.9945 13.6501 23.3091C13.6501 25.1559 15.6502 25.8553 17.3349 26.1235C17.3628 26.6343 17.4562 27.1394 17.6129 27.6265C17.8133 28.3239 18.8281 28.6687 19.6041 28.6687C20.3792 28.6687 21.3841 28.3249 21.5855 27.6255C21.7513 27.1175 21.8477 26.5895 21.8723 26.0557C24.1602 25.5488 26.1701 24.0753 26.1701 20.3424Z" fill="white" stroke="#00034A" stroke-linejoin="round"/>
<path d="M23.1838 16.2165C22.0126 15.9724 20.8037 15.9724 19.6326 16.2165" stroke="#00034A" stroke-linecap="round" stroke-linejoin="round"/>
<path d="M16.0715 20.8679C17.2395 21.143 18.4547 21.143 19.6227 20.8679" stroke="#00034A" stroke-linecap="round" stroke-linejoin="round"/>
</svg>
