<svg width="40" height="40" viewBox="0 0 40 40" fill="none" xmlns="http://www.w3.org/2000/svg">
<path d="M32.09 39C32.2567 39.0913 32.442 39.1438 32.6318 39.1533C32.8217 39.1629 33.0113 39.1294 33.1863 39.0554C33.3614 38.9813 33.5175 38.8686 33.6428 38.7256C33.7681 38.5827 33.8595 38.4133 33.91 38.23C34.91 34.64 35.23 26.11 35.23 19.13C35.23 12.15 34.88 5 33.93 1.71C33.8723 1.53337 33.7763 1.37168 33.6488 1.23653C33.5212 1.10138 33.3654 0.996104 33.1924 0.928249C33.0194 0.860394 32.8336 0.831638 32.6482 0.844042C32.4628 0.856447 32.2824 0.909704 32.12 0.999998L29.48 2.39C29.2955 2.48891 29.0894 2.54067 28.88 2.54067C28.6707 2.54067 28.4645 2.48891 28.28 2.39L25 0.649998C24.8152 0.551937 24.6092 0.500662 24.4 0.500662C24.1908 0.500662 23.9848 0.551937 23.8 0.649998L20.6 2.39C20.4152 2.48806 20.2092 2.53933 20 2.53933C19.7908 2.53933 19.5848 2.48806 19.4 2.39L16.16 0.649998C15.9755 0.551087 15.7694 0.499329 15.56 0.499329C15.3507 0.499329 15.1445 0.551087 14.96 0.649998L11.72 2.39C11.5355 2.48891 11.3294 2.54067 11.12 2.54067C10.9107 2.54067 10.7045 2.48891 10.52 2.39L7.88002 0.999998C7.71566 0.910179 7.53334 0.858132 7.34634 0.847646C7.15933 0.837159 6.97234 0.868496 6.79896 0.939377C6.62559 1.01026 6.47021 1.1189 6.34411 1.2574C6.21801 1.39589 6.12438 1.56076 6.07002 1.74C5.07002 4.98 4.77002 12.24 4.77002 19.17C4.77002 26.1 5.12002 34.68 6.09002 38.27C6.14516 38.4498 6.23984 38.6149 6.36712 38.7533C6.4944 38.8918 6.65104 38.9999 6.82556 39.0699C7.00009 39.1399 7.18807 39.17 7.37572 39.1579C7.56337 39.1458 7.74593 39.0918 7.91002 39L10.52 37.6C10.7045 37.5011 10.9107 37.4493 11.12 37.4493C11.3294 37.4493 11.5355 37.5011 11.72 37.6L15 39.35C15.1848 39.4481 15.3908 39.4993 15.6 39.4993C15.8092 39.4993 16.0152 39.4481 16.2 39.35L19.44 37.61C19.6245 37.5111 19.8307 37.4593 20.04 37.4593C20.2494 37.4593 20.4555 37.5111 20.64 37.61L23.88 39.35C24.0648 39.4481 24.2708 39.4993 24.48 39.4993C24.6892 39.4993 24.8952 39.4481 25.08 39.35L28.32 37.61C28.5045 37.5111 28.7107 37.4593 28.92 37.4593C29.1294 37.4593 29.3355 37.5111 29.52 37.61L32.09 39Z" fill="#FFE236" stroke="#231F20" stroke-miterlimit="10"/>
<path d="M31.4199 5.41C31.6352 6.9312 31.7588 8.46397 31.7899 10" stroke="white" stroke-miterlimit="10" stroke-linecap="round"/>
<path d="M26.8 20.82C26.8634 19.8506 26.5864 18.8896 26.0167 18.1027C25.4471 17.3158 24.6207 16.7525 23.68 16.51C24.0095 16.5113 24.3361 16.4472 24.6406 16.3214C24.9452 16.1956 25.2218 16.0107 25.4543 15.7772C25.6868 15.5437 25.8707 15.2664 25.9953 14.9613C26.1199 14.6563 26.1827 14.3295 26.18 14C26.18 12.32 24.18 11.5 22.34 11.14C22.3031 10.5737 22.1887 10.0152 22 9.47998C21.79 8.74998 20.73 8.38998 19.93 8.38998C19.13 8.38998 18.06 8.74998 17.85 9.47998C17.6753 10.0275 17.5744 10.5958 17.55 11.17C16.2169 11.4516 15.0309 12.2062 14.211 13.2945C13.3912 14.3827 12.993 15.7309 13.09 17.09C13.026 18.0559 13.3033 19.0137 13.8736 19.796C14.4439 20.5783 15.2708 21.1354 16.21 21.37V21.44C15.8835 21.4387 15.5599 21.5018 15.2579 21.6259C14.9559 21.7499 14.6813 21.9324 14.4499 22.1628C14.2186 22.3932 14.035 22.6671 13.9098 22.9686C13.7845 23.2702 13.72 23.5935 13.72 23.92C13.72 25.85 15.81 26.58 17.57 26.86C17.5991 27.3936 17.6965 27.9212 17.86 28.43C18.07 29.16 19.13 29.52 19.94 29.52C20.75 29.52 21.8 29.16 22.01 28.43C22.1833 27.8993 22.2842 27.3477 22.31 26.79C24.7 26.26 26.8 24.72 26.8 20.82Z" fill="white" stroke="#231F20" stroke-linejoin="round"/>
<path d="M23.68 16.51C22.4565 16.2549 21.1935 16.2549 19.97 16.51" stroke="#231F20" stroke-linecap="round" stroke-linejoin="round"/>
<path d="M16.25 21.37C17.47 21.657 18.74 21.657 19.96 21.37" stroke="#231F20" stroke-linecap="round" stroke-linejoin="round"/>
</svg>
