<svg width="40" height="40" viewBox="0 0 40 40" fill="none" xmlns="http://www.w3.org/2000/svg">
<g clip-path="url(#clip0_2301_13433)">
<path d="M25.5299 14.88C24.6095 13.5721 23.4813 12.4236 22.1899 11.48C20.9787 10.4506 19.6028 9.6325 18.1199 9.06C18.1199 9.06 17.6499 9 16.9999 9C16.877 8.99048 16.7533 9.00552 16.6362 9.04425C16.5191 9.08298 16.4108 9.14463 16.3178 9.22559C16.2247 9.30656 16.1487 9.40523 16.0941 9.51586C16.0395 9.62649 16.0075 9.74687 15.9999 9.87C15.9135 10.781 15.5234 11.6366 14.8922 12.2991C14.2609 12.9617 13.4253 13.3928 12.5195 13.5232C11.6137 13.6536 10.6904 13.4757 9.8979 13.018C9.10541 12.5604 8.48979 11.8497 8.14994 11C8.06269 10.7814 7.89416 10.6052 7.67974 10.5082C7.46531 10.4113 7.22167 10.4012 6.99994 10.48C6.62535 10.6136 6.25816 10.7672 5.89994 10.94C4.65457 11.9256 3.58599 13.1159 2.73994 14.46C1.77482 15.7478 1.03128 17.1875 0.53994 18.72C0.28994 19.62 1.31994 20.92 2.27994 21.62C3.06193 22.25 4.04668 22.5735 5.04994 22.53C5.68994 25.75 6.26994 28.35 6.91994 29.08C8.10994 30.4 12.2299 30.08 15.0299 29.68C17.8299 29.28 21.8499 28.29 22.5899 26.68C22.9899 25.79 22.7699 23.13 22.4099 19.87C23.3632 19.5969 24.191 18.9991 24.7499 18.18C25.4499 17.22 25.9999 15.67 25.5299 14.88Z" fill="#48EEFF" stroke="#231F20" stroke-miterlimit="10"/>
<path d="M5.29988 20.14C5.17457 19.2288 5.14775 18.3069 5.21988 17.39" stroke="#231F20" stroke-miterlimit="10" stroke-linecap="round"/>
<path d="M21.46 17.66C21.3105 16.748 21.0589 15.8557 20.71 15" stroke="#231F20" stroke-miterlimit="10" stroke-linecap="round"/>
<path d="M18.55 11.12C19.3146 11.4801 20.0276 11.9409 20.67 12.49" stroke="white" stroke-miterlimit="10" stroke-linecap="round"/>
<path d="M33.2598 30.78L32.8098 30.84C32.7073 30.857 32.6023 30.8495 32.5033 30.8182C32.4042 30.787 32.314 30.7327 32.2398 30.66L31.4198 29.91L31.8698 28.54C32.7331 26.0152 33.2183 23.3767 33.3098 20.71C33.3126 20.6072 33.2926 20.5051 33.2515 20.4109C33.2103 20.3166 33.1488 20.2327 33.0715 20.1649C32.9942 20.0971 32.9028 20.0472 32.804 20.0187C32.7052 19.9902 32.6014 19.9838 32.4998 20L31.2098 20.21C31.0981 20.2262 30.9841 20.2166 30.8766 20.1819C30.7692 20.1472 30.6711 20.0884 30.5898 20.01L29.4298 18.83C29.3515 18.7504 29.2552 18.6908 29.1491 18.656C29.043 18.6212 28.9301 18.6123 28.8198 18.63L27.1798 18.89C27.0695 18.9104 26.9559 18.9028 26.8493 18.8678C26.7427 18.8329 26.6466 18.7717 26.5698 18.69L25.4098 17.52C25.3299 17.4396 25.232 17.3795 25.1241 17.3447C25.0163 17.3099 24.9016 17.3014 24.7898 17.32L23.1598 17.58C23.0496 17.5978 22.9367 17.5889 22.8305 17.5541C22.7244 17.5193 22.6282 17.4596 22.5498 17.38L21.6398 16.47C21.5677 16.3955 21.48 16.3379 21.3829 16.3014C21.2858 16.2649 21.1818 16.2504 21.0785 16.259C20.9751 16.2677 20.875 16.2991 20.7853 16.3512C20.6956 16.4032 20.6186 16.4746 20.5598 16.56C19.2418 18.7884 18.2008 21.1693 17.4598 23.65C16.2898 27.23 15.1698 32.01 15.5498 33.04C16.3098 35.24 16.0198 35.8 23.1298 38.12C28.7898 39.97 30.7698 39.34 32.2198 36.52C33.0836 34.9575 33.7009 33.271 34.0498 31.52C34.0548 31.4172 34.0374 31.3144 33.9988 31.219C33.9601 31.1235 33.9012 31.0376 33.826 30.9672C33.7509 30.8968 33.6613 30.8436 33.5635 30.8113C33.4658 30.779 33.3621 30.7683 33.2598 30.78Z" fill="#FF52A1" stroke="#231F20" stroke-miterlimit="10"/>
<path d="M30.4899 32.37C30.173 33.3058 29.8058 34.2238 29.3899 35.12" stroke="#231F20" stroke-miterlimit="10" stroke-linecap="round"/>
<path d="M29.0599 24.51C29.0599 24.51 27.1899 24.01 25.3399 23.41C23.4899 22.81 21.6899 22.1 21.6899 22.1" stroke="#231F20" stroke-miterlimit="10" stroke-linecap="round"/>
<path d="M27.7498 28.54C27.7498 28.54 25.8698 28 23.9998 27.44C22.1298 26.88 20.3398 26.13 20.3398 26.13" stroke="#231F20" stroke-miterlimit="10" stroke-linecap="round"/>
<path d="M23.0798 31.46C23.0798 31.46 22.0798 31.24 21.0798 30.91C20.0798 30.58 19.0798 30.15 19.0798 30.15" stroke="#231F20" stroke-miterlimit="10" stroke-linecap="round"/>
<path d="M31.4098 22.36C31.3804 23.2297 31.246 24.0926 31.0098 24.93" stroke="white" stroke-miterlimit="10" stroke-linecap="round"/>
<path d="M15.5 3.93999C15.5 4.3829 15.6759 4.80767 15.9891 5.12086C16.3023 5.43404 16.7271 5.60999 17.17 5.60999C17.6129 5.60999 18.0377 5.43404 18.3509 5.12086C18.6641 4.80767 18.84 4.3829 18.84 3.93999C18.84 3.49708 18.6641 3.07231 18.3509 2.75912C18.0377 2.44593 17.6129 2.26999 17.17 2.26999C16.7271 2.26999 16.3023 2.44593 15.9891 2.75912C15.6759 3.07231 15.5 3.49708 15.5 3.93999Z" fill="#FFE236" stroke="#231F20" stroke-miterlimit="10"/>
<path d="M37.49 13.64C37.8335 13.1305 37.9884 12.5171 37.9282 11.9056C37.868 11.2941 37.5963 10.7227 37.16 10.29C37.3379 10.3945 37.5347 10.463 37.7391 10.4914C37.9435 10.5198 38.1514 10.5077 38.3511 10.4557C38.5508 10.4037 38.7383 10.3128 38.9028 10.1883C39.0673 10.0638 39.2057 9.90804 39.31 9.73C39.85 8.82 39.02 7.73 38.13 6.95C38.2948 6.63451 38.4159 6.2981 38.49 5.95C38.61 5.49 38.15 4.95 37.71 4.7C37.27 4.45 36.58 4.3 36.24 4.62C35.9671 4.86351 35.7283 5.14269 35.53 5.45C34.7141 5.17517 33.8261 5.20621 33.0314 5.53735C32.2367 5.86848 31.5894 6.47714 31.21 7.25C30.8655 7.75622 30.7107 8.36781 30.7729 8.97699C30.8351 9.58617 31.1103 10.1539 31.55 10.58C31.3729 10.4757 31.1769 10.4074 30.9733 10.3792C30.7697 10.3509 30.5625 10.3631 30.3636 10.4151C30.1647 10.4672 29.9781 10.558 29.8145 10.6824C29.6508 10.8068 29.5134 10.9623 29.41 11.14C28.79 12.19 29.7 13.26 30.56 13.97C30.4047 14.2701 30.2904 14.5896 30.22 14.92C30.1 15.38 30.57 15.92 31 16.17C31.43 16.42 32.14 16.57 32.48 16.24C32.7466 16.0072 32.9789 15.7379 33.17 15.44C34.6 15.93 36.24 15.76 37.49 13.64Z" fill="#FFE236" stroke="#231F20" stroke-linejoin="round"/>
<path d="M37.1599 10.29C36.5805 9.76229 35.9001 9.35748 35.1599 9.10001" stroke="#231F20" stroke-linecap="round" stroke-linejoin="round"/>
<path d="M31.5701 10.57C32.1351 11.1191 32.8197 11.5299 33.5701 11.77" stroke="#231F20" stroke-linecap="round" stroke-linejoin="round"/>
<path d="M28.05 6.29C28.1746 5.91364 28.1605 5.50509 28.0101 5.13825C27.8597 4.77141 27.583 4.47051 27.23 4.29C27.4872 4.35015 27.7577 4.30609 27.9825 4.16744C28.2074 4.0288 28.3682 3.80683 28.43 3.55C28.58 2.9 27.88 2.4 27.2 2.09C27.2318 1.86781 27.2318 1.6422 27.2 1.42C27.2 1.12 26.81 0.880003 26.49 0.810003C26.17 0.740003 25.74 0.810003 25.59 1.04C25.4674 1.23576 25.3731 1.44786 25.31 1.67C24.7655 1.65576 24.2344 1.83945 23.8152 2.187C23.3959 2.53456 23.1169 3.02239 23.03 3.56C22.9039 3.93742 22.9185 4.34768 23.071 4.7152C23.2235 5.08273 23.5037 5.38275 23.86 5.56C23.6042 5.50281 23.3362 5.54831 23.1137 5.6867C22.8911 5.8251 22.7318 6.04533 22.67 6.3C22.49 7.05 23.24 7.53 23.9 7.8C23.8681 8.0088 23.8681 8.22121 23.9 8.43C23.9 8.73 24.29 8.97 24.6 9.05C24.91 9.13 25.36 9.05 25.51 8.81C25.627 8.61976 25.7178 8.41457 25.78 8.2C26.3307 8.2317 26.8726 8.05149 27.2947 7.69635C27.7168 7.3412 27.987 6.83802 28.05 6.29Z" fill="#FFE236" stroke="#231F20" stroke-linejoin="round"/>
<path d="M27.23 4.33C26.7785 4.12024 26.2879 4.0078 25.79 4" stroke="#231F20" stroke-linecap="round" stroke-linejoin="round"/>
<path d="M23.8999 5.53C24.3453 5.7605 24.8384 5.88378 25.3399 5.89" stroke="#231F20" stroke-linecap="round" stroke-linejoin="round"/>
</g>
<defs>
<clipPath id="clip0_2301_13433">
<rect width="40" height="40" fill="white"/>
</clipPath>
</defs>
</svg>
