<svg width="40" height="40" viewBox="0 0 40 40" fill="none" xmlns="http://www.w3.org/2000/svg">
<g clip-path="url(#clip0_2301_13371)">
<path d="M36.12 18.19C35.44 17.79 33.46 17.55 30.89 17.41C30.64 14.58 30.15 12.07 29.21 11.46C28.55 10.62 25.74 10.36 22.75 10.28C22.75 9.27999 22.75 8.36999 22.7 7.45999C23.8487 7.53731 25.0024 7.43611 26.12 7.15999C26.87 6.87999 27 5.04999 27 3.99999C27 2.94999 26.91 1.09999 26.16 0.819993C25.78 0.549993 23.79 0.519993 22.16 0.519993C21.52 0.519993 18.66 0.439993 18.16 0.819993C17.41 1.09999 17.32 2.92999 17.32 3.99999V10.29C14.32 10.37 11.52 10.63 10.87 11.47C9.93 12.08 9.44 14.59 9.19 17.42C6.61 17.56 4.63 17.8 3.96 18.2C0.88 19.07 0.5 24.94 0.5 28.36C0.5 31.78 0.88 37.64 3.88 38.53C5.38 39.41 13.38 39.53 20 39.53C26.62 39.53 34.62 39.44 36.12 38.53C39.12 37.64 39.5 31.77 39.5 28.36C39.5 24.95 39.12 19.07 36.12 18.19Z" fill="#FF52A1" stroke="#231F20" stroke-miterlimit="10"/>
<path d="M15.8199 18.61C15.8199 19.7186 16.2603 20.7818 17.0442 21.5657C17.8281 22.3496 18.8913 22.79 19.9999 22.79C21.1086 22.79 22.1718 22.3496 22.9557 21.5657C23.7396 20.7818 24.1799 19.7186 24.1799 18.61C24.1799 17.5014 23.7396 16.4382 22.9557 15.6543C22.1718 14.8704 21.1086 14.43 19.9999 14.43C18.8913 14.43 17.8281 14.8704 17.0442 15.6543C16.2603 16.4382 15.8199 17.5014 15.8199 18.61Z" fill="white" stroke="#231F20" stroke-miterlimit="10"/>
<path d="M8.84999 22.78C8.75535 26.9681 8.94579 31.1578 9.41998 35.32" stroke="#231F20" stroke-miterlimit="10" stroke-linecap="round"/>
<path d="M31.1301 22.78C31.2247 26.9681 31.0343 31.1578 30.5601 35.32" stroke="#231F20" stroke-miterlimit="10" stroke-linecap="round"/>
<path d="M23.88 36.72C24.1126 35.5381 24.2132 34.3341 24.18 33.13C24.18 31.67 24.1 29.13 23.45 28.77C23.13 28.4 21.45 28.36 20 28.36C18.55 28.36 16.87 28.36 16.55 28.77C15.9 29.15 15.82 31.67 15.82 33.13C15.7868 34.3341 15.8874 35.5381 16.12 36.72" stroke="#231F20" stroke-miterlimit="10" stroke-linecap="round"/>
<path d="M25.48 12.93C27.87 13.18 27.83 13.51 28.05 15.24" stroke="white" stroke-miterlimit="10" stroke-linecap="round"/>
</g>
<defs>
<clipPath id="clip0_2301_13371">
<rect width="40" height="40" fill="white"/>
</clipPath>
</defs>
</svg>
