<svg width="40" height="40" viewBox="0 0 40 40" fill="none" xmlns="http://www.w3.org/2000/svg">
<g clip-path="url(#clip0_2301_13346)">
<path d="M17.2301 0.760005C16.4001 0.480005 12.4201 0.940005 9.44007 1.34001C6.46007 1.74001 2.49007 2.34001 1.77007 2.85001C1.36209 3.07791 1.02713 3.41688 0.804096 3.82754C0.581063 4.2382 0.479106 4.70371 0.510066 5.17001C0.600927 5.62878 0.821724 6.05178 1.14617 6.38863C1.47061 6.72548 1.88502 6.96199 2.34007 7.07001C2.55546 7.12629 2.77747 7.1532 3.00007 7.15001C3.21007 9.28001 3.48007 11.52 3.75007 13.52C4.51007 19.2 5.73007 26.72 7.00007 28C7.75007 29.4 10.8801 30.47 13.3001 30.15C15.7201 29.83 18.4601 27.95 18.8101 26.41C19.7101 24.79 18.9001 17.22 18.1301 11.53C17.8601 9.53001 17.5301 7.3 17.1301 5.20001C17.3612 5.163 17.5865 5.09575 17.8001 5.00001C18.2072 4.77376 18.5418 4.43656 18.7649 4.02763C18.9879 3.61869 19.0903 3.15484 19.0601 2.69001C18.9709 2.22724 18.7513 1.79964 18.427 1.45766C18.1028 1.11569 17.6874 0.873609 17.2301 0.760005Z" fill="#48EEFF" stroke="#231F20" stroke-miterlimit="10"/>
<path d="M7.44019 16.3C7.53019 17.3 7.64019 18.3 7.77019 19.18C8.12019 21.76 8.69019 25.18 9.39019 25.75C9.79019 26.37 11.5002 26.82 12.8502 26.64C14.2002 26.46 15.7402 25.57 15.9502 24.86C16.4702 24.11 16.1302 20.68 15.7802 18.1C15.6602 17.19 15.5002 16.19 15.3302 15.23L7.44019 16.3Z" fill="#FFE236" stroke="#231F20" stroke-miterlimit="10"/>
<path d="M6 6.62C8.752 6.4305 11.4882 6.05632 14.19 5.5" stroke="#231F20" stroke-miterlimit="10" stroke-linecap="round"/>
<path d="M12.6001 9.22C13.2921 9.17162 13.9803 9.07809 14.6601 8.94" stroke="#231F20" stroke-miterlimit="10" stroke-linecap="round"/>
<path d="M13 12.36C13.6921 12.3123 14.3803 12.2188 15.06 12.08" stroke="#231F20" stroke-miterlimit="10" stroke-linecap="round"/>
<path d="M11.79 18.72C11.79 18.9958 11.8996 19.2603 12.0946 19.4554C12.2897 19.6504 12.5542 19.76 12.83 19.76C13.1059 19.76 13.3704 19.6504 13.5654 19.4554C13.7605 19.2603 13.87 18.9958 13.87 18.72C13.87 18.4442 13.7605 18.1796 13.5654 17.9846C13.3704 17.7896 13.1059 17.68 12.83 17.68C12.5542 17.68 12.2897 17.7896 12.0946 17.9846C11.8996 18.1796 11.79 18.4442 11.79 18.72Z" fill="#231F20"/>
<path d="M10.29 23.11C10.29 23.3858 10.3996 23.6504 10.5946 23.8454C10.7897 24.0404 11.0542 24.15 11.33 24.15C11.6059 24.15 11.8704 24.0404 12.0654 23.8454C12.2605 23.6504 12.37 23.3858 12.37 23.11C12.37 22.8342 12.2605 22.5697 12.0654 22.3746C11.8704 22.1796 11.6059 22.07 11.33 22.07C11.0542 22.07 10.7897 22.1796 10.5946 22.3746C10.3996 22.5697 10.29 22.8342 10.29 23.11Z" fill="#231F20"/>
<path d="M14.6602 2.54002C16.2602 2.37002 16.6102 2.54002 16.8102 2.73002" stroke="white" stroke-miterlimit="10" stroke-linecap="round"/>
<path d="M29.3301 4.16999C29.3301 4.75612 29.5629 5.31824 29.9774 5.7327C30.3918 6.14715 30.954 6.37999 31.5401 6.37999C32.1262 6.37999 32.6883 6.14715 33.1028 5.7327C33.5172 5.31824 33.7501 4.75612 33.7501 4.16999C33.7501 3.58386 33.5172 3.02174 33.1028 2.60729C32.6883 2.19283 32.1262 1.95999 31.5401 1.95999C30.954 1.95999 30.3918 2.19283 29.9774 2.60729C29.5629 3.02174 29.3301 3.58386 29.3301 4.16999Z" fill="#FF52A1" stroke="#231F20" stroke-miterlimit="10" stroke-linecap="round"/>
<path d="M23.3601 7.63002C23.3601 7.83751 23.401 8.04296 23.4804 8.23466C23.5598 8.42635 23.6762 8.60053 23.8229 8.74725C23.9696 8.89396 24.1438 9.01035 24.3355 9.08975C24.5272 9.16915 24.7326 9.21002 24.9401 9.21002C25.1476 9.21002 25.3531 9.16915 25.5447 9.08975C25.7364 9.01035 25.9106 8.89396 26.0573 8.74725C26.2041 8.60053 26.3204 8.42635 26.3998 8.23466C26.4792 8.04296 26.5201 7.83751 26.5201 7.63002C26.5201 7.42253 26.4792 7.21707 26.3998 7.02538C26.3204 6.83368 26.2041 6.65951 26.0573 6.51279C25.9106 6.36607 25.7364 6.24969 25.5447 6.17029C25.3531 6.09089 25.1476 6.05002 24.9401 6.05002C24.7326 6.05002 24.5272 6.09089 24.3355 6.17029C24.1438 6.24969 23.9696 6.36607 23.8229 6.51279C23.6762 6.65951 23.5598 6.83368 23.4804 7.02538C23.401 7.21707 23.3601 7.42253 23.3601 7.63002Z" fill="#FF52A1" stroke="#231F20" stroke-miterlimit="10" stroke-linecap="round"/>
<path d="M36.3401 12.08C36.3401 12.2875 36.381 12.4929 36.4604 12.6846C36.5398 12.8763 36.6561 13.0505 36.8029 13.1972C36.9496 13.3439 37.1238 13.4603 37.3154 13.5397C37.5071 13.6191 37.7126 13.66 37.9201 13.66C38.1276 13.66 38.333 13.6191 38.5247 13.5397C38.7164 13.4603 38.8906 13.3439 39.0373 13.1972C39.184 13.0505 39.3004 12.8763 39.3798 12.6846C39.4592 12.4929 39.5001 12.2875 39.5001 12.08C39.5001 11.8725 39.4592 11.6671 39.3798 11.4754C39.3004 11.2837 39.184 11.1095 39.0373 10.9628C38.8906 10.8161 38.7164 10.6997 38.5247 10.6203C38.333 10.5409 38.1276 10.5 37.9201 10.5C37.7126 10.5 37.5071 10.5409 37.3154 10.6203C37.1238 10.6997 36.9496 10.8161 36.8029 10.9628C36.6561 11.1095 36.5398 11.2837 36.4604 11.4754C36.381 11.6671 36.3401 11.8725 36.3401 12.08Z" fill="#FF52A1" stroke="#231F20" stroke-miterlimit="10" stroke-linecap="round"/>
<path d="M25.4701 27.93C29.9201 28.06 35.2301 23.5 35.7601 23.05C36.7601 22.16 38.1201 20.93 38.1301 20.4C38.1148 19.6546 37.8225 18.9416 37.3101 18.4C36.8468 17.8033 36.1755 17.4033 35.4301 17.28C34.7766 17.4325 34.1759 17.757 33.6901 18.22C33.3601 17.75 33.0001 17.22 32.6301 16.84C32.2601 16.46 31.8501 15.99 31.4401 15.59C32.0801 14.96 32.6101 14.35 32.6201 14.02C32.6179 13.272 32.3237 12.5543 31.8001 12.02C31.3368 11.4233 30.6655 11.0233 29.9201 10.9C29.4001 10.84 27.9801 11.96 26.9201 12.85C26.3801 13.31 21.0701 17.85 20.5401 22.29C16.0901 22.15 10.7801 26.71 10.2501 27.17C9.25013 28.06 7.90013 29.29 7.88013 29.81C7.89545 30.5554 8.18777 31.2684 8.70013 31.81C9.26013 32.46 10.2001 33.01 10.5901 32.92C11.2446 32.7736 11.8485 32.4561 12.3401 32C12.6701 32.47 13.0301 32.94 13.4001 33.37C13.7701 33.8 14.1801 34.22 14.6001 34.62C13.9501 35.25 13.4201 35.87 13.4101 36.2C13.4254 36.9454 13.7178 37.6584 14.2301 38.2C14.6958 38.7989 15.3712 39.1991 16.1201 39.32C16.6401 39.38 18.0601 38.26 19.1201 37.32C19.6301 36.91 24.9301 32.35 25.4701 27.93Z" fill="#FF52A1" stroke="#231F20" stroke-miterlimit="10"/>
<path d="M14.7302 30C15.6336 30.6939 16.3857 31.565 16.9402 32.56L17.2002 32.34C16.2968 31.6329 15.5481 30.748 15.0002 29.74L14.7302 30Z" stroke="#231F20" stroke-miterlimit="10"/>
<path d="M17.4302 27.65C18.331 28.3478 19.0796 29.2224 19.6302 30.22L19.8902 29.99C18.9923 29.2931 18.2441 28.4225 17.6902 27.43L17.4302 27.65Z" stroke="#231F20" stroke-miterlimit="10"/>
<path d="M31.3001 20.19C30.402 19.4894 29.6538 18.6154 29.1001 17.62L28.8401 17.85C29.7239 18.5505 30.4583 19.421 31.0001 20.41L31.3001 20.19Z" stroke="#231F20" stroke-miterlimit="10"/>
<path d="M28.6101 22.5C27.7044 21.8086 26.9519 20.937 26.4001 19.94L26.1401 20.17C27.0459 20.8614 27.7984 21.733 28.3501 22.73L28.6101 22.5Z" stroke="#231F20" stroke-miterlimit="10"/>
<path d="M25.4701 27.93C23.9476 27.8276 22.4614 27.4194 21.1001 26.73" stroke="#231F20" stroke-miterlimit="10" stroke-linecap="round"/>
<path d="M20.5701 22.23C22.0925 22.3325 23.5788 22.7406 24.9401 23.43" stroke="#231F20" stroke-miterlimit="10" stroke-linecap="round"/>
<path d="M28.29 13.83C29.78 12.46 29.87 12.45 30.45 12.83" stroke="white" stroke-miterlimit="10" stroke-linecap="round"/>
<path d="M23.3301 22.77L24.0201 22.18C24.2253 22.6626 24.5403 23.0906 24.9401 23.43" stroke="#231F20" stroke-miterlimit="10"/>
<path d="M22.5701 27.34L22.0001 28C21.7702 27.5586 21.4846 27.1486 21.1501 26.78" stroke="#231F20" stroke-miterlimit="10"/>
</g>
<defs>
<clipPath id="clip0_2301_13346">
<rect width="40" height="40" fill="white"/>
</clipPath>
</defs>
</svg>
