<svg width="40" height="40" viewBox="0 0 40 40" fill="none" xmlns="http://www.w3.org/2000/svg">
<g clip-path="url(#clip0_2301_13325)">
<path d="M1.3337 23.5953C1.44299 23.748 1.64313 23.8334 1.92269 23.8467C2.20225 23.86 2.55576 23.8008 2.96303 23.6727C3.3703 23.5445 3.82336 23.3498 4.29633 23.0997C4.76931 22.8495 5.25295 22.5489 5.71962 22.2149C6.1863 21.8809 6.62688 21.5201 7.01621 21.1531C7.40555 20.7861 7.736 20.4201 7.98871 20.076C8.24142 19.7318 8.41144 19.4163 8.48906 19.1474C8.56668 18.8785 8.55038 18.6615 8.44109 18.5088C8.3318 18.3561 8.13166 18.2706 7.8521 18.2574C7.57253 18.2441 7.21903 18.3032 6.81176 18.4314C6.40449 18.5596 5.95143 18.7543 5.47845 19.0044C5.00547 19.2545 4.52184 19.5552 4.05516 19.8892C3.58848 20.2231 3.1479 20.5839 2.75857 20.9509C2.36924 21.3179 2.03878 21.684 1.78607 22.0281C1.53336 22.3723 1.36334 22.6878 1.28572 22.9567C1.20811 23.2256 1.22441 23.4426 1.3337 23.5953Z" fill="#FFE236" stroke="#231F20" stroke-miterlimit="10"/>
<path d="M0.716453 16.4281C0.937175 16.7365 1.39475 16.8563 1.98851 16.7612C2.58227 16.666 3.26359 16.3637 3.88258 15.9207C4.50156 15.4777 5.00752 14.9304 5.28913 14.399C5.57075 13.8677 5.60496 13.396 5.38423 13.0875C5.16351 12.7791 4.70594 12.6593 4.11218 12.7545C3.51841 12.8496 2.8371 13.152 2.21811 13.5949C1.59912 14.0379 1.09317 14.5853 0.811557 15.1166C0.529941 15.6479 0.495732 16.1197 0.716453 16.4281Z" fill="#FFE236" stroke="#231F20" stroke-miterlimit="10"/>
<path d="M2.53602 31.0676C2.64531 31.2203 2.86417 31.2923 3.1801 31.2796C3.49604 31.2668 3.90285 31.1695 4.37733 30.9933C4.85181 30.817 5.38465 30.5652 5.94544 30.2522C6.50623 29.9392 7.08397 29.5713 7.6457 29.1693C8.20742 28.7672 8.74211 28.3391 9.21925 27.9093C9.69639 27.4794 10.1066 27.0563 10.4266 26.664C10.7465 26.2718 10.9698 25.9181 11.0838 25.6232C11.1978 25.3283 11.2002 25.0979 11.0909 24.9452C10.9816 24.7924 10.7628 24.7204 10.4468 24.7332C10.1309 24.7459 9.72407 24.8432 9.2496 25.0195C8.77512 25.1958 8.24228 25.4476 7.68149 25.7605C7.1207 26.0735 6.54295 26.4415 5.98123 26.8435C5.41951 27.2455 4.88481 27.6736 4.40767 28.1035C3.93053 28.5333 3.52029 28.9565 3.20038 29.3487C2.88046 29.7409 2.65713 30.0946 2.54314 30.3896C2.42915 30.6845 2.42673 30.9149 2.53602 31.0676Z" fill="#FFE236" stroke="#231F20" stroke-miterlimit="10"/>
<path d="M37.6499 17.44C36.7599 16.75 32.0199 16.24 28.0899 16.24C24.1599 16.24 19.4099 16.75 18.5199 17.44C16.7399 18.13 16.6699 21.68 16.6699 24.35C16.6699 27.02 16.7399 31.47 18.5199 32.16C19.0299 32.56 20.7999 32.89 22.9599 33.16L22.5699 35.85C21.8099 36.04 21.4299 36.28 21.4299 37.01C21.4299 37.74 21.7699 38.01 22.5399 38.13C22.7999 38.13 33.2599 38.19 33.6299 38.13C34.3699 38 34.7399 37.69 34.7399 37.01C34.7399 36.33 34.3599 36.01 33.5999 35.85L33.2099 33.16C35.3699 32.94 37.1399 32.61 37.6499 32.16C39.4299 31.47 39.4999 27.02 39.4999 24.35C39.4999 21.68 39.4299 18.13 37.6499 17.44Z" fill="#48EEFF" stroke="#231F20" stroke-miterlimit="10"/>
<path d="M35.26 29.67C36.59 29.18 36.65 26.67 36.65 24.8C36.65 22.93 36.59 20.42 35.26 19.94C34.59 19.45 31.03 19.09 28.09 19.09C25.15 19.09 21.58 19.45 20.91 19.94C19.58 20.42 19.52 22.94 19.52 24.8C19.52 26.66 19.58 29.18 20.91 29.67C21.58 30.15 25.14 30.51 28.09 30.51C31.04 30.51 34.59 30.15 35.26 29.67Z" fill="white" stroke="#231F20" stroke-miterlimit="10"/>
<path d="M24.9399 35.5C25.9772 35.2992 27.0345 35.222 28.0899 35.27C29.142 35.2222 30.1961 35.2994 31.2299 35.5" stroke="#231F20" stroke-miterlimit="10" stroke-linecap="round"/>
<path d="M35.5999 18.3C37.1999 18.82 37.3999 19.09 37.8999 21" stroke="white" stroke-miterlimit="10" stroke-linecap="round"/>
<path d="M27.6701 2.00001C26.6701 2.12001 21.9901 3.06001 18.1701 4.00001C17.0001 4.28001 10.3601 6.00001 8.09006 7.73001C6.51006 8.94001 7.17006 9.94001 8.34006 10.84L13.0001 14.39C12.6001 17.98 12.6301 20.23 13.8701 20.85C15.1101 21.47 16.7701 20.05 18.3001 18.46L20.2301 19.94C21.4001 20.83 22.6701 21.34 24.2301 20.16C24.3201 20.09 26.3801 18.98 29.1101 12.42C30.1687 9.8984 31.0999 7.32515 31.9001 4.71001C32.4001 2.22001 30.8701 1.60001 27.6701 2.00001Z" fill="#FF52A1" stroke="#231F20" stroke-miterlimit="10"/>
<path d="M16.6702 12.6C19.5386 10.4093 22.5448 8.40521 25.6702 6.60001L16.6702 12.6Z" fill="#48EEFF"/>
<path d="M16.6702 12.6C19.5386 10.4093 22.5448 8.40521 25.6702 6.60001" stroke="#231F20" stroke-miterlimit="10" stroke-linecap="round"/>
<path d="M18.2501 18.46C17.4001 17.74 17.1401 17.46 17.1401 17.46L18.2501 18.46Z" fill="#48EEFF"/>
<path d="M18.2501 18.46C17.4001 17.74 17.1401 17.46 17.1401 17.46" stroke="#231F20" stroke-miterlimit="10" stroke-linecap="round"/>
<path d="M11.8301 8.39999C13.0604 7.72763 14.3708 7.21356 15.7301 6.87" stroke="white" stroke-miterlimit="10" stroke-linecap="round"/>
</g>
<defs>
<clipPath id="clip0_2301_13325">
<rect width="40" height="40" fill="white"/>
</clipPath>
</defs>
</svg>
