<svg width="40" height="40" viewBox="0 0 40 40" fill="none" xmlns="http://www.w3.org/2000/svg">
<path d="M17.277 7.16405C19.334 7.29105 21.122 7.61305 21.6 8.33705C21.892 8.56005 22.373 9.00705 22.574 9.31105C23.44 9.97305 23.674 13.7611 23.8 16.8381C23.927 19.9151 23.995 23.6441 23.187 24.3751C22.9153 24.7436 22.5337 25.0163 22.097 25.1541C22.292 25.5991 22.455 26.0581 22.583 26.5271C22.6759 26.7418 22.7243 26.9731 22.7253 27.2071C22.7264 27.441 22.68 27.6728 22.5891 27.8883C22.4982 28.1039 22.3646 28.2988 22.1963 28.4613C22.028 28.6239 21.8286 28.7507 21.61 28.8341C21.411 28.9583 21.1888 29.0406 20.957 29.076C20.7251 29.1114 20.4884 29.0992 20.2615 29.04C20.0345 28.9809 19.822 28.8761 19.6369 28.732C19.4518 28.5879 19.298 28.4076 19.185 28.2021C19.1325 28.1274 19.0805 28.0524 19.029 27.9771C18.6815 27.8235 18.394 27.56 18.211 27.2271C17.948 26.8537 17.6972 26.4718 17.459 26.0821C16.085 26.2301 14.697 26.3521 13.586 26.3521C13.201 26.3521 12.782 26.3561 12.341 26.3621C11.389 26.3721 10.336 26.3851 9.311 26.3521C8.973 27.1221 8.586 27.8701 8.152 28.5921C8.05711 28.8071 7.91925 29.0005 7.74688 29.1603C7.57452 29.3201 7.3713 29.443 7.1497 29.5214C6.92811 29.5997 6.69283 29.632 6.45831 29.6161C6.2238 29.6002 5.99501 29.5366 5.786 29.4291C5.228 29.2671 4.034 28.1201 3.759 27.5921C3.65066 27.3847 3.58542 27.1576 3.5672 26.9244C3.54898 26.6912 3.57817 26.4567 3.653 26.2351C3.723 25.8801 3.809 25.5291 3.911 25.1821C3.88952 25.1602 3.86852 25.1378 3.848 25.1151C3.717 25.0111 3.601 24.8451 3.499 24.6281C3.26303 24.5047 3.0513 24.3397 2.874 24.1411C1.974 23.4341 1.824 19.7961 1.698 16.7191L1.696 16.6721C1.57 13.5851 1.501 9.86605 2.31 9.12605C2.806 8.17105 5.474 7.67505 8.152 7.41205C7.61488 6.86483 7.12637 6.27193 6.692 5.64005C6.53724 5.40257 6.4792 5.11488 6.52977 4.83597C6.58035 4.55707 6.73571 4.30807 6.964 4.14005C7.13335 3.91321 7.38296 3.75964 7.66179 3.71075C7.94061 3.66186 8.22758 3.72135 8.464 3.87705C9.50562 4.66788 10.4824 5.54066 11.385 6.48705L11.494 6.59705C11.618 6.71505 11.74 6.83405 11.861 6.95405L12.291 6.44805C13.1315 5.42437 14.0564 4.47303 15.056 3.60405C15.28 3.42962 15.5624 3.34766 15.845 3.37505C16.463 3.43505 17.869 4.77905 18.011 5.39205C18.0746 5.66535 18.0313 5.95262 17.89 6.19505C17.7 6.52705 17.495 6.85005 17.277 7.16405Z" fill="#00034A" stroke="#00034A" stroke-miterlimit="10"/>
<path d="M21.6 8.33698C20.996 7.42198 18.299 7.14898 15.611 7.09998C16.0993 6.51241 16.5359 5.88374 16.916 5.22098C17.0574 4.97879 17.1009 4.69173 17.0378 4.4185C16.9746 4.14526 16.8094 3.90649 16.576 3.75098C16.3894 3.53677 16.1279 3.40224 15.8451 3.37508C15.5623 3.34792 15.2799 3.4302 15.056 3.60498C14.056 4.47298 13.131 5.42498 12.291 6.44798L11.852 6.96398L11.385 6.48698C10.4824 5.54058 9.50562 4.66781 8.464 3.87698C8.22758 3.72128 7.94061 3.66179 7.66179 3.71068C7.38296 3.75956 7.13335 3.91313 6.964 4.13998C6.73571 4.308 6.58035 4.55699 6.52977 4.8359C6.4792 5.11481 6.53724 5.4025 6.692 5.63998C7.126 6.27198 7.615 6.86498 8.152 7.41198C5.474 7.67498 2.806 8.17198 2.31 9.12598C1.501 9.86598 1.57 13.586 1.696 16.672C1.823 19.759 1.969 23.43 2.874 24.142C3.178 24.482 3.579 24.719 4.024 24.822C3.87 25.285 3.747 25.757 3.654 26.235C3.57911 26.4566 3.54984 26.6911 3.56794 26.9243C3.58604 27.1575 3.65114 27.3847 3.75933 27.5921C3.86751 27.7995 4.01654 27.9828 4.19745 28.1311C4.37836 28.2794 4.5874 28.3896 4.812 28.455C5.02107 28.5625 5.24992 28.6261 5.48448 28.6419C5.71904 28.6577 5.95435 28.6254 6.17595 28.5469C6.39756 28.4684 6.60076 28.3454 6.77309 28.1855C6.94541 28.0256 7.0832 27.8321 7.178 27.617C7.612 26.897 7.999 26.148 8.338 25.377C9.837 25.427 11.395 25.377 12.612 25.377C13.829 25.377 15.377 25.232 16.877 25.067C17.277 25.813 17.723 26.535 18.211 27.227C18.3236 27.4329 18.4772 27.6136 18.6622 27.758C18.8471 27.9025 19.0597 28.0076 19.2868 28.067C19.5138 28.1264 19.7506 28.1387 19.9827 28.1033C20.2147 28.0679 20.437 27.9854 20.636 27.861C20.8549 27.7778 21.0546 27.6511 21.2232 27.4886C21.3917 27.3261 21.5256 27.131 21.6166 26.9153C21.7077 26.6996 21.754 26.4676 21.7529 26.2335C21.7517 25.9993 21.7031 25.7678 21.61 25.553C21.4819 25.0839 21.3192 24.6249 21.123 24.18C21.559 24.042 21.941 23.77 22.213 23.401C23.021 22.671 22.953 18.941 22.827 15.864C22.7 12.787 22.467 8.99998 21.6 8.33698Z" fill="#9BFF00" stroke="#00034A" stroke-miterlimit="10"/>
<path d="M18.9319 10.83C18.2889 9.85604 14.3059 10.09 11.9889 10.187C9.67089 10.285 5.67889 10.421 5.17289 11.404C4.58789 11.901 4.63689 14.442 4.72489 16.546C4.81189 18.649 4.96789 21.191 5.59089 21.639C6.23389 22.564 10.2169 22.389 12.5339 22.291C14.8519 22.193 18.8439 22.047 19.3989 21.074C19.9829 20.567 19.9349 18.026 19.8569 15.922C19.7789 13.819 19.5549 11.287 18.9319 10.83Z" fill="white" stroke="#00034A" stroke-miterlimit="10"/>
<path d="M33.3039 16.215C31.5519 15.075 28.5619 13.508 26.9459 14.588C26.0499 15.192 23.2359 19.214 20.9859 22.661C18.7369 26.108 16.2149 30.324 16.0299 31.376C15.6139 33.82 19.3179 36.37 21.0739 37.511C22.8269 38.65 25.8259 40.218 27.4329 39.137C28.3279 38.533 31.1529 34.511 33.3919 31.064C35.6319 27.617 38.1629 23.43 38.3479 22.34C38.7639 19.897 35.0579 17.354 33.3039 16.215Z" fill="#00034A" stroke="#00034A" stroke-miterlimit="10"/>
<path d="M37.375 21.366C37.705 19.418 35.057 17.354 33.305 16.215C31.552 15.075 28.562 13.508 26.945 14.588C26.05 15.192 23.235 19.214 20.986 22.661C18.737 26.108 16.215 30.324 16.03 31.376C15.699 33.324 18.348 35.398 20.1 36.536C21.853 37.676 24.852 39.244 26.459 38.163C27.355 37.559 30.179 33.538 32.419 30.091C34.658 26.643 37.189 22.456 37.375 21.366Z" fill="white" stroke="#00034A" stroke-miterlimit="10"/>
<path d="M28.358 28.387C29.5641 28.387 30.7208 27.9079 31.5736 27.0551C32.4264 26.2022 32.9055 25.0456 32.9055 23.8395C32.9055 22.6334 32.4264 21.4767 31.5736 20.6239C30.7208 19.7711 29.5641 19.292 28.358 19.292C27.152 19.292 25.9953 19.7711 25.1425 20.6239C24.2897 21.4767 23.8105 22.6334 23.8105 23.8395C23.8105 25.0456 24.2897 26.2022 25.1425 27.0551C25.9953 27.9079 27.152 28.387 28.358 28.387Z" fill="#9BFF00" stroke="#00034A" stroke-miterlimit="10"/>
<path d="M19.438 33.392C19.438 33.392 20.042 33.84 21.308 34.667C22.574 35.495 23.255 35.865 23.255 35.865" stroke="#00034A" stroke-miterlimit="10" stroke-linecap="round"/>
<path d="M28.4839 16.692L29.7499 17.52" stroke="#00034A" stroke-miterlimit="10" stroke-linecap="round"/>
<path d="M21.795 30.198C21.9474 30.2025 22.0993 30.1763 22.2415 30.1211C22.3837 30.0659 22.5133 29.9827 22.6228 29.8764C22.7323 29.7701 22.8193 29.643 22.8787 29.5025C22.9381 29.362 22.9687 29.211 22.9687 29.0585C22.9687 28.9059 22.9381 28.7549 22.8787 28.6144C22.8193 28.4739 22.7323 28.3468 22.6228 28.2405C22.5133 28.1342 22.3837 28.051 22.2415 27.9958C22.0993 27.9406 21.9474 27.9144 21.795 27.919C21.4986 27.9277 21.2173 28.0516 21.0108 28.2644C20.8042 28.4771 20.6887 28.762 20.6887 29.0585C20.6887 29.355 20.8042 29.6398 21.0108 29.8525C21.2173 30.0653 21.4986 30.1892 21.795 30.198Z" fill="#9BFF00" stroke="#00034A" stroke-miterlimit="10" stroke-linecap="round"/>
<path d="M26.2449 33.09C26.3974 33.0946 26.5492 33.0684 26.6914 33.0132C26.8336 32.958 26.9633 32.8748 27.0727 32.7685C27.1822 32.6622 27.2692 32.5351 27.3286 32.3946C27.3881 32.2541 27.4187 32.1031 27.4187 31.9505C27.4187 31.798 27.3881 31.647 27.3286 31.5065C27.2692 31.366 27.1822 31.2389 27.0727 31.1326C26.9633 31.0263 26.8336 30.9431 26.6914 30.8879C26.5492 30.8327 26.3974 30.8065 26.2449 30.811C25.9485 30.8198 25.6673 30.9437 25.4607 31.1565C25.2542 31.3692 25.1387 31.654 25.1387 31.9505C25.1387 32.247 25.2542 32.5319 25.4607 32.7446C25.6673 32.9574 25.9485 33.0813 26.2449 33.09Z" fill="#9BFF00" stroke="#00034A" stroke-miterlimit="10" stroke-linecap="round"/>
<path d="M28.3581 25.3579C28.5576 25.3579 28.7551 25.3187 28.9394 25.2423C29.1237 25.166 29.2912 25.0541 29.4322 24.913C29.5733 24.772 29.6851 24.6045 29.7615 24.4202C29.8378 24.2359 29.8771 24.0384 29.8771 23.8389C29.8771 23.6395 29.8378 23.4419 29.7615 23.2577C29.6851 23.0734 29.5733 22.9059 29.4322 22.7649C29.2912 22.6238 29.1237 22.5119 28.9394 22.4356C28.7551 22.3592 28.5576 22.3199 28.3581 22.3199C27.9552 22.3199 27.5689 22.48 27.284 22.7649C26.9991 23.0497 26.8391 23.4361 26.8391 23.8389C26.8391 24.2418 26.9991 24.6282 27.284 24.913C27.5689 25.1979 27.9552 25.3579 28.3581 25.3579Z" fill="white" stroke="#00034A" stroke-miterlimit="10" stroke-linecap="round"/>
<path d="M28.0361 22.35L27.7251 20.87" stroke="#00034A" stroke-miterlimit="10" stroke-linecap="round"/>
<path d="M28.9799 26.7999L28.6699 25.3199" stroke="#00034A" stroke-miterlimit="10" stroke-linecap="round"/>
<path d="M29.8379 23.5181L31.3179 23.2061" stroke="#00034A" stroke-miterlimit="10" stroke-linecap="round"/>
<path d="M25.3879 24.462L26.8779 24.151" stroke="#00034A" stroke-miterlimit="10" stroke-linecap="round"/>
<path d="M32.788 6.54501C31.9939 6.19957 31.1802 5.90138 30.351 5.65201C30.803 4.71001 31.185 3.73601 31.493 2.73801C31.522 2.63571 31.5297 2.52856 31.5158 2.42315C31.5019 2.31773 31.4665 2.21627 31.412 2.12501C31.212 1.79301 30.773 1.38101 30.467 1.16201C30.3807 1.1002 30.2827 1.05664 30.179 1.03401C29.507 0.878015 25.787 0.323014 25.309 0.557014C25.1099 0.620293 24.9408 0.75409 24.8335 0.933262C24.7261 1.11243 24.6879 1.32464 24.726 1.53001C24.971 2.44953 25.2966 3.34566 25.699 4.20801C24.9938 3.98883 24.2707 3.83255 23.538 3.74101C23.051 3.74101 22.788 4.10101 22.671 4.47101C22.5849 4.65937 22.57 4.87251 22.629 5.07101C22.684 5.25801 23.525 6.15801 23.723 6.28201C24.462 6.62601 25.221 6.92401 25.995 7.17601C25.571 8.06201 25.212 8.97601 24.92 9.91401C24.8794 10.1201 24.9169 10.3339 25.025 10.514C25.141 10.707 26.044 11.56 26.235 11.618C26.3998 11.7241 26.5961 11.7704 26.791 11.7493C26.9859 11.7282 27.1676 11.6409 27.306 11.502C27.65 11.015 27.956 10.502 28.221 9.96801C28.463 10.438 28.726 10.898 29.011 11.346C29.1263 11.5138 29.2992 11.6334 29.497 11.682C29.577 11.814 29.657 11.946 29.74 12.076C29.8568 12.2445 30.0313 12.3643 30.2305 12.4128C30.4297 12.4612 30.6398 12.435 30.821 12.339C31.357 12.232 33.499 8.96001 33.84 8.35601C33.9166 8.21776 33.95 8.05966 33.9357 7.90221C33.9215 7.74477 33.8602 7.59524 33.76 7.47301C33.596 7.27301 33.016 6.66501 32.788 6.54501Z" fill="#00034A" stroke="#00034A" stroke-miterlimit="10"/>
<path d="M29.3901 5.38601C29.9439 4.30156 30.4033 3.17137 30.7631 2.00801C30.792 1.90565 30.7996 1.79845 30.7856 1.69302C30.7715 1.58758 30.7361 1.48613 30.6814 1.3949C30.6267 1.30368 30.5539 1.2246 30.4675 1.16254C30.3811 1.10048 30.283 1.05674 30.1791 1.03401C29.5071 0.878015 25.7871 0.323014 25.3091 0.557014C25.11 0.620293 24.9409 0.75409 24.8336 0.933262C24.7262 1.11243 24.688 1.32464 24.7261 1.53001C24.9711 2.44953 25.2967 3.34566 25.6991 4.20801C24.9939 3.98883 24.2708 3.83255 23.5381 3.74101C23.0511 3.74101 22.7881 4.10101 22.6711 4.47101C22.5847 4.65954 22.5697 4.87297 22.6287 5.07175C22.6877 5.27052 22.8168 5.44115 22.9921 5.55201C24.0321 6.03501 25.1101 6.42901 26.2151 6.73001C25.6945 7.75297 25.2613 8.8181 24.9201 9.91401C24.8798 10.12 24.9173 10.3336 25.0253 10.5135C25.1334 10.6934 25.3043 10.8268 25.5051 10.888C25.6699 10.9937 25.866 11.0397 26.0607 11.0185C26.2554 10.9972 26.4369 10.9098 26.5751 10.771C27.0074 10.1596 27.3791 9.50749 27.6851 8.82401C28.0571 9.69947 28.5002 10.543 29.0101 11.346C29.1269 11.5145 29.3014 11.6343 29.5006 11.6828C29.6998 11.7312 29.9099 11.705 30.0911 11.609C30.6261 11.502 32.7691 8.22901 33.1101 7.62601C33.1608 7.53417 33.1927 7.43315 33.2039 7.32884C33.2151 7.22453 33.2055 7.11903 33.1755 7.0185C33.1455 6.91796 33.0958 6.8244 33.0293 6.74328C32.9628 6.66216 32.8808 6.5951 32.7881 6.54601C31.689 6.06724 30.5525 5.67928 29.3901 5.38601ZM27.5691 3.05001L27.9691 3.10901C27.9076 3.23764 27.8422 3.36436 27.7731 3.48901L27.5691 3.05001ZM29.7101 7.85001L30.1291 7.95701L29.8951 8.29801L29.7101 7.85001Z" fill="#9BFF00" stroke="#00034A" stroke-miterlimit="10"/>
<path d="M36.0701 10.4301C35.3221 10.4301 34.7161 11.0371 34.7161 11.7841C34.7161 12.6111 35.7301 13.6241 36.5561 13.6241C37.3041 13.6241 37.9101 13.0181 37.9101 12.2711C37.9101 11.4441 36.8971 10.4301 36.0701 10.4301Z" fill="#00034A" stroke="#00034A" stroke-miterlimit="10"/>
<path d="M36.0701 13.138C36.429 13.138 36.7733 12.9954 37.0271 12.7416C37.281 12.4878 37.4236 12.1435 37.4236 11.7845C37.4236 11.4256 37.281 11.0813 37.0271 10.8275C36.7733 10.5736 36.429 10.431 36.0701 10.431C35.7111 10.431 35.3668 10.5736 35.113 10.8275C34.8592 11.0813 34.7166 11.4256 34.7166 11.7845C34.7166 12.1435 34.8592 12.4878 35.113 12.7416C35.3668 12.9954 35.7111 13.138 36.0701 13.138Z" fill="#9BFF00" stroke="#00034A" stroke-miterlimit="10"/>
<path d="M10.528 30.276C9.60303 30.276 8.85303 31.026 8.85303 31.951C8.85303 32.96 10.006 34.112 11.015 34.112C11.94 34.112 12.69 33.362 12.69 32.437C12.69 31.428 11.537 30.276 10.528 30.276Z" fill="#00034A" stroke="#00034A" stroke-miterlimit="10"/>
<path d="M10.528 33.625C10.9723 33.625 11.3983 33.4486 11.7124 33.1344C12.0266 32.8203 12.203 32.3943 12.203 31.95C12.203 31.5058 12.0266 31.0797 11.7124 30.7656C11.3983 30.4515 10.9723 30.275 10.528 30.275C10.0838 30.275 9.65775 30.4515 9.34362 30.7656C9.0295 31.0797 8.85303 31.5058 8.85303 31.95C8.85303 32.3943 9.0295 32.8203 9.34362 33.1344C9.65775 33.4486 10.0838 33.625 10.528 33.625Z" fill="#9BFF00" stroke="#00034A" stroke-miterlimit="10"/>
</svg>
