<svg width="40" height="40" viewBox="0 0 40 40" fill="none" xmlns="http://www.w3.org/2000/svg">
<path d="M8.27902 23.2801C7.8149 24.6374 7.5889 26.0647 7.61102 27.4991C7.61102 34.7451 13.668 39.5001 20.611 39.5001C28.462 39.5001 32.437 35.1381 32.437 28.6821C32.447 27.0171 32.117 25.3681 31.467 23.8351C32.8942 23.3359 34.2451 22.6409 35.481 21.7701C35.8549 21.4095 36.1196 20.9509 36.2446 20.4468C36.3697 19.9427 36.3501 19.4135 36.188 18.9201C35.639 17.6361 34.053 16.1101 32.573 16.0401C32.083 15.9711 30.723 16.3501 29.116 16.8891C29.38 15.9321 29.504 14.9371 29.48 13.9371C29.5346 12.1208 29.092 10.3241 28.2 8.74106C28.404 6.68606 28.52 4.80606 28.482 4.48606C28.292 3.05606 25.483 1.58606 24.362 1.14106C23.286 0.71506 21.454 0.17206 20.756 0.75406C19.8914 1.74409 19.0886 2.7864 18.352 3.87506C13.156 4.28206 10.597 7.75306 10.597 12.6871C10.552 14.3968 10.9386 16.0902 11.721 17.6111C9.32702 16.7391 6.94202 15.9541 6.25402 16.0511C5.73001 16.0712 5.22265 16.2406 4.79164 16.5392C4.36062 16.8379 4.02387 17.2535 3.82102 17.7371C3.65542 18.2266 3.62944 18.7526 3.74602 19.2561C3.97602 20.2491 4.99902 21.1001 5.69202 21.7991C6.50902 22.3691 7.37502 22.8651 8.27902 23.2791V23.2801Z" fill="#00034A" stroke="#00034A" stroke-miterlimit="10"/>
<path d="M34.9769 17.7081C34.7733 17.2324 34.4398 16.8237 34.0147 16.5288C33.5895 16.234 33.0898 16.0649 32.5729 16.0411C31.8939 15.9441 29.5379 16.7101 27.1729 17.5731C27.9315 16.0722 28.308 14.4073 28.2689 12.7261C28.3235 10.9098 27.8809 9.11315 26.9889 7.53006C27.1929 5.47506 27.3089 3.59406 27.2699 3.27406C27.1539 2.40206 25.4379 1.56806 24.3619 1.14106C23.2859 0.71506 21.4539 0.17206 20.7559 0.75406C19.8913 1.74409 19.0885 2.7864 18.3519 3.87506C13.1559 4.28206 10.5969 7.75306 10.5969 12.6871C10.5519 14.3968 10.9385 16.0902 11.7209 17.6111C9.32691 16.7391 6.94191 15.9541 6.25391 16.0511C5.7299 16.0712 5.22254 16.2406 4.79153 16.5392C4.36051 16.8379 4.02376 17.2535 3.82091 17.7371C3.65527 18.2264 3.62919 18.7523 3.74559 19.2557C3.86198 19.759 4.11625 20.2201 4.47991 20.5871C5.72446 21.455 7.08122 22.1496 8.51291 22.6521C7.89159 24.1917 7.58457 25.84 7.60991 27.5001C7.60991 33.9271 11.5459 38.2901 19.3979 38.2901C27.2499 38.2901 31.2239 33.9271 31.2239 27.4701C31.2339 25.8061 30.9039 24.1571 30.2539 22.6241C31.6811 22.1249 33.032 21.43 34.2679 20.5591C34.6419 20.1986 34.9067 19.74 35.0319 19.2359C35.1571 18.7318 35.1377 18.2026 34.9759 17.7091L34.9769 17.7081Z" fill="#9BFF00" stroke="#00034A" stroke-miterlimit="10"/>
<path d="M24.9819 6.57999C24.3069 6.11599 23.5819 5.72899 22.8209 5.42599C22.0732 5.07903 21.2894 4.81577 20.4839 4.64099" stroke="#00034A" stroke-miterlimit="10" stroke-linecap="round"/>
<path d="M19.4179 26.481C19.9399 26.481 20.4405 26.2737 20.8095 25.9046C21.1786 25.5356 21.386 25.035 21.386 24.513C21.386 23.9911 21.1786 23.4905 20.8095 23.1215C20.4405 22.7524 19.9399 22.545 19.4179 22.545C18.896 22.545 18.3954 22.7524 18.0264 23.1215C17.6573 23.4905 17.45 23.9911 17.45 24.513C17.45 25.035 17.6573 25.5356 18.0264 25.9046C18.3954 26.2737 18.896 26.481 19.4179 26.481Z" fill="white" stroke="#00034A" stroke-miterlimit="10"/>
<path d="M19.4179 33.373C19.6801 33.3789 19.9407 33.3324 20.1846 33.2362C20.4285 33.1399 20.6507 32.996 20.8381 32.8127C21.0256 32.6294 21.1745 32.4105 21.2762 32.1689C21.3779 31.9272 21.4303 31.6677 21.4303 31.4055C21.4303 31.1433 21.3779 30.8838 21.2762 30.6421C21.1745 30.4005 21.0256 30.1816 20.8381 29.9983C20.6507 29.815 20.4285 29.6711 20.1846 29.5748C19.9407 29.4786 19.6801 29.4321 19.4179 29.438C18.896 29.438 18.3954 29.6453 18.0264 30.0144C17.6573 30.3835 17.45 30.8841 17.45 31.406C17.45 31.9279 17.6573 32.4285 18.0264 32.7976C18.3954 33.1667 18.896 33.373 19.4179 33.373Z" fill="white" stroke="#00034A" stroke-miterlimit="10"/>
<path d="M15.9769 12.706C16.3677 12.706 16.7425 12.5508 17.0188 12.2745C17.2952 11.9981 17.4504 11.6233 17.4504 11.2325C17.4504 10.8417 17.2952 10.4669 17.0188 10.1906C16.7425 9.91428 16.3677 9.75903 15.9769 9.75903C15.5861 9.75903 15.2113 9.91428 14.935 10.1906C14.6587 10.4669 14.5034 10.8417 14.5034 11.2325C14.5034 11.6233 14.6587 11.9981 14.935 12.2745C15.2113 12.5508 15.5861 12.706 15.9769 12.706Z" fill="#00034A"/>
<path d="M22.86 12.706C23.2508 12.706 23.6256 12.5508 23.9019 12.2745C24.1782 11.9981 24.3335 11.6233 24.3335 11.2325C24.3335 10.8417 24.1782 10.4669 23.9019 10.1906C23.6256 9.91428 23.2508 9.75903 22.86 9.75903C22.4692 9.75903 22.0944 9.91428 21.8181 10.1906C21.5417 10.4669 21.3865 10.8417 21.3865 11.2325C21.3865 11.6233 21.5417 11.9981 21.8181 12.2745C22.0944 12.5508 22.4692 12.706 22.86 12.706Z" fill="#00034A"/>
<path d="M21.1601 15.25C21.1671 16 20.3901 16.615 19.4241 16.623C18.4581 16.631 17.6701 16.029 17.6641 15.279" stroke="#00034A" stroke-linecap="round"/>
</svg>
