<svg width="40" height="40" viewBox="0 0 40 40" fill="none" xmlns="http://www.w3.org/2000/svg">
<g clip-path="url(#clip0_2301_13222)">
<path d="M8.20996 22.74C8.20996 24.6151 8.95483 26.4134 10.2807 27.7393C11.6066 29.0651 13.4049 29.81 15.28 29.81C17.155 29.81 18.9533 29.0651 20.2792 27.7393C21.6051 26.4134 22.35 24.6151 22.35 22.74C22.35 20.8649 21.6051 19.0667 20.2792 17.7408C18.9533 16.4149 17.155 15.67 15.28 15.67C13.4049 15.67 11.6066 16.4149 10.2807 17.7408C8.95483 19.0667 8.20996 20.8649 8.20996 22.74Z" fill="#FFE236" stroke="#231F20" stroke-miterlimit="10"/>
<path d="M15.92 11.69C15.92 11.69 15.92 11.12 14.67 9.63002C14.223 9.0755 13.7091 8.5784 13.14 8.15002C12.9635 8.04138 12.7528 8.00269 12.5493 8.04155C12.3457 8.08041 12.1641 8.19401 12.04 8.36002C11.6594 8.95901 11.3569 9.60425 11.14 10.28C10.8525 11.037 10.7068 11.8403 10.71 12.65C10.7322 12.8353 10.8147 13.0081 10.9448 13.1419C11.0749 13.2756 11.2454 13.3628 11.43 13.39C12.1294 13.4372 12.8319 13.3935 13.52 13.26C14.2096 13.1362 14.8813 12.9279 15.52 12.64C15.6826 12.5506 15.8109 12.4099 15.8851 12.2398C15.9593 12.0698 15.9751 11.88 15.93 11.7L15.92 11.69Z" fill="#FFE236" stroke="#231F20" stroke-miterlimit="10"/>
<path d="M14.6601 34C14.6601 34 14.6601 34.57 15.9101 36.06C16.3565 36.6122 16.8705 37.1061 17.4401 37.53C17.614 37.6444 17.8253 37.6875 18.0301 37.6502C18.235 37.613 18.4176 37.4983 18.5401 37.33C18.9187 36.7299 19.221 36.0849 19.4401 35.41C19.7313 34.6402 19.8771 33.823 19.8701 33C19.8513 32.8135 19.7699 32.6388 19.6392 32.5044C19.5084 32.3701 19.336 32.2839 19.1501 32.26C18.4541 32.2125 17.7548 32.2562 17.0701 32.39C16.3797 32.5103 15.7075 32.7186 15.0701 33.01C14.9099 33.1019 14.7835 33.2429 14.7097 33.4122C14.6358 33.5815 14.6184 33.7701 14.6601 33.95V34Z" fill="#FFE236" stroke="#231F20" stroke-miterlimit="10"/>
<path d="M7.86995 14.5C7.86995 14.5 7.46995 14.1 5.51995 13.93C4.81318 13.8629 4.10074 13.8864 3.39995 14C3.19709 14.0435 3.01867 14.1632 2.90145 14.3344C2.78423 14.5055 2.73716 14.7152 2.76995 14.92C2.92397 15.6146 3.16592 16.2867 3.48995 16.92C3.82682 17.6613 4.29044 18.3381 4.85995 18.92C5.00583 19.0243 5.18065 19.0803 5.35995 19.0803C5.53925 19.0803 5.71406 19.0243 5.85995 18.92C6.38222 18.4578 6.84269 17.9301 7.22995 17.35C7.64675 16.7823 7.98325 16.1597 8.22995 15.5C8.29162 15.3161 8.28855 15.1167 8.22124 14.9348C8.15394 14.7529 8.02645 14.5995 7.85995 14.5H7.86995Z" fill="#FFE236" stroke="#231F20" stroke-miterlimit="10"/>
<path d="M22.72 31.14C22.72 31.14 23.12 31.53 25.06 31.71C25.7641 31.7955 26.4759 31.7955 27.18 31.71C27.3829 31.6665 27.5613 31.5468 27.6785 31.3757C27.7957 31.2045 27.8428 30.9949 27.81 30.79C27.6575 30.095 27.4155 29.4228 27.09 28.79C26.7578 28.0461 26.2936 27.3685 25.72 26.79C25.5741 26.6858 25.3993 26.6297 25.22 26.6297C25.0407 26.6297 24.8659 26.6858 24.72 26.79C24.1952 27.2497 23.7344 27.7778 23.35 28.36C22.9384 28.9274 22.6022 29.5459 22.35 30.2C22.2884 30.3839 22.2914 30.5833 22.3587 30.7652C22.426 30.9471 22.5535 31.1006 22.72 31.2V31.14Z" fill="#FFE236" stroke="#231F20" stroke-miterlimit="10"/>
<path d="M4.16001 22.19C4.16001 22.19 3.59001 22.19 2.10001 23.44C1.54592 23.8957 1.05197 24.4199 0.630007 25C0.518002 25.1747 0.47636 25.3853 0.513473 25.5894C0.550587 25.7935 0.663697 25.976 0.830007 26.1C1.43013 26.4786 2.0751 26.781 2.75001 27C3.50725 27.2864 4.31042 27.4321 5.12001 27.43C5.30528 27.4079 5.47812 27.3254 5.61185 27.1952C5.74559 27.0651 5.83279 26.8946 5.86001 26.71C5.90717 26.0107 5.86348 25.3081 5.73001 24.62C5.61107 23.9293 5.40265 23.2569 5.11001 22.62C5.0219 22.4563 4.88135 22.3268 4.7109 22.2525C4.54045 22.1781 4.34997 22.1632 4.17001 22.21L4.16001 22.19Z" fill="#FFE236" stroke="#231F20" stroke-miterlimit="10"/>
<path d="M26.4201 23.45C26.4201 23.45 26.9901 23.45 28.4801 22.2C29.0486 21.7555 29.5593 21.2415 30.0001 20.67C30.111 20.4942 30.1511 20.2828 30.1121 20.0786C30.0731 19.8744 29.958 19.6926 29.7901 19.57C29.1911 19.1894 28.5458 18.8869 27.8701 18.67C27.1131 18.3825 26.3098 18.2368 25.5001 18.24C25.3135 18.2588 25.1389 18.3402 25.0045 18.4709C24.8701 18.6017 24.784 18.7741 24.7601 18.96C24.7028 19.6411 24.733 20.3266 24.8501 21C24.9703 21.6905 25.1787 22.3626 25.4701 23C25.5619 23.1602 25.703 23.2866 25.8723 23.3605C26.0416 23.4343 26.2301 23.4517 26.4101 23.41L26.4201 23.45Z" fill="#FFE236" stroke="#231F20" stroke-miterlimit="10"/>
<path d="M6.99992 30.24C6.99992 30.24 6.60992 30.64 6.42992 32.58C6.34465 33.2875 6.34465 34.0026 6.42992 34.71C6.47559 34.9117 6.59576 35.0886 6.76636 35.2055C6.93695 35.3223 7.14539 35.3703 7.34992 35.34C8.0449 35.1875 8.71718 34.9455 9.34992 34.62C10.0912 34.2831 10.768 33.8195 11.3499 33.25C11.4542 33.1041 11.5102 32.9293 11.5102 32.75C11.5102 32.5707 11.4542 32.3959 11.3499 32.25C10.8877 31.7277 10.36 31.2673 9.77992 30.88C9.21406 30.4659 8.59521 30.1296 7.93992 29.88C7.75581 29.822 7.55763 29.8269 7.37659 29.8939C7.19555 29.9609 7.04193 30.0861 6.93992 30.25H6.99992V30.24Z" fill="#FFE236" stroke="#231F20" stroke-miterlimit="10"/>
<path d="M23.6099 15.39C23.6099 15.39 24.0099 14.99 24.1799 13.05C24.2707 12.3463 24.2707 11.6338 24.1799 10.93C24.1364 10.7272 24.0167 10.5487 23.8456 10.4315C23.6744 10.3143 23.4648 10.2672 23.2599 10.3C22.5653 10.454 21.8933 10.696 21.2599 11.02C20.516 11.3522 19.8384 11.8164 19.2599 12.39C19.1557 12.5359 19.0996 12.7107 19.0996 12.89C19.0996 13.0693 19.1557 13.2441 19.2599 13.39C19.7103 13.9244 20.2279 14.3983 20.7999 14.8C21.3692 15.2143 21.9914 15.5506 22.6499 15.8C22.8335 15.8656 23.0343 15.8645 23.2172 15.7968C23.4 15.7292 23.5532 15.5993 23.6499 15.43L23.6099 15.39Z" fill="#FFE236" stroke="#231F20" stroke-miterlimit="10"/>
<path d="M17 17.68C17.7841 17.864 18.4865 18.2995 19 18.92" stroke="white" stroke-miterlimit="10" stroke-linecap="round"/>
<path d="M33.9999 10.87C34.2563 11.2813 34.6608 11.5785 35.1299 11.7C33.4699 12.7 33.5099 13.28 33.8299 13.86C34.1499 14.44 34.9999 14.67 36.9999 13.6C38.9999 12.53 39.5099 11.6 39.1699 10.95C38.9042 10.5304 38.4839 10.2322 37.9999 10.12C39.6599 9.12002 39.6099 8.54002 39.2999 7.96002C38.9899 7.38002 38.1299 7.15002 36.1799 8.22002C34.2299 9.29002 33.6999 10.25 33.9999 10.87Z" fill="#48EEFF" stroke="#231F20" stroke-miterlimit="10" stroke-linecap="round"/>
<path d="M26.6501 7.47001C27.1509 7.78175 27.7524 7.88915 28.3301 7.77001C27.0601 9.77001 27.4301 10.35 28.0801 10.77C28.7301 11.19 29.7801 11.02 31.3201 8.77001C32.8601 6.52001 32.9401 5.22001 32.2401 4.77001C31.7421 4.46035 31.1433 4.35636 30.5701 4.48001C31.8401 2.48001 31.4701 1.89001 30.8101 1.48001C30.1501 1.07001 29.1101 1.23001 27.5801 3.48001C26.0501 5.73001 26.0001 7.00001 26.6501 7.47001Z" fill="#48EEFF" stroke="#231F20" stroke-miterlimit="10" stroke-linecap="round"/>
<path d="M37.0701 22.32C36.9501 21.32 35.7501 20.47 34.2501 19.76C34.4701 19 34.6201 18.11 34.2501 17.76C33.43 17.2201 32.5236 16.8244 31.5701 16.59C30.6542 16.2295 29.6838 16.0266 28.7001 15.99C28.1901 15.99 27.8001 16.84 27.5401 17.59C25.9101 17.3 24.4201 17.3 23.7501 18.04C22.8501 18.56 21.3601 22.39 20.3201 25.64C19.2801 28.89 18.3201 32.87 18.7101 33.82C18.9101 35.5 22.2601 36.82 24.8401 37.64C27.4201 38.46 30.9101 39.33 32.0501 38.08C32.9501 37.56 34.4401 33.72 35.4801 30.48C36.5201 27.24 37.5001 23.27 37.0701 22.32Z" fill="#FF52A1" stroke="#231F20" stroke-miterlimit="10"/>
<path d="M33.5 21.54C35.37 22.62 35.5 23.16 35.28 24.06" stroke="white" stroke-miterlimit="10" stroke-linecap="round"/>
<path d="M21.1602 30.79C24.6226 32.3715 28.2618 33.533 32.0002 34.25" stroke="#231F20" stroke-miterlimit="10" stroke-linecap="round"/>
<path d="M23.6802 22.91C27.1486 24.4962 30.7946 25.6611 34.5402 26.38" stroke="#231F20" stroke-miterlimit="10" stroke-linecap="round"/>
</g>
<defs>
<clipPath id="clip0_2301_13222">
<rect width="40" height="40" fill="white"/>
</clipPath>
</defs>
</svg>
