<svg width="110" height="15" viewBox="0 0 110 15" fill="none" xmlns="http://www.w3.org/2000/svg">
<path d="M4.46396 7.88398C1.40396 7.46998 0.143963 6.19198 0.143963 4.10398V3.90598C0.143963 1.51198 1.90796 -1.95503e-05 4.76996 -1.95503e-05C7.99196 -1.95503e-05 9.37796 1.58398 9.37796 4.62598V5.05798H7.50596C7.50596 2.68198 6.71396 1.65598 4.78796 1.65598H4.66196C3.13196 1.65598 2.06996 2.48398 2.06996 3.76198V3.90598C2.06996 5.21998 2.71796 5.99398 5.09396 6.31798C8.15396 6.73198 9.52196 7.90198 9.52196 10.206V10.404C9.52196 12.96 7.73996 14.472 4.76996 14.472C1.65596 14.472 -3.7089e-05 12.852 -3.7089e-05 9.77398V9.59398H1.87196C1.87196 11.826 3.00596 12.816 4.69796 12.816H4.84196C6.53396 12.816 7.59596 11.916 7.59596 10.494V10.35C7.59596 8.92798 6.76796 8.18998 4.46396 7.88398ZM15.9719 1.87198V14.256H14.0999V1.87198H10.6439V0.215981H19.4279V1.87198H15.9719ZM22.9788 0.215981V14.256H21.1068V0.215981H22.9788ZM27.1016 7.59598C27.1016 11.16 27.9296 12.816 30.1256 12.816H30.2516C32.1236 12.816 32.8796 11.628 32.8796 9.59398H34.7696V9.77398C34.7696 12.924 33.2396 14.472 30.1256 14.472C26.7596 14.472 25.1756 12.456 25.1756 7.59598V6.87598C25.1756 2.01598 26.7596 -1.95503e-05 30.1256 -1.95503e-05C33.2396 -1.95503e-05 34.7696 1.54798 34.7696 4.85998V5.41798H32.8796C32.8796 2.86198 32.1596 1.65598 30.2516 1.65598H30.1256C27.9476 1.65598 27.1016 3.31198 27.1016 6.87598V7.59598ZM38.6915 0.215981V7.14598L43.3355 0.215981H45.6035L41.5175 6.02998L45.6035 14.256H43.5155L40.3475 7.68598L38.6915 10.044V14.256H36.8195V0.215981H38.6915ZM49.3108 0.215981V14.256H47.4388V0.215981H49.3108ZM51.8137 0.215981H59.9137V1.87198H53.6857V6.26398H59.0137V7.91998H53.6857V12.6H59.9137V14.256H51.8137V0.215981ZM65.8292 7.88398C62.7692 7.46998 61.5092 6.19198 61.5092 4.10398V3.90598C61.5092 1.51198 63.2732 -1.95503e-05 66.1352 -1.95503e-05C69.3572 -1.95503e-05 70.7432 1.58398 70.7432 4.62598V5.05798H68.8712C68.8712 2.68198 68.0792 1.65598 66.1532 1.65598H66.0272C64.4972 1.65598 63.4352 2.48398 63.4352 3.76198V3.90598C63.4352 5.21998 64.0832 5.99398 66.4592 6.31798C69.5192 6.73198 70.8872 7.90198 70.8872 10.206V10.404C70.8872 12.96 69.1052 14.472 66.1352 14.472C63.0212 14.472 61.3652 12.852 61.3652 9.77398V9.59398H63.2372C63.2372 11.826 64.3712 12.816 66.0632 12.816H66.2072C67.8992 12.816 68.9612 11.916 68.9612 10.494V10.35C68.9612 8.92798 68.1332 8.18998 65.8292 7.88398ZM85.9806 7.59598C85.9806 12.456 84.0726 14.256 80.3826 14.256H76.4406V0.215981H80.3826C84.0726 0.215981 85.9806 2.01598 85.9806 6.87598V7.59598ZM78.3126 12.6H80.2566C82.8486 12.6 84.0546 11.16 84.0546 7.59598V6.87598C84.0546 3.31198 82.8486 1.87198 80.2566 1.87198H78.3126V12.6ZM92.7209 14.472C89.4269 14.472 88.0049 13.14 88.0049 9.88198V0.215981H89.8769V9.79198C89.8769 12.024 90.7409 12.816 92.7209 12.816C94.6829 12.816 95.5469 12.024 95.5469 9.79198V0.215981H97.4189V9.88198C97.4189 13.14 95.9969 14.472 92.7209 14.472ZM104.465 14.472C101.081 14.472 99.4432 12.456 99.4432 7.59598V6.87598C99.4432 2.01598 101.081 -1.95503e-05 104.465 -1.95503e-05C107.831 -1.95503e-05 109.469 2.01598 109.469 6.87598V7.59598C109.469 12.456 107.831 14.472 104.465 14.472ZM104.393 12.816H104.519C106.679 12.816 107.543 11.16 107.543 7.59598V6.87598C107.543 3.31198 106.679 1.65598 104.519 1.65598H104.393C102.233 1.65598 101.369 3.31198 101.369 6.87598V7.59598C101.369 11.16 102.233 12.816 104.393 12.816Z" fill="#121212"/>
</svg>
