<svg width="40" height="40" viewBox="0 0 40 40" fill="none" xmlns="http://www.w3.org/2000/svg">
<g clip-path="url(#clip0_2301_13187)">
<path d="M19.3699 15.5C19.3699 16.3457 19.5364 17.1831 19.8601 17.9645C20.1837 18.7458 20.6581 19.4558 21.2561 20.0538C21.8541 20.6518 22.5641 21.1261 23.3454 21.4498C24.1267 21.7734 24.9642 21.94 25.8099 21.94C26.6556 21.94 27.493 21.7734 28.2744 21.4498C29.0557 21.1261 29.7656 20.6518 30.3636 20.0538C30.9616 19.4558 31.436 18.7458 31.7597 17.9645C32.0833 17.1831 32.2499 16.3457 32.2499 15.5C32.2499 14.6543 32.0833 13.8169 31.7597 13.0355C31.436 12.2542 30.9616 11.5442 30.3636 10.9462C29.7656 10.3482 29.0557 9.87385 28.2744 9.55021C27.493 9.22657 26.6556 9.06 25.8099 9.06C24.9642 9.06 24.1267 9.22657 23.3454 9.55021C22.5641 9.87385 21.8541 10.3482 21.2561 10.9462C20.6581 11.5442 20.1837 12.2542 19.8601 13.0355C19.5364 13.8169 19.3699 14.6543 19.3699 15.5Z" fill="#FFE236" stroke="#231F20" stroke-miterlimit="10"/>
<path d="M27.9999 5.65001C27.9999 5.65001 28.0699 5.14001 27.1699 3.65001C26.8464 3.07724 26.4534 2.54657 25.9999 2.07001C25.8624 1.94702 25.6844 1.87903 25.4999 1.87903C25.3155 1.87903 25.1374 1.94702 24.9999 2.07001C24.572 2.55418 24.2089 3.09204 23.9199 3.67001C23.5488 4.30808 23.3012 5.01031 23.1899 5.74001C23.1839 5.90963 23.2334 6.07659 23.3308 6.21555C23.4283 6.35451 23.5684 6.45789 23.7299 6.51001C24.3538 6.64511 24.992 6.70221 25.6299 6.68001C26.2658 6.67366 26.898 6.58286 27.5099 6.41001C27.6666 6.35188 27.8002 6.24434 27.8904 6.10363C27.9806 5.96292 28.0226 5.79668 28.0099 5.63001L27.9999 5.65001Z" fill="#FFE236" stroke="#231F20" stroke-miterlimit="10"/>
<path d="M23.65 25.49C23.65 25.49 23.58 26 24.48 27.49C24.8038 28.0535 25.1968 28.5742 25.65 29.04C25.7875 29.163 25.9655 29.231 26.15 29.231C26.3345 29.231 26.5125 29.163 26.65 29.04C27.0754 28.5539 27.4382 28.0164 27.73 27.44C28.0985 26.8008 28.346 26.099 28.46 25.37C28.4654 25.1991 28.4144 25.0312 28.3151 24.8921C28.2157 24.753 28.0734 24.6503 27.91 24.6C27.2846 24.4526 26.6419 24.3921 26 24.42C25.3645 24.4316 24.733 24.5223 24.12 24.69C23.9624 24.751 23.8283 24.8603 23.7367 25.0022C23.645 25.1441 23.6007 25.3114 23.61 25.48L23.65 25.49Z" fill="#FFE236" stroke="#231F20" stroke-miterlimit="10"/>
<path d="M20.33 7.00001C20.33 7.00001 20.02 6.59001 18.33 6.15001C17.7066 5.9841 17.065 5.89675 16.42 5.89001C16.2324 5.90015 16.0558 5.98121 15.9258 6.11677C15.7958 6.25232 15.7222 6.43222 15.72 6.62001C15.7542 7.26663 15.8753 7.90569 16.08 8.52002C16.2728 9.23874 16.5947 9.91643 17.03 10.52C17.1453 10.6461 17.2992 10.7302 17.4676 10.7592C17.636 10.7881 17.8092 10.7603 17.96 10.68C18.4979 10.3428 18.9888 9.93595 19.42 9.47002C19.8665 9.01316 20.2499 8.49859 20.56 7.94001C20.6306 7.78731 20.6493 7.61567 20.6132 7.45133C20.5771 7.28699 20.4882 7.13901 20.36 7.03001L20.33 7.00001Z" fill="#FFE236" stroke="#231F20" stroke-miterlimit="10"/>
<path d="M31.2999 24.11C31.2999 24.11 31.6099 24.53 33.2999 24.96C33.9231 25.1277 34.5646 25.2184 35.2099 25.23C35.3983 25.2174 35.575 25.1342 35.7048 24.9971C35.8345 24.8599 35.9078 24.6788 35.9099 24.49C35.8697 23.8441 35.7487 23.2058 35.5499 22.59C35.355 21.872 35.0332 21.1947 34.5999 20.59C34.4846 20.4639 34.3306 20.3798 34.1622 20.3508C33.9939 20.3219 33.8207 20.3497 33.6699 20.43C33.1349 20.7751 32.6445 21.1848 32.2099 21.65C31.7619 22.1019 31.3783 22.6134 31.0699 23.17C30.9992 23.3227 30.9805 23.4943 31.0166 23.6587C31.0527 23.823 31.1417 23.971 31.2699 24.08L31.2999 24.11Z" fill="#FFE236" stroke="#231F20" stroke-miterlimit="10"/>
<path d="M15.8899 13.41C15.8899 13.41 15.3799 13.33 13.8899 14.24C13.33 14.5606 12.8126 14.9503 12.3499 15.4C12.2269 15.5375 12.1589 15.7155 12.1589 15.9C12.1589 16.0845 12.2269 16.2625 12.3499 16.4C12.8395 16.8238 13.3764 17.1895 13.9499 17.49C14.5922 17.8499 15.2929 18.0936 16.0199 18.21C16.1899 18.2177 16.3576 18.1689 16.4969 18.0712C16.6362 17.9735 16.7393 17.8324 16.7899 17.67C16.9356 17.0477 16.9962 16.4086 16.9699 15.77C16.9584 15.1345 16.8677 14.503 16.6999 13.89C16.6399 13.7325 16.5305 13.5987 16.3881 13.5085C16.2457 13.4184 16.0779 13.3768 15.9099 13.39L15.8899 13.41Z" fill="#FFE236" stroke="#231F20" stroke-miterlimit="10"/>
<path d="M35.74 17.73C35.74 17.73 36.24 17.81 37.74 16.9C38.3008 16.5769 38.8183 16.1838 39.28 15.73C39.405 15.5936 39.4744 15.4151 39.4744 15.23C39.4744 15.0449 39.405 14.8665 39.28 14.73C38.7927 14.3033 38.2555 13.9372 37.68 13.64C37.0355 13.275 36.3312 13.0278 35.6 12.91C35.43 12.9034 35.2628 12.9541 35.125 13.0538C34.9872 13.1535 34.8868 13.2965 34.84 13.46C34.6944 14.0789 34.6338 14.7148 34.66 15.35C34.6641 15.986 34.755 16.6185 34.93 17.23C34.9868 17.3904 35.0951 17.5274 35.2381 17.6196C35.381 17.7119 35.5504 17.7542 35.72 17.74L35.74 17.73Z" fill="#FFE236" stroke="#231F20" stroke-miterlimit="10"/>
<path d="M17.2699 21.06C17.2699 21.06 16.8599 21.36 16.4199 23.06C16.2499 23.693 16.1592 24.3447 16.1499 25C16.1647 25.1876 16.2486 25.363 16.3853 25.4923C16.522 25.6217 16.7018 25.6957 16.8899 25.7C17.5361 25.6558 18.1743 25.5315 18.7899 25.33C19.5102 25.1415 20.1887 24.8192 20.7899 24.38C20.916 24.2647 21.0001 24.1108 21.0291 23.9424C21.058 23.774 21.0302 23.6008 20.9499 23.45C20.6047 22.9124 20.1875 22.4245 19.7099 22C19.2552 21.5553 18.7442 21.172 18.1899 20.86C18.0372 20.7894 17.8656 20.7706 17.7012 20.8068C17.5369 20.8429 17.3889 20.9318 17.2799 21.06H17.2699Z" fill="#FFE236" stroke="#231F20" stroke-miterlimit="10"/>
<path d="M34.3599 10.08C34.3599 10.08 34.7699 9.78002 35.2099 8.08002C35.372 7.45225 35.4626 6.80815 35.4799 6.16002C35.4673 5.97162 35.3842 5.79489 35.247 5.66512C35.1098 5.53536 34.9287 5.46212 34.7399 5.46002C34.0939 5.49938 33.4555 5.62034 32.8399 5.82002C32.1177 6.02813 31.4398 6.36708 30.8399 6.82002C30.7153 6.93628 30.6322 7.09014 30.6033 7.25808C30.5744 7.42603 30.6013 7.59881 30.6799 7.75002C31.0157 8.29177 31.4265 8.7833 31.8999 9.21002C32.3519 9.65801 32.8633 10.0416 33.4199 10.35C33.5712 10.4235 33.7427 10.4448 33.9074 10.4104C34.072 10.376 34.2207 10.2879 34.3299 10.16L34.3599 10.08Z" fill="#FFE236" stroke="#231F20" stroke-miterlimit="10"/>
<path d="M28.1199 11.19C28.8107 11.4645 29.391 11.9604 29.7699 12.6" stroke="white" stroke-miterlimit="10" stroke-linecap="round"/>
<path d="M32.9299 28.79C33.2021 28.0558 33.3541 27.2826 33.3799 26.5C33.5099 23.13 31.7299 20.8 27.9699 20.65C27.6703 20.6299 27.3696 20.6299 27.0699 20.65C26.0699 18.56 23.9899 17.25 20.8599 17.12C16.6299 16.95 14.1599 19.12 13.4999 22.54C13.2004 22.477 12.8959 22.4402 12.5899 22.43C12.049 22.3514 11.4973 22.3946 10.9752 22.5565C10.453 22.7185 9.97369 22.995 9.57212 23.3659C9.17055 23.7368 8.85691 24.1927 8.65411 24.7003C8.45131 25.208 8.36447 25.7545 8.39994 26.3C8.3827 26.6889 8.41292 27.0784 8.48994 27.46C7.67959 27.8728 6.99717 28.4987 6.51612 29.2705C6.03508 30.0423 5.77364 30.9307 5.75994 31.84C5.68994 33.65 6.63994 36.1 8.75994 36.66C9.75994 37.17 15.3899 37.87 20.0399 38.05C24.6899 38.23 30.3299 38.05 31.4099 37.57C33.5299 37.19 34.6799 34.82 34.7499 33.01C34.782 32.2152 34.6352 31.4233 34.3201 30.6929C34.0051 29.9625 33.53 29.3122 32.9299 28.79Z" fill="#48EEFF" stroke="#231F20" stroke-miterlimit="10"/>
<path d="M28.1699 22.52C28.72 22.4904 29.2676 22.6129 29.7527 22.874C30.2378 23.135 30.6416 23.5246 30.9199 24" stroke="white" stroke-miterlimit="10" stroke-linecap="round"/>
<path d="M0.503054 25.8287C0.503838 26.1496 0.759552 26.4568 1.21394 26.6826C1.66833 26.9084 2.28418 27.0344 2.926 27.0328C3.56782 27.0312 4.18305 26.9022 4.63633 26.6742C5.08961 26.4462 5.34382 26.1378 5.34304 25.8169C5.34265 25.658 5.27967 25.5008 5.1577 25.3543C5.03572 25.2078 4.85714 25.0748 4.63215 24.963C4.40716 24.8512 4.14016 24.7627 3.84641 24.7027C3.55265 24.6426 3.23789 24.612 2.92009 24.6128C2.60229 24.6136 2.28768 24.6457 1.99422 24.7072C1.70077 24.7687 1.4342 24.8585 1.20976 24.9714C0.98532 25.0843 0.80739 25.2181 0.686133 25.3652C0.564876 25.5123 0.502665 25.6698 0.503054 25.8287Z" fill="#FF52A1" stroke="#231F20" stroke-miterlimit="10"/>
<path d="M3.97052 21.9357C4.22399 22.1274 4.49386 22.2923 4.76472 22.4209C5.03558 22.5495 5.30212 22.6393 5.54913 22.6853C5.79614 22.7312 6.01877 22.7324 6.20433 22.6886C6.38988 22.6449 6.53472 22.5572 6.63057 22.4304C6.72642 22.3037 6.7714 22.1404 6.76296 21.95C6.75451 21.7595 6.6928 21.5456 6.58134 21.3205C6.46988 21.0953 6.31087 20.8633 6.11337 20.6377C5.91587 20.4121 5.68376 20.1973 5.43028 20.0056C5.17681 19.8139 4.90694 19.649 4.63608 19.5204C4.36522 19.3918 4.09868 19.302 3.85167 19.256C3.60466 19.2101 3.38203 19.2089 3.19647 19.2527C3.01092 19.2964 2.86608 19.3841 2.77023 19.5109C2.67438 19.6376 2.6294 19.8009 2.63784 19.9913C2.64629 20.1818 2.708 20.3957 2.81946 20.6209C2.93092 20.846 3.08994 21.078 3.28743 21.3036C3.48493 21.5292 3.71705 21.744 3.97052 21.9357Z" fill="#FF52A1" stroke="#231F20" stroke-miterlimit="10"/>
<path d="M7.59898 18.152C7.88138 18.7296 8.26695 19.2275 8.67087 19.5361C9.07478 19.8448 9.46396 19.9388 9.75278 19.7976C10.0416 19.6564 10.2064 19.2915 10.2109 18.7832C10.2155 18.2749 10.0594 17.6648 9.77698 17.0872C9.49458 16.5096 9.10901 16.0117 8.70509 15.7031C8.30118 15.3945 7.912 15.3004 7.62318 15.4416C7.33436 15.5828 7.16955 15.9477 7.16501 16.456C7.16047 16.9643 7.31658 17.5744 7.59898 18.152Z" fill="#FF52A1" stroke="#231F20" stroke-miterlimit="10"/>
</g>
<defs>
<clipPath id="clip0_2301_13187">
<rect width="40" height="40" fill="white"/>
</clipPath>
</defs>
</svg>
