<svg width="40" height="40" viewBox="0 0 40 40" fill="none" xmlns="http://www.w3.org/2000/svg">
<g clip-path="url(#clip0_2301_13166)">
<path d="M36.5485 10.5719C35.4045 7.38407 33.9964 3.55107 33.4586 2.92517C32.6372 1.58557 30.6815 2.06477 29.6157 2.45587C28.5499 2.84697 27.0245 3.58037 26.9854 4.91997C25.1764 5.39917 22.7807 6.23027 20.649 6.99297C17.0702 8.27397 12.7579 9.92647 12.181 10.8359C11.6953 11.4174 11.4817 12.1791 11.5943 12.9284C8.53369 14.1605 5.52199 15.6957 4.98419 16.3606C4.40889 16.8433 4.09089 17.5661 4.12369 18.3163C3.12459 18.6951 2.18829 19.2226 1.34659 19.8808C0.564393 20.4871 0.935993 22.0516 1.34659 23.1859C1.75719 24.3202 2.46139 25.7674 3.45879 25.738C4.54039 25.7166 5.61229 25.5286 6.63669 25.1807C7.08189 25.7846 7.78349 26.1463 8.53369 26.1585C10.2254 26.1034 11.9009 25.8105 13.5109 25.2882C13.6864 25.8411 13.9364 26.3674 14.254 26.8528C13.5107 28.1695 12.8573 29.5351 12.2983 30.9401C11.6081 32.51 11.0869 34.149 10.7436 35.8292C10.5774 36.8071 11.4965 37.3546 12.2397 37.6676C12.9829 37.9806 14.0487 38.2151 14.606 37.4133C15.5365 35.9786 16.3164 34.4516 16.9333 32.8566C17.3928 31.7223 17.8524 30.4316 18.1458 29.4538C19.0032 29.6362 19.8894 29.6362 20.7468 29.4538C21.0402 30.4316 21.49 31.7223 21.9593 32.8566C22.5762 34.4516 23.3561 35.9786 24.2866 37.4133C24.8439 38.2151 25.9 37.9707 26.6431 37.6676C27.3862 37.3645 28.3152 36.7875 28.149 35.8292C27.8008 34.1503 27.2797 32.5118 26.5942 30.9401C26.0313 29.5369 25.378 28.1716 24.6386 26.8528C25.2436 25.9397 25.6008 24.885 25.6751 23.7921L26.6529 23.4401C28.7846 22.6774 31.1607 21.7974 32.8621 21.0151C33.7422 21.9929 35.4632 21.6116 36.4605 21.2498C37.4578 20.888 39.3256 20.0079 39.0909 18.4727C38.9931 17.622 37.6437 13.7596 36.5485 10.5719Z" fill="#FF52A1" stroke="#231F20" stroke-miterlimit="10"/>
<path d="M16.8745 23.3228C16.8706 25.2422 18.9461 26.4461 20.6104 25.4897C21.3858 25.044 21.8632 24.2172 21.8614 23.3228C21.8653 21.4033 19.7898 20.1995 18.1255 21.1559C17.3501 21.6015 16.8727 22.4284 16.8745 23.3228Z" fill="white" stroke="#231F20" stroke-miterlimit="10"/>
<path d="M28.1489 8.362C29.05 11.5643 30.1706 14.7008 31.5028 17.7491" stroke="#231F20" stroke-miterlimit="10" stroke-linecap="round"/>
<path d="M11.5942 12.9283C11.6724 14.2484 12.9534 18.2673 13.7454 20.8292" stroke="#231F20" stroke-miterlimit="10" stroke-linecap="round"/>
<path d="M4.12378 18.2967C4.18338 19.0637 4.36488 19.8163 4.66158 20.5262" stroke="#231F20" stroke-miterlimit="10" stroke-linecap="round"/>
<path d="M30.3491 4.63638C32.031 4.06928 31.6594 4.81248 33.1163 8.09798" stroke="white" stroke-miterlimit="10" stroke-linecap="round"/>
</g>
<defs>
<clipPath id="clip0_2301_13166">
<rect width="40" height="40" fill="white"/>
</clipPath>
</defs>
</svg>
