<svg width="40" height="40" viewBox="0 0 40 40" fill="none" xmlns="http://www.w3.org/2000/svg">
<g clip-path="url(#clip0_2301_14386)">
<path d="M4.588 27.1689C4.01487 27.1689 3.46521 27.3966 3.05994 27.8019C2.65468 28.2072 2.427 28.7568 2.427 29.3299C2.427 30.6579 4.084 32.1859 5.403 32.1859C5.68679 32.1859 5.9678 32.13 6.22998 32.0214C6.49217 31.9128 6.73039 31.7537 6.93106 31.553C7.13173 31.3523 7.2909 31.1141 7.39951 30.8519C7.50811 30.5897 7.564 30.3087 7.564 30.0249C7.564 28.6969 5.907 27.1689 4.588 27.1689Z" fill="#00034A" stroke="#00034A" stroke-miterlimit="10" stroke-linecap="round" stroke-linejoin="round"/>
<path d="M34.9641 9.19199C34.9641 10.234 36.4411 11.504 37.4701 11.504C37.9077 11.504 38.3274 11.3302 38.6368 11.0207C38.9463 10.7113 39.1201 10.2916 39.1201 9.85399C39.1201 8.81299 37.6431 7.54199 36.6141 7.54199C36.1765 7.54199 35.7568 7.71583 35.4474 8.02527C35.1379 8.3347 34.9641 8.75439 34.9641 9.19199Z" fill="#00034A" stroke="#00034A" stroke-miterlimit="10" stroke-linecap="round" stroke-linejoin="round"/>
<path d="M28.5571 10.36C29.3831 10.36 30.7251 11.497 30.7251 12.334C30.7251 13.059 30.1381 13.647 29.4131 13.647C28.5871 13.647 27.2451 12.509 27.2451 11.672C27.2451 10.947 27.8321 10.36 28.5571 10.36Z" fill="#00034A" stroke="#00034A" stroke-miterlimit="10" stroke-linecap="round" stroke-linejoin="round"/>
<path d="M28.1421 4.84003C28.3831 1.12503 29.6761 1.32803 30.5451 1.49203C32.9171 1.91903 33.0771 4.10203 32.4521 6.13903C31.3521 9.72903 30.4741 9.63203 30.0501 9.49703L30.0081 9.48403C28.0551 8.88203 28.0331 6.52403 28.1421 4.84003Z" fill="#00034A" stroke="#00034A" stroke-miterlimit="10" stroke-linecap="round" stroke-linejoin="round"/>
<path d="M36.6141 10.842C37.0517 10.842 37.4714 10.6682 37.7808 10.3587C38.0903 10.0493 38.2641 9.6296 38.2641 9.19199C38.2641 8.75439 38.0903 8.3347 37.7808 8.02527C37.4714 7.71583 37.0517 7.54199 36.6141 7.54199C36.1765 7.54199 35.7568 7.71583 35.4474 8.02527C35.1379 8.3347 34.9641 8.75439 34.9641 9.19199C34.9641 9.6296 35.1379 10.0493 35.4474 10.3587C35.7568 10.6682 36.1765 10.842 36.6141 10.842Z" fill="#9BFF00" stroke="#00034A" stroke-miterlimit="10" stroke-linecap="round" stroke-linejoin="round"/>
<path d="M4.58801 31.4919C5.16128 31.4919 5.71106 31.2642 6.11642 30.8589C6.52178 30.4535 6.74951 29.9037 6.74951 29.3304C6.74951 28.7572 6.52178 28.2074 6.11642 27.802C5.71106 27.3967 5.16128 27.1689 4.58801 27.1689C4.01475 27.1689 3.46496 27.3967 3.0596 27.802C2.65424 28.2074 2.42651 28.7572 2.42651 29.3304C2.42651 29.9037 2.65424 30.4535 3.0596 30.8589C3.46496 31.2642 4.01475 31.4919 4.58801 31.4919Z" fill="#9BFF00" stroke="#00034A" stroke-miterlimit="10" stroke-linecap="round" stroke-linejoin="round"/>
<path d="M35.64 17.78C34.675 16.815 29.338 16.246 24.89 15.995C20.442 15.745 15.057 15.686 13.996 16.555C11.931 17.355 11.285 22.065 11.101 25.625C10.963 28.313 10.984 31.683 11.845 33.617C12.262 34.553 13.625 36.165 14.517 36.635C15.482 37.6 20.827 38.169 25.276 38.42C29.724 38.6709 35.109 38.72 36.16 37.86C38.225 37.05 38.872 32.341 39.055 28.78C39.201 25.946 39.175 22.36 38.166 20.494C37.716 19.661 36.446 18.204 35.64 17.78Z" fill="#00034A" stroke="#00034A" stroke-miterlimit="10" stroke-linecap="round" stroke-linejoin="round"/>
<path d="M34.6171 36.2C36.6821 35.39 37.3281 30.681 37.5121 27.12C37.6951 23.56 37.6081 18.812 35.6391 17.78C34.6751 16.815 29.3391 16.246 24.8901 15.995C20.4421 15.744 15.0571 15.686 13.9961 16.555C11.9311 17.355 11.2851 22.065 11.1011 25.625C10.9181 29.185 11.0141 33.943 12.9731 34.975C13.9381 35.94 19.2831 36.509 23.7331 36.76C28.1811 37.011 33.5651 37.06 34.6171 36.2Z" fill="#9BFF00" stroke="#00034A" stroke-miterlimit="10" stroke-linecap="round" stroke-linejoin="round"/>
<path d="M14.199 21.1C16.2001 23.4664 18.4922 25.5704 21.021 27.362C21.9981 27.9103 23.0874 28.2284 24.206 28.292C25.3247 28.3556 26.443 28.163 27.476 27.729C30.1949 26.2354 32.7114 24.3998 34.964 22.267" stroke="#00034A" stroke-miterlimit="10" stroke-linecap="round" stroke-linejoin="round"/>
<path d="M20.49 27.101L15.501 31.559" stroke="#00034A" stroke-miterlimit="10" stroke-linecap="round" stroke-linejoin="round"/>
<path d="M28.0359 27.535L32.4939 32.515" stroke="#00034A" stroke-miterlimit="10" stroke-linecap="round" stroke-linejoin="round"/>
<path d="M30.5449 1.49203C29.6759 1.32803 28.3829 1.12503 28.1419 4.84003C27.9009 8.55503 28.7689 8.70003 29.1939 8.83503C29.6179 8.97003 30.4969 9.06703 31.5959 5.47703C32.6959 1.88703 31.4039 1.64703 30.5449 1.49203Z" fill="#9BFF00" stroke="#00034A" stroke-miterlimit="10" stroke-linecap="round" stroke-linejoin="round"/>
<path d="M28.5571 12.984C28.7294 12.984 28.9 12.95 29.0592 12.8841C29.2184 12.8182 29.363 12.7215 29.4848 12.5997C29.6067 12.4779 29.7033 12.3332 29.7692 12.1741C29.8352 12.0149 29.8691 11.8443 29.8691 11.672C29.8691 11.4997 29.8352 11.3291 29.7692 11.1699C29.7033 11.0107 29.6067 10.8661 29.4848 10.7443C29.363 10.6224 29.2184 10.5258 29.0592 10.4599C28.9 10.3939 28.7294 10.36 28.5571 10.36C28.2092 10.36 27.8754 10.4982 27.6294 10.7443C27.3833 10.9903 27.2451 11.324 27.2451 11.672C27.2451 12.0199 27.3833 12.3537 27.6294 12.5997C27.8754 12.8458 28.2092 12.984 28.5571 12.984Z" fill="#9BFF00" stroke="#00034A" stroke-miterlimit="10" stroke-linecap="round" stroke-linejoin="round"/>
<path d="M10.5741 5.40803C4.20007 6.69003 -0.222929 11.42 0.694071 15.97C1.89707 21.943 10.2841 23.76 15.2651 22.756C21.6391 21.472 26.0621 16.742 25.1451 12.192C23.9421 6.22003 15.5551 4.40403 10.5741 5.40803Z" fill="#00034A" stroke="#00034A" stroke-miterlimit="10" stroke-linecap="round" stroke-linejoin="round"/>
<path d="M13.8931 21.886C20.2671 20.602 24.6911 15.872 23.7741 11.322C22.8571 6.77198 16.9481 4.12398 10.5741 5.40698C4.20007 6.69098 -0.222929 11.421 0.694071 15.971C1.61007 20.521 7.52007 23.169 13.8941 21.886H13.8931Z" fill="white" stroke="#00034A" stroke-miterlimit="10" stroke-linecap="round" stroke-linejoin="round"/>
<path d="M12.2301 18.697C12.8988 18.7064 13.5627 18.5829 14.1832 18.3335C14.8037 18.0841 15.3685 17.7139 15.8447 17.2443C16.3209 16.7748 16.699 16.2153 16.9571 15.5983C17.2152 14.9814 17.3481 14.3193 17.3481 13.6505C17.3481 12.9818 17.2152 12.3197 16.9571 11.7027C16.699 11.0858 16.3209 10.5263 15.8447 10.0567C15.3685 9.58717 14.8037 9.21695 14.1832 8.96757C13.5627 8.71818 12.8988 8.5946 12.2301 8.60402C10.904 8.62268 9.63853 9.16258 8.70735 10.107C7.77618 11.0513 7.25415 12.3243 7.25415 13.6505C7.25415 14.9768 7.77618 16.2497 8.70735 17.1941C9.63853 18.1385 10.904 18.6783 12.2301 18.697Z" fill="#9BFF00" stroke="#00034A" stroke-miterlimit="10" stroke-linecap="round" stroke-linejoin="round"/>
</g>
<defs>
<clipPath id="clip0_2301_14386">
<rect width="40" height="40" fill="white"/>
</clipPath>
</defs>
</svg>
