<svg width="40" height="40" viewBox="0 0 40 40" fill="none" xmlns="http://www.w3.org/2000/svg">
<g clip-path="url(#clip0_2301_13139)">
<path d="M35.7642 9.88168C35.7611 11.1698 37.1535 11.9782 38.2706 11.3369C38.7915 11.0378 39.1122 10.4824 39.1107 9.88168C39.1139 8.59358 37.7215 7.78518 36.6044 8.42648C36.0834 8.72558 35.7628 9.28098 35.7642 9.88168Z" fill="#FF52A1" stroke="#231F20" stroke-miterlimit="10"/>
<path d="M2.7688 30.3033C2.7688 31.9906 4.5954 33.0451 6.0566 32.2015C6.7348 31.8099 7.1525 31.0863 7.1525 30.3033C7.1525 28.616 5.326 27.5614 3.8647 28.4051C3.1866 28.7966 2.7688 29.5202 2.7688 30.3033Z" fill="#FF52A1" stroke="#231F20" stroke-miterlimit="10"/>
<path d="M35.4121 37.2703C37.5061 36.4483 38.1617 31.6732 38.3476 28.0625C38.5335 24.4518 38.4455 19.6375 36.4493 18.5905C35.4708 17.612 30.0596 17.0346 25.5487 16.7802C21.0378 16.5258 15.5776 16.4671 14.5013 17.3478C12.4072 18.1599 11.7516 22.9351 11.5657 26.5458C11.3798 30.1565 11.4777 34.9806 13.464 36.0276C14.4425 37.0061 19.8635 37.5834 24.3744 37.8378C28.8853 38.0922 34.3455 38.1412 35.4121 37.2703Z" fill="#FFE236" stroke="#231F20" stroke-miterlimit="10"/>
<path d="M14.7068 21.9565C16.7361 24.3563 19.0606 26.49 21.6249 28.307C23.6329 29.4337 26.0485 29.5709 28.1712 28.6788C30.9283 27.1644 33.4801 25.3031 35.7644 23.1404" stroke="#231F20" stroke-miterlimit="10" stroke-linecap="round"/>
<path d="M21.0865 28.0428L16.0276 32.5635" stroke="#231F20" stroke-miterlimit="10" stroke-linecap="round"/>
<path d="M28.7385 28.4832L33.2592 33.5324" stroke="#231F20" stroke-miterlimit="10" stroke-linecap="round"/>
<path d="M31.6741 19.0895C32.9071 19.157 34.119 19.4384 35.2555 19.9213" stroke="white" stroke-miterlimit="10" stroke-linecap="round"/>
<path d="M31.2829 2.07318C30.4023 1.90678 29.0911 1.70138 28.8464 5.46858C28.6017 9.23578 29.4825 9.38268 29.913 9.51968C30.3435 9.65668 31.234 9.75448 32.3495 6.11438C33.465 2.47428 32.1538 2.22978 31.2829 2.07318Z" fill="#FF52A1" stroke="#231F20" stroke-miterlimit="10"/>
<path d="M27.9363 12.3965C27.9335 13.4209 29.0407 14.0642 29.9293 13.5545C30.344 13.3166 30.5992 12.8745 30.5979 12.3965C30.6007 11.3721 29.4935 10.7288 28.6049 11.2385C28.1902 11.4764 27.935 11.9184 27.9363 12.3965Z" fill="#FF52A1" stroke="#231F20" stroke-miterlimit="10"/>
<path d="M1.01128 16.7563C2.30158 23.1891 12.8612 25.249 20.0185 20.4642C23.3442 18.241 25.0213 15.0292 24.4168 12.0412C23.1264 5.60846 12.5668 3.54846 5.40948 8.33326C2.08388 10.5565 0.406782 13.7683 1.01128 16.7563Z" fill="#48EEFF" stroke="#231F20" stroke-miterlimit="10"/>
<path d="M7.59302 14.4023C7.59302 18.3419 11.8576 20.8041 15.2694 18.8343C16.8528 17.9202 17.8282 16.2307 17.8282 14.4023C17.8282 10.4628 13.5635 8.00064 10.1518 9.97044C8.56842 10.8845 7.59302 12.574 7.59302 14.4023Z" fill="white" stroke="#231F20" stroke-miterlimit="10"/>
<path d="M17.4856 7.77783C18.5056 8.04383 19.4655 8.50213 20.3135 9.12823" stroke="white" stroke-miterlimit="10" stroke-linecap="round"/>
</g>
<defs>
<clipPath id="clip0_2301_13139">
<rect width="40" height="40" fill="white"/>
</clipPath>
</defs>
</svg>
