<svg width="40" height="40" viewBox="0 0 40 40" fill="none" xmlns="http://www.w3.org/2000/svg">
<g clip-path="url(#clip0_2301_13133)">
<path d="M37.68 15C37.1632 14.6988 36.5925 14.5018 36 14.42C35.39 12.2 34.43 10.34 33.11 9.76999C31.89 8.76999 25.41 7.67999 20.04 7.67999C14.67 7.67999 8.15 8.72999 6.93 9.76999C5.61 10.34 4.65 12.2 4 14.42C3.4075 14.5018 2.83676 14.6988 2.32 15C1.11 15.52 0.5 18.2 0.5 20.22C0.5 22.24 1.11 24.92 2.32 25.44C2.83824 25.7342 3.4089 25.9244 4 26C4.61 28.22 5.57 30.08 6.89 30.65C7.61 31.26 10.13 31.87 13.18 32.27C13.6176 32.3376 14.0652 32.2953 14.4824 32.1469C14.8996 31.9986 15.2734 31.7487 15.57 31.42C16.19 30.74 17.42 30 20 30C22.58 30 23.81 30.77 24.39 31.47C24.6866 31.7987 25.0604 32.0486 25.4776 32.1969C25.8948 32.3453 26.3424 32.3876 26.78 32.32C29.78 31.92 32.35 31.32 33.07 30.7C34.39 30.1 35.35 28.24 36 26C36.6063 25.9233 37.1911 25.7261 37.72 25.42C38.93 24.9 39.54 22.22 39.54 20.2C39.54 18.18 38.89 15.52 37.68 15Z" fill="#FF52A1" stroke="#231F20" stroke-miterlimit="10"/>
<path d="M29.4599 26.29C31.2199 25.65 32.0999 22.35 32.0999 19.86C32.0999 17.37 31.2199 14.07 29.4599 13.43C28.5799 12.79 23.8899 12.14 19.9999 12.14C16.1099 12.14 11.4199 12.79 10.5399 13.43C8.7799 14.07 7.8999 17.37 7.8999 19.86C7.8999 22.35 8.7799 25.65 10.5399 26.29C11.4199 26.94 16.1099 26.94 19.9999 26.94C23.8899 26.94 28.5799 26.94 29.4599 26.29Z" fill="white" stroke="#231F20" stroke-miterlimit="10"/>
<path d="M15 15.43C12.17 15.7 11.84 15.75 11.2 17.36" stroke="#231F20" stroke-miterlimit="10" stroke-linecap="round"/>
<path d="M29.1599 10.79C31.8799 11.45 31.9799 11.79 32.7299 12.79" stroke="white" stroke-linecap="round" stroke-linejoin="round"/>
</g>
<defs>
<clipPath id="clip0_2301_13133">
<rect width="40" height="40" fill="white"/>
</clipPath>
</defs>
</svg>
