<svg width="40" height="40" viewBox="0 0 40 40" fill="none" xmlns="http://www.w3.org/2000/svg">
<g clip-path="url(#clip0_2301_13085)">
<path d="M35.08 23.52C39.28 19.34 40.66 14.46 38.47 9.66001C38.3796 9.47074 38.245 9.30595 38.0777 9.17949C37.9103 9.05304 37.715 8.96862 37.5082 8.93334C37.3015 8.89806 37.0893 8.91296 36.8894 8.97676C36.6896 9.04057 36.508 9.15143 36.36 9.30001C32.98 12.63 29.76 15.59 28.73 15.89C28.0851 16.1343 27.3848 16.1936 26.708 16.0611C26.0313 15.9285 25.4051 15.6095 24.9 15.14C24.4364 14.6334 24.1234 14.0074 23.9962 13.3325C23.869 12.6576 23.9326 11.9607 24.18 11.32C24.49 10.32 27.45 7.09001 30.81 3.72001C30.9593 3.57334 31.0712 3.39304 31.1365 3.1942C31.2018 2.99536 31.2185 2.78377 31.1852 2.57716C31.1519 2.37054 31.0696 2.17491 30.9452 2.00664C30.8207 1.83837 30.6578 1.70237 30.47 1.61001C25.68 -0.609987 20.79 0.750013 16.59 4.92001C12.65 8.84001 11.19 13.39 12.84 17.92L11.91 18.84C7.21997 23.48 1.93997 29.5 1.25997 31C-0.480026 33.5 1.09997 35.88 2.58997 37.38C4.07997 38.88 6.45997 40.42 8.99997 38.7C10.44 38.03 16.49 32.78 21.19 28.11L22.1 27.19C26.58 28.87 31.14 27.44 35.08 23.52Z" fill="#FF52A1" stroke="#231F20" stroke-miterlimit="10"/>
<path d="M36.9199 14.18C37.1071 15.4336 36.8335 16.7126 36.1499 17.78" stroke="white" stroke-miterlimit="10" stroke-linecap="round"/>
<path d="M19 24.77C17.6044 23.7027 16.3598 22.4513 15.3 21.05" stroke="#231F20" stroke-miterlimit="10" stroke-linecap="round"/>
</g>
<defs>
<clipPath id="clip0_2301_13085">
<rect width="40" height="40" fill="white"/>
</clipPath>
</defs>
</svg>
