<svg width="40" height="40" viewBox="0 0 40 40" fill="none" xmlns="http://www.w3.org/2000/svg">
<g clip-path="url(#clip0_2301_14327)">
<path d="M38.75 20C38.7538 16.6073 38.2343 13.2344 37.21 10C37.21 9.49 33.96 5.88 30.65 4.08C27.34 2.28 21.92 0.18 19.5 0.54C17.84 0.48 12.84 2.24 9.44 4.09C6.04 5.94 3.06 8.68 2.91 9.56C1.82066 12.9333 1.26069 16.4551 1.25 20C1.26069 23.5449 1.82066 27.0667 2.91 30.44C3.06 31.31 6 34 9.44 35.91C12.88 37.82 17.84 39.52 19.5 39.46C21.92 39.82 27.23 37.77 30.65 35.91C34.07 34.05 37.25 30.5 37.21 29.99C38.2333 26.7588 38.7527 23.3893 38.75 20Z" fill="#48EEFF" stroke="#231F20" stroke-miterlimit="10"/>
<path d="M7.25 14.32C7.96 14.86 8.71 15.32 9.44 15.83C12.85 18 18.13 20.11 20.59 20C22.24 19.9 27.24 18 30.65 15.88C31.37 15.43 32.08 14.93 32.75 14.42" stroke="#231F20" stroke-miterlimit="10" stroke-linecap="round"/>
<path d="M20 32.5V22.32C20 20 21.73 19.75 21.73 19.75" stroke="#231F20" stroke-miterlimit="10" stroke-linecap="round"/>
<path d="M20 22.32C20.0442 21.7533 19.9007 21.1878 19.5917 20.7107C19.2827 20.2336 18.8253 19.8714 18.29 19.68" stroke="#231F20" stroke-miterlimit="10" stroke-linecap="round"/>
<path d="M26.1299 5.34C27.803 5.98525 29.3677 6.88226 30.7699 8" stroke="white" stroke-linecap="round" stroke-linejoin="round"/>
</g>
<defs>
<clipPath id="clip0_2301_14327">
<rect width="40" height="40" fill="white"/>
</clipPath>
</defs>
</svg>
