<svg width="40" height="40" viewBox="0 0 40 40" fill="none" xmlns="http://www.w3.org/2000/svg">
<g clip-path="url(#clip0_2301_14295)">
<path d="M32.54 1.49C30.7645 2.11879 29.031 2.8603 27.35 3.71C24 1 21.24 1.27 19.85 2.45C18.46 3.63 17.72 6.35 19.85 10.06C18.7454 11.5818 17.7432 13.1753 16.85 14.83C16.5211 15.4291 16.3787 16.1129 16.4411 16.7935C16.5034 17.4741 16.7677 18.1206 17.2 18.65C17.6948 19.1579 18.3581 19.4676 19.0652 19.521C19.7723 19.5744 20.4745 19.3678 21.04 18.94C22.4992 18.098 23.8872 17.1382 25.19 16.07C26.5571 17.2643 28.0298 18.332 29.59 19.26C29.343 19.6945 29.1194 20.1418 28.92 20.6C28.7953 20.9509 28.7667 21.3287 28.837 21.6944C28.9073 22.0601 29.0741 22.4004 29.32 22.68C29.5549 22.9689 29.8838 23.1662 30.2493 23.2375C30.6148 23.3088 30.9937 23.2495 31.32 23.07C32.6569 22.2983 33.9103 21.3901 35.06 20.36C36.2564 19.3892 37.3519 18.3004 38.33 17.11C38.5506 16.8202 38.665 16.4634 38.654 16.0994C38.6431 15.7353 38.5076 15.3861 38.27 15.11C38.0392 14.8123 37.729 14.5859 37.3752 14.4568C37.0214 14.3276 36.6383 14.301 36.27 14.38C35.7856 14.5003 35.3082 14.6472 34.84 14.82C34.1745 13.1313 33.3543 11.5077 32.39 9.97C33.6591 8.85632 34.8332 7.63877 35.9 6.33C36.4097 5.83956 36.7233 5.18024 36.7822 4.47534C36.8411 3.77045 36.6413 3.06823 36.22 2.5C35.7756 1.98612 35.1886 1.6158 34.5334 1.43598C33.8783 1.25617 33.1845 1.27497 32.54 1.49Z" fill="#FFE236" stroke="#231F20" stroke-miterlimit="10"/>
<path d="M22 8.36C22 8.36 20.09 6.12 21.77 4.69C23.45 3.26 25.36 5.5 25.36 5.5L22 8.36Z" fill="white" stroke="#231F20" stroke-linecap="round" stroke-linejoin="round"/>
<path d="M31.76 16.44L33.66 18.68" stroke="#231F20" stroke-miterlimit="10" stroke-linecap="round"/>
<path d="M30.8601 4.17C31.2831 3.87478 31.7633 3.67151 32.2697 3.57334C32.7761 3.47516 33.2974 3.48424 33.8001 3.6" stroke="white" stroke-miterlimit="10" stroke-linecap="round"/>
<path d="M25.49 18.9C24.42 18.19 19.49 17.9 15.16 17.82C7.21 17.61 0.629998 25.4 0.499998 30.17C0.369538 31.4095 0.670249 32.6561 1.35148 33.6998C2.03271 34.7435 3.05282 35.5205 4.24 35.9C5.05887 36.142 5.8996 36.3028 6.75 36.38C6.83905 36.8993 7.09789 37.3743 7.48593 37.7307C7.87398 38.087 8.3693 38.3045 8.89425 38.3491C9.41921 38.3938 9.94413 38.2629 10.3867 37.9771C10.8293 37.6914 11.1646 37.2668 11.34 36.77H11.6C11.7389 37.2493 12.0257 37.6726 12.4193 37.9794C12.8129 38.2862 13.2933 38.461 13.7921 38.4787C14.2908 38.4964 14.7825 38.3563 15.1969 38.0782C15.6113 37.8001 15.9274 37.3983 16.1 36.93H19.56C19.7063 37.4491 20.0253 37.9028 20.4642 38.2161C20.9032 38.5294 21.4358 38.6837 21.9743 38.6534C22.5128 38.6231 23.0248 38.41 23.4258 38.0494C23.8268 37.6888 24.0929 37.2022 24.18 36.67C24.4992 36.6299 24.8098 36.5387 25.1 36.4C26.92 35.33 27.54 31.34 27.63 28.12C27.72 24.9 27.25 20.06 25.49 18.9Z" fill="#48EEFF" stroke="#231F20" stroke-miterlimit="10"/>
<path d="M8.49008 27.2C10.0801 27.2 10.1001 26.61 10.9501 24.72C11.5501 23.38 12.6401 20.94 11.0501 20.9L6.33008 20.77C4.74008 20.77 1.42008 23.82 1.33008 25.77C1.33008 27.05 2.33008 27.07 6.86008 27.2H8.49008Z" fill="white" stroke="#231F20" stroke-miterlimit="10"/>
<path d="M23.6 27.36C24.34 27.1 24.51 25.68 24.54 24.6C24.57 23.52 24.47 22.09 23.75 21.8C22.5037 21.3473 21.1858 21.1237 19.86 21.14C18.7542 21.0422 17.6398 21.1438 16.57 21.44C15.57 21.98 13.38 26.07 14.43 26.89C15.25 27.55 18.08 27.46 19.68 27.5C21.28 27.54 23.23 27.63 23.6 27.36Z" fill="white" stroke="#231F20" stroke-miterlimit="10"/>
<path d="M7.56006 34.26C7.56006 34.26 10.2101 34.41 15.5601 34.55C20.9101 34.69 23.5601 34.68 23.5601 34.68" stroke="#231F20" stroke-miterlimit="10" stroke-linecap="round"/>
<path d="M4.55993 33.13C4.7379 32.3092 4.65756 31.4534 4.32993 30.68C4.07891 29.8858 3.59026 29.1877 2.92993 28.68" stroke="#231F20" stroke-miterlimit="10" stroke-linecap="round"/>
<path d="M21.46 19.54C22.5018 19.5078 23.5403 19.6741 24.52 20.03" stroke="white" stroke-miterlimit="10" stroke-linecap="round"/>
<path d="M4 14.42C4.24 10.42 6.75 7.01 11.3 4.85C11.0326 4.7622 10.7773 4.64126 10.54 4.49C10.3862 4.38021 10.274 4.2218 10.2214 4.04035C10.1688 3.8589 10.1788 3.66501 10.25 3.49C10.34 3.17 10.65 2.79 11.03 2.82C11.7102 2.87923 12.3813 3.01681 13.03 3.23C14.81 3.76 14.87 3.89 15.03 4.04C15.1772 4.17987 15.2784 4.36124 15.32 4.56C15.32 4.76 15.44 4.89 14.91 6.66C14.7285 7.3136 14.4805 7.9469 14.17 8.55C14.0572 8.70019 13.8992 8.81034 13.7193 8.86432C13.5394 8.9183 13.3469 8.91328 13.17 8.85C12.9898 8.80471 12.8284 8.70419 12.7082 8.56252C12.5881 8.42085 12.5153 8.24513 12.5 8.06C12.5143 7.77693 12.5545 7.49576 12.62 7.22L12.52 7.28C8.86 9 6.9 11.47 6.68 14.52C6.6041 14.8253 6.42544 15.0952 6.17402 15.2843C5.92261 15.4734 5.61377 15.5703 5.29938 15.5585C4.985 15.5468 4.68423 15.4272 4.44761 15.2199C4.21099 15.0126 4.05294 14.7301 4 14.42Z" fill="#FF52A1" stroke="#231F20" stroke-miterlimit="10"/>
<path d="M29.95 33.13C29.95 33.5517 30.1175 33.9561 30.4157 34.2543C30.7138 34.5525 31.1183 34.72 31.54 34.72C31.9616 34.72 32.3661 34.5525 32.6642 34.2543C32.9624 33.9561 33.13 33.5517 33.13 33.13C33.13 32.7083 32.9624 32.3039 32.6642 32.0057C32.3661 31.7075 31.9616 31.54 31.54 31.54C31.1183 31.54 30.7138 31.7075 30.4157 32.0057C30.1175 32.3039 29.95 32.7083 29.95 33.13Z" fill="#FF52A1" stroke="#231F20" stroke-miterlimit="10"/>
<path d="M35.52 29.95C35.52 30.3717 35.6875 30.7761 35.9857 31.0743C36.2839 31.3725 36.6883 31.54 37.11 31.54C37.5317 31.54 37.9361 31.3725 38.2343 31.0743C38.5325 30.7761 38.7 30.3717 38.7 29.95C38.7 29.5283 38.5325 29.1239 38.2343 28.8257C37.9361 28.5275 37.5317 28.36 37.11 28.36C36.6883 28.36 36.2839 28.5275 35.9857 28.8257C35.6875 29.1239 35.52 29.5283 35.52 29.95Z" fill="#FF52A1" stroke="#231F20" stroke-miterlimit="10"/>
<path d="M36.3201 23.58C36.3201 24.0017 36.4876 24.4061 36.7858 24.7043C37.084 25.0025 37.4884 25.17 37.9101 25.17C38.3318 25.17 38.7362 25.0025 39.0344 24.7043C39.3325 24.4061 39.5001 24.0017 39.5001 23.58C39.5001 23.1583 39.3325 22.7539 39.0344 22.4557C38.7362 22.1575 38.3318 21.99 37.9101 21.99C37.4884 21.99 37.084 22.1575 36.7858 22.4557C36.4876 22.7539 36.3201 23.1583 36.3201 23.58Z" fill="#FF52A1" stroke="#231F20" stroke-miterlimit="10"/>
</g>
<defs>
<clipPath id="clip0_2301_14295">
<rect width="40" height="40" fill="white"/>
</clipPath>
</defs>
</svg>
