<svg width="40" height="40" viewBox="0 0 40 40" fill="none" xmlns="http://www.w3.org/2000/svg">
<g clip-path="url(#clip0_2301_15568)">
<path d="M31.967 2.68199C31.526 2.19799 30.383 2.51999 29.414 3.40199C28.445 4.28499 28.018 5.39199 28.459 5.87699C28.719 6.16299 28.846 6.31099 29.107 6.59699C29.547 7.08199 30.691 6.75899 31.659 5.87699C32.628 4.99499 33.055 3.88699 32.614 3.40299C32.354 3.11599 32.227 2.96799 31.967 2.68199Z" fill="#00034A" stroke="#00034A" stroke-miterlimit="10"/>
<path d="M32.363 7.61198C31.106 7.98198 30.237 8.79198 30.423 9.42098C30.802 10.708 32.308 10.883 33.498 10.531C34.755 10.161 35.624 9.35198 35.438 8.72398C35.055 7.42398 33.483 7.28198 32.363 7.61198Z" fill="#00034A" stroke="#00034A" stroke-miterlimit="10"/>
<path d="M34.2761 13.098C33.4501 13.098 32.7791 13.768 32.7791 14.596C32.7791 15.53 34.1491 16.91 35.0841 16.91C35.9111 16.91 36.5811 16.24 36.5811 15.412C36.5811 14.478 35.2111 13.098 34.2761 13.098Z" fill="#00034A" stroke="#00034A" stroke-miterlimit="10" stroke-linecap="round"/>
<path d="M15.6681 28.801C15.6681 29.461 15.7591 30.118 15.9401 30.754C16.3481 31.434 17.1651 32.198 17.8401 32.621C18.4879 33.0267 19.2592 33.1879 20.0152 33.0755C20.7713 32.9631 21.4623 32.5846 21.9641 32.008C22.4281 30.974 22.6982 29.8636 22.7611 28.732C23.3657 28.6733 23.9319 28.4089 24.3651 27.983C24.9451 27.214 25.2841 26.29 25.3381 25.329C25.7314 25.5807 26.1765 25.7404 26.6401 25.796C27.0851 25.8428 27.5348 25.7785 27.9488 25.6086C28.3628 25.4388 28.7282 25.1689 29.0121 24.823C29.4791 24.269 29.8291 21.236 29.9851 18.99L30.0141 18.574C30.1681 16.377 30.3621 13.595 30.0341 13.011C29.4501 11.977 28.2541 10.933 27.0241 10.833C26.8373 10.822 26.6499 10.828 26.4641 10.851C26.1954 8.53915 25.04 6.42181 23.2411 4.94501C23.1963 4.89717 23.151 4.84983 23.1051 4.80301C23.2831 4.50801 23.4131 4.18801 23.4901 3.85301C23.5252 3.60496 23.4913 3.35205 23.3921 3.12201C23.1781 2.62901 22.5021 2.05201 22.0751 1.75201C21.8618 1.62021 21.6159 1.5504 21.3651 1.5504C21.1143 1.5504 20.8685 1.62021 20.6551 1.75201C20.3401 2.01201 20.0681 2.32201 19.8491 2.66601C18.6969 2.24706 17.4933 1.9857 16.2711 1.88901C15.168 1.80977 14.0594 1.86924 12.9711 2.06601C12.5881 1.52601 11.9631 0.845005 11.3011 0.706005C11.0552 0.654454 10.7997 0.673522 10.5641 0.761005C10.3288 0.861034 10.1264 1.02534 9.9801 1.2351C9.83383 1.44486 9.74962 1.69159 9.73712 1.94701C9.76112 2.29701 9.84012 2.64201 9.97112 2.96701C8.78053 3.60812 7.74965 4.50919 6.95503 5.6033C6.16041 6.69742 5.62246 7.95649 5.38112 9.28701C4.98853 9.04565 4.5479 8.89309 4.09012 8.84001C3.64656 8.79369 3.19844 8.85826 2.786 9.02792C2.37356 9.19757 2.00971 9.467 1.72712 9.81201C1.25112 10.366 0.910117 13.39 0.755117 15.646L0.735117 15.943C0.580117 18.163 0.383117 21.01 0.755117 21.605C1.08512 22.242 1.90512 23.007 2.50812 23.403C2.88912 23.653 3.32812 23.801 3.78412 23.832C3.95412 23.843 4.12512 23.84 4.29412 23.823C4.35112 24.436 4.52112 25.036 4.79912 25.591C5.13112 26.033 5.76012 26.616 6.22112 26.947C6.14512 27.947 6.23212 28.954 6.48112 29.927C6.87412 30.614 7.69912 31.387 8.37312 31.808C8.80412 32.078 9.29512 32.237 9.80312 32.271C10.3068 32.3237 10.8157 32.2519 11.2851 32.0619C11.7545 31.8718 12.17 31.5693 12.4951 31.181C12.8921 30.366 13.1301 29.481 13.1951 28.576L14.8771 28.741L15.6701 28.801H15.6681Z" fill="#00034A" stroke="#00034A" stroke-miterlimit="10"/>
<path d="M29.182 12.214C28.9625 11.8251 28.651 11.496 28.2747 11.2554C27.8985 11.0148 27.4691 10.8701 27.024 10.834C26.5623 10.8062 26.1003 10.8824 25.672 11.057C25.6671 9.70228 25.3558 8.3662 24.7614 7.14879C24.1671 5.93138 23.3051 4.86416 22.24 4.02701C22.425 3.72701 22.56 3.39901 22.639 3.05501C22.6741 2.80694 22.64 2.55399 22.5405 2.32407C22.441 2.09414 22.2799 1.89617 22.075 1.75201C21.8616 1.62021 21.6158 1.5504 21.365 1.5504C21.1142 1.5504 20.8684 1.62021 20.655 1.75201C20.34 2.01201 20.068 2.32201 19.849 2.66601C18.6968 2.24707 17.4932 1.9857 16.271 1.88901C15.0369 1.80018 13.7965 1.88501 12.586 2.14101C12.4345 1.74674 12.2212 1.37913 11.954 1.05201C11.7733 0.877326 11.547 0.757308 11.301 0.705816C11.055 0.654323 10.7995 0.673458 10.564 0.761009C10.3286 0.861038 10.1262 1.02535 9.97997 1.23511C9.83371 1.44487 9.7495 1.69159 9.73699 1.94701C9.76099 2.29701 9.83999 2.64201 9.97099 2.96701C8.7804 3.60812 7.74953 4.50919 6.95491 5.60331C6.16028 6.69743 5.62233 7.95649 5.38099 9.28701C4.9884 9.04565 4.54777 8.89309 4.08999 8.84001C3.64643 8.7937 3.19832 8.85827 2.78587 9.02792C2.37343 9.19757 2.00958 9.467 1.72699 9.81201C1.25099 10.366 0.909991 13.39 0.754991 15.646C0.598991 17.901 0.365991 20.983 0.754991 21.606C0.96456 22.0113 1.27509 22.3558 1.65661 22.6061C2.03813 22.8564 2.47773 23.0041 2.93299 23.035C3.40099 23.066 3.86999 22.989 4.30299 22.811C4.19651 23.7661 4.36878 24.7316 4.79899 25.591C5.15999 26.073 5.67499 26.416 6.25799 26.564C6.12487 27.6895 6.20047 28.8299 6.48099 29.928C6.73331 30.3694 7.09086 30.7415 7.52181 31.0112C7.95276 31.281 8.44373 31.44 8.95099 31.474C9.45482 31.5269 9.96394 31.4552 10.4335 31.2651C10.9031 31.075 11.3188 30.7725 11.644 30.384C12.041 29.569 12.279 28.684 12.344 27.779L14.026 27.944L15.708 28.071C15.614 28.972 15.693 29.8827 15.941 30.754C16.2013 31.1887 16.5608 31.5555 16.9901 31.8245C17.4194 32.0934 17.9063 32.2569 18.411 32.3015C18.9156 32.3461 19.4237 32.2705 19.8935 32.0809C20.3633 31.8914 20.7816 31.5933 21.114 31.211C21.578 30.177 21.8481 29.0666 21.911 27.935C22.5156 27.8763 23.0818 27.6119 23.515 27.186C24.0948 26.4172 24.4331 25.4934 24.487 24.532C24.881 24.784 25.326 24.943 25.79 24.998C26.2349 25.045 26.6846 24.9809 27.0986 24.8112C27.5126 24.6416 27.878 24.3717 28.162 24.026C28.629 23.472 28.979 20.439 29.134 18.193C29.29 15.947 29.533 12.836 29.183 12.213L29.182 12.214Z" fill="#9BFF00" stroke="#00034A" stroke-miterlimit="10"/>
<path d="M22.7461 10.837C20.3783 11.1865 17.9733 11.2027 15.6011 10.885C13.2067 10.7763 10.8397 10.3302 8.57007 9.56" stroke="#00034A" stroke-miterlimit="10" stroke-linecap="round"/>
<path d="M5.16804 12.107C5.02204 12.836 4.87604 14.177 4.69104 16.044C4.50704 17.911 4.45804 19.234 4.47804 20.001" stroke="#00034A" stroke-miterlimit="10" stroke-linecap="round"/>
<path d="M24.73 21.761C24.875 21.012 25.04 19.7 25.196 17.872C25.351 16.044 25.429 14.683 25.419 13.915" stroke="#00034A" stroke-miterlimit="10" stroke-linecap="round"/>
<path d="M27.322 36.756C27.986 38.216 29.538 39.58 31.217 39.279C32.413 39.065 33.162 38.696 33.279 36.012C34.1962 35.4942 35.0022 34.8007 35.651 33.971C38.295 34.341 38.811 33.641 39.229 32.483C39.647 31.326 39.715 30.48 37.43 29.11C37.441 28.5851 37.3988 28.0604 37.304 27.544C37.2073 27.0298 37.064 26.5254 36.876 26.037C38.529 23.937 38.159 23.121 37.381 22.217C35.996 20.607 34.358 20.32 32.439 21.343C31.7865 20.9507 31.0819 20.6524 30.346 20.457C29.68 18.996 28.129 17.644 26.45 17.93C25.254 18.134 24.506 18.514 24.389 21.207C23.4771 21.7162 22.6718 22.3963 22.017 23.21C19.382 22.84 18.857 23.53 18.439 24.687C18.021 25.844 17.962 26.7 20.238 28.11C20.227 28.6313 20.2692 29.1523 20.364 29.665C20.459 30.18 20.602 30.685 20.792 31.172C19.139 33.282 19.508 34.089 20.286 35.002C21.666 36.624 23.313 36.895 25.228 35.866C25.8795 36.262 26.5848 36.5618 27.322 36.756Z" fill="#00034A" stroke="#00034A" stroke-miterlimit="10"/>
<path d="M36.377 28.392C36.3877 27.867 36.3452 27.3424 36.25 26.826C36.1533 26.3117 36.01 25.8073 35.822 25.319C37.475 23.219 37.106 22.403 36.328 21.499C35.55 20.594 34.811 20.079 32.439 21.343C31.5442 20.8047 30.5537 20.4448 29.522 20.283C28.55 17.804 27.646 17.726 26.45 17.93C25.254 18.135 24.506 18.514 24.389 21.207C23.4772 21.7163 22.6719 22.3963 22.017 23.21C19.382 22.84 18.857 23.53 18.439 24.687C18.021 25.844 17.962 26.7 20.238 28.11C20.227 28.6313 20.2692 29.1523 20.364 29.665C20.459 30.18 20.602 30.685 20.792 31.172C19.139 33.282 19.508 34.089 20.286 35.002C21.064 35.917 21.803 36.422 24.175 35.149C25.0679 35.6914 26.0593 36.0516 27.092 36.209C28.064 38.697 28.968 38.775 30.164 38.561C31.36 38.347 32.108 37.978 32.225 35.294C33.1422 34.7762 33.9482 34.0826 34.597 33.253C37.242 33.623 37.757 32.923 38.175 31.765C38.593 30.608 38.661 29.762 36.377 28.392Z" fill="white" stroke="#00034A" stroke-miterlimit="10"/>
<path d="M28.3171 32.164C28.8367 32.164 29.3513 32.0616 29.8314 31.8628C30.3115 31.6639 30.7477 31.3725 31.1151 31.005C31.4826 30.6376 31.774 30.2014 31.9729 29.7213C32.1718 29.2412 32.2741 28.7266 32.2741 28.207C32.2741 27.6874 32.1718 27.1728 31.9729 26.6927C31.774 26.2126 31.4826 25.7764 31.1151 25.409C30.7477 25.0415 30.3115 24.7501 29.8314 24.5512C29.3513 24.3524 28.8367 24.25 28.3171 24.25C27.2676 24.25 26.2612 24.6669 25.5191 25.409C24.777 26.1511 24.3601 27.1575 24.3601 28.207C24.3601 29.2565 24.777 30.2629 25.5191 31.005C26.2612 31.7471 27.2676 32.164 28.3171 32.164Z" fill="#9BFF00" stroke="#00034A" stroke-miterlimit="10"/>
<path d="M33.033 9.88797C34.29 9.51797 35.159 8.70797 34.973 8.07997C34.788 7.45097 33.619 7.24197 32.363 7.61197C31.106 7.98197 30.237 8.79197 30.423 9.42097C30.608 10.049 31.777 10.258 33.033 9.88797Z" fill="#9BFF00" stroke="#00034A" stroke-miterlimit="10"/>
<path d="M31.012 5.15599C31.98 4.27399 32.408 3.16599 31.967 2.68199C31.526 2.19799 30.383 2.51999 29.414 3.40199C28.445 4.28499 28.018 5.39199 28.459 5.87699C28.9 6.36099 30.043 6.03799 31.012 5.15599Z" fill="#9BFF00" stroke="#00034A" stroke-miterlimit="10"/>
<path d="M34.2761 16.093C34.6732 16.093 35.0541 15.9353 35.335 15.6544C35.6158 15.3736 35.7736 14.9927 35.7736 14.5955C35.7736 14.1984 35.6158 13.8175 35.335 13.5366C35.0541 13.2558 34.6732 13.098 34.2761 13.098C33.8789 13.098 33.498 13.2558 33.2172 13.5366C32.9363 13.8175 32.7786 14.1984 32.7786 14.5955C32.7786 14.9927 32.9363 15.3736 33.2172 15.6544C33.498 15.9353 33.8789 16.093 34.2761 16.093Z" fill="#9BFF00" stroke="#00034A" stroke-miterlimit="10" stroke-linecap="round"/>
<path d="M11.8901 7.55603C12.0248 7.57245 12.1615 7.56184 12.2921 7.52482C12.4227 7.4878 12.5446 7.42512 12.6506 7.34043C12.7567 7.25575 12.8448 7.15077 12.9098 7.03162C12.9749 6.91248 13.0155 6.78157 13.0293 6.64655C13.0431 6.51152 13.0299 6.3751 12.9904 6.24525C12.9509 6.1154 12.8858 5.99473 12.7991 5.8903C12.7124 5.78588 12.6058 5.69979 12.4854 5.63707C12.365 5.57435 12.2334 5.53626 12.0981 5.52503C11.8312 5.50198 11.566 5.58475 11.3595 5.75549C11.1531 5.92622 11.022 6.17125 10.9946 6.43773C10.9672 6.70421 11.0456 6.97079 11.2129 7.17999C11.3803 7.38918 11.6231 7.52424 11.8891 7.55603H11.8901Z" fill="#00034A"/>
<path d="M19.39 8.24403C19.5234 8.25775 19.6582 8.24506 19.7868 8.20668C19.9153 8.1683 20.035 8.10498 20.139 8.02034C20.2431 7.9357 20.3294 7.8314 20.3932 7.71338C20.4569 7.59536 20.4968 7.46595 20.5105 7.33253C20.5242 7.19911 20.5115 7.06429 20.4732 6.93577C20.4348 6.80725 20.3715 6.68755 20.2868 6.5835C20.2022 6.47945 20.0979 6.39309 19.9799 6.32936C19.8618 6.26562 19.7324 6.22575 19.599 6.21203C19.3295 6.18431 19.0601 6.26478 18.85 6.43572C18.6398 6.60665 18.5062 6.85407 18.4785 7.12353C18.4508 7.39299 18.5313 7.66242 18.7022 7.87256C18.8731 8.08269 19.1205 8.21631 19.39 8.24403Z" fill="#00034A"/>
</g>
<defs>
<clipPath id="clip0_2301_15568">
<rect width="40" height="40" fill="white"/>
</clipPath>
</defs>
</svg>
