<svg width="40" height="40" viewBox="0 0 40 40" fill="none" xmlns="http://www.w3.org/2000/svg">
<g clip-path="url(#clip0_2301_14278)">
<path d="M29.9999 12.36C29.7742 11.9599 29.4537 11.6212 29.0667 11.3736C28.6797 11.1261 28.2378 10.9772 27.7799 10.94C27.3052 10.9118 26.8302 10.9904 26.3899 11.17C26.3847 9.77672 26.0645 8.40265 25.4532 7.15061C24.8419 5.89858 23.9553 4.801 22.8599 3.94C23.0501 3.63122 23.1886 3.29344 23.2699 2.94C23.3059 2.6849 23.2708 2.42482 23.1684 2.1884C23.0661 1.95197 22.9005 1.74837 22.6899 1.6C22.4705 1.46459 22.2178 1.39288 21.9599 1.39288C21.7021 1.39288 21.4493 1.46459 21.2299 1.6C20.9056 1.86775 20.6254 2.18498 20.3999 2.54C19.2149 2.10881 17.977 1.83971 16.7199 1.74C15.4506 1.64893 14.1749 1.73645 12.9299 2C12.7741 1.59452 12.5547 1.21645 12.2799 0.880001C12.0942 0.700151 11.8613 0.576538 11.6082 0.523451C11.3552 0.470364 11.0923 0.489969 10.8499 0.580001C10.608 0.682999 10.3999 0.852063 10.2496 1.06783C10.0992 1.2836 10.0127 1.53734 9.99992 1.8C10.0245 2.16041 10.1054 2.51472 10.2399 2.85C9.01558 3.50949 7.95551 4.43627 7.13839 5.56154C6.32127 6.68681 5.76809 7.98167 5.51992 9.35C5.1155 9.10137 4.66153 8.94436 4.18992 8.89C3.73375 8.84249 3.27292 8.90898 2.84879 9.08352C2.42467 9.25806 2.05051 9.53518 1.75992 9.89C1.26992 10.46 0.919918 13.57 0.759918 15.89C0.599918 18.21 0.359918 21.38 0.759918 22.02C0.975445 22.4369 1.29481 22.7912 1.68718 23.0487C2.07955 23.3062 2.53168 23.4582 2.99992 23.49C3.48133 23.5223 3.96374 23.4436 4.40992 23.26C4.30022 24.2426 4.47735 25.2359 4.91992 26.12C5.29115 26.6147 5.82045 26.9676 6.41992 27.12C6.2832 28.2777 6.36117 29.4506 6.64992 30.58C6.90934 31.0339 7.27701 31.4167 7.72018 31.6941C8.16335 31.9715 8.66825 32.135 9.18992 32.17C9.70805 32.2245 10.2316 32.1509 10.7146 31.9556C11.1977 31.7603 11.6253 31.4493 11.9599 31.05C12.3684 30.2107 12.6128 29.301 12.6799 28.37L14.4099 28.54L16.1399 28.67C16.0433 29.5969 16.1247 30.5337 16.3799 31.43C16.6477 31.8769 17.0175 32.254 17.459 32.5305C17.9005 32.807 18.4012 32.975 18.9201 33.0209C19.4391 33.0667 19.9615 32.989 20.4446 32.7942C20.9278 32.5994 21.3579 32.293 21.6999 31.9C22.1773 30.8364 22.4552 29.6941 22.5199 28.53C23.1418 28.4697 23.7242 28.1979 24.1699 27.76C24.7663 26.9691 25.1144 26.019 25.1699 25.03C25.5747 25.2889 26.0328 25.453 26.5099 25.51C26.9676 25.5583 27.4302 25.4922 27.856 25.3177C28.2819 25.1432 28.6578 24.8656 28.9499 24.51C29.4299 23.94 29.7899 20.82 29.9499 18.51C30.1099 16.2 30.3599 13 29.9999 12.36Z" fill="#48EEFF" stroke="#231F20" stroke-miterlimit="10"/>
<path d="M23.2299 11.32C20.8934 10.5445 18.4597 10.1002 15.9999 10C13.5545 9.68352 11.0768 9.71382 8.63989 10.09" stroke="#231F20" stroke-miterlimit="10" stroke-linecap="round"/>
<path d="M5.30004 12.25C5.15004 13 5.00004 14.38 4.81004 16.3C4.62004 18.22 4.57004 19.58 4.59004 20.37" stroke="#231F20" stroke-miterlimit="10" stroke-linecap="round"/>
<path d="M25.4199 22.18C25.5699 21.41 25.7399 20.06 25.8999 18.18C26.0599 16.3 26.1399 14.9 26.1299 14.11" stroke="#231F20" stroke-miterlimit="10" stroke-linecap="round"/>
<path d="M11.4399 5.95C11.4399 6.11021 11.4715 6.26886 11.5328 6.41687C11.5941 6.56489 11.684 6.69938 11.7973 6.81267C11.9106 6.92596 12.0451 7.01582 12.1931 7.07713C12.3411 7.13844 12.4997 7.17 12.6599 7.17C12.8202 7.17 12.9788 7.13844 13.1268 7.07713C13.2748 7.01582 13.4093 6.92596 13.5226 6.81267C13.6359 6.69938 13.7258 6.56489 13.7871 6.41687C13.8484 6.26886 13.8799 6.11021 13.8799 5.95C13.8799 5.78979 13.8484 5.63114 13.7871 5.48313C13.7258 5.33511 13.6359 5.20062 13.5226 5.08733C13.4093 4.97404 13.2748 4.88418 13.1268 4.82287C12.9788 4.76156 12.8202 4.73 12.6599 4.73C12.4997 4.73 12.3411 4.76156 12.1931 4.82287C12.0451 4.88418 11.9106 4.97404 11.7973 5.08733C11.684 5.20062 11.5941 5.33511 11.5328 5.48313C11.4715 5.63114 11.4399 5.78979 11.4399 5.95Z" fill="white" stroke="#231F20" stroke-miterlimit="10" stroke-linecap="round"/>
<path d="M18.74 6.58C18.74 6.74021 18.7715 6.89886 18.8329 7.04687C18.8942 7.19489 18.984 7.32938 19.0973 7.44267C19.2106 7.55596 19.3451 7.64582 19.4931 7.70713C19.6411 7.76844 19.7998 7.8 19.96 7.8C20.1202 7.8 20.2788 7.76844 20.4269 7.70713C20.5749 7.64582 20.7094 7.55596 20.8227 7.44267C20.9359 7.32938 21.0258 7.19489 21.0871 7.04687C21.1484 6.89886 21.18 6.74021 21.18 6.58C21.18 6.41979 21.1484 6.26114 21.0871 6.11313C21.0258 5.96511 20.9359 5.83062 20.8227 5.71733C20.7094 5.60404 20.5749 5.51418 20.4269 5.45287C20.2788 5.39156 20.1202 5.36 19.96 5.36C19.7998 5.36 19.6411 5.39156 19.4931 5.45287C19.3451 5.51418 19.2106 5.60404 19.0973 5.71733C18.984 5.83062 18.8942 5.96511 18.8329 6.11313C18.7715 6.26114 18.74 6.41979 18.74 6.58Z" fill="white" stroke="#231F20" stroke-miterlimit="10" stroke-linecap="round"/>
<path d="M23.5498 7.67C24.1909 8.42011 24.5452 9.37326 24.5498 10.36" stroke="white" stroke-miterlimit="10" stroke-linecap="round"/>
<path d="M37.3998 29C37.4109 28.4603 37.3674 27.9209 37.2698 27.39C37.1704 26.8611 37.0231 26.3423 36.8298 25.84C38.5298 23.68 38.1498 22.84 37.3498 21.91C36.5498 20.98 35.7898 20.45 33.3498 21.75C32.4295 21.1965 31.4108 20.8263 30.3498 20.66C29.3498 18.11 28.4198 18.03 27.1898 18.24C25.9598 18.45 25.1898 18.84 25.0698 21.61C24.1318 22.1337 23.3034 22.8331 22.6298 23.67C19.9198 23.29 19.3798 24 18.9498 25.19C18.5198 26.38 18.4598 27.26 20.7998 28.71C20.7888 29.2464 20.8323 29.7825 20.9298 30.31C21.0279 30.8392 21.1752 31.3581 21.3698 31.86C19.6698 34.03 20.0498 34.86 20.8498 35.8C21.6498 36.74 22.4098 37.26 24.8498 35.95C25.7681 36.5078 26.7877 36.8782 27.8498 37.04C28.8498 39.6 29.7798 39.68 31.0098 39.46C32.2398 39.24 33.0098 38.86 33.1298 36.1C34.0733 35.5672 34.9025 34.8536 35.5698 34C38.2898 34.38 38.8198 33.66 39.2498 32.47C39.6798 31.28 39.7498 30.41 37.3998 29Z" fill="#FF52A1" stroke="#231F20" stroke-miterlimit="10"/>
<path d="M25.0398 28.81C25.0398 29.8894 25.4686 30.9247 26.2319 31.6879C26.9951 32.4512 28.0304 32.88 29.1098 32.88C30.1892 32.88 31.2244 32.4512 31.9877 31.6879C32.751 30.9247 33.1798 29.8894 33.1798 28.81C33.1798 27.7306 32.751 26.6953 31.9877 25.9321C31.2244 25.1688 30.1892 24.74 29.1098 24.74C28.0304 24.74 26.9951 25.1688 26.2319 25.9321C25.4686 26.6953 25.0398 27.7306 25.0398 28.81Z" fill="white" stroke="#231F20" stroke-miterlimit="10"/>
<path d="M30.8499 22.43C31.7479 22.6232 32.5959 23.0013 33.3399 23.54C33.6064 23.3689 33.8875 23.2217 34.1799 23.1" stroke="white" stroke-linecap="round" stroke-linejoin="round"/>
<path d="M31.2758 9.48725C31.3672 9.79762 31.7015 10.0226 32.2051 10.1127C32.7087 10.2028 33.3404 10.1507 33.9611 9.96776C34.5818 9.78483 35.1408 9.4861 35.5151 9.13729C35.8893 8.78848 36.0482 8.41816 35.9567 8.10779C35.9114 7.95411 35.8061 7.81977 35.6466 7.71246C35.4871 7.60514 35.2767 7.52693 35.0274 7.48231C34.778 7.43769 34.4946 7.42753 34.1933 7.4524C33.892 7.47727 33.5787 7.53669 33.2714 7.62727C32.964 7.71785 32.6686 7.83781 32.402 7.9803C32.1353 8.12279 31.9027 8.28503 31.7174 8.45774C31.5321 8.63046 31.3977 8.81027 31.3219 8.98691C31.2462 9.16356 31.2305 9.33357 31.2758 9.48725Z" fill="#FFE236" stroke="#231F20" stroke-miterlimit="10"/>
<path d="M29.2564 5.84227C29.4743 6.08148 29.8733 6.13777 30.3657 5.99877C30.858 5.85978 31.4034 5.53687 31.8818 5.1011C32.3602 4.66532 32.7325 4.15237 32.9167 3.67509C33.1009 3.1978 33.082 2.79529 32.8641 2.55608C32.6462 2.31688 32.2472 2.26058 31.7548 2.39958C31.2625 2.53858 30.7171 2.86148 30.2387 3.29726C29.7603 3.73303 29.388 4.24598 29.2038 4.72327C29.0196 5.20055 29.0385 5.60307 29.2564 5.84227Z" fill="#FFE236" stroke="#231F20" stroke-miterlimit="10"/>
<path d="M33.7 14.81C33.7 15.2184 33.8622 15.6101 34.151 15.8989C34.4398 16.1878 34.8315 16.35 35.24 16.35C35.6484 16.35 36.0401 16.1878 36.3289 15.8989C36.6177 15.6101 36.7799 15.2184 36.7799 14.81C36.7799 14.4016 36.6177 14.0099 36.3289 13.7211C36.0401 13.4323 35.6484 13.27 35.24 13.27C34.8315 13.27 34.4398 13.4323 34.151 13.7211C33.8622 14.0099 33.7 14.4016 33.7 14.81Z" fill="#FFE236" stroke="#231F20" stroke-miterlimit="10" stroke-linecap="round"/>
</g>
<defs>
<clipPath id="clip0_2301_14278">
<rect width="40" height="40" fill="white"/>
</clipPath>
</defs>
</svg>
