<svg width="40" height="40" viewBox="0 0 40 40" fill="none" xmlns="http://www.w3.org/2000/svg">
<g clip-path="url(#clip0_2301_14250)">
<path d="M30.3101 9.43C29.7201 7.62 27.2101 6.87 22.8901 7.43C20.6001 4.47 17.0001 3.37 12.4201 4.86C7.8401 6.35 5.5701 9.34 5.4201 13.06C1.6001 15.16 0.0101043 17.24 0.600104 19.06C1.1901 20.88 3.6901 21.61 8.0201 21.06C10.3001 23.99 13.8701 25.06 18.4801 23.6C23.0901 22.14 25.3301 19.12 25.4801 15.4C29.3001 13.31 30.8901 11.23 30.3101 9.43Z" fill="#48EEFF" stroke="#231F20" stroke-miterlimit="10"/>
<path d="M10.8201 20.46C15.0649 19.6466 19.1906 18.3027 23.1001 16.46" stroke="#231F20" stroke-miterlimit="10" stroke-linecap="round"/>
<path d="M9.18018 10.56C9.18018 10.7754 9.22259 10.9886 9.30501 11.1876C9.38743 11.3866 9.50823 11.5674 9.66052 11.7197C9.81281 11.8719 9.9936 11.9927 10.1926 12.0752C10.3915 12.1576 10.6048 12.2 10.8202 12.2C11.0355 12.2 11.2488 12.1576 11.4478 12.0752C11.6467 11.9927 11.8275 11.8719 11.9798 11.7197C12.1321 11.5674 12.2529 11.3866 12.3353 11.1876C12.4178 10.9886 12.4602 10.7754 12.4602 10.56C12.4602 10.3446 12.4178 10.1314 12.3353 9.9324C12.2529 9.73342 12.1321 9.55263 11.9798 9.40034C11.8275 9.24806 11.6467 9.12726 11.4478 9.04484C11.2488 8.96242 11.0355 8.92 10.8202 8.92C10.6048 8.92 10.3915 8.96242 10.1926 9.04484C9.9936 9.12726 9.81281 9.24806 9.66052 9.40034C9.50823 9.55263 9.38743 9.73342 9.30501 9.9324C9.22259 10.1314 9.18018 10.3446 9.18018 10.56Z" fill="white" stroke="#231F20" stroke-miterlimit="10"/>
<path d="M17.3201 10.77C17.3201 11.0962 17.4497 11.4091 17.6803 11.6397C17.911 11.8704 18.2239 12 18.5501 12C18.8763 12 19.1891 11.8704 19.4198 11.6397C19.6505 11.4091 19.7801 11.0962 19.7801 10.77C19.7801 10.4438 19.6505 10.1309 19.4198 9.90026C19.1891 9.66959 18.8763 9.54 18.5501 9.54C18.2239 9.54 17.911 9.66959 17.6803 9.90026C17.4497 10.1309 17.3201 10.4438 17.3201 10.77Z" fill="white" stroke="#231F20" stroke-miterlimit="10"/>
<path d="M26.42 10.77C21.89 13.55 10.08 17.38 4.77002 17.77" stroke="#231F20" stroke-miterlimit="10" stroke-linecap="round"/>
<path d="M5.44019 13.06C5.4846 13.9261 5.63918 14.783 5.90019 15.61" stroke="#231F20" stroke-miterlimit="10" stroke-linecap="round"/>
<path d="M22.8901 7.4C23.2198 7.96735 23.4816 8.5715 23.6701 9.2" stroke="#231F20" stroke-miterlimit="10" stroke-linecap="round"/>
<path d="M16.1501 6.05C17.4836 5.91221 18.8213 6.26799 19.9101 7.05" stroke="white" stroke-miterlimit="10" stroke-linecap="round"/>
<path d="M36.62 20.64C36.0801 18.9254 35.4115 17.254 34.62 15.64C34.09 14.76 32.83 15.07 32.12 15.33C31.41 15.59 30.41 16.07 30.38 16.95C29.19 17.27 27.61 17.82 26.21 18.32C23.85 19.17 21.01 20.23 20.63 20.85C20.4702 21.0388 20.3526 21.2596 20.2853 21.4977C20.218 21.7357 20.2026 21.9855 20.24 22.23C18.6879 22.7751 17.2202 23.5359 15.88 24.49C15.696 24.6471 15.55 24.8439 15.453 25.0656C15.356 25.2874 15.3105 25.5282 15.32 25.77C14.6565 26.0083 14.0328 26.3454 13.47 26.77C12.95 27.18 13.19 28.21 13.47 28.96C13.75 29.71 14.21 30.66 14.86 30.64C15.5711 30.6202 16.2754 30.4955 16.95 30.27C17.0975 30.4616 17.2868 30.617 17.5034 30.7244C17.72 30.8319 17.9583 30.8885 18.2 30.89C19.3187 30.8616 20.4271 30.6696 21.49 30.32C21.6028 30.6758 21.768 31.0128 21.98 31.32C21.4793 32.189 21.0383 33.0911 20.66 34.02C20.2149 35.0519 19.8797 36.1278 19.66 37.23C19.55 37.86 20.15 38.23 20.66 38.44C21.17 38.65 21.84 38.8 22.21 38.28C22.8265 37.338 23.3395 36.3322 23.74 35.28C24.05 34.54 24.35 33.69 24.55 33.04C24.8294 33.1003 25.1143 33.1304 25.4 33.13C25.6891 33.1312 25.9775 33.101 26.26 33.04C26.4672 33.8057 26.7142 34.5601 27 35.3C27.409 36.3484 27.9216 37.3534 28.53 38.3C28.9 38.82 29.6 38.66 30.09 38.46C30.58 38.26 31.19 37.88 31.09 37.25C30.8732 36.1471 30.5379 35.0709 30.09 34.04C29.7187 33.1097 29.2809 32.2074 28.78 31.34C29.1779 30.7444 29.4124 30.0547 29.46 29.34L30.11 29.11C31.51 28.61 33.11 28.03 34.2 27.51C34.78 28.18 35.91 27.9 36.57 27.67C37.23 27.44 38.46 26.85 38.3 25.84C37.8832 24.0636 37.3213 22.3245 36.62 20.64Z" fill="#FF52A1" stroke="#231F20" stroke-miterlimit="10"/>
<path d="M23.6899 29.04C23.6899 29.475 23.8627 29.8921 24.1703 30.1997C24.4778 30.5072 24.895 30.68 25.3299 30.68C25.7649 30.68 26.182 30.5072 26.4896 30.1997C26.7972 29.8921 26.9699 29.475 26.9699 29.04C26.9699 28.605 26.7972 28.1879 26.4896 27.8803C26.182 27.5728 25.7649 27.4 25.3299 27.4C24.895 27.4 24.4778 27.5728 24.1703 27.8803C23.8627 28.1879 23.6899 28.605 23.6899 29.04Z" fill="white" stroke="#231F20" stroke-miterlimit="10"/>
<path d="M31.1201 19.19C31.716 21.2977 32.4543 23.3624 33.3301 25.37" stroke="#231F20" stroke-miterlimit="10" stroke-linecap="round"/>
<path d="M20.21 22.19C20.5662 23.9565 21.0406 25.6971 21.63 27.4" stroke="#231F20" stroke-miterlimit="10" stroke-linecap="round"/>
<path d="M15.29 25.73C15.3284 26.2354 15.4465 26.7316 15.64 27.2" stroke="#231F20" stroke-miterlimit="10" stroke-linecap="round"/>
<path d="M32.5701 16.73C33.6801 16.36 33.4301 16.84 34.3901 19.01" stroke="white" stroke-miterlimit="10" stroke-linecap="round"/>
<path d="M37.08 4.62C37.08 4.07 36.51 3.62 34.96 3.45C34.81 1.9 34.34 1.34 33.79 1.34C33.24 1.34 32.79 1.9 32.61 3.45C31.07 3.6 30.5 4.07 30.5 4.62C30.5 5.17 31.07 5.62 32.61 5.8C32.77 7.34 33.23 7.91 33.79 7.91C34.35 7.91 34.79 7.34 34.96 5.8C36.51 5.64 37.08 5.18 37.08 4.62Z" fill="#FFE236" stroke="#231F20" stroke-miterlimit="10"/>
<path d="M24.4702 3.41C24.4702 3.73622 24.5998 4.04907 24.8305 4.27974C25.0611 4.51041 25.374 4.64 25.7002 4.64C26.0264 4.64 26.3393 4.51041 26.57 4.27974C26.8006 4.04907 26.9302 3.73622 26.9302 3.41C26.9302 3.08378 26.8006 2.77093 26.57 2.54026C26.3393 2.30959 26.0264 2.18 25.7002 2.18C25.374 2.18 25.0611 2.30959 24.8305 2.54026C24.5998 2.77093 24.4702 3.08378 24.4702 3.41Z" fill="#FFE236" stroke="#231F20" stroke-miterlimit="10" stroke-linecap="round"/>
<path d="M36.24 11.23C36.24 11.4441 36.2821 11.656 36.3641 11.8538C36.446 12.0515 36.566 12.2312 36.7174 12.3826C36.8688 12.5339 37.0485 12.654 37.2462 12.7359C37.444 12.8178 37.6559 12.86 37.87 12.86C38.084 12.86 38.296 12.8178 38.4938 12.7359C38.6915 12.654 38.8712 12.5339 39.0226 12.3826C39.1739 12.2312 39.294 12.0515 39.3759 11.8538C39.4578 11.656 39.5 11.4441 39.5 11.23C39.5 11.0159 39.4578 10.804 39.3759 10.6062C39.294 10.4085 39.1739 10.2288 39.0226 10.0774C38.8712 9.92606 38.6915 9.80599 38.4938 9.72408C38.296 9.64216 38.084 9.6 37.87 9.6C37.6559 9.6 37.444 9.64216 37.2462 9.72408C37.0485 9.80599 36.8688 9.92606 36.7174 10.0774C36.566 10.2288 36.446 10.4085 36.3641 10.6062C36.2821 10.804 36.24 11.0159 36.24 11.23Z" fill="#FFE236" stroke="#231F20" stroke-miterlimit="10" stroke-linecap="round"/>
</g>
<defs>
<clipPath id="clip0_2301_14250">
<rect width="40" height="40" fill="white"/>
</clipPath>
</defs>
</svg>
