<svg width="40" height="40" viewBox="0 0 40 40" fill="none" xmlns="http://www.w3.org/2000/svg">
<path d="M30.683 23.416C30.5383 23.2414 30.3882 23.0714 30.233 22.906C32.549 20.711 33.24 18.416 33.24 14.462C33.24 5.847 27.206 0.5 19.278 0.5C10.929 0.5 6.76005 5.507 6.76005 13.018C6.76005 17.024 7.96405 20.317 10.342 22.512C7.03905 24.919 5.37305 28.906 5.37305 33.884C5.37305 39.746 17.452 39.5 20.723 39.498C29.992 39.492 34.627 38.102 34.627 35.328C34.627 30.631 33.625 25.854 30.683 23.416Z" fill="#00034A" stroke="#00034A" stroke-miterlimit="10"/>
<path d="M28.214 22.512C30.592 20.317 31.796 17.024 31.796 13.018C31.796 5.508 27.626 0.5 19.278 0.5C10.929 0.5 6.76005 5.507 6.76005 13.018C6.76005 17.024 7.96405 20.317 10.342 22.512C7.03905 24.919 5.37305 28.906 5.37305 33.884C5.37305 36.67 10.008 38.06 19.278 38.054C28.548 38.047 33.182 36.657 33.182 33.884C33.182 28.906 31.516 24.919 28.214 22.512Z" fill="#9BFF00" stroke="#00034A" stroke-miterlimit="10"/>
<path d="M19.73 0.5C18.591 0.816433 17.6083 1.54088 16.9691 2.53526C16.3299 3.52965 16.0789 4.72447 16.264 5.892C16.764 8.463 21.156 8.136 20.626 5.449C20.346 4.072 18.826 4.775 18.826 4.775" stroke="#00034A" stroke-miterlimit="10" stroke-linecap="round"/>
<path d="M14.4049 14.414C14.6832 14.4201 14.9598 14.3705 15.2187 14.2683C15.4775 14.166 15.7133 14.0131 15.9123 13.8184C16.1112 13.6238 16.2693 13.3914 16.3772 13.1349C16.4851 12.8783 16.5407 12.6028 16.5407 12.3245C16.5407 12.0462 16.4851 11.7707 16.3772 11.5141C16.2693 11.2576 16.1112 11.0252 15.9123 10.8306C15.7133 10.6359 15.4775 10.483 15.2187 10.3807C14.9598 10.2785 14.6832 10.2289 14.4049 10.235C13.8506 10.235 13.319 10.4552 12.9271 10.8471C12.5351 11.2391 12.3149 11.7707 12.3149 12.325C12.3149 12.8793 12.5351 13.4109 12.9271 13.8029C13.319 14.1948 13.8506 14.415 14.4049 14.415V14.414Z" fill="#00034A"/>
<path d="M24.1501 14.414C24.4283 14.4201 24.705 14.3705 24.9638 14.2683C25.2226 14.166 25.4584 14.0131 25.6574 13.8184C25.8563 13.6238 26.0144 13.3914 26.1223 13.1349C26.2302 12.8783 26.2858 12.6028 26.2858 12.3245C26.2858 12.0462 26.2302 11.7707 26.1223 11.5141C26.0144 11.2576 25.8563 11.0252 25.6574 10.8306C25.4584 10.6359 25.2226 10.483 24.9638 10.3807C24.705 10.2785 24.4283 10.2289 24.1501 10.235C23.5958 10.235 23.0642 10.4552 22.6722 10.8471C22.2803 11.2391 22.0601 11.7707 22.0601 12.325C22.0601 12.8793 22.2803 13.4109 22.6722 13.8029C23.0642 14.1948 23.5958 14.415 24.1501 14.415V14.414Z" fill="#00034A"/>
<path d="M19.2779 25.536C17.5403 25.5415 15.8122 25.2784 14.1549 24.756C13.8644 25.4413 13.7138 26.1777 13.7119 26.922C13.7119 30.004 15.5709 32.488 19.2779 32.488C22.9849 32.488 24.8439 30.004 24.8439 26.922C24.8417 26.1776 24.6908 25.4412 24.3999 24.756C22.743 25.2783 21.0152 25.5414 19.2779 25.536Z" fill="white" stroke="#00034A" stroke-miterlimit="10"/>
<path d="M21.95 16.374C21.959 17.526 20.765 18.469 19.283 18.481C17.801 18.494 16.593 17.571 16.583 16.419" stroke="#00034A" stroke-linecap="round"/>
</svg>
