<svg width="40" height="40" viewBox="0 0 40 40" fill="none" xmlns="http://www.w3.org/2000/svg">
<g clip-path="url(#clip0_2301_14192)">
<path d="M15.67 7.65C15.57 7.41 15.08 7.16 14.45 6.94C14.53 6.42 14.53 5.87 14.23 5.67C13.561 5.29389 12.8346 5.03037 12.08 4.89C11.3385 4.70442 10.5703 4.65027 9.81005 4.73C9.45005 4.73 9.23005 5.29 9.08005 5.79C8.60918 5.69242 8.11956 5.74487 7.68005 5.94C7.28005 6.11 6.96005 7.41 6.73005 8.5C6.50005 9.59 6.25005 10.91 6.54005 11.23C6.78005 11.8 9.08005 12.35 10.42 12.64C11.76 12.93 14.08 13.36 14.54 12.94C14.94 12.77 15.25 11.47 15.54 10.38C15.83 9.29 16 8 15.67 7.65Z" fill="#FF52A1" stroke="#231F20" stroke-miterlimit="10"/>
<path d="M9.62012 9.27C9.62012 9.67313 9.78026 10.0597 10.0653 10.3448C10.3504 10.6299 10.737 10.79 11.1401 10.79C11.5432 10.79 11.9299 10.6299 12.2149 10.3448C12.5 10.0597 12.6601 9.67313 12.6601 9.27C12.6601 9.07039 12.6208 8.87274 12.5444 8.68832C12.468 8.50391 12.3561 8.33634 12.2149 8.1952C12.0738 8.05405 11.9062 7.94209 11.7218 7.8657C11.5374 7.78932 11.3397 7.75 11.1401 7.75C10.9405 7.75 10.7429 7.78932 10.5584 7.8657C10.374 7.94209 10.2065 8.05405 10.0653 8.1952C9.92417 8.33634 9.81221 8.50391 9.73582 8.68832C9.65943 8.87274 9.62012 9.07039 9.62012 9.27Z" fill="white" stroke="#231F20" stroke-miterlimit="10"/>
<path d="M17.6 17.54C16.822 16.9507 15.8685 16.6402 14.8927 16.6583C13.9169 16.6765 12.9756 17.0222 12.22 17.64C8.11001 20.33 0.88001 34.08 1.00001 37.68C1.00001 39.4 3.71001 39.68 15.36 39.43C27.01 39.18 29.7 38.81 29.67 37.13C29.87 32.78 20.76 19.44 17.6 17.54Z" fill="#FFE236" stroke="#231F20" stroke-miterlimit="10"/>
<path d="M22.0001 37.28C22.1001 33.81 19.0001 24.57 16.8401 20" stroke="#231F20" stroke-miterlimit="10" stroke-linecap="round"/>
<path d="M5.1001 34.56C5.1001 34.56 7.3501 34.63 11.8501 34.56C16.3501 34.49 18.5901 34.32 18.5901 34.32" stroke="#231F20" stroke-miterlimit="10" stroke-linecap="round"/>
<path d="M7.53003 29.46C7.53003 29.46 9.22003 29.52 12.6 29.46C15.98 29.4 17.6 29.28 17.6 29.28" stroke="#231F20" stroke-miterlimit="10" stroke-linecap="round"/>
<path d="M10 24.35H12.95C14.9 24.35 15.9 24.24 15.9 24.24" stroke="#231F20" stroke-miterlimit="10" stroke-linecap="round"/>
<path d="M10.9101 29.39L10.8801 27.7" stroke="#231F20" stroke-miterlimit="10" stroke-linecap="round"/>
<path d="M14.3801 34.39L14.3501 32.7" stroke="#231F20" stroke-miterlimit="10" stroke-linecap="round"/>
<path d="M14.1799 24.26L14.1499 22.58" stroke="#231F20" stroke-miterlimit="10" stroke-linecap="round"/>
<path d="M7.6301 34.51L7.6001 32.83" stroke="#231F20" stroke-miterlimit="10" stroke-linecap="round"/>
<path d="M11.7 20.62C12.3733 19.5661 13.3911 18.7781 14.58 18.39" stroke="white" stroke-miterlimit="10" stroke-linecap="round"/>
<path d="M33.97 25.62C33.97 25.9194 34.0289 26.2159 34.1435 26.4925C34.2581 26.7691 34.4261 27.0205 34.6378 27.2322C34.8495 27.4439 35.1008 27.6119 35.3775 27.7264C35.6541 27.841 35.9506 27.9 36.25 27.9C36.5494 27.9 36.8459 27.841 37.1225 27.7264C37.3991 27.6119 37.6505 27.4439 37.8622 27.2322C38.0739 27.0205 38.2418 26.7691 38.3564 26.4925C38.471 26.2159 38.53 25.9194 38.53 25.62C38.53 25.3206 38.471 25.0241 38.3564 24.7475C38.2418 24.4709 38.0739 24.2195 37.8622 24.0078C37.6505 23.7961 37.3991 23.6281 37.1225 23.5136C36.8459 23.399 36.5494 23.34 36.25 23.34C35.9506 23.34 35.6541 23.399 35.3775 23.5136C35.1008 23.6281 34.8495 23.7961 34.6378 24.0078C34.4261 24.2195 34.2581 24.4709 34.1435 24.7475C34.0289 25.0241 33.97 25.3206 33.97 25.62Z" fill="#FF52A1" stroke="#231F20" stroke-miterlimit="10"/>
<path d="M2.5 17.18C2.5 17.6282 2.67805 18.0581 2.99499 18.375C3.31193 18.6919 3.74178 18.87 4.19 18.87C4.63822 18.87 5.06807 18.6919 5.38501 18.375C5.70195 18.0581 5.88 17.6282 5.88 17.18C5.88 16.7318 5.70195 16.3019 5.38501 15.985C5.06807 15.6681 4.63822 15.49 4.19 15.49C3.74178 15.49 3.31193 15.6681 2.99499 15.985C2.67805 16.3019 2.5 16.7318 2.5 17.18Z" fill="#FF52A1" stroke="#231F20" stroke-miterlimit="10"/>
<path d="M30.18 0.639999C22.93 -0.290001 19.59 3.64 18.82 9.64C18.26 14.03 20.02 17.04 23.47 19.83H23.56C23.4667 20.7577 23.4667 21.6923 23.56 22.62C23.1194 23.1772 22.8672 23.8601 22.84 24.57C22.75 25.3 22.67 26.57 23.29 26.84C24.4038 27.191 25.5551 27.4091 26.72 27.49C27.8675 27.6991 29.0347 27.7796 30.2 27.73C30.87 27.62 31.11 26.37 31.2 25.64C31.3458 24.9656 31.2758 24.2625 31 23.63C31.3352 22.7616 31.5766 21.8598 31.72 20.94H31.83C35.83 19.11 38.33 16.64 38.89 12.24C39.67 6.2 37.43 1.56 30.18 0.639999Z" fill="#48EEFF" stroke="#231F20" stroke-miterlimit="10"/>
<path d="M26 20.06C26.5556 20.2228 27.1245 20.3366 27.7 20.4C28.2762 20.4822 28.8582 20.5156 29.44 20.5" stroke="#231F20" stroke-miterlimit="10" stroke-linecap="round"/>
<path d="M27.1802 4.15C25.7586 5.75043 24.9045 7.77497 24.7502 9.91C24.3659 12.013 24.6821 14.1839 25.6502 16.09" stroke="#231F20" stroke-miterlimit="10" stroke-linecap="round"/>
<path d="M30.6699 16.74C32.0885 15.1446 32.9456 13.1285 33.1099 11C33.4933 8.8927 33.1736 6.7178 32.1999 4.81" stroke="#231F20" stroke-miterlimit="10" stroke-linecap="round"/>
<path d="M25.54 23.25C26.1002 23.4059 26.6721 23.5163 27.25 23.58C27.8223 23.6678 28.4013 23.7046 28.98 23.69" stroke="#231F20" stroke-miterlimit="10" stroke-linecap="round"/>
<path d="M32.6699 2.81C33.933 3.1698 35.0585 3.90156 35.8999 4.91" stroke="white" stroke-miterlimit="10" stroke-linecap="round"/>
</g>
<defs>
<clipPath id="clip0_2301_14192">
<rect width="40" height="40" fill="white"/>
</clipPath>
</defs>
</svg>
