<svg width="40" height="40" viewBox="0 0 40 40" fill="none" xmlns="http://www.w3.org/2000/svg">
<g clip-path="url(#clip0_2301_15481)">
<path d="M16.0209 8.19798C16.3429 8.53798 16.1769 9.79598 15.8949 10.859L15.8229 11.129C15.5609 12.126 15.2769 13.203 14.9199 13.355C14.4709 13.765 12.2099 13.345 10.9029 13.062C9.69489 12.801 6.97889 12.355 6.38989 10.957C6.10689 10.645 6.34989 9.35698 6.57489 8.29498C6.79889 7.23198 7.11089 5.96498 7.50089 5.79898C7.92889 5.60898 8.40689 5.55898 8.86589 5.65298C9.01189 5.16598 9.22589 4.61998 9.57789 4.61998C10.319 4.54226 11.068 4.59506 11.7909 4.77598C12.5261 4.91282 13.2339 5.16957 13.8859 5.53598C14.0279 5.63098 14.1009 5.80598 14.1299 6.01898C14.2959 6.09498 14.4579 6.17798 14.6179 6.26698C14.7369 6.34698 15.9329 7.98498 16.0209 8.19698V8.19798Z" fill="#00034A" stroke="#00034A" stroke-miterlimit="10"/>
<path d="M15.2899 7.46603C15.1929 7.23203 14.7149 6.98903 14.0999 6.77403C14.1789 6.26703 14.1789 5.73103 13.8869 5.53603C13.2344 5.16941 12.5259 4.91265 11.7899 4.77603C11.0674 4.59522 10.3187 4.54242 9.57795 4.62003C9.22695 4.62003 9.01195 5.16603 8.86595 5.65303C8.40645 5.55787 7.92868 5.60928 7.49995 5.80003C7.10995 5.96603 6.79795 7.23303 6.57395 8.29603C6.34995 9.35903 6.10595 10.646 6.38895 10.958C6.62295 11.513 8.86495 12.049 10.1709 12.332C11.4769 12.615 13.7389 13.034 14.1879 12.625C14.5779 12.459 14.8799 11.191 15.1629 10.129C15.4449 9.06603 15.6109 7.80903 15.2889 7.46703L15.2899 7.46603Z" fill="#9BFF00" stroke="#00034A" stroke-miterlimit="10"/>
<path d="M10.8741 10.528C11.2671 10.528 11.6441 10.3719 11.922 10.094C12.2 9.81603 12.3561 9.43908 12.3561 9.04603C12.3561 8.65297 12.2 8.27602 11.922 7.99809C11.6441 7.72016 11.2671 7.56403 10.8741 7.56403C10.481 7.56403 10.1041 7.72016 9.82616 7.99809C9.54823 8.27602 9.39209 8.65297 9.39209 9.04603C9.39209 9.43908 9.54823 9.81603 9.82616 10.094C10.1041 10.3719 10.481 10.528 10.8741 10.528Z" fill="white" stroke="#00034A" stroke-miterlimit="10"/>
<path d="M14.533 16.248C15.4842 16.2304 16.4137 16.5333 17.172 17.108C17.665 17.404 18.307 17.987 19.036 18.773C22.654 22.056 30.092 33.296 29.913 37.181C29.943 38.818 27.32 39.179 15.963 39.423C8.90096 39.574 5.20896 39.526 3.42596 39.065C2.58496 38.847 0.989964 37.697 0.989964 36.742C0.872964 33.232 7.92096 19.828 11.928 17.206C12.6646 16.6036 13.5825 16.2665 14.534 16.249L14.533 16.248Z" fill="#00034A" stroke="#00034A" stroke-miterlimit="10"/>
<path d="M17.172 17.108C16.4135 16.5334 15.4839 16.2307 14.5325 16.2485C13.5812 16.2663 12.6635 16.6035 11.927 17.206C7.91999 19.828 0.871987 33.231 0.988987 36.742C0.988987 38.419 3.63099 38.692 14.989 38.448C26.345 38.204 28.968 37.844 28.939 36.206C29.134 31.966 20.252 18.96 17.172 17.108Z" fill="#9BFF00" stroke="#00034A" stroke-miterlimit="10"/>
<path d="M21.4609 36.352C21.5589 32.969 18.5369 23.962 16.4309 19.506" stroke="#00034A" stroke-miterlimit="10" stroke-linecap="round"/>
<path d="M4.98608 33.7C4.98608 33.7 7.17908 33.769 11.5661 33.7C15.9531 33.632 18.1361 33.466 18.1361 33.466" stroke="#00034A" stroke-miterlimit="10" stroke-linecap="round"/>
<path d="M7.35498 28.729C7.35498 28.729 9.00198 28.787 12.297 28.729C15.592 28.67 17.172 28.553 17.172 28.553" stroke="#00034A" stroke-miterlimit="10" stroke-linecap="round"/>
<path d="M9.76294 23.747H12.6389C14.5389 23.747 15.5149 23.64 15.5149 23.64" stroke="#00034A" stroke-miterlimit="10" stroke-linecap="round"/>
<path d="M10.6501 28.66L10.6201 27.013" stroke="#00034A" stroke-miterlimit="10" stroke-linecap="round"/>
<path d="M14.0329 33.535L14.0029 31.887" stroke="#00034A" stroke-miterlimit="10" stroke-linecap="round"/>
<path d="M13.8381 23.66L13.8081 22.021" stroke="#00034A" stroke-miterlimit="10" stroke-linecap="round"/>
<path d="M7.4521 33.652L7.4231 32.014" stroke="#00034A" stroke-miterlimit="10" stroke-linecap="round"/>
<path d="M35.3529 22.762C34.7633 22.762 34.1979 22.9962 33.781 23.4131C33.3641 23.83 33.1299 24.3954 33.1299 24.985C33.1299 26.3 34.5259 27.695 35.8399 27.695C36.4295 27.695 36.9949 27.4608 37.4118 27.0439C37.8287 26.627 38.0629 26.0616 38.0629 25.472C38.0629 24.157 36.6679 22.762 35.3529 22.762Z" fill="#00034A" stroke="#00034A" stroke-miterlimit="10"/>
<path d="M35.3529 27.208C35.6448 27.208 35.9339 27.1505 36.2036 27.0388C36.4733 26.9271 36.7184 26.7633 36.9248 26.5569C37.1312 26.3505 37.2949 26.1054 37.4067 25.8357C37.5184 25.566 37.5759 25.277 37.5759 24.985C37.5759 24.6931 37.5184 24.404 37.4067 24.1343C37.2949 23.8646 37.1312 23.6196 36.9248 23.4131C36.7184 23.2067 36.4733 23.043 36.2036 22.9312C35.9339 22.8195 35.6448 22.762 35.3529 22.762C34.7633 22.762 34.1979 22.9962 33.781 23.4131C33.3641 23.83 33.1299 24.3954 33.1299 24.985C33.1299 25.5746 33.3641 26.14 33.781 26.5569C34.1979 26.9738 34.7633 27.208 35.3529 27.208Z" fill="#9BFF00" stroke="#00034A" stroke-miterlimit="10"/>
<path d="M4.09893 15.11C3.18893 15.11 2.45093 15.847 2.45093 16.757C2.45093 17.751 3.59193 18.892 4.58593 18.892C5.49593 18.892 6.23393 18.154 6.23393 17.244C6.23393 16.251 5.09293 15.11 4.09893 15.11Z" fill="#00034A" stroke="#00034A" stroke-miterlimit="10"/>
<path d="M4.09893 18.405C4.536 18.405 4.95518 18.2314 5.26424 17.9223C5.5733 17.6133 5.74693 17.1941 5.74693 16.757C5.74693 16.3199 5.5733 15.9008 5.26424 15.5917C4.95518 15.2826 4.536 15.109 4.09893 15.109C3.66185 15.109 3.24268 15.2826 2.93362 15.5917C2.62456 15.9008 2.45093 16.3199 2.45093 16.757C2.45093 17.1941 2.62456 17.6133 2.93362 17.9223C3.24268 18.2314 3.66185 18.405 4.09893 18.405Z" fill="#9BFF00" stroke="#00034A" stroke-miterlimit="10"/>
<path d="M18.361 9.40602C19.111 3.55702 22.368 -0.273985 29.436 0.633015C35.837 1.44502 39.731 6.49202 38.902 12.916C38.356 17.206 35.919 19.613 32.019 21.397H31.912C31.772 22.294 31.537 23.173 31.21 24.02C31.479 24.636 31.547 25.322 31.405 25.98C31.317 26.691 31.083 27.91 30.43 28.017C29.2942 28.0653 28.1565 27.9868 27.038 27.783C25.9023 27.704 24.7798 27.4912 23.694 27.149C23.144 26.91 22.719 26.174 22.719 26.174C22.114 25.911 22.192 24.673 22.28 23.961C22.3067 23.2693 22.5526 22.6039 22.982 22.061C22.8976 21.2234 22.8912 20.3798 22.963 19.541C22.5966 19.2089 22.2459 18.8598 21.912 18.495C19.202 16.005 17.871 13.247 18.361 9.40602Z" fill="#00034A" stroke="#00034A" stroke-miterlimit="10"/>
<path d="M29.436 0.633015C22.368 -0.273985 19.112 3.55702 18.36 9.40602C17.814 13.686 19.53 16.621 22.893 19.34H22.981C22.89 20.2444 22.89 21.1556 22.981 22.06C22.5513 22.6032 22.3055 23.2689 22.279 23.961C22.191 24.673 22.113 25.911 22.718 26.174C23.804 26.517 24.926 26.729 26.062 26.808C27.1804 27.0118 28.3181 27.0903 29.454 27.042C30.107 26.935 30.341 25.716 30.429 25.004C30.571 24.3467 30.5027 23.6614 30.234 23.045C30.5607 22.1985 30.796 21.3195 30.936 20.423H31.043C34.943 18.639 37.38 16.231 37.926 11.941C38.686 6.05302 36.503 1.52902 29.435 0.633015H29.436Z" fill="white" stroke="#00034A" stroke-miterlimit="10"/>
<path d="M25.3601 19.565C25.9021 19.723 26.4571 19.835 27.0181 19.896C27.5801 19.976 28.1481 20.009 28.7141 19.994" stroke="#00034A" stroke-miterlimit="10" stroke-linecap="round"/>
<path d="M26.5111 4.05402C25.1252 5.61444 24.2925 7.58838 24.1421 9.67002C23.768 11.72 24.0764 13.8361 25.0201 15.694" stroke="#00034A" stroke-miterlimit="10" stroke-linecap="round"/>
<path d="M29.9131 16.328C31.2966 14.7729 32.1326 12.8073 32.2931 10.732C32.6664 8.6777 32.3544 6.55764 31.4051 4.698" stroke="#00034A" stroke-miterlimit="10" stroke-linecap="round"/>
<path d="M24.9121 22.674C25.4581 22.826 26.0161 22.934 26.5791 22.996C27.1371 23.0819 27.7017 23.118 28.2661 23.104" stroke="#00034A" stroke-miterlimit="10" stroke-linecap="round"/>
</g>
<defs>
<clipPath id="clip0_2301_15481">
<rect width="40" height="40" fill="white"/>
</clipPath>
</defs>
</svg>
