<svg width="40" height="40" viewBox="0 0 40 40" fill="none" xmlns="http://www.w3.org/2000/svg">
<g clip-path="url(#clip0_2301_14180)">
<path d="M28.2901 9.89C27.09 8.77 25.76 7.48 25.76 7.48C25.7544 7.04343 25.6262 6.61724 25.39 6.25C25.2039 5.98156 24.9268 5.78971 24.61 5.71C24.2917 4.75391 23.7926 3.86786 23.14 3.1C22.5297 2.24065 21.8103 1.46416 21 0.79C20.7031 0.594719 20.3555 0.490658 20 0.490658C19.6446 0.490658 19.297 0.594719 19 0.79C18.1651 1.45956 17.422 2.23625 16.79 3.1C16.1707 3.89981 15.6783 4.79025 15.33 5.74C15.0376 5.82009 14.7826 6.00066 14.61 6.25C14.3724 6.63554 14.2413 7.07723 14.23 7.53C14.23 7.53 12.91 8.77 11.8 9.79C10.7 10.98 10.55 14.79 10.55 17.05C10.55 19.58 10.73 23.94 12.19 24.6C12.4424 24.7704 12.7292 24.8831 13.03 24.93C12.93 26.44 12.91 28.34 12.91 30.05C12.91 33.26 12.96 37.13 13.53 37.86C14.09 39.31 17.82 39.5 20 39.5C22.18 39.5 25.91 39.31 26.47 37.86C27.03 37.13 27.09 33.26 27.09 30.05C27.09 28.34 27.09 26.44 26.97 24.93C27.2709 24.8831 27.5577 24.7704 27.81 24.6C29.27 23.94 29.4501 19.6 29.4501 17.05C29.4501 14.82 29.3101 11.19 28.2901 9.89Z" fill="#FF52A1" stroke="#231F20" stroke-miterlimit="10"/>
<path d="M14.6799 17.64C14.6799 19.051 15.2404 20.4041 16.2381 21.4018C17.2358 22.3995 18.589 22.96 19.9999 22.96C21.4109 22.96 22.764 22.3995 23.7617 21.4018C24.7594 20.4041 25.3199 19.051 25.3199 17.64C25.3199 16.229 24.7594 14.8759 23.7617 13.8782C22.764 12.8805 21.4109 12.32 19.9999 12.32C18.589 12.32 17.2358 12.8805 16.2381 13.8782C15.2404 14.8759 14.6799 16.229 14.6799 17.64Z" fill="white" stroke="#231F20" stroke-miterlimit="10"/>
<path d="M24.73 10C24.73 10 23.15 9.81 20 9.81C16.85 9.81 15.27 9.95 15.27 9.95" stroke="#231F20" stroke-miterlimit="10" stroke-linecap="round"/>
<path d="M16.45 25.19C16.45 25.19 17.64 25.3 20 25.3C22.36 25.3 23.5499 25.19 23.5499 25.19" stroke="#231F20" stroke-miterlimit="10" stroke-linecap="round"/>
<path d="M22.3601 6.36C22.3601 6.36 21.5801 6.31 20.0001 6.31C18.4201 6.31 17.6401 6.36 17.6401 6.36" stroke="#231F20" stroke-miterlimit="10" stroke-linecap="round"/>
<path d="M20 28.86V33.59" stroke="#231F20" stroke-miterlimit="10" stroke-linecap="round"/>
<path d="M16.45 28.86V33.59" stroke="#231F20" stroke-miterlimit="10" stroke-linecap="round"/>
<path d="M23.55 28.86V33.59" stroke="#231F20" stroke-miterlimit="10" stroke-linecap="round"/>
<path d="M20 14.98V17.64L22.66 18.97" stroke="#231F20" stroke-linecap="round" stroke-linejoin="round"/>
<path d="M18.4299 4.18C18.7938 3.63197 19.2467 3.14863 19.7699 2.75" stroke="white" stroke-miterlimit="10" stroke-linecap="round"/>
</g>
<defs>
<clipPath id="clip0_2301_14180">
<rect width="40" height="40" fill="white"/>
</clipPath>
</defs>
</svg>
