<svg width="40" height="40" viewBox="0 0 40 40" fill="none" xmlns="http://www.w3.org/2000/svg">
<path d="M32.2526 7.4832C33.6389 7.4636 35.3821 7.439 36.5118 7.9493C37.1725 8.2481 38.311 9.4791 38.5067 10.187C39.0327 11.1525 39.1084 16.2789 39.1084 20.5351C39.1084 24.7904 39.0514 29.9266 38.5254 30.8833C38.0584 32.5901 35.2386 32.5468 33.1866 32.5164C32.9418 32.5119 32.697 32.5093 32.4522 32.5085C32.23 32.5085 31.9911 32.5124 31.7403 32.5154C30.295 32.535 28.4702 32.5616 27.3455 31.9825C24.7066 32.5399 20.6106 32.5281 17.5027 32.5203C16.8085 32.5184 16.1144 32.5184 15.4203 32.5203C10.8504 32.5321 4.145 32.5498 3.0713 30.7781C2.39 30.2245 1.7804 29.3426 1.5366 28.503C0.960402 26.5238 0.891602 22.7296 0.891602 19.4644C0.891602 15.2564 1.0066 10.1683 2.154 9.2215C3.2444 7.4498 9.9517 7.4665 14.5069 7.4793C15.1994 7.4811 15.8919 7.4811 16.5844 7.4793C19.6913 7.4704 23.7883 7.4596 26.4272 8.0161C27.5185 7.438 29.361 7.4636 30.8171 7.4832C31.0698 7.4872 31.3107 7.4901 31.5349 7.4901C31.758 7.4901 31.9989 7.4872 32.2526 7.4832Z" fill="#00034A" stroke="#00034A" stroke-miterlimit="10"/>
<path d="M37.6071 9.11629C37.0811 7.20399 33.571 7.49009 31.5339 7.49009C30.0227 7.49009 27.7092 7.33769 26.4271 8.01609C23.4815 7.39469 18.7189 7.48129 15.5432 7.48129C11.048 7.48129 3.3299 7.30919 2.154 9.22149C1.0066 10.1683 0.891602 15.2564 0.891602 19.4644C0.891602 23.6725 1.0066 28.7606 2.1727 29.7074C3.3299 31.6207 11.048 31.4476 15.5628 31.4476C18.7386 31.4476 23.5002 31.5342 26.4468 30.9128C27.7663 31.5912 30.0522 31.4388 31.5535 31.4388C33.5907 31.4388 37.1007 31.7347 37.6267 29.8126C38.1527 28.8559 38.2098 23.7207 38.2098 19.4644C38.2098 15.2082 38.1331 10.0828 37.6071 9.11629Z" fill="#9BFF00" stroke="#00034A" stroke-miterlimit="10"/>
<path d="M27.5363 11.4691V14.1375" stroke="#00034A" stroke-miterlimit="10" stroke-linecap="round"/>
<path d="M27.5363 18.1352V20.7937" stroke="#00034A" stroke-miterlimit="10" stroke-linecap="round"/>
<path d="M27.5363 24.7914V27.4598" stroke="#00034A" stroke-miterlimit="10" stroke-linecap="round"/>
<path d="M20.7463 22.4966C20.2319 21.3473 19.6441 20.2323 18.9863 19.1587C20.6125 16.8059 20.2684 14.9604 19.4071 14.0991C18.5468 13.2388 16.6916 12.9036 14.3388 14.5485C13.2654 13.8843 12.1505 13.2899 11.0008 12.7689C10.1457 12.3936 9.14855 12.5714 8.47595 13.2192C7.81265 13.9486 7.81265 15.0628 8.47595 15.7922C9.12385 16.7144 9.84255 17.5836 10.6272 18.3937C9.89435 19.3675 9.25405 20.4077 8.71485 21.5006C8.40405 21.3569 8.08455 21.2327 7.75815 21.129C7.26695 20.996 6.74235 21.1428 6.39155 21.5114C6.01915 21.8721 5.95835 22.4475 6.24705 22.8781C6.85655 23.7236 7.55175 24.5033 8.32255 25.2024C9.03835 25.9457 9.82685 26.6152 10.6754 27.2012C11.0892 27.5044 11.6607 27.4684 12.0332 27.1157C12.4026 26.7649 12.5498 26.2397 12.4166 25.748C12.3675 25.633 12.2347 25.2702 12.0332 24.7914C13.1235 24.2506 14.1608 23.6116 15.1322 22.8791C15.9423 23.6643 16.819 24.3778 17.7524 25.0116C18.4806 25.6685 19.5875 25.6685 20.3156 25.0116C20.9572 24.3388 21.1275 23.3445 20.7463 22.4966Z" fill="white" stroke="#00034A" stroke-miterlimit="10"/>
<path d="M17.2933 17.5423L15.9738 16.2219" stroke="#00034A" stroke-linecap="round" stroke-linejoin="round"/>
</svg>
