<svg width="40" height="40" viewBox="0 0 40 40" fill="none" xmlns="http://www.w3.org/2000/svg">
<g clip-path="url(#clip0_2301_14125)">
<path d="M16.2715 12.7772C16.2715 21.6583 25.7877 27.209 33.4006 22.7685C36.9338 20.7076 39.1103 16.8989 39.1103 12.7772C39.1103 3.8961 29.5942 -1.6547 21.9812 2.7859C18.4481 4.8468 16.2715 8.6554 16.2715 12.7772Z" fill="#FFE236" stroke="#231F20" stroke-miterlimit="10"/>
<path d="M32.2351 16.9395C31.78 16.9482 31.3271 17.004 30.8836 17.106C30.7758 16.2833 30.58 15.255 30.3939 14.3833C30.175 13.0318 29.7798 11.7147 29.2186 10.4659C28.5918 9.7216 27.0934 10.0839 26.2218 10.27C25.488 10.3564 24.7823 10.6039 24.1553 10.9947C23.9117 11.4047 23.8446 11.8958 23.9692 12.3561C24.077 12.8653 24.4099 13.4236 24.645 13.4921C25.1683 13.5979 25.7096 13.5744 26.2218 13.4236C26.3197 14.0308 26.447 14.6674 26.5646 15.2354C26.7506 16.107 26.9759 17.1354 27.2207 17.9188C26.7696 18.0076 26.3295 18.1455 25.9084 18.3302C25.3501 18.5848 25.4579 19.4662 25.5656 19.9755C25.6733 20.4848 25.928 21.327 26.545 21.327C27.6194 21.2447 28.6845 21.0677 29.7279 20.7982C30.7925 20.6212 31.8384 20.3458 32.8521 19.9755C33.4201 19.7209 33.3124 18.8394 33.2046 18.34C33.0968 17.8406 32.8521 16.9493 32.2351 16.9395Z" fill="white" stroke="#231F20" stroke-miterlimit="10"/>
<path d="M24.3318 6.5582C24.3318 7.968 25.8417 8.8492 27.0495 8.1443C27.6101 7.8171 27.9555 7.2125 27.9555 6.5582C27.9555 5.1484 26.4456 4.2673 25.2377 4.9722C24.6771 5.2993 24.3318 5.9039 24.3318 6.5582Z" fill="white" stroke="#231F20" stroke-miterlimit="10"/>
<path d="M29.8455 3.0521C31.001 3.1649 32.1027 3.5954 33.0285 4.2959" stroke="white" stroke-miterlimit="10" stroke-linecap="round"/>
<path d="M24.8508 37.0556C26.8878 36.3015 27.5048 31.8944 27.6909 28.5646C27.877 25.2348 27.7497 20.7786 25.8203 19.7992C24.841 18.8884 19.6307 17.723 15.2432 17.4684C10.8557 17.2138 5.51807 17.7818 4.47017 18.5848C2.42327 19.3389 1.82587 23.7461 1.63977 27.0465C1.45367 30.3469 1.58107 34.8815 3.51037 35.8608C4.48977 36.7716 9.75877 36.9773 14.1365 37.2319C18.5142 37.4865 23.8126 37.8195 24.8508 37.0556Z" fill="#FF52A1" stroke="#231F20" stroke-miterlimit="10"/>
<path d="M5.91954 29.0053C6.37014 28.6723 6.55614 26.8311 6.63454 25.4404C6.71294 24.0497 6.73244 22.1497 6.34074 21.8069C5.69814 21.2602 4.88284 20.9584 4.03924 20.9549C3.20434 20.8613 2.36364 21.0698 1.66914 21.5425C1.19904 21.8755 1.01294 23.7167 0.934638 25.0878C0.856338 26.4589 0.836638 28.3295 1.24804 28.7115C1.44394 29.0836 2.60934 29.1032 3.56914 29.162C4.52894 29.2208 5.67464 29.3383 5.91954 29.0053Z" fill="white" stroke="#231F20" stroke-miterlimit="10"/>
<path d="M22.99 29.9846C24.126 29.681 24.4394 27.8496 24.5178 26.4589C24.5962 25.0682 24.5178 23.2172 23.3915 22.7961C22.8529 22.4043 19.8952 21.8755 17.4272 21.7286C14.9592 21.5817 11.9623 21.7776 11.3845 22.1105C10.2484 22.4043 9.93499 24.2358 9.85669 25.6265C9.77839 27.0172 9.85669 28.8779 10.983 29.2991C11.5216 29.6908 14.4989 29.8181 16.9669 29.9552C19.4349 30.0923 22.4415 30.298 22.99 29.9846Z" fill="white" stroke="#231F20" stroke-miterlimit="10"/>
<path d="M4.44067 35.5866C4.44067 37.8031 6.81567 39.1884 8.71557 38.0802C9.59737 37.5658 10.1406 36.6153 10.1406 35.5866C10.1406 33.3701 7.76557 31.9848 5.86567 33.093C4.98387 33.6074 4.44067 34.5579 4.44067 35.5866Z" fill="#FFE236" stroke="#231F20" stroke-miterlimit="10"/>
<path d="M18.2791 36.3701C18.2791 38.5866 20.6541 39.9719 22.5541 38.8637C23.4358 38.3493 23.979 37.3988 23.979 36.3701C23.979 34.1536 21.6041 32.7683 19.7041 33.8765C18.8223 34.3909 18.2791 35.3414 18.2791 36.3701Z" fill="#FFE236" stroke="#231F20" stroke-miterlimit="10"/>
<path d="M17.3194 24.1868L17.1333 27.4775" stroke="#231F20" stroke-miterlimit="10" stroke-linecap="round"/>
<path d="M19.4937 19.6621C20.8713 19.7869 22.2329 20.0493 23.5581 20.4456" stroke="white" stroke-miterlimit="10" stroke-linecap="round"/>
<path d="M12.4276 4.1993C13.9982 5.2591 15.5557 5.0679 15.2312 3.8552C15.0805 3.2924 14.5387 2.6427 13.8097 2.1509C12.2391 1.0912 10.6816 1.2824 11.0062 2.495C11.1568 3.0578 11.6987 3.7075 12.4276 4.1993Z" fill="#48EEFF" stroke="#231F20" stroke-miterlimit="10"/>
<path d="M10.6183 9.1809C12.4263 9.7132 13.8496 9.0603 13.1802 8.0056C12.8683 7.5142 12.1558 7.0591 11.313 6.8127C9.50503 6.2804 8.08173 6.9333 8.75113 7.988C9.06303 8.4793 9.77543 8.9345 10.6183 9.1809Z" fill="#48EEFF" stroke="#231F20" stroke-miterlimit="10"/>
<path d="M8.24265 13.7396C8.40745 14.6752 10.5198 14.9059 12.045 14.155C12.7528 13.8065 13.1417 13.3243 13.0652 12.8902C12.9004 11.9546 10.788 11.7239 9.26295 12.4748C8.55515 12.8233 8.16625 13.3055 8.24265 13.7396Z" fill="#48EEFF" stroke="#231F20" stroke-miterlimit="10"/>
</g>
<defs>
<clipPath id="clip0_2301_14125">
<rect width="40" height="40" fill="white"/>
</clipPath>
</defs>
</svg>
