<svg width="40" height="40" viewBox="0 0 40 40" fill="none" xmlns="http://www.w3.org/2000/svg">
<g clip-path="url(#clip0_2301_15415)">
<path d="M19.0199 0.5C8.79989 0.5 0.514893 8.784 0.514893 19.003C0.514893 29.55 10.4329 39.468 20.9799 39.468C31.1989 39.468 39.4829 31.183 39.4829 20.964C39.4839 10.418 29.5659 0.5 19.0189 0.5H19.0199Z" fill="#00034A" stroke="#00034A" stroke-miterlimit="10" stroke-linecap="round" stroke-linejoin="round"/>
<path d="M19.003 37.506C29.222 37.506 37.506 29.222 37.506 19.003C37.506 8.784 29.222 0.5 19.003 0.5C8.784 0.5 0.5 8.784 0.5 19.003C0.5 29.222 8.784 37.506 19.003 37.506Z" fill="#9BFF00" stroke="#00034A" stroke-miterlimit="10" stroke-linecap="round" stroke-linejoin="round"/>
<path d="M28.568 24.136C28.416 23.406 26.376 21.148 24.317 19.003C26.376 16.859 28.416 14.6 28.567 13.87C29.004 13.025 27.97 11.868 27.059 10.947C26.149 10.027 24.981 9.04902 24.136 9.43802C23.406 9.59002 21.148 11.63 19.003 13.689C16.859 11.63 14.6 9.59002 13.87 9.44002C13.025 9.00302 11.868 10.037 10.957 10.948C10.046 11.859 9.00204 13.026 9.43804 13.871C9.59004 14.601 11.63 16.86 13.689 19.004C11.63 21.149 9.59004 23.407 9.43904 24.137C9.00204 24.982 10.036 26.14 10.947 27.06C11.858 27.98 13.025 29.005 13.87 28.569C14.6 28.417 16.859 26.377 19.003 24.318C21.148 26.377 23.406 28.417 24.136 28.568C24.981 29.005 26.139 27.971 27.059 27.06C27.979 26.15 29.004 24.981 28.568 24.136Z" fill="white" stroke="#00034A" stroke-miterlimit="10" stroke-linecap="round" stroke-linejoin="round"/>
</g>
<defs>
<clipPath id="clip0_2301_15415">
<rect width="40" height="40" fill="white"/>
</clipPath>
</defs>
</svg>
