<svg width="40" height="40" viewBox="0 0 40 40" fill="none" xmlns="http://www.w3.org/2000/svg">
<path d="M4.2779 15.339C4.0729 17.961 3.9949 20.038 4.3459 20.768C4.6569 21.398 5.1029 22.163 5.6779 22.584C7.0429 23.584 9.9279 24.154 12.0479 24.418C14.6319 24.738 18.4309 24.904 19.4899 23.66C20.0729 22.98 20.5399 20.57 21.0349 17.587C21.9524 17.5878 22.8393 17.2568 23.5319 16.655C24.3959 16.004 25.3099 14.789 25.0569 13.963C23.9589 10.721 21.6259 6.78298 18.3079 5.45498C18.094 5.38408 17.8607 5.40051 17.6588 5.5007C17.457 5.60089 17.3028 5.77673 17.2299 5.98998C16.9995 6.59404 16.6172 7.1285 16.12 7.54173C15.6228 7.95496 15.0274 8.233 14.3914 8.349C13.7554 8.46501 13.1002 8.41506 12.4891 8.20398C11.8781 7.99289 11.3317 7.62781 10.9029 7.14398C10.779 6.83524 10.6966 6.51141 10.6579 6.18098C10.6199 5.75398 9.9839 4.76498 9.6839 4.51098C9.51304 4.36539 9.29179 4.29284 9.0679 4.30898C8.4279 4.36698 7.9999 4.42498 7.9799 4.43498C6.62367 5.01414 5.37534 5.81886 4.2879 6.81498C3.126 7.70635 2.11567 8.7795 1.2959 9.99298C0.5989 11.169 2.0479 13.145 2.7879 14.099C3.1719 14.639 3.6869 15.063 4.2779 15.339Z" fill="#00034A" stroke="#00034A" stroke-miterlimit="10"/>
<path d="M33.4171 10.255C34.0395 9.09243 34.768 7.98975 35.5931 6.96102C35.7661 6.73502 36.0221 6.58702 36.3041 6.54902C37.1301 6.43702 37.9481 7.28702 38.2531 7.96402C38.3109 8.09201 38.3428 8.23015 38.3471 8.37053C38.3514 8.5109 38.3279 8.65073 38.2781 8.78202C37.843 10.0285 37.2933 11.232 36.6361 12.377C36.4041 12.787 36.2001 13.152 36.0201 13.477C35.0441 15.229 34.7351 15.783 34.1771 15.652C32.2611 15.147 30.7621 13.858 29.2871 12.606C28.9471 12.266 29.2001 11.635 29.4531 11.178C29.7051 10.721 30.1131 10.178 30.5801 10.284C31.3721 10.534 32.1301 10.884 32.8341 11.324L33.4171 10.254V10.255Z" fill="#00034A" stroke="#00034A" stroke-miterlimit="10"/>
<path d="M29.2779 3.84198C28.3549 3.84198 27.6069 4.59098 27.6069 5.51398C27.6069 6.55998 29.0449 7.83298 30.0809 7.83298C31.0039 7.83298 31.7519 7.08398 31.7519 6.16098C31.7519 5.11498 30.3139 3.84198 29.2779 3.84198Z" fill="#00034A" stroke="#00034A" stroke-miterlimit="10"/>
<path d="M24.593 0.973C24.593 0.973 23.882 0.5 23.43 0.5C23.2106 0.499869 22.9932 0.543001 22.7904 0.62693C22.5876 0.710859 22.4034 0.833939 22.2482 0.989132C22.093 1.14432 21.9699 1.32859 21.886 1.53138C21.802 1.73418 21.7589 1.95152 21.759 2.171C21.759 3.037 23.26 3.834 23.26 3.834C23.26 3.834 23.972 4.306 24.425 4.306C24.8679 4.306 25.2927 4.13005 25.6059 3.81687C25.9191 3.50368 26.095 3.07891 26.095 2.636C26.095 1.77 24.595 0.973 24.595 0.973H24.593Z" fill="#00034A" stroke="#00034A" stroke-miterlimit="10"/>
<path d="M24.3801 12.868C23.9048 11.4637 23.1954 10.1498 22.2821 8.98198C21.4602 7.77848 20.446 6.71834 19.2801 5.84398L18.3081 5.45498C18.0942 5.38408 17.8609 5.40051 17.6591 5.5007C17.4572 5.60089 17.303 5.77673 17.2301 5.98998C16.9303 6.7764 16.3753 7.43948 15.6539 7.87308C14.9326 8.30668 14.0866 8.48573 13.2515 8.38157C12.4163 8.2774 11.6402 7.89604 11.0475 7.29854C10.4547 6.70104 10.0796 5.92195 9.98212 5.08598C9.96224 4.86242 9.85526 4.65565 9.68426 4.51028C9.51326 4.36491 9.29196 4.29261 9.06812 4.30898C8.42812 4.36698 8.00012 4.42498 7.98012 4.43498C6.62389 5.01414 5.37556 5.81886 4.28812 6.81498C3.12622 7.70636 2.11589 8.7795 1.29612 9.99298C0.858119 10.731 1.44112 12.14 2.11212 13.004C2.64936 13.7587 3.44384 14.291 4.34612 14.501C4.09412 17.513 3.95812 19.961 4.34612 20.768C5.06612 22.225 8.78612 23.002 11.3711 23.323C13.9561 23.643 17.7541 23.809 18.8141 22.565C19.3971 21.885 19.8631 19.475 20.3581 16.493C21.2758 16.4937 22.1627 16.1623 22.8551 15.56C23.7201 14.909 24.6341 13.694 24.3811 12.868H24.3801Z" fill="white" stroke="#00034A" stroke-miterlimit="10"/>
<path d="M5.15308 12.441C5.27308 11.605 5.48108 10.784 5.77508 9.99298" stroke="#00034A" stroke-miterlimit="10" stroke-linecap="round"/>
<path d="M20.0859 14.306C20.1759 13.466 20.1759 12.62 20.0859 11.78" stroke="#00034A" stroke-miterlimit="10" stroke-linecap="round"/>
<path d="M23.4291 3.842C23.8722 3.842 24.2973 3.66595 24.6106 3.35258C24.924 3.0392 25.1001 2.61418 25.1001 2.171C25.1001 1.72782 24.924 1.3028 24.6106 0.989425C24.2973 0.676051 23.8722 0.5 23.4291 0.5C22.9859 0.5 22.5609 0.676051 22.2475 0.989425C21.9341 1.3028 21.7581 1.72782 21.7581 2.171C21.7581 2.61418 21.9341 3.0392 22.2475 3.35258C22.5609 3.66595 22.9859 3.842 23.4291 3.842Z" fill="#9BFF00" stroke="#00034A" stroke-miterlimit="10"/>
<path d="M29.2779 7.18498C29.7213 7.18498 30.1464 7.00888 30.4599 6.69541C30.7733 6.38194 30.9494 5.95679 30.9494 5.51348C30.9494 5.07017 30.7733 4.64502 30.4599 4.33155C30.1464 4.01808 29.7213 3.84198 29.2779 3.84198C28.8346 3.84198 28.4095 4.01808 28.096 4.33155C27.7825 4.64502 27.6064 5.07017 27.6064 5.51348C27.6064 5.95679 27.7825 6.38194 28.096 6.69541C28.4095 7.00888 28.8346 7.18498 29.2779 7.18498Z" fill="#9BFF00" stroke="#00034A" stroke-miterlimit="10"/>
<path d="M35.593 6.96098C34.7679 7.98972 34.0395 9.09239 33.417 10.255L32.834 11.324C32.1297 10.8834 31.3723 10.5339 30.58 10.284C30.113 10.177 29.705 10.721 29.453 11.178C29.2 11.635 28.947 12.266 29.288 12.606C29.9218 13.144 30.6202 13.6008 31.367 13.966C32.052 14.4414 32.8148 14.7934 33.621 15.006C34.281 15.161 34.592 14.356 36.079 11.732C36.7362 10.5869 37.2859 9.38346 37.721 8.13698C37.7711 8.00556 37.7948 7.86553 37.7906 7.72495C37.7864 7.58436 37.7545 7.44599 37.6967 7.31776C37.6389 7.18954 37.5564 7.07399 37.4538 6.97776C37.3512 6.88152 37.2307 6.8065 37.099 6.75698C36.872 6.5852 36.5861 6.51024 36.304 6.54846C36.0218 6.58668 35.7662 6.73498 35.593 6.96098Z" fill="#9BFF00" stroke="#00034A" stroke-miterlimit="10"/>
<path d="M33.0591 21.885C33.8373 21.771 34.6268 21.7546 35.4091 21.836C38.0141 22.631 37.7471 26.129 37.6121 28.252L37.5651 29.008C37.2741 34.255 37.0021 35.1 35.6221 36.246C34.8061 36.926 32.1631 37.752 28.4911 38.491C24.8181 39.229 22.0581 39.531 21.0381 39.229C18.2471 38.393 16.8041 34.623 15.5201 32.389C14.2081 30.056 12.8771 27.316 14.2571 26.169C15.0175 25.7405 15.8312 25.4143 16.6771 25.199C16.8311 24.44 17.0651 23.537 17.3071 22.73C17.6659 21.4053 18.1714 20.1247 18.8141 18.912C19.0415 18.6136 19.358 18.3954 19.7177 18.2888C20.0775 18.1821 20.4618 18.1927 20.8151 18.319C21.5381 18.491 22.2181 19.269 22.6811 19.819C22.9221 20.106 23.0651 20.463 23.0881 20.837C22.9966 21.7825 22.8344 22.7197 22.6031 23.641C23.2849 23.486 23.9682 23.338 24.6531 23.197C25.6531 22.993 26.8201 22.779 28.0151 22.575C27.1072 21.5427 26.3183 20.4116 25.6631 19.203C25.5374 18.8503 25.5281 18.4665 25.6366 18.1082C25.7452 17.7498 25.9658 17.4357 26.2661 17.212C26.5456 16.9586 26.8979 16.7997 27.2728 16.7577C27.6477 16.7157 28.0264 16.7928 28.3551 16.978C29.7706 18.1172 31.0603 19.4045 32.2021 20.818C32.5011 21.157 32.7891 21.523 33.0591 21.885Z" fill="#00034A" stroke="#00034A" stroke-miterlimit="10"/>
<path d="M35.4089 21.837C34.544 21.7466 33.6708 21.7759 32.8139 21.924C32.3769 21.292 31.8429 20.544 31.2699 19.894C30.4065 18.8195 29.4292 17.8418 28.3549 16.978C28.0261 16.7927 27.6473 16.7156 27.2722 16.7576C26.897 16.7996 26.5447 16.9586 26.2649 17.212C25.9648 17.4358 25.7444 17.75 25.636 18.1084C25.5277 18.4667 25.5371 18.8504 25.6629 19.203C26.3181 20.4116 27.1071 21.5427 28.0149 22.575C26.8199 22.779 25.6539 22.993 24.6529 23.197C23.6529 23.401 22.4959 23.663 21.3199 23.935C21.7428 22.6284 22.0231 21.2799 22.1559 19.913C22.1329 19.5388 21.9903 19.1818 21.749 18.8948C21.5078 18.6078 21.1806 18.406 20.8159 18.319C20.4625 18.1925 20.078 18.1818 19.718 18.2884C19.3581 18.395 19.0415 18.6134 18.8139 18.912C18.1716 20.1247 17.6665 21.4053 17.3079 22.73C17.0619 23.5432 16.8511 24.3666 16.6759 25.198C15.83 25.414 15.0163 25.7408 14.2559 26.17C12.8769 27.316 14.2079 30.056 15.5199 32.388C18.1429 36.955 18.3859 37.79 20.1059 38.305C21.1259 38.606 23.8859 38.305 27.5579 37.567C31.2309 36.828 33.8739 36.002 34.6899 35.322C36.0699 34.176 36.3409 33.33 36.6329 28.084C36.8369 24.684 37.1279 22.361 35.4089 21.837Z" fill="#9BFF00" stroke="#00034A" stroke-miterlimit="10"/>
<path d="M19.853 28.735C20.3913 30.627 21.0401 32.4859 21.796 34.302" stroke="#00034A" stroke-linecap="round" stroke-linejoin="round"/>
<path d="M31.3081 26.393C31.5391 28.351 31.6591 30.32 31.6681 32.291" stroke="#00034A" stroke-linecap="round" stroke-linejoin="round"/>
<path d="M25.5759 27.569L26.7519 33.301" stroke="#00034A" stroke-linecap="round" stroke-linejoin="round"/>
</svg>
