<svg width="40" height="40" viewBox="0 0 40 40" fill="none" xmlns="http://www.w3.org/2000/svg">
<g clip-path="url(#clip0_2301_15375)">
<path d="M7.66008 30.52C6.58008 30.52 5.70508 31.395 5.70508 32.475C5.70508 33.658 7.08508 35.042 8.26908 35.042C9.34908 35.042 10.2241 34.167 10.2241 33.087C10.2241 31.904 8.84408 30.52 7.66008 30.52Z" fill="#00034A" stroke="#00034A" stroke-miterlimit="10"/>
<path d="M20.534 1.44397C19.67 1.44397 18.969 2.14497 18.969 3.00997C18.969 3.96497 20.129 5.11997 21.083 5.11997C21.948 5.11997 22.649 4.41997 22.649 3.55497C22.649 2.59997 21.489 1.44497 20.534 1.44497V1.44397Z" fill="#00034A" stroke="#00034A" stroke-miterlimit="10"/>
<path d="M29.5781 1.522C30.5121 2.119 31.2261 2.91 31.9981 3.689C32.1068 3.83388 32.1679 4.00895 32.173 4.19004C32.178 4.37113 32.1267 4.54931 32.0261 4.7C31.9289 4.86222 31.7812 4.98816 31.6057 5.05858C31.4302 5.12901 31.2365 5.14004 31.0541 5.09C30.2871 4.983 30.3441 5.09 30.3441 5.09C30.6771 6.54 30.8841 8.018 30.9661 9.504C30.9594 9.69626 30.904 9.88367 30.8052 10.0487C30.7063 10.2137 30.5672 10.351 30.4008 10.4476C30.2345 10.5442 30.0463 10.597 29.854 10.6011C29.6616 10.6052 29.4714 10.5604 29.3011 10.471C28.9371 10.281 28.1131 9.426 27.9341 9.02C27.5957 8.00115 27.3172 6.96338 27.1001 5.912L27.0771 5.926C26.9289 6.03432 26.7501 6.0927 26.5666 6.0927C26.383 6.0927 26.2043 6.03432 26.0561 5.926C25.7161 5.727 24.9701 4.926 24.8381 4.604C24.7662 4.42847 24.7539 4.23419 24.8031 4.051C25.0631 3.431 25.3891 2.841 25.7761 2.291C26.7651 0.833996 26.9391 0.748996 27.1061 0.666996L27.1271 0.656996C27.3059 0.561357 27.51 0.523948 27.7111 0.549996H27.7441C27.9261 0.545996 28.1391 0.540996 29.5781 1.522Z" fill="#00034A" stroke="#00034A" stroke-miterlimit="10"/>
<path d="M33.166 12.958C32.6001 12.5903 32.0751 12.1632 31.6 11.684C31.4902 11.5369 31.4301 11.3587 31.4283 11.1751C31.4265 10.9916 31.4831 10.8122 31.59 10.663C31.6893 10.5023 31.8369 10.3772 32.0117 10.3055C32.1865 10.2338 32.3794 10.2193 32.563 10.264C33.323 10.448 33.273 10.264 33.273 10.264C32.9465 8.81157 32.7385 7.33505 32.651 5.84898C32.666 5.594 32.7664 5.35149 32.936 5.16049C33.1056 4.96949 33.3346 4.8411 33.586 4.79598C34.14 4.69698 34.946 5.09598 35.421 5.34898C35.646 5.46998 35.824 5.66298 35.927 5.89698C36.294 7.01798 36.591 8.16098 36.815 9.31798C36.8856 9.29993 36.9581 9.29086 37.031 9.29098C37.465 9.29098 38.31 9.65298 38.64 9.89398C38.8003 9.99339 38.9251 10.1409 38.9966 10.3155C39.068 10.49 39.0825 10.6827 39.038 10.866C38.7784 11.486 38.4525 12.0761 38.066 12.626C37.094 14.056 36.909 14.156 36.744 14.244L36.714 14.26C36.5355 14.3555 36.3317 14.3929 36.131 14.367H36.098C35.158 14.387 33.91 13.465 33.166 12.957V12.958Z" fill="#00034A" stroke="#00034A" stroke-miterlimit="10"/>
<path d="M27.9131 16.205C27.8072 16.1021 27.6971 16.0037 27.5831 15.91C27.7026 15.1685 27.6986 14.4122 27.5711 13.672C27.3001 11.895 26.5451 10.518 25.3371 9.70801C24.2431 8.61301 22.6271 8.12401 20.5241 8.44601C20.2691 8.48601 20.0341 8.53901 19.8011 8.59401C19.5644 8.35644 19.3078 8.13964 19.0341 7.94601C17.6241 6.60001 15.5771 5.97201 12.9201 6.38401C8.77705 7.02601 6.76505 9.57401 6.83305 13.064C6.52705 13.064 6.22105 13.087 5.91905 13.133C5.37814 13.1603 4.85009 13.3077 4.37326 13.5645C3.89643 13.8214 3.48278 14.1812 3.16238 14.6178C2.84197 15.0545 2.62284 15.557 2.5209 16.089C2.41896 16.6209 2.43678 17.1688 2.57305 17.693C2.63805 18.073 2.74205 18.445 2.88505 18.803C2.16652 19.3546 1.6114 20.091 1.27903 20.9337C0.946664 21.7763 0.849542 22.6934 0.998051 23.587C1.32505 25.653 3.23205 28.115 5.47805 28.268C6.58605 28.57 12.1681 28.181 16.7381 27.471C21.3081 26.761 26.7641 25.458 27.7261 24.875C29.7201 24.097 30.3911 21.568 30.1181 19.789C30.018 19.0717 29.7705 18.3829 29.391 17.766C29.0115 17.1492 28.5082 16.6177 27.9131 16.205Z" fill="#00034A" stroke="#00034A" stroke-miterlimit="10"/>
<path d="M26.9041 15.438C27.0362 14.672 27.0362 13.889 26.9041 13.123C26.3981 9.80697 24.2101 7.88197 20.5241 8.44597C20.2141 8.49497 19.9311 8.56297 19.6491 8.63097C18.2491 6.82097 15.9931 5.90797 12.9201 6.38397C8.77705 7.02597 6.76505 9.57397 6.83305 13.064C6.52705 13.064 6.22105 13.087 5.91905 13.133C5.37814 13.1602 4.85009 13.3077 4.37326 13.5645C3.89643 13.8213 3.48278 14.1811 3.16238 14.6178C2.84197 15.0545 2.62284 15.557 2.5209 16.0889C2.41896 16.6208 2.43678 17.1688 2.57305 17.693C2.63805 18.073 2.74205 18.445 2.88505 18.803C2.16652 19.3545 1.6114 20.091 1.27903 20.9336C0.946664 21.7763 0.849542 22.6934 0.998051 23.587C1.28005 25.367 2.67105 27.574 4.81005 27.719C5.91905 28.021 11.5 27.632 16.0701 26.922C20.6411 26.212 26.0961 24.909 27.0601 24.326C29.0531 23.548 29.7241 21.019 29.4511 19.24C29.3417 18.4549 29.0557 17.7048 28.6145 17.0462C28.1734 16.3877 27.5885 15.8378 26.9041 15.438Z" fill="white" stroke="#00034A" stroke-miterlimit="10"/>
<path d="M27.3309 14.446C20.7379 13.95 17.6069 16.109 16.9749 19.308C16.4777 21.3891 16.1718 23.5112 16.061 25.648C15.851 27.778 15.8309 29.923 16.0029 32.057C16.2179 37.16 22.2889 38.671 26.478 38.992C33.0809 39.498 36.2019 37.319 36.8339 34.13C37.3258 32.0448 37.6286 29.9195 37.7389 27.78C37.9489 25.65 37.969 23.505 37.7969 21.371C37.5969 16.269 31.5119 14.761 27.332 14.446H27.3309Z" fill="#00034A" stroke="#00034A" stroke-miterlimit="10"/>
<path d="M36.7829 27.185C36.9939 25.055 37.0129 22.91 36.8419 20.776C36.7149 17.558 33.9249 14.942 27.332 14.446C20.738 13.95 17.6069 16.109 16.9749 19.308C16.4777 21.3891 16.1718 23.5112 16.061 25.648C15.851 27.778 15.8309 29.923 16.0029 32.057C16.1389 35.275 18.92 37.891 25.523 38.397C32.1259 38.902 35.247 36.724 35.879 33.535C36.3704 31.4498 36.673 29.3245 36.7829 27.185Z" fill="#9BFF00" stroke="#00034A" stroke-miterlimit="10"/>
<path d="M18.7739 21.593C20.2229 22.848 22.8289 23.723 26.5539 24.005C30.2779 24.287 33.0399 23.82 34.6639 22.799" stroke="#00034A" stroke-miterlimit="10" stroke-linecap="round"/>
<path d="M18.4141 26.368C19.8641 27.632 22.4691 28.498 26.2421 28.789C30.0151 29.081 32.7281 28.604 34.3521 27.583" stroke="#00034A" stroke-miterlimit="10" stroke-linecap="round"/>
<path d="M18.0449 31.133C19.5029 32.397 22.1099 33.263 25.8829 33.554C29.6559 33.846 32.3589 33.369 33.9929 32.348" stroke="#00034A" stroke-miterlimit="10" stroke-linecap="round"/>
<path d="M31.1431 2.786C30.6698 2.308 30.1449 1.88406 29.5781 1.522C28.0501 0.481996 27.9051 0.549996 27.7101 0.549996C27.509 0.523948 27.3048 0.561357 27.1261 0.656996C26.9511 0.743996 26.8061 0.772996 25.7751 2.29C25.3881 2.8398 25.0619 3.42991 24.8021 4.05C24.7526 4.23349 24.7649 4.42816 24.837 4.60399C24.9091 4.77983 25.037 4.92706 25.2011 5.023C25.3491 5.13109 25.5277 5.18934 25.7111 5.18934C25.8944 5.18934 26.073 5.13109 26.2211 5.023C26.8831 4.624 26.8831 4.741 26.8831 4.741C27.1182 6.19309 27.4693 7.62401 27.9331 9.02C28.0369 9.25597 28.2177 9.44971 28.446 9.56949C28.6743 9.68927 28.9365 9.72799 29.1896 9.67931C29.4428 9.63063 29.6719 9.49744 29.8395 9.30154C30.0071 9.10564 30.1032 8.85864 30.1121 8.601C30.0302 7.11463 29.8218 5.63795 29.4891 4.187C29.4891 4.187 29.4321 4.081 30.1991 4.187C30.3816 4.23745 30.5756 4.22662 30.7514 4.15617C30.9271 4.08572 31.0749 3.95954 31.1721 3.797C31.2721 3.64621 31.323 3.46811 31.3176 3.28723C31.3122 3.10634 31.2509 2.93158 31.1421 2.787L31.1431 2.786Z" fill="#9BFF00" stroke="#00034A" stroke-miterlimit="10"/>
<path d="M31.6 11.684C32.075 12.164 32.6 12.59 33.166 12.958C34.693 13.998 34.839 13.93 35.033 13.93C35.233 13.956 35.438 13.919 35.617 13.823C35.792 13.726 35.937 13.707 36.968 12.19C37.355 11.64 37.681 11.05 37.941 10.43C37.9856 10.2463 37.9709 10.0533 37.899 9.87851C37.8272 9.70373 37.7018 9.55617 37.541 9.45699C37.3929 9.3489 37.2143 9.29065 37.031 9.29065C36.8476 9.29065 36.669 9.3489 36.521 9.45699C35.86 9.85599 35.869 9.73899 35.869 9.73899C35.6343 8.28807 35.2866 6.85771 34.829 5.46099C34.7263 5.22714 34.548 5.03461 34.3227 4.91437C34.0974 4.79413 33.8382 4.75316 33.5868 4.79806C33.3354 4.84297 33.1064 4.97112 32.9367 5.16192C32.7669 5.35272 32.6663 5.59507 32.651 5.84999C32.7379 7.33579 32.946 8.81201 33.273 10.264C33.273 10.264 33.323 10.448 32.563 10.264C32.3796 10.2195 32.1868 10.2342 32.0122 10.3058C31.8377 10.3775 31.6902 10.5025 31.591 10.663C31.4842 10.8123 31.4277 10.9916 31.4295 11.1751C31.4313 11.3586 31.4903 11.5368 31.6 11.684Z" fill="#9BFF00" stroke="#00034A" stroke-miterlimit="10"/>
<path d="M20.534 4.57597C20.9493 4.57597 21.3477 4.41098 21.6413 4.1173C21.935 3.82362 22.1 3.4253 22.1 3.00997C22.1 2.59464 21.935 2.19632 21.6413 1.90264C21.3477 1.60896 20.9493 1.44397 20.534 1.44397C20.1187 1.44397 19.7204 1.60896 19.4267 1.90264C19.133 2.19632 18.968 2.59464 18.968 3.00997C18.968 3.4253 19.133 3.82362 19.4267 4.1173C19.7204 4.41098 20.1187 4.57597 20.534 4.57597Z" fill="#9BFF00" stroke="#00034A" stroke-miterlimit="10"/>
<path d="M7.66008 34.43C7.91681 34.43 8.17103 34.3795 8.40822 34.2812C8.64542 34.183 8.86093 34.039 9.04247 33.8574C9.22401 33.6759 9.36801 33.4604 9.46626 33.2232C9.56451 32.986 9.61508 32.7318 9.61508 32.475C9.61508 32.2183 9.56451 31.9641 9.46626 31.7269C9.36801 31.4897 9.22401 31.2742 9.04247 31.0926C8.86093 30.9111 8.64542 30.7671 8.40822 30.6688C8.17103 30.5706 7.91681 30.52 7.66008 30.52C7.14158 30.52 6.64432 30.726 6.27768 31.0926C5.91105 31.4593 5.70508 31.9565 5.70508 32.475C5.70508 32.9935 5.91105 33.4908 6.27768 33.8574C6.64432 34.224 7.14158 34.43 7.66008 34.43Z" fill="#9BFF00" stroke="#00034A" stroke-miterlimit="10"/>
</g>
<defs>
<clipPath id="clip0_2301_15375">
<rect width="40" height="40" fill="white"/>
</clipPath>
</defs>
</svg>
