<svg width="40" height="40" viewBox="0 0 40 40" fill="none" xmlns="http://www.w3.org/2000/svg">
<path d="M28.6649 4.03297C29.3179 0.0769711 30.6819 0.446971 31.5879 0.709971C34.0099 1.41397 33.8279 3.50597 32.9449 5.59297C31.3769 9.30497 30.4799 9.05197 30.0219 8.91497C27.9989 8.31297 28.4009 5.63297 28.6649 4.03297Z" fill="#00034A"/>
<path d="M27.2129 11.048C27.2129 10.268 27.8459 9.63501 28.6259 9.63501C29.5019 9.63501 30.7039 10.657 30.7039 11.545C30.7039 12.325 30.0719 12.958 29.2919 12.958C28.4149 12.958 27.2129 11.937 27.2129 11.048Z" fill="#00034A"/>
<path d="M28.6649 4.03297C29.3179 0.0769711 30.6819 0.446971 31.5879 0.709971C34.0099 1.41397 33.8279 3.50597 32.9449 5.59297C31.3769 9.30497 30.4799 9.05197 30.0219 8.91497C27.9989 8.31297 28.4009 5.63297 28.6649 4.03297Z" stroke="#00034A" stroke-miterlimit="10"/>
<path d="M27.2129 11.048C27.2129 10.268 27.8459 9.63501 28.6259 9.63501C29.5019 9.63501 30.7039 10.657 30.7039 11.545C30.7039 12.325 30.0719 12.958 29.2919 12.958C28.4149 12.958 27.2129 11.937 27.2129 11.048Z" stroke="#00034A" stroke-miterlimit="10"/>
<path d="M31.5879 0.709971C30.6819 0.446971 29.3179 0.0769711 28.6649 4.03297C28.0119 7.98797 28.8989 8.28097 29.3569 8.41697C29.8139 8.55297 30.7109 8.80697 32.2789 5.09497C33.8479 1.38297 32.4939 0.973971 31.5879 0.709971Z" fill="#9BFF00" stroke="#00034A" stroke-miterlimit="10"/>
<path d="M28.6259 12.46C28.8146 12.465 29.0023 12.4322 29.1781 12.3635C29.3538 12.2948 29.514 12.1915 29.6493 12.0599C29.7845 11.9282 29.8919 11.7708 29.9653 11.5969C30.0387 11.4231 30.0765 11.2362 30.0765 11.0475C30.0765 10.8588 30.0387 10.672 29.9653 10.4981C29.8919 10.3242 29.7845 10.1668 29.6493 10.0352C29.514 9.90352 29.3538 9.80028 29.1781 9.73155C29.0023 9.66282 28.8146 9.63 28.6259 9.63502C28.2578 9.64482 27.908 9.79793 27.6511 10.0618C27.3942 10.3256 27.2505 10.6793 27.2505 11.0475C27.2505 11.4158 27.3942 11.7695 27.6511 12.0333C27.908 12.2971 28.2578 12.4502 28.6259 12.46Z" fill="#9BFF00" stroke="#00034A" stroke-miterlimit="10"/>
<path d="M34.023 7.92998C35.504 5.12398 36.44 5.73798 37.053 6.16598C38.827 7.33998 38.548 8.75598 37.151 10.346C35.064 12.723 34.452 12.321 34.138 12.115L34.13 12.11C33.832 11.914 33.185 11.271 33.098 10.901C32.995 10.461 33.128 9.62698 34.023 7.92998Z" fill="#00034A"/>
<path d="M30.876 13.376C30.876 12.757 31.378 12.256 31.996 12.256C32.699 12.256 33.789 13.397 33.789 14.097C33.789 14.394 33.671 14.6789 33.4609 14.8889C33.2509 15.099 32.966 15.217 32.669 15.217C31.967 15.217 30.876 14.076 30.876 13.376Z" fill="#00034A"/>
<path d="M34.023 7.92998C35.504 5.12398 36.44 5.73798 37.053 6.16598C38.827 7.33998 38.548 8.75598 37.151 10.346C35.064 12.723 34.452 12.321 34.138 12.115L34.13 12.11C33.832 11.914 33.185 11.271 33.098 10.901C32.995 10.461 33.128 9.62698 34.023 7.92998Z" stroke="#00034A" stroke-miterlimit="10"/>
<path d="M30.876 13.376C30.876 12.757 31.378 12.256 31.996 12.256C32.699 12.256 33.789 13.397 33.789 14.097C33.789 14.394 33.671 14.6789 33.4609 14.8889C33.2509 15.099 32.966 15.217 32.669 15.217C31.967 15.217 30.876 14.076 30.876 13.376Z" stroke="#00034A" stroke-miterlimit="10"/>
<path d="M37.0529 6.16598C36.4399 5.73798 35.5039 5.12398 34.0229 7.92998C32.5429 10.736 33.1459 11.184 33.4579 11.389C33.7699 11.593 34.3739 12.022 36.4779 9.62498C38.5829 7.22798 37.6869 6.58498 37.0529 6.16598Z" fill="#9BFF00" stroke="#00034A" stroke-miterlimit="10"/>
<path d="M31.997 14.498C32.2943 14.498 32.5794 14.3799 32.7896 14.1696C32.9999 13.9594 33.118 13.6743 33.118 13.377C33.118 13.0797 32.9999 12.7945 32.7896 12.5843C32.5794 12.3741 32.2943 12.256 31.997 12.256C31.6997 12.256 31.4145 12.3741 31.2043 12.5843C30.9941 12.7945 30.876 13.0797 30.876 13.377C30.876 13.6743 30.9941 13.9594 31.2043 14.1696C31.4145 14.3799 31.6997 14.498 31.997 14.498Z" fill="#9BFF00" stroke="#00034A" stroke-miterlimit="10"/>
<path d="M25.8061 13.878C25.7571 13.8653 25.7077 13.8539 25.6581 13.844C24.7771 10.077 22.9871 7.24699 20.3781 5.71399C19.1071 4.69399 17.5951 4.03099 15.8581 3.78399C15.5711 3.28799 14.6381 2.46299 14.0991 2.32799C12.9835 2.12738 11.8367 2.18727 10.7481 2.50299C9.6188 2.69184 8.54835 3.13877 7.62006 3.80899C7.31319 4.3066 7.21205 4.90411 7.33806 5.47499C2.95306 7.93999 1.58906 12.577 2.86606 18.179L3.00206 18.774C2.32689 19.0087 1.77236 19.5016 1.46005 20.1446C1.14774 20.7876 1.10316 21.5282 1.33606 22.204C1.73106 23.887 3.77606 24.663 5.34406 24.541C5.83006 24.535 6.31506 24.496 6.79606 24.424C7.35453 24.9588 8.08941 25.2708 8.86207 25.301C9.64107 25.466 13.4991 24.921 16.6561 24.209C19.8131 23.499 23.4761 22.309 24.1381 21.822C24.8148 21.4523 25.3393 20.8556 25.6191 20.137C26.0809 19.989 26.5334 19.8134 26.9741 19.611C28.9221 18.861 29.1361 18.051 28.8741 16.931C28.8343 16.5732 28.7231 16.227 28.5471 15.913C28.0671 15.057 26.7781 14.137 25.8061 13.878Z" fill="#00034A" stroke="#00034A" stroke-miterlimit="10"/>
<path d="M24.7381 13.815L24.6021 13.22C23.3261 7.60799 20.0521 4.04299 15.0731 3.70199C14.8591 3.04899 14.4111 2.40599 14.0991 2.32799C12.9835 2.12738 11.8367 2.18727 10.7481 2.50299C9.6188 2.69184 8.54835 3.13877 7.62006 3.80899C7.31319 4.3066 7.21205 4.90411 7.33806 5.47499C2.95306 7.93999 1.58906 12.577 2.86606 18.179L3.00206 18.774C2.32689 19.0087 1.77236 19.5016 1.46005 20.1446C1.14774 20.7876 1.10316 21.5282 1.33606 22.204C1.59906 23.324 2.13506 23.957 4.25906 23.791C4.74506 23.785 5.23006 23.746 5.71106 23.674C6.26927 24.2086 7.00376 24.5205 7.77606 24.551C8.55606 24.717 12.4141 24.171 15.5701 23.46C18.7271 22.749 22.3901 21.56 23.0531 21.073C23.7296 20.7029 24.2538 20.1058 24.5331 19.387C24.995 19.2394 25.4475 19.0638 25.8881 18.861C27.8371 18.111 28.0511 17.303 27.7881 16.182C27.7486 15.824 27.6377 15.4777 27.4618 15.1634C27.2859 14.8492 27.0487 14.5735 26.7642 14.3527C26.4797 14.1319 26.1538 13.9706 25.8057 13.8782C25.4577 13.7858 25.0946 13.7643 24.7381 13.815Z" fill="white" stroke="#00034A" stroke-miterlimit="10"/>
<path d="M9.41301 14.146C8.80993 12.1367 8.34122 10.0895 8.01001 8.01801" stroke="#00034A" stroke-miterlimit="10" stroke-linecap="round"/>
<path d="M7.61011 17.945C11.7283 16.7662 15.9079 15.8134 20.1301 15.091" stroke="#00034A" stroke-miterlimit="10" stroke-linecap="round"/>
<path d="M15.6201 6.38C16.2208 8.38989 16.6858 10.4378 17.0121 12.51" stroke="#00034A" stroke-miterlimit="10" stroke-linecap="round"/>
<path d="M30.2631 33.26C30.0629 34.6343 29.9909 36.0243 30.0481 37.412C30.1471 38.35 32.3481 39.256 33.1551 39.353C33.9631 39.451 34.9381 39.548 35.2201 38.847C35.5611 38.369 36.0581 35.7 36.4571 33.205C37.2271 32.855 37.6271 30.643 37.8991 28.792C38.1821 26.912 38.4351 24.642 37.7431 24.106L37.6461 23.998V23.317C37.8395 23.024 37.9627 22.6904 38.0061 22.342C38.0979 21.7154 37.9371 21.078 37.5591 20.57C37.0291 19.858 35.5971 18.892 34.7251 18.764C34.4147 18.7185 34.0985 18.7346 33.7944 18.8114C33.4903 18.8882 33.2043 19.0241 32.9528 19.2114C32.7012 19.3987 32.489 19.6337 32.3283 19.903C32.1676 20.1723 32.0615 20.4707 32.0161 20.781C31.9631 21.081 31.9631 21.387 32.0161 21.687C30.6547 21.4212 29.2873 21.1871 27.9151 20.985C27.0846 20.8615 26.2514 20.7571 25.4161 20.672C25.4251 20.632 25.4321 20.591 25.4381 20.55C25.4911 19.9409 25.3094 19.3345 24.9301 18.855C24.4321 18.226 22.9161 17.215 22.1321 17.101C21.5271 17.0126 20.9111 17.1587 20.4103 17.5095C19.9096 17.8603 19.5617 18.3892 19.4381 18.988C19.4003 19.3146 19.4268 19.6455 19.5161 19.962L19.4961 20.046C19.4511 20.22 19.4021 20.416 19.3601 20.625L19.2241 20.703C18.4151 21.015 18.0061 23.265 17.7341 25.136C17.4601 27.006 17.2071 29.228 17.8701 29.793C17.5265 31.6922 17.3764 33.6215 17.4221 35.551C17.5201 36.487 19.7241 37.394 20.5281 37.492C21.3271 37.59 22.3111 37.687 22.5931 36.996C23.1338 35.4591 23.5063 33.8682 23.7041 32.251C25.0871 32.524 26.5291 32.748 27.6601 32.913C28.4201 33.025 29.3251 33.149 30.2631 33.26Z" fill="#00034A" stroke="#00034A" stroke-miterlimit="10"/>
<path d="M36.6351 27.922C36.9171 26.042 37.1701 23.772 36.4791 23.236L36.3811 23.129V22.447C36.5744 22.1544 36.6976 21.821 36.7411 21.473C36.7919 21.1603 36.78 20.8407 36.7062 20.5327C36.6323 20.2246 36.4978 19.9344 36.3107 19.6788C36.1235 19.4232 35.8874 19.2075 35.616 19.044C35.3447 18.8806 35.0435 18.7728 34.7301 18.7269C34.4166 18.681 34.0972 18.6979 33.7904 18.7767C33.4836 18.8554 33.1955 18.9944 32.9429 19.1856C32.6903 19.3768 32.4783 19.6163 32.3192 19.8902C32.16 20.1641 32.057 20.4669 32.0161 20.781C31.9631 21.081 31.9631 21.387 32.0161 21.687C30.6547 21.4212 29.2873 21.1871 27.9151 20.985C26.5702 20.7843 25.2183 20.6349 23.8621 20.537C24.0214 20.2747 24.1271 19.9834 24.1731 19.68C24.2248 19.0715 24.0424 18.4661 23.6629 17.9876C23.2835 17.509 22.7356 17.1934 22.1313 17.105C21.527 17.0167 20.9118 17.1624 20.4112 17.5124C19.9107 17.8623 19.5626 18.3901 19.4381 18.988C19.4003 19.3147 19.4268 19.6455 19.5161 19.962C19.4681 20.157 19.4091 20.382 19.3601 20.625L19.2241 20.703C18.4151 21.015 18.0061 23.265 17.7341 25.136C17.4601 27.006 17.2071 29.228 17.8701 29.793C17.5265 31.6923 17.3764 33.6215 17.4221 35.551C17.5001 36.291 18.4641 36.525 19.2631 36.623C20.0621 36.72 21.0461 36.818 21.3281 36.126C21.8689 34.5892 22.2414 32.9982 22.4391 31.381C23.7523 31.6335 25.0713 31.8546 26.3951 32.044C27.5251 32.209 28.9771 32.404 30.3801 32.54C30.0922 34.1471 29.9809 35.7808 30.0481 37.412C30.1261 38.152 31.0811 38.386 31.8901 38.484C32.6981 38.581 33.6731 38.678 33.9551 37.977C34.2961 37.5 34.7931 34.83 35.1931 32.336C35.9631 31.986 36.3621 29.773 36.6351 27.922Z" fill="#9BFF00" stroke="#00034A" stroke-miterlimit="10"/>
<path d="M21.719 22.486C21.1874 23.2804 20.5286 23.9818 19.769 24.562" stroke="#00034A" stroke-miterlimit="10" stroke-linecap="round"/>
<path d="M25.664 23.09C24.1118 24.9424 22.4424 26.6934 20.666 28.332" stroke="#00034A" stroke-miterlimit="10" stroke-linecap="round"/>
<path d="M29.6001 23.665C28.0532 25.525 26.3834 27.2792 24.6021 28.916" stroke="#00034A" stroke-miterlimit="10" stroke-linecap="round"/>
<path d="M33.5361 24.25C31.9901 26.1073 30.3239 27.8611 28.5481 29.5" stroke="#00034A" stroke-miterlimit="10" stroke-linecap="round"/>
<path d="M34.7349 27.708C34.1034 28.6024 33.3452 29.4001 32.4839 30.076" stroke="#00034A" stroke-miterlimit="10" stroke-linecap="round"/>
</svg>
