<svg width="40" height="40" viewBox="0 0 40 40" fill="none" xmlns="http://www.w3.org/2000/svg">
<g clip-path="url(#clip0_2301_14019)">
<path d="M36 17.21C39 16.52 39.53 12.94 39.53 10.21C39.53 7.48 38.94 4 36 3.29C34.52 2.59 26.59 1.89 20 1.89C13.41 1.89 5.52 2.59 4 3.29C1.06 4 0.5 7.56 0.5 10.25C0.5 12.94 1.06 16.52 4.03 17.25C5.52 17.95 13.44 18.65 20.03 18.65C26.62 18.65 34.49 17.91 36 17.21Z" fill="#FF52A1" stroke="#231F20" stroke-miterlimit="10"/>
<path d="M36 36.71C39 36.02 39.53 32.44 39.53 29.71C39.53 26.98 38.97 23.44 36 22.71C34.52 22.01 26.59 21.31 20 21.31C13.41 21.31 5.51997 22.01 3.99997 22.71C0.999971 23.4 0.469971 26.98 0.469971 29.71C0.469971 32.44 1.05997 36 3.99997 36.71C5.48997 37.41 13.41 38.11 20 38.11C26.59 38.11 34.49 37.41 36 36.71Z" fill="#48EEFF" stroke="#231F20" stroke-miterlimit="10"/>
<path d="M4.67993 10.25C4.67993 11.3586 5.12032 12.4218 5.90423 13.2057C6.68813 13.9896 7.75133 14.43 8.85993 14.43C9.96854 14.43 11.0317 13.9896 11.8156 13.2057C12.5995 12.4218 13.0399 11.3586 13.0399 10.25C13.0399 9.14139 12.5995 8.0782 11.8156 7.29429C11.0317 6.51039 9.96854 6.07 8.85993 6.07C7.75133 6.07 6.68813 6.51039 5.90423 7.29429C5.12032 8.0782 4.67993 9.14139 4.67993 10.25Z" fill="white" stroke="#231F20" stroke-miterlimit="10"/>
<path d="M26.96 29.75C26.96 30.2989 27.0681 30.8425 27.2781 31.3496C27.4882 31.8568 27.7961 32.3176 28.1843 32.7057C28.5724 33.0939 29.0332 33.4018 29.5403 33.6118C30.0475 33.8219 30.591 33.93 31.14 33.93C31.6889 33.93 32.2324 33.8219 32.7396 33.6118C33.2467 33.4018 33.7075 33.0939 34.0957 32.7057C34.4838 32.3176 34.7917 31.8568 35.0018 31.3496C35.2118 30.8425 35.32 30.2989 35.32 29.75C35.32 29.2011 35.2118 28.6575 35.0018 28.1504C34.7917 27.6432 34.4838 27.1824 34.0957 26.7943C33.7075 26.4061 33.2467 26.0982 32.7396 25.8882C32.2324 25.6781 31.6889 25.57 31.14 25.57C30.591 25.57 30.0475 25.6781 29.5403 25.8882C29.0332 26.0982 28.5724 26.4061 28.1843 26.7943C27.7961 27.1824 27.4882 27.6432 27.2781 28.1504C27.0681 28.6575 26.96 29.2011 26.96 29.75Z" fill="white" stroke="#231F20" stroke-miterlimit="10"/>
<path d="M33.6599 5.29C35.8099 5.83 35.9799 6 36.4499 7.74" stroke="white" stroke-miterlimit="10" stroke-linecap="round"/>
<path d="M20.55 23.73C22.9 23.73 24.77 23.73 25.88 23.86" stroke="white" stroke-miterlimit="10" stroke-linecap="round"/>
</g>
<defs>
<clipPath id="clip0_2301_14019">
<rect width="40" height="40" fill="white"/>
</clipPath>
</defs>
</svg>
