<svg width="40" height="40" viewBox="0 0 40 40" fill="none" xmlns="http://www.w3.org/2000/svg">
<g clip-path="url(#clip0_2301_14015)">
<path d="M36.16 21.21C37.73 15.5 39.25 8.54 39.42 7C39.9533 2.18667 37.8133 0.0466655 33 0.579999C31.46 0.749999 24.49 2.26 18.78 3.83C17 4.31 7.13997 7.18 3.85997 10.46C1.58997 12.73 2.67997 14.76 4.54997 16.62C5.73997 17.82 8.13997 18.92 10.6 19.87C6.21997 24.49 2.17997 29.16 1.50997 30.47C-0.590027 33.37 0.999973 35.9 2.50997 37.47C4.01997 39.04 6.58997 40.61 9.50997 38.47C10.81 37.8 15.51 33.76 20.11 29.38C21.05 31.84 22.16 34.23 23.35 35.43C25.2 37.27 27.2 38.37 29.44 36.15C29.65 36 32.66 34 36.16 21.21Z" fill="#FF52A1" stroke="#231F20" stroke-miterlimit="10"/>
<path d="M27.22 4.93C31.49 3.63 34.09 3.02 35.76 3.72" stroke="white" stroke-miterlimit="10" stroke-linecap="round"/>
</g>
<defs>
<clipPath id="clip0_2301_14015">
<rect width="40" height="40" fill="white"/>
</clipPath>
</defs>
</svg>
