<svg width="40" height="40" viewBox="0 0 40 40" fill="none" xmlns="http://www.w3.org/2000/svg">
<g clip-path="url(#clip0_2301_13990)">
<path d="M15.85 17.31C15.75 16.43 15.59 15.42 15.44 14.49C15.31 13.75 15.17 12.94 15.02 12.21C15.2757 12.1381 15.5235 12.041 15.76 11.92C16.76 11.53 16.83 10.42 16.69 9.6C16.55 8.78 16.16 7.74 15.05 7.71C13.0802 7.71446 11.1151 7.90193 9.17997 8.27C7.23352 8.55575 5.31837 9.0245 3.45997 9.67C2.45997 10.07 2.39997 11.18 2.53997 12C2.67997 12.82 3.05997 13.86 4.16997 13.88C4.43602 13.9057 4.70392 13.9057 4.96997 13.88C5.06997 14.62 5.19997 15.43 5.32997 16.17C5.47997 17.1 5.65997 18.11 5.85997 18.97C2.85997 22.97 0.129972 28.97 0.579972 31.6C0.809972 32.97 1.46997 34.73 3.38997 34.76C4.38997 34.96 9.38997 34.21 13.46 33.52C17.53 32.83 22.51 31.89 23.38 31.38C25.18 30.71 25.22 28.84 24.99 27.47C24.54 24.87 20 20.07 15.85 17.31Z" fill="#48EEFF" stroke="#231F20" stroke-miterlimit="10"/>
<path d="M7.19998 23.05C5.63998 25.23 4.41998 27.86 4.63998 29.11C4.76998 29.89 5.16998 30.89 6.39998 30.89C8.57398 30.7712 10.7364 30.4938 12.87 30.06C15.0247 29.7594 17.1564 29.3117 19.25 28.72C19.6851 28.5532 20.0397 28.2258 20.2406 27.8053C20.4415 27.3849 20.4735 26.9034 20.33 26.46C20.12 25.21 18.1 23.12 15.92 21.57L7.19998 23.05Z" fill="#FFE236" stroke="#231F20" stroke-miterlimit="10"/>
<path d="M7.27002 13.64C9.11585 13.456 10.9468 13.1453 12.75 12.71" stroke="#231F20" stroke-miterlimit="10" stroke-linecap="round"/>
<path d="M11.38 15.94C12.0063 15.874 12.6276 15.7671 13.24 15.62" stroke="#231F20" stroke-miterlimit="10" stroke-linecap="round"/>
<path d="M11.8199 18.55C12.4469 18.4889 13.0686 18.3819 13.6799 18.23" stroke="#231F20" stroke-miterlimit="10" stroke-linecap="round"/>
<path d="M12.85 24.54C12.85 24.6556 12.8727 24.77 12.917 24.8768C12.9612 24.9835 13.026 25.0805 13.1077 25.1623C13.1894 25.244 13.2864 25.3088 13.3932 25.353C13.5 25.3972 13.6144 25.42 13.73 25.42C13.8455 25.42 13.96 25.3972 14.0667 25.353C14.1735 25.3088 14.2705 25.244 14.3522 25.1623C14.4339 25.0805 14.4988 24.9835 14.543 24.8768C14.5872 24.77 14.61 24.6556 14.61 24.54C14.61 24.4244 14.5872 24.31 14.543 24.2032C14.4988 24.0965 14.4339 23.9995 14.3522 23.9177C14.2705 23.836 14.1735 23.7712 14.0667 23.727C13.96 23.6828 13.8455 23.66 13.73 23.66C13.6144 23.66 13.5 23.6828 13.3932 23.727C13.2864 23.7712 13.1894 23.836 13.1077 23.9177C13.026 23.9995 12.9612 24.0965 12.917 24.2032C12.8727 24.31 12.85 24.4244 12.85 24.54Z" fill="#231F20"/>
<path d="M9.65991 26.87C9.65991 27.1034 9.75263 27.3272 9.91766 27.4923C10.0827 27.6573 10.3065 27.75 10.5399 27.75C10.7733 27.75 10.9971 27.6573 11.1622 27.4923C11.3272 27.3272 11.4199 27.1034 11.4199 26.87C11.4199 26.6366 11.3272 26.4128 11.1622 26.2477C10.9971 26.0827 10.7733 25.99 10.5399 25.99C10.3065 25.99 10.0827 26.0827 9.91766 26.2477C9.75263 26.4128 9.65991 26.6366 9.65991 26.87Z" fill="#231F20"/>
<path d="M13 9.42C14.36 9.23 14.66 9.35 14.83 9.52" stroke="white" stroke-miterlimit="10" stroke-linecap="round"/>
<path d="M39.1 29.39C40.48 23.53 38.03 18.84 31.29 17.24C24.55 15.64 20.29 18.76 18.87 24.61C18.1927 26.9969 18.4059 29.5486 19.47 31.79C19.1825 32.9467 19.0679 34.1397 19.13 35.33C19.2 36.12 20.35 36.78 21.28 37C22.21 37.22 23.54 37.15 23.95 36.47C24.0259 36.3765 24.0929 36.276 24.15 36.17C24.1294 36.2858 24.1294 36.4042 24.15 36.52C24.22 37.32 25.37 37.98 26.3 38.2C27.23 38.42 28.55 38.34 28.97 37.66C29.0467 37.5691 29.1106 37.4682 29.16 37.36C29.1601 37.4817 29.177 37.6028 29.21 37.72C29.28 38.51 30.42 39.17 31.36 39.39C32.3 39.61 33.61 39.53 34.02 38.86C34.6185 37.8264 35.0536 36.7065 35.31 35.54C37.2778 34.0179 38.6249 31.832 39.1 29.39Z" fill="#FF52A1" stroke="#231F20" stroke-linejoin="round"/>
<path d="M21.9301 24.89C21.9301 25.6777 22.243 26.4331 22.7999 26.9901C23.3569 27.5471 24.1124 27.86 24.9001 27.86C25.6877 27.86 26.4432 27.5471 27.0002 26.9901C27.5571 26.4331 27.8701 25.6777 27.8701 24.89C27.8701 24.1023 27.5571 23.3469 27.0002 22.7899C26.4432 22.2329 25.6877 21.92 24.9001 21.92C24.1124 21.92 23.3569 22.2329 22.7999 22.7899C22.243 23.3469 21.9301 24.1023 21.9301 24.89Z" fill="white" stroke="#231F20" stroke-miterlimit="10"/>
<path d="M30.6 26.94C30.6 27.33 30.6768 27.7162 30.8261 28.0766C30.9753 28.4369 31.1941 28.7643 31.4699 29.0401C31.7457 29.3159 32.0731 29.5347 32.4334 29.6839C32.7937 29.8332 33.1799 29.91 33.57 29.91C33.96 29.91 34.3462 29.8332 34.7065 29.6839C35.0669 29.5347 35.3943 29.3159 35.6701 29.0401C35.9459 28.7643 36.1646 28.4369 36.3139 28.0766C36.4632 27.7162 36.54 27.33 36.54 26.94C36.54 26.1523 36.2271 25.3969 35.6701 24.8399C35.1131 24.2829 34.3577 23.97 33.57 23.97C32.7823 23.97 32.0269 24.2829 31.4699 24.8399C30.9129 25.3969 30.6 26.1523 30.6 26.94Z" fill="white" stroke="#231F20" stroke-miterlimit="10"/>
<path d="M26.4301 31.35C27.4901 30.08 28.9401 30.42 29.3201 32.03" stroke="#231F20" stroke-miterlimit="10" stroke-linecap="round"/>
<path d="M32.89 19.55C34.1295 20.0346 35.2388 20.8016 36.13 21.79" stroke="white" stroke-miterlimit="10" stroke-linecap="round"/>
<path d="M24.15 36.17L24.34 35.36" stroke="#231F20" stroke-miterlimit="10" stroke-linecap="round"/>
<path d="M29.2001 37.36L29.4001 36.55" stroke="#231F20" stroke-miterlimit="10" stroke-linecap="round"/>
<path d="M31.22 0.550001C32.22 0.680001 33.81 0.91 32.73 5.23C31.65 9.55 30.6 9.45 30.08 9.38C29.56 9.31 28.52 9.18 28.57 4.7C28.62 0.22 30.18 0.410001 31.22 0.550001Z" fill="#FFE236" stroke="#231F20" stroke-miterlimit="10"/>
<path d="M28.0599 12.38C28.0599 12.7964 28.2253 13.1957 28.5198 13.4902C28.8142 13.7846 29.2135 13.95 29.6299 13.95C30.0463 13.95 30.4457 13.7846 30.7401 13.4902C31.0345 13.1957 31.1999 12.7964 31.1999 12.38C31.1999 11.9636 31.0345 11.5643 30.7401 11.2698C30.4457 10.9754 30.0463 10.81 29.6299 10.81C29.2135 10.81 28.8142 10.9754 28.5198 11.2698C28.2253 11.5643 28.0599 11.9636 28.0599 12.38Z" fill="#FFE236" stroke="#231F20" stroke-miterlimit="10"/>
<path d="M22.07 3.78C22.88 3.61 24.07 3.38 24.42 6.88C24.77 10.38 23.94 10.59 23.53 10.67C23.12 10.75 22.32 10.93 21.18 7.57C20.04 4.21 21.26 4 22.07 3.78Z" fill="#FFE236" stroke="#231F20" stroke-miterlimit="10"/>
<path d="M22.97 13.34C22.97 13.6689 23.1006 13.9843 23.3332 14.2168C23.5657 14.4494 23.8811 14.58 24.21 14.58C24.5388 14.58 24.8542 14.4494 25.0868 14.2168C25.3193 13.9843 25.45 13.6689 25.45 13.34C25.45 13.0111 25.3193 12.6957 25.0868 12.4632C24.8542 12.2306 24.5388 12.1 24.21 12.1C23.8811 12.1 23.5657 12.2306 23.3332 12.4632C23.1006 12.6957 22.97 13.0111 22.97 13.34Z" fill="#FFE236" stroke="#231F20" stroke-miterlimit="10"/>
</g>
<defs>
<clipPath id="clip0_2301_13990">
<rect width="40" height="40" fill="white"/>
</clipPath>
</defs>
</svg>
