<svg width="40" height="40" viewBox="0 0 40 40" fill="none" xmlns="http://www.w3.org/2000/svg">
<g clip-path="url(#clip0_2301_13957)">
<path d="M4.67993 23.18C4.67993 23.7237 4.89591 24.2451 5.28036 24.6296C5.66481 25.014 6.18624 25.23 6.72993 25.23C7.27363 25.23 7.79505 25.014 8.1795 24.6296C8.56395 24.2451 8.77993 23.7237 8.77993 23.18C8.77993 22.6363 8.56395 22.1149 8.1795 21.7304C7.79505 21.346 7.27363 21.13 6.72993 21.13C6.18624 21.13 5.66481 21.346 5.28036 21.7304C4.89591 22.1149 4.67993 22.6363 4.67993 23.18Z" fill="#48EEFF" stroke="#231F20" stroke-miterlimit="10" stroke-linecap="round"/>
<path d="M4.05001 18.76C3.88466 18.842 3.70472 18.8905 3.52055 18.9027C3.33638 18.9149 3.15162 18.8905 2.97689 18.8311C2.80217 18.7716 2.64093 18.6781 2.50245 18.5561C2.36398 18.4341 2.251 18.2859 2.17001 18.12C-1.35998 11 0.780015 4.67 7.89001 1.14C8.0569 1.042 8.24218 0.979397 8.4343 0.9561C8.62643 0.932803 8.8213 0.949307 9.00677 1.00459C9.19225 1.05987 9.36436 1.15274 9.51238 1.27741C9.6604 1.40209 9.78118 1.55591 9.86718 1.72929C9.95318 1.90267 10.0026 2.09189 10.0123 2.28519C10.022 2.47848 9.99177 2.6717 9.92355 2.85281C9.85534 3.03393 9.75057 3.19906 9.61577 3.33793C9.48097 3.4768 9.31902 3.58644 9.14002 3.66C3.45002 6.49 1.87001 11.18 4.69001 16.87C4.85333 17.2059 4.87774 17.5926 4.75794 17.9464C4.63815 18.3001 4.38381 18.5924 4.05001 18.76Z" fill="#48EEFF" stroke="#231F20" stroke-miterlimit="10"/>
<path d="M26.4301 1.55001C24.4301 0.350006 19.9301 2.92001 16.7501 5.10001C13.5701 7.28001 9.56009 10.52 10.0001 12.85C9.78009 14.3 12.7901 19.17 15.4701 23.08C18.1501 26.99 21.6101 31.55 23.0401 31.87C25.0401 33.08 29.5401 30.51 32.7201 28.32C35.9001 26.13 39.9101 22.9 39.5201 20.57C39.7401 19.12 36.7301 14.25 34.0501 10.34C31.3701 6.43001 27.8601 1.87001 26.4301 1.55001Z" fill="#FFE236" stroke="#231F20" stroke-miterlimit="10"/>
<path d="M12.4402 13.75C14.2702 14.75 14.8502 14.37 16.6002 13.17L25.1102 7.33C26.8502 6.14 26.6602 6.27 26.3702 4.19" stroke="#231F20" stroke-miterlimit="10" stroke-linecap="round"/>
<path d="M37.0001 19.67C35.1601 18.67 34.5801 19.05 32.8401 20.25L24.3301 26.09C22.5801 27.28 22.7801 27.15 23.0701 29.23" stroke="#231F20" stroke-miterlimit="10" stroke-linecap="round"/>
<path d="M28.9602 22.9L20.4702 10.52" stroke="#231F20" stroke-miterlimit="10" stroke-linecap="round"/>
<path d="M22.5901 3.66C23.3994 3.16278 24.3137 2.86145 25.2601 2.78" stroke="white" stroke-miterlimit="10" stroke-linecap="round"/>
<path d="M31.67 28.74C30.422 28.4007 29.1524 28.1467 27.87 27.98C27.6424 27.9301 27.4043 27.9684 27.2038 28.0872C27.0034 28.206 26.8555 28.3964 26.79 28.62C26.55 29.75 26.13 30.75 25.39 30.97C24.81 31.36 23.09 31.43 20.66 31.23C18.23 31.03 16.55 30.68 16.04 30.23C15.35 29.89 15.1 28.84 15.04 27.68C15.0123 27.4411 14.8921 27.2225 14.7052 27.0711C14.5182 26.9197 14.2795 26.8475 14.04 26.87C12.7516 26.8226 11.4615 26.8694 10.18 27.01C8.17996 27.34 7.54996 29.88 7.38996 31.82C7.22996 33.76 7.38996 36.36 9.38996 37.03C10.39 37.61 15.65 38.3 20.05 38.66C24.45 39.02 29.8 39.22 30.84 38.8C32.84 38.46 33.46 35.92 33.62 33.98C33.78 32.04 33.62 29.41 31.67 28.74Z" fill="#FF52A1" stroke="#231F20" stroke-miterlimit="10"/>
<path d="M28.8899 30C30.9899 30.33 31.2199 30.27 31.5099 31.27" stroke="white" stroke-miterlimit="10" stroke-linecap="round"/>
</g>
<defs>
<clipPath id="clip0_2301_13957">
<rect width="40" height="40" fill="white"/>
</clipPath>
</defs>
</svg>
