<svg width="40" height="40" viewBox="0 0 40 40" fill="none" xmlns="http://www.w3.org/2000/svg">
<g clip-path="url(#clip0_2301_15248)">
<path d="M2.80599 18.193C2.67379 18.0762 2.56599 17.9343 2.48879 17.7756C-0.888114 10.9658 1.15879 4.9114 7.95979 1.5355C8.11889 1.4421 8.29569 1.3822 8.48039 1.3596C9.05399 1.2909 9.97429 1.5659 10.435 1.9519C11.2094 2.6044 11.0152 3.8459 10.0784 4.2307C4.63689 6.9377 3.12429 11.4235 5.82239 16.8651C6.14699 17.5337 5.87389 18.3391 5.20949 18.6724C5.05239 18.751 4.87949 18.7981 4.70369 18.8099C4.12609 18.8482 3.22449 18.5614 2.80599 18.193Z" fill="#00034A"/>
<path d="M6.85 20.6545C5.7672 20.6545 4.8894 21.5322 4.8894 22.615C4.8894 24.0353 6.5003 24.8614 7.7733 24.8614C8.856 24.8613 9.7338 23.9836 9.7338 22.9009C9.7338 21.4806 8.1229 20.6545 6.85 20.6545Z" fill="#00034A"/>
<path d="M2.80599 18.193C2.67379 18.0762 2.56599 17.9343 2.48879 17.7756C-0.888114 10.9658 1.15879 4.9114 7.95979 1.5355C8.11889 1.4421 8.29569 1.3822 8.48039 1.3596C9.05399 1.2909 9.97429 1.5659 10.435 1.9519C11.2094 2.6044 11.0152 3.8459 10.0784 4.2307C4.63689 6.9377 3.12429 11.4235 5.82239 16.8651C6.14699 17.5337 5.87389 18.3391 5.20949 18.6724C5.05239 18.751 4.87949 18.7981 4.70369 18.8099C4.12609 18.8482 3.22449 18.5614 2.80599 18.193Z" stroke="#00034A" stroke-miterlimit="10"/>
<path d="M6.85 20.6545C5.7672 20.6545 4.8894 21.5322 4.8894 22.615C4.8894 24.0353 6.5003 24.8614 7.7733 24.8614C8.856 24.8613 9.7338 23.9836 9.7338 22.9009C9.7338 21.4806 8.1229 20.6545 6.85 20.6545Z" stroke="#00034A" stroke-miterlimit="10"/>
<path d="M6.84993 24.5756C8.35913 24.579 9.30603 22.9473 8.55443 21.6386C8.20403 21.0285 7.55353 20.6529 6.84993 20.6545C5.34073 20.6579 4.40113 22.2938 5.15863 23.5991C5.50863 24.2022 6.15263 24.574 6.84993 24.5756Z" fill="#9BFF00" stroke="#00034A" stroke-miterlimit="10" stroke-linecap="round"/>
<path d="M4.28619 18.3875C3.62109 18.7172 2.81459 18.4427 2.48879 17.7756C-0.888114 10.9658 1.15879 4.91138 7.95979 1.53548C8.85659 1.01248 9.98319 1.65648 9.98769 2.69458C9.99009 3.24258 9.66059 3.73748 9.15419 3.94678C3.71259 6.65378 2.19999 11.1387 4.89719 16.5812C5.22189 17.2496 4.94919 18.0548 4.28529 18.3885L4.28619 18.3875Z" fill="#9BFF00" stroke="#00034A" stroke-miterlimit="10"/>
<path d="M16.4335 5.32289C18.6611 3.79559 21.5656 2.06879 23.7118 1.70439C25.4356 1.41269 26.8549 2.55209 28.0365 3.68559C29.6719 5.25419 31.9752 8.32659 33.8513 11.065C36.4149 14.8053 39.2938 19.4631 39.0836 20.849C39.4569 23.0786 35.6213 26.1668 32.5793 28.2619C30.3889 29.7706 27.6377 31.4688 25.5014 31.8666C23.7284 32.1976 22.4525 31.2478 21.2022 30.1025C19.5717 28.6096 17.1711 25.3829 15.2086 22.5198C12.645 18.7804 9.76715 14.1217 9.97735 12.7358C9.55695 10.5061 13.3916 7.40819 16.4335 5.32289Z" fill="#00034A" stroke="#00034A" stroke-miterlimit="10"/>
<path d="M25.6909 1.92741C23.7785 0.780111 19.4744 3.23771 16.4344 5.32291C13.3925 7.40821 9.55792 10.5071 9.97832 12.7358C9.76812 14.1227 12.647 18.7804 15.2096 22.5188C17.7732 26.2591 21.0823 30.6202 22.4496 30.9266C24.363 32.0837 28.6671 29.6262 31.7081 27.5311C34.75 25.437 38.5846 22.3479 38.2124 20.1192C38.4226 18.7323 35.5437 14.0746 32.9801 10.3352C30.4164 6.59491 27.0592 2.23381 25.6909 1.92741Z" fill="#9BFF00" stroke="#00034A" stroke-miterlimit="10"/>
<path d="M12.311 13.5962C14.0614 14.5529 14.6163 14.1895 16.2891 13.0413L24.4288 7.4563C26.0927 6.3169 25.9119 6.4417 25.634 4.4527" stroke="#00034A" stroke-miterlimit="10" stroke-linecap="round"/>
<path d="M35.8009 19.2578C34.0408 18.3021 33.4858 18.6655 31.8219 19.8127L23.6822 25.3987C22.0095 26.5371 22.2 26.4123 22.478 28.4013" stroke="#00034A" stroke-miterlimit="10" stroke-linecap="round"/>
<path d="M28.111 22.3469L19.99 10.5081" stroke="#00034A" stroke-miterlimit="10" stroke-linecap="round"/>
<path d="M27.0689 27.206C28.2947 27.3661 29.5097 27.6087 30.7031 27.9328C31.8769 28.3355 33.0909 29.7126 33.3974 30.8795C33.643 31.8136 33.643 32.896 33.5663 33.8154C33.4131 35.6708 32.8198 38.0998 30.9074 38.425C29.9124 38.8277 24.796 38.6352 20.5882 38.2914C16.3793 37.9476 11.3484 37.2866 10.3926 36.7326C9.49492 36.432 8.30842 35.3378 7.90662 34.4912C7.40962 33.4431 7.38602 32.0376 7.48132 30.8785C7.63362 29.0231 8.23672 26.5941 10.1491 26.2788C11.3749 26.144 12.6089 26.099 13.8412 26.1442C14.0704 26.1226 14.2989 26.1918 14.4777 26.3367C14.8569 26.6441 15.0965 26.9005 15.4757 27.207C15.6544 27.3523 15.7703 27.5606 15.7959 27.7894C15.8322 28.4809 15.9383 29.1311 16.1731 29.6026C16.9068 29.9159 18.3094 30.1615 20.1727 30.3147C22.4966 30.5062 24.1409 30.4385 24.6968 30.0662C25.404 29.855 25.8067 28.8993 26.0356 27.8179C26.1658 27.3741 26.6172 27.1068 27.0689 27.206Z" fill="#00034A" stroke="#00034A" stroke-miterlimit="10"/>
<path d="M30.7033 27.9328C29.5098 27.6083 28.2956 27.3654 27.0691 27.206C26.6173 27.1062 26.1655 27.3738 26.0358 27.8179C25.806 28.8983 25.4042 29.855 24.697 30.0662C24.1421 30.4395 22.4968 30.5063 20.1729 30.3147C17.8489 30.1232 16.242 29.7882 15.7538 29.358C15.0948 29.0329 14.8551 28.0291 14.7981 26.9192C14.7431 26.4436 14.318 26.0993 13.8414 26.1442C12.6091 26.099 11.3751 26.144 10.1493 26.2787C8.23691 26.594 7.63481 29.0231 7.48151 30.8785C7.32831 32.7349 7.48151 35.2209 9.39391 35.8614C10.3506 36.4163 15.3816 37.0764 19.5894 37.4211C23.7973 37.7649 28.9147 37.9564 29.9087 37.5547C31.8221 37.2296 32.4154 34.8006 32.5676 32.9441C32.7208 31.0887 32.5676 28.5732 30.7033 27.9328Z" fill="white" stroke="#00034A" stroke-miterlimit="10"/>
</g>
<defs>
<clipPath id="clip0_2301_15248">
<rect width="40" height="40" fill="white"/>
</clipPath>
</defs>
</svg>
