<svg width="40" height="40" viewBox="0 0 40 40" fill="none" xmlns="http://www.w3.org/2000/svg">
<path d="M35.5785 14.1115V13.5181C35.5775 12.7125 35.5205 11.9079 35.4078 11.1102C36.2186 11.0853 37.0223 10.9511 37.7971 10.7111C38.6274 10.5071 39.1827 9.72517 39.1015 8.87397C39.1409 8.46747 39.0349 8.06017 38.8024 7.72447C38.4169 7.16447 37.4253 6.21017 36.7545 6.02577C35.2722 5.66467 33.7481 5.50467 32.2232 5.55007C30.6954 5.50537 29.1684 5.66537 27.683 6.02577C26.8731 6.25237 26.3408 7.02527 26.4178 7.86277C26.3786 8.26887 26.4835 8.67687 26.715 9.01227C27.1014 9.57137 28.092 10.5267 28.7639 10.7111C29.1631 10.8337 29.5682 10.9288 29.9801 10.9955C29.9409 11.4986 29.9242 12.0028 29.9301 12.5079V12.9169C26.4465 12.6491 22.9539 12.5127 19.46 12.5079C16.3048 12.5079 12.8523 12.6413 10.0561 12.8365C10.0325 12.2588 9.98009 11.6827 9.89909 11.1102C10.7095 11.0842 11.5126 10.9499 12.2874 10.7111C13.0999 10.4879 13.6342 9.71277 13.5536 8.87397C13.5909 8.46817 13.4847 8.06207 13.2535 7.72647C12.868 7.16637 11.8774 6.21307 11.2075 6.02577C9.7218 5.66527 8.19459 5.50527 6.66639 5.55007C5.14179 5.50477 3.61809 5.66477 2.13609 6.02577C1.33509 6.26017 0.815094 7.03247 0.899294 7.86277C0.858094 8.26977 0.963094 8.67687 1.19449 9.01427C1.57999 9.57327 2.57259 10.5296 3.24539 10.7111C3.64069 10.8327 4.04369 10.9278 4.45179 10.9955C4.40689 11.4984 4.38399 12.003 4.38309 12.5079V13.6211C2.34139 14.2788 0.942094 16.1598 0.899294 18.3044C0.918894 19.452 1.33089 20.5573 2.06649 21.4371C3.07369 22.6396 4.46159 23.842 6.02499 24.15C6.64739 24.3019 7.27769 24.4198 7.91299 24.5031C7.89009 24.7555 7.87769 25.0088 7.87569 25.2622C7.87569 27.6152 8.75849 29.1364 10.2993 30.689C10.3523 31.2638 10.4808 31.8307 10.6838 32.3721C10.9486 32.9586 11.9676 33.8943 12.514 34.1944C12.8455 34.3768 13.227 34.4465 13.6017 34.3916C14.3697 34.4992 15.1171 34.089 15.4387 33.3833C15.6319 32.9096 15.7477 32.4084 15.781 31.8984C17.5131 32.0318 19.3217 32.1269 20.5399 32.1269C21.5471 32.1269 22.9713 32.0612 24.4023 31.9641C24.4474 32.1181 24.5003 32.2701 24.5611 32.4202C24.8279 33.0047 25.846 33.9404 26.3933 34.2405C26.7244 34.4219 27.1051 34.4917 27.479 34.4396C28.2479 34.5501 28.997 34.1386 29.3161 33.4304C29.5691 32.7536 29.7074 32.0396 29.7251 31.3177C29.8761 31.2893 30.0213 31.2344 30.1537 31.1559C31.4679 30.6704 32.1241 28.1958 32.1241 26.3205C32.1232 25.7489 32.0691 25.1785 31.9623 24.6169C32.9988 24.5533 34.0275 24.3971 35.0361 24.15C37.3555 23.6928 39.041 21.6784 39.0819 19.3147C39.0595 18.2663 38.7097 17.2512 38.0815 16.4115C37.4557 15.5749 36.471 14.651 35.5785 14.1115Z" fill="#00034A" stroke="#00034A" stroke-miterlimit="10"/>
<path d="M34.4986 13.6211V12.5079C34.4973 11.7023 34.44 10.8977 34.327 10.1C35.1378 10.0747 35.9414 9.94007 36.7162 9.69987C37.5466 9.49587 38.1018 8.71397 38.0207 7.86277C38.1017 7.02397 37.5673 6.24847 36.7545 6.02577C35.2722 5.66467 33.7481 5.50467 32.2232 5.55007C30.6953 5.50537 29.1684 5.66537 27.683 6.02577C26.8731 6.25237 26.3408 7.02527 26.4178 7.86277C26.3367 8.70137 26.8707 9.47667 27.683 9.69987C28.4579 9.93917 29.2621 10.0726 30.0723 10.1C29.9691 10.8984 29.9216 11.7029 29.93 12.5079V12.9169C26.4464 12.6491 22.9539 12.5127 19.46 12.5079C15.8899 12.5079 11.9402 12.6795 8.98989 12.9169V12.5079C8.98859 11.7023 8.93129 10.8977 8.81829 10.1C9.62899 10.0737 10.4325 9.93907 11.2075 9.69987C12.0199 9.47667 12.5539 8.70137 12.4727 7.86277C12.5498 7.02527 12.0174 6.25237 11.2075 6.02577C9.7218 5.66527 8.19459 5.50527 6.66639 5.55007C5.14179 5.50477 3.61799 5.66477 2.13609 6.02577C1.33509 6.26017 0.815094 7.03247 0.899294 7.86277C0.814394 8.70227 1.34989 9.47987 2.16449 9.69987C2.93939 9.94017 3.74359 10.0745 4.55379 10.1C4.44109 10.8977 4.38409 11.7023 4.38309 12.5079V13.6211C2.34139 14.2788 0.942094 16.1598 0.899294 18.3044C0.939694 20.668 2.62489 22.6825 4.94409 23.1398C5.95909 23.388 6.99449 23.5439 8.03759 23.6057C7.93369 24.1518 7.87949 24.7063 7.87569 25.2622C7.87569 27.165 8.53289 29.6121 9.84719 30.0976C9.97859 30.176 10.1237 30.231 10.2748 30.2594C10.2924 30.9813 10.4317 31.6953 10.6838 32.3721C11.0026 33.0805 11.7519 33.4922 12.5208 33.3813C13.2891 33.4891 14.0368 33.0784 14.3579 32.3721C14.5511 31.8993 14.6668 31.3981 14.7011 30.8871C16.4332 31.0205 18.2418 31.1157 19.46 31.1157C20.6781 31.1157 22.5054 31.0205 24.2188 30.8871C24.2483 31.4138 24.363 31.9317 24.5621 32.4201C24.8834 33.1257 25.6304 33.5359 26.3982 33.4284C27.1668 33.5394 27.9161 33.1282 28.2352 32.4201C28.4886 31.7433 28.6271 31.0289 28.6452 30.3065C28.7962 30.2784 28.941 30.2236 29.0728 30.1447C30.3871 29.6601 31.0442 27.1846 31.0442 25.3093C31.0425 24.7376 30.988 24.1673 30.8814 23.6057C31.9182 23.5425 32.9473 23.3866 33.9562 23.1398C36.2755 22.6825 37.9607 20.668 38.0011 18.3044C37.9556 16.1548 36.5477 14.2723 34.4986 13.6211Z" fill="#9BFF00" stroke="#00034A" stroke-miterlimit="10"/>
<path d="M19.46 27.5848C23.4752 27.5848 25.9847 23.2382 23.9771 19.7609C23.0454 18.1471 21.3235 17.153 19.46 17.153C15.4448 17.153 12.9353 21.4996 14.9429 24.9768C15.8746 26.5906 17.5965 27.5848 19.46 27.5848Z" fill="white" stroke="#00034A" stroke-miterlimit="10"/>
<path d="M16.8041 22.5209C16.7897 21.5557 17.2174 20.637 17.9654 20.0267L16.8041 22.5209Z" fill="white"/>
<path d="M16.8041 22.5209C16.7897 21.5557 17.2174 20.637 17.9654 20.0267" stroke="#00034A" stroke-miterlimit="10" stroke-linecap="round"/>
</svg>
