<svg width="40" height="40" viewBox="0 0 40 40" fill="none" xmlns="http://www.w3.org/2000/svg">
<g clip-path="url(#clip0_2301_13938)">
<path d="M34.54 0.570006C31.66 0.970006 30.87 2.69001 31.3 4.17001C31.6924 5.29645 32.1809 6.38713 32.76 7.43001C32.4784 7.54225 32.2218 7.70905 32.0049 7.9208C31.7881 8.13255 31.6152 8.38508 31.4962 8.66387C31.3773 8.94267 31.3146 9.24222 31.3118 9.54532C31.309 9.84841 31.3662 10.1491 31.48 10.43C31.5427 10.772 31.6804 11.0958 31.8834 11.3781C32.0863 11.6604 32.3493 11.8941 32.6535 12.0625C32.9577 12.2308 33.2955 12.3296 33.6424 12.3517C33.9894 12.3737 34.3369 12.3185 34.66 12.19C35.0028 12.1286 35.3278 11.9917 35.6112 11.7893C35.8947 11.5869 36.1296 11.3241 36.299 11.0197C36.4684 10.7154 36.5681 10.3772 36.5907 10.0296C36.6134 9.68202 36.5585 9.33376 36.43 9.01001C35.9701 7.54582 35.3776 6.12661 34.66 4.77001C37.27 4.55001 38.9 4.62001 39.11 3.49001C39.32 2.36001 38.15 0.070006 34.54 0.570006Z" fill="#FFE236" stroke="#231F20" stroke-miterlimit="10"/>
<path d="M35.3999 16.19C29.3999 14.38 25.7599 16.61 24.3999 21.19L22.5099 27.45C21.5099 30.85 20.3999 35.58 20.5099 36.45C20.3599 38.08 21.9099 38.86 23.1399 39.23C24.3699 39.6 26.0799 39.8 26.8699 38.36C28.0404 36.0116 29.0041 33.5657 29.7499 31.05C30.0999 31.2 30.4599 31.33 30.8399 31.45C35.8799 33 36.6199 29.87 37.9999 25.3C39.3799 20.73 40.4899 17.72 35.3999 16.19Z" fill="#48EEFF" stroke="#231F20" stroke-miterlimit="10"/>
<path d="M23.0598 34.78C23.4634 34.9776 23.8854 35.135 24.3198 35.25C24.7429 35.3901 25.1781 35.4905 25.6198 35.55" stroke="#231F20" stroke-miterlimit="10" stroke-linecap="round"/>
<path d="M36.6398 21.21C36.1618 22.2972 35.7608 23.4166 35.4398 24.56C35.0748 25.6849 34.7907 26.8345 34.5898 28" stroke="#231F20" stroke-miterlimit="10" stroke-linecap="round"/>
<path d="M27.9998 18.9C28.5397 18.3688 29.186 17.9579 29.8961 17.6942C30.6061 17.4305 31.364 17.32 32.1198 17.37" stroke="white" stroke-miterlimit="10" stroke-linecap="round"/>
<path d="M17.1699 18.72C19.8299 15.72 22.4799 12.56 22.8599 11.6C22.9926 11.3723 23.0789 11.1207 23.114 10.8596C23.1491 10.5984 23.1323 10.3329 23.0644 10.0783C22.9966 9.82367 22.8791 9.58497 22.7187 9.3759C22.5584 9.16682 22.3583 8.9915 22.1299 8.86001C20.5999 8.00001 11.9999 4.00001 10.5599 4.20001C10.0179 4.20584 9.49763 4.41434 9.10158 4.78448C8.70553 5.15462 8.46236 5.65959 8.41992 6.20001C8.37473 8.60229 8.53195 11.0041 8.88992 13.38C7.34974 12.3457 5.71191 11.4649 3.99992 10.75C3.50079 10.5867 2.95902 10.6126 2.47774 10.8228C1.99646 11.033 1.60929 11.4128 1.38992 11.89C1.04195 12.2831 0.849854 12.79 0.849854 13.315C0.849854 13.84 1.04195 14.3469 1.38992 14.74C1.98992 15.53 5.13992 17.74 8.38992 19.89C5.83992 22.8 3.38992 25.75 2.99992 26.67C2.76344 27.1382 2.70714 27.6769 2.84172 28.1839C2.97629 28.6909 3.29237 29.1307 3.72992 29.42C4.06573 29.8214 4.53641 30.0865 5.05372 30.1657C5.57103 30.2448 6.09945 30.1326 6.53992 29.85C8.0006 28.6989 9.34683 27.4096 10.5599 26C10.8368 28.3902 11.3186 30.7523 11.9999 33.06C12.1574 33.555 12.4934 33.9735 12.9427 34.2342C13.3919 34.4949 13.9221 34.5789 14.4299 34.47C15.7999 34.58 23.3099 28.17 24.5499 26.96C24.7374 26.7741 24.8862 26.5529 24.9877 26.3092C25.0892 26.0654 25.1415 25.804 25.1415 25.54C25.1415 25.276 25.0892 25.0146 24.9877 24.7709C24.8862 24.5271 24.7374 24.3059 24.5499 24.12C23.8999 23.3 20.5199 21 17.1699 18.72ZM14.4199 11.77L15.3399 12.19L14.5999 13C14.5399 12.57 14.4799 12.16 14.4199 11.77ZM16.1799 24.94L17.1099 25.51L16.3199 26.17C16.2799 25.77 16.2299 25.36 16.1799 24.94Z" fill="#FF52A1" stroke="#231F20" stroke-miterlimit="10"/>
<path d="M17.52 8.74001C18.8016 9.11654 20.0236 9.67201 21.15 10.39" stroke="white" stroke-miterlimit="10" stroke-linecap="round"/>
<path d="M22.98 2.57001C22.98 2.78275 23.0219 2.99341 23.1033 3.18996C23.1847 3.38651 23.304 3.56509 23.4545 3.71553C23.6049 3.86596 23.7835 3.98528 23.98 4.0667C24.1766 4.14811 24.3872 4.19001 24.6 4.19001C24.8127 4.19001 25.0234 4.14811 25.2199 4.0667C25.4165 3.98528 25.5951 3.86596 25.7455 3.71553C25.8959 3.56509 26.0153 3.38651 26.0967 3.18996C26.1781 2.99341 26.22 2.78275 26.22 2.57001C26.22 2.35727 26.1781 2.14661 26.0967 1.95007C26.0153 1.75352 25.8959 1.57493 25.7455 1.4245C25.5951 1.27407 25.4165 1.15474 25.2199 1.07333C25.0234 0.991915 24.8127 0.950012 24.6 0.950012C24.3872 0.950012 24.1766 0.991915 23.98 1.07333C23.7835 1.15474 23.6049 1.27407 23.4545 1.4245C23.304 1.57493 23.1847 1.75352 23.1033 1.95007C23.0219 2.14661 22.98 2.35727 22.98 2.57001Z" fill="#FFE236" stroke="#231F20" stroke-miterlimit="10"/>
<path d="M3.09985 36.33C3.09985 36.6531 3.16348 36.973 3.28711 37.2714C3.41074 37.5699 3.59194 37.8411 3.82037 38.0695C4.0488 38.2979 4.31999 38.4791 4.61845 38.6028C4.91691 38.7264 5.2368 38.79 5.55985 38.79C5.88291 38.79 6.20279 38.7264 6.50126 38.6028C6.79972 38.4791 7.0709 38.2979 7.29934 38.0695C7.52777 37.8411 7.70897 37.5699 7.8326 37.2714C7.95622 36.973 8.01985 36.6531 8.01985 36.33C8.01985 36.007 7.95622 35.6871 7.8326 35.3886C7.70897 35.0901 7.52777 34.819 7.29934 34.5905C7.0709 34.3621 6.79972 34.1809 6.50126 34.0573C6.20279 33.9336 5.88291 33.87 5.55985 33.87C5.2368 33.87 4.91691 33.9336 4.61845 34.0573C4.31999 34.1809 4.0488 34.3621 3.82037 34.5905C3.59194 34.819 3.41074 35.0901 3.28711 35.3886C3.16348 35.6871 3.09985 36.007 3.09985 36.33Z" fill="#FFE236" stroke="#231F20" stroke-miterlimit="10"/>
</g>
<defs>
<clipPath id="clip0_2301_13938">
<rect width="40" height="40" fill="white"/>
</clipPath>
</defs>
</svg>
