<svg width="40" height="40" viewBox="0 0 40 40" fill="none" xmlns="http://www.w3.org/2000/svg">
<path d="M3.29004 23C3.29004 32.88 8.86004 39.5 20 39.5C31.14 39.5 36.71 32.88 36.71 23C36.71 13.12 31.14 0.5 20 0.5C8.86004 0.5 3.29004 13 3.29004 23Z" fill="#48EEFF" stroke="#231F20" stroke-miterlimit="10"/>
<path d="M31.5 27C31.359 26.4467 31.1508 25.9127 30.88 25.41C30.6791 25.0291 30.4484 24.6646 30.19 24.32C30.3917 23.9674 30.5655 23.5996 30.71 23.22C30.9291 22.6912 31.0803 22.1368 31.16 21.57C31.1717 21.4027 31.1193 21.2373 31.0134 21.1073C30.9076 20.9773 30.7562 20.8925 30.59 20.87C30.0214 20.8349 29.4506 20.8685 28.89 20.97C28.4916 21.0447 28.0977 21.1415 27.71 21.26C27.4335 20.9594 27.1361 20.6787 26.82 20.42C26.3843 20.0512 25.9039 19.7387 25.39 19.49C25.2358 19.4249 25.0623 19.4218 24.9058 19.4814C24.7493 19.541 24.6219 19.6587 24.55 19.81C24.3391 20.3401 24.1947 20.8944 24.12 21.46C24.0557 21.8606 24.0157 22.2646 24 22.67C23.6 22.8441 23.2153 23.0515 22.85 23.29C22.3636 23.5895 21.9167 23.949 21.52 24.36C21.4083 24.4832 21.3464 24.6436 21.3464 24.81C21.3464 24.9764 21.4083 25.1368 21.52 25.26C21.9627 25.6215 22.446 25.9303 22.96 26.18C23.3287 26.3601 23.7097 26.5138 24.1 26.64C24.1431 27.0483 24.2166 27.4527 24.32 27.85C24.45 28.4038 24.6517 28.9384 24.92 29.44C25.0075 29.583 25.146 29.6874 25.3076 29.7319C25.4692 29.7765 25.6417 29.7579 25.79 29.68C26.2689 29.3665 26.7116 29.001 27.11 28.59C27.4073 28.2977 27.6784 27.9798 27.92 27.64C28.3509 27.7366 28.7891 27.7968 29.23 27.82C29.8211 27.8638 30.4153 27.837 31 27.74C31.1598 27.6997 31.2991 27.602 31.3913 27.4655C31.4836 27.3289 31.5223 27.1632 31.5 27Z" fill="#FFE236" stroke="#231F20" stroke-miterlimit="10"/>
<path d="M14.9424 17.0617C15.5716 17.2303 16.2319 17.258 16.8856 17.1434C17.5393 17.0288 18.1737 16.774 18.7524 16.3936C19.3312 16.0132 19.843 15.5147 20.2587 14.9264C20.6744 14.3382 20.9858 13.6718 21.1751 12.9652C21.3644 12.2587 21.4279 11.5259 21.3621 10.8086C21.2962 10.0913 21.1022 9.40365 20.7912 8.78484C20.4802 8.16604 20.0582 7.62822 19.5494 7.20208C19.0406 6.77595 18.4548 6.46986 17.8257 6.30128C17.1965 6.13269 16.5362 6.10492 15.8825 6.21955C15.2288 6.33417 14.5944 6.58896 14.0157 6.96935C13.4369 7.34974 12.9251 7.84829 12.5094 8.43653C12.0938 9.02478 11.7824 9.6912 11.5931 10.3977C11.4037 11.1043 11.3402 11.8371 11.4061 12.5544C11.4719 13.2716 11.6659 13.9593 11.9769 14.5781C12.2879 15.1969 12.7099 15.7348 13.2187 16.1609C13.7276 16.587 14.3133 16.8931 14.9424 17.0617Z" fill="#FFE236" stroke="#231F20" stroke-miterlimit="10"/>
<path d="M10.2717 29.9605C10.5521 30.4461 10.9014 30.8856 11.2997 31.2538C11.698 31.6221 12.1375 31.9119 12.5931 32.1067C13.0487 32.3015 13.5114 32.3975 13.955 32.3892C14.3985 32.3809 14.8141 32.2685 15.178 32.0584C15.5419 31.8483 15.8471 31.5446 16.076 31.1646C16.3049 30.7847 16.4532 30.3359 16.5123 29.8439C16.5713 29.352 16.5401 28.8265 16.4204 28.2974C16.3006 27.7683 16.0946 27.2461 15.8143 26.7605C15.5339 26.2749 15.1846 25.8354 14.7863 25.4671C14.388 25.0989 13.9485 24.8091 13.4929 24.6143C13.0373 24.4195 12.5746 24.3235 12.131 24.3317C11.6875 24.34 11.2719 24.4524 10.908 24.6626C10.5441 24.8727 10.2389 25.1764 10.01 25.5563C9.78106 25.9363 9.63281 26.3851 9.57373 26.877C9.51465 27.369 9.54588 27.8945 9.66564 28.4236C9.7854 28.9526 9.99134 29.4749 10.2717 29.9605Z" fill="#FFE236" stroke="#231F20" stroke-miterlimit="10"/>
<path d="M24.27 4C26.1353 4.7155 27.7704 5.92546 29 7.5" stroke="white" stroke-miterlimit="10" stroke-linecap="round"/>
</svg>
