<svg width="40" height="40" viewBox="0 0 40 40" fill="none" xmlns="http://www.w3.org/2000/svg">
<g clip-path="url(#clip0_2301_15181)">
<path d="M35.345 5.7194C34.1187 4.7921 24.954 3.854 19.5643 3.854C14.1726 3.854 5.0088 4.8118 3.7934 5.7686C1.3705 6.6585 0.891602 15.9757 0.891602 19.6052C0.891602 22.4805 1.1797 28.9263 2.5003 31.9461C2.8583 32.7663 3.7737 33.8892 4.6538 34.2314C5.8702 35.1892 15.035 36.147 20.4257 36.147C25.8164 36.147 35.0087 35.1607 36.2349 34.2314C38.6677 33.2737 39.1082 23.9752 39.1082 20.3466C39.1082 17.5244 38.8299 11.2605 37.5703 8.1738C37.2084 7.2868 36.2841 6.0842 35.345 5.7194Z" fill="#00034A" stroke="#00034A" stroke-miterlimit="10"/>
<path d="M35.345 33.489C37.7768 32.5322 38.2173 23.2337 38.2173 19.6042C38.2173 15.9757 37.7581 6.65853 35.345 5.71943C34.1187 4.79113 24.955 3.85303 19.5643 3.85303C14.1726 3.85303 5.0088 4.81083 3.7934 5.76763C1.3705 6.65853 0.891602 15.9757 0.891602 19.6052C0.891602 23.2337 1.3508 32.5509 3.7639 33.49C4.9803 34.4468 14.1441 35.4046 19.5358 35.4046C24.9265 35.4046 34.1187 34.4183 35.345 33.49V33.489Z" fill="#9BFF00" stroke="#00034A" stroke-miterlimit="10"/>
<path d="M15.5524 16.014C16.8681 15.1295 17.601 13.6013 17.467 12.0216C17.467 9.21518 15.9163 7.34778 12.804 7.34778C9.69171 7.34778 8.13111 9.26338 8.13111 12.0207C8.00521 13.6107 8.75811 15.1425 10.0939 16.014C4.77011 18.2167 7.75751 26.5476 7.97771 26.6813C8.38481 26.9291 8.85191 27.0609 9.32791 27.0648C9.38491 28.9224 9.52951 30.895 9.91201 31.249C10.1804 31.8046 11.6073 31.8616 12.7843 31.8616C13.9624 31.8616 15.4089 31.8046 15.6577 31.249C16.0313 30.8556 16.1838 28.9224 16.2319 27.0639C16.7089 27.0639 17.1759 26.9301 17.5821 26.6804C17.9164 26.5565 20.8378 18.1971 15.5524 16.014Z" fill="white" stroke="#00034A" stroke-miterlimit="10"/>
<path d="M22.5713 27.6578C23.1082 28.4631 23.6963 29.2046 24.4004 29.8703C26.2668 31.7849 26.4683 31.719 26.7456 31.7849C27.021 31.8704 27.314 31.8704 27.5884 31.7849C27.8657 31.7082 28.0771 31.718 29.9346 29.8703C30.6549 29.2078 31.2976 28.4655 31.8502 27.6578C32.2283 26.6978 31.4255 25.6885 30.4051 25.841C30.2997 25.8567 30.1965 25.885 30.0979 25.9251C29.754 26.141 29.4331 26.3914 29.1401 26.6725V26.1454C29.132 24.9323 29.0261 23.7218 28.8234 22.5257C28.5214 21.3021 27.008 20.8642 26.0993 21.7376C25.8762 21.952 25.7184 22.2253 25.6443 22.5257C25.4357 23.721 25.3239 24.9312 25.3099 26.1444V26.6715C25.0033 26.3859 24.666 26.1352 24.304 25.9241C23.3401 25.5541 22.337 26.3662 22.4984 27.386C22.5131 27.4789 22.5376 27.57 22.5713 27.6578Z" fill="white" stroke="#00034A" stroke-miterlimit="10"/>
<path d="M31.7736 11.5998C31.2209 10.7925 30.6063 10.0019 29.8865 9.34008C28.0192 7.47168 27.8186 7.49138 27.5403 7.42448C27.2657 7.34028 26.9721 7.34028 26.6975 7.42448C26.4104 7.50118 26.2098 7.49138 24.3523 9.34008C23.6485 10.0052 23.0218 10.7474 22.4839 11.5526C22.1125 12.5152 22.9224 13.5189 23.9418 13.3592C24.0361 13.3444 24.1285 13.3196 24.2176 13.2852C24.6094 13.0798 24.9758 12.8289 25.3091 12.5379V13.065C25.2981 14.2929 25.3879 15.5196 25.5775 16.7328C25.8795 17.9565 27.3929 18.3944 28.3016 17.521C28.5247 17.3066 28.6825 17.0333 28.7567 16.7328C28.9599 15.5365 29.0658 14.3256 29.0733 13.1122V12.5861C29.3663 12.8663 29.6869 13.1171 30.0301 13.3334C30.9902 13.7133 32.0015 12.9114 31.8504 11.89C31.8358 11.7907 31.81 11.6933 31.7736 11.5998Z" fill="white" stroke="#00034A" stroke-miterlimit="10"/>
</g>
<defs>
<clipPath id="clip0_2301_15181">
<rect width="40" height="40" fill="white"/>
</clipPath>
</defs>
</svg>
