<svg width="40" height="40" viewBox="0 0 40 40" fill="none" xmlns="http://www.w3.org/2000/svg">
<path d="M31.793 10.522C33.1013 10.5593 34.3896 10.8529 35.585 11.386C39.465 13.449 39.501 19.606 39.5 23.326V23.391V23.477C39.5 25.637 39.502 31.239 36.797 32.644C36.225 32.944 34.723 32.751 32.727 32.402C32.659 34.456 32.456 36.452 31.69 36.908C30.731 38.09 24.336 38.196 20.606 38.196C16.876 38.196 10.49 38.051 9.521 36.908C7.969 35.984 7.474 34.276 7.343 32.591C5.922 32.809 4.871 32.884 4.415 32.644C0.776 30.727 0.5 25.794 0.5 22.18V22.11C0.5 19.835 0.499 12.824 3.203 11.386C4.65718 10.7373 6.24513 10.4449 7.835 10.533C9.211 5.21301 13.057 1.89001 19.395 1.89001C24.888 1.89001 29.945 5.29601 31.793 10.522Z" fill="#00034A" stroke="#00034A" stroke-miterlimit="10"/>
<path d="M35.585 11.386C34.1311 10.7375 32.5435 10.4451 30.954 10.533C29.578 5.21301 25.731 1.89001 19.394 1.89001C13.058 1.89001 9.21101 5.21301 7.83401 10.533C6.24481 10.4452 4.65758 10.7376 3.20401 11.386C0.470014 12.839 0.500014 19.98 0.500014 22.18C0.500014 24.38 0.500014 30.009 3.20301 31.433C3.77501 31.733 5.27701 31.54 7.27301 31.191C7.33101 33.245 7.54401 35.241 8.31001 35.696C9.27901 36.84 15.664 36.986 19.394 36.986C23.124 36.986 29.52 36.879 30.479 35.696C31.245 35.241 31.449 33.245 31.516 31.191C33.512 31.54 35.014 31.733 35.586 31.433C38.328 30.009 38.289 24.273 38.289 22.18C38.289 20.087 38.318 12.84 35.585 11.386Z" fill="#9BFF00" stroke="#00034A" stroke-miterlimit="10"/>
<path d="M31.3601 24.835C31.5034 23.49 31.5652 22.1375 31.5451 20.785C31.565 19.4325 31.5036 18.0801 31.3611 16.735" stroke="#00034A" stroke-miterlimit="10" stroke-linecap="round"/>
<path d="M14.356 16.327C15.996 16.78 17.695 16.979 19.394 16.918C21.094 16.979 22.794 16.78 24.433 16.328" stroke="#00034A" stroke-miterlimit="10" stroke-linecap="round"/>
<path d="M7.42794 16.734C7.28547 18.0791 7.22403 19.4315 7.24394 20.784C7.22394 22.137 7.28494 23.49 7.42794 24.834" stroke="#00034A" stroke-miterlimit="10" stroke-linecap="round"/>
<path d="M14.9859 13.14C15.4872 13.14 15.9679 12.9409 16.3224 12.5864C16.6768 12.232 16.8759 11.7512 16.8759 11.25C16.8759 10.7487 16.6768 10.268 16.3224 9.91355C15.9679 9.55911 15.4872 9.35999 14.9859 9.35999C14.4847 9.35999 14.004 9.55911 13.6495 9.91355C13.2951 10.268 13.0959 10.7487 13.0959 11.25C13.0959 11.7512 13.2951 12.232 13.6495 12.5864C14.004 12.9409 14.4847 13.14 14.9859 13.14Z" fill="#00034A"/>
<path d="M23.8031 13.14C24.3043 13.14 24.7851 12.9409 25.1395 12.5864C25.494 12.232 25.6931 11.7512 25.6931 11.25C25.6931 10.7487 25.494 10.268 25.1395 9.91355C24.7851 9.55911 24.3043 9.35999 23.8031 9.35999C23.3018 9.35999 22.8211 9.55911 22.4667 9.91355C22.1122 10.268 21.9131 10.7487 21.9131 11.25C21.9131 11.7512 22.1122 12.232 22.4667 12.5864C22.8211 12.9409 23.3018 13.14 23.8031 13.14Z" fill="#00034A"/>
<path d="M19.394 16.918C18.2069 16.9262 17.0211 16.8389 15.848 16.657C14.8911 18.2608 14.3763 20.0895 14.356 21.957C14.356 24.98 16.032 26.995 19.394 26.995C22.757 26.995 24.433 24.98 24.433 21.957C24.4126 20.0895 23.8978 18.2608 22.941 16.657C21.768 16.839 20.581 16.927 19.394 16.918Z" fill="white" stroke="#00034A" stroke-miterlimit="10"/>
<path d="M19.394 20.697V23.217" stroke="#00034A" stroke-miterlimit="10" stroke-linecap="round"/>
</svg>
