<svg width="40" height="40" viewBox="0 0 40 40" fill="none" xmlns="http://www.w3.org/2000/svg">
<g clip-path="url(#clip0_2301_13837)">
<path d="M36.71 11.69C35.2093 11.0207 33.5707 10.719 31.93 10.81C30.51 5.32 26.54 1.89 20 1.89C13.46 1.89 9.49001 5.32 8.07001 10.81C6.42937 10.719 4.79068 11.0207 3.29001 11.69C0.470013 13.19 0.500013 20.56 0.500013 22.83C0.500013 25.1 0.500013 30.91 3.29001 32.38C3.88001 32.69 5.43001 32.49 7.49001 32.13C7.55001 34.25 7.77001 36.31 8.56001 36.78C9.56001 37.96 16.15 38.11 20 38.11C23.85 38.11 30.45 38 31.44 36.78C32.23 36.31 32.44 34.25 32.51 32.13C34.57 32.49 36.12 32.69 36.71 32.38C39.54 30.91 39.5 24.99 39.5 22.83C39.5 20.67 39.53 13.19 36.71 11.69Z" fill="#FFE236" stroke="#231F20" stroke-miterlimit="10"/>
<path d="M32.3501 25.57C32.4977 24.1818 32.5611 22.7859 32.5401 21.39C32.5606 19.9941 32.4972 18.5983 32.3501 17.21" stroke="#231F20" stroke-miterlimit="10" stroke-linecap="round"/>
<path d="M14.8 16.79C16.4922 17.2572 18.2458 17.4629 20 17.4C21.7543 17.4629 23.5079 17.2572 25.2 16.79" stroke="#231F20" stroke-miterlimit="10" stroke-linecap="round"/>
<path d="M7.64998 17.21C7.50291 18.5983 7.43946 19.9941 7.45998 21.39C7.43895 22.7859 7.5024 24.1818 7.64998 25.57" stroke="#231F20" stroke-miterlimit="10" stroke-linecap="round"/>
<path d="M13.5 11.55C13.5 11.8061 13.5504 12.0597 13.6484 12.2962C13.7464 12.5328 13.8901 12.7478 14.0711 12.9289C14.2522 13.1099 14.4672 13.2536 14.7038 13.3516C14.9404 13.4496 15.1939 13.5 15.45 13.5C15.7061 13.5 15.9596 13.4496 16.1962 13.3516C16.4328 13.2536 16.6478 13.1099 16.8289 12.9289C17.0099 12.7478 17.1536 12.5328 17.2516 12.2962C17.3496 12.0597 17.4 11.8061 17.4 11.55C17.4 11.0328 17.1946 10.5368 16.8289 10.1711C16.4632 9.80545 15.9672 9.60001 15.45 9.60001C14.9328 9.60001 14.4368 9.80545 14.0711 10.1711C13.7054 10.5368 13.5 11.0328 13.5 11.55Z" fill="#231F20"/>
<path d="M22.6001 11.55C22.6001 12.0672 22.8055 12.5632 23.1712 12.9289C23.5369 13.2946 24.0329 13.5 24.5501 13.5C25.0673 13.5 25.5633 13.2946 25.929 12.9289C26.2947 12.5632 26.5001 12.0672 26.5001 11.55C26.5001 11.0328 26.2947 10.5368 25.929 10.1711C25.5633 9.80545 25.0673 9.60001 24.5501 9.60001C24.0329 9.60001 23.5369 9.80545 23.1712 10.1711C22.8055 10.5368 22.6001 11.0328 22.6001 11.55Z" fill="#231F20"/>
<path d="M20 17.4C18.7748 17.4082 17.5508 17.3179 16.34 17.13C15.3525 18.7853 14.8212 20.6726 14.8 22.6C14.8 25.72 16.53 27.8 20 27.8C23.47 27.8 25.2 25.72 25.2 22.6C25.1789 20.6726 24.6476 18.7853 23.66 17.13C22.4493 17.3184 21.2253 17.4087 20 17.4Z" fill="#FF52A1" stroke="#231F20" stroke-miterlimit="10"/>
<path d="M20 21.3V23.9" stroke="#231F20" stroke-miterlimit="10" stroke-linecap="round"/>
<path d="M24.1499 5C25.8825 5.63208 27.3234 6.87727 28.1999 8.5" stroke="white" stroke-miterlimit="10" stroke-linecap="round"/>
</g>
<defs>
<clipPath id="clip0_2301_13837">
<rect width="40" height="40" fill="white"/>
</clipPath>
</defs>
</svg>
