<svg width="40" height="40" viewBox="0 0 40 40" fill="none" xmlns="http://www.w3.org/2000/svg">
<g clip-path="url(#clip0_2301_15089)">
<path d="M31.5401 3.33602C29.2851 1.90502 26.4451 1.04602 23.0161 0.873015C22.848 0.867898 22.6806 0.896748 22.5239 0.957838C22.3673 1.01893 22.2245 1.111 22.1043 1.22855C21.984 1.34609 21.8887 1.48669 21.8241 1.64193C21.7594 1.79717 21.7268 1.96386 21.7281 2.13202V17.183L23.1331 17.963H38.1841C38.3565 17.9621 38.527 17.926 38.6851 17.857C38.8432 17.788 38.9855 17.6875 39.1034 17.5616C39.2214 17.4357 39.3124 17.2871 39.371 17.1249C39.4295 16.9627 39.4544 16.7902 39.4441 16.618C39.1011 10.445 36.4741 5.71902 31.5401 3.33602Z" fill="#00034A" stroke="#00034A" stroke-linejoin="round"/>
<path d="M33.714 21.086C30.929 21.033 24.402 20.924 19.234 21.052C19.294 17.085 19.261 12.536 19.238 9.23699C19.2286 8.15068 19.2229 7.06434 19.221 5.97799C19.2175 5.80001 19.1779 5.62458 19.1047 5.46232C19.0315 5.30006 18.9261 5.15435 18.795 5.03399C18.275 4.55599 17.089 3.86499 16.413 3.90999C5.84096 4.42899 0.553955 11.186 0.553955 21.114C0.553955 32.038 8.61595 39.137 19.202 39.128C30.168 39.128 35.906 32.89 36.406 23.278C36.415 23.1006 36.3888 22.9232 36.329 22.756C36.001 21.841 34.615 21.123 33.714 21.086Z" fill="#00034A" stroke="#00034A" stroke-linejoin="round"/>
<path d="M33.714 21.085C33.8916 21.0923 34.066 21.1348 34.2272 21.2099C34.3883 21.2851 34.533 21.3914 34.6527 21.5228C34.7725 21.6542 34.8651 21.8081 34.925 21.9754C34.9849 22.1428 35.0111 22.3204 35.002 22.498C34.502 32.11 28.764 38.348 17.797 38.348C6.30196 38.357 0.553955 31.465 0.553955 21.113C0.553955 11.185 5.84095 4.42801 16.414 3.90901C16.5915 3.89749 16.7695 3.92207 16.9373 3.98126C17.1051 4.04045 17.2592 4.13302 17.3902 4.2534C17.5212 4.37377 17.6265 4.51944 17.6997 4.68162C17.7729 4.8438 17.8124 5.01912 17.816 5.19701C17.816 8.13801 17.922 15.385 17.816 21.094C23.141 20.902 30.666 21.028 33.714 21.085Z" fill="#9BFF00" stroke="#00034A" stroke-miterlimit="10"/>
<path d="M38.0391 15.838C37.5591 7.16802 32.5701 1.35302 23.0161 0.873015C22.848 0.867898 22.6806 0.896748 22.5239 0.957838C22.3673 1.01893 22.2245 1.111 22.1043 1.22855C21.984 1.34609 21.8887 1.48669 21.8241 1.64193C21.7594 1.79717 21.7268 1.96386 21.7281 2.13202V17.183H36.7801C36.9525 17.182 37.1228 17.1458 37.2808 17.0767C37.4388 17.0076 37.581 16.9071 37.6988 16.7812C37.8166 16.6554 37.9075 16.5068 37.966 16.3447C38.0245 16.1825 38.0494 16.0101 38.0391 15.838Z" fill="white" stroke="#00034A" stroke-linejoin="round"/>
</g>
<defs>
<clipPath id="clip0_2301_15089">
<rect width="40" height="40" fill="white"/>
</clipPath>
</defs>
</svg>
