<svg width="40" height="40" viewBox="0 0 40 40" fill="none" xmlns="http://www.w3.org/2000/svg">
<g clip-path="url(#clip0_2301_13740)">
<path d="M37.8 7.29999C36.25 4.82999 26 4.50999 20 4.50999C14 4.50999 3.75 4.82999 2.2 7.29999C0.65 8.53999 0.5 15.12 0.5 20.57C0.5 26.02 0.65 32.57 2.2 33.85C3.75 36.32 14 36.63 20 36.63C26 36.63 36.25 36.32 37.8 33.85C39.35 32.61 39.5 26.03 39.5 20.57C39.5 15.11 39.35 8.53999 37.8 7.29999Z" fill="#FF52A1" stroke="#231F20" stroke-miterlimit="10"/>
<path d="M11.6701 5C11.4001 3.55 9.59009 3.37 8.53009 3.37C7.47009 3.37 5.66009 3.55 5.39009 5C5.12009 5.71 5.09009 9.47 5.09009 12.58C5.09009 15.69 5.09009 19.46 5.39009 20.17C5.66009 21.58 7.47009 21.76 8.53009 21.76C9.59009 21.76 11.4001 21.58 11.6701 20.17C11.9401 19.46 11.9701 15.7 11.9701 12.58C11.9701 9.46 11.9401 5.67 11.6701 5Z" fill="white" stroke="#231F20" stroke-miterlimit="10"/>
<path d="M23.1401 5C22.8701 3.55 21.0601 3.37 20.0001 3.37C18.9401 3.37 17.1301 3.55 16.8601 5C16.5901 5.71 16.5601 9.47 16.5601 12.58C16.5601 15.69 16.5601 19.46 16.8601 20.17C17.1301 21.58 18.9401 21.76 20.0001 21.76C21.0601 21.76 22.8701 21.58 23.1401 20.17C23.4101 19.46 23.4401 15.7 23.4401 12.58C23.4401 9.46 23.4101 5.67 23.1401 5Z" fill="white" stroke="#231F20" stroke-miterlimit="10"/>
<path d="M8.53003 21.72V30.9" stroke="#231F20" stroke-miterlimit="10" stroke-linecap="round"/>
<path d="M20 21.72V32.04" stroke="#231F20" stroke-miterlimit="10" stroke-linecap="round"/>
<path d="M34.61 4.99999C34.34 3.58999 32.53 3.40999 31.47 3.40999C30.41 3.40999 28.6 3.54999 28.33 4.99999C28.06 5.70999 28.03 9.46999 28.03 12.58C28.03 15.69 28.03 19.46 28.33 20.17C28.6 21.58 30.41 21.76 31.47 21.76C32.53 21.76 34.34 21.58 34.61 20.17C34.88 19.46 34.91 15.7 34.91 12.58C34.91 9.45999 34.88 5.66999 34.61 4.99999Z" fill="white" stroke="#231F20" stroke-miterlimit="10"/>
<path d="M31.47 21.72V30.9" stroke="#231F20" stroke-miterlimit="10" stroke-linecap="round"/>
<path d="M34.49 32.72C35.49 32.2 36.78 31.55 36.9 26.72" stroke="white" stroke-miterlimit="10" stroke-linecap="round"/>
</g>
<defs>
<clipPath id="clip0_2301_13740">
<rect width="40" height="40" fill="white"/>
</clipPath>
</defs>
</svg>
