<svg width="40" height="40" viewBox="0 0 40 40" fill="none" xmlns="http://www.w3.org/2000/svg">
<g clip-path="url(#clip0_2301_15021)">
<path d="M17.574 20.827C16.852 20.047 13.041 19.268 9.874 19.268C6.708 19.268 2.906 20.048 2.174 20.828C0.77 21.616 0.5 25.63 0.5 28.651C0.5 30.693 0.623 33.186 1.142 34.831C1.427 35.733 2.466 37.363 3.324 37.833C4.046 38.622 7.858 39.402 11.024 39.402C14.191 39.402 17.983 38.622 18.704 37.832C20.129 37.053 20.399 33.02 20.399 30.017C20.399 27.949 20.271 25.392 19.726 23.743C19.44 22.88 18.394 21.282 17.574 20.827Z" fill="#00034A" stroke="#00034A" stroke-miterlimit="10" stroke-linecap="round" stroke-linejoin="round"/>
<path d="M36.3421 20.827C35.6301 20.047 31.7801 19.268 28.6521 19.268C25.5241 19.268 21.6841 20.048 20.9521 20.828C19.5281 21.617 19.2581 25.64 19.2581 28.652C19.2581 30.867 19.4041 33.629 20.0481 35.245C20.3491 36.003 21.3721 37.445 22.0831 37.834C22.8051 38.623 26.6161 39.403 29.7831 39.403C32.9491 39.403 36.7601 38.623 37.4731 37.833C38.8971 37.054 39.1671 33.021 39.1671 30.018C39.1671 27.858 39.0271 25.163 38.4181 23.528C38.1201 22.728 37.0931 21.242 36.3421 20.827Z" fill="#00034A" stroke="#00034A" stroke-miterlimit="10" stroke-linecap="round" stroke-linejoin="round"/>
<path d="M26.968 2.069C26.236 1.279 22.425 0.5 19.268 0.5C16.111 0.5 12.3 1.28 11.568 2.069C10.134 2.849 9.86499 6.881 9.86499 9.884C9.86499 12.092 10.011 14.857 10.658 16.476C10.961 17.233 11.988 18.679 12.698 19.066C13.411 19.855 17.222 20.634 20.398 20.634C23.575 20.634 27.367 19.854 28.098 19.065C29.523 18.285 29.792 14.253 29.792 11.25C29.792 9.21 29.663 6.694 29.137 5.046C28.851 4.15 27.817 2.536 26.967 2.069H26.968Z" fill="#00034A" stroke="#00034A" stroke-miterlimit="10" stroke-linecap="round" stroke-linejoin="round"/>
<path d="M26.968 17.7C28.392 16.92 28.662 12.887 28.662 9.884C28.662 6.881 28.382 2.848 26.968 2.069C26.236 1.279 22.425 0.5 19.268 0.5C16.111 0.5 12.3 1.28 11.568 2.069C10.134 2.849 9.86499 6.881 9.86499 9.884C9.86499 12.887 10.135 16.92 11.568 17.699C12.281 18.489 16.092 19.269 19.268 19.269C22.444 19.269 26.236 18.489 26.968 17.699V17.7Z" fill="#9BFF00" stroke="#00034A" stroke-miterlimit="10" stroke-linecap="round" stroke-linejoin="round"/>
<path d="M17.574 36.467C18.999 35.687 19.268 31.655 19.268 28.652C19.268 25.649 18.998 21.617 17.574 20.827C16.852 20.047 13.041 19.268 9.874 19.268C6.708 19.268 2.906 20.048 2.174 20.828C0.77 21.616 0.5 25.63 0.5 28.651C0.5 31.673 0.77 35.687 2.194 36.466C2.916 37.256 6.727 38.036 9.894 38.036C13.06 38.036 16.852 37.257 17.574 36.467Z" fill="#9BFF00" stroke="#00034A" stroke-miterlimit="10" stroke-linecap="round" stroke-linejoin="round"/>
<path d="M36.3421 36.467C37.7671 35.687 38.0361 31.655 38.0361 28.652C38.0361 25.649 37.7661 21.617 36.3421 20.827C35.6301 20.047 31.7801 19.268 28.6521 19.268C25.5241 19.268 21.6841 20.048 20.9521 20.828C19.5281 21.617 19.2581 25.64 19.2581 28.652C19.2581 31.665 19.5281 35.688 20.9521 36.467C21.6741 37.257 25.4861 38.037 28.6521 38.037C31.8191 38.037 35.6301 37.257 36.3421 36.467Z" fill="#9BFF00" stroke="#00034A" stroke-miterlimit="10" stroke-linecap="round" stroke-linejoin="round"/>
<path d="M21.0491 13.667C21.3041 12.726 21.4241 11.754 21.4051 10.779C21.6777 10.7565 21.948 10.7114 22.2131 10.644C22.7131 10.471 23.0311 10.23 23.0411 9.68198C23.0411 9.68198 23.1761 9.07598 21.8191 7.23698C21.3193 6.53459 20.7266 5.90317 20.0571 5.35998C19.8229 5.20566 19.5486 5.12341 19.2681 5.12341C18.9876 5.12341 18.7133 5.20566 18.4791 5.35998C17.8067 5.91795 17.2142 6.56568 16.7181 7.28498C16.1383 8.00189 15.7211 8.83609 15.4951 9.72998C15.4951 10.24 15.8131 10.48 16.3231 10.693C16.5861 10.756 16.8531 10.801 17.1221 10.827C17.1021 11.802 17.2221 12.774 17.4781 13.715C17.6511 14.311 18.5651 14.427 19.2581 14.427C19.9521 14.427 20.8671 14.263 21.0491 13.667Z" fill="white" stroke="#00034A" stroke-miterlimit="10" stroke-linecap="round" stroke-linejoin="round"/>
<path d="M13.6671 26.872C12.7263 26.6165 11.7538 26.4962 10.7791 26.515C10.7564 26.2424 10.7112 25.9722 10.6441 25.707C10.4711 25.207 10.2311 24.889 9.68211 24.879C9.68211 24.879 9.07611 24.745 7.23711 26.102C6.53702 26.6043 5.90595 27.1963 5.36011 27.863C5.20579 28.0972 5.12354 28.3715 5.12354 28.652C5.12354 28.9325 5.20579 29.2068 5.36011 29.441C5.92066 30.1112 6.56802 30.7038 7.28511 31.203C8.00211 31.783 8.83611 32.199 9.73011 32.425C10.2501 32.425 10.4901 32.107 10.6931 31.597C10.7611 31.335 10.8061 31.068 10.8271 30.798C11.8021 30.818 12.7741 30.698 13.7151 30.442C14.3111 30.269 14.4271 29.355 14.4271 28.662C14.4271 27.969 14.2631 27.055 13.6671 26.872Z" fill="white" stroke="#00034A" stroke-miterlimit="10" stroke-linecap="round" stroke-linejoin="round"/>
<path d="M24.87 30.433C25.8103 30.6884 26.7829 30.805 27.757 30.779C27.779 31.055 27.824 31.329 27.892 31.597C28.065 32.097 28.306 32.415 28.854 32.415C28.854 32.415 29.461 32.56 31.299 31.203C32.016 30.7037 32.6634 30.1112 33.224 29.441C33.3781 29.2049 33.4601 28.929 33.4601 28.647C33.4601 28.3651 33.3781 28.0892 33.224 27.853C32.6606 27.1858 32.0136 26.5939 31.299 26.092C30.5789 25.5194 29.7456 25.106 28.854 24.879C28.344 24.879 28.104 25.197 27.892 25.697C27.8297 25.9635 27.7846 26.2337 27.757 26.506C26.7829 26.4801 25.8103 26.5967 24.87 26.852C24.273 27.035 24.157 27.95 24.157 28.642C24.157 29.336 24.273 30.25 24.87 30.432V30.433Z" fill="white" stroke="#00034A" stroke-miterlimit="10" stroke-linecap="round" stroke-linejoin="round"/>
</g>
<defs>
<clipPath id="clip0_2301_15021">
<rect width="40" height="40" fill="white"/>
</clipPath>
</defs>
</svg>
