<svg width="40" height="40" viewBox="0 0 40 40" fill="none" xmlns="http://www.w3.org/2000/svg">
<g clip-path="url(#clip0_2301_13714)">
<path d="M27.7199 15.75C27.7899 14.4 27.7999 12.85 27.7999 11.42V7.88C28.2067 7.84437 28.6088 7.7673 28.9999 7.65C30.6599 7.32 30.9999 5.65 30.9999 4.4C30.9999 3.15 30.6899 1.48 28.9999 1.15C26.0268 0.652965 23.0136 0.435349 19.9999 0.500002C16.9862 0.436109 13.9732 0.65372 10.9999 1.15C9.33992 1.48 8.99992 3.15 8.99992 4.4C8.99992 5.65 9.30992 7.32 10.9999 7.65C11.388 7.76566 11.7866 7.84271 12.1899 7.88C12.1899 9.03 12.1399 10.27 12.1399 11.42C12.1399 12.85 12.1399 14.42 12.2299 15.76C6.74992 21 1.16992 29.3 1.16992 33.36C1.16992 35.47 1.70992 38.27 4.57992 38.82C6.00992 39.36 13.6699 39.5 20.0099 39.5C26.3499 39.5 34.0099 39.36 35.4199 38.82C38.2899 38.27 38.8299 35.47 38.8299 33.36C38.8299 29.3 33.2499 21 27.7199 15.75Z" fill="#48EEFF" stroke="#231F20" stroke-miterlimit="10"/>
<path d="M13.2799 22.17C10.3899 25 7.88989 28.68 7.88989 30.61C7.88989 31.82 8.23989 33.42 10.0799 33.73C11.0099 34.04 15.9299 34.12 19.9999 34.12C24.0699 34.12 28.9999 34.04 29.9199 33.73C31.7599 33.42 32.1099 31.82 32.1099 30.61C32.1099 28.68 29.6199 25.04 26.7299 22.16L13.2799 22.17Z" fill="#FFE236" stroke="#231F20" stroke-miterlimit="10"/>
<path d="M15.78 8.07001C18.5935 8.25999 21.4166 8.25999 24.23 8.07001" stroke="#231F20" stroke-miterlimit="10" stroke-linecap="round"/>
<path d="M21.3499 12.55C22.3086 12.62 23.2711 12.62 24.2299 12.55" stroke="#231F20" stroke-miterlimit="10" stroke-linecap="round"/>
<path d="M21.3499 16.59C22.3089 16.65 23.2708 16.65 24.2299 16.59" stroke="#231F20" stroke-miterlimit="10" stroke-linecap="round"/>
<path d="M21.3499 26.05C21.3499 26.4054 21.491 26.7462 21.7423 26.9975C21.9936 27.2488 22.3345 27.39 22.6899 27.39C23.0452 27.39 23.3861 27.2488 23.6374 26.9975C23.8887 26.7462 24.0299 26.4054 24.0299 26.05C24.0299 25.6946 23.8887 25.3538 23.6374 25.1025C23.3861 24.8512 23.0452 24.71 22.6899 24.71C22.3345 24.71 21.9936 24.8512 21.7423 25.1025C21.491 25.3538 21.3499 25.6946 21.3499 26.05Z" fill="#231F20"/>
<path d="M15.97 28.74C15.97 29.0954 16.1111 29.4362 16.3624 29.6875C16.6137 29.9388 16.9546 30.08 17.31 30.08C17.6654 30.08 18.0062 29.9388 18.2575 29.6875C18.5088 29.4362 18.65 29.0954 18.65 28.74C18.65 28.3846 18.5088 28.0438 18.2575 27.7925C18.0062 27.5412 17.6654 27.4 17.31 27.4C16.9546 27.4 16.6137 27.5412 16.3624 27.7925C16.1111 28.0438 15.97 28.3846 15.97 28.74Z" fill="#231F20"/>
<path d="M25.3799 3.19C27.4599 3.25 27.8899 3.5 28.0999 3.8" stroke="white" stroke-miterlimit="10" stroke-linecap="round"/>
</g>
<defs>
<clipPath id="clip0_2301_13714">
<rect width="40" height="40" fill="white"/>
</clipPath>
</defs>
</svg>
