<svg width="40" height="40" viewBox="0 0 40 40" fill="none" xmlns="http://www.w3.org/2000/svg">
<path d="M17.2348 0.903372C16.6269 0.771072 15.9191 1.64557 15.6544 2.85637C15.4573 3.75927 15.7985 5.74457 16.9426 5.99357C17.5504 6.12687 18.2592 5.25337 18.524 4.04257C18.7445 3.03087 18.4298 1.16417 17.2348 0.903372Z" fill="#00034A"/>
<path d="M7.64456 4.96421C7.11126 3.84461 7.13476 2.72011 7.69756 2.45241C8.63966 2.00441 10.0083 3.98871 10.3466 4.69951C10.8799 5.81911 10.8564 6.94361 10.2936 7.21121C9.35146 7.65931 7.98286 5.67501 7.64456 4.96421Z" fill="#00034A"/>
<path d="M4.20344 10.6112C3.01714 10.2484 1.90934 10.4377 1.72704 11.0327C1.42114 12.0327 3.49954 13.2533 4.21034 13.471C5.39654 13.8337 6.50444 13.6455 6.68774 13.0494C6.99264 12.0494 4.91524 10.8288 4.20344 10.6112Z" fill="#00034A"/>
<path d="M25.7354 5.34852C25.3119 4.89262 24.2325 5.20632 23.3237 6.05042C22.4149 6.89362 22.0218 7.94852 22.4453 8.40342C22.7129 8.69262 22.8443 8.82002 23.1119 9.10832C23.5355 9.56412 24.6159 9.25042 25.5237 8.40632C26.4335 7.56322 26.8266 6.50832 26.4021 6.05342C26.1345 5.76422 26.0031 5.63672 25.7354 5.34852Z" fill="#00034A"/>
<path d="M25.2286 13.4406C25.1796 12.82 26.1403 12.2367 27.3776 12.1386C28.2844 12.067 30.2795 12.6249 30.3707 13.7886C30.4197 14.4092 29.4589 14.9925 28.2227 15.0905C27.3158 15.1621 25.3207 14.6043 25.2286 13.4406Z" fill="#00034A"/>
<path d="M17.2348 0.903372C16.6269 0.771072 15.9191 1.64557 15.6544 2.85637C15.4573 3.75927 15.7985 5.74457 16.9426 5.99357C17.5504 6.12687 18.2592 5.25337 18.524 4.04257C18.7445 3.03087 18.4298 1.16417 17.2348 0.903372Z" stroke="#00034A" stroke-miterlimit="10"/>
<path d="M7.64456 4.96421C7.11126 3.84461 7.13476 2.72011 7.69756 2.45241C8.63966 2.00441 10.0083 3.98871 10.3466 4.69951C10.8799 5.81911 10.8564 6.94361 10.2936 7.21121C9.35146 7.65931 7.98286 5.67501 7.64456 4.96421Z" stroke="#00034A" stroke-miterlimit="10"/>
<path d="M4.20344 10.6112C3.01714 10.2484 1.90934 10.4377 1.72704 11.0327C1.42114 12.0327 3.49954 13.2533 4.21034 13.471C5.39654 13.8337 6.50444 13.6455 6.68774 13.0494C6.99264 12.0494 4.91524 10.8288 4.20344 10.6112Z" stroke="#00034A" stroke-miterlimit="10"/>
<path d="M25.7354 5.34852C25.3119 4.89262 24.2325 5.20632 23.3237 6.05042C22.4149 6.89362 22.0218 7.94852 22.4453 8.40342C22.7129 8.69262 22.8443 8.82002 23.1119 9.10832C23.5355 9.56412 24.6159 9.25042 25.5237 8.40632C26.4335 7.56322 26.8266 6.50832 26.4021 6.05342C26.1345 5.76422 26.0031 5.63672 25.7354 5.34852Z" stroke="#00034A" stroke-miterlimit="10"/>
<path d="M25.2286 13.4406C25.1796 12.82 26.1403 12.2367 27.3776 12.1386C28.2844 12.067 30.2795 12.6249 30.3707 13.7886C30.4197 14.4092 29.4589 14.9925 28.2227 15.0905C27.3158 15.1621 25.3207 14.6043 25.2286 13.4406Z" stroke="#00034A" stroke-miterlimit="10"/>
<path fill-rule="evenodd" clip-rule="evenodd" d="M33.4395 38.1041C32.2709 38.1629 31.0081 38.1011 30.7003 37.3737C30.6669 37.3296 30.638 37.2823 30.614 37.2325C30.5931 37.3091 30.5628 37.3829 30.5238 37.4521C30.2983 38.305 28.7591 38.5011 27.4945 38.5795C26.9947 38.6169 26.4931 38.6235 25.9925 38.5992C24.8121 38.6541 23.521 38.6011 23.2102 37.8639C23.1798 37.8247 23.1532 37.7826 23.1308 37.7384C23.1104 37.8129 23.0811 37.8846 23.0435 37.9521C22.8082 38.805 21.2886 38.9815 20.0141 39.0697C19.5054 39.1113 18.9945 39.1192 18.4847 39.0933C17.3044 39.1521 16.0289 39.0864 15.7201 38.3639C15.0926 37.5698 14.6612 32.06 14.4358 28.8444C14.2103 25.6287 13.9162 20.1091 14.4358 19.2366C14.671 18.3837 16.171 18.2072 17.4651 18.119C17.9703 18.0784 18.4776 18.0709 18.9837 18.0964C20.1828 18.0376 21.4671 18.1072 21.7592 18.8248C21.7896 18.8647 21.8162 18.9074 21.8386 18.9523C21.8592 18.8804 21.8885 18.8112 21.9259 18.7464C22.1514 17.8935 23.6906 17.6974 24.9552 17.619C25.455 17.5816 25.9566 17.575 26.4572 17.5994C27.6376 17.5445 28.9287 17.5974 29.2395 18.3346C29.2728 18.3772 29.3014 18.4232 29.3248 18.4719C29.3462 18.3934 29.3768 18.3177 29.416 18.2464C29.6513 17.3935 31.1709 17.217 32.4454 17.1288C32.9513 17.0935 33.4983 17.0699 33.9954 17.1043C35.1708 17.0454 36.4326 17.1072 36.7394 17.8346C37.3669 18.6287 37.7885 24.1385 38.0139 27.3541C38.2394 30.5698 38.5335 36.0894 38.0139 36.9619C37.7787 37.8148 36.2493 37.9913 34.9846 38.0795C34.4826 38.1148 33.9365 38.1385 33.4395 38.1041Z" fill="#00034A"/>
<path d="M33.4395 38.1041L33.4738 37.6148L33.4444 37.6129L33.415 37.6148L33.4395 38.1041ZM30.7003 37.3737L31.1513 37.1835L31.1258 37.1217L31.0846 37.0698L30.7003 37.3737ZM30.614 37.2325L31.0523 37.0129L30.4954 35.8972L30.1434 37.0933L30.614 37.2325ZM30.5238 37.4521L30.1042 37.1992L30.068 37.259L30.0503 37.3276L30.5238 37.4521ZM25.9925 38.5991L26.0239 38.1109L25.9974 38.109H25.97L25.9925 38.5991ZM23.2102 37.8639L23.6612 37.6737L23.6357 37.6099L23.5925 37.557L23.2102 37.8639ZM23.1308 37.7384L23.5651 37.5109L23.0043 36.4423L22.6612 37.5991L23.1308 37.7384ZM23.0435 37.9521L22.622 37.7011L22.5886 37.758L22.571 37.8217L23.0435 37.9521ZM18.4847 39.0933L18.5181 38.604L18.4887 38.6021L18.4602 38.604L18.4847 39.0933ZM15.7201 38.3639L16.171 38.1717L16.1455 38.1109L16.1044 38.0599L15.7201 38.3639ZM14.4358 19.2366L14.8573 19.4876L14.8906 19.4307L14.9083 19.367L14.4358 19.2366ZM18.9838 18.0964L18.9514 18.5856L18.9798 18.5876L19.0073 18.5856L18.9838 18.0964ZM21.7592 18.8248L21.3053 19.0101L21.3318 19.0738L21.3749 19.1287L21.7592 18.8248ZM21.8386 18.9523L21.4033 19.1768L21.9523 20.2434L22.3072 19.0964L21.8386 18.9523ZM21.9259 18.7464L22.3435 19.0023L22.3817 18.9415L22.3994 18.8719L21.9259 18.7464ZM26.4572 17.5993L26.4258 18.0876L26.4523 18.0895L26.4798 18.0886L26.4572 17.5993ZM29.2395 18.3346L28.7886 18.5248L28.814 18.5876L28.8572 18.6415L29.2395 18.3346ZM29.3248 18.4719L28.8886 18.6944L29.4503 19.7964L29.7954 18.6082L29.3248 18.4709V18.4719ZM29.416 18.2464L29.8376 18.4974L29.8709 18.4405L29.8885 18.3768L29.416 18.2464ZM33.9954 17.1042L33.962 17.5925L33.9914 17.5944L34.0209 17.5935L33.9954 17.1042ZM36.7395 17.8346L36.2885 18.0248L36.314 18.0866L36.3551 18.1385L36.7395 17.8346ZM38.014 36.9619L37.5924 36.7109L37.5591 36.7678L37.5414 36.8315L38.014 36.9619ZM33.415 37.6148C32.8375 37.6442 32.2807 37.6393 31.8425 37.5531C31.3817 37.4619 31.2052 37.3119 31.1523 37.1835L30.2484 37.5639C30.5013 38.1638 31.1121 38.408 31.6523 38.5148C32.214 38.6256 32.8719 38.6227 33.464 38.5933L33.415 37.6148ZM31.0846 37.0698C31.0722 37.0519 31.0613 37.0327 31.0523 37.0129L30.1748 37.4511C30.2131 37.5276 30.2591 37.606 30.316 37.6776L31.0846 37.0698ZM30.1434 37.0933C30.1341 37.1298 30.121 37.1654 30.1042 37.1992L30.9434 37.705C31.0045 37.6002 31.0517 37.4878 31.0836 37.3707L30.1434 37.0933ZM30.0503 37.3276C30.0101 37.4796 29.815 37.6746 29.2621 37.8354C28.7474 37.9844 28.0925 38.0511 27.4641 38.0903L27.5248 39.0687C28.1611 39.0295 28.9082 38.9589 29.5346 38.7766C30.1238 38.606 30.8121 38.2786 30.9973 37.5776L30.0503 37.3276ZM27.4641 38.0903C26.9797 38.1197 26.4768 38.1403 26.0239 38.1109L25.9602 39.0883C26.4788 39.1227 27.0327 39.0991 27.5248 39.0687L27.4641 38.0903ZM25.97 38.109C25.3856 38.1355 24.817 38.1344 24.368 38.0472C23.8955 37.956 23.7161 37.8041 23.6612 37.6737L22.7582 38.054C23.0141 38.6609 23.6357 38.904 24.1817 39.0099C24.7513 39.1197 25.419 39.1168 26.0151 39.0883L25.97 38.109ZM23.5925 37.557C23.5821 37.5424 23.5729 37.527 23.5651 37.5109L22.6965 37.9668C22.7327 38.0354 22.7749 38.106 22.8278 38.1707L23.5925 37.557ZM22.6612 37.5991C22.6517 37.6344 22.6386 37.6686 22.622 37.7011L23.4651 38.2031C23.5249 38.1011 23.568 37.9874 23.6004 37.8786L22.6612 37.5991ZM22.571 37.8217C22.5278 37.9766 22.3337 38.1697 21.7847 38.3266C21.27 38.4727 20.618 38.5364 19.9808 38.5815L20.0475 39.5589C20.6838 39.5148 21.4298 39.4462 22.0523 39.2687C22.6406 39.1021 23.3239 38.7805 23.5161 38.0825L22.571 37.8217ZM19.9808 38.5815C19.4877 38.6158 18.9759 38.6354 18.5181 38.604L18.4514 39.5825C18.9833 39.6101 19.5165 39.6022 20.0475 39.5589L19.9798 38.5805L19.9808 38.5815ZM18.4602 38.604C17.8779 38.6325 17.3142 38.6276 16.87 38.5403C16.4014 38.4482 16.225 38.2972 16.171 38.1717L15.2691 38.556C15.524 39.154 16.1387 39.3962 16.6808 39.5021C17.2465 39.6138 17.9102 39.6129 18.5092 39.5825L18.4602 38.604ZM16.1044 38.0599C16.0857 38.0364 16.0318 37.9384 15.9622 37.7139C15.8831 37.4462 15.818 37.1746 15.7671 36.9001C15.6191 36.0904 15.5014 35.2755 15.4142 34.457C15.2014 32.5894 15.0377 30.4178 14.924 28.81L13.9465 28.8787C14.0593 30.4865 14.224 32.6776 14.4406 34.5678C14.5485 35.5119 14.6691 36.3903 14.8053 37.0874C14.874 37.4354 14.9465 37.7472 15.0259 38.0041C15.1004 38.2452 15.1975 38.4923 15.3357 38.6678L16.1044 38.0599ZM14.925 28.81C14.8122 27.2051 14.6828 25.0307 14.6465 23.1532C14.6279 22.212 14.6328 21.3542 14.674 20.6827C14.6946 20.3474 14.723 20.067 14.7603 19.8513C14.7995 19.618 14.8416 19.514 14.8573 19.4876L14.0142 18.9856C13.9005 19.1778 13.8377 19.4366 13.7946 19.6856C13.7485 19.9503 13.7171 20.2699 13.6956 20.6238C13.6534 21.4725 13.6435 22.3224 13.6661 23.1718C13.7034 25.0738 13.8338 27.2679 13.9465 28.8787L14.925 28.81ZM14.9083 19.367C14.9514 19.2101 15.1436 19.018 15.6877 18.8621C16.1995 18.716 16.8504 18.6523 17.4985 18.6072L17.4318 17.6297C16.7847 17.6739 16.0397 17.7425 15.4191 17.9199C14.8308 18.0876 14.1544 18.4101 13.9632 19.1062L14.9083 19.367ZM17.4985 18.6072C17.9887 18.5738 18.4975 18.5552 18.9514 18.5856L19.0161 17.6072C18.4881 17.5801 17.9588 17.5877 17.4318 17.6297L17.4985 18.6072ZM19.0083 18.5866C19.5984 18.5572 20.17 18.5631 20.6171 18.6513C21.0916 18.7444 21.2582 18.8954 21.3053 19.0101L22.2131 18.6395C21.968 18.0376 21.3465 17.7954 20.8063 17.6886C20.2377 17.5768 19.5681 17.5778 18.9602 17.6072L19.0073 18.5856L19.0083 18.5866ZM21.3749 19.1287C21.3857 19.144 21.3952 19.16 21.4033 19.1768L22.2749 18.7278C22.2378 18.6551 22.1938 18.5861 22.1435 18.5219L21.3749 19.1287ZM22.3063 19.0974C22.3158 19.0673 22.3273 19.0378 22.3406 19.0091L22.3425 19.0042L22.3435 19.0023L21.5082 18.4895C21.4496 18.5894 21.4035 18.6961 21.371 18.8072L22.3063 19.0974ZM22.3994 18.8719C22.4396 18.7199 22.6347 18.5238 23.1876 18.3631C23.7023 18.214 24.3563 18.1474 24.9847 18.1082L24.9249 17.1297C24.2886 17.169 23.5415 17.2395 22.9151 17.4209C22.3259 17.5915 21.6376 17.9199 21.4524 18.6209L22.3994 18.8719ZM24.9847 18.1082C25.4691 18.0788 25.9729 18.0581 26.4258 18.0876L26.4895 17.1101C25.9681 17.0843 25.4455 17.0909 24.9249 17.1297L24.9847 18.1082ZM26.4798 18.0886C27.0642 18.0611 27.6327 18.064 28.0817 18.1513C28.5542 18.2425 28.7337 18.3944 28.7886 18.5248L29.6915 18.1444C29.4356 17.5376 28.814 17.2944 28.268 17.1886C27.6984 17.0788 27.0307 17.0807 26.4346 17.1101L26.4798 18.0886ZM28.8572 18.6415C28.8691 18.6582 28.8797 18.6759 28.8886 18.6944L29.7611 18.2493C29.7223 18.171 29.6757 18.0967 29.6219 18.0278L28.8572 18.6415ZM29.7954 18.6082C29.8055 18.5699 29.8196 18.5327 29.8376 18.4974L28.9944 17.9954C28.9335 18.1021 28.8864 18.2161 28.8542 18.3346L29.7954 18.6082ZM29.8885 18.3768C29.9317 18.2219 30.1258 18.0288 30.6748 17.8719C31.1895 17.7258 31.8415 17.6621 32.4787 17.617L32.4111 16.6395C31.7748 16.6836 31.0297 16.7523 30.4072 16.9297C29.8189 17.0964 29.1356 17.418 28.9435 18.116L29.8885 18.3768ZM32.4797 17.618C32.9727 17.577 33.4679 17.5684 33.962 17.5925L34.0297 16.615C33.4905 16.587 32.9501 16.5952 32.4121 16.6396L32.4797 17.618ZM37.1914 17.6444C36.9385 17.0445 36.3287 16.8013 35.7885 16.6935C35.2257 16.5827 34.5669 16.5856 33.9718 16.615L34.0209 17.5935C34.5993 17.5641 35.1581 17.569 35.5983 17.6552C36.0591 17.7464 36.2346 17.8974 36.2885 18.0248L37.1914 17.6444ZM38.5032 27.3198C38.3904 25.712 38.2287 23.5218 38.0149 21.6317C37.9255 20.7876 37.8045 19.9471 37.6522 19.1121C37.5954 18.8029 37.5225 18.4969 37.4336 18.1954C37.3591 17.9543 37.262 17.7052 37.1238 17.5307L36.3551 18.1385C36.3728 18.162 36.4277 18.2592 36.4973 18.4846C36.562 18.6935 36.6267 18.968 36.6904 19.2984C36.8179 19.9582 36.9355 20.8072 37.0404 21.7415C37.2512 23.6081 37.413 25.7807 37.5248 27.3885L38.5032 27.3198ZM38.4345 37.2119C38.5492 37.0207 38.613 36.7619 38.6551 36.5129C38.7012 36.2482 38.7326 35.9286 38.7541 35.5747C38.7973 34.8649 38.8022 33.9776 38.7836 33.0267C38.7463 31.1247 38.6159 28.9306 38.5032 27.3198L37.5248 27.3885C37.6376 28.9934 37.7669 31.1678 37.8032 33.0463C37.8218 33.9874 37.8169 34.8443 37.7757 35.5149C37.7551 35.8511 37.7267 36.1315 37.6895 36.3482C37.6502 36.5796 37.6081 36.6845 37.5924 36.7109L38.4355 37.2129L38.4345 37.2119ZM35.0189 38.5687C35.6503 38.5245 36.3953 38.456 37.0189 38.2795C37.6071 38.1129 38.2934 37.7913 38.4865 37.0923L37.5414 36.8315C37.4992 36.9854 37.3032 37.1796 36.7512 37.3354C36.2355 37.4825 35.5846 37.5462 34.9503 37.5903L35.0189 38.5687ZM33.4062 38.5933C33.9375 38.6305 34.511 38.603 35.0189 38.5687L34.9503 37.5903C34.4532 37.6256 33.9356 37.6472 33.4738 37.6148L33.4062 38.5933Z" fill="#00034A"/>
<path d="M21.9063 37.9521C22.4259 37.0796 22.1318 31.56 21.9063 28.3443C21.6808 25.1287 21.2494 19.6189 20.622 18.8248C20.2984 18.0307 18.7592 18.0307 17.4651 18.119C16.171 18.2072 14.6711 18.3837 14.4358 19.2366C13.9162 20.1091 14.2103 25.6287 14.4358 28.8443C14.6613 32.06 15.0926 37.5697 15.7201 38.3639C16.0632 39.1678 17.6024 39.158 18.8769 39.0697C20.1514 38.9815 21.671 38.805 21.9063 37.9521Z" fill="#9BFF00" stroke="#00034A" stroke-miterlimit="10"/>
<path d="M16.4846 34.5208C17.1662 34.6539 17.8651 34.6738 18.5532 34.5796C19.2434 34.5812 19.9291 34.4686 20.5826 34.2462C20.759 34.1482 20.7492 33.6874 20.7198 33.2659C20.6904 32.8443 20.6414 32.4325 20.4649 32.3541C19.7971 32.2395 19.1152 32.2329 18.4453 32.3345C17.7551 32.3329 17.0694 32.4456 16.4159 32.6678C16.2395 32.7659 16.2493 33.2266 16.2787 33.6482C16.3081 34.0698 16.3375 34.4424 16.4846 34.5208Z" fill="white" stroke="#00034A" stroke-miterlimit="10"/>
<path d="M20.0433 22.5699C18.5402 22.5187 17.0357 22.6205 15.5532 22.8738" stroke="#00034A" stroke-miterlimit="10" stroke-linecap="round"/>
<path d="M20.1416 24.0699C18.6388 24.0203 17.1349 24.1188 15.6514 24.364" stroke="#00034A" stroke-miterlimit="10" stroke-linecap="round"/>
<path d="M17.6416 19.4523C19.4553 19.4523 19.3083 19.3935 19.4847 19.8934" stroke="white" stroke-miterlimit="10" stroke-linecap="round"/>
<path d="M29.3865 37.4521C29.9061 36.5894 29.6218 31.0698 29.3865 27.8542C29.1512 24.6385 28.7394 19.1288 28.1022 18.3346C27.7591 17.5209 26.2199 17.5405 24.9552 17.619C23.6905 17.6974 22.1513 17.8935 21.9258 18.7464C21.3964 19.6091 21.6905 25.1287 21.9258 28.3443C22.1611 31.56 22.5728 37.0697 23.2101 37.8639C23.5532 38.6776 25.0924 38.658 26.3571 38.5795C27.6218 38.5011 29.161 38.305 29.3865 37.4521Z" fill="#9BFF00" stroke="#00034A" stroke-miterlimit="10"/>
<path d="M24.0042 34.0306C24.6831 34.1586 25.3779 34.1785 26.063 34.0894C26.7586 34.0782 27.4476 33.9523 28.1022 33.7168C28.2689 33.6188 28.2591 33.158 28.2296 32.7365C28.2002 32.3149 28.161 31.8933 27.9747 31.8247C27.297 31.6866 26.6005 31.6667 25.9159 31.7659C25.2228 31.7574 24.5332 31.8668 23.8767 32.0894C23.7101 32.1874 23.7199 32.6482 23.7395 33.0698C23.7591 33.4913 23.8179 33.9521 24.0042 34.0306Z" fill="white" stroke="#00034A" stroke-miterlimit="10"/>
<path d="M27.5239 22.0797C26.021 22.0255 24.5166 22.1241 23.0337 22.3738" stroke="#00034A" stroke-miterlimit="10" stroke-linecap="round"/>
<path d="M27.6217 23.5699C26.1186 23.519 24.6141 23.6208 23.1316 23.8738" stroke="#00034A" stroke-miterlimit="10" stroke-linecap="round"/>
<path d="M36.8765 36.9619C37.3961 36.0894 37.102 30.5698 36.8765 27.3542C36.651 24.1385 36.2295 18.6288 35.602 17.8346C35.2589 17.0209 33.7197 17.0405 32.4452 17.1288C31.1707 17.217 29.6511 17.3935 29.4158 18.2464C28.8962 19.1189 29.1805 24.6385 29.4158 27.8542C29.6511 31.0698 30.0727 36.5796 30.7001 37.3737C31.0432 38.1874 32.5824 38.1678 33.8471 38.0795C35.1118 37.9913 36.6412 37.8148 36.8765 36.9619Z" fill="#9BFF00" stroke="#00034A" stroke-miterlimit="10"/>
<path d="M31.4846 33.5306C32.1629 33.6636 32.8586 33.6835 33.5434 33.5894C34.2369 33.5917 34.926 33.4791 35.5826 33.2561C35.7591 33.158 35.7395 32.6972 35.7199 32.2757C35.7003 31.8541 35.6414 31.4423 35.4552 31.3639C34.7763 31.2358 34.0814 31.216 33.3964 31.3051C32.7029 31.3036 32.014 31.4163 31.3572 31.6384C31.1905 31.7365 31.2003 32.1972 31.2297 32.6188C31.2591 33.0404 31.2983 33.4521 31.4846 33.5306Z" fill="white" stroke="#00034A" stroke-miterlimit="10"/>
<path d="M35.0041 21.5797C33.5009 21.5292 31.9966 21.631 30.5139 21.8836" stroke="#00034A" stroke-miterlimit="10" stroke-linecap="round"/>
<path d="M35.1119 23.0797C33.609 23.0307 32.1051 23.1287 30.6218 23.3738" stroke="#00034A" stroke-miterlimit="10" stroke-linecap="round"/>
<path d="M17.7887 8.78571C13.073 7.33471 9.85736 9.35431 8.58286 13.4817C7.75936 16.1386 8.73966 18.9033 9.81816 21.0699C10.1227 21.6409 10.2555 22.2878 10.2005 22.9326C9.79267 22.9972 9.45556 23.2851 9.32796 23.6777C9.19806 24.1126 9.35976 24.5818 9.72986 24.8444C9.29556 27.0267 10.3613 28.9885 12.5113 29.6522C14.0995 30.1424 15.374 29.6522 16.3348 27.3679C17.1571 27.3453 17.6466 26.441 17.2159 25.7402C17.1648 25.657 17.1025 25.5812 17.0308 25.515C17.3443 24.9497 17.814 24.4868 18.3838 24.1817C20.472 22.9954 22.8445 21.2601 23.6582 18.6033C25.0896 13.9651 22.1367 10.123 17.7887 8.78571Z" fill="#00034A" stroke="#00034A" stroke-miterlimit="10"/>
<path d="M22.7396 17.8444C24.0141 13.717 22.5043 10.2367 17.7887 8.78571C13.073 7.33471 9.85736 9.35431 8.58286 13.4817C7.75936 16.1386 8.73966 18.9033 9.81816 21.0699C10.1227 21.6409 10.2555 22.2878 10.2005 22.9326C9.79267 22.9972 9.45556 23.2851 9.32796 23.6777C9.19806 24.1126 9.35976 24.5818 9.72986 24.8444C9.24946 27.2561 10.0044 28.4032 11.5927 28.8934C13.1809 29.3836 14.4554 28.8934 15.4161 26.6091C16.2385 26.5865 16.728 25.6822 16.2973 24.9814C16.2462 24.8982 16.1839 24.8224 16.1122 24.7562C16.4257 24.1909 16.8954 23.728 17.4651 23.4228C19.5534 22.2366 21.9259 20.5013 22.7396 17.8444Z" fill="white" stroke="#00034A" stroke-miterlimit="10"/>
<path d="M12.063 23.5111C12.8052 23.6493 13.5287 23.8738 14.2199 24.1777" stroke="#00034A" stroke-miterlimit="10" stroke-linecap="round"/>
<path d="M11.5828 25.1777C12.3279 25.3052 13.0534 25.5306 13.7397 25.8444" stroke="#00034A" stroke-miterlimit="10" stroke-linecap="round"/>
<path d="M13.3278 16.266C13.3278 16.266 13.1416 16.6288 13.4847 18.0209C13.5989 18.5358 13.7802 19.0335 14.0239 19.5013C14.1964 19.7797 14.5477 19.8884 14.8474 19.7562C15.3162 19.5091 15.7511 19.2027 16.1415 18.8444C16.5925 18.4594 16.9681 17.994 17.2493 17.4719C17.3513 17.2048 17.2533 16.9028 17.0141 16.7464C16.5395 16.4611 16.0337 16.2337 15.5043 16.07C14.9927 15.9036 14.4625 15.8016 13.9258 15.766C13.6424 15.7647 13.3933 15.9536 13.318 16.2268L13.3278 16.266Z" fill="#9BFF00" stroke="#00034A" stroke-miterlimit="10"/>
<path d="M14.3964 19.7856L14.0239 20.9915" stroke="#00034A" stroke-linecap="round" stroke-linejoin="round"/>
<path d="M17.8572 3.33872C18.1219 2.12702 17.8435 1.03682 17.2347 0.904416C16.6268 0.771116 15.919 1.64562 15.6543 2.85642C15.3896 4.06812 15.668 5.15832 16.2758 5.29062C16.8837 5.42402 17.5925 4.54952 17.8572 3.33872Z" fill="#9BFF00" stroke="#00034A" stroke-miterlimit="10"/>
<path d="M9.62696 6.50727C10.1887 6.23967 10.2133 5.11517 9.67986 3.99557C9.14756 2.87597 8.25926 2.18577 7.69756 2.45237C7.13476 2.72007 7.11126 3.84457 7.64456 4.96417C8.17696 6.08377 9.06516 6.77497 9.62696 6.50727Z" fill="#9BFF00" stroke="#00034A" stroke-miterlimit="10"/>
<path d="M6.02097 12.3455C6.20237 11.7504 5.38867 10.9739 4.20337 10.6112C3.01707 10.2484 1.90927 10.4377 1.72697 11.0327C1.54457 11.6288 2.35827 12.4053 3.54357 12.768C4.72987 13.1308 5.83767 12.9416 6.02097 12.3465V12.3455Z" fill="#9BFF00" stroke="#00034A" stroke-miterlimit="10"/>
<path d="M24.857 7.7024C25.7668 6.8593 26.16 5.8054 25.7354 5.3495C25.3119 4.8926 24.2325 5.2063 23.3237 6.0504C22.4149 6.8936 22.0218 7.9485 22.4453 8.4034C22.8688 8.8602 23.9492 8.5465 24.857 7.7024Z" fill="#9BFF00" stroke="#00034A" stroke-miterlimit="10"/>
<path d="M27.556 14.3866C28.7913 14.2886 29.754 13.7062 29.704 13.0847C29.655 12.4641 28.6129 12.0406 27.3776 12.1386C26.1413 12.2367 25.1796 12.82 25.2286 13.4406C25.2776 14.0611 26.3198 14.4847 27.556 14.3866Z" fill="#9BFF00" stroke="#00034A" stroke-miterlimit="10"/>
</svg>
