<svg width="40" height="40" viewBox="0 0 40 40" fill="none" xmlns="http://www.w3.org/2000/svg">
<g clip-path="url(#clip0_2301_13657)">
<path d="M36.0599 20.59C36.0599 8.53 35.4699 0.5 19.9999 0.5C4.52994 0.5 3.93994 8.53 3.93994 20.59V23.44C3.93994 29.05 4.31994 35.82 4.70994 37.09C5.08994 39.63 7.04994 39.5 8.52994 39.5C10.0099 39.5 11.9699 39.63 12.3499 37.09C12.5204 36.3164 12.6307 35.5307 12.6799 34.74C14.9499 34.89 17.5599 34.91 19.9999 34.91C22.4399 34.91 25.0499 34.91 27.3199 34.74C27.3691 35.5307 27.4795 36.3164 27.6499 37.09C27.9999 39.63 29.9999 39.5 31.4699 39.5C32.9399 39.5 34.9099 39.63 35.2899 37.09C35.6799 35.82 36.0599 29.09 36.0599 23.44V20.59Z" fill="#48EEFF" stroke="#231F20" stroke-miterlimit="10"/>
<path d="M24.7 10.66C25.57 10.51 25.7 9.71001 25.7 9.10001C25.7543 8.76252 25.6824 8.41685 25.4979 8.12907C25.3134 7.84129 25.0294 7.63158 24.7 7.54001C23.1388 7.38055 21.5685 7.32709 20 7.38001C18.4316 7.32709 16.8613 7.38055 15.3 7.54001C14.43 7.70001 14.3 8.54001 14.3 9.10001C14.3 9.66001 14.46 10.51 15.3 10.66C16.8609 10.8247 18.4316 10.8782 20 10.82C21.5685 10.8782 23.1392 10.8247 24.7 10.66Z" fill="white" stroke="#231F20" stroke-miterlimit="10"/>
<path d="M10.1299 9.67999C9.67993 12.34 9.67993 17.29 9.67993 31.47" stroke="#231F20" stroke-miterlimit="10" stroke-linecap="round"/>
<path d="M30.3199 31.47C30.3199 17.29 30.3199 12.34 29.8699 9.67999" stroke="#231F20" stroke-miterlimit="10" stroke-linecap="round"/>
<path d="M9.90991 14.26H30.0999" stroke="#231F20" stroke-miterlimit="10" stroke-linecap="round"/>
<path d="M21.4099 28C21.4099 28 22.1999 27.42 23.2199 24.25C23.6699 22.83 24.1299 21.11 24.2199 20.73C24.4066 19.5433 23.9066 19.0433 22.7199 19.23C22.3399 19.29 20.6099 19.74 19.1899 20.23C17.8408 20.6072 16.5635 21.2053 15.4099 22C14.8299 22.59 15.0699 23.07 15.5099 23.51C16.1099 24.11 18.0699 24.51 18.6499 24.76C18.8599 25.35 19.3099 27.3 19.9099 27.9C20.3399 28.34 20.8099 28.58 21.3899 28.01L21.4099 28Z" fill="white" stroke="#231F20" stroke-miterlimit="10"/>
<path d="M26.3298 3.60001C28.0479 3.92327 29.596 4.84436 30.6998 6.20001" stroke="white" stroke-miterlimit="10" stroke-linecap="round"/>
</g>
<defs>
<clipPath id="clip0_2301_13657">
<rect width="40" height="40" fill="white"/>
</clipPath>
</defs>
</svg>
