<svg width="40" height="40" viewBox="0 0 40 40" fill="none" xmlns="http://www.w3.org/2000/svg">
<g clip-path="url(#clip0_2301_13650)">
<path d="M34.5501 21.86L34.1201 21.25C34.4614 19.7712 34.6292 18.2577 34.6201 16.74C34.6201 8 29.7301 2.09 20.0001 2.09C10.2701 2.09 5.32006 8 5.32006 16.74C5.3111 18.2841 5.47885 19.8241 5.82006 21.33L5.45006 21.86C3.20006 25.11 0.290058 29.1 0.510058 30.15C1.13006 33.03 7.61006 31.85 7.61006 31.85C7.61006 31.85 8.79006 38.33 11.7001 37.85C12.7001 37.71 15.0101 34.25 17.1201 31.17C18.0648 31.2967 19.0169 31.3602 19.9701 31.36C20.9435 31.3616 21.9159 31.2947 22.8801 31.16C24.9901 34.24 27.3301 37.71 28.3001 37.85C31.2101 38.3 32.3901 31.85 32.3901 31.85C32.3901 31.85 38.8701 33.03 39.4901 30.15C39.7101 29.1 36.8001 25.11 34.5501 21.86Z" fill="#FF52A1" stroke="#231F20" stroke-miterlimit="10"/>
<path d="M11.8301 16.74C11.8301 17.809 12.0406 18.8675 12.4497 19.855C12.8588 20.8426 13.4584 21.74 14.2142 22.4959C14.9701 23.2517 15.8674 23.8513 16.855 24.2604C17.8426 24.6695 18.9011 24.88 19.9701 24.88C21.039 24.88 22.0975 24.6695 23.0851 24.2604C24.0727 23.8513 24.9701 23.2517 25.7259 22.4959C26.4818 21.74 27.0814 20.8426 27.4905 19.855C27.8995 18.8675 28.1101 17.809 28.1101 16.74C28.1101 14.5811 27.2525 12.5107 25.7259 10.9842C24.1994 9.45761 22.1289 8.60001 19.9701 8.60001C17.8112 8.60001 15.7408 9.45761 14.2142 10.9842C12.6877 12.5107 11.8301 14.5811 11.8301 16.74Z" fill="white" stroke="#231F20" stroke-miterlimit="10"/>
<path d="M8.26001 24.58C9.13001 26.35 12.17 28.58 13.46 29.11" stroke="#231F20" stroke-miterlimit="10" stroke-linecap="round"/>
<path d="M31.69 24.58C30.81 26.35 27.77 28.58 26.48 29.11" stroke="#231F20" stroke-miterlimit="10" stroke-linecap="round"/>
<path d="M23.8801 5.29001C24.9153 5.37781 25.9185 5.69203 26.8188 6.21044C27.7192 6.72886 28.4945 7.43879 29.0901 8.29001" stroke="white" stroke-miterlimit="10" stroke-linecap="round"/>
</g>
<defs>
<clipPath id="clip0_2301_13650">
<rect width="40" height="40" fill="white"/>
</clipPath>
</defs>
</svg>
