<svg width="40" height="40" viewBox="0 0 40 40" fill="none" xmlns="http://www.w3.org/2000/svg">
<path d="M23.04 31.2315C23.9984 32.6278 26.4121 37.3362 28.3771 37.6206C31.1648 38.0516 32.2954 31.8721 32.2954 31.8721C32.2954 31.8721 38.5034 33.0037 39.0967 30.2436C39.2837 29.3561 37.1337 26.2762 35.145 23.4246C34.8793 23.0447 34.6176 22.6689 34.3647 22.3028L33.9524 21.7183C34.2791 20.3014 34.4405 18.851 34.4316 17.3976C34.4316 13.2098 33.2607 9.70092 30.9227 7.23892C28.6251 4.15902 24.8397 2.35242 19.5744 2.35242C10.254 2.35242 5.51219 8.01432 5.51219 16.3871C5.50339 17.866 5.66379 19.3411 5.99039 20.7835L5.63609 21.2913C5.38329 21.6583 5.12049 22.0342 4.85579 22.413C2.86719 25.2666 0.718186 28.3465 0.904086 29.2341C1.53689 32.1742 5.62729 32.2618 7.96229 31.9617C8.42079 33.6709 10.0366 38.0231 12.4749 37.6216C13.3762 37.4947 15.3904 34.5515 17.3092 31.7442L17.6674 31.2227C19.4501 31.4613 21.2564 31.4636 23.04 31.2315Z" fill="#00034A" stroke="#00034A" stroke-miterlimit="10"/>
<path d="M33.5134 21.2913L33.1011 20.7078C33.4287 19.2908 33.5891 17.8404 33.5803 16.3871C33.5803 8.01332 28.8965 2.35242 19.5742 2.35242C10.2538 2.35242 5.512 8.01432 5.512 16.3871C5.5032 17.866 5.6636 19.3411 5.9902 20.7835L5.6359 21.2913C3.481 24.4046 0.694299 28.2284 0.902899 29.2331C1.4973 31.9922 7.7053 30.8616 7.7053 30.8616C7.7053 30.8616 8.8359 37.0695 11.6235 36.61C12.5819 36.4752 14.7949 33.1611 16.816 30.2102C18.6472 30.4551 20.503 30.4518 22.3333 30.2003C24.3554 33.1513 26.5969 36.4752 27.5258 36.61C30.3134 37.041 31.444 30.8616 31.444 30.8616C31.444 30.8616 37.652 31.9922 38.2454 29.2331C38.4559 28.2274 35.6683 24.4046 33.5124 21.2923L33.5134 21.2913Z" fill="#9BFF00" stroke="#00034A" stroke-miterlimit="10"/>
<path d="M19.5458 24.1842C25.5484 24.2515 29.3729 17.7955 26.4299 12.5635C25.0334 10.0807 22.3942 8.55697 19.5458 8.58887C13.5428 8.58887 9.79098 15.0874 12.7925 20.2861C14.1855 22.6989 16.7598 24.1842 19.5458 24.1842Z" fill="white" stroke="#00034A" stroke-miterlimit="10"/>
<path d="M8.32812 23.8969C9.16163 25.5933 12.0742 27.7294 13.3091 28.2362" stroke="#00034A" stroke-miterlimit="10" stroke-linecap="round"/>
<path d="M30.773 23.8969C29.9307 25.5933 27.0181 27.7294 25.7822 28.2362" stroke="#00034A" stroke-miterlimit="10" stroke-linecap="round"/>
</svg>
