<svg width="40" height="40" viewBox="0 0 40 40" fill="none" xmlns="http://www.w3.org/2000/svg">
<path d="M30.0331 1.96C27.3451 0.7 22.6831 0.5 19.6331 0.5C15.4741 0.5 8.32807 0.87 7.25707 3.79C6.17807 5.252 6.07007 13.04 6.07007 19.486C6.07007 25.932 6.17707 33.721 7.25807 35.181C7.68107 36.334 9.36407 37.517 10.4481 38.025C13.1351 39.287 17.7981 39.487 20.8501 39.487C25.0071 39.487 32.1541 39.117 33.2251 36.196C34.3051 34.736 34.4121 26.946 34.4121 20.501C34.4121 14.056 34.3051 6.267 33.2251 4.807C32.8021 3.653 31.1171 2.469 30.0331 1.96Z" fill="#00034A" stroke="#00034A" stroke-miterlimit="10"/>
<path d="M32.0071 3.79C30.9361 0.87 23.7901 0.5 19.6321 0.5C15.4751 0.5 8.33007 0.87 7.25807 3.79C6.17807 5.252 6.07007 13.04 6.07007 19.486C6.07007 25.932 6.17707 33.721 7.25807 35.181C8.32807 38.101 15.4751 38.471 19.6321 38.471C23.7901 38.471 30.9361 38.101 32.0071 35.181C33.0871 33.721 33.1951 25.931 33.1951 19.486C33.1951 13.041 33.0881 5.252 32.0071 3.792V3.79Z" fill="#9BFF00" stroke="#00034A" stroke-miterlimit="10"/>
<path d="M27.0609 7.21797C26.4479 6.06897 22.1249 5.92297 19.6319 5.92297C17.1399 5.92297 12.8169 6.06897 12.2039 7.21797C11.5609 7.79197 11.4929 10.85 11.4929 13.381C11.4929 15.912 11.5609 18.969 12.2029 19.544C12.8559 20.693 17.1399 20.839 19.6329 20.839C22.1249 20.839 26.4479 20.693 27.0609 19.544C27.7039 18.969 27.7709 15.912 27.7709 13.381C27.7709 10.85 27.7039 7.80197 27.0609 7.21797Z" fill="white" stroke="#00034A" stroke-miterlimit="10"/>
<path d="M15.222 23.9931C15.056 23.7011 14.19 23.5551 13.528 23.5551C12.866 23.5551 12.009 23.7011 11.834 23.9931C11.5867 24.4878 11.4693 25.0374 11.493 25.5901C11.471 26.1401 11.591 26.6871 11.843 27.1771C12.019 27.4791 12.885 27.6251 13.538 27.6251C14.19 27.6251 15.066 27.4791 15.232 27.1771C15.4853 26.688 15.6027 26.1399 15.572 25.5901C15.5982 25.0362 15.4774 24.4852 15.222 23.9931Z" fill="white" stroke="#00034A" stroke-miterlimit="10"/>
<path d="M21.3261 23.9931C21.1611 23.7011 20.2851 23.5551 19.6321 23.5551C18.9801 23.5551 18.1041 23.7011 17.9381 23.9931C17.6862 24.4862 17.5689 25.0371 17.5981 25.5901C17.5671 26.1401 17.6851 26.6881 17.9381 27.1771C18.1041 27.4791 18.9801 27.6251 19.6321 27.6251C20.2851 27.6251 21.1611 27.4791 21.3261 27.1771C21.5798 26.6881 21.6975 26.14 21.6671 25.5901C21.6964 25.0371 21.5781 24.4862 21.3261 23.9931Z" fill="white" stroke="#00034A" stroke-miterlimit="10"/>
<path d="M15.2219 30.7801C15.0559 30.4771 14.1899 30.3311 13.5279 30.3311C12.8659 30.3311 12.0089 30.4771 11.8339 30.7791C11.585 31.2697 11.4675 31.8165 11.4929 32.3661C11.4729 32.9201 11.5929 33.4691 11.8429 33.9631C12.0189 34.2551 12.8849 34.4011 13.5379 34.4011C14.1899 34.4011 15.0659 34.2551 15.2319 33.9631C15.4839 33.4701 15.6019 32.9191 15.5719 32.3661C15.5996 31.8152 15.4787 31.2671 15.2219 30.7791V30.7801Z" fill="white" stroke="#00034A" stroke-miterlimit="10"/>
<path d="M21.3261 30.7801C21.1611 30.4771 20.2851 30.3311 19.6321 30.3311C18.9801 30.3311 18.1041 30.4771 17.9381 30.7791C17.6847 31.2681 17.5673 31.8162 17.5981 32.3661C17.5688 32.919 17.6861 33.4699 17.9381 33.9631C18.1041 34.2551 18.9801 34.4011 19.6321 34.4011C20.2851 34.4011 21.1611 34.2551 21.3261 33.9631C21.5791 33.4701 21.6961 32.9191 21.6671 32.3661C21.6978 31.8162 21.5804 31.2681 21.3271 30.7791L21.3261 30.7801Z" fill="white" stroke="#00034A" stroke-miterlimit="10"/>
<path d="M27.4211 23.9931C27.2461 23.7011 26.3801 23.5551 25.7271 23.5551C25.0751 23.5551 24.1991 23.7011 24.0331 23.9931C23.7812 24.4862 23.6639 25.0371 23.6931 25.5901C23.6621 26.1401 23.7791 26.6881 24.0331 27.1771C24.1991 27.4791 25.0651 27.6251 25.7271 27.6251C26.3891 27.6251 27.2461 27.4791 27.4211 27.1771C27.6701 26.6871 27.7871 26.1391 27.7621 25.5901C27.7861 25.0375 27.6691 24.4879 27.4221 23.9931H27.4211Z" fill="white" stroke="#00034A" stroke-miterlimit="10"/>
<path d="M27.421 30.7801C27.246 30.4771 26.38 30.3311 25.727 30.3311C25.075 30.3311 24.199 30.4771 24.033 30.7791C23.7797 31.2681 23.6623 31.8162 23.693 32.3661C23.6638 32.919 23.7811 33.4699 24.033 33.9631C24.199 34.2551 25.065 34.4011 25.727 34.4011C26.389 34.4011 27.246 34.2551 27.421 33.9631C27.6683 33.4683 27.7856 32.9187 27.762 32.3661C27.7877 31.8166 27.6705 31.2698 27.422 30.7791L27.421 30.7801Z" fill="white" stroke="#00034A" stroke-miterlimit="10"/>
</svg>
