<svg width="40" height="40" viewBox="0 0 40 40" fill="none" xmlns="http://www.w3.org/2000/svg">
<g clip-path="url(#clip0_2301_14895)">
<path d="M13.0956 3.06734C11.4478 3.51264 10.6359 5.36914 11.4277 6.88124C11.8467 7.68174 12.381 8.62604 13.1242 9.74094C13.3815 10.1411 13.6674 10.5413 13.9532 10.9327C14.4353 11.6227 15.5048 12.6242 16.2905 12.9121C16.8104 13.103 17.3762 13.1302 17.912 12.99C19.6164 12.4812 21.4322 12.4812 23.1366 12.99C24.234 13.2782 25.3948 12.8517 26.0446 11.9214C26.3304 11.531 26.6064 11.1308 26.8726 10.7296C27.1407 10.3294 27.8268 9.21454 28.5415 7.87094C28.9014 7.14924 28.9209 6.30474 28.5947 5.56724C28.1472 4.55684 26.8361 3.35914 25.803 3.06734C23.7337 2.54974 21.6064 2.29994 19.4735 2.32404C17.324 2.28894 15.1794 2.53894 13.0956 3.06734Z" fill="#00034A"/>
<path d="M29.7935 37.2309C30.7633 37.8385 32.0104 37.7706 32.9085 37.0613C36.4829 34.315 38.5421 30.1393 39.0951 25.0015C39.2509 23.4046 37.8639 21.9634 36.5114 21.3394C36.1785 21.1857 35.8174 21.1025 35.4508 21.095C34.5932 21.095 33.5443 21.095 32.3811 21.1521C31.9257 21.1521 31.4545 21.2113 30.9813 21.2724L30.799 21.2951C29.6909 21.4381 28.7892 22.2564 28.5396 23.3455C28.1082 25.0344 27.2137 26.5694 25.9569 27.7774C25.1769 28.4891 24.9218 29.6108 25.3172 30.5898C25.5459 31.1241 25.7844 31.6485 26.0417 32.1443C26.6135 33.2915 27.25 34.4052 27.9481 35.4801C28.3553 36.0716 29.1843 36.8494 29.7935 37.2309Z" fill="#00034A"/>
<path d="M8.1383 21.3041C7.6127 21.2387 7.085 21.1914 6.5562 21.1621C5.5367 21.107 4.5149 21.107 3.4954 21.1621C1.9576 21.2007 0.770598 22.5277 0.902898 24.0602C1.4352 28.926 3.3121 32.9153 6.5276 35.6557C7.0284 36.1772 7.5696 36.6612 8.1502 37.1087C9.3797 38.0678 11.1638 37.7874 12.04 36.4976C12.7435 35.4195 13.3802 34.2992 13.9464 33.143C14.2037 32.6372 14.4521 32.1129 14.6808 31.5796C15.0787 30.6019 14.819 29.4797 14.0322 28.7761C12.7785 27.5653 11.8845 26.031 11.4495 24.3432C11.1498 23.0124 9.4583 21.4677 8.1383 21.3041Z" fill="#00034A"/>
<path d="M19.4736 15.6703C16.5147 15.6703 14.116 18.069 14.116 21.0279C14.116 24.1755 17.3838 27.3752 20.5244 27.3752C23.4832 27.3751 25.882 24.9765 25.882 22.0176C25.882 18.8701 22.6142 15.6703 19.4736 15.6703Z" fill="#00034A"/>
<path d="M13.0956 3.06734C11.4478 3.51264 10.6359 5.36914 11.4277 6.88124C11.8467 7.68174 12.381 8.62604 13.1242 9.74094C13.3815 10.1411 13.6674 10.5413 13.9532 10.9327C14.4353 11.6227 15.5048 12.6242 16.2905 12.9121C16.8104 13.103 17.3762 13.1302 17.912 12.99C19.6164 12.4812 21.4322 12.4812 23.1366 12.99C24.234 13.2782 25.3948 12.8517 26.0446 11.9214C26.3304 11.531 26.6064 11.1308 26.8726 10.7296C27.1407 10.3294 27.8268 9.21454 28.5415 7.87094C28.9014 7.14924 28.9209 6.30474 28.5947 5.56724C28.1472 4.55684 26.8361 3.35914 25.803 3.06734C23.7337 2.54974 21.6064 2.29994 19.4735 2.32404C17.324 2.28894 15.1794 2.53894 13.0956 3.06734Z" stroke="#00034A" stroke-miterlimit="10"/>
<path d="M29.7935 37.2309C30.7633 37.8385 32.0104 37.7706 32.9085 37.0613C36.4829 34.315 38.5421 30.1393 39.0951 25.0015C39.2509 23.4046 37.8639 21.9634 36.5114 21.3394C36.1785 21.1857 35.8174 21.1025 35.4508 21.095C34.5932 21.095 33.5443 21.095 32.3811 21.1521C31.9257 21.1521 31.4545 21.2113 30.9813 21.2724L30.799 21.2951C29.6909 21.4381 28.7892 22.2564 28.5396 23.3455C28.1082 25.0344 27.2137 26.5694 25.9569 27.7774C25.1769 28.4891 24.9218 29.6108 25.3172 30.5898C25.5459 31.1241 25.7844 31.6485 26.0417 32.1443C26.6135 33.2915 27.25 34.4052 27.9481 35.4801C28.3553 36.0716 29.1843 36.8494 29.7935 37.2309Z" stroke="#00034A" stroke-miterlimit="10"/>
<path d="M8.1383 21.3041C7.6127 21.2387 7.085 21.1914 6.5562 21.1621C5.5367 21.107 4.5149 21.107 3.4954 21.1621C1.9576 21.2007 0.770598 22.5277 0.902898 24.0602C1.4352 28.926 3.3121 32.9153 6.5276 35.6557C7.0284 36.1772 7.5696 36.6612 8.1502 37.1087C9.3797 38.0678 11.1638 37.7874 12.04 36.4976C12.7435 35.4195 13.3802 34.2992 13.9464 33.143C14.2037 32.6373 14.4521 32.1129 14.6808 31.5796C15.0787 30.6019 14.819 29.4797 14.0322 28.7761C12.7785 27.5653 11.8845 26.031 11.4495 24.3432C11.1498 23.0124 9.4583 21.4677 8.1383 21.3041Z" stroke="#00034A" stroke-miterlimit="10"/>
<path d="M19.4736 15.6703C16.5147 15.6703 14.116 18.069 14.116 21.0279C14.116 24.1755 17.3838 27.3752 20.5244 27.3752C23.4832 27.3751 25.882 24.9765 25.882 22.0176C25.882 18.8701 22.6142 15.6703 19.4736 15.6703Z" stroke="#00034A" stroke-miterlimit="10"/>
<path d="M38.0443 24.0118C38.1932 22.4705 36.9999 21.128 35.4518 21.095C34.5932 21.095 33.5443 21.095 32.3811 21.1522C31.8665 21.1522 31.3333 21.2281 30.799 21.2951C29.6909 21.4382 28.7892 22.2564 28.5396 23.3455C28.1081 25.0344 27.2137 26.5694 25.9569 27.7774C25.177 28.4891 24.9218 29.6108 25.3172 30.5898C25.5459 31.1241 25.7844 31.6485 26.0417 32.1444C26.6135 33.2915 27.25 34.4052 27.9482 35.4802C28.8345 36.7718 30.629 37.0433 31.8577 36.0716C35.432 33.3263 37.4913 29.1506 38.0443 24.0118Z" fill="#9BFF00" stroke="#00034A" stroke-miterlimit="10"/>
<path d="M10.3988 23.3544C10.1538 22.2623 9.24918 21.4418 8.13838 21.3041C7.61278 21.2388 7.08508 21.1914 6.55628 21.1621C5.53678 21.107 4.51498 21.107 3.49548 21.1621C1.95738 21.2001 0.770083 22.5275 0.902983 24.0602C1.46478 29.2079 3.53488 33.3737 7.09938 36.119C8.32838 37.0785 10.1125 36.799 10.9893 35.5098C11.6928 34.4311 12.3295 33.3101 12.8957 32.1532C13.153 31.6486 13.4014 31.1242 13.6301 30.5899C14.0275 29.6125 13.7679 28.4908 12.9815 27.7874C11.7278 26.5766 10.8339 25.0422 10.3988 23.3544Z" fill="#9BFF00" stroke="#00034A" stroke-miterlimit="10"/>
<path d="M13.0956 3.06738C11.4478 3.51268 10.6359 5.36918 11.4277 6.88128C11.8467 7.68178 12.381 8.62608 13.1242 9.74098C13.3815 10.1412 13.6674 10.5414 13.9532 10.9328C14.6032 11.8627 15.764 12.2888 16.8612 12.0004C18.5656 11.4916 20.3814 11.4916 22.0857 12.0004C23.183 12.2888 24.3438 11.8627 24.9937 10.9328C25.2796 10.5414 25.5556 10.1412 25.8218 9.74098C26.0899 9.34078 26.776 8.22488 27.4907 6.88128C28.2479 5.36208 27.4366 3.52868 25.803 3.06738C23.7337 2.54978 21.6064 2.29998 19.4735 2.32418C17.324 2.28898 15.1794 2.53898 13.0956 3.06738Z" fill="#9BFF00" stroke="#00034A" stroke-miterlimit="10"/>
<path d="M19.4737 26.3865C23.598 26.3865 26.1756 21.9219 24.1135 18.3501C23.1564 16.6924 21.3879 15.6713 19.4737 15.6713C15.3494 15.6715 12.7717 20.1363 14.834 23.7079C15.7911 25.3655 17.5597 26.3865 19.4737 26.3865Z" fill="#9BFF00" stroke="#00034A" stroke-miterlimit="10"/>
</g>
<defs>
<clipPath id="clip0_2301_14895">
<rect width="40" height="40" fill="white"/>
</clipPath>
</defs>
</svg>
