<svg width="40" height="40" viewBox="0 0 40 40" fill="none" xmlns="http://www.w3.org/2000/svg">
<path d="M25.1602 4.79735C25.5378 4.67105 25.9319 4.60155 26.3299 4.59105C26.8165 4.59105 27.5163 4.77865 28.3238 5.16855C31.3817 6.64815 34.2225 9.44045 35.8186 12.3909C37.1214 14.7993 38.0395 17.9233 38.0395 21.8488C38.0395 32.2031 32.2848 39.1066 20.7826 39.1066C10.0573 39.1066 1.96045 31.4934 1.96045 20.616C1.96045 9.07726 9.73655 4.59105 12.1074 4.59105C12.7095 4.62265 13.2968 4.78845 13.8249 5.07865C14.4467 4.68185 14.5041 5.18725 14.6708 4.28905C14.7104 4.07185 14.7636 3.85865 14.8287 3.64845C14.9274 3.25755 15.0429 2.96145 15.1791 2.78965C15.5581 1.84215 17.5579 0.893555 19.2182 0.893555C19.8509 0.893555 20.5339 1.02885 21.1577 1.24695C22.1833 1.60625 24.3864 2.91905 24.8217 3.97515C24.9569 4.24065 25.0704 4.51505 25.1602 4.79735Z" fill="#00034A" stroke="#00034A" stroke-miterlimit="10" stroke-linecap="round" stroke-linejoin="round"/>
<path d="M26.3299 4.59105C25.718 4.60665 25.1179 4.76265 24.5759 5.04715H23.8554C23.8267 4.24435 23.6225 3.45775 23.2572 2.74235C22.8782 1.82245 20.8784 0.893555 19.2182 0.893555C17.5589 0.893555 15.5581 1.84115 15.1791 2.78975C14.8131 3.50795 14.6093 4.29776 14.5819 5.10335H13.8703C13.3299 4.79845 12.7261 4.62315 12.1064 4.59105C9.73655 4.59105 1.96045 9.07626 1.96045 20.616C1.96045 30.9703 7.71605 37.8737 19.2182 37.8737C30.7193 37.8737 36.476 30.9703 36.476 20.616C36.476 9.23816 28.7571 4.59116 26.3289 4.59116L26.3299 4.59105Z" fill="#9BFF00" stroke="#00034A" stroke-miterlimit="10" stroke-linecap="round" stroke-linejoin="round"/>
<path d="M24.576 5.04712C24.1856 5.66032 23.9905 6.37762 24.0163 7.10412C23.9977 6.41612 23.944 5.72962 23.8555 5.04712" stroke="#00034A" stroke-linecap="round" stroke-linejoin="round"/>
<path d="M13.8606 5.05591C14.2505 5.66591 14.4459 6.38061 14.4203 7.10411C14.44 6.41911 14.4933 5.73601 14.5821 5.05591" stroke="#00034A" stroke-linecap="round" stroke-linejoin="round"/>
<path d="M19.2184 28.0119C24.9118 28.0119 28.4702 21.8485 25.6235 16.9178C24.3023 14.6295 21.8607 13.2198 19.2184 13.2198C13.5249 13.2198 9.96648 19.3832 12.8132 24.3138C14.1344 26.6022 16.576 28.0119 19.2184 28.0119Z" fill="white" stroke="#00034A" stroke-miterlimit="10" stroke-linecap="round" stroke-linejoin="round"/>
<path d="M23.2197 21.2803C23.9689 20.3327 24.111 15.5909 24.111 12.0345C24.111 8.47915 23.959 3.67215 23.2197 2.74235C22.8407 1.82235 20.8399 0.893555 19.2182 0.893555C17.5964 0.893555 15.5581 1.84115 15.1791 2.78975C14.429 3.73725 14.2878 8.47915 14.2878 12.0355C14.2878 15.5909 14.3914 20.3318 15.1406 21.2803C15.5197 22.2279 17.5204 23.1291 19.1807 23.1291C20.8389 23.1291 22.8407 22.1618 23.2197 21.2803Z" fill="white" stroke="#00034A" stroke-miterlimit="10" stroke-linecap="round" stroke-linejoin="round"/>
</svg>
