<svg width="40" height="40" viewBox="0 0 40 40" fill="none" xmlns="http://www.w3.org/2000/svg">
<path d="M23.1729 10.527C15.4959 10.527 9.27295 16.75 9.27295 24.427C9.27295 32.289 16.4979 39.228 24.3159 39.228C31.9919 39.228 38.215 33.005 38.215 25.328C38.215 17.467 30.99 10.527 23.1729 10.527Z" fill="#00034A" stroke="#00034A" stroke-miterlimit="10"/>
<path d="M4.89005 34.066C4.33405 33.635 3.52005 33.281 3.19505 33.434C2.6914 33.6966 2.26813 34.0905 1.97005 34.574C1.61776 35.021 1.38697 35.5515 1.30005 36.114C1.30005 36.958 3.80205 39.128 4.73605 38.675C5.24149 38.4112 5.66771 38.0177 5.97105 37.535C6.32305 37.089 6.55105 36.558 6.63105 35.995C6.63105 35.315 5.40105 34.463 4.88905 34.065L4.89005 34.066Z" fill="#00034A" stroke="#00034A" stroke-miterlimit="10"/>
<path d="M19.133 0.839966C18.9367 0.844256 18.7476 0.914742 18.5964 1.03999C18.4452 1.16524 18.3408 1.3379 18.3 1.52997C18.1688 2.27502 18.1305 3.03348 18.186 3.78797C18.224 4.54797 18.356 5.30097 18.578 6.02797C18.6449 6.21072 18.7704 6.36616 18.935 6.46997C19.193 6.63397 19.415 6.71697 19.673 6.87997C19.8375 6.9845 20.032 7.0313 20.226 7.01297H20.236C20.236 7.01297 20.81 7.07997 22.476 5.94097C23.0931 5.52838 23.6555 5.03951 24.15 4.48597C24.2806 4.30601 24.3444 4.0862 24.3305 3.86431C24.3167 3.64241 24.226 3.43227 24.074 3.26997C22.721 2.11497 20.914 1.09197 19.134 0.839966H19.133Z" fill="#00034A" stroke="#00034A" stroke-miterlimit="10"/>
<path d="M30.9649 4.62097C29.9279 4.62097 29.0879 5.46097 29.0879 6.49697C29.0879 7.71197 30.5189 8.74297 31.6829 8.74297C32.7189 8.74297 33.5589 7.90297 33.5589 6.86697C33.5589 5.65197 32.1289 4.62097 30.9649 4.62097Z" fill="#00034A" stroke="#00034A" stroke-miterlimit="10" stroke-linecap="round"/>
<path d="M23.1729 38.325C30.8489 38.325 37.0719 32.103 37.0719 24.426C37.0719 16.75 30.8489 10.527 23.1719 10.527C15.4959 10.527 9.27393 16.75 9.27393 24.427C9.27393 32.103 15.4959 38.325 23.1729 38.325Z" fill="#9BFF00" stroke="#00034A" stroke-miterlimit="10"/>
<path d="M22.3501 36.3251C20.1381 34.5451 18.7121 30.4381 18.1571 24.9341C17.6021 19.4301 18.1571 15.1321 19.9851 12.9301" stroke="#00034A" stroke-miterlimit="10" stroke-linecap="round"/>
<path d="M23.9861 12.528C26.1881 14.318 27.6141 18.415 28.1691 23.919C28.7251 29.423 28.1691 33.731 26.3511 35.923" stroke="#00034A" stroke-miterlimit="10" stroke-linecap="round"/>
<path d="M11.877 21.258C15.4295 20.4115 19.038 19.82 22.675 19.488C26.2881 19.0853 29.9253 18.9409 33.559 19.056" stroke="#00034A" stroke-miterlimit="10" stroke-linecap="round"/>
<path d="M34.516 27.595C30.9488 28.4475 27.3242 29.0391 23.671 29.365C20.042 29.7694 16.3887 29.9138 12.739 29.797" stroke="#00034A" stroke-miterlimit="10" stroke-linecap="round"/>
<path d="M7.00488 6.62202C7.00488 5.83247 7.31853 5.07526 7.87683 4.51696C8.43512 3.95867 9.19233 3.64502 9.98188 3.64502C11.8219 3.64502 14.0419 5.23902 14.0419 7.16302C14.0419 7.95257 13.7282 8.70978 13.1699 9.26808C12.6116 9.82637 11.8544 10.14 11.0649 10.14C9.22488 10.14 7.00488 8.54502 7.00488 6.62202Z" fill="#00034A"/>
<path d="M12.3081 25.644C13.0701 25.84 13.6851 26.233 14.4061 26.509C15.3531 26.844 15.2481 28.328 15.1231 29.151C14.9991 29.974 14.6551 31.381 13.6401 31.439C11.8715 31.4047 10.1094 31.2122 8.37509 30.864C6.13109 30.611 4.18609 29.8881 2.09509 29.2701C1.15609 28.906 1.24209 27.47 1.37609 26.638C1.51009 25.805 1.85509 24.408 2.86009 24.34C3.61009 24.308 4.36009 24.356 5.10009 24.484C5.19609 23.144 5.43509 21.449 5.65509 20.024C5.78309 19.19 5.93309 18.258 6.09909 17.39C5.6425 17.2503 5.20689 17.0495 4.80409 16.793L4.79309 16.775C4.41756 16.6416 4.05828 16.4661 3.72209 16.252C3.32178 15.6243 3.18087 14.8657 3.32909 14.136C3.36342 13.7658 3.4708 13.406 3.64501 13.0775C3.81923 12.7489 4.05683 12.4582 4.34409 12.222C5.73609 11.282 10.4621 12.544 11.7031 13.446C12.5391 13.741 13.2571 14.186 13.5151 14.907C13.7831 15.683 13.4581 19.014 13.0651 21.541C12.8631 22.853 12.5951 24.392 12.3081 25.644Z" fill="#00034A"/>
<path d="M7.00488 6.62202C7.00488 5.83247 7.31853 5.07526 7.87683 4.51696C8.43512 3.95867 9.19233 3.64502 9.98188 3.64502C11.8219 3.64502 14.0419 5.23902 14.0419 7.16302C14.0419 7.95257 13.7282 8.70978 13.1699 9.26808C12.6116 9.82637 11.8544 10.14 11.0649 10.14C9.22488 10.14 7.00488 8.54502 7.00488 6.62202Z" stroke="#00034A" stroke-miterlimit="10"/>
<path d="M12.3081 25.644C13.0701 25.84 13.6851 26.233 14.4061 26.509C15.3531 26.844 15.2481 28.328 15.1231 29.151C14.9991 29.974 14.6551 31.381 13.6401 31.439C11.8715 31.4047 10.1094 31.2122 8.37509 30.864C6.13109 30.611 4.18609 29.8881 2.09509 29.2701C1.15609 28.9061 1.24209 27.47 1.37609 26.638C1.51009 25.805 1.85509 24.408 2.86009 24.34C3.61009 24.308 4.36009 24.356 5.10009 24.484C5.19609 23.144 5.43509 21.449 5.65509 20.024C5.78309 19.19 5.93309 18.258 6.09909 17.39C5.6425 17.2503 5.20689 17.0495 4.80409 16.793L4.79309 16.775C4.41756 16.6416 4.05828 16.4661 3.72209 16.252C3.32178 15.6243 3.18087 14.8657 3.32909 14.136C3.36342 13.7658 3.4708 13.406 3.64501 13.0775C3.81923 12.7489 4.05683 12.4582 4.34409 12.222C5.73609 11.282 10.4621 12.544 11.7031 13.446C12.5391 13.741 13.2571 14.186 13.5151 14.907C13.7831 15.683 13.4581 19.014 13.0651 21.541C12.8631 22.853 12.5951 24.392 12.3081 25.644Z" stroke="#00034A" stroke-miterlimit="10"/>
<path d="M13.3229 25.968C12.623 25.6998 11.8934 25.5165 11.1499 25.422C11.4659 24.12 11.7619 22.426 11.9829 21C12.3749 18.472 12.6999 15.141 12.4329 14.366C11.8959 12.873 9.38788 12.556 7.93288 12.326C6.47788 12.097 4.75488 11.944 4.34288 12.222C4.05581 12.4582 3.81839 12.749 3.64435 13.0775C3.4703 13.406 3.36308 13.7658 3.32888 14.136C3.18066 14.8656 3.32157 15.6242 3.72188 16.252C4.45618 16.7191 5.29416 16.9983 6.16188 17.065C5.97188 18.022 5.79888 19.085 5.65488 20.023C5.43488 21.449 5.19488 23.143 5.09988 24.483C4.35988 24.356 3.60988 24.308 2.85988 24.34C1.85488 24.407 1.50988 25.805 1.37588 26.638C1.24188 27.47 1.15588 28.906 2.09388 29.27C3.79288 29.772 5.53188 30.124 7.29188 30.323C9.02588 30.671 10.7879 30.863 12.5569 30.897C13.5719 30.84 13.9169 29.433 14.0409 28.61C14.1649 27.786 14.2709 26.303 13.3229 25.968Z" fill="white" stroke="#00034A" stroke-miterlimit="10"/>
<path d="M9.98188 9.59902C10.3728 9.59902 10.7599 9.52202 11.1211 9.37241C11.4823 9.2228 11.8105 9.00352 12.0869 8.72708C12.3634 8.45064 12.5827 8.12245 12.7323 7.76127C12.8819 7.40008 12.9589 7.01296 12.9589 6.62202C12.9589 6.23107 12.8819 5.84396 12.7323 5.48277C12.5827 5.12158 12.3634 4.7934 12.0869 4.51696C11.8105 4.24052 11.4823 4.02124 11.1211 3.87163C10.7599 3.72202 10.3728 3.64502 9.98188 3.64502C9.19233 3.64502 8.43512 3.95867 7.87683 4.51696C7.31853 5.07526 7.00488 5.83247 7.00488 6.62202C7.00488 7.41157 7.31853 8.16878 7.87683 8.72708C8.43512 9.28537 9.19233 9.59902 9.98188 9.59902Z" fill="white" stroke="#00034A" stroke-miterlimit="10"/>
<path d="M6.05705 35.454C6.05705 35.1 5.44505 34.497 4.88905 34.066C4.33405 33.635 3.52105 33.281 3.19505 33.434C2.6914 33.6966 2.26813 34.0905 1.97005 34.574C1.61776 35.021 1.38697 35.5515 1.30005 36.114C1.30005 36.469 1.91205 37.072 2.46805 37.502C3.02305 37.933 3.84605 38.287 4.16205 38.134C4.66736 37.8704 5.09358 37.4774 5.39705 36.995C5.74905 36.548 5.97705 36.017 6.05705 35.454Z" fill="#9BFF00" stroke="#00034A" stroke-miterlimit="10"/>
<path d="M30.9649 8.37397C31.4626 8.37397 31.9399 8.17627 32.2918 7.82436C32.6437 7.47245 32.8414 6.99515 32.8414 6.49747C32.8414 5.99979 32.6437 5.5225 32.2918 5.17059C31.9399 4.81867 31.4626 4.62097 30.9649 4.62097C30.4672 4.62097 29.9899 4.81867 29.638 5.17059C29.2861 5.5225 29.0884 5.99979 29.0884 6.49747C29.0884 6.99515 29.2861 7.47245 29.638 7.82436C29.9899 8.17627 30.4672 8.37397 30.9649 8.37397Z" fill="#9BFF00" stroke="#00034A" stroke-miterlimit="10" stroke-linecap="round"/>
<path d="M19.497 6.60297C19.497 6.60297 20.071 6.66997 21.737 5.53097C22.3544 5.11846 22.9172 4.62958 23.412 4.07597C23.5426 3.89601 23.6064 3.6762 23.5925 3.45431C23.5787 3.23241 23.488 3.02227 23.336 2.85997C22.7705 2.37739 22.1502 1.96289 21.488 1.62497C20.757 1.22292 19.9591 0.956938 19.133 0.839966C18.9367 0.844256 18.7476 0.914742 18.5964 1.03999C18.4452 1.16524 18.3408 1.3379 18.3 1.52997C18.1688 2.27502 18.1305 3.03348 18.186 3.78797C18.224 4.54797 18.356 5.30097 18.578 6.02797C18.6447 6.21101 18.7702 6.36677 18.9349 6.47083C19.0995 6.57489 19.2941 6.62136 19.488 6.60297H19.497Z" fill="#9BFF00" stroke="#00034A" stroke-miterlimit="10"/>
</svg>
