<svg width="40" height="40" viewBox="0 0 40 40" fill="none" xmlns="http://www.w3.org/2000/svg">
<path d="M9.89551 24.939C9.89551 35.8494 21.7062 42.6683 31.1548 37.2131C35.54 34.6814 38.2413 30.0025 38.2413 24.939C38.2413 14.0287 26.4305 7.20979 16.9819 12.6649C12.5968 15.1967 9.89551 19.8755 9.89551 24.939Z" fill="#FFE236" stroke="#231F20" stroke-miterlimit="10"/>
<path d="M23.229 37.0719C20.9742 35.2564 19.5198 31.0689 18.9537 25.4564C18.3876 19.8439 18.9537 15.4611 20.818 13.2161" stroke="#231F20" stroke-miterlimit="10" stroke-linecap="round"/>
<path d="M24.8982 12.8062C27.1432 14.6315 28.5976 18.8092 29.1637 24.4217C29.7298 30.0342 29.1637 34.4267 27.3091 36.662" stroke="#231F20" stroke-miterlimit="10" stroke-linecap="round"/>
<path d="M12.5505 21.7082C16.1729 20.8447 19.8524 20.2412 23.5608 19.9024C27.2451 19.4922 30.9539 19.3454 34.659 19.4631" stroke="#231F20" stroke-miterlimit="10" stroke-linecap="round"/>
<path d="M35.6351 28.1699C31.9975 29.0397 28.3013 29.6432 24.576 29.9757C20.8755 30.3877 17.1503 30.5345 13.429 30.4149" stroke="#231F20" stroke-miterlimit="10" stroke-linecap="round"/>
<path d="M33.3803 16.4665C32.3283 15.0138 30.8964 13.8791 29.2417 13.1868" stroke="white" stroke-miterlimit="10" stroke-linecap="round"/>
<path d="M14.0243 26.5106C13.3106 26.2373 12.5667 26.0505 11.8085 25.9542C12.1306 24.6267 12.4332 22.899 12.6577 21.4446C13.0579 18.8677 13.3898 15.4709 13.1165 14.6803C12.5699 13.1576 10.0125 12.8355 8.5288 12.6012C7.0451 12.3669 5.2882 12.2108 4.8685 12.4938C4.2769 12.9804 3.9043 13.6833 3.8338 14.446C3.6826 15.1898 3.8261 15.9632 4.234 16.6032C4.983 17.0799 5.8379 17.3648 6.7231 17.4329C6.5278 18.409 6.3521 19.4924 6.2057 20.449C5.9812 21.9034 5.7372 23.6311 5.6396 24.9976C4.8857 24.867 4.1199 24.8179 3.3555 24.8512C2.3306 24.9195 1.9792 26.3446 1.8426 27.1938C1.706 28.043 1.6181 29.5072 2.5747 29.8781C4.3068 30.3896 6.0802 30.7489 7.8749 30.9518C9.6433 31.3067 11.44 31.5027 13.2434 31.5375C14.278 31.4789 14.6294 30.044 14.7563 29.2046C14.8832 28.3652 14.9906 26.8522 14.0243 26.5106Z" fill="#FF52A1" stroke="#231F20" stroke-miterlimit="10"/>
<path d="M7.58204 6.78369C7.57784 9.12049 10.1049 10.5856 12.1307 9.42089C13.0744 8.87839 13.6553 7.87209 13.6533 6.78369C13.6576 4.44679 11.1305 2.98169 9.10464 4.14649C8.16104 4.68899 7.58014 5.69519 7.58204 6.78369Z" fill="#FF52A1" stroke="#231F20" stroke-miterlimit="10"/>
<path d="M9.37817 14.856C10.4519 14.9633 10.9692 15.0902 11.1839 15.3245C11.3986 15.5588 11.1839 16.0566 11.1839 16.0566" stroke="white" stroke-miterlimit="10" stroke-linecap="round"/>
<path d="M11.0081 5.5538C11.3356 5.7038 11.6011 5.9625 11.7597 6.2859" stroke="white" stroke-miterlimit="10" stroke-linecap="round"/>
<path d="M6.6156 36.1837C6.6156 35.8225 5.9909 35.2076 5.4248 34.7683C4.8587 34.329 4.0289 33.9679 3.6971 34.1241C3.1835 34.3916 2.7518 34.7929 2.4477 35.2857C2.0882 35.7418 1.8528 36.2832 1.7644 36.8572C1.7644 37.2183 2.3891 37.8333 2.9552 38.2725C3.5213 38.7117 4.3608 39.0729 4.6829 38.9167C5.1981 38.6479 5.6327 38.2471 5.9421 37.7552C6.3012 37.2999 6.5335 36.7577 6.6156 36.1837Z" fill="#48EEFF" stroke="#231F20" stroke-miterlimit="10"/>
<path d="M30.1006 6.65681C30.0972 8.12951 31.6894 9.05361 32.9665 8.32021C33.5619 7.97821 33.9284 7.34341 33.9269 6.65681C33.9302 5.18401 32.338 4.25991 31.0609 4.99341C30.4655 5.33531 30.099 5.97011 30.1006 6.65681Z" fill="#48EEFF" stroke="#231F20" stroke-miterlimit="10" stroke-linecap="round"/>
<path d="M20.3202 6.7641C20.3202 6.7641 20.9058 6.8325 22.6042 5.6709C23.2338 5.2503 23.8078 4.7518 24.3124 4.1872C24.5866 3.8086 24.5538 3.2888 24.2343 2.9476C23.6578 2.4556 23.0255 2.033 22.3505 1.6884C21.6051 1.2785 20.7915 1.0073 19.9493 0.888C19.5375 0.8971 19.186 1.188 19.1001 1.5908C18.9659 2.3509 18.9266 3.1247 18.9829 3.8944C19.0222 4.6693 19.1566 5.4364 19.3831 6.1785C19.5233 6.5617 19.9042 6.8023 20.3104 6.7641H20.3202Z" fill="#48EEFF" stroke="#231F20" stroke-miterlimit="10"/>
</svg>
