<svg width="40" height="40" viewBox="0 0 40 40" fill="none" xmlns="http://www.w3.org/2000/svg">
<path d="M32.6048 2.55926C29.8189 1.10996 24.3765 0.890259 20.8845 0.890259C17.4024 0.890259 11.9933 1.11876 9.20742 2.55926C8.70272 2.32486 8.15162 2.20756 7.59522 2.21606C6.31752 2.21606 4.60932 2.71226 4.27592 5.34516C3.94252 6.66216 3.61792 13.6736 3.61792 19.4925C3.61792 25.3115 3.94152 32.3229 4.29452 33.6398C4.55342 35.6795 6.31952 37.7839 8.47002 37.7839C9.02632 37.7925 9.57752 37.6752 10.0821 37.4407C12.867 38.8812 18.2761 39.1097 21.7582 39.1097C26.2416 39.1097 33.9404 38.7469 35.1142 35.8854C36.2684 34.4547 36.3821 26.8236 36.3821 20.5084C36.3821 14.1933 36.239 6.56116 35.0848 5.13046C34.6827 4.14006 33.5256 3.03876 32.6048 2.55926Z" fill="#00034A" stroke="#00034A" stroke-miterlimit="10"/>
<path d="M34.2297 4.11456C33.0657 1.25306 25.3679 0.890259 20.8835 0.890259C17.4024 0.890259 11.9933 1.11876 9.20742 2.55926C8.70272 2.32486 8.15162 2.20756 7.59522 2.21606C6.31752 2.21606 4.60932 2.71226 4.27592 5.34516C3.94252 6.66216 3.61792 13.6736 3.61792 19.4925C3.61792 25.3115 3.94152 32.3229 4.29452 33.6398C4.62792 36.2728 6.33612 36.768 7.61492 36.768C8.17122 36.7766 8.72242 36.6592 9.22702 36.4248C12.0119 37.8663 17.421 38.0948 20.9032 38.0948C25.3865 38.0948 33.0853 37.7319 34.2591 34.8705C35.4133 33.4388 35.527 25.8077 35.527 19.4925C35.527 13.1774 35.3839 5.54526 34.2297 4.11456Z" fill="#9BFF00" stroke="#00034A" stroke-miterlimit="10"/>
<path d="M21.5524 28.126C28.1983 28.1331 32.3598 20.9432 29.043 15.184C27.5004 12.5055 24.6434 10.856 21.5524 10.8593C14.9065 10.8665 10.7605 18.0654 14.0897 23.8173C15.6314 26.4811 18.4747 28.1226 21.5524 28.126Z" fill="white" stroke="#00034A" stroke-miterlimit="10"/>
<path d="M19.7009 25.6645C18.8811 24.6153 18.4702 22.3922 18.4702 19.4925C18.4702 16.5929 18.8811 14.3698 19.7009 13.3206" stroke="#00034A" stroke-miterlimit="10" stroke-linecap="round"/>
<path d="M23.3743 13.3206C24.1941 14.3698 24.605 16.5919 24.605 19.4925C24.605 22.3922 24.1941 24.6153 23.3743 25.6645" stroke="#00034A" stroke-miterlimit="10" stroke-linecap="round"/>
<path d="M15.8186 17.241C17.7154 16.9847 19.6284 16.8667 21.5424 16.888C23.4564 16.8659 25.3695 16.9838 27.2662 17.241" stroke="#00034A" stroke-miterlimit="10" stroke-linecap="round"/>
<path d="M27.2753 21.744C25.3785 22.0012 23.4654 22.1192 21.5514 22.097C19.6378 22.1184 17.7251 22.0004 15.8286 21.744" stroke="#00034A" stroke-miterlimit="10" stroke-linecap="round"/>
<path d="M8.93071 8.8656C8.67381 12.4047 8.67381 26.5804 8.93071 30.1194V8.8656Z" fill="white"/>
<path d="M8.93071 8.8656C8.67381 12.4047 8.67381 26.5804 8.93071 30.1194" stroke="#00034A" stroke-miterlimit="10" stroke-linecap="round"/>
</svg>
