<svg width="40" height="40" viewBox="0 0 40 40" fill="none" xmlns="http://www.w3.org/2000/svg">
<g clip-path="url(#clip0_2301_13537)">
<path d="M39.5001 11.71C39.5001 11.06 38.8401 10.52 37.0301 10.34C36.8501 8.53 36.3101 7.87 35.6601 7.87C35.0101 7.87 34.4701 8.53 34.2901 10.34C32.4801 10.52 31.8201 11.06 31.8201 11.71C31.8201 12.36 32.4801 12.9 34.2901 13.08C34.4701 14.88 35.0101 15.55 35.6601 15.55C36.3101 15.55 36.8501 14.88 37.0301 13.08C38.8401 12.9 39.5001 12.36 39.5001 11.71Z" fill="#FFE236" stroke="#231F20" stroke-miterlimit="10"/>
<path d="M12.75 32.61C12.75 32.08 12.2 31.61 10.75 31.49C10.61 30 10.16 29.49 9.63001 29.49C9.10001 29.49 8.63001 30.03 8.51001 31.49C7.03001 31.63 6.51001 32.08 6.51001 32.61C6.51001 33.14 7.06001 33.61 8.51001 33.73C8.65001 35.21 9.10001 35.73 9.63001 35.73C10.16 35.73 10.63 35.18 10.75 33.73C12.2 33.59 12.75 33.14 12.75 32.61Z" fill="#FFE236" stroke="#231F20" stroke-miterlimit="10"/>
<path d="M22.24 4.87C21.73 4.38 20.2901 4.27 18.5301 4.36C18.2001 3 17.64 1.64 16.71 1.47C16.09 1.15 13.1 1.26 10.71 1.69C8.32005 2.12 5.41005 3 4.94005 3.55C4.12005 4.04 4.07005 5.55 4.22005 6.89C2.54005 7.41 1.22005 8.01 0.920049 8.65C0.110049 9.47 0.630049 12.98 1.15005 15.88C1.67005 18.78 2.37005 22.26 3.42005 22.75C4.58005 23.9 10.75 22.98 14.34 22.35C17.93 21.72 24 20.46 24.73 19C25.54 18.18 25.0201 14.67 24.5 11.77C23.98 8.87 23.28 5.37 22.24 4.87Z" fill="#48EEFF" stroke="#231F20" stroke-miterlimit="10"/>
<path d="M8.08008 6.00001C8.08008 6.00001 9.21008 5.74001 11.4901 5.34001C13.7701 4.94001 14.9301 4.79001 14.9301 4.79001" stroke="#231F20" stroke-miterlimit="10" stroke-linecap="round"/>
<path d="M18.25 7.80001C18.25 7.80001 18.69 7.70001 19.59 7.54001C20.49 7.38001 20.94 7.32001 20.94 7.32001" stroke="#231F20" stroke-miterlimit="10" stroke-linecap="round"/>
<path d="M8.19006 13.36C8.19006 14.5694 8.67049 15.7292 9.52566 16.5844C10.3808 17.4396 11.5407 17.92 12.7501 17.92C13.9595 17.92 15.1193 17.4396 15.9745 16.5844C16.8296 15.7292 17.3101 14.5694 17.3101 13.36C17.3101 12.1506 16.8296 10.9907 15.9745 10.1356C15.1193 9.28042 13.9595 8.79999 12.7501 8.79999C11.5407 8.79999 10.3808 9.28042 9.52566 10.1356C8.67049 10.9907 8.19006 12.1506 8.19006 13.36Z" fill="white" stroke="#231F20" stroke-miterlimit="10"/>
<path d="M13.3301 3.00001C15.9001 2.89001 16.0401 2.91001 16.2701 3.41001" stroke="white" stroke-miterlimit="10" stroke-linecap="round"/>
<path d="M38.6201 19.44C37.9301 17.66 32.1801 16.86 28.8201 16.51C25.4601 16.16 19.6701 15.79 18.6301 17.38C17.6801 18.14 17.1301 22.62 16.7501 26.38C16.3701 30.14 15.9901 34.59 16.7501 35.53C17.4501 37.3 23.1901 38.11 26.5501 38.45C29.9101 38.79 35.7001 39.17 36.7401 37.58C37.7401 36.82 38.2501 32.34 38.6301 28.58C39.0101 24.82 39.4001 20.37 38.6201 19.44Z" fill="#FF52A1" stroke="#231F20" stroke-miterlimit="10"/>
<path d="M36.2401 21.6C35.6601 20.51 31.1401 19.91 28.5001 19.6C25.8601 19.29 21.3201 18.99 20.5001 19.95C19.7601 20.39 19.4201 23.11 19.1801 25.36C18.9401 27.61 18.7401 30.36 19.3701 30.94C19.9501 32.03 24.4701 32.63 27.1101 32.94C29.7501 33.25 34.2901 33.54 35.1101 32.59C35.8401 32.15 36.1901 29.43 36.4201 27.17C36.6501 24.91 36.8701 22.18 36.2401 21.6Z" fill="white" stroke="#231F20" stroke-miterlimit="10"/>
<path d="M32.16 25.64C31.7462 24.7272 31.2187 23.8705 30.59 23.09C30.3864 22.8802 30.1152 22.749 29.8242 22.7197C29.5333 22.6905 29.2414 22.7649 29 22.93C28.2414 23.5629 27.5691 24.2924 27 25.1L26.77 25.42C26.5726 25.0653 26.3416 24.7305 26.08 24.42C25.9263 24.2581 25.7195 24.1569 25.4973 24.1349C25.2752 24.1129 25.0525 24.1715 24.87 24.3C24.2936 24.7732 23.7795 25.3175 23.34 25.92C22.8206 26.5753 22.4273 27.3213 22.18 28.12C22.1522 28.3145 22.1902 28.5127 22.2881 28.683C22.386 28.8534 22.538 28.9861 22.72 29.06C23.49 29.49 31.08 30.3 32.2 29.94C32.4643 29.9038 32.7081 29.7777 32.8902 29.5828C33.0724 29.3879 33.1818 29.1362 33.2 28.87C33.2 28.87 33.31 28.1 32.16 25.64Z" fill="#FFE236" stroke="#231F20" stroke-miterlimit="10"/>
<path d="M35.0001 18.91C37.1901 19.51 37.3201 19.71 37.4601 20.43" stroke="white" stroke-miterlimit="10" stroke-linecap="round"/>
<path d="M30.0001 24.42C30.3961 24.8859 30.7013 25.4218 30.9001 26" stroke="white" stroke-miterlimit="10" stroke-linecap="round"/>
<path d="M27.2101 5.95999C27.2101 6.38433 27.3787 6.7913 27.6787 7.09136C27.9788 7.39141 28.3857 7.55999 28.8101 7.55999C29.2344 7.55999 29.6414 7.39141 29.9415 7.09136C30.2415 6.7913 30.4101 6.38433 30.4101 5.95999C30.4101 5.53564 30.2415 5.12867 29.9415 4.82861C29.6414 4.52856 29.2344 4.35999 28.8101 4.35999C28.3857 4.35999 27.9788 4.52856 27.6787 4.82861C27.3787 5.12867 27.2101 5.53564 27.2101 5.95999Z" fill="#FFE236" stroke="#231F20" stroke-miterlimit="10"/>
</g>
<defs>
<clipPath id="clip0_2301_13537">
<rect width="40" height="40" fill="white"/>
</clipPath>
</defs>
</svg>
