<svg width="40" height="40" viewBox="0 0 40 40" fill="none" xmlns="http://www.w3.org/2000/svg">
<g clip-path="url(#clip0_2301_13530)">
<path d="M37.8 3.88C36.25 0.88 26 0.5 20 0.5C14 0.5 3.75 0.88 2.2 3.88C0.65 5.38 0.5 13.38 0.5 20C0.5 26.62 0.65 34.62 2.2 36.12C3.75 39.12 14 39.5 20 39.5C26 39.5 36.25 39.12 37.8 36.12C39.35 34.62 39.5 26.62 39.5 20C39.5 13.38 39.35 5.38 37.8 3.88Z" fill="#FF52A1" stroke="#231F20" stroke-miterlimit="10"/>
<path d="M34.0001 8.13001C32.7701 6.31001 24.7001 6.07001 20.0001 6.07001C15.3001 6.07001 7.23005 6.31001 6.00005 8.13001C4.80005 9.00001 4.68005 13.89 4.68005 17.91C4.68005 21.93 4.80005 26.79 6.00005 27.7C7.21005 29.52 15.2801 29.75 20.0001 29.75C24.7201 29.75 32.7701 29.52 34.0001 27.7C35.2201 26.79 35.3401 21.93 35.3401 17.91C35.3401 13.89 35.2001 9.00001 34.0001 8.13001Z" fill="white" stroke="#231F20" stroke-miterlimit="10"/>
<path d="M27.53 16C26.6398 14.4687 25.5577 13.0573 24.31 11.8C23.9076 11.455 23.3951 11.2654 22.865 11.2654C22.335 11.2654 21.8224 11.455 21.42 11.8C20.1794 13.0609 19.101 14.4719 18.21 16C18.14 16.11 18.01 16.34 17.86 16.61C17.4509 16.0077 16.9782 15.4512 16.45 14.95C16.1499 14.695 15.7689 14.5549 15.375 14.5549C14.9812 14.5549 14.6001 14.695 14.3 14.95C13.3692 15.8899 12.5627 16.9452 11.9 18.09C11.65 18.51 10.25 20.93 10.25 22.17C10.2342 22.5181 10.3361 22.8613 10.5393 23.1444C10.7425 23.4274 11.0352 23.6337 11.37 23.73C12.81 24.35 26.37 24.4 28.24 23.58C28.6848 23.4512 29.0738 23.1776 29.3455 22.8026C29.6173 22.4277 29.7561 21.9728 29.74 21.51C29.74 21.4 30 20.12 27.53 16Z" fill="#FFE236" stroke="#231F20" stroke-miterlimit="10"/>
<path d="M31.36 3.60999C35.36 4.26999 35.59 4.60999 35.97 5.82999" stroke="white" stroke-miterlimit="10" stroke-linecap="round"/>
<path d="M23.46 14.23C24.2482 14.9513 24.8958 15.8125 25.37 16.77" stroke="white" stroke-miterlimit="10" stroke-linecap="round"/>
</g>
<defs>
<clipPath id="clip0_2301_13530">
<rect width="40" height="40" fill="white"/>
</clipPath>
</defs>
</svg>
