<svg width="40" height="40" viewBox="0 0 40 40" fill="none" xmlns="http://www.w3.org/2000/svg">
<path d="M32.6848 9.77858C32.9682 10.0502 33.1962 10.5537 33.335 11.3615C33.7493 11.4577 34.0664 11.5826 34.2994 11.7283C34.8138 12.0494 35.8357 12.6362 35.8357 13.2903C35.8357 13.9286 35.1874 14.4629 33.4133 14.6443C33.2319 16.4184 32.7075 17.0667 32.0682 17.0667C31.8383 17.0667 30.7104 16.3213 30.4626 16.0973C30.1682 15.8297 29.9293 15.3222 29.7876 14.4956C29.3941 14.4044 29.0888 14.2854 28.8599 14.1487C28.3345 13.8335 27.2859 13.215 27.2859 12.5588C27.2859 11.9294 27.9351 11.3952 29.7083 11.2138C29.8897 9.43958 30.4239 8.79138 31.0622 8.79138C31.2882 8.79138 32.447 9.55158 32.6848 9.77858Z" fill="#00034A" stroke="#00034A" stroke-miterlimit="10" stroke-linecap="round"/>
<path d="M25.0823 2.78296C24.5768 2.78296 24.1288 3.29836 24.0049 4.69096C22.5846 4.83366 22.0979 5.26286 22.0979 5.76836C22.0979 6.38086 23.5272 7.25216 24.0862 7.41566C24.1853 7.93106 24.333 8.27306 24.5144 8.48216C24.7196 8.71806 25.8772 9.48516 26.0884 9.48516C26.6038 9.48516 27.0429 8.95986 27.1668 7.57726C28.5306 7.44436 29.0738 7.01526 29.0738 6.49986C29.0738 5.88526 27.6465 5.01306 27.0845 4.85156C26.9556 4.18046 26.7386 3.80286 26.4779 3.63046C26.1607 3.42226 25.3787 2.78296 25.0833 2.78296H25.0823Z" fill="#00034A" stroke="#00034A" stroke-miterlimit="10" stroke-linecap="round"/>
<path d="M32.9414 3.50846C32.9414 2.88106 33.4498 2.37366 34.0762 2.37366C34.7899 2.37366 35.8356 3.19626 35.8356 3.92376C35.8356 4.55116 35.3271 5.05866 34.7007 5.05866C33.987 5.05866 32.9414 4.23596 32.9414 3.50846Z" fill="#00034A" stroke="#00034A" stroke-miterlimit="10" stroke-linecap="round"/>
<path d="M19.4852 9.54474C18.274 9.46844 13.6869 11.3387 9.94831 13.2071C6.20961 15.0764 1.99421 17.6039 1.36481 18.6149C0.221012 20.3315 1.36481 23.8403 2.69101 26.4728C3.84471 28.7644 6.42871 33.069 9.45671 33.2692C10.6679 33.3554 15.245 31.4861 18.9936 29.6168C22.7412 27.7474 26.9665 25.211 27.6247 24.1901C28.7308 22.4834 27.5761 18.9836 26.2608 16.3421C25.1061 14.0258 22.5261 9.75684 19.4852 9.54474Z" fill="#00034A" stroke="#00034A" stroke-miterlimit="10"/>
<path d="M26.3233 23.192C27.4294 21.4853 26.2747 17.9855 24.9594 15.343C23.6432 12.7016 21.535 9.68844 19.4852 9.54474C18.274 9.46844 13.6869 11.3387 9.94831 13.2071C6.20961 15.0764 1.99421 17.6039 1.36481 18.6149C0.221012 20.3316 1.36481 23.8403 2.69101 26.4728C4.01621 29.1043 6.13331 32.1373 8.15531 32.2711C9.36651 32.3573 13.9436 30.487 17.6922 28.6187C21.4398 26.7493 25.6651 24.2129 26.3223 23.192H26.3233Z" fill="#9BFF00" stroke="#00034A" stroke-miterlimit="10"/>
<path d="M16.7864 13.8464C17.5416 15.1531 19.1449 15.7026 20.5429 15.1339C21.4498 16.3114 22.1234 17.6513 22.5272 19.0817C21.2086 19.8568 20.6766 21.4947 21.2883 22.8967C17.9681 24.8804 14.495 26.5959 10.9019 28.0269C10.1426 26.6901 8.50093 26.1361 7.08693 26.7394C6.17453 25.5761 5.52403 24.2295 5.17993 22.7916C6.49523 22.0136 7.02313 20.3764 6.40993 18.9766C9.72613 16.992 13.196 15.2764 16.7864 13.8464Z" fill="white" stroke="#00034A" stroke-linecap="round" stroke-linejoin="round"/>
<path d="M13.8298 24.0504C16.245 24.0933 17.801 21.5055 16.6305 19.3924C16.068 18.3767 14.9906 17.7547 13.8298 17.7753C11.4145 17.8182 9.95142 20.4597 11.1962 22.5299C11.7534 23.4566 12.7486 24.0312 13.8298 24.0504Z" fill="#9BFF00" stroke="#00034A" stroke-miterlimit="10"/>
<path d="M30.5378 19.3483C25.7069 19.3483 24.0011 21.4198 23.786 21.6815C23.7771 21.6914 23.7711 21.7003 23.7662 21.7043C23.1953 22.4001 22.9941 25.443 22.9941 28.0557C22.9941 30.6694 23.1953 33.7113 23.7672 34.4071L23.7761 34.418C25.6058 36.7343 28.723 37.6264 31.5607 37.6264C36.3946 37.6264 38.0994 35.5608 38.3125 35.3021C38.3189 35.2947 38.3255 35.2874 38.3323 35.2803C38.9042 34.5835 39.1044 31.5416 39.1044 28.9289C39.1044 26.3152 38.9042 23.3021 38.3313 22.5765L38.3224 22.5656C36.4947 20.2463 33.3775 19.3483 30.5378 19.3483Z" fill="#00034A" stroke="#00034A" stroke-miterlimit="10"/>
<path d="M37.3093 21.7043C37.2231 21.5992 35.5738 19.3483 30.5377 19.3483C25.5026 19.3483 23.8622 21.5992 23.7671 21.7043C23.1952 22.4001 22.9939 25.443 22.9939 28.0557C22.9939 30.6694 23.1952 33.7113 23.7671 34.407C23.8533 34.5121 25.5026 36.7531 30.5377 36.7531C35.5728 36.7531 37.2142 34.5121 37.3093 34.407C37.8812 33.7112 38.0824 30.6694 38.0824 28.0557C38.0824 25.443 37.8812 22.4288 37.3093 21.7043Z" fill="white" stroke="#00034A" stroke-miterlimit="10"/>
<path d="M36.5562 23.9929C35.4778 25.0802 33.4757 25.7284 30.5379 25.7284C27.6011 25.7284 25.5979 25.0802 24.5205 23.9939" stroke="#00034A" stroke-miterlimit="10" stroke-linecap="round"/>
<path d="M36.5562 28.0557C35.4778 29.143 33.4757 29.7912 30.5379 29.7912C27.6011 29.7912 25.5979 29.1053 24.5205 28.0567" stroke="#00034A" stroke-miterlimit="10" stroke-linecap="round"/>
<path d="M36.5562 31.5366C35.4778 32.624 33.4757 33.2722 30.5379 33.2722C27.6011 33.2722 25.5979 32.624 24.5205 31.5366" stroke="#00034A" stroke-miterlimit="10" stroke-linecap="round"/>
<path d="M30.5379 23.5637C32.2338 23.5637 33.6095 23.0434 33.6095 22.4001C33.6095 21.7578 32.2338 21.2365 30.5379 21.2365C28.843 21.2365 27.4673 21.7578 27.4673 22.4001C27.4673 23.0434 28.842 23.5637 30.5379 23.5637Z" fill="white" stroke="#00034A" stroke-miterlimit="10"/>
<path d="M34.8296 12.5588C34.8296 11.9295 34.1814 11.3952 32.4072 11.2138C32.2259 9.43968 31.7015 8.79138 31.0632 8.79138C30.4239 8.79138 29.8897 9.43968 29.7083 11.2138C27.9341 11.3952 27.2859 11.9295 27.2859 12.5588C27.2859 13.1881 27.9351 13.7314 29.7083 13.9128C29.8897 15.687 30.4239 16.3352 31.0622 16.3352C31.7015 16.3352 32.2259 15.687 32.4072 13.9128C34.1814 13.7314 34.8296 13.1972 34.8296 12.5588Z" fill="#9BFF00" stroke="#00034A" stroke-miterlimit="10"/>
<path d="M28.0677 5.76836C28.0677 5.26286 27.5523 4.81486 26.1607 4.69096C26.018 3.26966 25.5888 2.78296 25.0833 2.78296C24.5778 2.78296 24.1288 3.29836 24.0049 4.69096C22.5846 4.83366 22.0979 5.26286 22.0979 5.76836C22.0979 6.27386 22.6233 6.72186 24.0049 6.84576C24.1487 8.26706 24.5679 8.75376 25.0833 8.75376C25.5987 8.75376 26.0368 8.22836 26.1607 6.84576C27.5246 6.71296 28.0677 6.28376 28.0677 5.76836Z" fill="#9BFF00" stroke="#00034A" stroke-miterlimit="10"/>
<path d="M34.0762 4.64336C34.9499 4.64336 35.4959 3.69756 35.0591 2.94096C34.8563 2.58986 34.4817 2.37366 34.0762 2.37366C33.2026 2.37366 32.6566 3.31936 33.0934 4.07596C33.2961 4.42706 33.6708 4.64336 34.0762 4.64336Z" fill="#9BFF00" stroke="#00034A" stroke-miterlimit="10" stroke-linecap="round"/>
</svg>
