<svg width="40" height="40" viewBox="0 0 40 40" fill="none" xmlns="http://www.w3.org/2000/svg">
<g clip-path="url(#clip0_2301_14784)">
<path d="M35.386 2.505C32.034 0.755 24.346 0.5 19.501 0.5C13.655 0.5 3.667 0.87 2.157 3.794C0.647 5.255 0.5 13.05 0.5 19.5C0.5 24.744 0.597 30.875 1.444 33.772C1.898 35.326 3.126 36.69 4.547 37.439C7.887 39.201 15.6 39.457 20.457 39.457C26.303 39.457 36.291 39.087 37.801 36.163C39.311 34.702 39.458 26.906 39.458 20.455C39.458 15.517 39.372 9.791 38.654 6.721C38.4441 5.82462 38.0436 4.98398 37.4796 4.25629C36.9157 3.5286 36.2016 2.93095 35.386 2.504V2.505Z" fill="#00034A" stroke="#00034A" stroke-miterlimit="10"/>
<path d="M36.846 3.794C35.336 0.87 25.348 0.5 19.501 0.5C13.655 0.5 3.667 0.87 2.157 3.794C0.647 5.255 0.5 13.05 0.5 19.5C0.5 25.951 0.646 33.747 2.157 35.208C3.667 38.132 13.655 38.502 19.501 38.502C25.348 38.502 35.336 38.132 36.846 35.208C38.356 33.747 38.503 25.951 38.503 19.5C38.503 13.05 38.357 5.255 36.846 3.794Z" fill="#9BFF00" stroke="#00034A" stroke-miterlimit="10"/>
<path d="M31.5059 8.62705C30.4639 6.61005 23.5359 6.34705 19.5009 6.34705C15.4669 6.34705 8.53895 6.61005 7.49595 8.62705C6.45395 9.64005 6.34595 15.029 6.34595 19.501C6.34595 23.974 6.45395 29.363 7.49595 30.376C8.53895 32.393 15.4669 32.656 19.5009 32.656C23.5359 32.656 30.4639 32.393 31.5059 30.376C32.5489 29.402 32.6559 23.974 32.6559 19.501C32.6559 15.029 32.5489 9.64105 31.5059 8.62705Z" fill="white" stroke="#00034A" stroke-miterlimit="10"/>
<path d="M16.3249 11.2381C16.0909 10.7901 14.5509 10.7321 13.6549 10.7321C12.7579 10.7321 11.2189 10.7901 10.9849 11.2381C10.7372 12.0182 10.6511 12.8406 10.7319 13.6551C10.6509 14.4692 10.737 15.2913 10.9849 16.0711C11.2189 16.5201 12.7579 16.5781 13.6549 16.5781C14.5509 16.5781 16.0909 16.5201 16.3249 16.0711C16.5725 15.2913 16.6586 14.4692 16.5779 13.6551C16.6588 12.8406 16.5727 12.0181 16.3249 11.2381Z" fill="white" stroke="#00034A" stroke-miterlimit="10"/>
<path d="M16.3249 22.931C16.0909 22.483 14.5509 22.425 13.6549 22.425C12.7579 22.425 11.2189 22.483 10.9849 22.931C10.7372 23.7112 10.6511 24.5336 10.7319 25.348C10.6509 26.1625 10.737 26.985 10.9849 27.765C11.2189 28.213 12.7579 28.271 13.6549 28.271C14.5509 28.271 16.0909 28.213 16.3249 27.765C16.5727 26.985 16.6588 26.1625 16.5779 25.348C16.6588 24.5336 16.5727 23.7111 16.3249 22.931Z" fill="white" stroke="#00034A" stroke-miterlimit="10"/>
<path d="M28.0179 11.2381C27.7839 10.7901 26.2439 10.7321 25.3479 10.7321C24.4519 10.7321 22.9119 10.7901 22.6779 11.2381C22.4302 12.0182 22.3441 12.8406 22.4249 13.6551C22.3449 14.4691 22.4299 15.2911 22.6779 16.0711C22.9119 16.5201 24.4509 16.5781 25.3479 16.5781C26.2439 16.5781 27.7839 16.5201 28.0179 16.0711C28.2658 15.2913 28.3519 14.4692 28.2709 13.6551C28.3517 12.8406 28.2656 12.0182 28.0179 11.2381Z" fill="white" stroke="#00034A" stroke-miterlimit="10"/>
<path d="M19.501 10.7321C19.3646 13.6538 19.3646 16.5803 19.501 19.5021H22.425" stroke="#00034A" stroke-linecap="round" stroke-linejoin="round"/>
<path d="M10.7319 19.501C12.6771 19.3354 14.6328 19.3354 16.5779 19.501H10.7319Z" fill="white"/>
<path d="M10.7319 19.501C12.6771 19.3354 14.6328 19.3354 16.5779 19.501" stroke="#00034A" stroke-linecap="round" stroke-linejoin="round"/>
<path d="M25.348 22.425H22.425V25.348" stroke="#00034A" stroke-linecap="round" stroke-linejoin="round"/>
<path d="M25.3479 19.501C26.3209 19.419 27.2979 19.419 28.2709 19.501C28.3689 20.476 28.3689 24.374 28.2709 25.348H25.3479" stroke="#00034A" stroke-linecap="round" stroke-linejoin="round"/>
<path d="M19.501 22.425C19.3646 24.3713 19.3646 26.3248 19.501 28.271C22.422 28.437 25.351 28.437 28.271 28.271" stroke="#00034A" stroke-linecap="round" stroke-linejoin="round"/>
</g>
<defs>
<clipPath id="clip0_2301_14784">
<rect width="40" height="40" fill="white"/>
</clipPath>
</defs>
</svg>
