<svg width="40" height="40" viewBox="0 0 40 40" fill="none" xmlns="http://www.w3.org/2000/svg">
<g clip-path="url(#clip0_2301_14765)">
<path d="M14.527 7.17162C15.2587 5.61932 16.2063 4.17832 17.3417 2.89152C17.9742 2.23152 20.0426 1.22582 21.2585 2.32682C22.182 3.27502 23.0407 4.28432 23.8287 5.34782C24.6644 6.36922 25.4309 7.44542 26.123 8.56922C27.3578 10.3643 28.3888 12.2913 29.197 14.3147C29.4382 15.5081 28.9011 16.724 27.8564 17.3494C26.8698 18.0713 25.5293 18.0713 24.5427 17.3494C23.6935 16.5314 22.9188 15.6394 22.2278 14.6839C22.0736 14.5003 21.9234 14.3137 21.776 14.1241C21.7967 14.4502 21.7348 14.7753 21.5934 15.0709C21.0188 16.2003 18.6352 17.7423 18.2139 18.0104C17.0897 18.7428 15.8764 19.3283 14.6035 19.7527C14.2231 19.8379 13.8249 19.7893 13.4761 19.6152C12.9123 19.3333 12.0687 18.2343 11.8163 17.6765C11.4114 16.3966 11.1672 15.0714 11.0895 13.7313C10.8302 10.0925 11.4725 9.25962 11.4725 9.25962C11.7763 8.60472 12.4874 8.24122 13.1962 8.37872C13.4309 8.40812 13.6617 8.46222 13.8846 8.54172C13.9946 8.32762 14.1036 8.08602 14.2136 7.84142C14.3168 7.61462 14.4199 7.38382 14.5269 7.17262L14.527 7.17162Z" fill="#00034A"/>
<path d="M22.1738 33.3493C21.1542 31.7794 21.7794 29.6698 23.4899 28.9091C24.6405 28.6503 25.8113 28.4912 26.9892 28.4337C26.8237 28.277 26.685 28.0942 26.5787 27.8926C26.1495 27.0774 26.3911 24.4031 26.3911 23.2501C26.3999 21.9242 26.5738 20.6062 26.9077 19.3235C27.1895 18.5364 28.0008 18.07 28.8228 18.2225C30.1134 18.582 31.3548 19.0996 32.5196 19.7645C33.8602 20.5207 36.3165 21.9517 36.9244 23.6409C37.2986 24.2513 37.216 25.0369 36.7231 25.5561C36.5671 25.7381 36.3941 25.9048 36.2065 26.054L36.2733 26.1591C36.5198 26.5471 36.7722 26.9419 36.9912 27.3377C37.9006 28.7938 38.594 30.3741 39.0497 32.0293C39.2511 32.8622 39.0026 35.1692 37.2976 35.5915C35.1703 36.0138 33.0028 36.2004 30.8342 36.1464C28.663 36.2004 26.4924 36.0143 24.362 35.5915C23.4565 35.1888 22.7081 34.1703 22.1748 33.3493H22.1738Z" fill="#00034A"/>
<path d="M10.7733 19.9462C9.75174 19.2791 8.41623 19.3486 7.46943 20.1181C6.03553 21.7481 4.78933 23.534 3.75403 25.4422C2.61313 27.2965 1.68193 29.2719 0.977535 31.332C0.489435 32.9348 2.62453 35.3185 4.08013 35.7457C5.73893 36.1808 7.45074 36.3743 9.16454 36.3202H10.1624C10.4649 36.7818 11.01 37.5499 11.4313 37.8563C11.7161 38.0625 12.0599 38.1686 12.4105 38.1578C12.4105 38.1578 13.4358 38.3493 16.5668 36.4823C17.7272 35.8087 18.7958 34.988 19.746 34.0407C20.011 33.737 20.1571 33.3477 20.1575 32.9447C20.1575 32.1138 19.3914 31.3202 18.8739 30.729C17.9374 29.7713 16.8818 28.9379 15.733 28.2491C15.3598 28.0252 13.4722 26.9213 12.1414 26.6325C12.5372 25.7879 12.874 24.9177 13.148 24.025C13.2463 23.4357 13.153 22.8307 12.8829 22.2984C12.4782 21.5029 11.5668 20.3449 10.7733 19.9472V19.9462Z" fill="#00034A"/>
<path d="M14.527 7.17162C15.2587 5.61932 16.2063 4.17832 17.3417 2.89152C17.9742 2.23152 20.0426 1.22582 21.2585 2.32682C22.182 3.27502 23.0407 4.28432 23.8287 5.34782C24.6644 6.36922 25.4309 7.44542 26.123 8.56922C27.3578 10.3643 28.3888 12.2913 29.197 14.3147C29.4382 15.5081 28.9011 16.724 27.8564 17.3494C26.8698 18.0713 25.5293 18.0713 24.5427 17.3494C23.6935 16.5314 22.9188 15.6394 22.2278 14.6839C22.0736 14.5003 21.9234 14.3137 21.776 14.1241C21.7967 14.4502 21.7348 14.7753 21.5934 15.0709C21.0188 16.2003 18.6352 17.7423 18.2139 18.0104C17.0897 18.7428 15.8764 19.3283 14.6035 19.7527C14.2231 19.8379 13.8249 19.7893 13.4761 19.6152C12.9123 19.3333 12.0687 18.2343 11.8163 17.6765C11.4114 16.3966 11.1672 15.0714 11.0895 13.7313C10.8302 10.0925 11.4725 9.25962 11.4725 9.25962C11.7763 8.60472 12.4874 8.24122 13.1962 8.37872C13.4309 8.40812 13.6617 8.46222 13.8846 8.54172C13.9946 8.32762 14.1036 8.08602 14.2136 7.84142C14.3168 7.61462 14.4199 7.38382 14.5269 7.17262L14.527 7.17162Z" stroke="#00034A" stroke-miterlimit="10"/>
<path d="M22.1738 33.3493C21.1542 31.7794 21.7794 29.6698 23.4899 28.9091C24.6405 28.6503 25.8113 28.4912 26.9892 28.4337C26.8237 28.277 26.685 28.0942 26.5787 27.8926C26.1495 27.0774 26.3911 24.4031 26.3911 23.2501C26.3999 21.9242 26.5738 20.6062 26.9077 19.3235C27.1895 18.5364 28.0008 18.07 28.8228 18.2225C30.1134 18.582 31.3548 19.0996 32.5196 19.7645C33.8602 20.5207 36.3165 21.9517 36.9244 23.6409C37.2986 24.2513 37.216 25.0369 36.7231 25.5561C36.5671 25.7381 36.3941 25.9048 36.2065 26.054L36.2733 26.1591C36.5198 26.5471 36.7722 26.9419 36.9912 27.3377C37.9006 28.7938 38.594 30.3741 39.0497 32.0293C39.2511 32.8622 39.0026 35.1692 37.2976 35.5915C35.1703 36.0138 33.0028 36.2004 30.8342 36.1464C28.663 36.2004 26.4924 36.0143 24.362 35.5915C23.4565 35.1888 22.7081 34.1703 22.1748 33.3493H22.1738Z" stroke="#00034A" stroke-miterlimit="10"/>
<path d="M10.7733 19.9462C9.75174 19.2791 8.41623 19.3486 7.46943 20.1181C6.03553 21.7481 4.78933 23.534 3.75403 25.4422C2.61313 27.2965 1.68193 29.2719 0.977535 31.332C0.489435 32.9348 2.62453 35.3185 4.08013 35.7457C5.73893 36.1808 7.45074 36.3743 9.16454 36.3202H10.1624C10.4649 36.7818 11.01 37.5499 11.4313 37.8563C11.7161 38.0625 12.0599 38.1686 12.4105 38.1578C12.4105 38.1578 13.4358 38.3493 16.5668 36.4823C17.7272 35.8087 18.7958 34.988 19.746 34.0407C20.011 33.737 20.1571 33.3477 20.1575 32.9447C20.1575 32.1138 19.3914 31.3202 18.8739 30.729C17.9374 29.7713 16.8818 28.9379 15.733 28.2491C15.3598 28.0252 13.4722 26.9213 12.1414 26.6325C12.5372 25.7879 12.874 24.9177 13.148 24.025C13.2463 23.4357 13.153 22.8307 12.8829 22.2984C12.4782 21.5029 11.5668 20.3449 10.7733 19.9472V19.9462Z" stroke="#00034A" stroke-miterlimit="10"/>
<path d="M38.1787 30.9097C37.723 29.2545 37.0296 27.6742 36.1202 26.2181C35.8805 25.7869 35.6026 25.3567 35.3345 24.9354C35.5221 24.7859 35.6951 24.6188 35.8511 24.4365C36.3443 23.9174 36.4269 23.1316 36.0524 22.5213C35.6779 21.911 35.7087 21.5647 32.5197 19.7645C31.3556 19.1003 30.114 18.5824 28.823 18.2225C28.001 18.0704 27.19 18.5367 26.9078 19.3235C26.5735 20.6059 26.4 21.9249 26.3912 23.2501C26.3912 23.7568 26.3912 26.5913 27.0139 27.6922C27.1995 28.0036 27.4715 28.254 27.7986 28.4112C26.3488 28.4244 24.9046 28.5913 23.49 28.9091C21.3489 29.8624 21.0426 32.776 22.9387 34.1536C23.1109 34.2787 23.2956 34.3853 23.49 34.4719C25.6202 34.8952 27.7917 35.0808 29.9622 35.0278C32.1306 35.0817 34.2983 34.8953 36.4256 34.4719C38.1306 34.0505 38.3801 31.7435 38.1787 30.9097Z" fill="#9BFF00" stroke="#00034A" stroke-miterlimit="10"/>
<path d="M27.0139 27.6638C27.3527 28.3086 28.0865 28.6405 28.7945 28.4691C29.0257 28.4184 29.2528 28.3508 29.4741 28.2668C29.7039 28.7176 29.9534 29.1674 30.192 29.5887" stroke="#00034A" stroke-miterlimit="10" stroke-linecap="round"/>
<path d="M17.3417 2.89152C16.2062 4.17862 15.2585 5.61992 14.5269 7.17262C14.3059 7.61262 14.0957 8.13022 13.8846 8.54172C13.6614 8.46242 13.4302 8.40772 13.1951 8.37872C12.4864 8.24122 11.7752 8.60472 11.4715 9.25962C11.1678 9.91452 10.8301 10.0925 11.0884 13.7313C11.167 15.0719 11.4116 16.3968 11.8172 17.6765C12.1477 18.4095 12.9476 18.8095 13.7323 18.6341C15.0048 18.2096 16.2178 17.6241 17.3417 16.8918C17.764 16.6236 20.1476 15.0817 20.7221 13.9513C20.878 13.6237 20.9376 13.2586 20.894 12.8984C21.6953 14.1073 22.6267 15.2248 23.6715 16.2308C24.6579 16.9522 25.9978 16.9522 26.9842 16.2308C28.0291 15.6055 28.5663 14.3895 28.3248 13.196C27.5166 11.1726 26.4856 9.24562 25.2507 7.45052C24.1124 5.60112 22.7735 3.88272 21.2584 2.32682C20.0425 1.22582 17.9741 2.23152 17.3417 2.89152Z" fill="#9BFF00" stroke="#00034A" stroke-miterlimit="10"/>
<path d="M20.7597 13.9896C21.1036 13.3574 20.9826 12.5734 20.464 12.0744C20.2925 11.9092 20.11 11.7556 19.918 11.6148C20.1665 11.1748 20.4159 10.725 20.6359 10.2938" stroke="#00034A" stroke-miterlimit="10" stroke-linecap="round"/>
<path d="M3.20895 34.6251C4.86675 35.0612 6.57965 35.2536 8.29345 35.1996H9.80595C9.84025 35.4373 9.89435 35.6711 9.96895 35.8989C10.1732 36.591 10.818 37.0588 11.5393 37.0382C12.2606 37.0176 12.5637 37.2297 15.6947 35.3627C16.8551 34.689 17.9236 33.8684 18.8739 32.9211C19.423 32.2932 19.423 31.3559 18.8739 30.728C17.9374 29.7704 16.8818 28.9369 15.733 28.2481C15.3028 27.9898 12.8603 26.5628 11.5776 26.5628C11.216 26.5702 10.864 26.6799 10.5621 26.8791C11.2767 25.6207 11.8514 24.2878 12.2759 22.9044C12.4774 21.6956 11.8683 20.4964 10.7733 19.9462C9.75185 19.2788 8.41615 19.3483 7.46945 20.1181C6.03555 21.7481 4.78925 23.534 3.75405 25.4422C2.61315 27.2965 1.68195 29.2719 0.977548 31.332C0.469848 32.9987 2.32705 34.3678 3.20795 34.6261L3.20895 34.6251Z" fill="#9BFF00" stroke="#00034A" stroke-miterlimit="10"/>
<path d="M11.558 26.5628C10.8366 26.5422 10.1919 27.0099 9.98759 27.7021C9.91489 27.9309 9.85989 28.1637 9.82549 28.4013C9.31779 28.4013 8.80999 28.3532 8.31299 28.3532" stroke="#00034A" stroke-miterlimit="10" stroke-linecap="round"/>
</g>
<defs>
<clipPath id="clip0_2301_14765">
<rect width="40" height="40" fill="white"/>
</clipPath>
</defs>
</svg>
