<svg width="40" height="40" viewBox="0 0 40 40" fill="none" xmlns="http://www.w3.org/2000/svg">
<g clip-path="url(#clip0_2301_14727)">
<path d="M10.194 6.68304C10.335 7.48504 11.132 9.14104 12.142 9.14104C12.765 9.14104 13.31 8.49904 13.485 6.73704C15.247 6.59104 15.9 6.05504 15.9 5.42304C15.9 4.40904 14.203 3.61604 13.404 3.47504C13.264 2.66604 12.469 0.988037 11.447 0.988037C10.804 0.988037 10.288 1.64004 10.113 3.39204C8.35097 3.58704 7.69897 4.10304 7.69897 4.73604C7.69897 5.75004 9.39497 6.54304 10.194 6.68304Z" fill="#00034A" stroke="#00034A" stroke-miterlimit="10"/>
<path d="M4.54508 13.352C4.65908 14.136 5.36308 15.397 6.32108 15.397C6.83708 15.397 7.29508 14.872 7.42108 13.45C8.84308 13.304 9.36808 12.876 9.36808 12.35C9.36808 11.608 7.99608 11.06 7.38208 10.93C7.26808 10.144 6.56508 8.88501 5.60608 8.88501C5.08008 8.88501 4.63208 9.42001 4.50608 10.832C3.06508 10.978 2.55908 11.416 2.55908 11.932C2.55908 12.672 3.93308 13.222 4.54508 13.352Z" fill="#00034A" stroke="#00034A" stroke-miterlimit="10"/>
<path d="M28.3391 26.056C28.2455 25.901 28.1395 25.7539 28.0221 25.616C28.3771 24.693 28.6631 23.745 28.8761 22.779C28.8984 22.7191 28.9148 22.6571 28.9251 22.594C30.282 22.4101 31.5548 21.831 32.5851 20.929C36.0321 21.776 38.4261 19.586 39.4001 15.643C39.6701 14.561 37.7341 13.227 36.9271 12.86C37.4221 9.48504 30.6131 7.80704 28.5911 7.27304C23.1301 5.83304 20.1801 6.04704 19.7031 7.90604C19.6991 7.98701 19.683 8.06691 19.6551 8.14304C19.6451 8.17704 19.6341 8.21104 19.6251 8.24704C17.5901 7.92604 16.4711 8.15904 16.2571 8.96704C15.4141 12.38 16.4291 16.421 20.0571 17.663C20.4231 18.368 20.9044 19.0068 21.4811 19.553C21.6681 19.804 21.8711 20.043 22.0911 20.268L22.0881 20.279C21.8027 21.3128 21.6007 22.3679 21.4841 23.434C20.7469 23.4483 20.0348 23.7047 19.4578 24.1637C18.8807 24.6227 18.4708 25.2589 18.2911 25.974C18.2241 26.232 18.5011 26.514 19.1191 26.822C19.1132 26.8437 19.1076 26.8653 19.1021 26.887C18.9471 27.481 20.6211 28.201 24.0871 29.087C27.5521 29.973 29.3731 30.148 29.5191 29.564C29.6891 28.9281 29.6678 28.2561 29.4579 27.6322C29.2481 27.0082 28.8589 26.46 28.3391 26.056Z" fill="#00034A" stroke="#00034A" stroke-miterlimit="10"/>
<path d="M31.774 20.017C35.221 20.863 37.615 18.673 38.589 14.73C38.793 13.913 37.927 13.173 35.98 12.482C35.98 12.365 36.048 12.258 36.077 12.141C36.554 10.281 34.053 8.71404 28.591 7.27304C23.13 5.83304 20.18 6.04704 19.703 7.90604C19.703 8.02304 19.654 8.13004 19.625 8.24604C17.59 7.92604 16.471 8.15904 16.257 8.96704C15.283 12.91 16.257 15.987 19.713 16.892C20.1956 18.1733 21.0372 19.2885 22.137 20.104C22.1162 20.161 22.0998 20.2196 22.088 20.279C21.8026 21.3125 21.6006 22.3672 21.484 23.433C20.7466 23.4472 20.0343 23.7036 19.4572 24.1629C18.8801 24.6222 18.4703 25.2586 18.291 25.974C18.136 26.568 19.81 27.289 23.276 28.174C26.741 29.06 28.562 29.236 28.708 28.651C28.898 27.9382 28.8474 27.1826 28.5641 26.5015C28.2807 25.8203 27.7805 25.2518 27.141 24.884C27.529 23.904 27.838 22.895 28.065 21.866C28.087 21.806 28.104 21.744 28.115 21.681C29.4719 21.4971 30.7447 20.918 31.775 20.016L31.774 20.017Z" fill="white" stroke="#00034A" stroke-miterlimit="10"/>
<path d="M19.84 10.6121C19.6094 11.8967 19.5405 13.2053 19.635 14.5071" stroke="#00034A" stroke-miterlimit="10" stroke-linecap="round"/>
<path d="M34.724 14.428C34.3098 15.6724 33.7407 16.8597 33.03 17.962" stroke="#00034A" stroke-miterlimit="10" stroke-linecap="round"/>
<path d="M14.3281 34.145C15.5161 35.368 17.0681 37.3 18.9891 37.268C20.7221 37.268 20.7611 33.374 20.7611 33.374C20.7611 33.374 24.6551 33.374 24.7231 31.68C24.7491 31.087 23.0741 29.402 21.5351 27.854L21.0051 27.318L20.6931 27.007C20.7451 26.115 20.6931 25.219 20.5371 24.339C19.5731 18.712 14.5021 15.986 9.14009 16.906C3.46409 17.88 1.21509 21.774 2.06209 26.894C2.21009 27.79 2.46209 28.666 2.81209 29.504C2.81209 29.584 2.76209 29.664 2.71009 29.744C2.68709 29.781 2.66409 29.817 2.64609 29.854C2.50809 30.154 2.36209 30.465 2.21609 30.779C1.33309 32.668 0.401095 34.659 0.602095 35.169C1.12809 36.485 4.12209 36.379 5.19209 36.137C5.79209 37.401 7.67809 39.467 9.32209 38.923C9.83609 38.748 10.7661 36.739 11.6461 34.836L11.8051 34.493C12.3666 34.4756 12.9261 34.4171 13.4791 34.318C13.7641 34.271 14.0471 34.213 14.3281 34.145Z" fill="#00034A" stroke="#00034A" stroke-miterlimit="10"/>
<path d="M19.585 26.953L19.274 26.641C19.326 25.749 19.274 24.854 19.118 23.974C18.242 18.863 14.815 15.933 9.14003 16.906C3.46403 17.88 1.21503 21.774 2.06203 26.894C2.21003 27.79 2.46203 28.666 2.81203 29.504C2.81203 29.62 2.70503 29.737 2.64603 29.854C1.67303 31.966 0.368032 34.575 0.602032 35.169C1.24403 36.776 4.89503 35.452 4.89503 35.452C4.89503 35.452 6.25803 39.102 7.90303 38.557C8.44803 38.372 9.46103 36.123 10.386 34.127C10.9476 34.1096 11.507 34.0511 12.06 33.952C12.6307 33.8575 13.1936 33.7208 13.744 33.543C15.282 35.13 16.986 36.912 17.57 36.902C19.303 36.902 19.342 33.008 19.342 33.008C19.342 33.008 23.236 33.008 23.304 31.314C23.334 30.652 21.24 28.627 19.585 26.953Z" fill="#9BFF00" stroke="#00034A" stroke-miterlimit="10"/>
<path d="M10.61 30.233C11.2484 30.2461 11.8831 30.1316 12.4767 29.8963C13.0704 29.6609 13.6111 29.3095 14.0673 28.8626C14.5234 28.4157 14.8858 27.8822 15.1331 27.2935C15.3805 26.7048 15.508 26.0726 15.508 25.434C15.508 24.7954 15.3805 24.1633 15.1331 23.5745C14.8858 22.9858 14.5234 22.4524 14.0673 22.0055C13.6111 21.5585 13.0704 21.2071 12.4767 20.9718C11.8831 20.7365 11.2484 20.622 10.61 20.635C9.35417 20.6607 8.15845 21.1775 7.27938 22.0747C6.40032 22.9719 5.90796 24.178 5.90796 25.434C5.90796 26.6901 6.40032 27.8961 7.27938 28.7933C8.15845 29.6905 9.35417 30.2074 10.61 30.233Z" fill="white" stroke="#00034A" stroke-miterlimit="10"/>
<path d="M4.58301 31.139C5.53401 32.139 6.73301 32.868 8.05901 33.251" stroke="#00034A" stroke-miterlimit="10" stroke-linecap="round"/>
<path d="M18.2131 28.822C17.6482 30.0837 16.7577 31.1723 15.6331 31.976" stroke="#00034A" stroke-miterlimit="10" stroke-linecap="round"/>
<path d="M15.204 4.73604C15.204 4.10304 14.552 3.56804 12.79 3.39204C12.615 1.64004 12.09 0.988037 11.447 0.988037C10.804 0.988037 10.288 1.64004 10.113 3.39204C8.35097 3.58704 7.69897 4.10304 7.69897 4.73604C7.69897 5.36904 8.35097 5.90404 10.113 6.07904C10.288 7.84104 10.823 8.45504 11.447 8.45504C12.07 8.45504 12.615 7.81204 12.79 6.05004C14.552 5.90404 15.204 5.36904 15.204 4.73604Z" fill="#9BFF00" stroke="#00034A" stroke-miterlimit="10"/>
<path d="M8.65308 11.932C8.65308 11.416 8.12708 10.958 6.70608 10.832C6.56008 9.39101 6.13108 8.88501 5.60608 8.88501C5.08008 8.88501 4.63208 9.42001 4.50608 10.832C3.06508 10.978 2.55908 11.416 2.55908 11.932C2.55908 12.448 3.09408 12.905 4.50608 13.032C4.65208 14.482 5.09008 14.979 5.60608 14.979C6.12208 14.979 6.57908 14.453 6.70608 13.032C8.12708 12.886 8.65308 12.457 8.65308 11.932Z" fill="#9BFF00" stroke="#00034A" stroke-miterlimit="10"/>
</g>
<defs>
<clipPath id="clip0_2301_14727">
<rect width="40" height="40" fill="white"/>
</clipPath>
</defs>
</svg>
