<svg width="40" height="40" viewBox="0 0 40 40" fill="none" xmlns="http://www.w3.org/2000/svg">
<g clip-path="url(#clip0_2301_13384)">
<path d="M31.8602 2.00001C30.1865 2.08265 28.5915 2.73547 27.3402 3.85001L29.7502 7.61001L28.0002 10.69L30.5002 13.46L27.6302 17.46L27.4002 14.19L24.0002 11.8L25.5202 7.92001L24.1302 4.45001C22.5704 3.83402 20.8448 3.78098 19.2502 4.30001C14.7502 5.54001 13.2502 8.86001 14.3602 12.91C16.0802 19.14 23.0002 21.86 28.1002 23C28.7894 23.1012 29.4927 22.9711 30.1002 22.63C34.5002 19.78 40.0002 14.8 39.4602 8.37001C39.0902 4.18001 36.5102 1.60001 31.8602 2.00001Z" fill="#FF52A1" stroke="#231F20" stroke-miterlimit="10"/>
<path d="M33.3401 3.67001C33.9482 3.62946 34.5565 3.74616 35.1065 4.00887C35.6564 4.27159 36.1295 4.67147 36.4801 5.17001" stroke="white" stroke-linecap="round" stroke-linejoin="round"/>
<path d="M27.65 22.1C27.65 21.16 27.15 20.51 25.76 20.1C23.4512 19.6729 21.1081 19.4587 18.76 19.46C15.85 19.38 12.06 19.46 11.21 20C10.4827 20.5826 9.97213 21.3926 9.76005 22.3C9.33005 23.72 8.76005 25.66 8.31005 27.3C5.23005 26.71 3.20005 28.25 2.47005 31.11C1.74005 33.97 2.85005 36.55 6.20005 37.41C9.55005 38.27 11.72 36.69 12.5 33.69L13.78 28.69C13.88 28.33 13.97 27.95 14.07 27.56C15.26 27.68 16.64 27.76 17.89 27.8C17.1534 28.13 16.5075 28.6335 16.0078 29.2673C15.508 29.9012 15.1691 30.6467 15.02 31.44C14.25 34.44 15.41 36.88 18.75 37.74C22.09 38.6 24.15 36.99 25.05 34.01C25.8 31.77 27.56 26.23 27.65 22.1Z" fill="#48EEFF" stroke="#231F20" stroke-miterlimit="10"/>
<path d="M17.9399 27.86C19.0277 27.5458 20.1822 27.5458 21.2699 27.86" stroke="#231F20" stroke-miterlimit="10" stroke-linecap="round"/>
<path d="M22.49 21.49C25.41 21.66 25.7 21.79 25.72 22.26" stroke="white" stroke-miterlimit="10" stroke-linecap="round"/>
<path d="M7.69002 5.2C6.74002 5.5 5.34002 6 7.00002 9.8C8.66002 13.6 9.65002 13.37 10.12 13.23C10.59 13.09 11.54 12.79 10.77 8.63C10 4.47 8.63002 4.91 7.69002 5.2Z" fill="#FFE236" stroke="#231F20" stroke-miterlimit="10"/>
<path d="M9.58008 15.95C9.58008 16.1444 9.61836 16.3368 9.69274 16.5164C9.76711 16.6959 9.87613 16.8591 10.0136 16.9965C10.151 17.1339 10.3141 17.243 10.4937 17.3173C10.6733 17.3917 10.8657 17.43 11.0601 17.43C11.2544 17.43 11.4469 17.3917 11.6264 17.3173C11.806 17.243 11.9692 17.1339 12.1066 16.9965C12.244 16.8591 12.353 16.6959 12.4274 16.5164C12.5018 16.3368 12.5401 16.1444 12.5401 15.95C12.5401 15.7556 12.5018 15.5632 12.4274 15.3836C12.353 15.2041 12.244 15.0409 12.1066 14.9035C11.9692 14.7661 11.806 14.657 11.6264 14.5827C11.4469 14.5083 11.2544 14.47 11.0601 14.47C10.8657 14.47 10.6733 14.5083 10.4937 14.5827C10.3141 14.657 10.151 14.7661 10.0136 14.9035C9.87613 15.0409 9.76711 15.2041 9.69274 15.3836C9.61836 15.5632 9.58008 15.7556 9.58008 15.95Z" fill="#FFE236" stroke="#231F20" stroke-miterlimit="10"/>
<path d="M1.31005 10.29C0.650051 10.71 -0.319949 11.36 1.77005 13.93C3.86005 16.5 4.54005 16.11 4.87005 15.93C5.20005 15.75 5.87005 15.3 4.41005 12.29C2.95005 9.28002 2.00005 9.87002 1.31005 10.29Z" fill="#FFE236" stroke="#231F20" stroke-miterlimit="10"/>
<path d="M5 18.14C5 18.4503 5.12327 18.7479 5.34269 18.9673C5.5621 19.1868 5.8597 19.31 6.17 19.31C6.4803 19.31 6.7779 19.1868 6.99731 18.9673C7.21673 18.7479 7.34 18.4503 7.34 18.14C7.34 17.8297 7.21673 17.5321 6.99731 17.3127C6.7779 17.0933 6.4803 16.97 6.17 16.97C5.8597 16.97 5.5621 17.0933 5.34269 17.3127C5.12327 17.5321 5 17.8297 5 18.14Z" fill="#FFE236" stroke="#231F20" stroke-miterlimit="10"/>
</g>
<defs>
<clipPath id="clip0_2301_13384">
<rect width="40" height="40" fill="white"/>
</clipPath>
</defs>
</svg>
