<svg width="40" height="40" viewBox="0 0 40 40" fill="none" xmlns="http://www.w3.org/2000/svg">
<g clip-path="url(#clip0_2301_14686)">
<path d="M19.476 0.5C25.6 0.5 32.977 1.958 34.64 3.31C35.3069 3.89803 35.8831 4.58142 36.35 5.338C38.511 8.965 38.55 17.845 38.55 21.158C38.55 33.794 21.87 39.412 20.354 39.412C19.283 39.412 10.646 36.609 5.66603 30.509C3.13603 27.803 1.28003 24.369 1.28003 20.154C1.28003 16.451 1.32903 5.846 4.31303 3.309C5.97503 1.958 13.353 0.5 19.476 0.5Z" fill="#00034A" stroke="#00034A" stroke-miterlimit="10"/>
<path d="M34.64 3.31C32.977 1.957 25.6 0.5 19.476 0.5C13.352 0.5 5.97503 1.958 4.31303 3.31C1.32903 5.845 1.28003 16.45 1.28003 20.153C1.28003 32.789 17.96 38.408 19.476 38.408C20.993 38.408 37.672 32.789 37.672 20.153C37.672 16.459 37.624 5.845 34.64 3.308V3.31Z" fill="#9BFF00" stroke="#00034A" stroke-miterlimit="10"/>
<path d="M28.224 12.951C26.882 12.6716 25.5123 12.5478 24.142 12.582C24.1808 11.2145 24.0566 9.84717 23.772 8.50901C23.403 6.88601 20.934 6.68201 19.496 6.68201C18.057 6.68201 15.608 6.88601 15.209 8.50901C14.9295 9.84794 14.8054 11.2146 14.839 12.582C13.4719 12.5485 12.1056 12.6727 10.767 12.952C9.14396 13.321 8.93896 15.8 8.93896 17.238C8.93896 18.677 9.14396 21.126 10.767 21.515C12.105 21.799 13.472 21.923 14.84 21.885C14.805 23.255 14.93 24.625 15.209 25.967C15.579 27.59 18.057 27.794 19.496 27.794C20.934 27.794 23.384 27.59 23.772 25.967C24.057 24.626 24.182 23.255 24.142 21.884C25.512 21.924 26.882 21.8 28.224 21.515C29.847 21.145 30.052 18.677 30.052 17.238C30.052 15.8 29.886 13.321 28.224 12.951Z" fill="white" stroke="#00034A" stroke-miterlimit="10"/>
</g>
<defs>
<clipPath id="clip0_2301_14686">
<rect width="40" height="40" fill="white"/>
</clipPath>
</defs>
</svg>
