<svg width="40" height="40" viewBox="0 0 40 40" fill="none" xmlns="http://www.w3.org/2000/svg">
<path d="M35.6 3.39C33.89 2 26.3 0.5 20 0.5C13.7 0.5 6.11003 2 4.40003 3.39C1.33003 6 1.28003 16.91 1.28003 20.72C1.28003 33.72 18.44 39.5 20 39.5C21.56 39.5 38.72 33.72 38.72 20.72C38.72 16.92 38.67 6 35.6 3.39Z" fill="#FF52A1" stroke="#231F20" stroke-miterlimit="10"/>
<path d="M29.5 4.84C33.13 5 33.5 6.11 33.5 6.11" stroke="white" stroke-miterlimit="10" stroke-linecap="round"/>
<path d="M29 13.31C27.6193 13.0223 26.21 12.8948 24.8 12.93C24.8401 11.5232 24.7125 10.1166 24.42 8.73998C24.04 7.06999 21.5 6.85999 20.02 6.85999C18.54 6.85999 16.02 7.06999 15.61 8.73998C15.3228 10.1174 15.1953 11.5234 15.23 12.93C13.8234 12.8952 12.4175 13.0227 11.04 13.31C9.37003 13.69 9.16003 16.24 9.16003 17.72C9.16003 19.2 9.37003 21.72 11.04 22.12C12.4167 22.4125 13.8232 22.5401 15.23 22.5C15.1949 23.9099 15.3224 25.3192 15.61 26.7C15.99 28.37 18.54 28.58 20.02 28.58C21.5 28.58 24.02 28.37 24.42 26.7C24.713 25.32 24.8405 23.9101 24.8 22.5C26.2102 22.5405 27.6201 22.4129 29 22.12C30.67 21.74 30.88 19.2 30.88 17.72C30.88 16.24 30.71 13.69 29 13.31Z" fill="white" stroke="#231F20" stroke-miterlimit="10"/>
</svg>
