<svg width="40" height="40" viewBox="0 0 40 40" fill="none" xmlns="http://www.w3.org/2000/svg">
<g clip-path="url(#clip0_2301_14648)">
<path d="M5.66207 5.653C12.9141 -1.571 20.8501 -0.847996 27.3611 5.653C27.8261 6.119 28.3181 6.556 28.7851 7.022C34.2881 12.534 35.6351 19.079 31.5511 25.341C31.9361 25.63 32.3371 25.942 32.7641 26.282C36.1901 28.997 42.0271 33.556 37.8091 37.773C33.6381 41.944 28.9511 36.162 26.2731 32.763C25.9515 32.3548 25.6335 31.9438 25.3191 31.53C19.0771 35.552 12.5691 34.194 7.08607 28.71C6.62007 28.245 6.12807 27.808 5.66207 27.342C-0.83793 20.841 -1.58993 12.877 5.66207 5.653Z" fill="#00034A" stroke="#00034A" stroke-miterlimit="10" stroke-linecap="round" stroke-linejoin="round"/>
<path d="M27.3601 5.653C20.8501 -0.847996 12.9141 -1.571 5.66207 5.653C-1.58993 12.876 -0.83793 20.841 5.66207 27.342C11.2391 32.918 17.8741 34.228 24.2121 29.952C24.7701 30.838 25.4441 31.704 26.2721 32.764C32.2921 40.401 34.7671 38.022 36.3851 36.404C38.0031 34.786 40.3721 32.311 32.7641 26.282C31.7241 25.454 30.8381 24.79 29.9611 24.222C34.2471 17.884 32.9371 11.239 27.3611 5.652L27.3601 5.653Z" fill="#9BFF00" stroke="#00034A" stroke-miterlimit="10" stroke-linecap="round" stroke-linejoin="round"/>
<path d="M16.516 26.119C17.7796 26.119 19.0308 25.8701 20.1982 25.3865C21.3656 24.903 22.4263 24.1942 23.3198 23.3008C24.2133 22.4073 24.922 21.3466 25.4056 20.1792C25.8891 19.0118 26.138 17.7606 26.138 16.497C26.138 15.2334 25.8891 13.9823 25.4056 12.8149C24.922 11.6476 24.2132 10.587 23.3197 9.69355C22.4262 8.80014 21.3655 8.09149 20.1981 7.60804C19.0307 7.1246 17.7796 6.87585 16.516 6.87598C15.2526 6.87598 14.0015 7.12483 12.8342 7.60833C11.6669 8.09183 10.6063 8.80051 9.71295 9.6939C8.81955 10.5873 8.11088 11.6479 7.62737 12.8152C7.14387 13.9825 6.89502 15.2335 6.89502 16.497C6.89502 17.7604 7.14387 19.0115 7.62737 20.1788C8.11088 21.346 8.81955 22.4067 9.71295 23.3001C10.6063 24.1934 11.6669 24.9021 12.8342 25.3856C14.0015 25.8691 15.2526 26.119 16.516 26.119Z" fill="white" stroke="#00034A" stroke-miterlimit="10" stroke-linecap="round" stroke-linejoin="round"/>
<path d="M14.272 10.613C14.8957 10.0709 15.6868 9.75973 16.5127 9.73169C17.3385 9.70365 18.1489 9.96043 18.808 10.459" fill="white"/>
<path d="M14.272 10.613C14.8957 10.0709 15.6868 9.75973 16.5127 9.73169C17.3385 9.70365 18.1489 9.96043 18.808 10.459" stroke="#00034A" stroke-miterlimit="10" stroke-linecap="round" stroke-linejoin="round"/>
</g>
<defs>
<clipPath id="clip0_2301_14648">
<rect width="40" height="40" fill="white"/>
</clipPath>
</defs>
</svg>
