<svg width="40" height="40" viewBox="0 0 40 40" fill="none" xmlns="http://www.w3.org/2000/svg">
<g clip-path="url(#clip0_2301_13340)">
<path d="M28.39 5.85001C21.63 -0.899991 13.39 -1.64999 5.85996 5.85001C-1.67004 13.35 -0.890035 21.62 5.85996 28.37C11.65 34.16 18.54 35.52 25.12 31.08C25.7 32 26.4 32.9 27.26 34C33.51 41.93 36.08 39.46 37.76 37.78C39.44 36.1 41.9 33.53 34 27.27C32.92 26.41 32 25.72 31.09 25.13C35.54 18.55 34.18 11.65 28.39 5.85001Z" fill="#FF52A1" stroke="#231F20" stroke-miterlimit="10"/>
<path d="M7.13989 17.11C7.13989 19.7595 8.19241 22.3005 10.0659 24.174C11.9394 26.0475 14.4804 27.1 17.1299 27.1C19.7794 27.1 22.3204 26.0475 24.1939 24.174C26.0674 22.3005 27.1199 19.7595 27.1199 17.11C27.1199 14.4605 26.0674 11.9195 24.1939 10.046C22.3204 8.17251 19.7794 7.12 17.1299 7.12C14.4804 7.12 11.9394 8.17251 10.0659 10.046C8.19241 11.9195 7.13989 14.4605 7.13989 17.11Z" fill="white" stroke="#231F20" stroke-miterlimit="10"/>
<path d="M14.8 11C15.4476 10.4371 16.2691 10.114 17.1267 10.0848C17.9842 10.0557 18.8257 10.3223 19.51 10.84" fill="white"/>
<path d="M14.8 11C15.4476 10.4371 16.2691 10.114 17.1267 10.0848C17.9842 10.0557 18.8257 10.3223 19.51 10.84" stroke="#231F20" stroke-miterlimit="10" stroke-linecap="round"/>
<path d="M19.73 3.79001C21.624 3.99576 23.3688 4.91462 24.61 6.36001" stroke="white" stroke-miterlimit="10" stroke-linecap="round"/>
</g>
<defs>
<clipPath id="clip0_2301_13340">
<rect width="40" height="40" fill="white"/>
</clipPath>
</defs>
</svg>
