<svg width="40" height="40" viewBox="0 0 40 40" fill="none" xmlns="http://www.w3.org/2000/svg">
<g clip-path="url(#clip0_2301_13295)">
<path d="M16.8 14.49C16.8 17.5002 17.9958 20.3871 20.1244 22.5156C22.2529 24.6442 25.1398 25.84 28.15 25.84C31.1603 25.84 34.0472 24.6442 36.1757 22.5156C38.3043 20.3871 39.5 17.5002 39.5 14.49C39.5 11.4798 38.3043 8.59286 36.1757 6.46432C34.0472 4.33578 31.1603 3.13998 28.15 3.13998C25.1398 3.13998 22.2529 4.33578 20.1244 6.46432C17.9958 8.59286 16.8 11.4798 16.8 14.49Z" fill="#FFE236" stroke="#231F20" stroke-miterlimit="10"/>
<path d="M27.1801 24.19C25.4301 22.67 24.3601 19.29 24.0401 14.78C23.7201 10.27 24.3001 6.78 25.8301 5.03" stroke="#231F20" stroke-miterlimit="10" stroke-linecap="round"/>
<path d="M29.1101 4.79999C30.8701 6.30999 31.9301 9.69999 32.2501 14.2C32.5701 18.7 31.9901 22.2 30.4701 23.96" stroke="#231F20" stroke-miterlimit="10" stroke-linecap="round"/>
<path d="M19 11.63C21.918 11.0258 24.8756 10.6314 27.85 10.45C30.821 10.2113 33.8052 10.1846 36.78 10.37" stroke="#231F20" stroke-miterlimit="10" stroke-linecap="round"/>
<path d="M37.29 17.36C34.3685 17.9634 31.4076 18.3577 28.43 18.54C25.459 18.7786 22.4748 18.8054 19.5 18.62" stroke="#231F20" stroke-miterlimit="10" stroke-linecap="round"/>
<path d="M35.8101 7.92999C34.9934 6.75669 33.8736 5.82699 32.5701 5.23999" stroke="white" stroke-miterlimit="10" stroke-linecap="round"/>
<path d="M22.2801 30.58C23.3701 29.92 23.7701 28.36 23.9001 27.09C24.0301 25.82 23.9901 24.21 23.0701 23.33C24.1601 22.67 24.5601 21.11 24.7001 19.84C24.8701 18.28 24.7701 16.18 23.1001 15.59C22.2801 15.09 17.7401 14.19 13.9501 13.77C10.1601 13.35 5.52006 13.26 4.62006 13.57C2.86006 13.78 2.31006 15.82 2.14006 17.37C2.00006 18.64 2.05006 20.25 3.00006 21.13C1.91006 21.8 1.51006 23.36 1.37006 24.62C1.23006 25.88 1.29006 27.5 2.21006 28.39C1.09006 29.05 0.690063 30.61 0.550063 31.88C0.380063 33.43 0.480063 35.54 2.15006 36.13C2.97006 36.63 7.51006 37.53 11.3001 37.94C15.0901 38.35 19.7301 38.46 20.6301 38.15C22.3901 37.93 22.9401 35.9 23.1101 34.34C23.2501 33.08 23.2001 31.47 22.2801 30.58Z" fill="#48EEFF" stroke="#231F20" stroke-miterlimit="10"/>
<path d="M20.2901 22.85C18.1674 22.4308 16.0246 22.1204 13.8701 21.92C11.7233 21.6472 9.56371 21.4869 7.40015 21.44" stroke="#231F20" stroke-miterlimit="10" stroke-linecap="round"/>
<path d="M20 18C19.4677 17.8956 18.9303 17.8188 18.39 17.77C17.8532 17.695 17.312 17.6549 16.77 17.65" stroke="#231F20" stroke-miterlimit="10" stroke-linecap="round"/>
<path d="M19.8001 19.88C19.4901 19.81 18.9601 19.73 18.2001 19.64C17.4401 19.55 16.8901 19.52 16.5801 19.52" stroke="#231F20" stroke-miterlimit="10" stroke-linecap="round"/>
<path d="M6.57007 29.05C7.80007 29.32 9.94007 29.64 12.9901 29.98C16.0401 30.32 18.2001 30.46 19.4601 30.46" stroke="#231F20" stroke-miterlimit="10" stroke-linecap="round"/>
<path d="M5.39014 17.46C5.39014 17.7836 5.51867 18.0939 5.74747 18.3227C5.97626 18.5515 6.28657 18.68 6.61014 18.68C6.9337 18.68 7.24401 18.5515 7.47281 18.3227C7.7016 18.0939 7.83014 17.7836 7.83014 17.46C7.83014 17.2998 7.79858 17.1411 7.73727 16.9931C7.67596 16.8451 7.58609 16.7106 7.47281 16.5973C7.35952 16.484 7.22503 16.3942 7.07701 16.3329C6.92899 16.2715 6.77035 16.24 6.61014 16.24C6.44992 16.24 6.29128 16.2715 6.14326 16.3329C5.99525 16.3942 5.86075 16.484 5.74747 16.5973C5.63418 16.7106 5.54431 16.8451 5.483 16.9931C5.42169 17.1411 5.39014 17.2998 5.39014 17.46Z" fill="white" stroke="#231F20" stroke-miterlimit="10" stroke-linecap="round"/>
<path d="M10.23 17.98C10.23 18.1402 10.2615 18.2988 10.3228 18.4469C10.3842 18.5949 10.474 18.7294 10.5873 18.8426C10.7006 18.9559 10.8351 19.0458 10.9831 19.1071C11.1311 19.1684 11.2898 19.2 11.45 19.2C11.6102 19.2 11.7688 19.1684 11.9169 19.1071C12.0649 19.0458 12.1994 18.9559 12.3127 18.8426C12.4259 18.7294 12.5158 18.5949 12.5771 18.4469C12.6384 18.2988 12.67 18.1402 12.67 17.98C12.67 17.8198 12.6384 17.6611 12.5771 17.5131C12.5158 17.3651 12.4259 17.2306 12.3127 17.1173C12.1994 17.004 12.0649 16.9142 11.9169 16.8528C11.7688 16.7915 11.6102 16.76 11.45 16.76C11.2898 16.76 11.1311 16.7915 10.9831 16.8528C10.8351 16.9142 10.7006 17.004 10.5873 17.1173C10.474 17.2306 10.3842 17.3651 10.3228 17.5131C10.2615 17.6611 10.23 17.8198 10.23 17.98Z" fill="white" stroke="#231F20" stroke-miterlimit="10" stroke-linecap="round"/>
<path d="M19.21 25.25C18.6812 25.1446 18.1471 25.0678 17.61 25.02C17.0759 24.9509 16.5384 24.9108 16 24.9" stroke="#231F20" stroke-miterlimit="10" stroke-linecap="round"/>
<path d="M19 27.13C18.4678 27.0248 17.9304 26.948 17.39 26.9C16.8532 26.825 16.312 26.7849 15.77 26.78" stroke="#231F20" stroke-miterlimit="10" stroke-linecap="round"/>
<path d="M4.6001 24.71C4.6001 24.8702 4.63165 25.0288 4.69296 25.1769C4.75428 25.3249 4.84414 25.4594 4.95743 25.5727C5.07071 25.6859 5.20521 25.7758 5.35322 25.8371C5.50124 25.8984 5.65989 25.93 5.8201 25.93C5.98031 25.93 6.13895 25.8984 6.28697 25.8371C6.43499 25.7758 6.56948 25.6859 6.68277 25.5727C6.79606 25.4594 6.88592 25.3249 6.94723 25.1769C7.00854 25.0288 7.0401 24.8702 7.0401 24.71C7.0401 24.5498 7.00854 24.3911 6.94723 24.2431C6.88592 24.0951 6.79606 23.9606 6.68277 23.8473C6.56948 23.734 6.43499 23.6442 6.28697 23.5829C6.13895 23.5215 5.98031 23.49 5.8201 23.49C5.65989 23.49 5.50124 23.5215 5.35322 23.5829C5.20521 23.6442 5.07071 23.734 4.95743 23.8473C4.84414 23.9606 4.75428 24.0951 4.69296 24.2431C4.63165 24.3911 4.6001 24.5498 4.6001 24.71Z" fill="white" stroke="#231F20" stroke-miterlimit="10" stroke-linecap="round"/>
<path d="M9.43018 25.24C9.43018 25.4002 9.46173 25.5588 9.52304 25.7069C9.58435 25.8549 9.67422 25.9894 9.78751 26.1027C9.90079 26.2159 10.0353 26.3058 10.1833 26.3671C10.3313 26.4284 10.49 26.46 10.6502 26.46C10.8104 26.46 10.969 26.4284 11.117 26.3671C11.2651 26.3058 11.3996 26.2159 11.5128 26.1027C11.6261 25.9894 11.716 25.8549 11.7773 25.7069C11.8386 25.5588 11.8702 25.4002 11.8702 25.24C11.8702 25.0798 11.8386 24.9211 11.7773 24.7731C11.716 24.6251 11.6261 24.4906 11.5128 24.3773C11.3996 24.264 11.2651 24.1742 11.117 24.1129C10.969 24.0515 10.8104 24.02 10.6502 24.02C10.49 24.02 10.3313 24.0515 10.1833 24.1129C10.0353 24.1742 9.90079 24.264 9.78751 24.3773C9.67422 24.4906 9.58435 24.6251 9.52304 24.7731C9.46173 24.9211 9.43018 25.0798 9.43018 25.24Z" fill="white" stroke="#231F20" stroke-miterlimit="10" stroke-linecap="round"/>
<path d="M18.3301 33.31C18.0201 33.24 17.4901 33.16 16.7301 33.07C15.9701 32.98 15.4201 33 15.1101 33" stroke="#231F20" stroke-miterlimit="10" stroke-linecap="round"/>
<path d="M18.1301 35.18C17.8201 35.12 17.2801 35.04 16.5201 34.95C15.7601 34.86 15.2201 34.83 14.9001 34.83" stroke="#231F20" stroke-miterlimit="10" stroke-linecap="round"/>
<path d="M3.71997 32.76C3.71997 33.0835 3.84851 33.3939 4.0773 33.6226C4.30609 33.8514 4.61641 33.98 4.93997 33.98C5.26353 33.98 5.57385 33.8514 5.80264 33.6226C6.03144 33.3939 6.15997 33.0835 6.15997 32.76C6.15997 32.4364 6.03144 32.1261 5.80264 31.8973C5.57385 31.6685 5.26353 31.54 4.93997 31.54C4.61641 31.54 4.30609 31.6685 4.0773 31.8973C3.84851 32.1261 3.71997 32.4364 3.71997 32.76Z" fill="white" stroke="#231F20" stroke-miterlimit="10" stroke-linecap="round"/>
<path d="M8.55005 33.29C8.55005 33.6135 8.67858 33.9239 8.90738 34.1526C9.13617 34.3814 9.44648 34.51 9.77005 34.51C10.0936 34.51 10.4039 34.3814 10.6327 34.1526C10.8615 33.9239 10.99 33.6135 10.99 33.29C10.99 32.9664 10.8615 32.6561 10.6327 32.4273C10.4039 32.1985 10.0936 32.07 9.77005 32.07C9.44648 32.07 9.13617 32.1985 8.90738 32.4273C8.67858 32.6561 8.55005 32.9664 8.55005 33.29Z" fill="white" stroke="#231F20" stroke-miterlimit="10" stroke-linecap="round"/>
<path d="M21.8301 16.63C22.7401 17 23.0001 17 23.0001 18" stroke="white" stroke-miterlimit="10" stroke-linecap="round"/>
<path d="M5.67017 8.94001C5.67017 9.36966 5.84084 9.78171 6.14465 10.0855C6.44846 10.3893 6.86052 10.56 7.29017 10.56C7.71982 10.56 8.13187 10.3893 8.43568 10.0855C8.73949 9.78171 8.91017 9.36966 8.91017 8.94001C8.91017 8.51036 8.73949 8.0983 8.43568 7.79449C8.13187 7.49069 7.71982 7.32001 7.29017 7.32001C6.86052 7.32001 6.44846 7.49069 6.14465 7.79449C5.84084 8.0983 5.67017 8.51036 5.67017 8.94001Z" fill="#FF52A1" stroke="#231F20" stroke-miterlimit="10"/>
<path d="M30.1101 31.27C30.1101 31.8614 30.3451 32.4286 30.7633 32.8469C31.1815 33.2651 31.7487 33.5 32.3401 33.5C32.9315 33.5 33.4987 33.2651 33.917 32.8469C34.3352 32.4286 34.5701 31.8614 34.5701 31.27C34.5701 30.6786 34.3352 30.1114 33.917 29.6932C33.4987 29.275 32.9315 29.04 32.3401 29.04C31.7487 29.04 31.1815 29.275 30.7633 29.6932C30.3451 30.1114 30.1101 30.6786 30.1101 31.27Z" fill="#FF52A1" stroke="#231F20" stroke-miterlimit="10"/>
<path d="M9.85012 5.48999C9.60194 5.28503 9.44481 4.9903 9.41297 4.67C9.38113 4.34971 9.47715 4.02981 9.68012 3.77999C10.0811 3.19474 10.6045 2.70355 11.2139 2.34036C11.8234 1.97718 12.5044 1.75068 13.21 1.67651C13.9156 1.60234 14.6288 1.68227 15.3005 1.91078C15.9722 2.13929 16.5862 2.51092 17.1001 2.99999C17.336 3.20873 17.482 3.50059 17.5075 3.8145C17.5331 4.12841 17.4363 4.44005 17.2373 4.68421C17.0384 4.92837 16.7527 5.08613 16.4401 5.12449C16.1275 5.16284 15.8122 5.07882 15.5601 4.88999C14.0801 3.67999 12.7701 3.80999 11.5601 5.28999C11.3595 5.54268 11.0669 5.7056 10.7464 5.74308C10.4259 5.78056 10.1037 5.68956 9.85012 5.48999Z" fill="#FF52A1" stroke="#231F20" stroke-miterlimit="10"/>
</g>
<defs>
<clipPath id="clip0_2301_13295">
<rect width="40" height="40" fill="white"/>
</clipPath>
</defs>
</svg>
