<svg width="40" height="40" viewBox="0 0 40 40" fill="none" xmlns="http://www.w3.org/2000/svg">
<g clip-path="url(#clip0_2301_13252)">
<path d="M22.16 8.50001C21.54 7.56001 18.77 7.28001 16.01 7.23001C16.5115 6.62648 16.9598 5.98074 17.35 5.30001C17.4952 5.05114 17.5398 4.75621 17.4747 4.47554C17.4097 4.19487 17.2399 3.94965 17 3.79001C16.8085 3.57031 16.54 3.43234 16.2499 3.40444C15.9597 3.37654 15.6699 3.46084 15.44 3.64001C14.4133 4.53218 13.4633 5.50894 12.6 6.56001L12.15 7.09001L11.67 6.60001C10.743 5.62822 9.73979 4.73204 8.67003 3.92001C8.42728 3.76025 8.13268 3.69923 7.84645 3.74942C7.56021 3.7996 7.30395 3.9572 7.13003 4.19001C6.89561 4.36246 6.73602 4.61804 6.68396 4.90436C6.6319 5.19069 6.69131 5.48608 6.85003 5.73001C7.2963 6.37903 7.79819 6.98799 8.35003 7.55001C5.60003 7.82001 2.86003 8.33001 2.35003 9.31001C1.52003 10.07 1.59003 13.89 1.72003 17.06C1.85003 20.23 2.00003 24 2.93003 24.73C3.24174 25.0795 3.65391 25.324 4.11003 25.43C3.95265 25.9048 3.82573 26.3891 3.73003 26.88C3.653 27.1077 3.62287 27.3485 3.64144 27.5881C3.66002 27.8277 3.72692 28.0611 3.83812 28.2741C3.94931 28.4872 4.1025 28.6755 4.28844 28.8278C4.47438 28.98 4.68923 29.093 4.92003 29.16C5.13469 29.2705 5.3697 29.336 5.6106 29.3523C5.8515 29.3686 6.09319 29.3355 6.3208 29.2549C6.54842 29.1744 6.75715 29.0481 6.93415 28.8839C7.11115 28.7197 7.25268 28.521 7.35003 28.3C7.79533 27.5595 8.19281 26.7913 8.54003 26C10.08 26.05 11.68 26 12.93 26C14.18 26 15.77 25.85 17.31 25.68C17.7215 26.4469 18.1791 27.1883 18.68 27.9C18.7959 28.1113 18.9536 28.2966 19.1436 28.4448C19.3336 28.5929 19.5518 28.7008 19.785 28.7616C20.0181 28.8225 20.2612 28.8351 20.4993 28.7987C20.7375 28.7623 20.9657 28.6777 21.17 28.55C21.3947 28.4644 21.5996 28.3342 21.7726 28.1673C21.9455 28.0003 22.0828 27.8001 22.1763 27.5786C22.2697 27.3572 22.3174 27.1191 22.3163 26.8787C22.3152 26.6383 22.2655 26.4006 22.17 26.18C22.0386 25.6983 21.8714 25.227 21.67 24.77C22.1187 24.6287 22.5109 24.3486 22.79 23.97C23.62 23.22 23.55 19.39 23.42 16.23C23.29 13.07 23.05 9.18001 22.16 8.50001Z" fill="#FF52A1" stroke="#231F20" stroke-miterlimit="10"/>
<path d="M19.42 11.06C18.76 10.06 14.67 10.3 12.29 10.4C9.91001 10.5 5.81001 10.64 5.29001 11.65C4.69001 12.16 4.74001 14.77 4.83001 16.93C4.92001 19.09 5.08001 21.7 5.72001 22.16C6.38001 23.11 10.47 22.93 12.85 22.83C15.23 22.73 19.33 22.58 19.9 21.58C20.5 21.06 20.45 18.45 20.37 16.29C20.29 14.13 20.06 11.53 19.42 11.06Z" fill="white" stroke="#231F20" stroke-miterlimit="10"/>
<path d="M18.3601 8.58002C20.1401 8.79002 20.6401 8.98002 20.9701 9.29002" stroke="white" stroke-miterlimit="10" stroke-linecap="round"/>
<path d="M38.3599 21.88C38.6999 19.88 35.9799 17.76 34.1799 16.59C32.3799 15.42 29.3099 13.81 27.6499 14.92C26.7299 15.54 23.8399 19.67 21.5299 23.21C19.2199 26.75 16.6299 31.08 16.4399 32.16C16.0999 34.16 18.8199 36.29 20.6199 37.46C22.4199 38.63 25.4999 40.24 27.1499 39.13C28.0699 38.51 30.9699 34.38 33.2699 30.84C35.5699 27.3 38.1699 23 38.3599 21.88Z" fill="#48EEFF" stroke="#231F20" stroke-miterlimit="10"/>
<path d="M24.4299 24.42C24.4299 25.0333 24.5507 25.6405 24.7854 26.2071C25.0201 26.7737 25.3641 27.2885 25.7977 27.7222C26.2314 28.1558 26.7462 28.4998 27.3128 28.7345C27.8794 28.9692 28.4867 29.09 29.0999 29.09C29.7132 29.09 30.3205 28.9692 30.8871 28.7345C31.4537 28.4998 31.9685 28.1558 32.4021 27.7222C32.8358 27.2885 33.1798 26.7737 33.4144 26.2071C33.6491 25.6405 33.7699 25.0333 33.7699 24.42C33.7699 23.1814 33.2779 21.9936 32.4021 21.1178C31.5263 20.242 30.3385 19.75 29.0999 19.75C27.8614 19.75 26.6735 20.242 25.7977 21.1178C24.9219 21.9936 24.4299 23.1814 24.4299 24.42Z" fill="white" stroke="#231F20" stroke-miterlimit="10"/>
<path d="M19.9399 34.23C19.9399 34.23 20.5599 34.69 21.8599 35.54C23.1599 36.39 23.8599 36.77 23.8599 36.77" stroke="#231F20" stroke-miterlimit="10" stroke-linecap="round"/>
<path d="M29.23 17.08L30.53 17.93" stroke="#231F20" stroke-miterlimit="10" stroke-linecap="round"/>
<path d="M21.1899 29.78C21.1899 30.0903 21.3132 30.3879 21.5326 30.6073C21.752 30.8267 22.0496 30.95 22.3599 30.95C22.6702 30.95 22.9678 30.8267 23.1873 30.6073C23.4067 30.3879 23.5299 30.0903 23.5299 29.78C23.5299 29.4697 23.4067 29.1721 23.1873 28.9527C22.9678 28.7333 22.6702 28.61 22.3599 28.61C22.0496 28.61 21.752 28.7333 21.5326 28.9527C21.3132 29.1721 21.1899 29.4697 21.1899 29.78Z" fill="white" stroke="#231F20" stroke-miterlimit="10" stroke-linecap="round"/>
<path d="M25.76 32.75C25.76 33.0603 25.8833 33.3579 26.1027 33.5773C26.3221 33.7967 26.6197 33.92 26.93 33.92C27.2403 33.92 27.5379 33.7967 27.7573 33.5773C27.9767 33.3579 28.1 33.0603 28.1 32.75C28.1 32.4397 27.9767 32.1421 27.7573 31.9227C27.5379 31.7033 27.2403 31.58 26.93 31.58C26.6197 31.58 26.3221 31.7033 26.1027 31.9227C25.8833 32.1421 25.76 32.4397 25.76 32.75Z" fill="white" stroke="#231F20" stroke-miterlimit="10" stroke-linecap="round"/>
<path d="M27.54 24.42C27.54 24.8337 27.7044 25.2305 27.997 25.5231C28.2895 25.8156 28.6863 25.98 29.1 25.98C29.5138 25.98 29.9106 25.8156 30.2031 25.5231C30.4957 25.2305 30.66 24.8337 30.66 24.42C30.66 24.0062 30.4957 23.6095 30.2031 23.3169C29.9106 23.0243 29.5138 22.86 29.1 22.86C28.6863 22.86 28.2895 23.0243 27.997 23.3169C27.7044 23.6095 27.54 24.0062 27.54 24.42Z" fill="#FFE236" stroke="#231F20" stroke-miterlimit="10" stroke-linecap="round"/>
<path d="M28.77 22.89L28.45 21.37" stroke="#231F20" stroke-miterlimit="10" stroke-linecap="round"/>
<path d="M29.7399 27.46L29.4199 25.94" stroke="#231F20" stroke-miterlimit="10" stroke-linecap="round"/>
<path d="M30.6199 24.09L32.1399 23.77" stroke="#231F20" stroke-miterlimit="10" stroke-linecap="round"/>
<path d="M26.05 25.06L27.58 24.74" stroke="#231F20" stroke-miterlimit="10" stroke-linecap="round"/>
<path d="M36.1499 19.86C37.0499 20.86 37.0599 21.28 37.0099 21.58" stroke="white" stroke-miterlimit="10" stroke-linecap="round"/>
<path d="M30.16 5.47001C30.7289 4.35604 31.2006 3.19507 31.57 2.00001C31.5998 1.89488 31.6077 1.78477 31.5933 1.67645C31.5789 1.56813 31.5425 1.46391 31.4863 1.37021C31.4301 1.27652 31.3553 1.19533 31.2665 1.13166C31.1777 1.06799 31.0768 1.02318 30.97 1.00001C30.28 0.84001 26.46 0.27001 25.97 0.51001C25.7651 0.574738 25.5911 0.712152 25.4805 0.896353C25.37 1.08055 25.3307 1.29882 25.37 1.51001C25.6224 2.45409 25.9571 3.37427 26.37 4.26001C25.6456 4.03475 24.9027 3.87412 24.15 3.78001C23.65 3.78001 23.38 4.15001 23.26 4.53001C23.1714 4.72364 23.156 4.94283 23.2167 5.14694C23.2773 5.35105 23.41 5.52623 23.59 5.64001C24.6573 6.13568 25.7646 6.54045 26.9 6.85001C26.3653 7.90059 25.9204 8.99449 25.57 10.12C25.5284 10.3314 25.5668 10.5507 25.6776 10.7354C25.7885 10.9202 25.9639 11.0572 26.17 11.12C26.3394 11.2289 26.541 11.2764 26.7412 11.2545C26.9414 11.2327 27.128 11.1429 27.27 11C27.714 10.3719 28.0958 9.7021 28.41 9.00001C28.7913 9.89925 29.2462 10.7655 29.77 11.59C29.8899 11.7631 30.0691 11.8862 30.2737 11.9359C30.4782 11.9857 30.694 11.9587 30.88 11.86C31.43 11.75 33.63 8.39001 33.98 7.77001C34.0324 7.67573 34.0654 7.57194 34.0772 7.46471C34.089 7.35749 34.0792 7.249 34.0484 7.1456C34.0177 7.04221 33.9666 6.94599 33.8982 6.86261C33.8298 6.77922 33.7454 6.71034 33.65 6.66001C32.5211 6.16874 31.3538 5.77074 30.16 5.47001ZM28.29 3.07001L28.7 3.13001C28.64 3.26001 28.57 3.39001 28.5 3.52001L28.29 3.07001ZM30.49 8.00001L30.92 8.11001L30.68 8.46001L30.49 8.00001Z" fill="#FFE236" stroke="#231F20" stroke-miterlimit="10"/>
<path d="M35.6301 12.04C35.6301 12.4087 35.7766 12.7622 36.0372 13.0229C36.2979 13.2836 36.6515 13.43 37.0201 13.43C37.3888 13.43 37.7423 13.2836 38.003 13.0229C38.2637 12.7622 38.4101 12.4087 38.4101 12.04C38.4101 11.6714 38.2637 11.3178 38.003 11.0571C37.7423 10.7965 37.3888 10.65 37.0201 10.65C36.6515 10.65 36.2979 10.7965 36.0372 11.0571C35.7766 11.3178 35.6301 11.6714 35.6301 12.04Z" fill="#FFE236" stroke="#231F20" stroke-miterlimit="10"/>
<path d="M9.07007 32.75C9.07007 33.2062 9.25128 33.6437 9.57384 33.9662C9.89641 34.2888 10.3339 34.47 10.7901 34.47C11.2462 34.47 11.6837 34.2888 12.0063 33.9662C12.3289 33.6437 12.5101 33.2062 12.5101 32.75C12.5101 32.2938 12.3289 31.8563 12.0063 31.5338C11.6837 31.2112 11.2462 31.03 10.7901 31.03C10.3339 31.03 9.89641 31.2112 9.57384 31.5338C9.25128 31.8563 9.07007 32.2938 9.07007 32.75Z" fill="#FFE236" stroke="#231F20" stroke-miterlimit="10"/>
</g>
<defs>
<clipPath id="clip0_2301_13252">
<rect width="40" height="40" fill="white"/>
</clipPath>
</defs>
</svg>
