<svg width="40" height="40" viewBox="0 0 40 40" fill="none" xmlns="http://www.w3.org/2000/svg">
<g clip-path="url(#clip0_2301_13218)">
<path d="M38.24 13.84C36.2891 12.9177 34.2294 12.2457 32.11 11.84C30.5166 11.5252 28.9023 11.328 27.28 11.25C26.721 9.83015 26.0523 8.45599 25.28 7.13999C24.2537 5.24359 22.9939 3.48322 21.53 1.89999C21.0721 1.47041 20.4678 1.23132 19.84 1.23132C19.2121 1.23132 18.6079 1.47041 18.15 1.89999C16.686 3.49781 15.4264 5.27141 14.4 7.17999C13.6636 8.51269 13.0155 9.89233 12.46 11.31C10.9263 11.3931 9.40158 11.597 7.89999 11.92C5.7808 12.3145 3.7185 12.9695 1.75999 13.87C1.21987 14.1835 0.81728 14.6886 0.632056 15.285C0.446831 15.8814 0.492493 16.5257 0.759987 17.09C1.81006 18.9712 3.08987 20.7145 4.56999 22.28C5.62758 23.408 6.75658 24.4668 7.94999 25.45C7.49744 27.0371 7.17964 28.6595 6.99999 30.3C6.73248 32.435 6.73248 34.595 6.99999 36.73C7.1172 37.349 7.46565 37.9003 7.97455 38.2717C8.48345 38.6432 9.11466 38.807 9.73999 38.73C11.8514 38.3181 13.9037 37.6463 15.85 36.73C17.228 36.0736 18.5639 35.3322 19.85 34.51C21.1335 35.3364 22.4697 36.078 23.85 36.73C25.7958 37.6476 27.8482 38.3195 29.96 38.73C30.5853 38.807 31.2165 38.6432 31.7254 38.2717C32.2343 37.9003 32.5828 37.349 32.7 36.73C32.9675 34.595 32.9675 32.435 32.7 30.3C32.535 28.7299 32.2475 27.1752 31.84 25.65C33.1481 24.6224 34.3628 23.4813 35.47 22.24C36.9489 20.6711 38.2316 18.9284 39.29 17.05C39.5552 16.4816 39.5943 15.8336 39.3993 15.2375C39.2043 14.6414 38.7899 14.1417 38.24 13.84Z" fill="#FFE236" stroke="#231F20" stroke-miterlimit="10"/>
<path d="M21.52 5.84C22.4794 7.18198 23.3098 8.61168 24 10.11" stroke="white" stroke-miterlimit="10" stroke-linecap="round"/>
</g>
<defs>
<clipPath id="clip0_2301_13218">
<rect width="40" height="40" fill="white"/>
</clipPath>
</defs>
</svg>
