<svg width="40" height="40" viewBox="0 0 40 40" fill="none" xmlns="http://www.w3.org/2000/svg">
<g clip-path="url(#clip0_2301_14509)">
<path d="M30.9889 11.6302C33.0081 12.0167 34.9703 12.657 36.8289 13.5356C37.5795 13.9477 38.7275 15.2674 38.9924 16.0769C39.1788 16.646 39.1416 17.2631 38.8884 17.8038C37.8799 19.5936 36.6575 21.2541 35.2482 22.7489C34.1936 23.9315 33.0365 25.0187 31.7905 25.9976C32.179 27.4509 32.453 28.9325 32.6098 30.4286C32.8649 32.4626 32.8649 34.5202 32.6098 36.5542C32.3777 37.7777 31.236 38.6112 29.9999 38.4596C27.9875 38.0686 26.0317 37.4285 24.1775 36.5542C22.8625 35.9332 21.5895 35.2269 20.3666 34.4397C19.1414 35.2228 17.8686 35.929 16.5557 36.5542C14.7014 37.4272 12.746 38.0672 10.7344 38.4596C10.1387 38.533 9.53738 38.3769 9.05258 38.023C8.33138 37.4971 7.23148 36.2255 7.06468 35.3444C6.80978 33.3102 6.80978 31.2521 7.06468 29.2179C7.22758 27.7382 7.50718 26.2733 7.90268 24.8379C7.17588 24.1844 6.47728 23.5002 5.80878 22.7872C5.40578 22.3612 5.01798 21.921 4.64608 21.4675C3.27958 20.0042 2.09548 18.3806 1.11968 16.6322C0.591177 15.5174 1.00538 14.1835 2.07248 13.5641C3.93838 12.7063 5.90328 12.0825 7.92228 11.7067C9.35298 11.3988 10.8057 11.2042 12.267 11.1249C12.7964 9.77428 13.4139 8.45998 14.1155 7.19028C15.0933 5.37188 16.2934 3.68218 17.688 2.15978C18.5933 1.31018 20.0029 1.31018 20.9082 2.15978C22.6646 4.05838 24.3051 6.08058 25.5394 8.36278C26.0604 9.24878 26.5304 10.1623 26.9504 11.1003C28.3064 11.1896 29.6555 11.3672 30.9889 11.6302Z" fill="#00034A" stroke="#00034A" stroke-miterlimit="10"/>
<path d="M36.8288 13.5356C34.9702 12.657 33.008 12.0167 30.9888 11.6302C29.4707 11.3302 27.9327 11.1423 26.3871 11.068C25.8545 9.71548 25.2174 8.40658 24.4816 7.15298C23.5036 5.34588 22.3031 3.66838 20.9081 2.15978C20.0028 1.31018 18.5932 1.31018 17.6879 2.15978C16.2933 3.68218 15.0932 5.37188 14.1154 7.19028C13.4138 8.45998 12.7963 9.77428 12.2668 11.1249C10.8049 11.2043 9.35273 11.3996 7.92223 11.7067C5.90323 12.0825 3.93833 12.7063 2.07243 13.5641C1.00573 14.1838 0.591933 15.5176 1.12063 16.6322C2.12083 18.4246 3.34003 20.0857 4.75003 21.5774C5.75763 22.652 6.83323 23.6608 7.97023 24.5975C7.53893 26.1097 7.23593 27.6556 7.06463 29.2188C6.80983 31.2527 6.80983 33.3105 7.06463 35.3444C7.29633 36.5682 8.43833 37.4019 9.67463 37.2498C11.6866 36.8576 13.6423 36.2176 15.4969 35.3444C16.8098 34.7189 18.0826 34.0124 19.3078 33.2289C20.5306 34.0164 21.8036 34.7231 23.1187 35.3444C24.9726 36.2186 26.9281 36.8587 28.9401 37.2498C30.1763 37.4019 31.3183 36.5682 31.55 35.3444C31.8051 33.3104 31.8051 31.2528 31.55 29.2179C31.3931 27.7221 31.1195 26.2409 30.7317 24.7878C31.978 23.8089 33.1354 22.7218 34.1904 21.5391C35.5993 20.0443 36.8213 18.3837 37.8296 16.594C38.3532 15.47 37.9155 14.1326 36.8288 13.5356Z" fill="#9BFF00" stroke="#00034A" stroke-miterlimit="10"/>
</g>
<defs>
<clipPath id="clip0_2301_14509">
<rect width="40" height="40" fill="white"/>
</clipPath>
</defs>
</svg>
