<svg width="40" height="40" viewBox="0 0 40 40" fill="none" xmlns="http://www.w3.org/2000/svg">
<g clip-path="url(#clip0_2301_13206)">
<path d="M10.8201 19.9C10.8201 21.1055 11.0575 22.2993 11.5189 23.413C11.9802 24.5268 12.6564 25.5388 13.5088 26.3912C14.3613 27.2437 15.3733 27.9199 16.487 28.3812C17.6008 28.8426 18.7945 29.08 20.0001 29.08C21.2056 29.08 22.3993 28.8426 23.5131 28.3812C24.6269 27.9199 25.6389 27.2437 26.4913 26.3912C27.3438 25.5388 28.0199 24.5268 28.4813 23.413C28.9426 22.2993 29.1801 21.1055 29.1801 19.9C29.1801 18.6945 28.9426 17.5007 28.4813 16.387C28.0199 15.2732 27.3438 14.2612 26.4913 13.4088C25.6389 12.5563 24.6269 11.8801 23.5131 11.4188C22.3993 10.9574 21.2056 10.72 20.0001 10.72C18.7945 10.72 17.6008 10.9574 16.487 11.4188C15.3733 11.8801 14.3613 12.5563 13.5088 13.4088C12.6564 14.2612 11.9802 15.2732 11.5189 16.387C11.0575 17.5007 10.8201 18.6945 10.8201 19.9Z" fill="#FFE236" stroke="#231F20" stroke-miterlimit="10"/>
<path d="M23.4299 5.99999C23.4299 5.99999 23.5599 5.27999 22.3299 3.06999C21.8916 2.24511 21.3506 1.47902 20.7199 0.789989C20.5245 0.603542 20.2649 0.499512 19.9949 0.499512C19.7248 0.499512 19.4652 0.603542 19.2699 0.789989C18.6469 1.4574 18.1094 2.19978 17.6699 2.99999C17.1191 3.92349 16.7428 4.9404 16.5599 5.99999C16.5452 6.24177 16.6108 6.48162 16.7464 6.68233C16.882 6.88303 17.0801 7.03336 17.3099 7.10999C18.1907 7.31802 19.0952 7.4088 19.9999 7.37999C20.9034 7.39192 21.8046 7.28432 22.6799 7.05999C22.902 6.98711 23.0949 6.84473 23.2299 6.65386C23.365 6.46299 23.4351 6.23375 23.4299 5.99999Z" fill="#FFE236" stroke="#231F20" stroke-miterlimit="10"/>
<path d="M16.57 34.05C16.57 34.05 16.44 34.77 17.67 36.98C18.1119 37.7874 18.6527 38.5365 19.28 39.21C19.4753 39.3964 19.7349 39.5005 20.005 39.5005C20.275 39.5005 20.5346 39.3964 20.73 39.21C21.3518 38.5416 21.8891 37.7994 22.33 37C22.8698 36.0964 23.2455 35.1044 23.44 34.07C23.4546 33.8282 23.389 33.5884 23.2534 33.3877C23.1178 33.1869 22.9198 33.0366 22.69 32.96C21.8123 32.728 20.9077 32.6137 20 32.62C19.0931 32.6075 18.1886 32.7151 17.31 32.94C17.081 33.0147 16.8832 33.1632 16.7475 33.3622C16.6118 33.5612 16.5459 33.7995 16.56 34.04L16.57 34.05Z" fill="#FFE236" stroke="#231F20" stroke-miterlimit="10"/>
<path d="M12.4899 7.63999C12.4899 7.63999 12.0699 6.99999 9.63992 6.34999C8.75437 6.0924 7.84125 5.94133 6.91992 5.89999C6.65938 5.91437 6.41329 6.02434 6.22878 6.20885C6.04427 6.39336 5.9343 6.63945 5.91992 6.89999C5.95682 7.82179 6.10798 8.73543 6.36992 9.61999C6.61262 10.6482 7.0395 11.6239 7.62992 12.5C7.79306 12.695 8.0187 12.8274 8.26846 12.8748C8.51822 12.9222 8.77669 12.8816 8.99992 12.76C9.77575 12.2933 10.4883 11.7286 11.1199 11.08C11.7537 10.4625 12.3019 9.76299 12.7499 8.99999C12.8567 8.7859 12.8901 8.54263 12.8449 8.30769C12.7997 8.07276 12.6785 7.85921 12.4999 7.69999L12.4899 7.63999Z" fill="#FFE236" stroke="#231F20" stroke-miterlimit="10"/>
<path d="M27.5101 32.36C27.5101 32.36 27.9301 32.97 30.3601 33.65C31.2456 33.9076 32.1587 34.0587 33.0801 34.1C33.3406 34.0856 33.5867 33.9756 33.7712 33.7911C33.9557 33.6066 34.0657 33.3605 34.0801 33.1C34.0432 32.1782 33.892 31.2646 33.6301 30.38C33.3778 29.3609 32.9442 28.3955 32.35 27.53C32.1898 27.3467 31.9733 27.2217 31.7344 27.1747C31.4956 27.1276 31.2478 27.1611 31.0301 27.27C30.2542 27.7367 29.5417 28.3013 28.9101 28.95C28.2551 29.5796 27.6898 30.2963 27.2301 31.08C27.1233 31.2941 27.0899 31.5374 27.1351 31.7723C27.1803 32.0072 27.3015 32.2208 27.4801 32.38L27.5101 32.36Z" fill="#FFE236" stroke="#231F20" stroke-miterlimit="10"/>
<path d="M5.99999 16.57C5.99999 16.57 5.27999 16.44 3.06999 17.67C2.24511 18.1083 1.47902 18.6493 0.789989 19.28C0.603542 19.4753 0.499512 19.735 0.499512 20.005C0.499512 20.275 0.603542 20.5347 0.789989 20.73C1.4574 21.353 2.19978 21.8904 2.99999 22.33C3.92349 22.8808 4.9404 23.257 5.99999 23.44C6.24177 23.4546 6.48162 23.3891 6.68233 23.2535C6.88303 23.1178 7.03336 22.9198 7.10999 22.69C7.31802 21.8091 7.4088 20.9046 7.37999 20C7.39192 19.0965 7.28432 18.1953 7.05999 17.32C6.98711 17.0978 6.84473 16.905 6.65386 16.7699C6.46299 16.6349 6.23375 16.5648 5.99999 16.57Z" fill="#FFE236" stroke="#231F20" stroke-miterlimit="10"/>
<path d="M34.0501 23.43C34.0501 23.43 34.7701 23.56 36.9801 22.33C37.7875 21.8881 38.5366 21.3473 39.2101 20.72C39.3966 20.5247 39.5006 20.265 39.5006 19.995C39.5006 19.725 39.3966 19.4653 39.2101 19.27C38.5417 18.6482 37.7995 18.1108 37.0001 17.67C36.0965 17.1302 35.1046 16.7544 34.0701 16.56C33.8283 16.5454 33.5885 16.6109 33.3878 16.7465C33.1871 16.8821 33.0367 17.0802 32.9601 17.31C32.7282 18.1877 32.6138 19.0922 32.6201 20C32.6076 20.9069 32.7152 21.8114 32.9401 22.69C33.0148 22.919 33.1633 23.1168 33.3623 23.2525C33.5613 23.3881 33.7997 23.4541 34.0401 23.44L34.0501 23.43Z" fill="#FFE236" stroke="#231F20" stroke-miterlimit="10"/>
<path d="M7.6399 27.51C7.6399 27.51 7.0299 27.93 6.3499 30.36C6.09231 31.2455 5.94124 32.1587 5.8999 33.08C5.91428 33.3405 6.02425 33.5866 6.20876 33.7711C6.39327 33.9556 6.63936 34.0656 6.8999 34.08C7.82169 34.0431 8.73534 33.8919 9.6199 33.63C10.639 33.3777 11.6044 32.9442 12.4699 32.35C12.6532 32.1897 12.7782 31.9732 12.8252 31.7344C12.8723 31.4955 12.8388 31.2478 12.7299 31.03C12.2632 30.2542 11.6986 29.5416 11.0499 28.91C10.4436 28.2678 9.75415 27.7095 8.9999 27.25C8.78581 27.1432 8.54254 27.1098 8.3076 27.155C8.07267 27.2002 7.85912 27.3214 7.6999 27.5L7.6399 27.51Z" fill="#FFE236" stroke="#231F20" stroke-miterlimit="10"/>
<path d="M32.3601 12.49C32.3601 12.49 32.9701 12.07 33.6501 9.63998C33.9077 8.75443 34.0587 7.84131 34.1001 6.91998C34.0857 6.65944 33.9757 6.41335 33.7912 6.22884C33.6067 6.04433 33.3606 5.93436 33.1001 5.91998C32.1783 5.95688 31.2646 6.10804 30.3801 6.36998C29.3519 6.61268 28.3761 7.03957 27.5001 7.62998C27.3051 7.79312 27.1726 8.01876 27.1252 8.26852C27.0778 8.51828 27.1184 8.77676 27.2401 8.99998C27.7068 9.77581 28.2714 10.4883 28.9201 11.12C29.5497 11.775 30.2664 12.3403 31.0501 12.8C31.2642 12.9068 31.5074 12.9401 31.7424 12.8949C31.9773 12.8498 32.1908 12.7285 32.3501 12.55L32.3601 12.49Z" fill="#FFE236" stroke="#231F20" stroke-miterlimit="10"/>
<path d="M23.4399 13.86C24.413 14.274 25.2217 14.9983 25.7399 15.92" stroke="white" stroke-miterlimit="10" stroke-linecap="round"/>
</g>
<defs>
<clipPath id="clip0_2301_13206">
<rect width="40" height="40" fill="white"/>
</clipPath>
</defs>
</svg>
