<svg width="40" height="40" viewBox="0 0 40 40" fill="none" xmlns="http://www.w3.org/2000/svg">
<path d="M20.318 17.197C16.201 17.031 13.796 19.143 13.154 22.472C12.8624 22.4107 12.5659 22.3749 12.268 22.365C11.7415 22.2887 11.2046 22.3309 10.6965 22.4886C10.1884 22.6463 9.72192 22.9155 9.33112 23.2765C8.94033 23.6375 8.63508 24.0812 8.43766 24.5752C8.24024 25.0692 8.15564 25.6011 8.19002 26.132C8.17302 26.511 8.20302 26.89 8.27702 27.262C7.48837 27.6638 6.82422 28.2731 6.35605 29.0242C5.88788 29.7754 5.63341 30.64 5.62002 31.525C5.52302 34.031 7.28802 36.195 9.66502 36.822C10.639 37.318 16.119 38 20.645 38.175C25.171 38.35 30.66 38.175 31.712 37.708C33.775 37.338 34.895 35.031 34.962 33.269C34.9933 32.4956 34.8504 31.725 34.5441 31.0142C34.2377 30.3034 33.7757 29.6704 33.192 29.162C33.4567 28.447 33.6043 27.694 33.629 26.932C33.772 23.244 30.752 20.772 27.239 20.632C27.209 20.6301 27.179 20.6284 27.149 20.627C25.772 18.467 22.777 17.299 20.318 17.197Z" fill="#00034A" stroke="#00034A" stroke-miterlimit="10"/>
<path d="M25.1361 21.888C25.9592 21.888 26.7744 21.7258 27.5349 21.4108C28.2954 21.0958 28.9865 20.634 29.5686 20.052C30.1506 19.4699 30.6124 18.7788 30.9274 18.0183C31.2424 17.2578 31.4046 16.4426 31.4046 15.6195C31.4046 14.7963 31.2424 13.9811 30.9274 13.2206C30.6124 12.4601 30.1506 11.769 29.5686 11.187C28.9865 10.6049 28.2954 10.1431 27.5349 9.82811C26.7744 9.51309 25.9592 9.35095 25.1361 9.35095C23.4735 9.35095 21.8791 10.0114 20.7036 11.187C19.528 12.3625 18.8676 13.9569 18.8676 15.6195C18.8676 17.282 19.528 18.8764 20.7036 20.052C21.8791 21.2275 23.4735 21.888 25.1361 21.888Z" fill="#9BFF00" stroke="#00034A" stroke-miterlimit="10"/>
<path d="M27.2669 6.032C27.2669 6.032 27.3359 5.536 26.4589 4.085C26.1442 3.52785 25.762 3.01162 25.3209 2.548C25.1871 2.42811 25.0137 2.36182 24.8339 2.36182C24.6542 2.36182 24.4808 2.42811 24.3469 2.548C23.9309 3.018 23.5769 3.542 23.2969 4.105C22.9352 4.72602 22.6937 5.4096 22.5849 6.12C22.5791 6.28521 22.6273 6.44782 22.7222 6.58316C22.8172 6.7185 22.9536 6.81921 23.1109 6.87C23.7184 7.00139 24.3398 7.05682 24.9609 7.035C25.5799 7.02876 26.1953 6.94032 26.7909 6.772C26.9433 6.71539 27.0732 6.61081 27.1609 6.474C27.2455 6.343 27.2829 6.1871 27.2669 6.032Z" fill="#9BFF00" stroke="#00034A" stroke-miterlimit="10"/>
<path d="M23.033 25.344C23.033 25.344 22.965 25.84 23.841 27.29C24.1561 27.8389 24.5388 28.3462 24.98 28.8C25.1138 28.9197 25.287 28.9858 25.4665 28.9858C25.646 28.9858 25.8192 28.9197 25.953 28.8C26.3674 28.3267 26.7208 27.8033 27.005 27.242C27.3635 26.6197 27.6042 25.9366 27.715 25.227C27.7204 25.0607 27.6709 24.8971 27.5743 24.7616C27.4776 24.6261 27.3391 24.5261 27.18 24.477C26.5709 24.3336 25.9451 24.2747 25.32 24.302C24.702 24.314 24.087 24.402 23.49 24.565C23.3367 24.6245 23.2062 24.7309 23.1172 24.869C23.0281 25.0072 22.9849 25.1699 22.994 25.334L23.033 25.344Z" fill="#9BFF00" stroke="#00034A" stroke-miterlimit="10"/>
<path d="M19.8019 7.34599C19.8019 7.34599 19.4999 6.94699 17.8549 6.51899C17.2479 6.35746 16.6231 6.27247 15.9949 6.26599C15.8127 6.27612 15.6411 6.35506 15.5149 6.48687C15.3887 6.61867 15.3172 6.7935 15.3149 6.97599C15.3481 7.60556 15.4658 8.22781 15.6649 8.82599C15.8529 9.52599 16.1659 10.185 16.5899 10.773C16.7023 10.8954 16.8521 10.9771 17.016 11.0052C17.1798 11.0332 17.3482 11.0061 17.4949 10.928C18.0181 10.5996 18.4956 10.2035 18.9149 9.74999C19.3497 9.3054 19.723 8.80462 20.0249 8.26099C20.0936 8.11256 20.1119 7.94576 20.0769 7.78599C20.0419 7.62599 19.8019 7.34599 19.8019 7.34599Z" fill="#9BFF00" stroke="#00034A" stroke-miterlimit="10"/>
<path d="M30.48 24C30.48 24 30.781 24.41 32.426 24.828C33.0329 24.9913 33.6576 25.0796 34.286 25.091C34.4691 25.0784 34.6408 24.9974 34.7668 24.8639C34.8928 24.7305 34.9639 24.5545 34.966 24.371C34.9271 23.7421 34.8095 23.1206 34.616 22.521C34.4266 21.8221 34.1136 21.1627 33.692 20.574C33.5796 20.4513 33.4296 20.3695 33.2655 20.3414C33.1015 20.3134 32.9328 20.3407 32.786 20.419C32.266 20.754 31.788 21.153 31.366 21.606C30.929 22.046 30.556 22.544 30.256 23.086C30.1874 23.2345 30.1693 23.4013 30.2043 23.5611C30.2393 23.7209 30.3256 23.8648 30.45 23.971L30.48 24Z" fill="#9BFF00" stroke="#00034A" stroke-miterlimit="10"/>
<path d="M15.5 13.566C15.5 13.566 14.984 13.508 13.533 14.393C12.988 14.7054 12.4843 15.085 12.034 15.523C11.9144 15.6569 11.8483 15.83 11.8483 16.0095C11.8483 16.189 11.9144 16.3622 12.034 16.496C12.511 16.908 13.034 17.264 13.592 17.556C14.2168 17.9066 14.8986 18.1443 15.606 18.258C15.7716 18.2657 15.9351 18.2182 16.0708 18.1231C16.2065 18.0279 16.3068 17.8903 16.356 17.732C16.498 17.126 16.556 16.504 16.531 15.882C16.5197 15.2635 16.4314 14.6487 16.268 14.052C16.2094 13.8989 16.1028 13.7689 15.9643 13.6813C15.8257 13.5937 15.6625 13.5533 15.499 13.566H15.5Z" fill="#9BFF00" stroke="#00034A" stroke-miterlimit="10"/>
<path d="M34.8011 17.79C34.8011 17.79 35.2881 17.8679 36.7481 16.9829C37.2941 16.6681 37.7978 16.285 38.2471 15.843C38.3688 15.7102 38.4363 15.5366 38.4363 15.3564C38.4363 15.1763 38.3688 15.0027 38.2471 14.8699C37.7729 14.4549 37.25 14.099 36.6901 13.81C36.0627 13.4544 35.377 13.2137 34.6651 13.0989C34.4996 13.0925 34.3368 13.1417 34.2027 13.2387C34.0685 13.3357 33.9708 13.4749 33.9251 13.6339C33.7834 14.2365 33.7245 14.8555 33.7501 15.4739C33.7541 16.0929 33.8431 16.709 34.0131 17.304C34.0685 17.4599 34.174 17.5932 34.3131 17.683C34.4521 17.773 34.6361 17.804 34.8011 17.79Z" fill="#9BFF00" stroke="#00034A" stroke-miterlimit="10"/>
<path d="M16.823 21.032C16.823 21.032 16.424 21.324 15.996 22.979C15.8305 23.595 15.7421 24.2292 15.733 24.867C15.7476 25.0495 15.8292 25.2201 15.9622 25.3459C16.0952 25.4716 16.27 25.5437 16.453 25.548C17.0822 25.5051 17.7036 25.3841 18.303 25.188C19.0043 25.0045 19.6648 24.6907 20.25 24.263C20.3725 24.1507 20.4542 24.0008 20.4822 23.837C20.5103 23.6732 20.4831 23.5047 20.405 23.358C20.069 22.8348 19.6629 22.3601 19.198 21.947C18.7553 21.514 18.2578 21.1408 17.718 20.837C17.5694 20.7686 17.4025 20.7506 17.2428 20.7858C17.083 20.821 16.9391 20.9075 16.833 21.032H16.823Z" fill="#9BFF00" stroke="#00034A" stroke-miterlimit="10"/>
<path d="M33.429 10.422C33.429 10.422 33.857 10.052 34.285 8.39802C34.4429 7.78661 34.5312 7.15928 34.548 6.52802C34.5354 6.34492 34.4543 6.17327 34.3209 6.04726C34.1875 5.92124 34.0115 5.85011 33.828 5.84802C33.199 5.88614 32.5774 6.00374 31.978 6.19802C31.2752 6.40057 30.6156 6.73037 30.032 7.17102C29.9108 7.2842 29.83 7.4339 29.8018 7.5973C29.7737 7.76069 29.7997 7.92881 29.876 8.07602C30.203 8.60331 30.603 9.08171 31.064 9.49702C31.504 9.93402 32.001 10.307 32.543 10.607C32.6903 10.6786 32.8572 10.6993 33.0175 10.6658C33.1779 10.6323 33.3226 10.5466 33.429 10.422Z" fill="#9BFF00" stroke="#00034A" stroke-miterlimit="10"/>
<path d="M32.0659 28.556C32.331 27.8411 32.4789 27.088 32.5039 26.326C32.6309 23.046 30.8979 20.779 27.2379 20.633C26.9463 20.6134 26.6536 20.6134 26.3619 20.633C25.3889 18.598 23.3639 17.323 20.3179 17.197C16.1999 17.031 13.7959 19.143 13.1539 22.472C12.8623 22.4107 12.5658 22.3749 12.2679 22.365C11.7414 22.2885 11.2044 22.3306 10.6962 22.4882C10.188 22.6458 9.72148 22.915 9.33064 23.276C8.9398 23.6371 8.63456 24.0808 8.4372 24.575C8.23985 25.0691 8.15537 25.601 8.18994 26.132C8.17294 26.511 8.20195 26.89 8.27695 27.262C7.48829 27.6638 6.82415 28.2731 6.35597 29.0242C5.8878 29.7754 5.63333 30.64 5.61995 31.525C5.55195 33.286 6.47595 35.671 8.53995 36.216C9.51295 36.713 14.9929 37.394 19.5199 37.569C24.0459 37.744 29.5349 37.569 30.5869 37.102C32.6499 36.732 33.7699 34.425 33.8369 32.663C33.8683 31.8896 33.7256 31.119 33.4192 30.4081C33.1128 29.6973 32.6497 29.0643 32.0659 28.556Z" fill="white" stroke="#00034A" stroke-miterlimit="10"/>
<path d="M2.86105 26.845C4.16205 26.842 5.21605 26.312 5.21405 25.662C5.21205 25.012 4.15705 24.487 2.85605 24.49C1.55505 24.493 0.501055 25.023 0.503055 25.673C0.505055 26.323 1.56005 26.849 2.86105 26.845Z" fill="#9BFF00" stroke="#00034A" stroke-miterlimit="10"/>
<path d="M6.46704 22.366C6.86004 21.846 6.33704 20.79 5.29904 20.006C4.26104 19.221 3.10204 19.006 2.70904 19.524C2.31704 20.043 2.84004 21.099 3.87904 21.884C4.91604 22.669 6.07504 22.884 6.46704 22.366Z" fill="#9BFF00" stroke="#00034A" stroke-miterlimit="10"/>
<path d="M9.50603 19.803C10.092 19.517 10.102 18.336 9.53003 17.165C8.95703 15.994 8.01903 15.277 7.43303 15.563C6.84803 15.849 6.83703 17.03 7.41003 18.201C7.98203 19.372 8.92003 20.089 9.50603 19.803Z" fill="#9BFF00" stroke="#00034A" stroke-miterlimit="10"/>
<path d="M10.37 17.1621C10.943 18.3321 10.932 19.514 10.347 19.8C9.18203 20.37 7.88103 19.1651 7.41003 18.2011C6.83703 17.0311 6.84803 15.8491 7.43303 15.5631C8.59803 14.9931 9.89903 16.1981 10.37 17.1621Z" fill="#00034A"/>
<path d="M6.14003 20.002C7.17703 20.787 7.70003 21.844 7.30703 22.362C6.63103 23.257 4.50303 22.357 3.87803 21.884C2.84003 21.099 2.31803 20.043 2.71003 19.524C3.38603 18.629 5.51403 19.529 6.14003 20.002Z" fill="#00034A"/>
<path d="M6.05405 25.659C6.05605 26.309 5.00305 26.839 3.70205 26.842C2.80105 26.844 0.506055 26.961 0.503055 25.674C0.500055 24.389 2.79505 24.489 3.69605 24.487C4.99605 24.484 6.05305 25.008 6.05405 25.659Z" fill="#00034A"/>
<path d="M10.37 17.1621C10.943 18.3321 10.932 19.514 10.347 19.8C9.18203 20.37 7.88103 19.1651 7.41003 18.2011C6.83703 17.0311 6.84803 15.8491 7.43303 15.5631C8.59803 14.9931 9.89903 16.1981 10.37 17.1621Z" stroke="#00034A" stroke-miterlimit="10"/>
<path d="M6.14003 20.002C7.17703 20.787 7.70003 21.844 7.30703 22.362C6.63103 23.257 4.50303 22.357 3.87803 21.884C2.84003 21.099 2.31803 20.043 2.71003 19.524C3.38603 18.629 5.51403 19.529 6.14003 20.002Z" stroke="#00034A" stroke-miterlimit="10"/>
<path d="M6.05405 25.659C6.05605 26.309 5.00305 26.839 3.70205 26.842C2.80105 26.844 0.506055 26.961 0.503055 25.674C0.500055 24.389 2.79505 24.489 3.69605 24.487C4.99605 24.484 6.05305 25.008 6.05405 25.659Z" stroke="#00034A" stroke-miterlimit="10"/>
<path d="M23.875 7.48006C24.4821 7.61171 25.1032 7.66747 25.724 7.64606C26.343 7.63981 26.9584 7.55137 27.554 7.38306C27.7064 7.32645 27.8362 7.22186 27.924 7.08506C28.0089 6.95418 28.0467 6.79827 28.031 6.64306C28.031 6.64306 28.099 6.14706 27.223 4.69606C26.9081 4.1385 26.5255 3.62193 26.084 3.15806C25.773 2.88006 25.283 2.36206 24.834 2.36206C24.6543 2.36201 24.4809 2.42824 24.347 2.54806C23.931 3.01806 23.577 3.54206 23.297 4.10506C22.9353 4.72607 22.6938 5.40965 22.585 6.12006C22.5794 6.2853 22.6279 6.44785 22.723 6.58306C22.908 6.84706 23.546 7.37306 23.875 7.48006Z" fill="#00034A"/>
<path d="M32.1679 16.23C32.1682 17.0533 32.0062 17.8687 31.6913 18.6295C31.3764 19.3902 30.9146 20.0815 30.3324 20.6637C29.7503 21.246 29.0591 21.7079 28.2984 22.0229C27.5377 22.338 26.7223 22.5001 25.8989 22.5C22.3219 22.5 18.8669 19.219 18.8669 15.62C18.8668 14.7967 19.0289 13.9814 19.3439 13.2208C19.6589 12.4601 20.1206 11.769 20.7028 11.1868C21.285 10.6047 21.9761 10.1429 22.7367 9.82788C23.4974 9.51288 24.3126 9.35082 25.1359 9.35095C28.7129 9.35095 32.1679 12.631 32.1679 16.231V16.23Z" fill="#00034A"/>
<path d="M23.841 27.29C23.516 26.752 22.677 25.551 23.118 24.869C23.2072 24.7308 23.3377 24.6244 23.491 24.565C24.0877 24.4017 24.7025 24.3134 25.321 24.302C25.9458 24.2748 26.5713 24.3336 27.18 24.477C27.514 24.58 28.148 25.107 28.338 25.373C28.4343 25.5085 28.4835 25.6719 28.478 25.838C28.3672 26.5476 28.1265 27.2307 27.768 27.853C27.4841 28.4139 27.131 28.9369 26.717 29.41C26.5831 29.5298 26.4097 29.5961 26.23 29.596C25.78 29.596 25.292 29.078 24.98 28.799C24.5389 28.3455 24.1562 27.8386 23.841 27.29Z" fill="#00034A"/>
<path d="M17.8549 6.51899C18.7139 6.74299 19.9779 7.17999 20.5649 7.95699C20.5649 7.95699 20.8049 8.23699 20.8409 8.39699C20.8759 8.55676 20.8576 8.72356 20.7889 8.87199C20.4871 9.41597 20.1138 9.91709 19.6789 10.362C19.2589 10.815 18.7819 11.211 18.2589 11.539C18.1119 11.6172 17.9431 11.6443 17.7789 11.616C17.4009 11.551 16.8359 11.042 16.5889 10.773C16.1655 10.1853 15.8524 9.52562 15.6649 8.82599C15.4658 8.22781 15.3481 7.60556 15.3149 6.97599C15.3172 6.7935 15.3887 6.61867 15.5149 6.48687C15.6411 6.35506 15.8127 6.27612 15.9949 6.26599C16.6231 6.27247 17.2479 6.35746 17.8549 6.51899Z" fill="#00034A"/>
<path d="M30.48 24C31.058 24.784 32.336 25.221 33.19 25.439C33.7967 25.6019 34.421 25.6899 35.049 25.701C35.2323 25.6887 35.4042 25.6077 35.5304 25.4743C35.6566 25.3408 35.7279 25.1647 35.73 24.981C35.6911 24.3521 35.5735 23.7306 35.38 23.131C35.1901 22.4324 34.8769 21.7733 34.455 21.185C34.209 20.915 33.643 20.406 33.265 20.342C33.1012 20.3139 32.9327 20.341 32.786 20.419C32.266 20.754 31.788 21.153 31.366 21.606C30.929 22.046 30.556 22.544 30.256 23.086C30.1874 23.2345 30.1693 23.4013 30.2043 23.5611C30.2393 23.7209 30.3256 23.8648 30.45 23.971L30.48 24Z" fill="#00034A"/>
<path d="M13.533 14.393C14.983 13.508 15.499 13.566 15.499 13.566C15.6627 13.553 15.8262 13.5933 15.965 13.681C16.299 13.893 16.884 14.274 17.032 14.664C17.1954 15.2607 17.2837 15.8754 17.295 16.494C17.3205 17.1154 17.2617 17.7374 17.12 18.343C17.0707 18.5012 16.9703 18.6386 16.8346 18.7338C16.6989 18.829 16.5355 18.8765 16.37 18.869C15.6623 18.7556 14.9802 18.5183 14.355 18.168C13.518 17.729 12.748 17.113 12.035 16.496C11.9154 16.3622 11.8492 16.189 11.8492 16.0095C11.8492 15.83 11.9154 15.6568 12.035 15.523C12.485 15.085 12.988 14.706 13.533 14.393Z" fill="#00034A"/>
<path d="M35.0761 18.294C35.2161 18.384 35.4001 18.4149 35.5651 18.4009C35.5651 18.4009 36.0511 18.479 37.5121 17.5929C38.0576 17.2783 38.561 16.8956 39.0101 16.454C39.1318 16.3212 39.1993 16.1476 39.1993 15.9674C39.1993 15.7873 39.1318 15.6137 39.0101 15.4809C38.3021 14.8609 37.5271 14.2409 36.6901 13.8089C36.0626 13.4538 35.3769 13.2134 34.6651 13.0989C34.4996 13.0925 34.3368 13.1417 34.2027 13.2387C34.0685 13.3357 33.9708 13.4749 33.9251 13.6339C33.7834 14.2365 33.7245 14.8555 33.7501 15.4739C33.7541 16.0929 33.8431 16.709 34.0131 17.304C34.1531 17.701 34.7411 18.077 35.0761 18.294Z" fill="#00034A"/>
<path d="M15.996 22.979C16.424 21.324 16.823 21.032 16.823 21.032H16.833C16.9392 20.9072 17.0832 20.8206 17.2432 20.7854C17.4032 20.7501 17.5703 20.7683 17.719 20.837C19.037 21.579 20.344 22.685 21.169 23.969C21.247 24.1158 21.274 24.2844 21.2457 24.4482C21.2175 24.612 21.1356 24.7618 21.013 24.874C20.4278 25.3017 19.7673 25.6155 19.066 25.799C18.4666 25.9951 17.8452 26.116 17.216 26.159C16.769 26.149 16.266 25.633 15.962 25.346C15.8289 25.2199 15.7472 25.0489 15.733 24.866C15.7422 24.2285 15.8306 23.5947 15.996 22.979Z" fill="#00034A"/>
<path d="M31.064 9.49702C31.715 10.143 32.506 10.774 33.306 11.217C33.4532 11.2887 33.62 11.3095 33.7804 11.2762C33.9407 11.2429 34.0855 11.1574 34.192 11.033C34.192 11.033 34.621 10.663 35.049 9.00802C35.2067 8.39725 35.2949 7.77061 35.312 7.14002C35.2997 6.9565 35.2187 6.78435 35.085 6.65802C34.782 6.37102 34.276 5.85202 33.828 5.84802C33.199 5.88614 32.5774 6.00374 31.978 6.19802C31.2752 6.40057 30.6156 6.73037 30.032 7.17102C29.9108 7.2842 29.83 7.4339 29.8018 7.5973C29.7737 7.76069 29.7997 7.92881 29.876 8.07602C30.203 8.60331 30.603 9.08171 31.064 9.49702Z" fill="#00034A"/>
<path d="M23.875 7.48006C24.4821 7.61171 25.1032 7.66747 25.724 7.64606C26.343 7.63981 26.9584 7.55137 27.554 7.38306C27.7064 7.32645 27.8362 7.22186 27.924 7.08506C28.0089 6.95418 28.0467 6.79827 28.031 6.64306C28.031 6.64306 28.099 6.14706 27.223 4.69606C26.9081 4.1385 26.5255 3.62193 26.084 3.15806C25.773 2.88006 25.283 2.36206 24.834 2.36206C24.6543 2.36201 24.4809 2.42824 24.347 2.54806C23.931 3.01806 23.577 3.54206 23.297 4.10506C22.9353 4.72607 22.6938 5.40965 22.585 6.12006C22.5794 6.2853 22.6279 6.44785 22.723 6.58306C22.908 6.84706 23.546 7.37306 23.875 7.48006Z" stroke="#00034A" stroke-miterlimit="10"/>
<path d="M32.1679 16.23C32.1682 17.0533 32.0062 17.8687 31.6913 18.6295C31.3764 19.3902 30.9146 20.0815 30.3324 20.6637C29.7503 21.246 29.0591 21.7079 28.2984 22.0229C27.5377 22.338 26.7223 22.5001 25.8989 22.5C22.3219 22.5 18.8669 19.219 18.8669 15.62C18.8668 14.7967 19.0289 13.9814 19.3439 13.2208C19.6589 12.4601 20.1206 11.769 20.7028 11.1868C21.285 10.6047 21.9761 10.1429 22.7367 9.82788C23.4974 9.51288 24.3126 9.35082 25.1359 9.35095C28.7129 9.35095 32.1679 12.631 32.1679 16.231V16.23Z" stroke="#00034A" stroke-miterlimit="10"/>
<path d="M23.841 27.29C23.516 26.752 22.677 25.551 23.118 24.869C23.2072 24.7308 23.3377 24.6244 23.491 24.565C24.0877 24.4017 24.7025 24.3134 25.321 24.302C25.9458 24.2748 26.5713 24.3336 27.18 24.477C27.514 24.58 28.148 25.107 28.338 25.373C28.4343 25.5085 28.4835 25.6719 28.478 25.838C28.3672 26.5476 28.1265 27.2307 27.768 27.853C27.4841 28.4139 27.131 28.9369 26.717 29.41C26.5831 29.5298 26.4097 29.5961 26.23 29.596C25.78 29.596 25.292 29.078 24.98 28.799C24.5389 28.3455 24.1562 27.8386 23.841 27.29Z" stroke="#00034A" stroke-miterlimit="10"/>
<path d="M17.8549 6.51899C18.7139 6.74299 19.9779 7.17999 20.5649 7.95699C20.5649 7.95699 20.8049 8.23699 20.8409 8.39699C20.8759 8.55676 20.8576 8.72356 20.7889 8.87199C20.4871 9.41597 20.1138 9.91709 19.6789 10.362C19.2589 10.815 18.7819 11.211 18.2589 11.539C18.1119 11.6172 17.9431 11.6443 17.7789 11.616C17.4009 11.551 16.8359 11.042 16.5889 10.773C16.1655 10.1853 15.8524 9.52562 15.6649 8.82599C15.4658 8.22781 15.3481 7.60556 15.3149 6.97599C15.3172 6.7935 15.3887 6.61867 15.5149 6.48687C15.6411 6.35506 15.8127 6.27612 15.9949 6.26599C16.6231 6.27247 17.2479 6.35746 17.8549 6.51899Z" stroke="#00034A" stroke-miterlimit="10"/>
<path d="M30.48 24C31.058 24.784 32.336 25.221 33.19 25.439C33.7967 25.6019 34.421 25.6899 35.049 25.701C35.2323 25.6887 35.4042 25.6077 35.5304 25.4743C35.6566 25.3408 35.7279 25.1647 35.73 24.981C35.6911 24.3521 35.5735 23.7306 35.38 23.131C35.1901 22.4324 34.8769 21.7733 34.455 21.185C34.209 20.915 33.643 20.406 33.265 20.342C33.1012 20.3139 32.9327 20.341 32.786 20.419C32.266 20.754 31.788 21.153 31.366 21.606C30.929 22.046 30.556 22.544 30.256 23.086C30.1874 23.2345 30.1693 23.4013 30.2043 23.5611C30.2393 23.7209 30.3256 23.8648 30.45 23.971L30.48 24Z" stroke="#00034A" stroke-miterlimit="10"/>
<path d="M13.533 14.393C14.983 13.508 15.499 13.566 15.499 13.566C15.6627 13.553 15.8262 13.5933 15.965 13.681C16.299 13.893 16.884 14.274 17.032 14.664C17.1954 15.2607 17.2837 15.8754 17.295 16.494C17.3205 17.1154 17.2617 17.7374 17.12 18.343C17.0707 18.5012 16.9703 18.6386 16.8346 18.7338C16.6989 18.829 16.5355 18.8765 16.37 18.869C15.6623 18.7556 14.9802 18.5183 14.355 18.168C13.518 17.729 12.748 17.113 12.035 16.496C11.9154 16.3622 11.8492 16.189 11.8492 16.0095C11.8492 15.83 11.9154 15.6568 12.035 15.523C12.485 15.085 12.988 14.706 13.533 14.393Z" stroke="#00034A" stroke-miterlimit="10"/>
<path d="M35.0761 18.294C35.2161 18.384 35.4001 18.4149 35.5651 18.4009C35.5651 18.4009 36.0511 18.4789 37.5121 17.5929C38.0576 17.2783 38.561 16.8956 39.0101 16.454C39.1318 16.3212 39.1993 16.1476 39.1993 15.9674C39.1993 15.7873 39.1318 15.6137 39.0101 15.4809C38.3021 14.8609 37.5271 14.2409 36.6901 13.8089C36.0626 13.4538 35.3769 13.2134 34.6651 13.0989C34.4996 13.0925 34.3368 13.1417 34.2027 13.2387C34.0685 13.3357 33.9708 13.4749 33.9251 13.6339C33.7834 14.2365 33.7245 14.8555 33.7501 15.4739C33.7541 16.0929 33.8431 16.709 34.0131 17.304C34.1531 17.701 34.7411 18.077 35.0761 18.294Z" stroke="#00034A" stroke-miterlimit="10"/>
<path d="M15.996 22.979C16.424 21.324 16.823 21.032 16.823 21.032H16.833C16.9392 20.9072 17.0832 20.8206 17.2432 20.7854C17.4032 20.7501 17.5703 20.7683 17.719 20.837C19.037 21.579 20.344 22.685 21.169 23.969C21.247 24.1158 21.274 24.2844 21.2457 24.4482C21.2175 24.612 21.1356 24.7618 21.013 24.874C20.4278 25.3017 19.7673 25.6155 19.066 25.799C18.4666 25.9951 17.8452 26.116 17.216 26.159C16.769 26.149 16.266 25.633 15.962 25.346C15.8289 25.2199 15.7472 25.0489 15.733 24.866C15.7422 24.2285 15.8306 23.5947 15.996 22.979Z" stroke="#00034A" stroke-miterlimit="10"/>
<path d="M31.064 9.49702C31.715 10.143 32.506 10.774 33.306 11.217C33.4532 11.2887 33.62 11.3095 33.7804 11.2762C33.9407 11.2429 34.0855 11.1574 34.192 11.033C34.192 11.033 34.621 10.663 35.049 9.00802C35.2067 8.39725 35.2949 7.77061 35.312 7.14002C35.2997 6.9565 35.2187 6.78435 35.085 6.65802C34.782 6.37102 34.276 5.85202 33.828 5.84802C33.199 5.88614 32.5774 6.00374 31.978 6.19802C31.2752 6.40057 30.6156 6.73037 30.032 7.17102C29.9108 7.2842 29.83 7.4339 29.8018 7.5973C29.7737 7.76069 29.7997 7.92881 29.876 8.07602C30.203 8.60331 30.603 9.08171 31.064 9.49702Z" stroke="#00034A" stroke-miterlimit="10"/>
<path d="M25.1361 21.888C25.9592 21.888 26.7744 21.7258 27.5349 21.4108C28.2954 21.0958 28.9865 20.634 29.5686 20.052C30.1506 19.4699 30.6124 18.7788 30.9274 18.0183C31.2424 17.2578 31.4046 16.4426 31.4046 15.6195C31.4046 14.7963 31.2424 13.9811 30.9274 13.2206C30.6124 12.4601 30.1506 11.769 29.5686 11.187C28.9865 10.6049 28.2954 10.1431 27.5349 9.82811C26.7744 9.51309 25.9592 9.35095 25.1361 9.35095C23.4735 9.35095 21.8791 10.0114 20.7036 11.187C19.528 12.3625 18.8676 13.9569 18.8676 15.6195C18.8676 17.282 19.528 18.8764 20.7036 20.052C21.8791 21.2275 23.4735 21.888 25.1361 21.888Z" fill="#9BFF00" stroke="#00034A" stroke-miterlimit="10"/>
<path d="M27.2669 6.032C27.2669 6.032 27.3359 5.536 26.4589 4.085C26.1442 3.52785 25.762 3.01162 25.3209 2.548C25.1871 2.42811 25.0137 2.36182 24.8339 2.36182C24.6542 2.36182 24.4808 2.42811 24.3469 2.548C23.9309 3.018 23.5769 3.542 23.2969 4.105C22.9352 4.72602 22.6937 5.4096 22.5849 6.12C22.5791 6.28521 22.6273 6.44782 22.7222 6.58316C22.8172 6.7185 22.9536 6.81921 23.1109 6.87C23.7184 7.00139 24.3398 7.05682 24.9609 7.035C25.5799 7.02876 26.1953 6.94032 26.7909 6.772C26.9433 6.71539 27.0732 6.61081 27.1609 6.474C27.2455 6.343 27.2829 6.1871 27.2669 6.032Z" fill="#9BFF00" stroke="#00034A" stroke-miterlimit="10"/>
<path d="M23.033 25.344C23.033 25.344 22.965 25.84 23.841 27.29C24.1561 27.8389 24.5388 28.3462 24.98 28.8C25.1138 28.9197 25.287 28.9858 25.4665 28.9858C25.646 28.9858 25.8192 28.9197 25.953 28.8C26.3674 28.3267 26.7208 27.8033 27.005 27.242C27.3635 26.6197 27.6042 25.9366 27.715 25.227C27.7204 25.0607 27.6709 24.8971 27.5743 24.7616C27.4776 24.6261 27.3391 24.5261 27.18 24.477C26.5709 24.3336 25.9451 24.2747 25.32 24.302C24.702 24.314 24.087 24.402 23.49 24.565C23.3367 24.6245 23.2062 24.7309 23.1172 24.869C23.0281 25.0072 22.9849 25.1699 22.994 25.334L23.033 25.344Z" fill="#9BFF00" stroke="#00034A" stroke-miterlimit="10"/>
<path d="M19.8019 7.34599C19.8019 7.34599 19.4999 6.94699 17.8549 6.51899C17.2479 6.35746 16.6231 6.27247 15.9949 6.26599C15.8127 6.27612 15.6411 6.35506 15.5149 6.48687C15.3887 6.61867 15.3172 6.7935 15.3149 6.97599C15.3481 7.60556 15.4658 8.22781 15.6649 8.82599C15.8529 9.52599 16.1659 10.185 16.5899 10.773C16.7023 10.8954 16.8521 10.9771 17.016 11.0052C17.1798 11.0332 17.3482 11.0061 17.4949 10.928C18.0181 10.5996 18.4956 10.2035 18.9149 9.74999C19.3497 9.3054 19.723 8.80462 20.0249 8.26099C20.0936 8.11256 20.1119 7.94576 20.0769 7.78599C20.0419 7.62599 19.8019 7.34599 19.8019 7.34599Z" fill="#9BFF00" stroke="#00034A" stroke-miterlimit="10"/>
<path d="M30.48 24C30.48 24 30.781 24.41 32.426 24.828C33.0329 24.9913 33.6576 25.0796 34.286 25.091C34.4691 25.0784 34.6408 24.9974 34.7668 24.8639C34.8928 24.7305 34.9639 24.5545 34.966 24.371C34.9271 23.7421 34.8095 23.1206 34.616 22.521C34.4266 21.8221 34.1136 21.1627 33.692 20.574C33.5796 20.4513 33.4296 20.3695 33.2655 20.3414C33.1015 20.3134 32.9328 20.3407 32.786 20.419C32.266 20.754 31.788 21.153 31.366 21.606C30.929 22.046 30.556 22.544 30.256 23.086C30.1874 23.2345 30.1693 23.4013 30.2043 23.5611C30.2393 23.7209 30.3256 23.8648 30.45 23.971L30.48 24Z" fill="#9BFF00" stroke="#00034A" stroke-miterlimit="10"/>
<path d="M15.5 13.566C15.5 13.566 14.984 13.508 13.533 14.393C12.988 14.7054 12.4843 15.085 12.034 15.523C11.9144 15.6569 11.8483 15.83 11.8483 16.0095C11.8483 16.189 11.9144 16.3622 12.034 16.496C12.511 16.908 13.034 17.264 13.592 17.556C14.2168 17.9066 14.8986 18.1443 15.606 18.258C15.7716 18.2657 15.9351 18.2182 16.0708 18.1231C16.2065 18.0279 16.3068 17.8903 16.356 17.732C16.498 17.126 16.556 16.504 16.531 15.882C16.5197 15.2635 16.4314 14.6487 16.268 14.052C16.2094 13.8989 16.1028 13.7689 15.9643 13.6813C15.8257 13.5937 15.6625 13.5533 15.499 13.566H15.5Z" fill="#9BFF00" stroke="#00034A" stroke-miterlimit="10"/>
<path d="M34.8011 17.79C34.8011 17.79 35.2881 17.8679 36.7481 16.9829C37.2941 16.6681 37.7978 16.285 38.2471 15.843C38.3688 15.7102 38.4363 15.5366 38.4363 15.3564C38.4363 15.1763 38.3688 15.0027 38.2471 14.8699C37.7729 14.4549 37.25 14.099 36.6901 13.81C36.0627 13.4544 35.377 13.2137 34.6651 13.0989C34.4996 13.0925 34.3368 13.1417 34.2027 13.2387C34.0685 13.3357 33.9708 13.4749 33.9251 13.6339C33.7834 14.2365 33.7245 14.8555 33.7501 15.4739C33.7541 16.0929 33.8431 16.709 34.0131 17.304C34.0685 17.4599 34.174 17.5932 34.3131 17.683C34.4521 17.773 34.6361 17.804 34.8011 17.79Z" fill="#9BFF00" stroke="#00034A" stroke-miterlimit="10"/>
<path d="M16.823 21.032C16.823 21.032 16.424 21.324 15.996 22.979C15.8305 23.595 15.7421 24.2292 15.733 24.867C15.7476 25.0495 15.8292 25.2201 15.9622 25.3459C16.0952 25.4716 16.27 25.5437 16.453 25.548C17.0822 25.5051 17.7036 25.3841 18.303 25.188C19.0043 25.0045 19.6648 24.6907 20.25 24.263C20.3725 24.1507 20.4542 24.0008 20.4822 23.837C20.5103 23.6732 20.4831 23.5047 20.405 23.358C20.069 22.8348 19.6629 22.3601 19.198 21.947C18.7553 21.514 18.2578 21.1408 17.718 20.837C17.5694 20.7686 17.4025 20.7506 17.2428 20.7858C17.083 20.821 16.9391 20.9075 16.833 21.032H16.823Z" fill="#9BFF00" stroke="#00034A" stroke-miterlimit="10"/>
<path d="M33.429 10.422C33.429 10.422 33.857 10.052 34.285 8.39802C34.4429 7.78661 34.5312 7.15928 34.548 6.52802C34.5354 6.34492 34.4543 6.17327 34.3209 6.04726C34.1875 5.92124 34.0115 5.85011 33.828 5.84802C33.199 5.88614 32.5774 6.00374 31.978 6.19802C31.2752 6.40057 30.6156 6.73037 30.032 7.17102C29.9108 7.2842 29.83 7.4339 29.8018 7.5973C29.7737 7.76069 29.7997 7.92881 29.876 8.07602C30.203 8.60331 30.603 9.08171 31.064 9.49702C31.504 9.93402 32.001 10.307 32.543 10.607C32.6903 10.6786 32.8572 10.6993 33.0175 10.6658C33.1779 10.6323 33.3226 10.5466 33.429 10.422Z" fill="#9BFF00" stroke="#00034A" stroke-miterlimit="10"/>
<path d="M2.86105 26.845C4.16205 26.842 5.21605 26.312 5.21405 25.662C5.21205 25.012 4.15705 24.487 2.85605 24.49C1.55505 24.493 0.501055 25.023 0.503055 25.673C0.505055 26.323 1.56005 26.849 2.86105 26.845Z" fill="#9BFF00" stroke="#00034A" stroke-miterlimit="10"/>
<path d="M6.46704 22.366C6.86004 21.846 6.33704 20.79 5.29904 20.006C4.26104 19.221 3.10204 19.006 2.70904 19.524C2.31704 20.043 2.84004 21.099 3.87904 21.884C4.91604 22.669 6.07504 22.884 6.46704 22.366Z" fill="#9BFF00" stroke="#00034A" stroke-miterlimit="10"/>
<path d="M9.50603 19.803C10.092 19.517 10.102 18.336 9.53003 17.165C8.95703 15.994 8.01903 15.277 7.43303 15.563C6.84803 15.849 6.83703 17.03 7.41003 18.201C7.98203 19.372 8.92003 20.089 9.50603 19.803Z" fill="#9BFF00" stroke="#00034A" stroke-miterlimit="10"/>
</svg>
