<svg width="40" height="40" viewBox="0 0 40 40" fill="none" xmlns="http://www.w3.org/2000/svg">
<g clip-path="url(#clip0_2301_13174)">
<path d="M32.3784 18.1897C31.7815 15.1465 30.4214 12.1913 29.2373 11.203C27.8395 10.4286 26.3098 9.92091 24.7263 9.70581C24.7263 8.18911 24.5306 6.43751 23.875 6.06571C23.5129 5.65471 21.5754 5.24371 19.9609 5.24371C18.3464 5.24371 16.4186 5.65471 16.0467 6.06571C15.4009 6.43751 15.2248 8.19891 15.1954 9.70581C13.619 9.92461 12.0963 10.4321 10.704 11.203C9.51988 12.1815 8.15978 15.1171 7.55308 18.1897C1.67208 19.6282 0.889282 22.5735 0.889282 27.0944C0.889282 29.7266 1.43728 31.4488 4.34348 32.1338C5.80148 32.809 13.5515 33.1123 20 33.1123C26.4192 33.1123 34.1692 32.8579 35.6565 32.1338C38.5921 31.4488 39.1107 29.7266 39.1107 27.0944C39.052 22.6029 38.3474 19.6282 32.3784 18.1897Z" fill="#FFE236" stroke="#231F20" stroke-miterlimit="10"/>
<path d="M27.1236 18.9628C27.0871 17.2265 26.3867 15.5701 25.1666 14.3343C23.5095 13.6956 21.7463 13.3769 19.9705 13.3949C18.1926 13.3677 16.4257 13.6799 14.7648 14.3147C13.5446 15.5505 12.8442 17.2069 12.8077 18.9432C12.8175 20.0098 27.1236 20.0098 27.1236 18.9628Z" fill="white" stroke="#231F20" stroke-miterlimit="10"/>
<path d="M5.67432 31.077C5.66932 34.2859 9.14002 36.2969 11.9215 34.6967C13.2164 33.9518 14.0137 32.5709 14.0114 31.077C14.0164 27.868 10.5457 25.8571 7.76422 27.4572C6.46922 28.2022 5.67202 29.5831 5.67432 31.077Z" fill="white" stroke="#231F20" stroke-miterlimit="10"/>
<path d="M25.9397 31.077C25.9347 34.2859 29.4054 36.2969 32.1869 34.6967C33.4818 33.9518 34.2791 32.5709 34.2768 31.077C34.2818 27.868 30.8111 25.8571 28.0296 27.4572C26.7346 28.2022 25.9374 29.5831 25.9397 31.077Z" fill="white" stroke="#231F20" stroke-miterlimit="10"/>
<path d="M21.9277 9.60802C21.9277 9.60802 21.272 9.53952 19.9706 9.53952C18.6692 9.53952 18.0135 9.60802 18.0135 9.60802" stroke="#231F20" stroke-miterlimit="10" stroke-linecap="round"/>
<path d="M14.0016 23.5227H16.3892" stroke="#231F20" stroke-miterlimit="10" stroke-linecap="round"/>
<path d="M16.3892 25.9103H18.7768" stroke="#231F20" stroke-miterlimit="10" stroke-linecap="round"/>
<path d="M18.7767 23.5227H21.1644" stroke="#231F20" stroke-miterlimit="10" stroke-linecap="round"/>
<path d="M21.1644 25.9103H23.5422" stroke="#231F20" stroke-miterlimit="10" stroke-linecap="round"/>
<path d="M23.5422 23.5227H25.9298" stroke="#231F20" stroke-miterlimit="10" stroke-linecap="round"/>
<path d="M25.0101 11.7803C25.9959 11.8902 26.9433 12.225 27.7793 12.7589" stroke="white" stroke-miterlimit="10" stroke-linecap="round"/>
</g>
<defs>
<clipPath id="clip0_2301_13174">
<rect width="40" height="40" fill="white"/>
</clipPath>
</defs>
</svg>
