<svg width="40" height="40" viewBox="0 0 40 40" fill="none" xmlns="http://www.w3.org/2000/svg">
<path d="M20.5309 29.7183C20.7875 30.49 21.1011 31.3473 21.4245 32.1279C22.0257 33.6822 22.7857 35.1703 23.6925 36.5685C24.424 37.6647 25.7551 38.108 26.9584 37.6175C27.6829 37.3225 28.5884 36.7592 28.4261 35.8263C28.0869 34.1899 27.5792 32.593 26.9112 31.0612C26.3624 29.6939 25.7257 28.3637 25.005 27.0787C25.5948 26.189 25.9428 25.1607 26.0156 24.096L26.9682 23.7519C29.0455 23.0096 31.3607 22.1524 33.0192 21.3895C33.8764 22.3431 35.5536 21.9705 36.5259 21.6186C37.4972 21.2656 39.3179 20.4084 39.0888 18.9121C39.0023 18.16 37.912 14.9925 36.9142 12.0924L36.6114 11.2125C35.4966 8.10594 34.1242 4.37115 33.6002 3.76065C32.6063 2.13955 30.5526 1.89084 28.8853 2.50234C27.8471 2.88374 26.3607 3.59845 26.3223 4.90405C24.5596 5.37094 22.2248 6.18105 20.1475 6.92425C16.6595 8.17285 12.4577 9.78314 11.8954 10.6698C11.4222 11.2362 11.214 11.9779 11.3232 12.7078C8.34147 13.9091 5.40597 15.4044 4.88197 16.0533C4.32157 16.5236 4.01177 17.2276 4.04337 17.9585C3.07007 18.3281 2.15777 18.8413 1.33787 19.4833C0.57497 20.0731 0.93777 21.5989 1.33787 22.7039C1.71737 23.7529 2.97867 26.0327 4.36587 25.9924C5.41987 25.9713 6.46437 25.7879 7.46257 25.4487C7.89627 26.0374 8.57977 26.39 9.31077 26.4023C10.761 26.3549 12.1998 26.1281 13.5942 25.7269C13.6925 25.9157 13.7987 26.0995 13.9156 26.2775C13.1912 27.5605 12.5543 28.891 12.0094 30.26C11.3371 31.7901 10.8296 33.3875 10.4955 35.025C10.3077 36.1261 12.032 37.2419 12.9227 37.6175C13.6473 37.9222 14.6854 38.1503 15.2291 37.3697C16.1355 35.9715 16.8952 34.4834 17.4961 32.9291C17.9376 31.8413 18.3319 30.735 18.6778 29.6131C19.2873 29.7429 19.9125 29.7783 20.5309 29.7183Z" fill="#00034A" stroke="#00034A" stroke-miterlimit="10"/>
<path d="M35.6421 10.4123C34.5263 7.30577 33.1549 3.56997 32.6299 2.96047C31.8296 1.65487 29.9244 2.12187 28.8853 2.50327C27.8471 2.88377 26.3607 3.59847 26.3223 4.90397C24.5596 5.37097 22.2248 6.18107 20.1475 6.92427C16.6595 8.17277 12.4577 9.78307 11.8954 10.6699C11.4223 11.2363 11.214 11.978 11.3232 12.7079C8.34147 13.9092 5.40597 15.4045 4.88197 16.0533C4.32167 16.5237 4.01177 17.2277 4.04337 17.9586C3.07007 18.3282 2.15777 18.8414 1.33787 19.4834C0.57497 20.0732 0.93777 21.599 1.33787 22.704C1.73797 23.809 2.42417 25.2197 3.39547 25.1912C4.44957 25.1701 5.49407 24.9868 6.49227 24.6476C6.92597 25.2362 7.60947 25.5889 8.34047 25.6012C9.98917 25.5475 11.6221 25.2619 13.1911 24.7528C13.3622 25.2915 13.606 25.8047 13.9157 26.2766C13.1911 27.5599 12.5543 28.8908 12.0094 30.2601C11.3371 31.7902 10.8296 33.3876 10.4955 35.0251C10.3333 35.9778 11.2289 36.5116 11.9524 36.8163C12.677 37.1211 13.7151 37.3502 14.2588 36.5686C15.1656 35.1704 15.9256 33.6823 16.5268 32.1279C16.9683 31.0402 17.3626 29.9338 17.7084 28.812C18.5441 28.9889 19.4072 28.9889 20.2429 28.812C20.528 29.7656 20.9664 31.0229 21.4245 32.1279C22.0257 33.6823 22.7857 35.1704 23.6925 36.5686C24.246 37.3973 25.2645 37.1113 25.989 36.8163C26.7126 36.5214 27.618 35.9591 27.4558 35.0251C27.1169 33.3888 26.6095 31.7919 25.9419 30.2601C25.3927 28.8928 24.7556 27.5625 24.0346 26.2775C24.6245 25.3878 24.9728 24.3599 25.0453 23.2948L25.9989 22.9517C28.0752 22.2085 30.3913 21.3513 32.0488 20.5884C32.9061 21.542 34.5833 21.1704 35.5555 20.8174C36.5278 20.4645 38.3475 19.6072 38.1185 18.111C38.0231 17.2822 36.7097 13.5179 35.6421 10.4123Z" fill="#9BFF00" stroke="#00034A" stroke-miterlimit="10"/>
<path d="M18.8999 25.2669C20.7703 25.3043 21.9797 23.3029 21.0769 21.6644C20.6411 20.8735 19.8027 20.3894 18.8999 20.4075C17.0294 20.4449 15.9009 22.493 16.8685 24.0941C17.2996 24.8076 18.0664 25.2503 18.8999 25.2669Z" fill="white" stroke="#00034A" stroke-miterlimit="10"/>
<path d="M27.4558 8.25842C28.3341 11.3791 29.4263 14.4355 30.7246 17.4061" stroke="#00034A" stroke-miterlimit="10" stroke-linecap="round"/>
<path d="M11.3242 12.7079C11.3999 13.9947 12.6484 17.9114 13.4202 20.4075" stroke="#00034A" stroke-miterlimit="10" stroke-linecap="round"/>
<path d="M4.04321 17.9399C4.10221 18.6871 4.27911 19.4204 4.56721 20.1125" stroke="#00034A" stroke-miterlimit="10" stroke-linecap="round"/>
</svg>
