<svg width="40" height="40" viewBox="0 0 40 40" fill="none" xmlns="http://www.w3.org/2000/svg">
<path d="M1.03223 20C1.03223 34.6014 16.8386 43.7272 29.4838 36.4265C35.3524 33.0383 38.9676 26.7765 38.9676 20C38.9676 5.39858 23.1612 -3.72722 10.516 3.57348C4.64743 6.96168 1.03223 13.2235 1.03223 20Z" fill="#FF52A1" stroke="#231F20" stroke-miterlimit="10"/>
<path d="M7.35474 20C7.35474 29.7342 17.8924 35.8182 26.3225 30.951C30.2349 28.6922 32.6451 24.5177 32.6451 20C32.6451 10.2657 22.1074 4.18178 13.6773 9.04898C9.76494 11.3078 7.35474 15.4823 7.35474 20Z" fill="white" stroke="#231F20" stroke-miterlimit="10"/>
<path d="M21.4162 19.001C21.4162 15.0557 20.4425 12.2738 19.2285 12.2738C18.0145 12.2738 17.0283 14.0188 17.0283 17.8377C17.0283 22.6049 19.0515 23.3762 22.2634 23.3889C25.4753 23.4016 27.4858 22.4152 27.4985 21.2013C27.5112 19.9874 26.2213 19.001 21.4162 19.001Z" fill="#FF52A1" stroke="#231F20" stroke-miterlimit="10"/>
<path d="M27.802 5.67297C29.7232 6.15627 31.3903 7.34897 32.468 9.01127" stroke="white" stroke-miterlimit="10" stroke-linecap="round"/>
</svg>
