<svg width="40" height="40" viewBox="0 0 40 40" fill="none" xmlns="http://www.w3.org/2000/svg">
<g clip-path="url(#clip0_2301_13128)">
<path d="M39.44 21.18C38.8465 19.5613 38.0537 18.0228 37.08 16.6C36.3552 15.5201 35.5531 14.494 34.68 13.53C35.1694 12.412 35.5739 11.2587 35.89 10.08C36.3759 8.42755 36.6548 6.72115 36.72 4.99998C36.7004 4.49873 36.4932 4.02314 36.1394 3.66751C35.7857 3.31188 35.3112 3.10217 34.81 3.07998C33.0853 3.14973 31.3757 3.43185 29.72 3.91998C28.5469 4.25199 27.3977 4.66293 26.28 5.14998C25.3624 4.33645 24.3864 3.59113 23.36 2.91998C21.9356 1.9463 20.3976 1.15039 18.78 0.549984C18.2973 0.415857 17.7817 0.46782 17.3355 0.695591C16.8892 0.923362 16.5446 1.31035 16.37 1.77998C15.8975 3.44062 15.6355 5.15403 15.59 6.87998C15.5438 8.11794 15.5839 9.3576 15.71 10.59C14.5605 11.2331 13.4696 11.976 12.45 12.81C11.0835 13.8623 9.85095 15.078 8.78002 16.43C8.50151 16.8489 8.3911 17.3574 8.4708 17.8541C8.55049 18.3508 8.81444 18.7992 9.21002 19.11C10.0132 19.6825 10.8747 20.1685 11.78 20.56C9.82052 22.0534 7.97845 23.6948 6.27002 25.47C3.77002 28 0.580019 31.39 0.560019 32.67C0.230019 33.67 1.26002 35.95 2.65002 37.34C4.04002 38.73 6.37002 39.77 7.33002 39.44C8.60002 39.44 12.04 36.23 14.53 33.73C16.2785 32.0457 17.8996 30.2341 19.38 28.31C19.7338 29.1199 20.1765 29.8879 20.7 30.6C21.0119 30.9913 21.459 31.2515 21.9533 31.3293C22.4476 31.407 22.9531 31.2967 23.37 31.02C24.7285 29.9568 25.948 28.7272 27 27.36C27.7971 26.3777 28.5159 25.3345 29.15 24.24C30.4771 24.3984 31.8154 24.4418 33.15 24.37C34.8755 24.3193 36.5883 24.0573 38.25 23.59C38.7123 23.4079 39.0902 23.0602 39.3102 22.6147C39.5302 22.1692 39.5765 21.6577 39.44 21.18Z" fill="#FFE236" stroke="#231F20" stroke-miterlimit="10"/>
<path d="M15.3901 21.87C16.0751 22.1351 16.7766 22.3556 17.4901 22.53C17.6866 23.2549 17.9202 23.9691 18.1901 24.67" fill="#FFE236"/>
<path d="M15.3901 21.87C16.0751 22.1351 16.7766 22.3556 17.4901 22.53C17.6866 23.2549 17.9202 23.9691 18.1901 24.67" stroke="#231F20" stroke-miterlimit="10" stroke-linecap="round"/>
<path d="M19.6301 3.52997C20.5906 3.91923 21.4692 4.48575 22.2201 5.19997" stroke="white" stroke-miterlimit="10" stroke-linecap="round"/>
</g>
<defs>
<clipPath id="clip0_2301_13128">
<rect width="40" height="40" fill="white"/>
</clipPath>
</defs>
</svg>
