<svg width="40" height="40" viewBox="0 0 40 40" fill="none" xmlns="http://www.w3.org/2000/svg">
<path d="M30.2215 5.43942C30.6625 5.32102 31.0842 5.13982 31.4737 4.90132C31.8077 4.61882 31.9551 4.17292 31.8553 3.74692C31.7178 3.33342 31.3575 3.03382 30.9259 2.97412C30.4689 2.96482 30.0133 3.02752 29.5758 3.15992C29.7097 2.72232 29.7789 2.26752 29.7812 1.80992C29.7042 1.38292 29.3943 1.03532 28.979 0.909821C28.5375 0.825221 28.0871 1.00472 27.8246 1.36962C27.5986 1.76412 27.4305 2.18922 27.3257 2.63162C27.0002 2.31112 26.6313 2.03782 26.23 1.81962C25.8208 1.67162 25.3632 1.76612 25.0462 2.06422C24.7523 2.38822 24.6687 2.85152 24.831 3.25782C25.0499 3.64132 25.3198 3.99342 25.6332 4.30462C25.1921 4.42302 24.7704 4.60422 24.3809 4.84262C24.0486 5.12212 23.9012 5.56432 23.9994 5.98732C24.1357 6.40332 24.4957 6.70632 24.9288 6.76992C25.3862 6.77412 25.8415 6.70812 26.2789 6.57422C26.161 7.01752 26.1082 7.47562 26.1223 7.93412C26.1994 8.36102 26.5093 8.70872 26.9246 8.83422C27.3528 8.92092 27.7939 8.76262 28.0692 8.42332C28.2933 8.02782 28.4613 7.60312 28.5681 7.16122C28.8934 7.47942 29.2623 7.74952 29.6638 7.96352C30.0722 8.12142 30.5352 8.02572 30.8476 7.71892C31.1437 7.39592 31.2275 6.93142 31.0628 6.52532C30.8349 6.12562 30.5516 5.76002 30.2215 5.43942Z" fill="#FFE236" stroke="#231F20" stroke-miterlimit="10"/>
<path d="M26.6996 13.804C26.253 13.0537 25.4172 12.6244 24.5473 12.6985C23.0492 13.1256 21.6123 13.7438 20.272 14.5377C20.7343 13.2201 20.8654 11.809 20.6536 10.4288C20.5031 8.91575 19.9378 7.47355 19.0198 6.26125C19.0004 5.08405 18.9221 3.90865 18.785 2.73935C18.6089 2.05445 17.0632 1.55555 16.1533 1.36965C15.2434 1.18375 13.6391 0.851146 13.1499 1.36965C12.5512 2.31335 12.012 3.29355 11.5357 4.30465C7.27999 5.14595 5.54839 8.21785 6.09629 12.3463C6.24389 13.7529 6.74539 15.0991 7.55399 16.2595C6.03449 15.8309 4.46599 15.6007 2.88739 15.5747C2.02659 15.7306 1.33089 16.3655 1.09709 17.2085C0.924093 18.0655 1.25439 18.9462 1.94819 19.4782C3.06609 20.0573 4.25749 20.4818 5.48969 20.7402C5.14009 22.0609 5.06349 23.4391 5.26469 24.7904C5.96909 30.132 9.66709 33.2626 16.1435 32.4115C22.6199 31.5604 25.3788 27.5688 24.6744 22.237C24.5173 20.8591 24.0813 19.5277 23.3928 18.3238C24.5116 17.7642 25.5457 17.0495 26.4647 16.2008C26.9865 15.5092 27.0773 14.5837 26.6996 13.804Z" fill="#48EEFF" stroke="#231F20" stroke-miterlimit="10"/>
<path d="M17.2784 5.74277C16.6718 5.43277 16.0317 5.19317 15.3707 5.02857C14.7348 4.82687 14.0786 4.69567 13.4141 4.63727" stroke="#231F20" stroke-miterlimit="10" stroke-linecap="round"/>
<path d="M13.0129 21.0924C13.0129 22.3501 14.3744 23.1362 15.4636 22.5073C15.9691 22.2155 16.2805 21.6761 16.2805 21.0924C16.2805 19.8347 14.919 19.0487 13.8298 19.6775C13.3243 19.9694 13.0129 20.5087 13.0129 21.0924Z" fill="#FFE236" stroke="#231F20" stroke-miterlimit="10"/>
<path d="M13.7566 26.7472C13.7566 28.0049 15.1181 28.7908 16.2072 28.1621C16.7127 27.8702 17.0241 27.3309 17.0241 26.7472C17.0241 25.4895 15.6627 24.7033 14.5735 25.3322C14.068 25.624 13.7566 26.1635 13.7566 26.7472Z" fill="#FFE236" stroke="#231F20" stroke-miterlimit="10"/>
<path d="M9.15845 10.5463C9.15845 11.4877 10.1775 12.076 10.9927 11.6053C11.3711 11.3869 11.6042 10.9832 11.6042 10.5463C11.6042 9.60485 10.5851 9.01655 9.76985 9.48715C9.39155 9.70565 9.15845 10.1094 9.15845 10.5463Z" fill="#231F20"/>
<path d="M14.8228 9.79296C14.8228 10.7344 15.8419 11.3227 16.6572 10.852C17.0355 10.6336 17.2686 10.2299 17.2686 9.79296C17.2686 8.85156 16.2495 8.26326 15.4343 8.73386C15.0559 8.95236 14.8228 9.35606 14.8228 9.79296Z" fill="#231F20"/>
<path d="M11.2617 14.0878C12.0158 14.561 12.9194 14.7355 13.7955 14.577C14.665 14.5043 15.4785 14.1184 16.0847 13.491" stroke="#231F20" stroke-miterlimit="10" stroke-linecap="round"/>
<path d="M16.4956 2.87622C17.474 3.16972 17.474 3.12082 17.5327 4.08932" stroke="white" stroke-miterlimit="10" stroke-linecap="round"/>
<path d="M2.2417 35.229C2.2417 36.9687 4.125 38.056 5.6316 37.1862C6.3308 36.7825 6.7615 36.0364 6.7615 35.229C6.7615 33.4894 4.8783 32.4021 3.3717 33.2719C2.6725 33.6756 2.2417 34.4217 2.2417 35.229Z" fill="#FFE236" stroke="#231F20" stroke-miterlimit="10"/>
<path d="M35.6218 11.4169C35.6218 12.6972 37.0077 13.4974 38.1165 12.8572C38.631 12.5601 38.948 12.0111 38.948 11.4169C38.948 10.1366 37.5621 9.33641 36.4533 9.97661C35.9388 10.2737 35.6218 10.8227 35.6218 11.4169Z" fill="#FFE236" stroke="#231F20" stroke-miterlimit="10"/>
<path d="M36.0033 30.1516C36.5803 29.9085 36.9883 29.3818 37.0795 28.7624C37.0795 28.7037 37.549 27.6373 35.6316 23.7926C36.0762 23.6287 36.3954 23.2344 36.4631 22.7653C36.4631 22.7164 36.9131 21.787 34.7413 18.2749C33.927 16.9205 32.9405 15.6774 31.8064 14.5768C30.921 13.885 29.7424 13.6966 28.6855 14.0779C27.2757 14.7674 25.9605 15.6355 24.7723 16.6607C24.332 17.0324 21.9156 19.1358 21.7199 20.388C21.6212 20.9741 21.909 21.5575 22.4341 21.8359C21.3775 22.9512 19.8025 24.7709 19.6166 25.9742C19.4865 26.5975 19.6991 27.2428 20.1742 27.6667C19.1274 28.8113 17.973 30.2592 17.8067 31.2962C17.611 32.5191 18.335 33.2528 19.5579 33.8496C20.9387 34.3661 22.3585 34.7718 23.8038 35.0627C23.6472 36.3639 23.5592 37.7335 23.8722 38.0564C24.1852 38.3793 25.3691 38.7314 26.4648 38.9075C27.5605 39.0836 28.8812 39.2597 29.1943 38.9075C29.5074 38.5553 29.9378 37.3618 30.1726 36.0802C31.6521 36.2636 33.1443 36.3225 34.6337 36.2563C35.974 36.0508 36.8838 35.6106 37.0892 34.4073C37.0795 34.2605 37.4806 33.3311 36.0033 30.1516Z" fill="#FF52A1" stroke="#231F20" stroke-miterlimit="10"/>
<path d="M25.6528 35.2584C26.0798 35.3791 26.5145 35.4706 26.9539 35.5323C27.3908 35.6076 27.8319 35.6566 28.2746 35.6791" stroke="#231F20" stroke-miterlimit="10" stroke-linecap="round"/>
<path d="M25.5354 20.3C25.5354 21.5577 26.8968 22.3437 27.986 21.7149C28.4915 21.423 28.8029 20.8837 28.8029 20.3C28.8029 19.0423 27.4414 18.2562 26.3523 18.8851C25.8468 19.1769 25.5354 19.7163 25.5354 20.3Z" fill="#FFE236" stroke="#231F20" stroke-miterlimit="10"/>
<path d="M31.0139 25.7883C31.0139 27.046 32.3754 27.8321 33.4646 27.2032C33.9701 26.9114 34.2815 26.372 34.2815 25.7883C34.2815 24.5306 32.92 23.7446 31.8308 24.3734C31.3253 24.6653 31.0139 25.2046 31.0139 25.7883Z" fill="#FFE236" stroke="#231F20" stroke-miterlimit="10"/>
<path d="M28.4899 27.0602C28.1165 27.0102 27.7382 27.0102 27.3648 27.0602C27.0841 27.0918 26.8062 27.144 26.5332 27.2167C26.3654 27.0107 26.1823 26.8178 25.9854 26.6395C25.7136 26.3818 25.4114 26.1584 25.0853 25.9742C24.8766 25.8788 24.6297 25.9598 24.5179 26.1602C24.364 26.5016 24.2492 26.8592 24.1755 27.2264C24.1265 27.4883 24.0939 27.753 24.0777 28.0189C23.83 28.1191 23.5883 28.2334 23.3537 28.3613C23.0257 28.5433 22.7204 28.7633 22.4439 29.0168C22.2885 29.1853 22.2885 29.445 22.4439 29.6136C22.7204 29.8671 23.0257 30.087 23.3537 30.269C23.5908 30.3986 23.8359 30.5131 24.0875 30.6115C24.0955 30.898 24.1315 31.183 24.1951 31.4625C24.2621 31.8302 24.3738 32.1883 24.5277 32.5289C24.6395 32.7292 24.8864 32.8102 25.0951 32.7149C25.4227 32.5331 25.7253 32.3094 25.9952 32.0495C26.1969 31.8696 26.3835 31.6733 26.5528 31.4625C26.8091 31.5355 27.0708 31.588 27.3355 31.6192C27.7094 31.6588 28.0865 31.6588 28.4605 31.6192C28.6844 31.5747 28.8373 31.3666 28.8127 31.1397C28.7332 30.7728 28.6151 30.4154 28.4605 30.0733C28.3469 29.8233 28.2161 29.5814 28.0692 29.3494C28.2267 29.1067 28.3642 28.8515 28.4801 28.5863C28.6265 28.2506 28.7348 27.8994 28.8029 27.5395C28.8309 27.3244 28.6981 27.1211 28.4899 27.0602Z" fill="#FFE236" stroke="#231F20" stroke-miterlimit="10"/>
<path d="M31.376 16.6901C32.2328 17.6372 32.9508 18.7012 33.5087 19.8501" stroke="white" stroke-miterlimit="10" stroke-linecap="round"/>
</svg>
