<svg width="40" height="40" viewBox="0 0 40 40" fill="none" xmlns="http://www.w3.org/2000/svg">
<g clip-path="url(#clip0_2301_14359)">
<path d="M30.1831 5.03303C30.6222 4.91474 31.0421 4.73425 31.4301 4.49703C31.5932 4.35895 31.7151 4.17849 31.7821 3.97556C31.8492 3.77263 31.8589 3.55512 31.8101 3.34703C31.743 3.14504 31.6207 2.96585 31.4571 2.82977C31.2934 2.69369 31.0949 2.60614 30.8841 2.57703C30.4288 2.56735 29.9749 2.62979 29.5391 2.76203C29.6731 2.32603 29.7421 1.87303 29.7441 1.41703C29.7063 1.20846 29.6116 1.0144 29.4704 0.856281C29.3292 0.698163 29.1471 0.582141 28.9441 0.521029C28.7287 0.479762 28.506 0.500952 28.3022 0.582101C28.0985 0.66325 27.9222 0.800973 27.7941 0.979029C27.5693 1.37203 27.4022 1.79538 27.2981 2.23603C26.9738 1.91632 26.6062 1.64366 26.2061 1.42603C26.0061 1.35391 25.7901 1.33863 25.582 1.38188C25.3738 1.42513 25.1818 1.52522 25.0271 1.67103C24.8836 1.82927 24.7875 2.02463 24.7497 2.23485C24.7118 2.44507 24.7338 2.6617 24.8131 2.86003C25.0311 3.24203 25.2991 3.59203 25.6121 3.90203C25.1726 4.02012 24.7523 4.20062 24.3641 4.43803C24.2018 4.57454 24.0804 4.75326 24.0134 4.95445C23.9463 5.15563 23.9362 5.37145 23.9841 5.57803C24.0507 5.78129 24.1726 5.96197 24.3361 6.09976C24.4997 6.23755 24.6985 6.32699 24.9101 6.35803C25.3661 6.36203 25.8201 6.29703 26.2551 6.16303C26.1381 6.60503 26.0851 7.06103 26.0991 7.51803C26.1368 7.72678 26.2314 7.92105 26.3726 8.07936C26.5138 8.23767 26.696 8.35384 26.8991 8.41503C27.1084 8.45724 27.3253 8.44134 27.5263 8.36907C27.7273 8.2968 27.9046 8.1709 28.0391 8.00503C28.2621 7.61103 28.4291 7.18803 28.5351 6.74803C28.8601 7.06503 29.2271 7.33403 29.6271 7.54803C29.8264 7.62517 30.0438 7.64317 30.2531 7.5999C30.4624 7.55662 30.6547 7.45389 30.8071 7.30403C30.9518 7.14631 31.0488 6.95073 31.0867 6.74006C31.1245 6.52939 31.1018 6.31229 31.0211 6.11403C30.794 5.71608 30.5119 5.35216 30.1831 5.03303Z" fill="#9BFF00" stroke="#00034A" stroke-miterlimit="10"/>
<path d="M27.6489 14.34C27.8335 14.721 27.9093 15.1455 27.868 15.5669C27.8267 15.9882 27.6699 16.39 27.4149 16.728C26.4995 17.5734 25.4693 18.2854 24.3549 18.843C25.0405 20.0422 25.4746 21.3685 25.6309 22.7409C26.3329 28.0519 23.5849 32.0289 17.1329 32.8759C11.3509 33.6359 6.10291 30.2439 5.32091 24.3099C5.1554 23.198 5.17839 22.0662 5.38891 20.962C4.5614 20.7141 3.7589 20.3893 2.99191 19.992C1.89591 19.425 1.49791 18.618 1.26991 18.009C1.12001 17.6092 1.08537 17.1754 1.16991 16.757C1.28385 16.3453 1.51161 15.9742 1.82701 15.6862C2.14241 15.3983 2.53265 15.2051 2.95291 15.129C4.52554 15.1552 6.08817 15.3848 7.60191 15.812C6.79601 14.6559 6.29613 13.3145 6.14891 11.913C5.60391 7.80095 7.32891 4.73995 11.5689 3.90295C12.0427 2.89542 12.5791 1.91851 13.1749 0.97795C13.6589 0.46495 15.2359 0.78795 16.1459 0.97295L16.1669 0.97795C19.5249 1.66295 19.9469 3.75395 19.9969 6.82495C20.9115 8.03263 21.4749 9.46944 21.6249 10.977C21.7459 11.767 21.7549 12.568 21.6519 13.356C22.5783 12.9109 23.5407 12.5452 24.5289 12.2629C26.0119 12.0789 27.1039 13.425 27.6479 14.339L27.6489 14.34Z" fill="#00034A" stroke="#00034A" stroke-miterlimit="10"/>
<path d="M26.6739 13.3649C26.4557 12.9989 26.139 12.7017 25.7598 12.5071C25.3807 12.3126 24.9545 12.2287 24.5299 12.2649C23.0376 12.69 21.6061 13.3054 20.2709 14.0959C20.7313 12.7834 20.8618 11.3778 20.6509 10.0029C20.5013 8.49552 19.9383 7.05869 19.0239 5.85095C19.0046 4.67844 18.9265 3.50764 18.7899 2.34295C18.6139 1.66095 17.0749 1.16295 16.1679 0.978949C15.2619 0.792949 13.6629 0.461949 13.1759 0.978949C12.5795 1.91881 12.0424 2.89505 11.5679 3.90195C7.32789 4.73995 5.60389 7.80095 6.14889 11.9129C6.29612 13.3145 6.796 14.6559 7.60189 15.8119C6.08786 15.3846 4.52487 15.155 2.95189 15.1289C2.53164 15.2051 2.1414 15.3983 1.826 15.6862C1.5106 15.9742 1.28284 16.3453 1.16889 16.7569C1.08439 17.1754 1.11907 17.6092 1.26899 18.0089C1.41891 18.4087 1.67804 18.7583 2.01689 19.0179C3.13089 19.5949 4.31689 20.0179 5.54489 20.2749C5.19665 21.5907 5.12043 22.9637 5.32089 24.3099C6.02289 29.6309 9.70689 32.75 16.1579 31.9019C22.6099 31.0539 25.3579 27.0779 24.6569 21.7659C24.5003 20.3934 24.0658 19.0671 23.3799 17.8679C24.4943 17.3104 25.5244 16.5984 26.4399 15.7529C26.6949 15.415 26.8517 15.0132 26.893 14.5919C26.9343 14.1705 26.8584 13.746 26.6739 13.3649Z" fill="white" stroke="#00034A" stroke-miterlimit="10"/>
<path d="M17.289 5.33503C16.6848 5.02611 16.0473 4.78723 15.389 4.62303C14.7552 4.42199 14.1013 4.29121 13.439 4.23303" stroke="#00034A" stroke-miterlimit="10" stroke-linecap="round"/>
<path d="M14.6671 22.254C15.0988 22.254 15.5129 22.0825 15.8182 21.7772C16.1235 21.4719 16.2951 21.0578 16.2951 20.626C16.2951 20.1943 16.1235 19.7802 15.8182 19.4749C15.5129 19.1696 15.0988 18.998 14.6671 18.998C14.2353 18.998 13.8212 19.1696 13.5159 19.4749C13.2106 19.7802 13.0391 20.1943 13.0391 20.626C13.0391 21.0578 13.2106 21.4719 13.5159 21.7772C13.8212 22.0825 14.2353 22.254 14.6671 22.254Z" fill="#9BFF00" stroke="#00034A" stroke-miterlimit="10"/>
<path d="M15.408 27.887C15.6218 27.887 15.8335 27.8449 16.031 27.7631C16.2286 27.6812 16.408 27.5613 16.5592 27.4102C16.7104 27.259 16.8303 27.0795 16.9121 26.882C16.9939 26.6845 17.036 26.4728 17.036 26.259C17.036 26.0452 16.9939 25.8335 16.9121 25.636C16.8303 25.4385 16.7104 25.259 16.5592 25.1078C16.408 24.9566 16.2286 24.8367 16.031 24.7549C15.8335 24.6731 15.6218 24.631 15.408 24.631C14.9763 24.631 14.5622 24.8025 14.2569 25.1078C13.9516 25.4131 13.78 25.8272 13.78 26.259C13.78 26.6908 13.9516 27.1048 14.2569 27.4102C14.5622 27.7155 14.9763 27.887 15.408 27.887Z" fill="#9BFF00" stroke="#00034A" stroke-miterlimit="10"/>
<path d="M10.418 11.338C10.741 11.338 11.0508 11.2097 11.2792 10.9812C11.5076 10.7528 11.636 10.443 11.636 10.12C11.636 9.79694 11.5076 9.48714 11.2792 9.25872C11.0508 9.0303 10.741 8.90198 10.418 8.90198C10.0949 8.90198 9.78511 9.0303 9.55669 9.25872C9.32828 9.48714 9.19995 9.79694 9.19995 10.12C9.19995 10.443 9.32828 10.7528 9.55669 10.9812C9.78511 11.2097 10.0949 11.338 10.418 11.338Z" fill="#00034A"/>
<path d="M16.06 10.588C16.3831 10.588 16.6929 10.4597 16.9213 10.2312C17.1497 10.0028 17.278 9.69301 17.278 9.36998C17.278 9.04694 17.1497 8.73714 16.9213 8.50872C16.6929 8.2803 16.3831 8.15198 16.06 8.15198C15.737 8.15198 15.4272 8.2803 15.1988 8.50872C14.9704 8.73714 14.842 9.04694 14.842 9.36998C14.842 9.69301 14.9704 10.0028 15.1988 10.2312C15.4272 10.4597 15.737 10.588 16.06 10.588Z" fill="#00034A"/>
<path d="M15.2861 12.2889C15.4281 13.0259 14.7741 13.7709 13.8261 13.9529C12.8771 14.1359 11.9941 13.6859 11.8521 12.9489" stroke="#00034A" stroke-linecap="round"/>
<path d="M4.56007 36.96C5.15721 36.9602 5.72994 36.7231 6.15227 36.3009C6.5746 35.8788 6.81194 35.3062 6.81207 34.709C6.8122 34.1119 6.57512 33.5392 6.15297 33.1168C5.73083 32.6945 5.15821 32.4572 4.56107 32.457C3.96394 32.457 3.39126 32.6942 2.96902 33.1165C2.54678 33.5387 2.30957 34.1114 2.30957 34.7085C2.30957 35.3057 2.54678 35.8783 2.96902 36.3006C3.39126 36.7228 3.96294 36.96 4.56007 36.96Z" fill="#9BFF00" stroke="#00034A" stroke-miterlimit="10"/>
<path d="M37.2191 12.6439C37.44 12.6494 37.6599 12.6105 37.8656 12.5297C38.0713 12.4489 38.2588 12.3278 38.417 12.1734C38.5752 12.0191 38.7009 11.8346 38.7867 11.6309C38.8726 11.4273 38.9168 11.2085 38.9168 10.9874C38.9168 10.7664 38.8726 10.5476 38.7867 10.3439C38.7009 10.1403 38.5752 9.95582 38.417 9.80146C38.2588 9.64711 38.0713 9.52596 37.8656 9.44515C37.6599 9.36435 37.44 9.32552 37.2191 9.33094C36.7868 9.34157 36.3758 9.52075 36.0738 9.83025C35.7718 10.1397 35.6028 10.555 35.6028 10.9874C35.6028 11.4199 35.7718 11.8351 36.0738 12.1446C36.3758 12.4541 36.7868 12.6333 37.2191 12.6439Z" fill="#9BFF00" stroke="#00034A" stroke-miterlimit="10"/>
<path d="M30.1401 39.017C30.4521 38.667 30.8751 37.807 31.1081 36.531C32.5821 36.714 34.0681 36.7731 35.5521 36.7061C36.8881 36.5021 37.7941 36.0631 37.9991 34.8651C37.9996 34.8372 38.0026 34.8094 38.0081 34.7821C38.0561 34.4781 38.2201 33.431 36.9171 30.625C37.204 30.5044 37.4544 30.3108 37.6433 30.0634C37.8322 29.8161 37.9532 29.5236 37.9941 29.2151C38.0411 29.0291 38.3301 27.8651 36.5471 24.2901C36.7677 24.209 36.962 24.069 37.1087 23.8853C37.2554 23.7016 37.3489 23.4812 37.3791 23.248C37.4191 23.096 37.6921 22.0801 35.6591 18.7941C34.6071 17.0441 33.2191 15.5491 31.7611 14.1351C31.3272 13.7959 30.8144 13.5724 30.2707 13.4855C29.7269 13.3986 29.17 13.4511 28.6521 13.638C27.2478 14.325 25.9377 15.1898 24.7541 16.2111C24.3161 16.5811 21.9081 18.6771 21.7141 19.9241C21.6658 20.2087 21.7085 20.5013 21.8359 20.7603C21.9633 21.0193 22.1691 21.2316 22.4241 21.3671C21.3721 22.4771 19.8041 24.2901 19.6181 25.4891C19.5545 25.7942 19.5724 26.1106 19.67 26.4066C19.7676 26.7026 19.9415 26.9676 20.1741 27.175C19.1311 28.3151 17.9811 29.758 17.8151 30.791C17.5781 32.275 19.3201 33.717 20.5351 34.309C21.5729 34.6973 22.6332 35.0229 23.7101 35.284C23.6141 36.3211 23.4571 37.783 23.7101 38.043C23.8661 39.109 29.1501 40.132 30.1401 39.017Z" fill="#00034A" stroke="#00034A" stroke-miterlimit="10"/>
<path d="M35.9421 29.65C36.2246 29.5312 36.4718 29.3415 36.6595 29.0992C36.8473 28.8569 36.9695 28.5703 37.0141 28.2671C37.0141 28.2081 37.4821 27.1461 35.5721 23.3161C35.7894 23.2358 35.981 23.0984 36.1268 22.9184C36.2725 22.7383 36.3669 22.5223 36.4001 22.293C36.4001 22.243 36.8491 21.3181 34.6851 17.8191C33.8739 16.4698 32.891 15.2314 31.7611 14.1351C31.3273 13.7959 30.8145 13.5724 30.2707 13.4855C29.727 13.3986 29.17 13.4511 28.6521 13.638C27.2478 14.325 25.9377 15.1898 24.7541 16.2111C24.3161 16.5811 21.9081 18.6771 21.7141 19.9241C21.666 20.2087 21.7087 20.5012 21.8361 20.7602C21.9636 21.0192 22.1693 21.2315 22.4241 21.3671C21.3721 22.4771 19.8041 24.2901 19.6181 25.4891C19.5544 25.7942 19.5723 26.1107 19.6699 26.4067C19.7675 26.7027 19.9414 26.9677 20.1741 27.175C19.1311 28.3151 17.9811 29.758 17.8151 30.791C17.6201 32.0091 18.3411 32.74 19.5601 33.334C20.9351 33.849 22.3501 34.254 23.7901 34.543C23.6331 35.839 23.5461 37.2031 23.8581 37.5251C24.1691 37.8471 25.3481 38.1981 26.4401 38.3731C27.5321 38.548 28.8471 38.7231 29.1601 38.3731C29.4711 38.0231 29.9001 36.833 30.1341 35.557C31.6081 35.739 33.0941 35.797 34.5781 35.732C35.9131 35.527 36.8191 35.089 37.0241 33.89C37.0141 33.744 37.4141 32.818 35.9421 29.65Z" fill="#9BFF00" stroke="#00034A" stroke-miterlimit="10"/>
<path d="M25.6311 34.738C26.0571 34.858 26.4901 34.949 26.9271 35.011C27.3631 35.086 27.8021 35.134 28.2431 35.157" stroke="#00034A" stroke-miterlimit="10" stroke-linecap="round"/>
<path d="M27.1421 21.464C27.3592 21.4694 27.5752 21.4313 27.7774 21.3519C27.9796 21.2725 28.1638 21.1535 28.3193 21.0018C28.4747 20.8502 28.5983 20.6689 28.6826 20.4688C28.767 20.2687 28.8104 20.0537 28.8104 19.8365C28.8104 19.6193 28.767 19.4043 28.6826 19.2042C28.5983 19.004 28.4747 18.8228 28.3193 18.6712C28.1638 18.5195 27.9796 18.4005 27.7774 18.3211C27.5752 18.2417 27.3592 18.2036 27.1421 18.209C26.7174 18.2195 26.3137 18.3956 26.0171 18.6997C25.7205 19.0037 25.5544 19.4117 25.5544 19.8365C25.5544 20.2613 25.7205 20.6692 26.0171 20.9733C26.3137 21.2774 26.7174 21.4535 27.1421 21.464Z" fill="white" stroke="#00034A" stroke-miterlimit="10"/>
<path d="M32.5999 26.931C33.0314 26.931 33.4453 26.7596 33.7504 26.4545C34.0555 26.1493 34.2269 25.7355 34.2269 25.304C34.2269 24.8725 34.0555 24.4587 33.7504 24.1535C33.4453 23.8484 33.0314 23.677 32.5999 23.677C32.1683 23.677 31.7543 23.8485 31.4491 24.1537C31.1439 24.4589 30.9724 24.8729 30.9724 25.3045C30.9724 25.7361 31.1439 26.1501 31.4491 26.4553C31.7543 26.7605 32.1683 26.931 32.5999 26.931Z" fill="white" stroke="#00034A" stroke-miterlimit="10"/>
<path d="M28.457 26.57C28.0853 26.5203 27.7087 26.5203 27.337 26.57C27.057 26.602 26.78 26.654 26.508 26.727C26.3411 26.5219 26.1589 26.3296 25.963 26.152C25.6922 25.8952 25.391 25.6725 25.066 25.489C24.9658 25.4431 24.852 25.4367 24.7473 25.471C24.6426 25.5053 24.5547 25.5778 24.501 25.674C24.3472 26.0142 24.2328 26.3708 24.16 26.737C24.1103 26.9976 24.0776 27.2612 24.062 27.526C23.8154 27.6258 23.5746 27.7396 23.341 27.867C23.014 28.048 22.71 28.267 22.435 28.52C22.3603 28.6011 22.3188 28.7073 22.3188 28.8175C22.3188 28.9277 22.3603 29.0339 22.435 29.115C22.71 29.367 23.015 29.586 23.341 29.767C23.577 29.897 23.821 30.011 24.071 30.109C24.08 30.394 24.116 30.679 24.179 30.956C24.246 31.323 24.357 31.68 24.511 32.019C24.5647 32.1153 24.6526 32.1878 24.7573 32.222C24.862 32.2563 24.9758 32.2499 25.076 32.204C25.402 32.023 25.703 31.8 25.972 31.541C26.173 31.362 26.359 31.166 26.528 30.956C26.783 31.029 27.044 31.081 27.308 31.113C27.68 31.152 28.056 31.152 28.428 31.113C28.5358 31.0919 28.6317 31.031 28.6967 30.9424C28.7617 30.8539 28.7911 30.7442 28.779 30.635C28.7 30.2697 28.5827 29.9137 28.429 29.573C28.3158 29.3237 28.1855 29.0824 28.039 28.851C28.195 28.61 28.332 28.355 28.448 28.091C28.594 27.757 28.701 27.407 28.769 27.048C28.7821 26.9445 28.7581 26.8398 28.7011 26.7524C28.6441 26.665 28.558 26.6008 28.458 26.571L28.457 26.57Z" fill="white" stroke="#00034A" stroke-miterlimit="10"/>
</g>
<defs>
<clipPath id="clip0_2301_14359">
<rect width="40" height="40" fill="white"/>
</clipPath>
</defs>
</svg>
