<svg width="40" height="40" viewBox="0 0 40 40" fill="none" xmlns="http://www.w3.org/2000/svg">
<g clip-path="url(#clip0_2301_15623)">
<path d="M28.016 3.81398C24.883 2.32398 20.84 0.921977 18.866 1.21598C17.264 1.15798 12.438 2.85598 9.156 4.64198C5.874 6.42798 2.997 9.07298 2.852 9.92198C1.80055 13.1784 1.26014 16.5781 1.25 20C1.25985 23.4219 1.80027 26.8216 2.852 30.078C2.997 30.918 5.835 33.514 9.156 35.358C10.069 35.865 11.094 36.357 12.134 36.803C15.237 38.285 18.888 39.458 20.247 39.409C22.583 39.757 27.709 37.778 31.01 35.982C34.311 34.187 37.381 30.76 37.342 30.268C38.3299 27.1491 38.8314 23.8966 38.829 20.625C38.8325 17.35 38.3309 14.0941 37.342 10.972C37.342 10.48 34.205 6.99498 31.01 5.25798C30.0342 4.73197 29.0352 4.25015 28.016 3.81398Z" fill="#00034A" stroke="#00034A" stroke-miterlimit="10"/>
<path d="M37.448 20C37.4515 16.725 36.9499 13.4691 35.961 10.347C35.961 9.855 32.824 6.37 29.629 4.633C26.434 2.895 21.202 0.867997 18.866 1.216C17.264 1.158 12.438 2.856 9.156 4.642C5.874 6.428 2.997 9.073 2.852 9.922C1.80055 13.1784 1.26014 16.5781 1.25 20C1.25985 23.4219 1.80027 26.8217 2.852 30.078C2.997 30.918 5.835 33.514 9.156 35.358C12.476 37.201 17.264 38.842 18.866 38.784C21.202 39.132 26.328 37.153 29.629 35.358C32.93 33.562 35.999 30.135 35.961 29.643C36.9489 26.5241 37.4504 23.2716 37.448 20Z" fill="#9BFF00" stroke="#00034A" stroke-miterlimit="10"/>
<path d="M7.04199 14.517C7.72699 15.039 8.45099 15.483 9.15599 15.975C12.447 18.07 17.544 20.106 19.918 20C21.511 19.904 26.338 18.07 29.629 16.023C30.326 15.5844 31.0023 15.1139 31.656 14.613" stroke="#00034A" stroke-miterlimit="10" stroke-linecap="round"/>
<path d="M19.3491 32.066V22.239C19.3491 20 21.0191 19.759 21.0191 19.759" stroke="#00034A" stroke-miterlimit="10" stroke-linecap="round"/>
<path d="M19.349 22.24C19.3918 21.6929 19.2535 21.1469 18.9553 20.6863C18.6571 20.2256 18.2156 19.8759 17.699 19.691" stroke="#00034A" stroke-miterlimit="10" stroke-linecap="round"/>
</g>
<defs>
<clipPath id="clip0_2301_15623">
<rect width="40" height="40" fill="white"/>
</clipPath>
</defs>
</svg>
