<svg width="40" height="40" viewBox="0 0 40 40" fill="none" xmlns="http://www.w3.org/2000/svg">
<g clip-path="url(#clip0_2301_15605)">
<path d="M23.275 0.51001C22.352 0.51001 21.603 1.26301 21.603 2.19201C21.603 3.24701 22.798 4.17901 23.823 4.17901C24.746 4.17901 25.494 3.42601 25.494 2.49701C25.494 1.44201 24.3 0.51001 23.275 0.51001Z" fill="#00034A" stroke="#00034A" stroke-miterlimit="10" stroke-linecap="round" stroke-linejoin="round"/>
<path d="M8.73808 1.68799C10.8111 1.43999 14.0151 1.19199 15.8211 1.85199C17.1041 2.32199 18.0291 3.85599 18.4551 5.08199C19.0581 6.81499 19.5721 10.478 19.9391 13.612C20.3951 17.508 20.8891 22.259 20.2911 23.209C19.8061 25.062 15.1981 25.841 12.5001 26.164C10.5781 26.394 7.68308 26.624 5.83308 26.13C4.32708 25.728 3.31208 24.258 2.80808 22.842C2.20408 21.142 1.71708 17.416 1.33708 14.239C0.870084 10.344 0.387084 5.59299 0.985084 4.64299C1.43208 2.78999 6.04008 2.01099 8.73808 1.68799Z" fill="#00034A" stroke="#00034A" stroke-miterlimit="10" stroke-linecap="round" stroke-linejoin="round"/>
<path d="M25.86 37.527C32.22 37.527 37.375 32.341 37.375 25.945C37.375 19.548 32.219 14.363 25.86 14.363C19.5 14.363 14.344 19.548 14.344 25.945C14.344 32.341 19.5 37.527 25.86 37.527Z" fill="white" stroke="#00034A" stroke-miterlimit="10" stroke-linecap="round" stroke-linejoin="round"/>
<path d="M9.25112 31.085C9.17512 30.638 8.17812 30.059 7.35112 29.765C6.52512 29.47 5.45112 29.251 5.07112 29.536C4.54559 30.0425 4.16216 30.678 3.95912 31.379C3.67584 32.0474 3.57109 32.7779 3.65512 33.499C3.73112 33.935 4.72912 34.515 5.55512 34.819C6.38212 35.123 7.45512 35.332 7.82612 35.037C8.35833 34.5461 8.75157 33.9235 8.96612 33.232C9.24986 32.5543 9.34822 31.8133 9.25112 31.085Z" fill="#00034A" stroke="#00034A" stroke-miterlimit="10" stroke-linecap="round" stroke-linejoin="round"/>
<path d="M23.275 3.87301C24.199 3.87301 24.948 3.12101 24.948 2.19201C24.948 1.26201 24.198 0.51001 23.275 0.51001C22.352 0.51001 21.603 1.26301 21.603 2.19201C21.603 3.12101 22.352 3.87301 23.275 3.87301Z" fill="#00034A" stroke="#00034A" stroke-miterlimit="10" stroke-linecap="round" stroke-linejoin="round"/>
<path d="M30.63 10.961C30.63 10.961 31.142 11.028 32.634 10.011C33.186 9.64095 33.6876 9.20058 34.126 8.70101C34.2433 8.54267 34.3009 8.34797 34.2887 8.15128C34.2764 7.95459 34.195 7.76856 34.059 7.62601C33.5611 7.18689 33.0089 6.81351 32.416 6.51501C31.7655 6.15271 31.0534 5.91433 30.316 5.81201C30.1413 5.816 29.9729 5.87787 29.8371 5.9879C29.7014 6.09794 29.606 6.24992 29.566 6.42001C29.4574 7.0856 29.4315 7.76207 29.489 8.43401C29.512 9.12601 29.624 9.81301 29.822 10.477C29.8786 10.6393 29.988 10.778 30.1326 10.871C30.2772 10.964 30.4488 11.0059 30.62 10.99L30.63 10.961Z" fill="#00034A" stroke="#00034A" stroke-miterlimit="10" stroke-linecap="round" stroke-linejoin="round"/>
<path d="M33.6701 7.30601C33.278 7.00286 32.8577 6.73798 32.4151 6.51501C31.7646 6.15271 31.0525 5.91433 30.3151 5.81201C30.1404 5.816 29.9719 5.87787 29.8362 5.9879C29.7005 6.09794 29.6051 6.24992 29.5651 6.42001C29.4568 7.08565 29.4313 7.76211 29.4891 8.43401C29.5121 9.12601 29.6241 9.81301 29.8221 10.477C29.8786 10.6392 29.9877 10.7779 30.1321 10.871C30.4341 11.065 30.6541 11.233 30.9511 11.424C31.0956 11.5169 31.267 11.5588 31.4381 11.543L31.4481 11.514C31.4481 11.514 31.9611 11.581 33.4521 10.564C34.0042 10.1936 34.5057 9.75291 34.9441 9.25301C35.0611 9.09476 35.1186 8.90026 35.1063 8.7038C35.0941 8.50733 35.0129 8.32149 34.8771 8.17901C34.504 7.85002 34.1001 7.55767 33.6711 7.30601H33.6701Z" fill="#00034A" stroke="#00034A" stroke-miterlimit="10" stroke-linecap="round" stroke-linejoin="round"/>
<path d="M25.86 14.363C19.5 14.363 14.344 19.548 14.344 25.945C14.344 32.62 20.899 39.222 27.591 39.222C33.951 39.222 39.106 34.036 39.106 27.64C39.106 20.964 32.551 14.363 25.86 14.363Z" fill="#00034A" stroke="#00034A" stroke-miterlimit="10" stroke-linecap="round" stroke-linejoin="round"/>
<path d="M7.35094 29.764C8.08494 30.026 9.56094 30.807 9.71494 31.714C9.81222 32.4426 9.71385 33.184 9.42994 33.862C9.21539 34.5535 8.82215 35.1761 8.28994 35.667C7.91994 35.961 6.84594 35.752 6.01994 35.448C5.28794 35.179 3.81294 34.404 3.65494 33.498C3.57126 32.7776 3.67601 32.0478 3.95894 31.38C4.16181 30.6786 4.54526 30.0427 5.07094 29.536C5.45094 29.251 6.52494 29.47 7.35094 29.764Z" fill="#00034A" stroke="#00034A" stroke-miterlimit="10" stroke-linecap="round" stroke-linejoin="round"/>
<path d="M17.0041 2.724C16.0541 1.042 11.4371 1.365 8.73811 1.688C6.04011 2.011 1.43211 2.79 0.985107 4.643C0.387107 5.593 0.871107 10.343 1.33711 14.239C1.80211 18.135 2.43011 22.857 3.23711 23.655C4.18711 25.337 8.80511 25.014 11.5031 24.691C14.2021 24.368 18.8101 23.588 19.2941 21.736C19.8931 20.786 19.3991 16.035 18.9431 12.139C18.4871 8.244 17.8031 3.531 17.0041 2.724Z" fill="#9BFF00" stroke="#00034A" stroke-miterlimit="10" stroke-linecap="round" stroke-linejoin="round"/>
<path d="M14.8571 5.21299C14.2021 3.91099 10.9431 4.11999 9.05211 4.34899C7.16212 4.57699 3.94011 5.13699 3.60811 6.55299C3.20811 7.29299 3.60811 10.923 3.94011 13.926C4.27311 16.928 4.76711 20.576 5.33711 21.176C5.99311 22.476 9.25111 22.268 11.1421 22.04C13.0331 21.812 16.2541 21.251 16.5771 19.836C16.9851 19.094 16.5771 15.465 16.2541 12.453C15.9311 9.44099 15.4181 5.83099 14.8571 5.21299Z" fill="white" stroke="#00034A" stroke-miterlimit="10" stroke-linecap="round" stroke-linejoin="round"/>
<path d="M8.29199 20.586C9.18199 20.586 10.07 20.525 10.952 20.406C11.8346 20.3197 12.7107 20.1767 13.575 19.978" stroke="#00034A" stroke-miterlimit="10" stroke-linecap="round" stroke-linejoin="round"/>
<path d="M25.86 37.527C32.22 37.527 37.375 32.341 37.375 25.945C37.375 19.548 32.219 14.363 25.86 14.363C19.5 14.363 14.344 19.548 14.344 25.945C14.344 32.341 19.5 37.527 25.86 37.527Z" fill="white" stroke="#00034A" stroke-miterlimit="10" stroke-linecap="round" stroke-linejoin="round"/>
<path d="M32.5101 24.368C31.2925 23.9063 30.0105 23.6371 28.7101 23.57C28.8241 21.812 28.8811 20.073 28.6431 19.683C28.5011 19.094 27.4181 18.933 26.5251 18.847C25.6321 18.762 24.5291 18.714 24.2731 19.256C23.8176 20.4749 23.5515 21.7565 23.4841 23.056C22.1999 22.8753 20.8954 22.8945 19.6171 23.113C19.0371 23.265 18.8771 24.349 18.7911 25.251C18.7051 26.154 18.6481 27.246 19.1901 27.512C20.4071 27.974 21.6901 28.243 22.9901 28.311C22.8101 29.601 22.8291 30.911 23.0471 32.197C23.1991 32.777 24.2731 32.937 25.1751 33.033C26.0781 33.128 27.1611 33.166 27.4181 32.624C27.8781 31.406 28.1481 30.124 28.2161 28.824C29.5001 29.004 30.8051 28.984 32.0831 28.767C32.6631 28.615 32.8151 27.532 32.9101 26.629C33.0051 25.726 33.0521 24.624 32.5101 24.368Z" fill="#9BFF00" stroke="#00034A" stroke-miterlimit="10" stroke-linecap="round" stroke-linejoin="round"/>
<path d="M9.25112 31.085C9.17512 30.638 8.17812 30.059 7.35112 29.765C6.52512 29.47 5.45112 29.251 5.07112 29.536C4.54559 30.0425 4.16216 30.678 3.95912 31.379C3.67584 32.0474 3.57109 32.7779 3.65512 33.499C3.73112 33.935 4.72912 34.515 5.55512 34.819C6.38212 35.123 7.45512 35.332 7.82612 35.037C8.35833 34.5461 8.75157 33.9235 8.96612 33.232C9.24986 32.5543 9.34822 31.8133 9.25112 31.085Z" fill="#9BFF00" stroke="#00034A" stroke-miterlimit="10" stroke-linecap="round" stroke-linejoin="round"/>
<path d="M23.275 3.87301C24.199 3.87301 24.948 3.12101 24.948 2.19201C24.948 1.26201 24.198 0.51001 23.275 0.51001C22.352 0.51001 21.603 1.26301 21.603 2.19201C21.603 3.12101 22.352 3.87301 23.275 3.87301Z" fill="#9BFF00" stroke="#00034A" stroke-miterlimit="10" stroke-linecap="round" stroke-linejoin="round"/>
<path d="M30.63 10.961C30.63 10.961 31.142 11.028 32.634 10.011C33.186 9.64095 33.6876 9.20058 34.126 8.70101C34.2433 8.54267 34.3009 8.34797 34.2887 8.15128C34.2764 7.95459 34.195 7.76856 34.059 7.62601C33.5611 7.18689 33.0089 6.81351 32.416 6.51501C31.7655 6.15271 31.0534 5.91433 30.316 5.81201C30.1413 5.816 29.9729 5.87787 29.8371 5.9879C29.7014 6.09794 29.606 6.24992 29.566 6.42001C29.4574 7.0856 29.4315 7.76207 29.489 8.43401C29.512 9.12601 29.624 9.81301 29.822 10.477C29.8786 10.6393 29.988 10.778 30.1326 10.871C30.2772 10.964 30.4488 11.0059 30.62 10.99L30.63 10.961Z" fill="#9BFF00" stroke="#00034A" stroke-miterlimit="10" stroke-linecap="round" stroke-linejoin="round"/>
</g>
<defs>
<clipPath id="clip0_2301_15605">
<rect width="40" height="40" fill="white"/>
</clipPath>
</defs>
</svg>
