<svg width="40" height="40" viewBox="0 0 40 40" fill="none" xmlns="http://www.w3.org/2000/svg">
<g clip-path="url(#clip0_2301_14313)">
<path d="M17.86 2.84C16.86 1.07 12 1.41 9.16 1.75C6.31999 2.09 1.47 2.91 0.999995 4.86C0.369995 5.86 0.879995 10.86 1.37 14.96C1.86 19.06 2.52 24.03 3.37 24.87C4.37 26.64 9.22999 26.3 12.07 25.96C14.91 25.62 19.76 24.8 20.27 22.85C20.9 21.85 20.38 16.85 19.9 12.75C19.42 8.65 18.7 3.69 17.86 2.84Z" fill="#FFE236" stroke="#231F20" stroke-miterlimit="10"/>
<path d="M15.6 5.46C14.91 4.09 11.48 4.31 9.49 4.55C7.5 4.79 4.11 5.38 3.76 6.87C3.34 7.65 3.76 11.47 4.11 14.63C4.46 17.79 4.98 21.63 5.58 22.26C6.27 23.63 9.7 23.41 11.69 23.17C13.68 22.93 17.07 22.34 17.41 20.85C17.84 20.07 17.41 16.25 17.07 13.08C16.73 9.91 16.19 6.11 15.6 5.46Z" fill="white" stroke="#231F20" stroke-miterlimit="10"/>
<path d="M8.68994 21.64C9.62646 21.639 10.5619 21.5755 11.4899 21.45C12.4186 21.3593 13.3405 21.209 14.2499 21" stroke="#231F20" stroke-miterlimit="10" stroke-linecap="round"/>
<path d="M14 3.06C16.53 3.34 16.53 3.34 17.36 5.49" stroke="white" stroke-miterlimit="10" stroke-linecap="round"/>
<path d="M15.0601 27.28C15.0601 28.8808 15.3736 30.466 15.9826 31.9449C16.5917 33.4239 17.4845 34.7677 18.6099 35.8996C19.7354 37.0316 21.0715 37.9295 22.5419 38.5421C24.0124 39.1547 25.5884 39.47 27.1801 39.47C28.7717 39.47 30.3477 39.1547 31.8182 38.5421C33.2886 37.9295 34.6247 37.0316 35.7502 35.8996C36.8756 34.7677 37.7684 33.4239 38.3775 31.9449C38.9866 30.466 39.3001 28.8808 39.3001 27.28C39.3001 25.6792 38.9866 24.094 38.3775 22.6151C37.7684 21.1361 36.8756 19.7923 35.7502 18.6604C34.6247 17.5284 33.2886 16.6305 31.8182 16.0179C30.3477 15.4053 28.7717 15.09 27.1801 15.09C25.5884 15.09 24.0124 15.4053 22.5419 16.0179C21.0715 16.6305 19.7354 17.5284 18.6099 18.6604C17.4845 19.7923 16.5917 21.1361 15.9826 22.6151C15.3736 24.094 15.0601 25.6792 15.0601 27.28Z" fill="#FF52A1" stroke="#231F20" stroke-miterlimit="10"/>
<path d="M34.1799 25.62C32.8983 25.134 31.5488 24.8506 30.1799 24.78C30.2999 22.93 30.3599 21.1 30.1099 20.69C29.9599 20.07 28.8199 19.9 27.8799 19.81C26.9399 19.72 25.7799 19.67 25.5099 20.24C25.0306 21.5231 24.7507 22.8721 24.6799 24.24C23.3283 24.0498 21.9554 24.07 20.6099 24.3C19.9999 24.46 19.8299 25.6 19.7399 26.55C19.6499 27.5 19.5899 28.65 20.1599 28.93C21.4416 29.4158 22.7911 29.6992 24.1599 29.77C23.9699 31.1283 23.9901 32.5078 24.2199 33.86C24.3799 34.47 25.5099 34.64 26.4599 34.74C27.4099 34.84 28.5499 34.88 28.8199 34.31C29.3042 33.0279 29.5876 31.6786 29.6599 30.31C31.0116 30.4997 32.3845 30.4795 33.7299 30.25C34.3399 30.09 34.4999 28.95 34.5999 28C34.6999 27.05 34.7499 25.89 34.1799 25.62Z" fill="white" stroke="#231F20" stroke-miterlimit="10"/>
<path d="M32.9202 18.26C34.093 18.9174 35.1149 19.8133 35.9202 20.89" stroke="white" stroke-miterlimit="10" stroke-linecap="round"/>
<path d="M9.70003 32.69C9.62003 32.22 8.57003 31.61 7.70003 31.3C6.83003 30.99 5.70004 30.76 5.30004 31.06C4.74702 31.5932 4.34358 32.2621 4.13003 33C3.8321 33.7031 3.72183 34.4715 3.81003 35.23C3.89003 35.69 4.94003 36.3 5.81003 36.62C6.68003 36.94 7.81003 37.16 8.20003 36.85C8.76027 36.3333 9.17422 35.6779 9.40003 34.95C9.69871 34.2366 9.80225 33.4566 9.70003 32.69Z" fill="#48EEFF" stroke="#231F20" stroke-miterlimit="10"/>
<path d="M22.7 2.28C22.7 2.74943 22.8854 3.19964 23.2154 3.53158C23.5455 3.86352 23.9932 4.05 24.4599 4.05C24.9267 4.05 25.3744 3.86352 25.7045 3.53158C26.0345 3.19964 26.2199 2.74943 26.2199 2.28C26.2199 1.81057 26.0345 1.36036 25.7045 1.02842C25.3744 0.696482 24.9267 0.51 24.4599 0.51C23.9932 0.51 23.5455 0.696482 23.2154 1.02842C22.8854 1.36036 22.7 1.81057 22.7 2.28Z" fill="#48EEFF" stroke="#231F20" stroke-miterlimit="10" stroke-linecap="round"/>
<path d="M32.1999 11.51C32.1999 11.51 32.7399 11.58 34.3099 10.51C34.8909 10.1201 35.4187 9.6562 35.8799 9.13C36.0031 8.96352 36.0636 8.75893 36.0508 8.55225C36.038 8.34556 35.9527 8.15001 35.8099 8C35.2858 7.53751 34.7043 7.14429 34.0799 6.83C33.3954 6.44868 32.6461 6.19776 31.8699 6.09C31.6859 6.09399 31.5085 6.15903 31.3655 6.27488C31.2225 6.39073 31.122 6.55083 31.0799 6.73C30.966 7.43067 30.9391 8.14274 30.9999 8.85C31.0243 9.57867 31.142 10.3012 31.3499 11C31.4095 11.1709 31.5246 11.317 31.6768 11.4148C31.8291 11.5127 32.0097 11.5568 32.1899 11.54L32.1999 11.51Z" fill="#48EEFF" stroke="#231F20" stroke-miterlimit="10"/>
</g>
<defs>
<clipPath id="clip0_2301_14313">
<rect width="40" height="40" fill="white"/>
</clipPath>
</defs>
</svg>
