<svg width="40" height="40" viewBox="0 0 40 40" fill="none" xmlns="http://www.w3.org/2000/svg">
<g clip-path="url(#clip0_2301_15585)">
<path d="M27.02 3.45002C28.6784 2.61182 30.3885 1.88033 32.14 1.26002C32.7757 1.04796 33.4601 1.02942 34.1063 1.20673C34.7525 1.38405 35.3316 1.74924 35.77 2.25602C36.057 2.64202 36.439 2.87402 36.757 3.24202C37.1727 3.8027 37.3699 4.49559 37.3118 5.19112C37.2536 5.88665 36.9441 6.53717 36.441 7.02102C35.3888 8.31215 34.2308 9.51331 32.979 10.612C33.707 11.7734 34.352 12.9847 34.909 14.237C35.209 14.139 35.513 14.053 35.82 13.977C36.1833 13.8991 36.5613 13.9253 36.9103 14.0527C37.2594 14.1801 37.5653 14.4034 37.793 14.697C38.103 15.057 38.486 15.304 38.78 15.683C39.0143 15.9554 39.1479 16.3 39.1587 16.6591C39.1694 17.0182 39.0566 17.3701 38.839 17.656C37.8741 18.8306 36.7933 19.9051 35.613 20.863C34.4787 21.8794 33.2421 22.7756 31.923 23.537C31.6011 23.7138 31.2273 23.772 30.8668 23.7017C30.5064 23.6313 30.1819 23.4368 29.95 23.152C29.631 22.79 29.264 22.535 28.963 22.165C28.7205 21.8891 28.556 21.5535 28.4865 21.1927C28.4171 20.832 28.4452 20.4592 28.568 20.113C28.723 19.757 28.893 19.407 29.078 19.065C27.9564 18.3269 26.8862 17.5134 25.875 16.63C24.5898 17.684 23.2206 18.6311 21.781 19.462C21.2231 19.8843 20.5302 20.0882 19.8325 20.0355C19.1347 19.9829 18.4803 19.6772 17.992 19.176C17.8683 19.0249 17.7579 18.8633 17.662 18.693C17.4202 18.5576 17.1992 18.3878 17.006 18.189C16.5794 17.6668 16.3185 17.029 16.2568 16.3574C16.1952 15.6859 16.3356 15.0112 16.66 14.42C17.5413 12.7875 18.5302 11.2154 19.62 9.71402C17.519 6.05402 18.249 3.37102 19.62 2.20602C20.991 1.04202 23.714 0.776023 27.02 3.44902V3.45002Z" fill="#00034A" stroke="#00034A" stroke-miterlimit="10"/>
<path d="M32.1399 1.26002C30.3884 1.88033 28.6782 2.61181 27.0199 3.45002C23.7139 0.776021 20.9909 1.04202 19.6199 2.20602C18.2489 3.37102 17.5189 6.05402 19.6199 9.71402C18.53 11.2154 17.5412 12.7875 16.6599 14.42C16.3352 15.0113 16.1947 15.6862 16.2564 16.3579C16.318 17.0297 16.579 17.6677 17.0059 18.19C17.4941 18.691 18.1484 18.9964 18.846 19.0489C19.5435 19.1014 20.2362 18.8973 20.7939 18.475C22.2337 17.6445 23.6033 16.6977 24.8889 15.644C26.2374 16.8221 27.69 17.8755 29.2289 18.791C28.9859 19.22 28.7649 19.661 28.5689 20.113C28.4458 20.4591 28.4175 20.8319 28.4867 21.1926C28.556 21.5534 28.7204 21.8891 28.9629 22.165C29.1947 22.45 29.5191 22.6446 29.8796 22.715C30.2402 22.7853 30.614 22.727 30.9359 22.55C32.255 21.7886 33.4916 20.8924 34.6259 19.876C35.8061 18.9184 36.8869 17.8443 37.8519 16.67C38.0694 16.3841 38.1822 16.0322 38.1715 15.6731C38.1608 15.314 38.0271 14.9694 37.7929 14.697C37.5652 14.4034 37.2592 14.1801 36.9101 14.0527C36.5611 13.9253 36.1832 13.8991 35.8199 13.977C35.3423 14.0957 34.8716 14.2406 34.4099 14.411C33.753 12.7449 32.9436 11.1431 31.9919 9.62602C33.244 8.52699 34.4024 7.3255 35.4549 6.03402C35.9576 5.55022 36.267 4.8999 36.3252 4.2046C36.3833 3.5093 36.1863 2.81662 35.7709 2.25602C35.3325 1.74887 34.7533 1.38336 34.1069 1.20586C33.4604 1.02836 32.7758 1.04686 32.1399 1.25902V1.26002Z" fill="#9BFF00" stroke="#00034A" stroke-miterlimit="10"/>
<path d="M21.7409 8.03703C21.7409 8.03703 19.8569 5.82703 21.5139 4.41703C23.1719 3.00503 25.0559 5.21503 25.0559 5.21503L21.7409 8.03703Z" fill="white" stroke="#00034A" stroke-linecap="round" stroke-linejoin="round"/>
<path d="M31.3701 16.009L33.2451 18.219" stroke="#00034A" stroke-miterlimit="10" stroke-linecap="round"/>
<path d="M14.9931 17.37C19.2651 17.45 24.1291 17.735 25.1841 18.436C28.2431 20.452 28.3741 25.26 28.2821 28.519C28.1941 31.696 27.5821 35.632 25.7861 36.688C25.5 36.8247 25.1937 36.9145 24.8791 36.954C24.8009 37.4389 24.5718 37.8868 24.2245 38.2342C23.8772 38.5815 23.4293 38.8106 22.9444 38.8888C22.4595 38.9671 21.9622 38.8906 21.5233 38.6702C21.0843 38.4498 20.726 38.0967 20.4991 37.661C20.2762 37.5442 20.0736 37.3923 19.8991 37.211H16.9071C16.7507 37.6355 16.4744 38.0056 16.1118 38.2762C15.7492 38.5468 15.3159 38.7064 14.8643 38.7356C14.4128 38.7648 13.9626 38.6624 13.5681 38.4408C13.1737 38.2191 12.852 37.8878 12.6421 37.487C12.472 37.3978 12.3134 37.288 12.1701 37.16C12.0009 37.5738 11.717 37.9308 11.3518 38.1888C10.9867 38.4468 10.5554 38.5952 10.1088 38.6165C9.6622 38.6379 9.21878 38.5312 8.83071 38.3092C8.44263 38.0871 8.12602 37.7588 7.91812 37.363C7.57422 37.1822 7.28048 36.919 7.06312 36.597C6.43502 36.5091 5.81432 36.3748 5.20612 36.195C3.70612 35.715 2.23212 34.358 1.36912 33.037C0.697124 32.0074 0.400469 30.7777 0.529116 29.555C0.658116 24.849 7.14912 17.163 14.9931 17.37Z" fill="#00034A" stroke="#00034A" stroke-miterlimit="10"/>
<path d="M25.1839 18.436C24.1289 17.736 19.2639 17.449 14.9929 17.37C7.1489 17.163 0.657899 24.85 0.528899 29.555C0.400176 30.7779 0.69687 32.0078 1.369 33.0374C2.04113 34.0671 3.04761 34.8337 4.2189 35.208C5.0269 35.447 5.8569 35.606 6.6959 35.682C6.78397 36.1941 7.03944 36.6626 7.42229 37.0139C7.80514 37.3653 8.29373 37.5797 8.81152 37.6237C9.32931 37.6676 9.84703 37.5385 10.2836 37.2566C10.7201 36.9747 11.0508 36.556 11.2239 36.066H11.4809C11.6183 36.5387 11.9013 36.956 12.2896 37.2584C12.678 37.5609 13.1518 37.7332 13.6438 37.7507C14.1357 37.7682 14.6206 37.63 15.0294 37.3559C15.4383 37.0818 15.7503 36.6857 15.9209 36.224H19.3339C19.4797 36.7347 19.7949 37.1806 20.2276 37.4884C20.6604 37.7963 21.185 37.9478 21.7152 37.918C22.2455 37.8882 22.7498 37.6789 23.1454 37.3246C23.541 36.9702 23.8042 36.4918 23.8919 35.968C24.2069 35.928 24.5129 35.838 24.7999 35.701C26.5949 34.646 27.2069 30.709 27.2959 27.532C27.3849 24.355 26.9199 19.58 25.1839 18.436Z" fill="white" stroke="#00034A" stroke-miterlimit="10"/>
<path d="M8.4119 26.625C9.9809 26.625 10.0009 26.043 10.8389 24.178C11.4309 22.856 12.5069 20.448 10.9379 20.409L6.2809 20.281C4.7129 20.281 1.4369 23.29 1.3479 25.214C1.3479 26.477 2.3349 26.496 6.8039 26.624L8.4119 26.625Z" fill="#9BFF00" stroke="#00034A" stroke-miterlimit="10"/>
<path d="M23.32 26.782C24.05 26.526 24.218 25.125 24.247 24.059C24.277 22.994 24.178 21.583 23.467 21.297C22.2377 20.8506 20.9378 20.63 19.63 20.646C18.539 20.5496 17.4396 20.6498 16.384 20.942C15.397 21.475 13.237 25.51 14.273 26.319C15.082 26.969 17.873 26.881 19.453 26.921C21.031 26.961 22.955 27.049 23.32 26.782Z" fill="#9BFF00" stroke="#00034A" stroke-miterlimit="10"/>
<path d="M7.49512 33.59C7.49512 33.59 10.1091 33.738 15.3871 33.876C20.6661 34.014 23.2801 34.004 23.2801 34.004" stroke="#00034A" stroke-miterlimit="10" stroke-linecap="round"/>
<path d="M4.535 32.475C4.71055 31.6652 4.63126 30.821 4.308 30.058C4.0604 29.2745 3.57838 28.5859 2.927 28.085" stroke="#00034A" stroke-miterlimit="10" stroke-linecap="round"/>
<path d="M10.9359 4.69402C6.60393 6.83102 4.21493 10.143 3.98193 14.016C4.07593 14.566 4.75893 15.19 5.16393 15.545C5.33817 15.6981 5.54887 15.8037 5.77576 15.8518C6.00265 15.8998 6.23808 15.8886 6.4594 15.8193C6.68072 15.75 6.88046 15.6249 7.03941 15.456C7.19836 15.2871 7.31115 15.0801 7.36693 14.855C7.56993 12.039 9.27493 9.72502 12.4519 8.04802C12.5076 8.16447 12.5883 8.26722 12.6882 8.34896C12.7881 8.43071 12.9048 8.48946 13.0299 8.52102C13.0579 8.53102 13.0869 8.53902 13.1159 8.54702C13.1431 8.71686 13.2196 8.87498 13.3359 9.00173C13.4521 9.12849 13.6031 9.2183 13.7699 9.26002C13.9443 9.32245 14.134 9.32749 14.3114 9.27442C14.4888 9.22135 14.6445 9.11293 14.7559 8.96502C15.0619 8.37002 15.3069 7.74502 15.4859 7.10002C15.9369 5.59302 15.9109 5.29102 15.8959 5.11002C15.8931 5.08278 15.8914 5.05542 15.8909 5.02802C15.6279 3.77302 13.8559 3.26302 12.8909 2.97602C12.251 2.76554 11.589 2.62964 10.9179 2.57102C10.5429 2.54102 10.2379 2.91702 10.1479 3.23202C10.0778 3.40484 10.0679 3.59627 10.12 3.77537C10.1721 3.95447 10.283 4.11078 10.4349 4.21902C10.5649 4.30202 10.7019 4.37602 10.8419 4.44002C10.8589 4.52933 10.8907 4.61518 10.9359 4.69402Z" fill="#00034A" stroke="#00034A" stroke-miterlimit="10"/>
<path d="M3.98193 14.016C4.21893 10.069 6.69593 6.706 11.1849 4.574C10.9211 4.48742 10.6691 4.36816 10.4349 4.219C10.2831 4.11074 10.1722 3.95437 10.1203 3.77524C10.0684 3.5961 10.0785 3.40469 10.1489 3.232C10.2379 2.917 10.5429 2.542 10.9189 2.572C11.59 2.63029 12.252 2.76586 12.8919 2.976C14.6479 3.499 14.7069 3.627 14.8649 3.775C15.0101 3.91302 15.1099 4.09194 15.1509 4.288C15.1509 4.485 15.2689 4.614 14.7459 6.36C14.5669 7.00495 14.3223 7.62987 14.0159 8.225C13.9047 8.37309 13.749 8.4817 13.5716 8.53496C13.3941 8.58821 13.2044 8.58332 13.0299 8.521C12.8521 8.47629 12.6927 8.37703 12.5742 8.23714C12.4556 8.09725 12.3839 7.92376 12.3689 7.741C12.3829 7.461 12.4219 7.184 12.4869 6.912L12.3879 6.972C8.77793 8.669 6.84393 11.105 6.62693 14.115C6.552 14.4164 6.37558 14.6828 6.12733 14.8695C5.87909 15.0561 5.57415 15.1516 5.2638 15.1398C4.95344 15.1281 4.65659 15.0099 4.42314 14.805C4.1897 14.6002 4.0339 14.3222 3.98193 14.016Z" fill="#9BFF00" stroke="#00034A" stroke-miterlimit="10"/>
<path d="M37.931 25.115C38.1403 25.1203 38.3486 25.0836 38.5435 25.0072C38.7384 24.9307 38.9161 24.816 39.066 24.6698C39.2159 24.5237 39.335 24.349 39.4164 24.156C39.4977 23.9631 39.5396 23.7559 39.5396 23.5465C39.5396 23.3371 39.4977 23.1298 39.4164 22.9369C39.335 22.744 39.2159 22.5693 39.066 22.4231C38.9161 22.2769 38.7384 22.1623 38.5435 22.0858C38.3486 22.0094 38.1403 21.9727 37.931 21.978C37.5219 21.9883 37.133 22.1581 36.8472 22.4511C36.5615 22.7441 36.4016 23.1372 36.4016 23.5465C36.4016 23.9557 36.5615 24.3488 36.8472 24.6418C37.133 24.9349 37.5219 25.1046 37.931 25.115Z" fill="#00034A" stroke="#00034A" stroke-miterlimit="10"/>
<path d="M31.153 30.907C30.287 30.907 29.585 31.609 29.585 32.475C29.585 33.425 30.696 34.537 31.647 34.537C32.513 34.537 33.215 33.835 33.215 32.968C33.215 32.018 32.104 30.907 31.153 30.907Z" fill="#00034A" stroke="#00034A" stroke-miterlimit="10"/>
<path d="M36.6491 27.77C35.7821 27.77 35.0801 28.471 35.0801 29.338C35.0801 30.288 36.1921 31.4 37.1421 31.4C37.5581 31.3997 37.957 31.2343 38.2512 30.9401C38.5454 30.646 38.7108 30.247 38.7111 29.831C38.7111 28.881 37.5991 27.769 36.6491 27.769V27.77Z" fill="#00034A" stroke="#00034A" stroke-miterlimit="10"/>
<path d="M37.4379 24.622C37.6439 24.622 37.848 24.5814 38.0383 24.5026C38.2287 24.4237 38.4017 24.3082 38.5473 24.1625C38.693 24.0168 38.8086 23.8438 38.8875 23.6534C38.9663 23.4631 39.0069 23.2591 39.0069 23.053C39.0069 22.847 38.9663 22.6429 38.8875 22.4526C38.8086 22.2622 38.693 22.0893 38.5473 21.9436C38.4017 21.7979 38.2287 21.6823 38.0383 21.6034C37.848 21.5246 37.6439 21.484 37.4379 21.484C37.0218 21.484 36.6227 21.6493 36.3284 21.9436C36.0342 22.2378 35.8689 22.6369 35.8689 23.053C35.8689 23.4691 36.0342 23.8682 36.3284 24.1625C36.6227 24.4567 37.0218 24.622 37.4379 24.622Z" fill="#9BFF00" stroke="#00034A" stroke-miterlimit="10"/>
<path d="M31.153 34.044C31.5691 34.044 31.9682 33.8787 32.2624 33.5845C32.5567 33.2902 32.722 32.8911 32.722 32.475C32.722 32.0589 32.5567 31.6598 32.2624 31.3656C31.9682 31.0713 31.5691 30.906 31.153 30.906C30.7369 30.906 30.3378 31.0713 30.0435 31.3656C29.7493 31.6598 29.584 32.0589 29.584 32.475C29.584 32.8911 29.7493 33.2902 30.0435 33.5845C30.3378 33.8787 30.7369 34.044 31.153 34.044Z" fill="#9BFF00" stroke="#00034A" stroke-miterlimit="10"/>
<path d="M36.6491 30.907C37.0652 30.907 37.4643 30.7417 37.7585 30.4474C38.0528 30.1532 38.2181 29.7541 38.2181 29.338C38.2181 28.9219 38.0528 28.5228 37.7585 28.2285C37.4643 27.9343 37.0652 27.769 36.6491 27.769C36.2329 27.769 35.8339 27.9343 35.5396 28.2285C35.2454 28.5228 35.0801 28.9219 35.0801 29.338C35.0801 29.7541 35.2454 30.1532 35.5396 30.4474C35.8339 30.7417 36.2329 30.907 36.6491 30.907Z" fill="#9BFF00" stroke="#00034A" stroke-miterlimit="10"/>
<path d="M37.4379 24.622C37.6439 24.622 37.848 24.5814 38.0383 24.5026C38.2287 24.4237 38.4017 24.3082 38.5473 24.1625C38.693 24.0168 38.8086 23.8438 38.8875 23.6534C38.9663 23.4631 39.0069 23.2591 39.0069 23.053C39.0069 22.847 38.9663 22.6429 38.8875 22.4526C38.8086 22.2622 38.693 22.0893 38.5473 21.9436C38.4017 21.7979 38.2287 21.6823 38.0383 21.6034C37.848 21.5246 37.6439 21.484 37.4379 21.484C37.0218 21.484 36.6227 21.6493 36.3284 21.9436C36.0342 22.2378 35.8689 22.6369 35.8689 23.053C35.8689 23.4691 36.0342 23.8682 36.3284 24.1625C36.6227 24.4567 37.0218 24.622 37.4379 24.622Z" fill="#9BFF00" stroke="#00034A" stroke-miterlimit="10"/>
</g>
<defs>
<clipPath id="clip0_2301_15585">
<rect width="40" height="40" fill="white"/>
</clipPath>
</defs>
</svg>
