<svg width="40" height="40" viewBox="0 0 40 40" fill="none" xmlns="http://www.w3.org/2000/svg">
<g clip-path="url(#clip0_2301_15562)">
<path d="M19.5111 3.2251C24.2484 3.2251 31.8055 3.4687 35.0866 4.986C35.8684 5.3468 37.0338 6.2223 37.4843 6.9864C38.9632 8.2366 39.1072 14.9112 39.1072 20.4481C39.1072 25.986 38.9642 32.6597 37.4843 33.9108C36.0045 36.4604 26.1986 36.7749 20.4891 36.7749C15.5931 36.7749 7.68407 36.5156 4.59717 34.8573C3.33027 34.177 2.18357 32.9939 1.75967 31.6018C0.981766 29.0532 0.893066 23.9451 0.893066 19.5519C0.893066 14.014 1.03597 7.3404 2.51587 6.0892C3.99567 3.5406 13.8017 3.2251 19.5111 3.2251Z" fill="#00034A" stroke="#00034A" stroke-miterlimit="10"/>
<path d="M36.5063 6.0892C35.0255 3.5781 25.2205 3.2251 19.5111 3.2251C13.8017 3.2251 3.99567 3.5406 2.51587 6.0892C1.03697 7.3404 0.893066 14.014 0.893066 19.5519C0.893066 25.0898 1.03597 31.7635 2.51587 33.0136C3.99567 35.5247 13.8017 35.8787 19.5111 35.8787C25.2205 35.8787 35.0255 35.5632 36.5063 33.0136C37.9852 31.7635 38.1291 25.0898 38.1291 19.5519C38.1291 14.014 37.9862 7.3404 36.5063 6.0892Z" fill="#9BFF00" stroke="#00034A" stroke-miterlimit="10"/>
<path d="M32.257 14.0426C31.1498 12.5825 23.7979 12.5726 19.5111 12.5726C15.2243 12.5726 7.87239 12.5726 6.76519 14.0426C5.65699 14.7682 5.55249 18.6547 5.55249 21.8806C5.55249 25.1085 5.65699 28.994 6.76519 29.7196C7.87229 31.1808 15.2243 31.1906 19.5111 31.1906C23.7978 31.1906 31.1498 31.1906 32.257 29.7196C33.3642 28.994 33.4697 25.0987 33.4697 21.8816C33.4697 18.6636 33.3652 14.7781 32.257 14.0436V14.0426Z" fill="white" stroke="#00034A" stroke-miterlimit="10"/>
<path d="M7.28969 10.2429C8.63459 10.2429 9.47509 8.78698 8.80269 7.62228C8.49059 7.08178 7.91379 6.74878 7.28969 6.74878C5.94479 6.74878 5.10429 8.20468 5.77669 9.36938C6.08879 9.90988 6.66549 10.2429 7.28969 10.2429Z" fill="white" stroke="#00034A" stroke-miterlimit="10"/>
<path d="M13.1144 10.2429C14.4592 10.2429 15.2998 8.78698 14.6274 7.62228C14.3153 7.08178 13.7385 6.74878 13.1144 6.74878C11.7695 6.74878 10.929 8.20468 11.6014 9.36938C11.9135 9.90988 12.4902 10.2429 13.1144 10.2429Z" fill="white" stroke="#00034A" stroke-miterlimit="10"/>
</g>
<defs>
<clipPath id="clip0_2301_15562">
<rect width="40" height="40" fill="white"/>
</clipPath>
</defs>
</svg>
