<svg width="40" height="40" viewBox="0 0 40 40" fill="none" xmlns="http://www.w3.org/2000/svg">
<g clip-path="url(#clip0_2301_14271)">
<path d="M37.8 5.9C36.25 3.27 25.98 2.9 20 2.9C14.02 2.9 3.75 3.23 2.2 5.9C0.65 7.21 0.5 14.2 0.5 20C0.5 25.8 0.65 32.79 2.2 34.1C3.75 36.73 14.02 37.1 20 37.1C25.98 37.1 36.25 36.77 37.8 34.1C39.35 32.79 39.5 25.8 39.5 20C39.5 14.2 39.35 7.21 37.8 5.9Z" fill="#48EEFF" stroke="#231F20" stroke-miterlimit="10"/>
<path d="M33.3499 14.23C32.1899 12.7 24.4899 12.69 19.9999 12.69C15.5099 12.69 7.80988 12.69 6.64988 14.23C5.48988 14.99 5.37988 19.06 5.37988 22.44C5.37988 25.82 5.48988 29.89 6.64988 30.65C7.80988 32.18 15.5099 32.19 19.9999 32.19C24.4899 32.19 32.1899 32.19 33.3499 30.65C34.5099 29.89 34.6199 25.81 34.6199 22.44C34.6199 19.07 34.5099 15 33.3499 14.23Z" fill="white" stroke="#231F20" stroke-miterlimit="10"/>
<path d="M5.37012 8.42C5.37012 8.90535 5.56292 9.37081 5.90611 9.71401C6.2493 10.0572 6.71477 10.25 7.20012 10.25C7.68546 10.25 8.15093 10.0572 8.49412 9.71401C8.83731 9.37081 9.03012 8.90535 9.03012 8.42C9.03012 8.17968 8.98278 7.94172 8.89082 7.71969C8.79885 7.49766 8.66405 7.29593 8.49412 7.12599C8.32419 6.95606 8.12245 6.82127 7.90043 6.7293C7.6784 6.63733 7.44044 6.59 7.20012 6.59C6.9598 6.59 6.72183 6.63733 6.49981 6.7293C6.27778 6.82127 6.07604 6.95606 5.90611 7.12599C5.73618 7.29593 5.60138 7.49766 5.50942 7.71969C5.41745 7.94172 5.37012 8.17968 5.37012 8.42Z" fill="white" stroke="#231F20" stroke-miterlimit="10"/>
<path d="M11.47 8.42C11.47 8.90535 11.6628 9.37081 12.006 9.71401C12.3492 10.0572 12.8146 10.25 13.3 10.25C13.7853 10.25 14.2508 10.0572 14.594 9.71401C14.9372 9.37081 15.13 8.90535 15.13 8.42C15.13 7.93465 14.9372 7.46919 14.594 7.12599C14.2508 6.7828 13.7853 6.59 13.3 6.59C12.8146 6.59 12.3492 6.7828 12.006 7.12599C11.6628 7.46919 11.47 7.93465 11.47 8.42Z" fill="white" stroke="#231F20" stroke-miterlimit="10"/>
<path d="M33.3601 6.45C36.0001 7.06 36.0001 7.51 36.2301 9" stroke="white" stroke-miterlimit="10" stroke-linecap="round"/>
</g>
<defs>
<clipPath id="clip0_2301_14271">
<rect width="40" height="40" fill="white"/>
</clipPath>
</defs>
</svg>
