<svg width="40" height="40" viewBox="0 0 40 40" fill="none" xmlns="http://www.w3.org/2000/svg">
<g clip-path="url(#clip0_2301_15515)">
<path d="M3.14399 31.287L3.20899 31.397C3.23979 32.1413 3.55388 32.8457 4.08699 33.366C4.48999 34.337 5.78899 35.188 7.13899 35.172C7.91416 35.1627 8.65392 34.8461 9.19567 34.2916C9.73742 33.7371 10.0368 32.9901 10.028 32.215L11.344 32.107L11.634 32.083C12.041 32.049 12.459 32.014 12.878 31.974C13.1242 32.3982 13.4719 32.7545 13.89 33.011C14.2472 33.593 14.7947 34.0335 15.4398 34.2577C16.0848 34.482 16.7875 34.4761 17.4287 34.2412C18.0699 34.0063 18.6101 33.5567 18.9575 32.9688C19.305 32.381 19.4384 31.691 19.335 31.016C19.3098 30.7697 19.254 30.5275 19.169 30.295C19.519 30.036 19.777 29.675 19.909 29.262C20.7677 26.5805 21.4196 23.8371 21.859 21.056C22.2105 19.0645 22.4996 17.0625 22.726 15.053C23.7502 14.9987 24.7582 14.7746 25.709 14.39C26.284 14.127 26.303 13.036 26.235 12.227C26.235 10.525 25.399 9.47697 24.383 9.21497C23.327 8.98534 22.2402 8.93296 21.167 9.05997C18.049 9.32297 17.444 9.67297 17.045 10.833C16.2551 13.2569 15.6457 15.736 15.222 18.25C14.038 18.2238 12.8534 18.2518 11.672 18.334C11.542 16.883 11.3 10.489 8.54699 10.755C2.69899 11.242 0.116995 14.897 0.545995 20.004C0.613995 20.794 0.767994 21.575 1.00399 22.333C0.911365 23.4063 0.911365 24.4856 1.00399 25.559C1.20499 27.729 1.79399 30.768 3.14399 31.286V31.287Z" fill="#00034A" stroke="#00034A" stroke-miterlimit="10"/>
<path d="M3.20599 31.308C3.22597 32.0759 3.54737 32.8052 4.1007 33.3381C4.65403 33.8709 5.39485 34.1647 6.16301 34.1557C6.93117 34.1468 7.66496 33.8359 8.20575 33.2903C8.74654 32.7447 9.05088 32.0082 9.05299 31.24L10.369 31.133C11.061 31.075 11.792 31.016 12.513 30.938C12.6428 31.7034 13.0683 32.3872 13.6977 32.8417C14.3271 33.2962 15.11 33.485 15.8774 33.3674C16.6448 33.2498 17.3353 32.8352 17.7997 32.2131C18.2642 31.5909 18.4654 30.8112 18.36 30.042C18.3352 29.7954 18.2798 29.5528 18.195 29.32C18.544 29.062 18.803 28.7 18.935 28.287C19.7936 25.6058 20.4455 22.8628 20.885 20.082C21.245 18.055 21.567 15.774 21.752 14.078C22.7758 14.0239 23.7835 13.8002 24.734 13.416C25.309 13.153 25.328 12.061 25.26 11.252C25.192 10.443 24.987 9.37197 24.383 9.21497C23.327 8.98534 22.2402 8.93296 21.167 9.05997C18.049 9.32297 17.444 9.67297 17.045 10.833C16.2551 13.2569 15.6457 15.736 15.222 18.25C13.742 18.217 12.262 18.269 10.788 18.405C10.388 13.708 10.058 10.609 8.54699 10.755C2.69899 11.242 0.116995 14.897 0.545995 20.004C0.613995 20.794 0.767994 21.575 1.00399 22.333C0.911365 23.4063 0.911365 24.4856 1.00399 25.559C1.20799 27.761 1.81299 30.859 3.20599 31.308Z" fill="#9BFF00" stroke="#00034A" stroke-miterlimit="10"/>
<path d="M4.95996 21.865C6.93464 22.0019 8.91751 21.9661 10.886 21.758C12.8577 21.6395 14.8147 21.3426 16.733 20.871" stroke="#00034A" stroke-miterlimit="10" stroke-linecap="round"/>
<path d="M7.1731 27.868C7.60721 27.9429 8.01032 28.1421 8.33366 28.4413C8.65701 28.7405 8.88675 29.127 8.9951 29.554" stroke="#00034A" stroke-miterlimit="10" stroke-linecap="round"/>
<path d="M13.897 27.313C13.4857 27.4616 13.1247 27.7234 12.8558 28.0682C12.5869 28.4131 12.4209 28.8269 12.377 29.262" stroke="#00034A" stroke-miterlimit="10" stroke-linecap="round"/>
<path d="M29.48 17.509C32.862 17.967 36.838 19.282 37.647 20.179C37.966 20.528 38.306 20.804 38.621 21.154C40.093 22.762 39.333 28.648 39.06 30.656C38.124 37.672 28.476 39.534 27.648 39.426C27.164 39.364 23.938 37.856 21.538 35.218C19.388 33.252 17.491 30.456 17.971 27.02C18.244 24.974 19.062 19.107 20.894 17.938C21.918 17.294 26.098 17.051 29.48 17.508V17.509Z" fill="#00034A" stroke="#00034A" stroke-miterlimit="10"/>
<path d="M37.6469 20.18C36.8369 19.282 32.8619 17.967 29.4799 17.509C26.0979 17.051 21.9169 17.294 20.8939 17.938C19.0619 19.108 18.2439 24.974 17.9709 27.02C16.9959 34.008 25.8449 38.345 26.6729 38.452C27.5019 38.559 37.1499 36.698 38.0849 29.681C38.3579 27.673 39.1179 21.788 37.6469 20.18Z" fill="white" stroke="#00034A" stroke-miterlimit="10"/>
<path d="M33.417 25.042C32.7054 24.7871 31.9663 24.6169 31.215 24.535C31.3385 23.7816 31.3711 23.0161 31.312 22.255C31.234 21.329 29.88 21.037 29.08 20.93C28.281 20.822 26.907 20.754 26.586 21.621C26.3296 22.339 26.1594 23.0849 26.079 23.843C25.3251 23.7247 24.5602 23.6922 23.799 23.746C22.873 23.834 22.58 25.188 22.473 25.978C22.366 26.767 22.298 28.161 23.165 28.482C23.8826 28.7397 24.6286 28.91 25.387 28.989C25.2684 29.7429 25.2356 30.5077 25.289 31.269C25.377 32.185 26.732 32.488 27.521 32.595C28.311 32.702 29.694 32.77 30.026 31.903C30.283 31.182 30.453 30.433 30.532 29.671C31.286 29.795 32.052 29.828 32.813 29.769C33.729 29.691 34.031 28.336 34.138 27.537C34.246 26.737 34.284 25.364 33.417 25.042Z" fill="#9BFF00" stroke="#00034A" stroke-miterlimit="10"/>
<path d="M22.015 2.82197C22.329 2.89597 22.631 3.01397 22.911 3.17297C23.087 3.26797 23.511 3.66597 23.573 3.87397C23.6004 3.9654 23.5903 4.06396 23.545 4.14797C23.369 4.41797 23.163 4.66597 22.931 4.88797C22.7477 5.07049 22.549 5.23678 22.337 5.38497C22.371 5.61797 22.387 5.85197 22.385 6.08697C22.42 6.41097 22.42 6.73697 22.385 7.06197C22.358 7.15126 22.2998 7.22791 22.2211 7.278C22.1424 7.32809 22.0483 7.3483 21.956 7.33497C21.619 7.243 21.2951 7.10859 20.992 6.93497C20.7897 6.82365 20.5943 6.70009 20.407 6.56497C19.9275 6.83712 19.4022 7.0188 18.857 7.10097C18.7635 7.10665 18.6713 7.07663 18.599 7.01697C18.358 6.81697 18.353 6.72797 18.112 6.52897C18.0396 6.46953 17.9924 6.38483 17.98 6.29197C17.9562 5.96534 17.9794 5.63699 18.049 5.31697C18.091 5.07697 18.149 4.83897 18.224 4.60597C18.0568 4.44764 17.9005 4.27826 17.756 4.09897C17.5498 3.85067 17.3733 3.57917 17.23 3.28997C17.1989 3.20035 17.2016 3.10248 17.2375 3.01468C17.2734 2.92688 17.3401 2.85517 17.425 2.81297C17.7398 2.69831 18.0665 2.61981 18.399 2.57897C18.629 2.55797 18.861 2.55797 19.091 2.57897C19.184 2.36797 19.295 2.16597 19.423 1.97497C19.581 1.70597 19.771 1.45697 19.988 1.23397C20.0566 1.16942 20.1473 1.13348 20.2415 1.13348C20.3357 1.13348 20.4264 1.16942 20.495 1.23397C20.873 1.65397 21.275 2.00897 21.537 2.53997C21.567 2.60297 21.597 2.66597 21.624 2.72997C21.7558 2.7539 21.8863 2.78461 22.015 2.82197Z" fill="#00034A" stroke="#00034A" stroke-miterlimit="10"/>
<path d="M31.8001 3.53401C32.2011 3.75401 32.5771 4.01901 32.9201 4.32401C33.1901 4.49401 33.4061 4.83701 33.6511 5.05401C33.7232 5.09986 33.783 5.16257 33.8254 5.23672C33.8678 5.31088 33.8915 5.39424 33.8944 5.47961C33.8974 5.56497 33.8795 5.64977 33.8423 5.72668C33.8052 5.80358 33.7498 5.87028 33.6811 5.92101C33.3499 6.23704 32.9796 6.50926 32.5791 6.73101C32.2681 6.91101 31.9421 7.06301 31.6051 7.18801C31.5874 7.51574 31.5449 7.84167 31.4781 8.16301C31.3951 8.61301 31.2581 9.05201 31.0681 9.46901C31.0039 9.58578 30.8978 9.67385 30.7712 9.71543C30.6446 9.757 30.507 9.74899 30.3861 9.69301C29.9838 9.4743 29.6108 9.20549 29.2761 8.89301C29.0749 8.71154 28.8859 8.51712 28.7101 8.31101C28.6641 8.27179 28.6187 8.23178 28.5741 8.19101C28.2627 8.27166 27.9468 8.33377 27.6281 8.37701C27.1716 8.43037 26.7105 8.43037 26.2541 8.37701C25.8911 8.30601 25.4001 7.71701 25.1951 7.43701C25.1161 7.32889 25.0804 7.19511 25.0951 7.06201C25.1832 6.61179 25.3239 6.17347 25.5141 5.75601C25.6511 5.41801 25.8181 5.09201 26.0111 4.78101C25.8299 4.50808 25.6701 4.22156 25.5331 3.92401C25.3234 3.49366 25.1695 3.03832 25.0751 2.56901C25.0576 2.43637 25.0912 2.30204 25.1693 2.19336C25.2473 2.08468 25.3638 2.00981 25.4951 1.98401C25.9509 1.92621 26.4122 1.92621 26.8681 1.98401C27.1981 2.01401 27.5241 2.07301 27.8431 2.16001C28.0441 1.90201 28.2661 1.66001 28.5061 1.43901C28.8371 1.1208 29.2066 0.845319 29.6061 0.619006C29.7262 0.562139 29.8634 0.55285 29.9901 0.593006C30.2801 0.685006 30.8801 1.32001 31.0201 1.56501C31.2041 1.98001 31.3391 2.41501 31.4201 2.86101C31.4581 3.03501 31.4901 3.21101 31.5131 3.38701C31.6101 3.43401 31.7061 3.48301 31.8001 3.53401Z" fill="#00034A" stroke="#00034A" stroke-miterlimit="10"/>
<path d="M35.2501 10.971C35.3761 11.132 35.5161 11.282 35.6681 11.418C35.7151 11.4662 35.7765 11.4978 35.8431 11.508C36.0001 11.745 36.1871 11.96 36.3991 12.148C36.428 12.1784 36.4628 12.2026 36.5014 12.2192C36.54 12.2357 36.5816 12.2442 36.6236 12.2442C36.6655 12.2442 36.7071 12.2357 36.7457 12.2192C36.7843 12.2026 36.8191 12.1784 36.8481 12.148C37.0281 11.922 37.1781 11.673 37.2961 11.408C37.3861 11.216 37.4611 11.018 37.5201 10.814C37.7421 10.791 37.9601 10.745 38.1731 10.677C38.4501 10.594 38.7181 10.483 38.9731 10.346C39.0444 10.2964 39.0948 10.2221 39.1144 10.1374C39.134 10.0528 39.1214 9.96387 39.0791 9.88799C38.8552 9.55335 38.5755 9.25973 38.2521 9.02C38.1779 8.92016 38.0984 8.82435 38.0141 8.73299C38.0827 8.27843 38.077 7.81572 37.9971 7.36299C37.9211 7.09299 37.3471 6.57599 37.1181 6.43899C37.0458 6.39542 36.9596 6.38111 36.8771 6.39899C36.5974 6.47925 36.3286 6.59379 36.0771 6.73999C35.8996 6.84002 35.7304 6.95405 35.5711 7.08099C35.386 6.98756 35.1937 6.9093 34.9961 6.84699C34.7214 6.73625 34.4326 6.66423 34.1381 6.63299C34.0545 6.62771 33.9722 6.65529 33.9087 6.70984C33.8451 6.76439 33.8055 6.8416 33.7981 6.92499C33.7891 7.21599 33.8151 7.50799 33.8751 7.79299C33.8751 7.86099 33.9531 8.14299 34.0411 8.38699C33.8831 8.54199 33.7361 8.70699 33.6021 8.88399C33.4221 9.11099 33.2711 9.35999 33.1541 9.62399C33.1244 9.70331 33.1262 9.79095 33.1591 9.869C33.1891 9.939 33.9721 10.735 34.0601 10.775C34.3341 10.871 34.6201 10.933 34.9081 10.96C35.0221 10.968 35.1351 10.972 35.2501 10.971Z" fill="#00034A" stroke="#00034A" stroke-miterlimit="10"/>
<path d="M22.912 3.17299C22.6311 3.01439 22.3291 2.89654 22.015 2.82299C21.7824 2.7553 21.5441 2.70944 21.303 2.68599C21.2325 2.46973 21.148 2.25828 21.05 2.05299C20.9033 1.75562 20.7165 1.47973 20.495 1.23299C20.4264 1.16845 20.3357 1.13251 20.2415 1.13251C20.1473 1.13251 20.0566 1.16845 19.988 1.23299C19.7707 1.45683 19.581 1.70595 19.423 1.97499C19.2947 2.16612 19.1836 2.36825 19.091 2.57899C18.8608 2.55811 18.6292 2.55811 18.399 2.57899C18.067 2.61999 17.739 2.69899 17.425 2.81299C17.3401 2.85519 17.2734 2.9269 17.2375 3.0147C17.2016 3.1025 17.1989 3.20037 17.23 3.28999C17.373 3.57999 17.55 3.84999 17.756 4.09999C17.901 4.27799 18.056 4.44799 18.224 4.60599C18.1494 4.83869 18.0909 5.07626 18.049 5.31699C17.979 5.63699 17.956 5.96499 17.98 6.29199C17.9922 6.38496 18.0393 6.46981 18.1117 6.5294C18.1841 6.58898 18.2764 6.61886 18.37 6.61299C18.9153 6.53138 19.4408 6.34966 19.92 6.07699C20.107 6.21299 20.302 6.33699 20.504 6.44699C20.808 6.62099 21.132 6.75599 21.469 6.84699C21.5613 6.86032 21.6554 6.84011 21.7341 6.79002C21.8128 6.73993 21.871 6.66329 21.898 6.57399C21.932 6.24999 21.932 5.92399 21.898 5.59999C21.8997 5.36508 21.8833 5.13039 21.849 4.89799C22.0613 4.74983 22.2604 4.58354 22.444 4.40099C22.6761 4.17847 22.8821 3.9302 23.058 3.66099C23.0805 3.61937 23.0945 3.57372 23.0994 3.52666C23.1042 3.4796 23.0997 3.43206 23.0861 3.38673C23.0726 3.34141 23.0502 3.29921 23.0203 3.26253C22.9905 3.22586 22.9536 3.19543 22.912 3.17299Z" fill="#9BFF00" stroke="#00034A" stroke-miterlimit="10"/>
<path d="M32.9201 4.32298C32.3094 3.7822 31.5972 3.36818 30.8251 3.10498C30.806 2.77712 30.7602 2.45138 30.6881 2.13098C30.6074 1.68414 30.4731 1.24866 30.2881 0.833975C30.2223 0.719201 30.1157 0.633435 29.9895 0.593774C29.8633 0.554112 29.7267 0.563468 29.6071 0.619975C29.2071 0.845975 28.8371 1.11998 28.5061 1.43898C28.2661 1.66098 28.0441 1.90198 27.8431 2.15898C27.5239 2.07209 27.1976 2.01353 26.8681 1.98398C26.4119 1.9261 25.9503 1.9261 25.4941 1.98398C25.363 2.01001 25.2468 2.08496 25.1689 2.19362C25.0911 2.30227 25.0576 2.43648 25.0751 2.56898C25.1701 3.03898 25.3231 3.49298 25.5331 3.92398C25.6701 4.22098 25.8301 4.50798 26.0111 4.78098C25.8181 5.09098 25.6511 5.41798 25.5141 5.75598C25.3241 6.17298 25.1841 6.61198 25.0941 7.06198C25.0796 7.19549 25.1157 7.32959 25.1953 7.43774C25.275 7.54589 25.3923 7.6202 25.5241 7.64598C25.9801 7.69998 26.4411 7.69998 26.8971 7.64598C27.2261 7.60098 27.5511 7.53598 27.8721 7.45198C28.0781 7.70498 28.3021 7.94298 28.5441 8.16197C28.8791 8.47498 29.2531 8.74397 29.6551 8.96198C29.7761 9.01826 29.914 9.02643 30.0408 8.98484C30.1677 8.94324 30.2739 8.855 30.3381 8.73798C30.5281 8.32098 30.6641 7.88198 30.7471 7.43198C30.8131 7.11098 30.8561 6.78498 30.8741 6.45697C31.2111 6.33297 31.5371 6.17898 31.8481 5.99898C32.2481 5.77798 32.6181 5.50598 32.9491 5.19098C33.0181 5.14036 33.0737 5.07368 33.1111 4.99672C33.1485 4.91976 33.1665 4.83484 33.1637 4.74932C33.1608 4.66381 33.1371 4.58028 33.0947 4.50599C33.0522 4.43169 32.9923 4.36887 32.9201 4.32298Z" fill="#9BFF00" stroke="#00034A" stroke-miterlimit="10"/>
<path d="M38.3481 9.157C38.1879 8.91653 37.998 8.69714 37.7831 8.504C37.6191 8.3607 37.4468 8.22714 37.2671 8.104C37.3528 7.61741 37.3528 7.11958 37.2671 6.633C37.2443 6.55155 37.1912 6.48192 37.1187 6.43841C37.0461 6.39489 36.9597 6.38079 36.8771 6.399C36.5974 6.47926 36.3287 6.59379 36.0771 6.74C35.8996 6.84003 35.7304 6.95405 35.5711 7.081C35.3861 6.98756 35.1938 6.90931 34.9961 6.847C34.7214 6.73625 34.4326 6.66423 34.1381 6.633C34.0546 6.62771 33.9722 6.65529 33.9087 6.70984C33.8452 6.76439 33.8055 6.8416 33.7981 6.925C33.7891 7.216 33.8151 7.508 33.8751 7.793C33.8751 7.861 33.9531 8.143 34.0411 8.387C33.8831 8.542 33.7361 8.707 33.6021 8.884C33.4221 9.111 33.2711 9.36 33.1541 9.624C33.1243 9.70312 33.1258 9.79064 33.1584 9.86869C33.1909 9.94674 33.2519 10.0094 33.3291 10.044C33.6031 10.14 33.8891 10.202 34.1771 10.229C34.3821 10.244 34.5871 10.244 34.7911 10.229C34.8861 10.413 34.9901 10.592 35.1031 10.765C35.2631 11.006 35.4531 11.225 35.6681 11.418C35.6971 11.4484 35.7319 11.4726 35.7705 11.4892C35.8091 11.5057 35.8506 11.5142 35.8926 11.5142C35.9346 11.5142 35.9761 11.5057 36.0147 11.4892C36.0533 11.4726 36.0882 11.4484 36.1171 11.418C36.2971 11.191 36.4471 10.942 36.5651 10.678C36.6551 10.485 36.7301 10.286 36.7891 10.083C37.0111 10.06 37.2291 10.014 37.4421 9.946C37.7193 9.86312 37.9874 9.75221 38.2421 9.615C38.3135 9.56543 38.3639 9.4911 38.3835 9.40644C38.403 9.32179 38.3904 9.23288 38.3481 9.157Z" fill="#9BFF00" stroke="#00034A" stroke-miterlimit="10"/>
</g>
<defs>
<clipPath id="clip0_2301_15515">
<rect width="40" height="40" fill="white"/>
</clipPath>
</defs>
</svg>
