<svg width="40" height="40" viewBox="0 0 40 40" fill="none" xmlns="http://www.w3.org/2000/svg">
<g clip-path="url(#clip0_2301_14226)">
<path d="M3.26005 32.1C3.26933 32.8956 3.59431 33.655 4.16348 34.2111C4.73265 34.7671 5.4994 35.0743 6.29505 35.065C7.0907 35.0557 7.85007 34.7307 8.40612 34.1616C8.96216 33.5924 9.26933 32.8256 9.26005 32.03L10.6101 31.92C11.3201 31.86 12.0701 31.8 12.8101 31.72C12.9321 32.5156 13.3651 33.2302 14.014 33.7066C14.3353 33.9424 14.6999 34.1127 15.087 34.2077C15.4741 34.3026 15.8761 34.3204 16.2701 34.26C16.664 34.1996 17.0422 34.0622 17.3831 33.8556C17.7239 33.649 18.0208 33.3773 18.2566 33.056C18.4925 32.7348 18.6628 32.3702 18.7577 31.9831C18.8527 31.596 18.8705 31.194 18.8101 30.8C18.7843 30.5472 18.7272 30.2987 18.6401 30.06C18.998 29.7948 19.2638 29.4241 19.4001 29C20.2808 26.2485 20.9494 23.4336 21.4001 20.58C21.7701 18.5 22.1001 16.16 22.2901 14.42C23.3407 14.3643 24.3747 14.1345 25.3501 13.74C25.9401 13.47 25.9601 12.35 25.8901 11.52C25.8201 10.69 25.6101 9.59 24.9901 9.43C23.9065 9.19407 22.7913 9.13999 21.6901 9.27C18.4901 9.54 17.8701 9.9 17.4601 11.09C16.6498 13.577 16.0247 16.1207 15.5901 18.7C14.0716 18.6666 12.5524 18.72 11.0401 18.86C10.6301 14.04 10.2901 10.86 8.74005 11.01C2.74005 11.51 0.0900512 15.26 0.530051 20.5C0.600301 21.3113 0.75788 22.1126 1.00005 22.89C0.905017 23.9913 0.905017 25.0987 1.00005 26.2C1.21005 28.46 1.83005 31.64 3.26005 32.1Z" fill="#48EEFF" stroke="#231F20" stroke-miterlimit="10"/>
<path d="M5.06006 22.41C7.08605 22.5508 9.12048 22.514 11.1401 22.3C13.1634 22.1785 15.1716 21.8739 17.1401 21.39" stroke="#231F20" stroke-miterlimit="10" stroke-linecap="round"/>
<path d="M7.33008 28.57C7.77558 28.6469 8.18927 28.8512 8.52113 29.1582C8.85299 29.4652 9.08881 29.8618 9.20008 30.3" stroke="#231F20" stroke-miterlimit="10" stroke-linecap="round"/>
<path d="M14.2302 28C13.808 28.1524 13.4376 28.421 13.1615 28.7749C12.8855 29.1287 12.7152 29.5535 12.6702 30" stroke="#231F20" stroke-miterlimit="10" stroke-linecap="round"/>
<path d="M19.0601 12.57C19.3301 11.42 19.2501 11.27 21.3001 11.1" stroke="white" stroke-linecap="round" stroke-linejoin="round"/>
<path d="M38.6001 20.68C37.7701 19.76 33.6901 18.41 30.2201 17.94C26.7501 17.47 22.4601 17.72 21.4101 18.38C19.5301 19.58 18.6901 25.6 18.4101 27.7C17.4101 34.87 26.4901 39.32 27.3401 39.43C28.1901 39.54 38.0901 37.63 39.0501 30.43C39.3301 28.37 40.1101 22.33 38.6001 20.68Z" fill="#FF52A1" stroke="#231F20" stroke-miterlimit="10"/>
<path d="M35.1401 21C37.1401 21.36 37.2601 22 37.2601 22" stroke="white" stroke-miterlimit="10" stroke-linecap="round"/>
<path d="M34.2599 25.67C33.5297 25.4085 32.7711 25.2339 31.9999 25.15C32.1269 24.3768 32.1605 23.5912 32.0999 22.81C32.0199 21.86 30.6299 21.56 29.8099 21.45C28.9899 21.34 27.5799 21.27 27.2499 22.16C26.987 22.8967 26.8124 23.6621 26.7299 24.44C25.9562 24.3184 25.1712 24.2849 24.3899 24.34C23.4399 24.43 23.1399 25.82 23.0299 26.63C22.9199 27.44 22.8499 28.87 23.7399 29.2C24.4763 29.4644 25.2418 29.639 26.0199 29.72C25.8983 30.4937 25.8648 31.2787 25.9199 32.06C26.0099 33 27.3999 33.31 28.2099 33.42C29.0199 33.53 30.4399 33.6 30.7799 32.71C31.0438 31.9701 31.2184 31.2013 31.2999 30.42C32.0731 30.547 32.8587 30.5806 33.6399 30.52C34.5799 30.44 34.8899 29.05 34.9999 28.23C35.1099 27.41 35.1499 26 34.2599 25.67Z" fill="white" stroke="#231F20" stroke-miterlimit="10"/>
<path d="M23.48 3.23C23.1919 3.06698 22.8822 2.94577 22.56 2.87C22.3215 2.80078 22.0771 2.75391 21.83 2.73C21.7575 2.50792 21.6707 2.29079 21.57 2.08C21.4191 1.77533 21.2274 1.49272 21 1.24C20.9295 1.17391 20.8366 1.13713 20.74 1.13713C20.6434 1.13713 20.5504 1.17391 20.48 1.24C20.2569 1.46923 20.0622 1.72439 19.9 2C19.7686 2.19622 19.6548 2.4037 19.56 2.62C19.3238 2.59858 19.0862 2.59858 18.85 2.62C18.5087 2.66229 18.1733 2.74279 17.85 2.86C17.7627 2.90329 17.6942 2.97697 17.6573 3.06719C17.6205 3.15742 17.6179 3.25798 17.65 3.35C17.7971 3.64672 17.9783 3.92526 18.19 4.18C18.3382 4.36387 18.4985 4.53759 18.67 4.7C18.5933 4.93892 18.5332 5.18282 18.49 5.43C18.4189 5.75827 18.3953 6.09503 18.42 6.43C18.4325 6.52543 18.4807 6.61258 18.5549 6.67383C18.6292 6.73508 18.7239 6.76588 18.82 6.76C19.1447 6.71089 19.4632 6.62708 19.77 6.51C19.9902 6.42554 20.2041 6.32528 20.41 6.21C20.6021 6.34874 20.8024 6.47564 21.01 6.59C21.3213 6.76808 21.6539 6.90585 22 7C22.0947 7.01367 22.1911 6.99294 22.2719 6.94157C22.3526 6.8902 22.4122 6.81158 22.44 6.72C22.4752 6.3876 22.4752 6.0524 22.44 5.72C22.4418 5.47907 22.4251 5.23836 22.39 5C22.6077 4.84796 22.8118 4.67732 23 4.49C23.2383 4.26151 23.4496 4.00652 23.63 3.73C23.6761 3.64376 23.6863 3.54274 23.6582 3.44904C23.6301 3.35534 23.566 3.27658 23.48 3.23Z" fill="#FFE236" stroke="#231F20" stroke-miterlimit="10"/>
<path d="M33.7502 4.41C33.3982 4.09805 33.0124 3.82637 32.6002 3.6C32.2797 3.42561 31.9452 3.27843 31.6002 3.16C31.5808 2.82341 31.5339 2.48897 31.4602 2.16C31.3774 1.70182 31.2397 1.25527 31.0502 0.83C30.9826 0.7119 30.873 0.623633 30.7433 0.582846C30.6135 0.542059 30.4731 0.551756 30.3502 0.61C29.9399 0.841699 29.5603 1.1239 29.2202 1.45C28.9742 1.67816 28.7468 1.92562 28.5402 2.19C28.2128 2.10071 27.8781 2.04048 27.5402 2.01C27.072 1.95059 26.5983 1.95059 26.1302 2.01C25.9957 2.03675 25.8765 2.11364 25.7966 2.22505C25.7168 2.33647 25.6823 2.47409 25.7002 2.61C25.797 3.09145 25.955 3.55856 26.1702 4C26.3106 4.30551 26.4744 4.59972 26.6602 4.88C26.4623 5.19836 26.2917 5.53289 26.1502 5.88C25.9556 6.30858 25.8113 6.75824 25.7202 7.22C25.705 7.35695 25.7418 7.49459 25.8233 7.60569C25.9048 7.7168 26.025 7.79328 26.1602 7.82C26.6286 7.87477 27.1018 7.87477 27.5702 7.82C27.9073 7.77379 28.2412 7.707 28.5702 7.62C28.7814 7.88041 29.0121 8.12444 29.2602 8.35C29.604 8.67042 29.987 8.94595 30.4002 9.17C30.5243 9.22743 30.6656 9.23562 30.7955 9.19293C30.9254 9.15025 31.0343 9.05985 31.1002 8.94C31.2946 8.51224 31.4356 8.0622 31.5202 7.6C31.5884 7.27037 31.6318 6.93611 31.6502 6.6C31.9961 6.47178 32.3307 6.31455 32.6502 6.13C33.0608 5.90277 33.4405 5.62382 33.7802 5.3C33.8507 5.24799 33.9076 5.17957 33.9458 5.10066C33.984 5.02175 34.0025 4.93473 33.9995 4.8471C33.9965 4.75948 33.9723 4.67389 33.9289 4.59773C33.8854 4.52158 33.8241 4.45714 33.7502 4.41Z" fill="#FFE236" stroke="#231F20" stroke-miterlimit="10"/>
<path d="M39.3202 9.37C39.1552 9.12363 38.9604 8.89859 38.7402 8.7C38.5717 8.55309 38.3947 8.41619 38.2102 8.29C38.2982 7.79052 38.2982 7.27948 38.2102 6.78C38.1867 6.69653 38.1322 6.6252 38.0578 6.58058C37.9835 6.53597 37.8949 6.52145 37.8102 6.54C37.5234 6.62234 37.248 6.7399 36.9902 6.89C36.8075 6.99219 36.6336 7.10925 36.4702 7.24C36.2803 7.14417 36.083 7.0639 35.8802 7C35.5984 6.88626 35.3023 6.81222 35.0002 6.78C34.9142 6.77444 34.8295 6.8027 34.7641 6.85876C34.6987 6.91481 34.6578 6.99421 34.6502 7.08C34.6419 7.37877 34.6688 7.67748 34.7302 7.97C34.7302 8.04 34.8102 8.33 34.9002 8.58C34.7378 8.73864 34.5873 8.90911 34.4502 9.09C34.2647 9.32245 34.1101 9.5779 33.9902 9.85C33.9597 9.93112 33.9614 10.0208 33.9949 10.1007C34.0283 10.1806 34.091 10.2448 34.1702 10.28C34.4512 10.3789 34.7435 10.4427 35.0402 10.47C35.2499 10.4856 35.4605 10.4856 35.6702 10.47C35.767 10.6589 35.8738 10.8425 35.9902 11.02C36.1536 11.2675 36.3486 11.4928 36.5702 11.69C36.6 11.7208 36.6357 11.7454 36.6753 11.7621C36.7148 11.7789 36.7572 11.7875 36.8002 11.7875C36.8431 11.7875 36.8856 11.7789 36.9251 11.7621C36.9646 11.7454 37.0003 11.7208 37.0302 11.69C37.2151 11.4572 37.3696 11.2018 37.4902 10.93C37.5823 10.7329 37.6592 10.5289 37.7202 10.32C37.9477 10.2966 38.1723 10.2497 38.3902 10.18C38.6743 10.0948 38.9491 9.98087 39.2102 9.84C39.2835 9.7892 39.3353 9.713 39.3556 9.62617C39.3759 9.53934 39.3633 9.44805 39.3202 9.37Z" fill="#FFE236" stroke="#231F20" stroke-miterlimit="10"/>
</g>
<defs>
<clipPath id="clip0_2301_14226">
<rect width="40" height="40" fill="white"/>
</clipPath>
</defs>
</svg>
