<svg width="40" height="40" viewBox="0 0 40 40" fill="none" xmlns="http://www.w3.org/2000/svg">
<path d="M30.0767 24.4186C28.6611 23.0829 27.2218 21.7727 25.7592 20.4887C29.429 17.2742 33.1185 13.9155 33.7366 12.8312C34.3564 12.0486 34.4323 10.9659 33.928 10.1044C33.5551 9.46462 32.777 8.79742 32.1922 8.36072C30.4858 7.09202 20.7059 0.890625 18.9515 0.890625C17.7583 0.890625 16.3178 1.33903 16.0892 2.98953C15.7556 4.01003 15.5839 7.62582 15.5073 11.747C13.8044 10.2419 11.9611 8.90362 10.0026 7.75042C8.69561 6.98702 7.45541 7.80732 6.67331 8.70422C5.89031 9.60102 5.27021 10.9747 6.22491 12.1483C6.58801 12.7841 8.00091 14.201 9.85251 15.9113C11.1509 17.1386 12.4726 18.3412 13.8167 19.5183C10.2823 22.618 6.85191 25.7746 6.22491 26.8108C5.27021 27.9942 5.90111 29.3492 6.67331 30.2549C7.69381 31.452 9.44731 33.2241 11.0987 32.236C12.6612 31.3231 14.1498 30.289 15.5505 29.1432C15.6418 32.4283 15.8086 35.1189 16.0892 35.9696C16.2796 37.0323 17.3118 37.9291 18.1351 38.5669C18.6355 38.9545 19.2625 39.1429 19.8935 39.0948C21.487 39.4579 31.5995 32.9229 33.2873 31.6443C34.3779 30.8307 34.5812 29.2769 33.7367 28.21C33.3726 27.5713 31.941 26.1426 30.0767 24.4186Z" fill="#00034A" stroke="#00034A" stroke-miterlimit="10"/>
<path d="M24.6279 19.4948C28.3095 16.2695 32.0215 12.8921 32.6406 11.8049C33.4871 10.7354 33.2849 9.17832 32.1932 8.36072C30.4858 7.09202 20.7059 0.890625 18.9515 0.890625C17.7583 0.890625 16.3178 1.33903 16.0892 2.98953C15.7556 4.01003 15.5839 7.62582 15.5073 11.747C13.8044 10.2419 11.9611 8.90362 10.0026 7.75042C8.69561 6.98702 7.45541 7.80732 6.67331 8.70422C5.89031 9.60102 5.27021 10.9747 6.22491 12.1483C6.82541 13.1982 10.2793 16.3744 13.8569 19.484C10.3078 22.5945 6.85391 25.7707 6.22491 26.8108C5.27021 27.9942 5.90111 29.3493 6.67331 30.2549C7.44561 31.1616 8.69471 31.9917 10.0026 31.2087C11.964 30.0634 13.8078 28.7277 15.5073 27.221C15.5839 31.3421 15.7546 34.958 16.0892 35.9696C16.3201 37.2607 17.4906 38.1675 18.7984 38.0685C20.3919 38.4315 30.5045 31.8965 32.1922 30.618C33.2831 29.8043 33.486 28.2502 32.6406 27.1837C32.0205 26.0955 28.3095 22.7191 24.6269 19.4938L24.6279 19.4948ZM22.4044 10.6499L23.4543 11.3084L22.4339 12.1385C22.427 11.6361 22.4172 11.1396 22.4044 10.6499ZM22.4044 26.8687L23.4445 27.7077L22.376 28.3749L22.4044 26.8687Z" fill="#9BFF00" stroke="#00034A" stroke-miterlimit="10"/>
</svg>
