<svg width="40" height="40" viewBox="0 0 40 40" fill="none" xmlns="http://www.w3.org/2000/svg">
<g clip-path="url(#clip0_2301_14167)">
<path d="M38.89 9.18C38.34 7.18 34.67 7.48 32.54 7.48C30.96 7.48 28.54 7.32 27.2 8.03C24.12 7.38 19.14 7.47 15.82 7.47C11.12 7.47 3.05 7.29 1.82 9.29C0.62 10.28 0.5 15.6 0.5 20C0.5 24.4 0.62 29.72 1.84 30.71C3.05 32.71 11.12 32.53 15.84 32.53C19.16 32.53 24.14 32.62 27.22 31.97C28.6 32.68 30.99 32.52 32.56 32.52C34.69 32.52 38.36 32.83 38.91 30.82C39.46 29.82 39.52 24.45 39.52 20C39.52 15.55 39.44 10.19 38.89 9.18Z" fill="#FF52A1" stroke="#231F20" stroke-miterlimit="10"/>
<path d="M28.36 11.64V14.43" stroke="#231F20" stroke-miterlimit="10" stroke-linecap="round"/>
<path d="M28.36 18.61V21.39" stroke="#231F20" stroke-miterlimit="10" stroke-linecap="round"/>
<path d="M28.36 25.57V28.36" stroke="#231F20" stroke-miterlimit="10" stroke-linecap="round"/>
<path d="M21.2601 23.17C20.7223 21.9684 20.1077 20.8026 19.4201 19.68C21.1201 17.22 20.7601 15.29 19.8601 14.39C18.9601 13.49 17.0201 13.14 14.5601 14.86C13.4378 14.1659 12.272 13.5446 11.0701 13C10.6329 12.808 10.1487 12.7502 9.67866 12.8339C9.20864 12.9176 8.77407 13.139 8.43006 13.47C8.09558 13.8381 7.91025 14.3176 7.91025 14.815C7.91025 15.3124 8.09558 15.7919 8.43006 16.16C9.1077 17.1242 9.86002 18.0336 10.6801 18.88C9.91346 19.8986 9.24387 20.9866 8.68006 22.13C8.21006 21.92 7.83006 21.78 7.68006 21.74C7.42778 21.6716 7.1617 21.6726 6.90997 21.7431C6.65824 21.8135 6.43023 21.9506 6.25006 22.14C6.06122 22.3229 5.94272 22.5663 5.91529 22.8278C5.88787 23.0892 5.95328 23.3519 6.10006 23.57C6.73625 24.4538 7.46358 25.2683 8.27006 26C9.01848 26.7768 9.84256 27.4769 10.7301 28.09C10.9398 28.2437 11.1969 28.3189 11.4564 28.3024C11.7159 28.286 11.9614 28.179 12.1501 28C12.3394 27.8198 12.4766 27.5918 12.547 27.3401C12.6174 27.0884 12.6185 26.8223 12.5501 26.57C12.5001 26.45 12.3601 26.07 12.1501 25.57C13.2896 25.005 14.3743 24.3355 15.3901 23.57C16.2372 24.3912 17.154 25.1373 18.1301 25.8C18.4976 26.1317 18.975 26.3153 19.4701 26.3153C19.9651 26.3153 20.4426 26.1317 20.8101 25.8C21.1381 25.456 21.3561 25.0221 21.4362 24.5536C21.5164 24.0852 21.4551 23.6034 21.2601 23.17Z" fill="white" stroke="#231F20" stroke-miterlimit="10"/>
<path d="M17.65 17.99L16.27 16.61" stroke="#231F20" stroke-linecap="round" stroke-linejoin="round"/>
<path d="M33.4399 10.25C36.7099 10.25 36.7099 10.25 36.7099 12.35" stroke="white" stroke-miterlimit="10" stroke-linecap="round"/>
</g>
<defs>
<clipPath id="clip0_2301_14167">
<rect width="40" height="40" fill="white"/>
</clipPath>
</defs>
</svg>
