<svg width="40" height="40" viewBox="0 0 40 40" fill="none" xmlns="http://www.w3.org/2000/svg">
<g clip-path="url(#clip0_2301_14150)">
<path d="M12.37 36.61C13.37 35.17 13.5 25.61 13.5 20C13.5 14.39 13.37 4.83 12.37 3.39C11.87 2 9.21 1.8 7 1.8C4.79 1.8 2.13 2 1.63 3.39C0.63 4.83 0.5 14.42 0.5 20C0.5 25.58 0.63 35.17 1.63 36.61C2.13 38.05 4.79 38.2 7 38.2C9.21 38.2 11.87 38.05 12.37 36.61Z" fill="#FF52A1" stroke="#231F20" stroke-miterlimit="10"/>
<path d="M3.4401 30.06C3.7501 30.36 5.8101 30.4 7.0001 30.4C8.1901 30.4 10.2501 30.4 10.5601 30.06C10.8701 29.91 10.9001 29.11 10.9001 28.45C10.9001 27.79 10.9001 26.99 10.5601 26.84C10.2501 26.54 8.2001 26.5 7.0001 26.5C5.8001 26.5 3.7501 26.5 3.4401 26.84C3.1301 26.99 3.1001 27.79 3.1001 28.45C3.1001 29.11 3.1301 29.91 3.4401 30.06Z" fill="white" stroke="#231F20" stroke-miterlimit="10"/>
<path d="M10.9001 9.8C8.3066 9.54002 5.6936 9.54002 3.1001 9.8" stroke="#231F20" stroke-miterlimit="10" stroke-linecap="round"/>
<path d="M10.9001 12.4C8.30711 12.13 5.69309 12.13 3.1001 12.4" stroke="#231F20" stroke-miterlimit="10" stroke-linecap="round"/>
<path d="M7.11011 4.12C10.2501 4.27 9.99011 4.22 10.2501 5.12" stroke="white" stroke-miterlimit="10" stroke-linecap="round"/>
<path d="M25.37 36.61C26.37 35.17 26.5 25.61 26.5 20C26.5 14.39 26.37 4.83 25.37 3.39C24.87 2 22.21 1.8 20 1.8C17.79 1.8 15.13 2 14.63 3.39C13.63 4.83 13.5 14.39 13.5 20C13.5 25.61 13.63 35.17 14.63 36.61C15.13 38.05 17.79 38.2 20 38.2C22.21 38.2 24.87 38.05 25.37 36.61Z" fill="#FFE236" stroke="#231F20" stroke-miterlimit="10"/>
<path d="M16.4401 30.06C16.7501 30.36 18.8101 30.4 20.0001 30.4C21.1901 30.4 23.2501 30.4 23.5601 30.06C23.8701 29.91 23.9001 29.11 23.9001 28.45C23.9001 27.79 23.9001 26.99 23.5601 26.84C23.2501 26.54 21.2001 26.5 20.0001 26.5C18.8001 26.5 16.7501 26.5 16.4401 26.84C16.1301 26.99 16.1001 27.79 16.1001 28.45C16.1001 29.11 16.1301 29.91 16.4401 30.06Z" fill="white" stroke="#231F20" stroke-miterlimit="10"/>
<path d="M23.9001 9.8C21.3066 9.54002 18.6936 9.54002 16.1001 9.8" stroke="#231F20" stroke-miterlimit="10" stroke-linecap="round"/>
<path d="M23.9001 12.4C21.3071 12.13 18.6931 12.13 16.1001 12.4" stroke="#231F20" stroke-miterlimit="10" stroke-linecap="round"/>
<path d="M20.1101 4.12C23.2501 4.27 22.9901 4.22 23.2501 5.12" stroke="white" stroke-miterlimit="10" stroke-linecap="round"/>
<path d="M38.37 36.61C39.37 35.17 39.5 25.61 39.5 20C39.5 14.39 39.37 4.83 38.37 3.39C37.87 2 35.21 1.8 33 1.8C30.79 1.8 28.13 2 27.63 3.39C26.63 4.83 26.5 14.39 26.5 20C26.5 25.61 26.63 35.17 27.63 36.61C28.13 38.05 30.79 38.2 33 38.2C35.21 38.2 37.87 38.05 38.37 36.61Z" fill="#FF52A1" stroke="#231F20" stroke-miterlimit="10"/>
<path d="M29.4401 30.06C29.7501 30.36 31.8101 30.4 33.0001 30.4C34.1901 30.4 36.2501 30.4 36.5601 30.06C36.8701 29.91 36.9001 29.11 36.9001 28.45C36.9001 27.79 36.9001 26.99 36.5601 26.84C36.2501 26.54 34.2001 26.5 33.0001 26.5C31.8001 26.5 29.7501 26.5 29.4401 26.84C29.1301 26.99 29.1001 27.79 29.1001 28.45C29.1001 29.11 29.1301 29.91 29.4401 30.06Z" fill="white" stroke="#231F20" stroke-miterlimit="10"/>
<path d="M36.9001 9.8C34.3066 9.54002 31.6936 9.54002 29.1001 9.8" stroke="#231F20" stroke-miterlimit="10" stroke-linecap="round"/>
<path d="M36.9001 12.4C34.3071 12.13 31.6931 12.13 29.1001 12.4" stroke="#231F20" stroke-miterlimit="10" stroke-linecap="round"/>
<path d="M33.1101 4.12C36.2501 4.27 35.9901 4.22 36.2501 5.12" stroke="white" stroke-miterlimit="10" stroke-linecap="round"/>
</g>
<defs>
<clipPath id="clip0_2301_14150">
<rect width="40" height="40" fill="white"/>
</clipPath>
</defs>
</svg>
