<svg width="40" height="40" viewBox="0 0 40 40" fill="none" xmlns="http://www.w3.org/2000/svg">
<g clip-path="url(#clip0_2301_15419)">
<path d="M26.9541 0.958008C20.7591 0.958008 15.7361 6.03201 15.7361 12.292C15.7361 15.75 17.2691 18.846 19.6861 20.925C21.7431 23.316 24.7761 24.828 28.1561 24.828C34.3521 24.828 39.3751 19.753 39.3751 13.494C39.3751 7.08301 33.4001 0.958008 26.9541 0.958008Z" fill="#00034A" stroke="#00034A" stroke-miterlimit="10"/>
<path d="M26.9541 23.625C33.1501 23.625 38.1721 18.551 38.1721 12.291C38.1721 6.03201 33.1501 0.958008 26.9541 0.958008C20.7591 0.958008 15.7361 6.03201 15.7361 12.291C15.7361 18.551 20.7591 23.625 26.9541 23.625Z" fill="#9BFF00" stroke="#00034A" stroke-miterlimit="10"/>
<path d="M31.418 16.38C30.9711 16.3888 30.5264 16.4438 30.091 16.544C29.9634 15.6467 29.8026 14.7544 29.609 13.869C29.394 12.5415 29.0061 11.2478 28.455 10.021C27.839 9.29003 26.367 9.64603 25.511 9.82803C24.7901 9.91287 24.0969 10.156 23.481 10.54C23.3623 10.7394 23.2849 10.9606 23.2535 11.1904C23.2221 11.4203 23.2372 11.6541 23.298 11.878C23.404 12.378 23.731 12.927 23.962 12.994C24.476 13.098 25.008 13.074 25.511 12.927C25.6104 13.5227 25.7228 14.1162 25.848 14.707C26.031 15.563 26.252 16.573 26.492 17.343C26.0488 17.4302 25.6166 17.5657 25.203 17.747C24.655 17.997 24.761 18.863 24.866 19.363C24.972 19.863 25.222 20.691 25.828 20.691C26.8835 20.6099 27.9299 20.4359 28.955 20.171C30.0011 19.9972 31.0288 19.7267 32.025 19.363C32.582 19.113 32.477 18.247 32.371 17.756C32.265 17.266 32.024 16.39 31.418 16.38Z" fill="white" stroke="#00034A" stroke-miterlimit="10"/>
<path d="M25.4341 7.98102C25.9086 7.97837 26.3627 7.78738 26.6965 7.45003C27.0303 7.11268 27.2165 6.65659 27.2141 6.18202C27.2141 5.18802 26.4171 4.38202 25.4341 4.38202C25.199 4.38333 24.9665 4.43093 24.7498 4.52209C24.5332 4.61326 24.3366 4.74621 24.1713 4.91336C24.006 5.08051 23.8752 5.27857 23.7865 5.49625C23.6978 5.71393 23.6528 5.94695 23.6541 6.18202C23.6541 7.17602 24.4511 7.98102 25.4341 7.98102Z" fill="white" stroke="#00034A" stroke-miterlimit="10"/>
<path d="M25.1159 19.19C24.1539 18.295 19.0359 17.15 14.7259 16.9C10.4159 16.65 5.17192 17.208 4.14192 17.997C2.13192 18.737 1.54492 23.067 1.36192 26.309C1.17892 29.552 1.30392 34.006 3.19992 34.969C3.25692 35.022 3.32892 35.072 3.41492 35.121C3.76992 35.781 4.96092 36.867 5.63692 37.217C5.87193 37.6721 6.22741 38.0538 6.66457 38.3206C7.10173 38.5874 7.60377 38.729 8.11592 38.73C8.61867 38.7292 9.11187 38.5927 9.54358 38.3351C9.97529 38.0774 10.3295 37.7081 10.5689 37.266C11.5589 37.333 12.5889 37.391 13.5989 37.448C14.0189 37.471 14.4339 37.494 14.8409 37.518L15.2079 37.539C16.3929 37.609 17.6349 37.681 18.8299 37.733C18.9559 37.829 19.0899 37.913 19.2309 37.987C19.466 38.4422 19.8216 38.8241 20.259 39.0909C20.6963 39.3577 21.1986 39.4992 21.7109 39.5C22.9089 39.5 23.9309 38.74 24.3309 37.67C24.8109 37.596 25.1679 37.491 25.3669 37.345C27.3669 36.604 27.9739 32.275 28.1569 29.003C28.3139 26.195 28.2439 22.571 27.0219 20.993C26.6409 20.501 25.6049 19.438 25.1169 19.19H25.1159Z" fill="#00034A" stroke="#00034A" stroke-miterlimit="10"/>
<path d="M24.1639 36.142C26.1649 35.402 26.7709 31.072 26.9539 27.801C27.1369 24.53 27.0119 20.151 25.1159 19.19C24.1539 18.295 19.0359 17.15 14.7259 16.9C10.4159 16.65 5.17192 17.208 4.14192 17.997C2.13192 18.737 1.54492 23.067 1.36192 26.309C1.17892 29.552 1.30392 34.006 3.19992 34.969C4.16192 35.863 9.33792 36.065 13.6379 36.315C17.9389 36.565 23.1439 36.893 24.1639 36.142Z" fill="white" stroke="#00034A" stroke-miterlimit="10"/>
<path d="M5.56611 28.234C6.00911 27.907 6.19211 26.098 6.26911 24.732C6.34611 23.365 6.36511 21.499 5.98011 21.162C5.34908 20.6251 4.54859 20.3287 3.72011 20.325C2.89944 20.2326 2.07282 20.4373 1.39011 20.902C0.929109 21.23 0.746109 23.038 0.670109 24.385C0.592109 25.732 0.573109 27.57 0.977109 27.945C1.17011 28.311 2.31411 28.33 3.25711 28.388C4.20011 28.445 5.32511 28.561 5.56611 28.234Z" fill="#9BFF00" stroke="#00034A" stroke-miterlimit="10"/>
<path d="M22.336 29.196C23.452 28.897 23.76 27.098 23.836 25.732C23.914 24.366 23.836 22.548 22.73 22.134C22.201 21.749 19.296 21.23 16.871 21.085C14.447 20.941 11.503 21.133 10.935 21.46C9.81897 21.749 9.51097 23.548 9.43397 24.914C9.35697 26.281 9.43397 28.109 10.541 28.522C11.07 28.907 13.994 29.032 16.419 29.167C18.843 29.302 21.797 29.504 22.336 29.196Z" fill="#9BFF00" stroke="#00034A" stroke-miterlimit="10"/>
<path d="M6.91304 37.528C8.46004 37.528 9.71304 36.261 9.71304 34.699C9.71304 33.137 8.46004 31.871 6.91304 31.871C5.36704 31.871 4.11304 33.137 4.11304 34.699C4.11304 36.261 5.36704 37.528 6.91304 37.528Z" fill="#9BFF00" stroke="#00034A" stroke-miterlimit="10"/>
<path d="M20.508 38.297C22.054 38.297 23.308 37.031 23.308 35.469C23.308 33.907 22.054 32.64 20.508 32.64C18.962 32.64 17.708 33.907 17.708 35.469C17.708 37.031 18.962 38.297 20.508 38.297Z" fill="#9BFF00" stroke="#00034A" stroke-miterlimit="10"/>
<path d="M16.765 23.5L16.582 26.733" stroke="#00034A" stroke-miterlimit="10" stroke-linecap="round"/>
<path d="M13.318 1.852C12.211 1.105 11.009 0.950004 10.634 1.506C9.998 2.449 11.724 3.862 12.441 4.346C13.548 5.093 14.749 5.248 15.124 4.692C15.76 3.749 14.034 2.336 13.318 1.852Z" fill="#00034A" stroke="#00034A" stroke-miterlimit="10"/>
<path d="M14.6429 4.21C15.0179 3.655 14.4239 2.6 13.3179 1.852C12.2109 1.105 11.0089 0.950004 10.6339 1.506C10.2589 2.062 10.8529 3.118 11.9599 3.865C13.0669 4.612 14.2679 4.766 14.6429 4.21Z" fill="#9BFF00" stroke="#00034A" stroke-miterlimit="10"/>
<path d="M10.865 6.43198C9.59005 6.05798 8.40405 6.27598 8.21505 6.91798C7.90705 7.97098 9.92705 9.02398 10.663 9.23998C11.938 9.61398 13.124 9.39598 13.313 8.75298C13.621 7.70098 11.601 6.64798 10.865 6.43198Z" fill="#00034A" stroke="#00034A" stroke-miterlimit="10"/>
<path d="M12.832 8.27198C13.02 7.62998 12.139 6.80598 10.865 6.43198C9.58997 6.05798 8.40397 6.27598 8.21497 6.91798C8.02697 7.56098 8.90797 8.38498 10.182 8.75798C11.457 9.13198 12.643 8.91498 12.832 8.27198Z" fill="#9BFF00" stroke="#00034A" stroke-miterlimit="10"/>
<path d="M10.0071 11.626C8.69906 11.856 7.73206 12.578 7.84806 13.237C8.06206 14.45 9.98806 14.657 10.9081 14.495C12.2171 14.265 13.1831 13.543 13.0681 12.884C12.8531 11.67 10.9281 11.464 10.0071 11.626Z" fill="#00034A" stroke="#00034A" stroke-miterlimit="10"/>
<path d="M10.4281 14.014C11.7361 13.784 12.7021 13.062 12.5861 12.402C12.4701 11.743 11.3161 11.395 10.0061 11.626C8.69906 11.856 7.73206 12.578 7.84806 13.237C7.96506 13.897 9.11906 14.244 10.4281 14.014Z" fill="#9BFF00" stroke="#00034A" stroke-miterlimit="10"/>
</g>
<defs>
<clipPath id="clip0_2301_15419">
<rect width="40" height="40" fill="white"/>
</clipPath>
</defs>
</svg>
