<svg width="40" height="40" viewBox="0 0 40 40" fill="none" xmlns="http://www.w3.org/2000/svg">
<path d="M4.72896 14.579C4.37796 1.056 17.257 0.5 19.49 0.5C33.298 0.5 35.37 10.815 35.275 22.81C35.269 23.639 35.263 24.453 35.265 25.246C35.265 29.838 35.09 35.932 34.291 37.121C33.861 38.311 31.736 39.5 29.961 39.5C28.357 39.5 26.45 38.528 25.796 37.462C25.237 37.07 24.816 36.608 24.658 36.146C23.838 34.996 23.683 28.863 23.683 24.27C23.683 22.916 23.729 21.622 23.773 20.41C23.895 17 23.994 14.245 22.968 12.63C22.344 12.242 21.52 12.034 20.436 12.034C16.609 12.034 16.373 14.466 16.14 16.882C16.017 18.147 15.895 19.407 15.259 20.312C14.829 21.452 12.704 22.603 10.929 22.603C9.19596 22.603 6.24496 21.215 5.70396 19.337C4.72896 18.031 4.72896 15.262 4.72896 14.579Z" fill="#00034A" stroke="#00034A" stroke-miterlimit="10"/>
<path d="M19.49 0.5C17.257 0.5 4.37798 1.056 4.72998 14.579C4.72998 15.261 4.72998 18.03 5.70498 19.337C6.03598 20.487 8.18098 21.628 9.95498 21.628C11.73 21.628 13.855 20.478 14.285 19.337C16.137 16.704 13.631 11.059 19.462 11.059C25.127 11.059 23.684 16.724 23.684 24.27C23.684 28.863 23.84 34.996 24.659 36.146C25.069 37.336 27.213 38.525 28.988 38.525C30.762 38.525 32.888 37.335 33.317 36.146C34.117 34.956 34.292 28.863 34.292 24.27C34.25 14.18 35.743 0.5 19.49 0.5Z" fill="#9BFF00" stroke="#00034A" stroke-miterlimit="10"/>
<path d="M26.7729 29.74C26.7729 29.74 27.5829 29.233 29.1129 28.112C30.6439 26.991 31.3659 26.338 31.3659 26.338" stroke="#00034A" stroke-miterlimit="10" stroke-linecap="round"/>
<path d="M26.7729 20.175C26.7729 20.175 27.5829 19.669 29.1129 18.547C30.6439 17.426 31.3659 16.792 31.3659 16.792" stroke="#00034A" stroke-miterlimit="10" stroke-linecap="round"/>
<path d="M8.08301 16.1C8.08301 16.1 8.88301 15.593 10.413 14.472C11.943 13.351 12.665 12.688 12.665 12.688" stroke="#00034A" stroke-miterlimit="10" stroke-linecap="round"/>
<path d="M24.8921 10.006C24.8921 10.006 25.1651 9.09997 25.5841 7.24697C26.0041 5.39397 26.1401 4.44897 26.1401 4.44897" stroke="#00034A" stroke-miterlimit="10" stroke-linecap="round"/>
<path d="M18.3791 8.26099C18.3791 8.26099 17.8721 7.45099 16.7411 5.93099C15.6101 4.40999 14.9861 3.68799 14.9861 3.68799" stroke="#00034A" stroke-miterlimit="10" stroke-linecap="round"/>
</svg>
