<svg width="40" height="40" viewBox="0 0 40 40" fill="none" xmlns="http://www.w3.org/2000/svg">
<g clip-path="url(#clip0_2301_14061)">
<path d="M26.8 2.41C26.8642 2.08953 26.8206 1.75681 26.6759 1.46376C26.5312 1.1707 26.2935 0.933792 26 0.789998C25.7074 0.642716 25.3737 0.598138 25.0526 0.663434C24.7316 0.728731 24.4418 0.900106 24.23 1.15C23.2418 2.68482 22.3469 4.2777 21.55 5.92C20.7316 7.54379 20.0071 9.2132 19.38 10.92C19.2591 11.2596 19.2673 11.6318 19.4029 11.9658C19.5385 12.2999 19.7922 12.5724 20.1156 12.7316C20.439 12.8909 20.8097 12.9257 21.1571 12.8295C21.5045 12.7334 21.8045 12.5129 22 12.21C22.986 10.6738 23.8808 9.0811 24.68 7.44C25.4806 5.80449 26.1884 4.12516 26.8 2.41Z" fill="#FFE236" stroke="#231F20" stroke-miterlimit="10"/>
<path d="M17.5201 6.28C17.404 6.00677 17.2738 5.73975 17.13 5.48C17.33 5.3 17.5401 5.1 17.7701 4.86C17.8301 4.8 20.4001 2.34 19.3101 1.28C19.0954 1.06208 18.8172 0.917636 18.5155 0.867345C18.2137 0.817053 17.9038 0.863485 17.63 0.999999C16.8972 1.41509 16.241 1.9529 15.6901 2.59C15.0674 3.16246 14.5497 3.8393 14.1601 4.59C14.0303 4.85689 13.9783 5.15493 14.0101 5.45C14.1324 6.28202 14.3962 7.08698 14.7901 7.83C15.0922 8.61519 15.5325 9.33995 16.0901 9.97C16.3054 10.1874 16.5848 10.3299 16.8872 10.3767C17.1896 10.4235 17.4991 10.3721 17.7701 10.23C19.1601 9.53 17.5601 6.36 17.5201 6.28Z" fill="#FFE236" stroke="#231F20" stroke-miterlimit="10"/>
<path d="M28.9101 6.78C29.0501 7.08 29.1801 7.34 29.3001 7.58C29.1101 7.76 28.9001 7.96 28.6701 8.2C28.6101 8.26 26.0301 10.72 27.1301 11.78C27.3384 12.0037 27.6125 12.1553 27.9128 12.2128C28.213 12.2703 28.5238 12.2308 28.8001 12.1C29.5355 11.6886 30.1923 11.1503 30.7401 10.51C31.3658 9.94041 31.884 9.26297 32.2701 8.51C32.4042 8.24454 32.4564 7.9452 32.4201 7.65C32.2977 6.81798 32.0339 6.01302 31.6401 5.27C31.3317 4.48702 30.8958 3.76052 30.3501 3.12C30.1303 2.90613 29.8488 2.76688 29.5454 2.72201C29.2421 2.67714 28.9323 2.72891 28.6601 2.87C27.2701 3.52 28.8701 6.7 28.9101 6.78Z" fill="#FFE236" stroke="#231F20" stroke-miterlimit="10"/>
<path d="M21.5099 15.62C20.5099 15.05 15.5099 15.27 11.4299 15.89C7.34993 16.51 2.53993 17.78 1.72993 18.64C-7.08103e-05 19.63 0.479929 23.32 0.899929 26.08C1.31993 28.84 2.09993 33.44 4.04993 33.88C4.63993 34.2 6.51993 34.27 8.78993 34.15V37C8.02993 37.32 7.66993 37.62 7.78993 38.38C7.90993 39.14 8.29993 39.38 9.10993 39.38C9.38993 39.38 20.2199 37.76 20.5999 37.63C21.3399 37.38 21.6799 37 21.5999 36.3C21.5199 35.6 21.0499 35.36 20.2299 35.3L19.4099 32.58C21.6099 32.01 23.4099 31.39 23.8499 30.9C25.5799 29.9 24.9499 25.29 24.5299 22.52C24.1099 19.75 23.4599 16.06 21.5099 15.62Z" fill="#48EEFF" stroke="#231F20" stroke-miterlimit="10"/>
<path d="M21 28.65C22.3 27.94 22 25.34 21.67 23.4C21.34 21.46 20.92 18.88 19.46 18.58C18.7 18.19 14.96 18.38 11.91 18.84C8.85996 19.3 5.23996 20.24 4.61996 20.84C3.31996 21.55 3.61996 24.14 3.94996 26.09C4.27996 28.04 4.69996 30.61 6.15996 30.9C6.92996 31.3 10.66 31.11 13.71 30.64C16.76 30.17 20.36 29.26 21 28.65Z" fill="white" stroke="#231F20" stroke-miterlimit="10"/>
<path d="M11.22 36.32C12.2552 35.9413 13.3334 35.6927 14.43 35.58C15.5114 35.3564 16.6171 35.2724 17.72 35.33" stroke="#231F20" stroke-miterlimit="10" stroke-linecap="round"/>
<path d="M19.54 16.83C21.27 17.12 21.54 17.37 22.34 19.26" stroke="white" stroke-miterlimit="10" stroke-linecap="round"/>
<path d="M29.9999 20.64C31.1499 20.1 33.1499 20.7 34.8999 21.77C36.6499 22.84 38.0899 24.35 38.1399 25.62C38.009 27.8347 37.3348 29.9831 36.1767 31.8754C35.0187 33.7677 33.4124 35.3457 31.4999 36.47C30.3499 37.01 28.3499 36.41 26.5999 35.34C24.8499 34.27 23.4099 32.76 23.3599 31.49C23.4907 29.2753 24.1649 27.1269 25.323 25.2346C26.481 23.3423 28.0873 21.7643 29.9999 20.64Z" fill="#FF52A1" stroke="#231F20" stroke-miterlimit="10"/>
<path d="M35.1699 28.91C33.8217 28.7003 32.5284 28.2256 31.3647 27.5133C30.201 26.801 29.1899 25.8652 28.3899 24.76" stroke="#231F20" stroke-miterlimit="10" stroke-linecap="round"/>
<path d="M33.4399 24.12L31.3599 27.51" stroke="#231F20" stroke-miterlimit="10" stroke-linecap="round"/>
<path d="M36.3698 27C36.6498 25.48 36.7098 25.53 35.5598 24.44" stroke="white" stroke-miterlimit="10" stroke-linecap="round"/>
<path d="M30.0398 27.51C30.0398 27.8601 30.1789 28.1958 30.4264 28.4434C30.674 28.6909 31.0097 28.83 31.3598 28.83C31.7099 28.83 32.0456 28.6909 32.2932 28.4434C32.5407 28.1958 32.6798 27.8601 32.6798 27.51C32.6798 27.1599 32.5407 26.8242 32.2932 26.5766C32.0456 26.3291 31.7099 26.19 31.3598 26.19C31.0097 26.19 30.674 26.3291 30.4264 26.5766C30.1789 26.8242 30.0398 27.1599 30.0398 27.51Z" fill="white" stroke="#231F20" stroke-miterlimit="10" stroke-linecap="round"/>
<path d="M30.73 15.51C30.73 15.9582 30.908 16.3881 31.225 16.705C31.5419 17.0219 31.9718 17.2 32.42 17.2C32.8682 17.2 33.2981 17.0219 33.615 16.705C33.9319 16.3881 34.11 15.9582 34.11 15.51C34.11 15.0618 33.9319 14.6319 33.615 14.315C33.2981 13.9981 32.8682 13.82 32.42 13.82C31.9718 13.82 31.5419 13.9981 31.225 14.315C30.908 14.6319 30.73 15.0618 30.73 15.51Z" fill="#FFE236" stroke="#231F20" stroke-miterlimit="10"/>
<path d="M36.1199 11.03C36.1199 11.4782 36.2979 11.9081 36.6149 12.225C36.9318 12.5419 37.3617 12.72 37.8099 12.72C38.2581 12.72 38.6879 12.5419 39.0049 12.225C39.3218 11.9081 39.4999 11.4782 39.4999 11.03C39.4999 10.5818 39.3218 10.1519 39.0049 9.83499C38.6879 9.51805 38.2581 9.34 37.8099 9.34C37.3617 9.34 36.9318 9.51805 36.6149 9.83499C36.2979 10.1519 36.1199 10.5818 36.1199 11.03Z" fill="#FFE236" stroke="#231F20" stroke-miterlimit="10"/>
</g>
<defs>
<clipPath id="clip0_2301_14061">
<rect width="40" height="40" fill="white"/>
</clipPath>
</defs>
</svg>
