<svg width="40" height="40" viewBox="0 0 40 40" fill="none" xmlns="http://www.w3.org/2000/svg">
<g clip-path="url(#clip0_2301_15355)">
<path d="M33.874 15.37C33.874 14.2 32.316 13.334 31.244 13.334C30.345 13.334 29.616 14.063 29.616 14.962C29.616 16.132 31.175 16.997 32.246 16.997C33.146 16.997 33.874 16.269 33.874 15.37Z" fill="#00034A" stroke="#00034A" stroke-miterlimit="10"/>
<path d="M34.8081 10.647C34.8081 9.74798 35.5371 9.01898 36.4351 9.01898C37.5081 9.01898 39.0651 9.88498 39.0651 11.054C39.0651 11.954 38.3371 12.682 37.4381 12.682C36.3661 12.682 34.8081 11.816 34.8081 10.647Z" fill="#00034A" stroke="#00034A" stroke-miterlimit="10"/>
<path d="M27.863 6.55398C27.998 6.84298 28.123 7.09298 28.239 7.32398C28.056 7.49698 27.854 7.68998 27.632 7.92098L27.623 7.93098C27.449 8.09998 25.117 10.375 26.149 11.369C26.504 11.751 27.404 12.098 27.906 12.194C28.195 12.249 28.494 12.211 28.76 12.084C29.4684 11.6882 30.1011 11.1702 30.629 10.554C31.2315 10.0051 31.7304 9.3524 32.102 8.62698C32.232 8.37098 32.282 8.08298 32.247 7.79898C32.1289 6.99767 31.8746 6.22248 31.495 5.50698C31.1982 4.7528 30.7785 4.05299 30.253 3.43598C29.899 3.09198 28.953 2.71598 28.475 2.64598C28.1831 2.60274 27.885 2.65242 27.623 2.78798C26.29 3.41098 27.81 6.44698 27.863 6.55198V6.55398Z" fill="#00034A" stroke="#00034A" stroke-miterlimit="10"/>
<path d="M25.06 0.784027C24.7782 0.642363 24.457 0.599559 24.148 0.662494C23.8389 0.725429 23.56 0.890448 23.356 1.13103C22.4044 2.60921 21.5425 4.14332 20.775 5.72503C19.9869 7.28908 19.2891 8.89706 18.685 10.541C18.5686 10.8681 18.5764 11.2266 18.7069 11.5483C18.8374 11.87 19.0816 12.1325 19.393 12.286C19.735 12.454 20.054 12.526 20.396 12.693C20.7075 12.8464 21.0645 12.88 21.3991 12.7875C21.7337 12.6949 22.0227 12.4827 22.211 12.191C23.1602 10.7115 24.0217 9.17754 24.791 7.59703C25.5626 6.02173 26.2447 4.40416 26.834 2.75203C26.896 2.44347 26.854 2.12309 26.7147 1.84089C26.5754 1.55868 26.3466 1.33053 26.064 1.19203C25.726 1.02203 25.4 0.950027 25.061 0.784027H25.06Z" fill="#00034A" stroke="#00034A" stroke-miterlimit="10"/>
<path d="M17.2861 10.425C17.5771 10.47 17.8761 10.421 18.1361 10.284C19.4661 9.61398 17.9551 6.59698 17.8961 6.48098V6.47898C17.7842 6.21599 17.6587 5.95898 17.5201 5.70898C17.7131 5.53498 17.9151 5.34298 18.1371 5.11198L18.1451 5.10298C18.3131 4.93898 20.6441 2.65998 19.6201 1.66298C19.2651 1.30298 18.3401 0.939978 17.8521 0.858978C17.5614 0.810601 17.2628 0.855404 16.9991 0.986978C16.2932 1.38639 15.6614 1.90428 15.1311 2.51798C14.5313 3.06918 14.0325 3.72099 13.6571 4.44398C13.5318 4.70119 13.4816 4.98851 13.5121 5.27298C13.6301 6.07398 13.8841 6.84898 14.2641 7.56498C14.5551 8.3212 14.9791 9.01921 15.5161 9.62598C15.8661 9.97898 16.8061 10.35 17.2861 10.425Z" fill="#00034A" stroke="#00034A" stroke-miterlimit="10"/>
<path d="M25.8309 2.34498C25.8929 2.03643 25.8509 1.71605 25.7116 1.43385C25.5723 1.15164 25.3435 0.923487 25.0609 0.784984C24.7792 0.642953 24.4578 0.59985 24.1485 0.662609C23.8392 0.725369 23.5601 0.890341 23.3559 1.13098C22.4043 2.60917 21.5424 4.14328 20.7749 5.72498C19.9867 7.28902 19.2889 8.897 18.6849 10.541C18.5673 10.8683 18.5744 11.2274 18.7047 11.5499C18.835 11.8723 19.0796 12.1355 19.3916 12.2891C19.7037 12.4427 20.0613 12.476 20.3964 12.3826C20.7314 12.2893 21.0203 12.0758 21.2079 11.783C23.0993 8.8207 24.6502 5.6553 25.8309 2.34498Z" fill="#9BFF00" stroke="#00034A" stroke-miterlimit="10"/>
<path d="M16.8931 6.07202C16.7812 5.80902 16.6557 5.55201 16.5171 5.30202C16.7101 5.12802 16.9121 4.93602 17.1341 4.70402C17.1921 4.64702 19.6671 2.27702 18.6171 1.25602C18.4105 1.04624 18.1428 0.907158 17.8524 0.858664C17.562 0.81017 17.2637 0.854748 17.0001 0.986024C16.2941 1.38602 15.6621 1.90402 15.1321 2.51802C14.5323 3.06923 14.0334 3.72104 13.6581 4.44402C13.5328 4.70124 13.4825 4.98855 13.5131 5.27302C13.6312 6.07432 13.8855 6.84951 14.2651 7.56502C14.5561 8.32122 14.9801 9.01923 15.5171 9.62602C15.7245 9.83535 15.9937 9.9726 16.2849 10.0176C16.5762 10.0626 16.8741 10.013 17.1351 9.87602C18.4741 9.20202 16.9331 6.14902 16.8951 6.07202H16.8931Z" fill="#9BFF00" stroke="#00034A" stroke-miterlimit="10"/>
<path d="M27.863 6.55402C27.998 6.84302 28.123 7.09302 28.239 7.32402C28.056 7.49702 27.854 7.69002 27.632 7.92102C27.574 7.97902 25.089 10.348 26.149 11.369C26.3496 11.5845 26.6135 11.7306 26.9026 11.7861C27.1917 11.8417 27.4909 11.8038 27.757 11.678C28.4656 11.2817 29.0984 10.763 29.626 10.146C30.2288 9.59753 30.7281 8.94516 31.1 8.22002C31.229 7.96402 31.28 7.67602 31.244 7.39202C31.1264 6.59043 30.8724 5.8149 30.493 5.09902C30.1958 4.34514 29.7758 3.64568 29.25 3.02902C29.0385 2.82312 28.7675 2.68905 28.4755 2.64579C28.1834 2.60254 27.8852 2.6523 27.623 2.78802C26.283 3.41402 27.825 6.47702 27.863 6.55402Z" fill="#9BFF00" stroke="#00034A" stroke-miterlimit="10"/>
<path d="M11.027 15.328C13.977 14.88 17.425 14.648 19.369 14.793C21.33 14.939 22.628 16.256 23.521 17.977C24.238 19.357 24.59 21.438 24.85 23.154C25.254 25.821 25.861 30.262 24.195 31.224C23.771 31.697 22.037 32.294 19.919 32.843L20.332 34.215C20.702 34.408 21.994 36.126 22.028 36.425C22.105 37.1 21.778 37.466 21.065 37.707C20.699 37.832 10.268 39.392 9.998 39.392C9.213 39.392 7.638 37.728 7.522 36.989C7.406 36.257 7.752 35.969 8.485 35.66V34.4C6.857 34.436 5.585 34.344 5.125 34.095C4.215 33.89 3.07 32.295 2.592 31.488C1.648 29.894 1.177 27.058 0.885001 25.142C0.481001 22.484 0.0190012 18.93 1.685 17.977C2.465 17.148 7.098 15.925 11.027 15.328Z" fill="#00034A" stroke="#00034A" stroke-miterlimit="10"/>
<path d="M20.736 15.068C19.773 14.518 14.957 14.731 11.027 15.328C7.097 15.925 2.465 17.148 1.685 17.977C0.0190012 18.93 0.481001 22.484 0.885001 25.142C1.29 27.801 2.041 32.232 3.919 32.655C4.488 32.963 6.299 33.031 8.485 32.915V35.66C7.753 35.968 7.406 36.257 7.522 36.99C7.637 37.721 8.012 37.952 8.792 37.952C9.062 37.952 19.494 36.392 19.86 36.267C20.572 36.027 20.9 35.66 20.823 34.986C20.746 34.312 20.293 34.081 19.503 34.023L18.713 31.403C20.833 30.854 22.566 30.257 22.99 29.785C24.656 28.822 24.05 24.382 23.645 21.714C23.24 19.046 22.615 15.492 20.736 15.068Z" fill="#9BFF00" stroke="#00034A" stroke-miterlimit="10"/>
<path d="M20.2449 27.618C21.4969 26.934 21.2079 24.43 20.8899 22.561C20.5719 20.693 20.1679 18.208 18.7619 17.919C18.0299 17.543 14.4269 17.726 11.4899 18.169C8.55195 18.612 5.06495 19.518 4.46795 20.096C3.21595 20.779 3.50495 23.274 3.82295 25.152C4.14095 27.03 4.54495 29.506 5.95195 29.785C6.69295 30.17 10.2859 29.987 13.2229 29.535C16.1609 29.082 19.6279 28.205 20.2449 27.618Z" fill="white" stroke="#00034A" stroke-miterlimit="10"/>
<path d="M10.825 35.005C11.8221 34.6401 12.8607 34.4006 13.917 34.292C14.9587 34.0769 16.0237 33.9963 17.086 34.052" stroke="#00034A" stroke-miterlimit="10" stroke-linecap="round"/>
<path d="M33.6331 20.991C31.9471 19.961 30.0211 19.383 28.9131 19.903C27.0711 20.9859 25.5242 22.5058 24.4088 24.3283C23.2935 26.1509 22.6441 28.22 22.5181 30.353C22.5941 32.3 25.4791 34.721 26.9891 35.644C28.6751 36.674 30.6011 37.253 31.7091 36.733C33.551 35.6501 35.098 34.1302 36.2133 32.3077C37.3286 30.4851 37.978 28.416 38.1041 26.283C38.0271 24.336 35.1431 21.914 33.6331 20.991Z" fill="#00034A" stroke="#00034A" stroke-miterlimit="10"/>
<path d="M28.9131 19.903C30.0211 19.383 31.9471 19.961 33.6331 20.991C35.3181 22.021 36.7051 23.476 36.7531 24.7C36.6271 26.833 35.9777 28.9022 34.8624 30.7247C33.7471 32.5473 32.2001 34.0671 30.3581 35.15C29.2501 35.67 27.3241 35.092 25.6381 34.061C23.9531 33.031 22.5661 31.576 22.5181 30.353C22.6441 28.22 23.2934 26.1508 24.4087 24.3283C25.5241 22.5057 27.0711 20.9859 28.9131 19.903Z" fill="white" stroke="#00034A" stroke-miterlimit="10"/>
<path d="M33.893 27.868C32.5946 27.6659 31.349 27.2087 30.2282 26.5227C29.1074 25.8367 28.1336 24.9354 27.363 23.871" stroke="#00034A" stroke-miterlimit="10" stroke-linecap="round"/>
<path d="M32.2269 23.255L30.2229 26.52" stroke="#00034A" stroke-miterlimit="10" stroke-linecap="round"/>
<path d="M30.2229 27.791C30.3898 27.791 30.5551 27.7581 30.7093 27.6943C30.8635 27.6304 31.0036 27.5368 31.1216 27.4188C31.2397 27.3007 31.3333 27.1606 31.3972 27.0064C31.461 26.8522 31.4939 26.6869 31.4939 26.52C31.4939 26.3531 31.461 26.1878 31.3972 26.0336C31.3333 25.8794 31.2397 25.7393 31.1216 25.6213C31.0036 25.5033 30.8635 25.4096 30.7093 25.3458C30.5551 25.2819 30.3898 25.249 30.2229 25.249C29.8858 25.249 29.5625 25.3829 29.3242 25.6213C29.0858 25.8596 28.9519 26.1829 28.9519 26.52C28.9519 26.8571 29.0858 27.1804 29.3242 27.4188C29.5625 27.6571 29.8858 27.791 30.2229 27.791Z" fill="#9BFF00" stroke="#00034A" stroke-miterlimit="10" stroke-linecap="round"/>
<path d="M31.244 16.59C31.6757 16.59 32.0898 16.4185 32.3951 16.1132C32.7004 15.8078 32.872 15.3938 32.872 14.962C32.872 14.5302 32.7004 14.1161 32.3951 13.8108C32.0898 13.5055 31.6757 13.334 31.244 13.334C30.8122 13.334 30.3981 13.5055 30.0928 13.8108C29.7875 14.1161 29.616 14.5302 29.616 14.962C29.616 15.3938 29.7875 15.8078 30.0928 16.1132C30.3981 16.4185 30.8122 16.59 31.244 16.59Z" fill="#9BFF00" stroke="#00034A" stroke-miterlimit="10"/>
<path d="M36.4349 12.275C36.8667 12.275 37.2807 12.1035 37.5861 11.7982C37.8914 11.4928 38.0629 11.0788 38.0629 10.647C38.0629 10.2152 37.8914 9.80112 37.5861 9.49581C37.2807 9.1905 36.8667 9.01898 36.4349 9.01898C36.0031 9.01898 35.589 9.1905 35.2837 9.49581C34.9784 9.80112 34.8069 10.2152 34.8069 10.647C34.8069 11.0788 34.9784 11.4928 35.2837 11.7982C35.589 12.1035 36.0031 12.275 36.4349 12.275Z" fill="#9BFF00" stroke="#00034A" stroke-miterlimit="10"/>
</g>
<defs>
<clipPath id="clip0_2301_15355">
<rect width="40" height="40" fill="white"/>
</clipPath>
</defs>
</svg>
