<svg width="40" height="40" viewBox="0 0 40 40" fill="none" xmlns="http://www.w3.org/2000/svg">
<g clip-path="url(#clip0_2301_15344)">
<path d="M19.469 0.5C8.993 0.5 0.5 8.993 0.5 19.469C0.5 30.04 9.84 39.38 20.412 39.38C30.888 39.38 39.38 30.888 39.38 20.411C39.38 9.841 30.039 0.5 19.469 0.5Z" fill="#00034A" stroke="#00034A" stroke-miterlimit="10"/>
<path d="M19.469 38.438C29.945 38.438 38.438 29.945 38.438 19.468C38.438 8.994 29.945 0.5 19.468 0.5C8.994 0.5 0.5 8.993 0.5 19.469C0.5 29.945 8.993 38.438 19.469 38.438Z" fill="#9BFF00" stroke="#00034A" stroke-miterlimit="10"/>
<path d="M24.634 24.634C24.974 24.304 26.259 23.34 28.136 17.824C28.8529 15.7988 29.3295 13.6964 29.556 11.56C29.573 11.2694 29.5283 10.9785 29.4248 10.7064C29.3213 10.4344 29.1614 10.1873 28.9556 9.98145C28.7497 9.77561 28.5026 9.61569 28.2306 9.51221C27.9585 9.40872 27.6676 9.36401 27.377 9.38103C25.2407 9.60822 23.1384 10.0848 21.113 10.801C19.381 11.395 15.695 12.893 14.303 14.294C12.913 15.694 11.385 19.381 10.811 21.103C10.094 23.1286 9.61741 25.2313 9.39098 27.368C9.37396 27.6586 9.41867 27.9495 9.52215 28.2216C9.62564 28.4937 9.78556 28.7408 9.9914 28.9466C10.1972 29.1524 10.4443 29.3124 10.7164 29.4158C10.9885 29.5193 11.2794 29.564 11.57 29.547C13.7064 29.3205 15.8088 28.8439 17.834 28.127C23.36 26.278 24.333 24.945 24.634 24.634Z" fill="white" stroke="#00034A" stroke-miterlimit="10"/>
<path d="M16.7161 16.152C16.7161 16.152 20.7621 16.152 21.7741 17.124C22.7861 18.097 22.7471 22.183 22.7471 22.183" stroke="#00034A" stroke-miterlimit="10" stroke-linecap="round"/>
<path d="M3.21411 19.469H5.91811" stroke="#00034A" stroke-miterlimit="10" stroke-linecap="round"/>
<path d="M33.02 19.469H35.724" stroke="#00034A" stroke-miterlimit="10" stroke-linecap="round"/>
<path d="M19.469 3.21399V5.91799" stroke="#00034A" stroke-miterlimit="10" stroke-linecap="round"/>
<path d="M19.469 33.02V35.724" stroke="#00034A" stroke-miterlimit="10" stroke-linecap="round"/>
<path d="M7.96997 7.96997L9.88697 9.88697" stroke="#00034A" stroke-miterlimit="10" stroke-linecap="round"/>
<path d="M29.05 29.05L30.967 30.967" stroke="#00034A" stroke-miterlimit="10" stroke-linecap="round"/>
</g>
<defs>
<clipPath id="clip0_2301_15344">
<rect width="40" height="40" fill="white"/>
</clipPath>
</defs>
</svg>
