<svg width="40" height="40" viewBox="0 0 40 40" fill="none" xmlns="http://www.w3.org/2000/svg">
<g clip-path="url(#clip0_2301_14027)">
<path d="M32.3899 0.649999C31.4599 0.379999 30.0599 -1.43051e-06 29.3899 4.06C28.7199 8.12 29.6299 8.42 30.0999 8.56C30.5699 8.7 31.4899 8.96 33.0999 5.15C34.7099 1.34 33.3199 0.919999 32.3899 0.649999Z" fill="#48EEFF" stroke="#231F20" stroke-miterlimit="10"/>
<path d="M27.8999 11.26C27.8999 11.4504 27.9374 11.639 28.0103 11.8149C28.0831 11.9908 28.19 12.1507 28.3246 12.2853C28.4592 12.4199 28.6191 12.5268 28.795 12.5996C28.9709 12.6725 29.1595 12.71 29.3499 12.71C29.5403 12.71 29.7289 12.6725 29.9048 12.5996C30.0807 12.5268 30.2406 12.4199 30.3752 12.2853C30.5099 12.1507 30.6167 11.9908 30.6895 11.8149C30.7624 11.639 30.7999 11.4504 30.7999 11.26C30.7999 11.0696 30.7624 10.881 30.6895 10.7051C30.6167 10.5292 30.5099 10.3693 30.3752 10.2347C30.2406 10.1 30.0807 9.99324 29.9048 9.92037C29.7289 9.8475 29.5403 9.81 29.3499 9.81C29.1595 9.81 28.9709 9.8475 28.795 9.92037C28.6191 9.99324 28.4592 10.1 28.3246 10.2347C28.19 10.3693 28.0831 10.5292 28.0103 10.7051C27.9374 10.881 27.8999 11.0696 27.8999 11.26Z" fill="#48EEFF" stroke="#231F20" stroke-miterlimit="10"/>
<path d="M38 6.25C37.37 5.81 36.41 5.18 34.89 8.06C33.37 10.94 33.99 11.4 34.31 11.61C34.63 11.82 35.25 12.26 37.41 9.8C39.57 7.34 38.65 6.68 38 6.25Z" fill="#48EEFF" stroke="#231F20" stroke-miterlimit="10"/>
<path d="M31.6599 13.65C31.6599 13.955 31.7811 14.2475 31.9967 14.4632C32.2124 14.6788 32.5049 14.8 32.8099 14.8C33.1149 14.8 33.4074 14.6788 33.6231 14.4632C33.8388 14.2475 33.9599 13.955 33.9599 13.65C33.9599 13.345 33.8388 13.0525 33.6231 12.8368C33.4074 12.6212 33.1149 12.5 32.8099 12.5C32.5049 12.5 32.2124 12.6212 31.9967 12.8368C31.7811 13.0525 31.6599 13.345 31.6599 13.65Z" fill="#48EEFF" stroke="#231F20" stroke-miterlimit="10"/>
<path d="M25.3599 14.1L25.2199 13.49C23.9099 7.73 20.5499 4.07 15.4399 3.72C15.2199 3.05 14.7599 2.39 14.4399 2.31C13.2947 2.10412 12.1174 2.16572 10.9999 2.49C9.84098 2.68355 8.74244 3.14213 7.78989 3.83C7.47478 4.34069 7.37077 4.95397 7.49989 5.54C2.99989 8.07 1.59988 12.83 2.90988 18.58L3.04988 19.19C2.35681 19.4306 1.78751 19.9364 1.46692 20.5964C1.14633 21.2563 1.10065 22.0164 1.33988 22.71C1.60988 23.86 2.15988 24.51 4.33988 24.34C4.8387 24.3338 5.33651 24.2937 5.82989 24.22C6.403 24.7687 7.15705 25.0888 7.94988 25.12C8.74989 25.29 12.7099 24.73 15.9499 24C19.1899 23.27 22.9499 22.05 23.6299 21.55C24.3245 21.1704 24.8628 20.5577 25.1499 19.82C25.6236 19.6681 26.0878 19.4877 26.5399 19.28C28.5399 18.51 28.7599 17.68 28.4899 16.53C28.4493 16.1627 28.3354 15.8072 28.1549 15.4847C27.9744 15.1622 27.731 14.8793 27.4391 14.6527C27.1472 14.426 26.8127 14.2603 26.4556 14.1654C26.0984 14.0705 25.7258 14.0482 25.3599 14.1Z" fill="#FFE236" stroke="#231F20" stroke-miterlimit="10"/>
<path d="M17.8699 6.22C18.9747 6.47888 19.9315 7.16589 20.5299 8.13" stroke="white" stroke-miterlimit="10" stroke-linecap="round"/>
<path d="M9.62994 14.44C9.01093 12.3776 8.52987 10.2763 8.18994 8.14999" stroke="#231F20" stroke-miterlimit="10" stroke-linecap="round"/>
<path d="M7.77979 18.34C12.0065 17.1298 16.2962 16.1517 20.6298 15.41" stroke="#231F20" stroke-miterlimit="10" stroke-linecap="round"/>
<path d="M16 6.47C16.6168 8.53232 17.0946 10.6337 17.43 12.76" stroke="#231F20" stroke-miterlimit="10" stroke-linecap="round"/>
<path d="M37.57 28.58C37.86 26.65 38.12 24.32 37.41 23.77L37.31 23.66V22.96C37.5086 22.6596 37.6353 22.3174 37.68 21.96C37.7741 21.3168 37.6089 20.6626 37.2207 20.1413C36.8325 19.6199 36.2531 19.2741 35.61 19.18C34.9668 19.0858 34.3126 19.251 33.7913 19.6392C33.2699 20.0274 32.9241 20.6068 32.83 21.25C32.7747 21.5575 32.7747 21.8725 32.83 22.18C31.37 21.89 29.83 21.64 28.62 21.46C27.41 21.28 26 21.11 24.46 21C24.6239 20.7307 24.7327 20.4316 24.78 20.12C24.8343 19.4948 24.6475 18.8725 24.2581 18.3805C23.8686 17.8884 23.3058 17.5638 22.6848 17.4731C22.0639 17.3824 21.4317 17.5324 20.9178 17.8925C20.4038 18.2525 20.0468 18.7954 19.92 19.41C19.881 19.7454 19.9082 20.0851 20 20.41C19.95 20.61 19.89 20.84 19.84 21.09L19.7 21.17C18.87 21.49 18.45 23.8 18.17 25.72C17.89 27.64 17.63 29.92 18.31 30.5C17.9573 32.4494 17.8031 34.4295 17.85 36.41C17.93 37.17 18.92 37.41 19.74 37.51C20.56 37.61 21.57 37.71 21.86 37C22.4149 35.4226 22.7971 33.7898 23 32.13C24.42 32.41 25.9 32.64 27.06 32.81C28.22 32.98 29.71 33.18 31.15 33.32C30.8549 34.9693 30.7409 36.6459 30.81 38.32C30.89 39.08 31.87 39.32 32.7 39.42C33.53 39.52 34.53 39.62 34.82 38.9C35.17 38.41 35.68 35.67 36.09 33.11C36.88 32.75 37.29 30.48 37.57 28.58Z" fill="#FF52A1" stroke="#231F20" stroke-miterlimit="10"/>
<path d="M22.26 23C21.7148 23.815 21.0391 24.5346 20.26 25.13" stroke="#231F20" stroke-miterlimit="10" stroke-linecap="round"/>
<path d="M26.3099 23.62C24.7167 25.5212 23.0032 27.3182 21.1799 29" stroke="#231F20" stroke-miterlimit="10" stroke-linecap="round"/>
<path d="M30.35 24.21C28.7623 26.1192 27.0485 27.9199 25.22 29.6" stroke="#231F20" stroke-miterlimit="10" stroke-linecap="round"/>
<path d="M34.39 24.81C32.8032 26.7168 31.0929 28.5174 29.27 30.2" stroke="#231F20" stroke-miterlimit="10" stroke-linecap="round"/>
<path d="M35.6201 28.36C34.972 29.2778 34.1939 30.0963 33.3101 30.79" stroke="#231F20" stroke-miterlimit="10" stroke-linecap="round"/>
<path d="M35.48 20.67C35.7111 20.7438 35.9076 20.8991 36.0327 21.107C36.1578 21.3149 36.203 21.5612 36.16 21.8" stroke="white" stroke-miterlimit="10" stroke-linecap="round"/>
</g>
<defs>
<clipPath id="clip0_2301_14027">
<rect width="40" height="40" fill="white"/>
</clipPath>
</defs>
</svg>
