<svg width="40" height="40" viewBox="0 0 40 40" fill="none" xmlns="http://www.w3.org/2000/svg">
<g clip-path="url(#clip0_2301_15281)">
<path d="M30.404 0.745986C29.392 0.609986 27.874 0.425985 27.824 4.78599C27.804 6.63099 27.869 9.58399 30.231 9.90199H30.235C30.741 9.97199 31.763 10.068 32.815 5.86299C33.415 3.46299 33.139 1.10199 30.404 0.745986Z" fill="#00034A"/>
<path d="M27.328 12.262C27.328 11.418 28.012 10.734 28.856 10.734C29.833 10.734 31.326 11.81 31.326 12.824C31.326 13.667 30.641 14.351 29.796 14.351C28.82 14.351 27.328 13.275 27.328 12.261V12.262Z" fill="#00034A"/>
<path d="M30.404 0.745986C29.392 0.609986 27.874 0.425985 27.824 4.78599C27.804 6.63099 27.869 9.58399 30.231 9.90199H30.235C30.741 9.97199 31.763 10.068 32.815 5.86299C33.415 3.46299 33.139 1.10199 30.404 0.745986Z" stroke="#00034A" stroke-miterlimit="10"/>
<path d="M27.328 12.262C27.328 11.418 28.012 10.734 28.856 10.734C29.833 10.734 31.326 11.81 31.326 12.824C31.326 13.667 30.641 14.351 29.796 14.351C28.82 14.351 27.328 13.275 27.328 12.261V12.262Z" stroke="#00034A" stroke-miterlimit="10"/>
<path d="M4.94198 14.356C5.02198 14.889 5.11198 15.438 5.20198 15.951C5.34454 16.865 5.51663 17.7742 5.71798 18.677C2.79798 22.57 0.14098 28.41 0.57798 30.97C0.88098 32.768 2.42298 34.666 4.39098 34.697C5.36398 34.891 10.231 34.161 14.193 33.489C18.155 32.818 23.003 31.903 23.849 31.406C25.601 30.754 25.64 28.934 25.416 27.6C24.978 25.07 20.559 20.397 16.52 17.71C16.407 16.7925 16.2736 15.8776 16.12 14.966L16.087 14.776C15.97 14.109 15.845 13.396 15.711 12.746C15.961 12.676 16.201 12.582 16.431 12.464C17.405 12.084 17.473 11.004 17.337 10.206C17.143 9.06603 15.885 7.74803 14.664 7.71503C12.746 7.71903 10.834 7.90203 8.94998 8.26003C7.05525 8.53825 5.19099 8.99461 3.38198 9.62303C2.40898 10.013 2.34998 11.093 2.48698 11.891C2.67698 13.004 3.79698 14.184 4.94198 14.355V14.356Z" fill="#00034A" stroke="#00034A" stroke-miterlimit="10"/>
<path d="M15.443 17.06C15.33 16.1425 15.1966 15.2276 15.043 14.316C14.917 13.596 14.781 12.806 14.635 12.096C14.8837 12.0261 15.1249 11.9316 15.355 11.814C16.328 11.434 16.397 10.354 16.26 9.556C16.124 8.757 15.744 7.746 14.664 7.716C12.746 7.72 10.834 7.903 8.94998 8.261C7.05525 8.53923 5.19099 8.99558 3.38198 9.624C2.40898 10.014 2.34998 11.094 2.48698 11.892C2.62298 12.69 2.99298 13.702 4.07298 13.722C4.33298 13.747 4.59298 13.747 4.85198 13.722C4.94898 14.442 5.07598 15.231 5.20198 15.951C5.34798 16.856 5.52398 17.839 5.71798 18.677C2.79798 22.57 0.14098 28.41 0.57798 30.97C0.80298 32.303 1.44498 34.016 3.31398 34.046C4.28698 34.24 9.15398 33.51 13.116 32.839C17.078 32.167 21.926 31.252 22.773 30.756C24.525 30.103 24.563 28.283 24.34 26.95C23.902 24.419 19.482 19.746 15.443 17.06Z" fill="white" stroke="#00034A" stroke-miterlimit="10"/>
<path d="M7.02305 22.648C5.50405 24.77 4.31705 27.33 4.53005 28.547C4.65605 29.307 5.04605 30.28 6.24305 30.28C8.35924 30.1643 10.4642 29.8943 12.541 29.472C14.6384 29.1792 16.7132 28.7432 18.751 28.167C19.1747 28.0047 19.5199 27.6861 19.7157 27.2768C19.9114 26.8675 19.9427 26.3987 19.803 25.967C19.598 24.751 17.632 22.717 15.51 21.207L7.02305 22.648Z" fill="#9BFF00" stroke="#00034A" stroke-miterlimit="10"/>
<path d="M7.08997 13.488C8.88699 13.3093 10.6695 13.0069 12.425 12.583" stroke="#00034A" stroke-miterlimit="10" stroke-linecap="round"/>
<path d="M11.092 15.727C11.7015 15.6629 12.3061 15.559 12.902 15.416" stroke="#00034A" stroke-miterlimit="10" stroke-linecap="round"/>
<path d="M11.52 18.268C12.1302 18.2083 12.7351 18.104 13.33 17.956" stroke="#00034A" stroke-miterlimit="10" stroke-linecap="round"/>
<path d="M13.38 24.955C13.4949 24.9588 13.6095 24.9395 13.7168 24.8982C13.8241 24.8568 13.922 24.7943 14.0047 24.7144C14.0873 24.6344 14.153 24.5386 14.1979 24.4327C14.2428 24.3268 14.2658 24.213 14.2658 24.098C14.2657 23.9829 14.2425 23.8691 14.1975 23.7633C14.1525 23.6574 14.0867 23.5617 14.004 23.4819C13.9212 23.402 13.8232 23.3396 13.7159 23.2984C13.6085 23.2572 13.4939 23.238 13.379 23.242C13.1569 23.2496 12.9464 23.3431 12.792 23.5029C12.6376 23.6627 12.5513 23.8762 12.5513 24.0985C12.5513 24.3207 12.6376 24.5342 12.792 24.694C12.9464 24.8538 13.1569 24.9474 13.379 24.955H13.38Z" fill="#00034A"/>
<path d="M10.274 27.223C10.389 27.2269 10.5035 27.2077 10.6109 27.1664C10.7182 27.1252 10.8161 27.0627 10.8988 26.9828C10.9815 26.9029 11.0473 26.8071 11.0922 26.7012C11.1371 26.5954 11.1603 26.4815 11.1603 26.3665C11.1603 26.2515 11.1371 26.1377 11.0922 26.0318C11.0473 25.9259 10.9815 25.8302 10.8988 25.7503C10.8161 25.6703 10.7182 25.6079 10.6109 25.5666C10.5035 25.5253 10.389 25.5061 10.274 25.51C10.0519 25.5176 9.84147 25.6112 9.68704 25.771C9.53261 25.9308 9.44629 26.1443 9.44629 26.3665C9.44629 26.5887 9.53261 26.8023 9.68704 26.9621C9.84147 27.1219 10.0519 27.2154 10.274 27.223Z" fill="#00034A"/>
<path d="M28.93 37.752C29.648 38.401 30.41 39.048 31.382 39.275C32.297 39.49 33.572 39.412 33.972 38.76C34.5544 37.7538 34.9777 36.6636 35.227 35.528C37.1429 34.0463 38.4544 31.9184 38.917 29.541C40.384 23.309 36.382 18.396 30.472 16.993C23.912 15.435 19.765 18.473 18.382 24.167C17.7227 26.4904 17.9303 28.9743 18.966 31.156C18.6865 32.2821 18.5753 33.4434 18.636 34.602C18.73 35.67 20.678 36.738 21.57 36.949C22.387 37.142 23.52 37.106 24.028 36.611C24.75 37.247 25.488 37.888 26.457 38.117C27.283 38.312 28.426 38.265 28.93 37.752Z" fill="#00034A" stroke="#00034A" stroke-linejoin="round"/>
<path d="M38.075 28.82C39.418 23.115 37.033 18.55 30.472 16.992C23.912 15.435 19.765 18.472 18.382 24.167C17.7227 26.4904 17.9303 28.9742 18.966 31.156C18.6865 32.2821 18.5753 33.4433 18.636 34.602C18.704 35.371 19.823 36.013 20.728 36.227C21.634 36.441 22.928 36.373 23.328 35.711C23.4017 35.6199 23.4666 35.5222 23.522 35.419C23.5021 35.5314 23.5021 35.6465 23.522 35.759C23.59 36.539 24.71 37.181 25.615 37.395C26.52 37.609 27.805 37.531 28.214 36.87C28.289 36.781 28.351 36.683 28.399 36.578C28.399 36.696 28.415 36.814 28.448 36.928C28.516 37.697 29.625 38.339 30.54 38.554C31.455 38.768 32.73 38.69 33.13 38.038C33.7123 37.0317 34.1357 35.9415 34.385 34.806C36.3007 33.3245 37.6122 31.197 38.075 28.82Z" fill="#9BFF00" stroke="#00034A" stroke-linejoin="round"/>
<path d="M24.252 27.33C25.0187 27.33 25.754 27.0254 26.2962 26.4832C26.8384 25.9411 27.143 25.2057 27.143 24.439C27.143 23.6722 26.8384 22.9369 26.2962 22.3947C25.754 21.8526 25.0187 21.548 24.252 21.548C23.4852 21.548 22.7499 21.8526 22.2077 22.3947C21.6655 22.9369 21.361 23.6722 21.361 24.439C21.361 25.2057 21.6655 25.9411 22.2077 26.4832C22.7499 27.0254 23.4852 27.33 24.252 27.33Z" fill="white" stroke="#00034A" stroke-miterlimit="10"/>
<path d="M32.6911 29.326C33.4578 29.326 34.1931 29.0214 34.7353 28.4793C35.2775 27.9371 35.5821 27.2017 35.5821 26.435C35.5821 25.6683 35.2775 24.9329 34.7353 24.3908C34.1931 23.8486 33.4578 23.544 32.6911 23.544C31.9243 23.544 31.189 23.8486 30.6468 24.3908C30.1046 24.9329 29.8 25.6683 29.8 26.435C29.8 27.2017 30.1046 27.9371 30.6468 28.4793C31.189 29.0214 31.9243 29.326 32.6911 29.326Z" fill="white" stroke="#00034A" stroke-miterlimit="10"/>
<path d="M25.741 30.727C26.773 29.491 28.185 29.822 28.555 31.389" stroke="#00034A" stroke-miterlimit="10" stroke-linecap="round"/>
<path d="M23.522 35.42L23.707 34.63" stroke="#00034A" stroke-miterlimit="10" stroke-linecap="round"/>
<path d="M28.438 36.578L28.633 35.789" stroke="#00034A" stroke-miterlimit="10" stroke-linecap="round"/>
<path d="M30.404 0.745986C31.377 0.872986 32.925 1.09599 31.874 5.30199C30.823 9.50699 29.801 9.40999 29.294 9.34199C28.788 9.27299 27.776 9.14699 27.824 4.78599C27.874 0.425985 29.392 0.609986 30.404 0.745986Z" fill="#9BFF00" stroke="#00034A" stroke-miterlimit="10"/>
<path d="M28.856 13.79C29.0567 13.79 29.2554 13.7505 29.4407 13.6737C29.6261 13.5969 29.7946 13.4844 29.9365 13.3425C30.0784 13.2006 30.1909 13.0321 30.2677 12.8467C30.3445 12.6614 30.384 12.4627 30.384 12.262C30.384 12.0613 30.3445 11.8627 30.2677 11.6773C30.1909 11.4919 30.0784 11.3234 29.9365 11.1815C29.7946 11.0397 29.6261 10.9271 29.4407 10.8503C29.2554 10.7735 29.0567 10.734 28.856 10.734C28.4508 10.734 28.0621 10.895 27.7755 11.1815C27.489 11.4681 27.328 11.8568 27.328 12.262C27.328 12.6673 27.489 13.0559 27.7755 13.3425C28.0621 13.629 28.4508 13.79 28.856 13.79Z" fill="#9BFF00" stroke="#00034A" stroke-miterlimit="10"/>
<path d="M21.497 3.88998L21.424 3.90998C20.638 4.11998 19.555 4.40998 20.631 7.57998C21.011 8.70198 22.175 11.488 23.851 11.16L23.859 11.159C24.259 11.081 25.066 10.876 24.725 7.46898C24.553 5.74598 23.601 3.44898 21.497 3.88998Z" fill="#00034A"/>
<path d="M22.373 13.196C22.373 12.53 22.913 11.989 23.58 11.989C24.36 11.989 25.728 12.947 25.728 13.758C25.728 14.424 25.188 14.965 24.521 14.965C23.741 14.965 22.373 14.007 22.373 13.196Z" fill="#00034A"/>
<path d="M21.497 3.88998L21.424 3.90998C20.638 4.11998 19.555 4.40998 20.631 7.57998C21.011 8.70198 22.175 11.488 23.851 11.16L23.859 11.159C24.259 11.081 25.066 10.876 24.725 7.46898C24.553 5.74598 23.601 3.44898 21.497 3.88998Z" stroke="#00034A" stroke-miterlimit="10"/>
<path d="M22.373 13.196C22.373 12.53 22.913 11.989 23.58 11.989C24.36 11.989 25.728 12.947 25.728 13.758C25.728 14.424 25.188 14.965 24.521 14.965C23.741 14.965 22.373 14.007 22.373 13.196Z" stroke="#00034A" stroke-miterlimit="10"/>
<path d="M21.497 3.88997C22.286 3.72497 23.444 3.50097 23.785 6.90797C24.125 10.315 23.318 10.519 22.919 10.598C22.519 10.675 21.741 10.85 20.631 7.57997C19.521 4.30997 20.709 4.10497 21.497 3.88997Z" fill="#9BFF00" stroke="#00034A" stroke-miterlimit="10"/>
<path d="M23.58 14.403C23.7386 14.403 23.8955 14.3718 24.0419 14.3111C24.1884 14.2505 24.3214 14.1616 24.4335 14.0495C24.5456 13.9374 24.6345 13.8044 24.6952 13.6579C24.7558 13.5115 24.787 13.3545 24.787 13.196C24.787 13.0375 24.7558 12.8806 24.6952 12.7341C24.6345 12.5877 24.5456 12.4546 24.4335 12.3425C24.3214 12.2305 24.1884 12.1415 24.0419 12.0809C23.8955 12.0202 23.7386 11.989 23.58 11.989C23.2599 11.989 22.9529 12.1162 22.7266 12.3425C22.5002 12.5689 22.373 12.8759 22.373 13.196C22.373 13.5161 22.5002 13.8231 22.7266 14.0495C22.9529 14.2758 23.2599 14.403 23.58 14.403Z" fill="#9BFF00" stroke="#00034A" stroke-miterlimit="10"/>
</g>
<defs>
<clipPath id="clip0_2301_15281">
<rect width="40" height="40" fill="white"/>
</clipPath>
</defs>
</svg>
