<svg width="40" height="40" viewBox="0 0 40 40" fill="none" xmlns="http://www.w3.org/2000/svg">
<g clip-path="url(#clip0_2301_13970)">
<path d="M37.7799 11.93C38.0334 11.3526 38.1694 10.7305 38.1799 10.1C39.5799 9.30999 39.5599 8.77999 39.3399 8.09999C39.1199 7.41999 38.8299 6.95999 37.2299 7.09999C36.854 6.59265 36.3816 6.16447 35.8399 5.83999C35.8399 4.22999 35.3899 3.97999 34.6799 3.83999C33.9699 3.69999 33.4399 3.69999 32.7799 5.17999C32.1551 5.25228 31.5505 5.44591 30.9999 5.74999C29.6199 4.92999 29.1699 5.19999 28.6699 5.74999C28.1699 6.29999 27.9399 6.74999 28.8799 8.05999C28.7579 8.35121 28.6609 8.6523 28.5899 8.95999C28.5236 9.26914 28.4868 9.58388 28.4799 9.89999C27.0799 10.69 27.0999 11.21 27.3199 11.9C27.5399 12.59 27.8399 13.04 29.4399 12.9C29.8122 13.407 30.2812 13.8353 30.8199 14.16C30.8199 15.77 31.2699 16.02 31.9799 16.16C32.6899 16.3 33.2199 16.29 33.8799 14.81C34.5044 14.7426 35.1094 14.5523 35.6599 14.25C37.0399 15.06 37.4899 14.79 37.9899 14.25C38.4899 13.71 38.7199 13.24 37.7799 11.93Z" fill="#FFE236" stroke="#231F20" stroke-miterlimit="10"/>
<path d="M30.95 10C30.95 10.6312 31.2007 11.2366 31.647 11.6829C32.0934 12.1292 32.6987 12.38 33.33 12.38C33.9612 12.38 34.5665 12.1292 35.0129 11.6829C35.4592 11.2366 35.7099 10.6312 35.7099 10C35.7099 9.68745 35.6484 9.37796 35.5288 9.08921C35.4092 8.80045 35.2339 8.53808 35.0129 8.31708C34.7919 8.09608 34.5295 7.92077 34.2407 7.80116C33.952 7.68156 33.6425 7.62 33.33 7.62C33.0174 7.62 32.7079 7.68156 32.4192 7.80116C32.1304 7.92077 31.868 8.09608 31.647 8.31708C31.426 8.53808 31.2507 8.80045 31.1311 9.08921C31.0115 9.37796 30.95 9.68745 30.95 10Z" fill="white" stroke="#231F20" stroke-miterlimit="10"/>
<path d="M21.5799 8.26999C20.7147 7.72379 19.7131 7.43265 18.6899 7.42999C18.5264 6.70663 18.2954 6.00021 17.9999 5.31999C17.8052 4.97467 17.5069 4.69931 17.1471 4.53286C16.7873 4.36642 16.3843 4.31732 15.995 4.39251C15.6058 4.4677 15.2501 4.66338 14.9782 4.95186C14.7063 5.24033 14.532 5.607 14.4799 5.99999C14.4249 6.49848 14.4249 7.00151 14.4799 7.49999C13.276 7.58558 12.0776 7.7358 10.8899 7.94999C9.70633 8.17405 8.53484 8.45774 7.3799 8.79999C7.30057 8.30548 7.1733 7.81986 6.9999 7.34999C6.82263 6.9868 6.53071 6.69208 6.16923 6.51134C5.80775 6.3306 5.39682 6.2739 4.9999 6.34999C4.5834 6.39721 4.1962 6.58753 3.9044 6.88845C3.6126 7.18937 3.43428 7.58224 3.3999 7.99999C3.36604 8.73882 3.40624 9.47918 3.5199 10.21C2.56874 10.5714 1.73748 11.1914 1.1199 12C0.569898 13 0.279898 17 0.879898 20.31C1.4799 23.62 3.1799 27.27 4.0499 28C5.3899 29.12 11.3999 29 14.6899 28.35C17.9799 27.7 23.6899 25.77 24.5099 24.25C25.0699 23.25 25.3499 19.25 24.7499 15.94C24.1499 12.63 22.4599 8.99999 21.5799 8.26999Z" fill="#48EEFF" stroke="#231F20" stroke-miterlimit="10"/>
<path d="M20.29 23C21.34 22 21.17 20.43 20.65 17.55C20.13 14.67 19.7 13.11 18.38 12.55C17.65 11.92 14.46 12.31 11.85 12.79C9.23997 13.27 6.10997 14.1 5.65997 15C4.65997 16 4.76997 17.57 5.29997 20.44C5.82997 23.31 6.29997 24.88 7.56997 25.44C8.29997 26.08 11.48 25.68 14.1 25.21C16.72 24.74 19.83 23.89 20.29 23Z" fill="white" stroke="#231F20" stroke-miterlimit="10"/>
<path d="M9.69995 15C9.69995 15 9.85995 16.82 10.35 19.5C10.84 22.18 11.35 23.94 11.35 23.94" stroke="#231F20" stroke-miterlimit="10" stroke-linecap="round"/>
<path d="M16.2499 23C16.2499 23 16.0899 21.18 15.5999 18.5C15.1099 15.82 14.5999 14.06 14.5999 14.06" stroke="#231F20" stroke-miterlimit="10" stroke-linecap="round"/>
<path d="M17.9999 15.91C17.9999 15.91 15.7799 16.07 12.5299 16.67C10.7202 16.9888 8.92793 17.3993 7.15991 17.9" stroke="#231F20" stroke-miterlimit="10" stroke-linecap="round"/>
<path d="M7.92993 22.09C7.92993 22.09 10.1399 21.93 13.3999 21.33C16.6599 20.73 18.7899 20.1 18.7899 20.1" stroke="#231F20" stroke-miterlimit="10" stroke-linecap="round"/>
<path d="M18.3499 9.07999C20.7899 9.30999 20.6699 9.69999 21.1599 10.57" stroke="white" stroke-miterlimit="10" stroke-linecap="round"/>
<path d="M18.0398 28.32C18.0398 31.0782 19.1355 33.7235 21.0859 35.6739C23.0363 37.6243 25.6815 38.72 28.4398 38.72C31.198 38.72 33.8433 37.6243 35.7937 35.6739C37.7441 33.7235 38.8398 31.0782 38.8398 28.32C38.8398 25.5617 37.7441 22.9165 35.7937 20.9661C33.8433 19.0157 31.198 17.92 28.4398 17.92C25.6815 17.92 23.0363 19.0157 21.0859 20.9661C19.1355 22.9165 18.0398 25.5617 18.0398 28.32Z" fill="#FF52A1" stroke="#231F20" stroke-miterlimit="10"/>
<path d="M21.5098 28.32C21.5098 29.2301 21.689 30.1312 22.0373 30.972C22.3855 31.8128 22.896 32.5767 23.5395 33.2202C24.183 33.8638 24.947 34.3742 25.7878 34.7225C26.6286 35.0707 27.5297 35.25 28.4398 35.25C29.3498 35.25 30.251 35.0707 31.0918 34.7225C31.9325 34.3742 32.6965 33.8638 33.34 33.2202C33.9835 32.5767 34.494 31.8128 34.8422 30.972C35.1905 30.1312 35.3698 29.2301 35.3698 28.32C35.3698 26.482 34.6396 24.7194 33.34 23.4198C32.0404 22.1201 30.2777 21.39 28.4398 21.39C26.6018 21.39 24.8391 22.1201 23.5395 23.4198C22.2399 24.7194 21.5098 26.482 21.5098 28.32Z" fill="white" stroke="#231F20" stroke-miterlimit="10"/>
<path d="M29.2598 27.83C29.4298 25.68 29.0198 24.12 28.3598 24.06C27.6998 24 27.0798 24.92 26.9098 27C26.6998 29.61 27.7798 30.12 29.5298 30.27C31.2798 30.42 32.4298 29.97 32.4798 29.27C32.5298 28.57 31.8898 28 29.2598 27.83Z" fill="#FF52A1" stroke="#231F20" stroke-miterlimit="10"/>
<path d="M33.3298 20.83C34.3523 21.1722 35.2089 21.886 35.7298 22.83" stroke="white" stroke-miterlimit="10" stroke-linecap="round"/>
<path d="M10.0398 34.36C10.0398 34.8586 10.2379 35.3368 10.5904 35.6894C10.943 36.0419 11.4212 36.24 11.9198 36.24C12.4184 36.24 12.8966 36.0419 13.2492 35.6894C13.6017 35.3368 13.7998 34.8586 13.7998 34.36C13.7998 33.8614 13.6017 33.3832 13.2492 33.0306C12.8966 32.6781 12.4184 32.48 11.9198 32.48C11.4212 32.48 10.943 32.6781 10.5904 33.0306C10.2379 33.3832 10.0398 33.8614 10.0398 34.36Z" fill="#FFE236" stroke="#231F20" stroke-miterlimit="10" stroke-linecap="round"/>
<path d="M22.4399 2.89999C22.4399 3.33495 22.6127 3.75209 22.9203 4.05965C23.2278 4.36721 23.645 4.53999 24.0799 4.53999C24.5149 4.53999 24.932 4.36721 25.2396 4.05965C25.5472 3.75209 25.7199 3.33495 25.7199 2.89999C25.7199 2.46504 25.5472 2.0479 25.2396 1.74034C24.932 1.43278 24.5149 1.25999 24.0799 1.25999C23.645 1.25999 23.2278 1.43278 22.9203 1.74034C22.6127 2.0479 22.4399 2.46504 22.4399 2.89999Z" fill="#FFE236" stroke="#231F20" stroke-miterlimit="10" stroke-linecap="round"/>
</g>
<defs>
<clipPath id="clip0_2301_13970">
<rect width="40" height="40" fill="white"/>
</clipPath>
</defs>
</svg>
