<svg width="40" height="40" viewBox="0 0 40 40" fill="none" xmlns="http://www.w3.org/2000/svg">
<g clip-path="url(#clip0_2301_15229)">
<path d="M30.3401 4.05602C29.9221 2.62202 30.6881 0.95602 33.4791 0.56802C34.8291 0.38102 35.8261 0.59702 36.5311 0.99502C37.5261 1.55802 38.8611 2.90502 38.6341 4.12502C38.4591 5.06102 37.2771 5.14702 35.3541 5.28502C35.0311 5.30902 34.6861 5.33402 34.3221 5.36502C35.0173 6.67942 35.5914 8.05444 36.0371 9.47302C36.1611 9.78673 36.214 10.1241 36.1919 10.4607C36.1698 10.7973 36.0732 11.1248 35.9091 11.4196C35.745 11.7144 35.5175 11.969 35.2431 12.1652C34.9687 12.3614 34.6541 12.4942 34.3221 12.554C34.009 12.6787 33.6721 12.7324 33.3358 12.7111C32.9994 12.6899 32.672 12.5942 32.3771 12.431C31.9321 12.184 31.2071 11.463 30.9041 11.041C30.7077 10.7673 30.5745 10.4534 30.5141 10.122C30.4037 9.84982 30.3482 9.55849 30.3509 9.26478C30.3535 8.97107 30.4142 8.68077 30.5294 8.4106C30.6447 8.14043 30.8122 7.89571 31.0224 7.69053C31.2326 7.48534 31.4812 7.32374 31.7541 7.21502C31.1929 6.20446 30.7205 5.14758 30.3401 4.05602Z" fill="#00034A" stroke="#00034A" stroke-miterlimit="10"/>
<path d="M33.4791 0.567984C30.6881 0.955984 29.9231 2.62198 30.3391 4.05598C30.7191 5.14798 31.1931 6.20498 31.7541 7.21598C31.4813 7.32471 31.2328 7.48628 31.0227 7.69139C30.8126 7.8965 30.6451 8.14112 30.5299 8.41118C30.4146 8.68123 30.3539 8.9714 30.3512 9.265C30.3485 9.5586 30.4038 9.84984 30.5141 10.122C30.5746 10.4533 30.7079 10.7671 30.9044 11.0407C31.1008 11.3143 31.3556 11.5409 31.6502 11.7041C31.9449 11.8673 32.2721 11.963 32.6082 11.9845C32.9444 12.0059 33.2811 11.9524 33.5941 11.828C33.9266 11.7688 34.2417 11.6364 34.5167 11.4403C34.7916 11.2442 35.0195 10.9894 35.1838 10.6944C35.3481 10.3993 35.4446 10.0714 35.4665 9.73442C35.4883 9.39742 35.4349 9.05978 35.3101 8.74599C34.8645 7.32737 34.2904 5.95234 33.5951 4.63798C36.1241 4.42498 37.7031 4.49298 37.9071 3.39798C38.1101 2.30298 36.9771 0.0839843 33.4791 0.567984Z" fill="#9BFF00" stroke="#00034A" stroke-miterlimit="10"/>
<path d="M23.6531 20.549C24.9711 16.11 28.4981 13.949 34.3131 15.704C36.0001 16.211 38.1831 17.611 38.9031 19.333C39.5321 20.834 38.9301 22.816 38.1791 25.293L38.0431 25.743L37.9031 26.203C36.6501 30.378 35.8171 33.151 31.1051 31.701C30.7469 31.5896 30.3945 31.4604 30.0491 31.314C29.3263 33.7516 28.3924 36.1215 27.2581 38.397C26.4921 39.792 24.8361 39.599 23.6441 39.24C22.1961 38.804 19.7241 37.065 19.8841 35.335C19.7771 34.492 20.8531 29.909 21.8221 26.615L23.6531 20.549Z" fill="#00034A" stroke="#00034A" stroke-miterlimit="10"/>
<path d="M34.312 15.704C28.498 13.95 24.971 16.11 23.653 20.549L21.822 26.614C20.852 29.909 19.777 34.492 19.884 35.335C19.739 36.915 21.241 37.67 22.432 38.029C23.624 38.387 25.282 38.581 26.047 37.186C27.181 34.9105 28.1145 32.5406 28.837 30.103C29.177 30.248 29.525 30.373 29.893 30.49C34.777 31.992 35.494 28.96 36.831 24.53C38.168 20.103 39.244 17.186 34.312 15.704Z" fill="#9BFF00" stroke="#00034A" stroke-miterlimit="10"/>
<path d="M22.355 33.717C22.745 33.908 23.155 34.061 23.575 34.172C23.985 34.308 24.407 34.405 24.835 34.463" stroke="#00034A" stroke-miterlimit="10" stroke-linecap="round"/>
<path d="M35.5141 20.568C35.0509 21.6214 34.6622 22.7061 34.3511 23.814C33.9973 24.9039 33.7219 26.0178 33.5271 27.147" stroke="#00034A" stroke-miterlimit="10" stroke-linecap="round"/>
<path d="M23.799 23.388C23.243 22.686 20.626 20.868 17.787 18.931C20.307 16.083 22.77 13.135 23.13 12.225C23.3234 11.8927 23.4136 11.5104 23.3892 11.1267C23.3648 10.743 23.2269 10.3752 22.993 10.07C22.685 9.66802 21.878 8.84502 21.453 8.60102C19.971 7.76802 11.638 3.89102 10.243 4.08602C9.71769 4.09165 9.21353 4.29367 8.8297 4.65233C8.44587 5.01099 8.21017 5.50032 8.16898 6.02402C8.12507 8.35168 8.27727 10.6789 8.62398 12.981C7.13172 11.9786 5.5448 11.1249 3.88598 10.432C3.4023 10.2736 2.87725 10.2987 2.41087 10.5025C1.94449 10.7063 1.56937 11.0745 1.35698 11.537C1.01998 11.917 0.833984 12.409 0.833984 12.917C0.833984 14.024 1.67798 14.535 2.32598 15.267C2.83598 15.939 5.24998 17.671 7.96098 19.493C5.55598 22.245 3.28598 24.988 2.91698 25.859C2.68766 26.3123 2.63319 26.8342 2.76398 27.325C2.94898 28.024 3.95798 29.072 4.59398 29.492C4.91925 29.8809 5.37515 30.1377 5.87625 30.2145C6.37734 30.2913 6.88923 30.1826 7.31598 29.909C8.4468 29.0179 9.50727 28.041 10.488 26.987C10.763 28.697 11.148 30.387 11.638 32.05C11.813 32.6 12.99 33.85 13.52 34.157C13.956 34.41 14.47 34.491 14.961 34.385C16.289 34.492 23.566 28.281 24.768 27.108C25.0412 26.8367 25.2274 26.4902 25.3029 26.1126C25.3784 25.735 25.3398 25.3436 25.192 24.988C24.922 24.34 24.282 23.868 23.799 23.388Z" fill="#00034A" stroke="#00034A" stroke-miterlimit="10"/>
<path d="M16.6481 18.155C19.2251 15.248 21.7931 12.186 22.1611 11.256C22.2899 11.0355 22.3738 10.7917 22.408 10.5386C22.4422 10.2855 22.4259 10.0282 22.3602 9.78137C22.2945 9.53459 22.1806 9.30324 22.0251 9.10067C21.8696 8.89809 21.6755 8.72828 21.4541 8.60102C19.9711 7.76802 11.6381 3.89102 10.2431 4.08602C9.7178 4.09165 9.21364 4.29367 8.82981 4.65233C8.44598 5.01099 8.21028 5.50032 8.1691 6.02402C8.12518 8.35168 8.27739 10.6789 8.6241 12.981C7.13183 11.9786 5.54491 11.1249 3.8861 10.432C3.40241 10.2736 2.87736 10.2987 2.41098 10.5025C1.9446 10.7063 1.56948 11.0745 1.3571 11.537C1.01975 11.918 0.833496 12.4092 0.833496 12.918C0.833496 13.4269 1.01975 13.9181 1.3571 14.299C1.9381 15.064 4.9911 17.206 8.1401 19.289C5.6691 22.109 3.2951 24.967 2.9171 25.859C2.68807 26.3127 2.63365 26.8346 2.76417 27.3257C2.8947 27.8169 3.20107 28.2429 3.6251 28.523C3.95036 28.9119 4.40627 29.1687 4.90736 29.2455C5.40845 29.3223 5.92034 29.2136 6.3471 28.94C7.76268 27.8249 9.06739 26.5757 10.2431 25.21C10.5113 27.5258 10.9781 29.8142 11.6381 32.05C11.7905 32.5299 12.1161 32.9357 12.5515 33.1885C12.9869 33.4412 13.5009 33.5227 13.9931 33.417C15.3201 33.523 22.5971 27.312 23.7991 26.14C23.9806 25.9598 24.1247 25.7454 24.223 25.5093C24.3213 25.2731 24.372 25.0198 24.372 24.764C24.372 24.5082 24.3213 24.2549 24.223 24.0188C24.1247 23.7826 23.9806 23.5683 23.7991 23.388C23.1691 22.593 19.8941 20.364 16.6481 18.155ZM13.9831 11.421L14.8741 11.828L14.1571 12.613C14.1018 12.2153 14.0438 11.818 13.9831 11.421ZM15.6881 24.182L16.5891 24.734L15.8241 25.374C15.7851 24.986 15.7371 24.589 15.6881 24.182Z" fill="white" stroke="#00034A" stroke-miterlimit="10"/>
<path d="M23.8471 0.935974C23.6409 0.935974 23.4368 0.976583 23.2463 1.05548C23.0558 1.13438 22.8827 1.25003 22.7369 1.39582C22.5912 1.5416 22.4755 1.71468 22.3966 1.90516C22.3177 2.09564 22.2771 2.2998 22.2771 2.50597C22.2771 3.41597 23.1791 4.31797 24.0891 4.31797C24.5055 4.31797 24.9048 4.15256 25.1993 3.85813C25.4937 3.5637 25.6591 3.16436 25.6591 2.74797C25.6591 1.83797 24.7571 0.935974 23.8471 0.935974Z" fill="#00034A" stroke="#00034A" stroke-miterlimit="10"/>
<path d="M23.8471 4.07597C24.0533 4.07597 24.2574 4.03536 24.4479 3.95646C24.6384 3.87756 24.8115 3.76192 24.9573 3.61613C25.103 3.47034 25.2187 3.29727 25.2976 3.10679C25.3765 2.91631 25.4171 2.71215 25.4171 2.50597C25.4171 2.2998 25.3765 2.09564 25.2976 1.90516C25.2187 1.71468 25.103 1.5416 24.9573 1.39582C24.8115 1.25003 24.6384 1.13438 24.4479 1.05548C24.2574 0.976583 24.0533 0.935974 23.8471 0.935974C23.4307 0.935974 23.0314 1.10138 22.7369 1.39582C22.4425 1.69025 22.2771 2.08958 22.2771 2.50597C22.2771 2.92236 22.4425 3.3217 22.7369 3.61613C23.0314 3.91056 23.4307 4.07597 23.8471 4.07597Z" fill="#9BFF00" stroke="#00034A" stroke-miterlimit="10"/>
<path d="M5.39792 32.835C5.08484 32.835 4.77484 32.8967 4.4856 33.0165C4.19636 33.1363 3.93355 33.3119 3.71217 33.5333C3.4908 33.7547 3.31519 34.0175 3.19539 34.3067C3.07558 34.5959 3.01392 34.906 3.01392 35.219C3.01392 36.623 4.47792 38.087 5.88192 38.087C6.51419 38.087 7.12057 37.8359 7.56766 37.3888C8.01475 36.9417 8.26592 36.3353 8.26592 35.703C8.26592 34.299 6.80092 32.835 5.39792 32.835Z" fill="#00034A" stroke="#00034A" stroke-miterlimit="10"/>
<path d="M5.39792 37.602C5.71503 37.6085 6.03026 37.5516 6.32512 37.4348C6.61999 37.3179 6.88857 37.1434 7.11514 36.9214C7.3417 36.6994 7.52169 36.4345 7.64457 36.1421C7.76745 35.8496 7.83074 35.5357 7.83074 35.2185C7.83074 34.9013 7.76745 34.5873 7.64457 34.2949C7.52169 34.0025 7.3417 33.7375 7.11514 33.5156C6.88857 33.2936 6.61999 33.1191 6.32512 33.0022C6.03026 32.8853 5.71503 32.8285 5.39792 32.835C4.77423 32.8477 4.18039 33.1045 3.74383 33.5501C3.30726 33.9957 3.06274 34.5947 3.06274 35.2185C3.06274 35.8423 3.30726 36.4413 3.74383 36.8869C4.18039 37.3325 4.77423 37.5892 5.39792 37.602Z" fill="#9BFF00" stroke="#00034A" stroke-miterlimit="10"/>
</g>
<defs>
<clipPath id="clip0_2301_15229">
<rect width="40" height="40" fill="white"/>
</clipPath>
</defs>
</svg>
