<svg width="40" height="40" viewBox="0 0 40 40" fill="none" xmlns="http://www.w3.org/2000/svg">
<g clip-path="url(#clip0_2301_13908)">
<path d="M25.2901 5.17999C24.8601 3.76999 21.3501 3.31 19.2901 3.18C17.3256 3.12862 15.3765 3.53968 13.6001 4.38C11.982 3.26491 10.1262 2.54245 8.18006 2.27C6.12006 2.11 2.58006 1.99999 1.94006 3.33C1.36006 3.99999 1.00006 7.62 0.770056 10.64C0.540056 13.66 0.300056 17.32 0.770056 18.05C1.19006 19.46 4.25006 18.5 6.86006 18.71C7.98338 18.8323 9.09632 19.0362 10.1901 19.32C10.3501 20.39 11.5701 20.63 12.3001 20.69C13.0301 20.75 14.3001 20.69 14.6001 19.69C15.7265 19.5806 16.8591 19.5472 17.9901 19.59C20.8201 19.81 23.4701 21.22 24.1101 19.9C24.7001 19.26 25.0401 15.61 25.2801 12.59C25.5201 9.57 25.7601 5.90999 25.2901 5.17999Z" fill="#FFE236" stroke="#231F20" stroke-miterlimit="10"/>
<path d="M10.1402 6.54C8.25792 6.16491 6.33791 6.01386 4.42017 6.09" stroke="#231F20" stroke-miterlimit="10" stroke-linecap="round"/>
<path d="M9.8201 10.62C7.93644 10.2552 6.01762 10.1042 4.1001 10.17" stroke="#231F20" stroke-miterlimit="10" stroke-linecap="round"/>
<path d="M9.48001 14.88C7.59747 14.5066 5.67804 14.3522 3.76001 14.42" stroke="#231F20" stroke-miterlimit="10" stroke-linecap="round"/>
<path d="M22.4002 7.51C20.5179 7.13538 18.5979 6.98434 16.6802 7.06" stroke="#231F20" stroke-miterlimit="10" stroke-linecap="round"/>
<path d="M22.0801 11.6C20.1974 11.2276 18.2781 11.0733 16.3601 11.14" stroke="#231F20" stroke-miterlimit="10" stroke-linecap="round"/>
<path d="M21.74 15.85C19.8509 15.4755 17.9247 15.3211 16 15.39" stroke="#231F20" stroke-miterlimit="10" stroke-linecap="round"/>
<path d="M13.61 4.34999L12.7 15.79" stroke="#231F20" stroke-miterlimit="10" stroke-linecap="round"/>
<path d="M22.3601 5C24.0001 5.43 24.0001 5.88 24.0001 6.63" stroke="white" stroke-miterlimit="10" stroke-linecap="round"/>
<path d="M30.8501 20.38C28.2901 19.38 24.7101 18.24 23.0301 18.77C21.8501 18.91 18.4501 20.77 16.1801 22.49C13.9101 24.21 11.8401 26.57 11.9801 27.22C11.9801 27.22 12.1501 28.79 12.3201 30.01C12.4201 31.0313 12.6486 32.0359 13.0001 33C13.1199 33.1721 13.2853 33.3075 13.4778 33.391C13.6702 33.4745 13.8821 33.5028 14.0897 33.4727C14.2973 33.4426 14.4924 33.3553 14.6532 33.2206C14.814 33.0859 14.9341 32.9091 15.0001 32.71C15.0669 31.6819 14.9962 30.6494 14.7901 29.64C14.7901 29.48 14.6201 29.56 16.6001 30.36C17.0601 33.09 17.4901 34.89 18.0301 35.68C19.0301 38.21 23.3701 37.93 25.8601 37.57C28.3501 37.21 32.5801 36.27 32.8601 33.57C33.1501 32.66 33.0601 30.81 32.7401 28.05C34.7401 26.4 36.4001 24.44 36.2701 23.86C36.5901 22.82 33.4001 21.37 30.8501 20.38Z" fill="#FF52A1" stroke="#231F20" stroke-miterlimit="10"/>
<path d="M19.7102 31C21.7702 31.65 23.9102 32.12 25.1002 31.75C26.7929 31.2428 28.3957 30.4735 29.8502 29.47" stroke="#231F20" stroke-miterlimit="10" stroke-linecap="round"/>
<path d="M22.0083 25.4199C22.0301 25.572 22.1042 25.7151 22.2264 25.8409C22.3485 25.9668 22.5163 26.073 22.7202 26.1535C22.924 26.234 23.16 26.2872 23.4145 26.3101C23.6691 26.3329 23.9373 26.325 24.2037 26.2867C24.4702 26.2485 24.7298 26.1806 24.9676 26.0871C25.2055 25.9935 25.4169 25.8761 25.5899 25.7415C25.7629 25.6069 25.894 25.4578 25.9758 25.3026C26.0576 25.1475 26.0885 24.9894 26.0667 24.8373C26.0448 24.6852 25.9707 24.5421 25.8486 24.4162C25.7264 24.2904 25.5586 24.1842 25.3547 24.1037C25.1509 24.0232 24.9149 23.97 24.6604 23.9471C24.4058 23.9243 24.1377 23.9322 23.8712 23.9705C23.6047 24.0087 23.3451 24.0766 23.1073 24.1701C22.8695 24.2637 22.658 24.3811 22.485 24.5157C22.312 24.6503 22.1809 24.7994 22.0991 24.9546C22.0173 25.1097 21.9864 25.2678 22.0083 25.4199Z" fill="white" stroke="#231F20" stroke-miterlimit="10"/>
<path d="M24.8101 20.47C25.8881 20.5284 26.9474 20.7755 27.9401 21.2" stroke="white" stroke-miterlimit="10" stroke-linecap="round"/>
<path d="M32.5302 3.32999C33.4702 3.58999 34.8602 3.99999 33.3002 7.81999C31.7402 11.64 30.8002 11.41 30.3002 11.28C29.8002 11.15 28.8902 10.9 29.5302 6.78999C30.1702 2.67999 31.5902 3.06999 32.5302 3.32999Z" fill="#48EEFF" stroke="#231F20" stroke-miterlimit="10"/>
<path d="M28.0701 13.98C28.0701 14.3672 28.2239 14.7386 28.4977 15.0124C28.7715 15.2862 29.1429 15.44 29.5301 15.44C29.9173 15.44 30.2886 15.2862 30.5624 15.0124C30.8362 14.7386 30.9901 14.3672 30.9901 13.98C30.9901 13.5928 30.8362 13.2214 30.5624 12.9476C30.2886 12.6738 29.9173 12.52 29.5301 12.52C29.1429 12.52 28.7715 12.6738 28.4977 12.9476C28.2239 13.2214 28.0701 13.5928 28.0701 13.98Z" fill="#48EEFF" stroke="#231F20" stroke-miterlimit="10"/>
<path d="M38.7301 8.72999C39.3701 9.15999 40.3101 9.81999 38.1901 12.3C36.0701 14.78 35.4201 14.38 35.1001 14.16C34.7801 13.94 34.1001 13.52 35.6401 10.6C37.1801 7.67999 38.0901 8.30999 38.7301 8.72999Z" fill="#48EEFF" stroke="#231F20" stroke-miterlimit="10"/>
<path d="M32.6201 16.34C32.6201 16.491 32.6499 16.6405 32.7077 16.7801C32.7654 16.9196 32.8502 17.0464 32.9569 17.1532C33.0637 17.2599 33.1905 17.3447 33.33 17.4024C33.4696 17.4602 33.6191 17.49 33.7701 17.49C33.9211 17.49 34.0707 17.4602 34.2102 17.4024C34.3497 17.3447 34.4765 17.2599 34.5833 17.1532C34.6901 17.0464 34.7748 16.9196 34.8326 16.7801C34.8904 16.6405 34.9201 16.491 34.9201 16.34C34.9201 16.189 34.8904 16.0394 34.8326 15.8999C34.7748 15.7604 34.6901 15.6336 34.5833 15.5268C34.4765 15.42 34.3497 15.3353 34.2102 15.2775C34.0707 15.2197 33.9211 15.19 33.7701 15.19C33.6191 15.19 33.4696 15.2197 33.33 15.2775C33.1905 15.3353 33.0637 15.42 32.9569 15.5268C32.8502 15.6336 32.7654 15.7604 32.7077 15.8999C32.6499 16.0394 32.6201 16.189 32.6201 16.34Z" fill="#48EEFF" stroke="#231F20" stroke-miterlimit="10"/>
</g>
<defs>
<clipPath id="clip0_2301_13908">
<rect width="40" height="40" fill="white"/>
</clipPath>
</defs>
</svg>
