<svg width="40" height="40" viewBox="0 0 40 40" fill="none" xmlns="http://www.w3.org/2000/svg">
<g clip-path="url(#clip0_2301_15197)">
<path d="M10.1459 19.361C10.7179 20.166 11.8739 20.771 12.8399 20.851C13.5499 20.909 14.7859 20.851 15.0779 19.878C16.1738 19.7716 17.2756 19.7392 18.3759 19.781C19.3459 19.856 20.2939 20.075 21.1419 20.271C22.7029 20.631 23.9269 20.914 24.3309 20.082C24.9039 19.459 25.2349 15.908 25.4689 12.97C25.7019 10.032 25.9359 6.47101 25.4789 5.76101C24.7909 3.50701 20.5839 3.22101 18.7809 3.10701C16.8696 3.05685 14.9733 3.45659 13.2449 4.27401C11.6707 3.18908 9.86527 2.48614 7.97191 2.22101C5.96791 2.06601 2.52391 1.96001 1.89991 3.25301C1.33591 3.90501 0.984907 7.42601 0.761907 10.365C0.537907 13.303 0.303907 16.864 0.761907 17.574C1.21791 19.106 3.68391 19.061 4.90591 18.977C5.75691 18.917 6.67791 18.855 7.54691 18.924C8.42053 19.02 9.28895 19.1659 10.1459 19.361Z" fill="#00034A" stroke="#00034A" stroke-miterlimit="10"/>
<path d="M24.6179 5.05301C24.1999 3.68101 20.7849 3.23301 18.7809 3.10701C16.8696 3.05685 14.9733 3.45659 13.2449 4.27401C11.6707 3.18908 9.86527 2.48614 7.97191 2.22101C5.96791 2.06601 2.52391 1.96001 1.89991 3.25301C1.33591 3.90501 0.984907 7.42601 0.761907 10.365C0.537907 13.303 0.303907 16.864 0.761907 17.574C1.16991 18.946 4.14691 18.012 6.68691 18.216C7.77991 18.335 8.86191 18.533 9.92691 18.809C10.0819 19.85 11.2689 20.084 11.9789 20.142C12.6889 20.201 13.9249 20.142 14.2169 19.169C15.3128 19.0626 16.4146 19.0302 17.5149 19.072C20.2679 19.286 22.8469 20.658 23.4689 19.374C24.0429 18.751 24.3739 15.2 24.6079 12.262C24.8409 9.32401 25.0739 5.76301 24.6179 5.05301Z" fill="white" stroke="#00034A" stroke-miterlimit="10"/>
<path d="M9.87896 6.37597C8.04773 6.01098 6.17975 5.86396 4.31396 5.93797" stroke="#00034A" stroke-miterlimit="10" stroke-linecap="round"/>
<path d="M9.56695 10.345C7.73435 9.99003 5.86753 9.8431 4.00195 9.90699" stroke="#00034A" stroke-miterlimit="10" stroke-linecap="round"/>
<path d="M9.23712 14.49C7.40561 14.1265 5.53819 13.9762 3.67212 14.042" stroke="#00034A" stroke-miterlimit="10" stroke-linecap="round"/>
<path d="M21.8069 7.31999C19.9756 6.95547 18.1077 6.80845 16.2419 6.88199" stroke="#00034A" stroke-miterlimit="10" stroke-linecap="round"/>
<path d="M21.4949 11.299C19.6633 10.9366 17.796 10.7862 15.9299 10.851" stroke="#00034A" stroke-miterlimit="10" stroke-linecap="round"/>
<path d="M21.1651 15.433C19.3269 15.0687 17.4528 14.9187 15.5801 14.986" stroke="#00034A" stroke-miterlimit="10" stroke-linecap="round"/>
<path d="M13.2549 4.245L12.3689 15.375" stroke="#00034A" stroke-miterlimit="10" stroke-linecap="round"/>
<path d="M22.4201 18.274C24.0541 17.759 27.5371 18.868 30.0281 19.841C30.9381 20.195 36.8331 22.297 36.3281 23.936C36.4551 24.501 34.8401 26.408 32.8941 28.013C33.2061 30.698 33.2931 32.498 33.0111 33.383C32.7381 36.01 28.6231 36.925 26.2011 37.275C23.5921 37.652 18.7791 37.822 17.5551 34.726C17.0501 33.986 16.6431 32.338 16.2151 29.85C15.5731 29.567 15.4501 29.478 15.4301 29.496C15.4231 29.504 15.4301 29.526 15.4301 29.56C15.6311 30.542 15.7001 31.547 15.6351 32.547C15.5869 32.6917 15.5092 32.8249 15.4068 32.938C15.3044 33.0511 15.1796 33.1416 15.0403 33.2039C14.901 33.2661 14.7503 33.2987 14.5977 33.2996C14.4452 33.3005 14.2941 33.2696 14.1541 33.209C13.7831 33.049 12.8591 32.403 12.6611 32.119C12.3193 31.1806 12.0972 30.2029 12.0001 29.209C11.8341 28.023 11.6691 26.495 11.6691 26.495C11.5331 25.863 13.5471 23.567 15.7551 21.893C17.9641 20.22 21.2721 18.41 22.4201 18.274Z" fill="#00034A" stroke="#00034A" stroke-miterlimit="10"/>
<path d="M30.0281 19.84C27.5371 18.868 24.0541 17.759 22.4201 18.274C21.2711 18.41 17.9641 20.22 15.7551 21.894C13.5471 23.567 11.5331 25.863 11.6691 26.495C11.6691 26.495 11.8341 28.023 11.9991 29.21C12.0971 30.203 12.3191 31.18 12.6611 32.119C12.7778 32.2863 12.9388 32.4179 13.126 32.499C13.3131 32.5802 13.5192 32.6076 13.7211 32.5784C13.923 32.5491 14.1128 32.4643 14.2693 32.3333C14.4257 32.2024 14.5427 32.0306 14.6071 31.837C14.6719 30.8367 14.6033 29.8322 14.4031 28.85C14.4031 28.694 14.2371 28.772 16.1631 29.55C16.6111 32.206 17.0301 33.958 17.5551 34.726C18.5281 37.188 22.7501 36.916 25.1731 36.565C27.5951 36.215 31.7111 35.3 31.9831 32.673C32.2651 31.788 32.1781 29.988 31.8661 27.303C33.8121 25.698 35.4271 23.791 35.3011 23.226C35.6121 22.215 32.5081 20.803 30.0281 19.84Z" fill="#9BFF00" stroke="#00034A" stroke-miterlimit="10"/>
<path d="M19.1899 30.173C21.1939 30.805 23.2759 31.263 24.4329 30.903C26.0801 30.4094 27.6397 29.6607 29.0549 28.684" stroke="#00034A" stroke-miterlimit="10" stroke-linecap="round"/>
<path d="M23.5609 25.587C24.6509 25.431 25.4629 24.799 25.3739 24.177C25.2839 23.555 24.3279 23.177 23.2379 23.334C22.1479 23.49 21.3359 24.122 21.4249 24.744C21.5149 25.366 22.4709 25.744 23.5609 25.587Z" fill="white" stroke="#00034A" stroke-miterlimit="10"/>
<path d="M31.662 3.25299C30.748 2.99999 29.366 2.61999 28.743 6.61899C28.487 8.26899 28.071 10.848 30.143 11.386C30.629 11.513 31.543 11.736 33.062 8.01999C33.931 5.89099 34.076 3.91999 31.662 3.25299Z" fill="#00034A"/>
<path d="M27.323 13.614C27.323 12.83 27.959 12.194 28.743 12.194C29.63 12.194 30.814 13.1 30.814 14.013C30.814 14.3896 30.6644 14.7508 30.3981 15.0171C30.1318 15.2834 29.7706 15.433 29.394 15.433C28.507 15.433 27.323 14.528 27.323 13.614Z" fill="#00034A"/>
<path d="M31.662 3.25299C30.748 2.99999 29.366 2.61999 28.743 6.61899C28.487 8.26899 28.071 10.848 30.143 11.386C30.629 11.513 31.543 11.736 33.062 8.01999C33.931 5.89099 34.076 3.91999 31.662 3.25299Z" stroke="#00034A" stroke-miterlimit="10"/>
<path d="M27.323 13.614C27.323 12.83 27.959 12.194 28.743 12.194C29.63 12.194 30.814 13.1 30.814 14.013C30.814 14.3896 30.6644 14.7508 30.3981 15.0171C30.1318 15.2834 29.7706 15.433 29.394 15.433C28.507 15.433 27.323 14.528 27.323 13.614Z" stroke="#00034A" stroke-miterlimit="10"/>
<path d="M31.6619 3.253C32.5769 3.506 33.9289 3.905 32.4119 7.621C30.8939 11.337 29.9789 11.114 29.4919 10.987C29.0059 10.861 28.1209 10.617 28.7429 6.619C29.3659 2.62 30.7469 2.999 31.6619 3.253Z" fill="#9BFF00" stroke="#00034A" stroke-miterlimit="10"/>
<path d="M28.743 15.034C29.1196 15.034 29.4808 14.8844 29.7471 14.6181C30.0134 14.3518 30.163 13.9906 30.163 13.614C30.163 13.2374 30.0134 12.8762 29.7471 12.6099C29.4808 12.3436 29.1196 12.194 28.743 12.194C28.3664 12.194 28.0052 12.3436 27.7389 12.6099C27.4726 12.8762 27.323 13.2374 27.323 13.614C27.323 13.9906 27.4726 14.3518 27.7389 14.6181C28.0052 14.8844 28.3664 15.034 28.743 15.034Z" fill="#9BFF00" stroke="#00034A" stroke-miterlimit="10"/>
<path d="M37.694 8.50599L37.679 8.49599C37.057 8.08799 36.174 7.50799 34.688 10.326C33.927 11.768 33.205 13.314 34.728 14.358L34.739 14.366C35.051 14.58 35.683 14.969 37.746 12.556C39.077 10.999 39.408 9.65799 37.694 8.50599Z" fill="#00034A"/>
<path d="M31.75 15.91C31.75 15.292 32.25 14.791 32.868 14.791C33.566 14.791 34.564 15.79 34.564 16.487C34.564 17.105 34.064 17.606 33.445 17.606C32.748 17.606 31.75 16.607 31.75 15.91Z" fill="#00034A"/>
<path d="M37.694 8.50599L37.679 8.49599C37.057 8.08799 36.174 7.50799 34.688 10.326C33.927 11.768 33.205 13.314 34.728 14.358L34.739 14.366C35.051 14.58 35.683 14.969 37.746 12.556C39.077 10.999 39.408 9.65799 37.694 8.50599Z" stroke="#00034A" stroke-miterlimit="10"/>
<path d="M31.75 15.91C31.75 15.292 32.25 14.791 32.868 14.791C33.566 14.791 34.564 15.79 34.564 16.487C34.564 17.105 34.064 17.606 33.445 17.606C32.748 17.606 31.75 16.607 31.75 15.91Z" stroke="#00034A" stroke-miterlimit="10"/>
<path d="M37.694 8.50597C38.317 8.92497 39.231 9.56597 37.169 11.98C35.106 14.392 34.474 14.003 34.162 13.79C33.852 13.575 33.19 13.167 34.688 10.326C36.186 7.48497 37.071 8.09797 37.694 8.50597Z" fill="#9BFF00" stroke="#00034A" stroke-miterlimit="10"/>
<path d="M32.868 17.029C33.1648 17.029 33.4494 16.9111 33.6593 16.7013C33.8691 16.4914 33.987 16.2068 33.987 15.91C33.987 15.6132 33.8691 15.3286 33.6593 15.1188C33.4494 14.9089 33.1648 14.791 32.868 14.791C32.5712 14.791 32.2866 14.9089 32.0768 15.1188C31.8669 15.3286 31.749 15.6132 31.749 15.91C31.749 16.2068 31.8669 16.4914 32.0768 16.7013C32.2866 16.9111 32.5712 17.029 32.868 17.029Z" fill="#9BFF00" stroke="#00034A" stroke-miterlimit="10"/>
</g>
<defs>
<clipPath id="clip0_2301_15197">
<rect width="40" height="40" fill="white"/>
</clipPath>
</defs>
</svg>
