<svg width="40" height="40" viewBox="0 0 40 40" fill="none" xmlns="http://www.w3.org/2000/svg">
<g clip-path="url(#clip0_2301_15137)">
<path d="M11.2349 4.08083C14.599 3.67023 20.4014 3.20193 21.4627 4.62593C21.8174 4.87303 22.3964 5.47093 22.6574 5.82163C23.632 6.49923 24.2349 10.6675 24.6554 14.1272C25.0759 17.5879 25.5064 21.7741 24.7311 22.663C24.0535 24.336 18.2989 25.2438 14.9338 25.6643C11.5687 26.0848 5.76634 26.5821 4.70604 25.1292C4.35534 24.8901 3.76444 24.2822 3.51134 23.9345C2.54574 23.2748 1.93394 19.0976 1.51334 15.6279C1.09284 12.1582 0.662441 7.98103 1.43664 7.08223C2.11624 5.41013 7.86984 4.49143 11.2349 4.08083Z" fill="#00034A" stroke="#00034A" stroke-miterlimit="10"/>
<path d="M21.4628 4.62593C20.4015 3.20093 14.5991 3.67023 11.235 4.08083C7.86988 4.49233 2.11528 5.41013 1.43668 7.08223C0.662384 7.98103 1.09288 12.1582 1.51338 15.6279C1.93388 19.0976 2.54578 23.2748 3.51138 23.9344C4.57258 25.3873 10.375 24.8911 13.7391 24.4695C17.1042 24.049 22.8578 23.1413 23.5364 21.4682C24.3107 20.5793 23.8812 16.3932 23.4607 12.9324C23.0402 9.47273 22.4373 5.30453 21.4628 4.62593Z" fill="#9BFF00" stroke="#00034A" stroke-miterlimit="10"/>
<path d="M19.4459 11.8044C18.7285 11.078 14.5991 11.5952 12.2006 11.8911C9.80112 12.1871 5.67172 12.6743 5.14562 13.5542C4.57262 14.0325 4.77292 16.1729 4.98322 17.9506C5.19342 19.7283 5.52822 21.8508 6.19792 22.1757C6.92432 22.8931 11.0437 22.377 13.4522 22.08C15.8616 21.7841 19.981 21.3626 20.5072 20.4079C21.0801 19.9296 20.8798 17.7882 20.6596 16.0105C20.4404 14.2328 20.1146 12.1572 19.4459 11.8044Z" fill="white" stroke="#00034A" stroke-miterlimit="10"/>
<path d="M20.5451 8.6496C20.5451 8.6496 17.6773 8.8698 11.9426 9.6062C6.20691 10.3426 3.33911 10.802 3.33911 10.802" stroke="#00034A" stroke-miterlimit="10" stroke-linecap="round"/>
<path d="M18.327 16.4599C18.327 16.4599 16.4835 16.5646 12.8215 17.014C9.16036 17.4634 7.35376 17.8072 7.35376 17.8072" stroke="#00034A" stroke-miterlimit="10" stroke-linecap="round"/>
<path d="M9.49512 14.6434L9.82992 17.3867" stroke="#00034A" stroke-miterlimit="10" stroke-linecap="round"/>
<path d="M15.8138 16.6513L15.479 13.908" stroke="#00034A" stroke-miterlimit="10" stroke-linecap="round"/>
<path d="M11.3308 17.1963L11.6646 19.9396" stroke="#00034A" stroke-miterlimit="10" stroke-linecap="round"/>
<path d="M4.85962 10.4383L6.04442 7.11108" stroke="#00034A" stroke-miterlimit="10" stroke-linecap="round"/>
<path d="M8.77759 9.96003L9.95339 6.63373" stroke="#00034A" stroke-miterlimit="10" stroke-linecap="round"/>
<path d="M12.6968 9.47271L13.8727 6.14551" stroke="#00034A" stroke-miterlimit="10" stroke-linecap="round"/>
<path d="M16.616 8.99441L17.7919 5.66821" stroke="#00034A" stroke-miterlimit="10" stroke-linecap="round"/>
<path d="M28.5387 11.2105C27.2443 11.0102 26.1143 11.371 26.0136 12.0177C25.8442 13.1118 27.897 13.914 28.6523 14.0305C29.9457 14.2318 31.0767 13.8711 31.1764 13.2234C31.3458 12.1303 29.293 11.3281 28.5387 11.2105Z" fill="#00034A" stroke="#00034A" stroke-miterlimit="10"/>
<path d="M28.1163 6.13848C26.8209 6.32978 25.8493 7.00938 25.945 7.65708C26.1214 8.84788 28.0505 9.09198 28.9424 8.96048C30.2378 8.76918 31.2093 8.08858 31.1137 7.44088C30.9373 6.25008 29.0081 6.00598 28.1163 6.13748V6.13848Z" fill="#00034A" stroke="#00034A" stroke-miterlimit="10"/>
<path d="M25.7795 1.57671C24.6983 2.31411 24.1213 3.35141 24.49 3.89251C25.2125 4.95071 26.5697 4.71161 27.594 4.01201C28.6752 3.27371 29.2522 2.23631 28.8835 1.69621C28.161 0.638006 26.8038 0.876206 25.7795 1.57671Z" fill="#00034A" stroke="#00034A" stroke-miterlimit="10"/>
<path d="M30.699 12.7451C30.7987 12.0994 29.8321 11.4118 28.5387 11.2105C27.2443 11.0102 26.1143 11.371 26.0136 12.0177C25.914 12.6654 26.8806 13.3529 28.174 13.5532C29.4684 13.7545 30.5984 13.3928 30.699 12.7461V12.7451Z" fill="#9BFF00" stroke="#00034A" stroke-miterlimit="10"/>
<path d="M28.4641 8.48219C29.7595 8.29089 30.731 7.61029 30.6354 6.96259C30.5397 6.31489 29.4117 5.94619 28.1173 6.13749C26.8219 6.32979 25.8493 7.00939 25.945 7.65709C26.0407 8.30479 27.1687 8.67349 28.4641 8.48219Z" fill="#9BFF00" stroke="#00034A" stroke-miterlimit="10"/>
<path d="M27.1167 3.53368C28.1979 2.79628 28.7749 1.75898 28.4052 1.21788C28.0365 0.677779 26.8606 0.838279 25.7795 1.57668C24.6983 2.31398 24.1213 3.35138 24.49 3.89248C24.8587 4.43248 26.0346 4.27208 27.1167 3.53368Z" fill="#9BFF00" stroke="#00034A" stroke-miterlimit="10"/>
<path d="M30.444 23.511C31.2435 22.8108 32.1165 22.1993 33.0478 21.6874C34.5156 20.9301 36.6451 23.4203 37.6077 24.5563C38.353 25.4351 39.5099 27.0415 38.7357 28.0927C38.3301 28.8849 35.0039 31.694 29.4097 36.4212L29.1765 36.6185C23.9909 41.0687 18.5751 39.0559 14.5902 34.3824C10.8814 30.0328 10.8236 25.0914 15.6604 20.9998C20.4176 16.9771 25.2016 17.7235 28.8587 21.8588C29.334 22.2753 29.7954 22.7457 30.2378 23.2658C30.3075 23.3465 30.3762 23.4282 30.444 23.511Z" fill="#00034A" stroke="#00034A" stroke-miterlimit="10"/>
<path d="M33.0478 21.6884C32.0355 22.2446 31.0924 22.9183 30.2378 23.6953C29.8816 23.1239 29.4818 22.5809 29.042 22.0711C25.3631 17.7504 20.4973 16.9093 15.6604 20.9999C10.8236 25.0914 10.8814 30.0329 14.5902 34.3824C18.2991 38.731 23.2027 39.5242 27.9818 35.4238C33.7165 30.5779 37.1294 27.7011 37.5399 26.898C38.3152 25.8467 37.1583 24.2404 36.4129 23.3605C35.6666 22.4816 34.2137 21.0865 33.0478 21.6884Z" fill="white" stroke="#00034A" stroke-miterlimit="10"/>
<path d="M21.8355 30.5879C23.6604 30.588 24.801 28.6125 23.8886 27.0321C23.4651 26.2985 22.6826 25.8466 21.8355 25.8467C20.0107 25.8468 18.8701 27.8223 19.7826 29.4027C20.2061 30.1361 20.9887 30.5878 21.8355 30.5879Z" fill="#9BFF00" stroke="#00034A" stroke-miterlimit="10"/>
<path d="M15.9284 28.9248C16.8412 28.9248 17.4117 27.9366 16.9553 27.1461C16.7435 26.7792 16.352 26.5532 15.9284 26.5532C15.0155 26.5532 14.445 27.5413 14.9014 28.3319C15.1133 28.6988 15.5047 28.9248 15.9284 28.9248Z" fill="#9BFF00" stroke="#00034A" stroke-miterlimit="10"/>
<path d="M27.7326 29.8704C28.645 29.8969 29.244 28.9257 28.8107 28.1223C28.5979 27.7277 28.1807 27.4868 27.7326 27.4998C26.8197 27.4998 26.2492 28.488 26.7056 29.2785C26.9174 29.6454 27.3089 29.8714 27.7326 29.8714V29.8704Z" fill="#9BFF00" stroke="#00034A" stroke-miterlimit="10"/>
<path d="M21.3572 35.3002C22.2701 35.3002 22.8406 34.312 22.3842 33.5215C22.1724 33.1546 21.7809 32.9286 21.3572 32.9286C20.4444 32.9286 19.8739 33.9168 20.3303 34.7073C20.5421 35.0742 20.9336 35.3002 21.3572 35.3002Z" fill="#9BFF00" stroke="#00034A" stroke-miterlimit="10"/>
<path d="M22.3037 23.495C23.2161 23.5215 23.8151 22.5503 23.3818 21.7469C23.169 21.3523 22.7518 21.1114 22.3037 21.1244C21.3912 21.1509 20.8497 22.1552 21.3288 22.9322C21.5383 23.2719 21.9047 23.4834 22.3037 23.495Z" fill="#9BFF00" stroke="#00034A" stroke-miterlimit="10"/>
<path d="M30.2378 23.6963C30.7105 24.5697 31.0335 25.5162 31.1934 26.4964" stroke="#00034A" stroke-miterlimit="10" stroke-linecap="round"/>
<path d="M32.2068 24.5652L33.4115 23.5428" stroke="#00034A" stroke-miterlimit="10" stroke-linecap="round"/>
<path d="M34.7676 27.5766L35.9734 26.5442" stroke="#00034A" stroke-miterlimit="10" stroke-linecap="round"/>
<path d="M32.8086 24.059L35.3705 27.0604" stroke="#00034A" stroke-miterlimit="10" stroke-linecap="round"/>
</g>
<defs>
<clipPath id="clip0_2301_15137">
<rect width="40" height="40" fill="white"/>
</clipPath>
</defs>
</svg>
