<svg width="40" height="40" viewBox="0 0 40 40" fill="none" xmlns="http://www.w3.org/2000/svg">
<g clip-path="url(#clip0_2301_13818)">
<path d="M24.06 15C23.79 13.66 23.42 12.13 21.53 12.16C20.9062 12.1215 20.2801 12.1416 19.66 12.22C19.66 12.0933 19.68 11.9533 19.72 11.8C20.02 9.12999 17.72 6.12999 13.97 8.62999C12.8853 9.43958 11.9454 10.4268 11.19 11.55C10.0547 10.8003 8.80017 10.2491 7.48004 9.91999C3.06004 9.07999 2.11004 12.75 3.48004 15.09C3.55004 15.22 3.63004 15.34 3.70004 15.45C3.0946 15.615 2.50807 15.8429 1.95004 16.13C0.160041 16.85 0.420041 18.39 0.700041 19.74C0.980041 21.09 1.21004 22 3.00004 22C3.12004 23.1 3.31004 24.23 3.52004 25.25C4.12004 28.25 5.04004 31.25 6.73004 31.69C7.64004 32.3 11.87 32.24 15.24 31.55C18.61 30.86 22.52 29.26 23.13 28.34C24.5 27.26 24.13 24.11 23.55 21.16C23.34 20.16 23.07 19.02 22.75 17.97C24.46 17.22 24.33 16.29 24.06 15Z" fill="#48EEFF" stroke="#231F20" stroke-miterlimit="10"/>
<path d="M16.4401 28.69C16.4401 27.78 15.8301 24.24 15.0901 20.27" stroke="#231F20" stroke-miterlimit="10" stroke-linecap="round"/>
<path d="M11 21.1C11.89 25.04 12.75 28.52 13.07 29.37" stroke="#231F20" stroke-miterlimit="10" stroke-linecap="round"/>
<path d="M18.8701 19.33C18.8701 19.33 15.9801 20.09 13.0601 20.69C10.1401 21.29 7.19006 21.69 7.19006 21.69" stroke="#231F20" stroke-miterlimit="10" stroke-linecap="round"/>
<path d="M7.52002 14.84C7.52002 14.84 9.58002 14.3 11.67 13.84C13.76 13.38 15.87 13.11 15.87 13.11" stroke="#231F20" stroke-miterlimit="10" stroke-linecap="round"/>
<path d="M15.8301 9.48999C16.0396 9.38375 16.2717 9.32965 16.5067 9.33229C16.7416 9.33493 16.9724 9.39423 17.1795 9.50515C17.3867 9.61607 17.5639 9.77533 17.6964 9.96942C17.8288 10.1635 17.9124 10.3867 17.9401 10.62" stroke="white" stroke-miterlimit="10" stroke-linecap="round"/>
<path d="M35.43 39.27C35.5184 39.3374 35.6207 39.3844 35.7295 39.4074C35.8383 39.4304 35.9509 39.4289 36.0591 39.4031C36.1672 39.3772 36.2683 39.3276 36.3549 39.2579C36.4416 39.1882 36.5116 39.1001 36.56 39C37.41 37 38.27 32 38.81 27.88C39.35 23.76 39.7 19.51 39.38 17.53C39.3618 17.4211 39.3198 17.3175 39.257 17.2267C39.1942 17.1359 39.112 17.06 39.0165 17.0046C38.921 16.9492 38.8144 16.9156 38.7044 16.9062C38.5943 16.8967 38.4836 16.9117 38.38 16.95L36.73 17.58C36.6135 17.6254 36.4876 17.6409 36.3636 17.6252C36.2396 17.6094 36.1215 17.563 36.02 17.49L34.25 16.22C34.1485 16.147 34.0304 16.1006 33.9064 16.0849C33.7824 16.0691 33.6565 16.0847 33.54 16.13L31.54 16.9C31.4231 16.9428 31.2976 16.9569 31.1741 16.9412C31.0505 16.9256 30.9326 16.8806 30.83 16.81L29 15.49C28.8974 15.4194 28.7795 15.3744 28.6559 15.3588C28.5324 15.3431 28.4069 15.3572 28.29 15.4L26.29 16.18C26.1744 16.224 26.0495 16.2379 25.9271 16.2204C25.8046 16.2029 25.6887 16.1546 25.59 16.08L24.15 15.08C24.0611 15.0133 23.9583 14.9674 23.8493 14.9458C23.7403 14.9243 23.6278 14.9275 23.5202 14.9554C23.4126 14.9832 23.3126 15.035 23.2278 15.1068C23.1429 15.1785 23.0753 15.2685 23.03 15.37C22.21 17.2 21.45 21.44 20.92 25.52C20.39 29.6 19.92 34.66 20.22 36.85C20.2369 36.9598 20.278 37.0645 20.3402 37.1565C20.4025 37.2485 20.4845 37.3255 20.5802 37.382C20.6759 37.4384 20.7829 37.4729 20.8936 37.483C21.0042 37.493 21.1157 37.4783 21.22 37.44L22.86 36.82C22.9748 36.7746 23.0992 36.759 23.2216 36.7748C23.344 36.7905 23.4604 36.837 23.56 36.91L25.33 38.18C25.4306 38.2546 25.5483 38.3029 25.6723 38.3203C25.7963 38.3378 25.9227 38.3239 26.04 38.28L28.04 37.5C28.1556 37.456 28.2805 37.4421 28.4029 37.4596C28.5254 37.4771 28.6413 37.5254 28.74 37.6L30.51 38.87C30.6126 38.9406 30.7305 38.9856 30.8541 39.0012C30.9776 39.0169 31.1031 39.0028 31.22 38.96L33.22 38.19C33.3348 38.1446 33.4592 38.129 33.5816 38.1448C33.704 38.1605 33.8204 38.207 33.92 38.28L35.43 39.27Z" fill="#FFE236" stroke="#231F20" stroke-miterlimit="10"/>
<path d="M37.63 19.47C37.6355 20.3889 37.5854 21.3072 37.48 22.22" stroke="white" stroke-miterlimit="10" stroke-linecap="round"/>
<path d="M33.72 28.17C33.8315 27.6059 33.7427 27.0205 33.4689 26.5149C33.1951 26.0092 32.7534 25.6149 32.22 25.4C32.412 25.4266 32.6074 25.4148 32.7947 25.3651C32.982 25.3155 33.1576 25.229 33.3112 25.1108C33.4648 24.9926 33.5933 24.845 33.6892 24.6766C33.7852 24.5082 33.8466 24.3224 33.87 24.13C34 23.13 32.87 22.51 31.87 22.13C31.9018 21.796 31.8849 21.4592 31.82 21.13C31.76 20.68 31.16 20.39 30.69 20.33C30.22 20.27 29.57 20.4 29.39 20.81C29.2397 21.1269 29.1353 21.4636 29.08 21.81C28.2767 21.8711 27.5225 22.2206 26.9565 22.7939C26.3905 23.3673 26.0508 24.1259 26 24.93C25.8882 25.4928 25.9783 26.0769 26.2545 26.5799C26.5306 27.0828 26.9752 27.4723 27.51 27.68C27.3109 27.6491 27.1076 27.6592 26.9125 27.7097C26.7174 27.7602 26.5346 27.8499 26.3755 27.9735C26.2163 28.0971 26.0841 28.2519 25.9868 28.4284C25.8896 28.6049 25.8294 28.7994 25.81 29C25.66 30.13 26.81 30.73 27.81 31C27.7633 31.3116 27.7633 31.6284 27.81 31.94C27.87 32.38 28.47 32.68 28.94 32.74C29.41 32.8 30.07 32.67 30.24 32.26C30.3859 31.9623 30.4902 31.6461 30.55 31.32C31.3833 31.3073 32.1793 30.9719 32.7704 30.3845C33.3616 29.797 33.702 29.0032 33.72 28.17Z" fill="white" stroke="#231F20" stroke-linejoin="round"/>
<path d="M32.22 25.4C31.5092 25.1456 30.7528 25.0434 30 25.1" stroke="#231F20" stroke-linecap="round" stroke-linejoin="round"/>
<path d="M27.48 27.68C28.1733 27.9491 28.9192 28.0552 29.66 27.99" stroke="#231F20" stroke-linecap="round" stroke-linejoin="round"/>
<path d="M20.7241 5.632C20.8909 5.66701 21.0679 5.63494 21.2447 5.53768C21.4215 5.44041 21.5944 5.2799 21.7534 5.06557C21.9125 4.85123 22.0543 4.58738 22.1707 4.28949C22.2871 3.9916 22.3757 3.66566 22.4313 3.33078C22.4869 2.99591 22.5084 2.65884 22.4945 2.33935C22.4805 2.01985 22.4315 1.72436 22.3503 1.4702C22.269 1.21604 22.1572 1.00833 22.0213 0.859244C21.8855 0.710158 21.7283 0.622699 21.5591 0.601997C21.3922 0.566984 21.2152 0.599051 21.0384 0.696316C20.8616 0.793582 20.6887 0.954089 20.5297 1.16842C20.3707 1.38276 20.2288 1.64661 20.1124 1.9445C19.996 2.2424 19.9074 2.56834 19.8518 2.90321C19.7962 3.23808 19.7747 3.57515 19.7887 3.89464C19.8026 4.21414 19.8516 4.50963 19.9328 4.76379C20.0141 5.01795 20.1259 5.22566 20.2618 5.37475C20.3976 5.52384 20.5548 5.61129 20.7241 5.632Z" fill="#FF52A1" stroke="#231F20" stroke-miterlimit="10"/>
<path d="M24.0281 7.57499C24.1434 7.69726 24.3057 7.77307 24.5055 7.79808C24.7053 7.8231 24.9388 7.79684 25.1926 7.72079C25.4464 7.64474 25.7156 7.52041 25.9848 7.35488C26.254 7.18935 26.518 6.98587 26.7616 6.75605C27.0052 6.52624 27.2237 6.2746 27.4046 6.01549C27.5855 5.75638 27.7253 5.49488 27.816 5.24592C27.9066 4.99696 27.9464 4.76541 27.9331 4.56451C27.9197 4.3636 27.8534 4.19726 27.7381 4.07499C27.6227 3.95272 27.4605 3.87692 27.2607 3.8519C27.0609 3.82689 26.8274 3.85315 26.5736 3.9292C26.3197 4.00524 26.0505 4.12958 25.7813 4.29511C25.5121 4.46064 25.2482 4.66412 25.0046 4.89393C24.761 5.12374 24.5425 5.37539 24.3616 5.6345C24.1807 5.89361 24.0409 6.15511 23.9502 6.40407C23.8595 6.65303 23.8197 6.88457 23.8331 7.08548C23.8465 7.28639 23.9127 7.45272 24.0281 7.57499Z" fill="#FF52A1" stroke="#231F20" stroke-miterlimit="10"/>
<path d="M26.2511 11.278C26.2951 11.4417 26.4031 11.5851 26.5688 11.6999C26.7345 11.8148 26.9545 11.8988 27.2162 11.9471C27.4779 11.9954 27.776 12.007 28.0932 11.9813C28.4104 11.9556 28.7404 11.893 29.0641 11.7972C29.3878 11.7014 29.6987 11.5743 29.9788 11.4233C30.2589 11.2723 30.5026 11.1003 30.6959 10.9174C30.8891 10.7345 31.0279 10.5443 31.1043 10.3578C31.1808 10.1713 31.1933 9.99225 31.1411 9.831C31.097 9.66734 30.9891 9.52392 30.8234 9.40906C30.6577 9.2942 30.4377 9.21019 30.176 9.16189C29.9143 9.11359 29.6162 9.10197 29.299 9.1277C28.9818 9.15343 28.6518 9.21601 28.3281 9.31179C28.0044 9.40757 27.6935 9.53466 27.4134 9.68568C27.1333 9.8367 26.8895 10.0086 26.6963 10.1915C26.5031 10.3745 26.3643 10.5647 26.2879 10.7512C26.2114 10.9377 26.1989 11.1167 26.2511 11.278Z" fill="#FF52A1" stroke="#231F20" stroke-miterlimit="10"/>
</g>
<defs>
<clipPath id="clip0_2301_13818">
<rect width="40" height="40" fill="white"/>
</clipPath>
</defs>
</svg>
