<svg width="40" height="40" viewBox="0 0 40 40" fill="none" xmlns="http://www.w3.org/2000/svg">
<g clip-path="url(#clip0_2301_15106)">
<path d="M21.1408 0.956894C20.4704 0.845994 19.7476 1.83789 19.5258 3.17259C19.3041 4.50729 19.667 5.68069 20.3383 5.79159C20.5904 5.83389 21.0248 5.79159 21.0248 5.79159C21.6952 5.90249 22.418 4.91049 22.6398 3.57579C22.8616 2.24109 22.4986 1.06769 21.8283 0.956894C21.5763 0.914494 21.1408 0.956894 21.1408 0.956894Z" fill="#00034A"/>
<path d="M23.5137 7.65847C23.0479 7.16457 23.4673 6.01027 24.4512 5.08187C25.058 4.51027 26.9542 3.43467 27.7657 4.29557C28.2315 4.78947 27.8121 5.94277 26.8272 6.87117C26.2214 7.44377 24.3252 8.51837 23.5137 7.65747V7.65847Z" fill="#00034A"/>
<path d="M31.036 9.82592C31.2296 10.4781 30.3334 11.3178 29.036 11.7009C28.2386 11.9368 25.9665 12.2856 25.65 11.217C25.4574 10.5648 26.3535 9.72512 27.6509 9.34202C28.4473 9.10612 30.7205 8.75732 31.036 9.82592Z" fill="#00034A"/>
<path d="M21.1408 0.956894C20.4704 0.845994 19.7476 1.83789 19.5258 3.17259C19.3041 4.50729 19.667 5.68069 20.3383 5.79159C20.5904 5.83389 21.0248 5.79159 21.0248 5.79159C21.6952 5.90249 22.418 4.91049 22.6398 3.57579C22.8616 2.24109 22.4986 1.06769 21.8283 0.956894C21.5763 0.914494 21.1408 0.956894 21.1408 0.956894Z" stroke="#00034A" stroke-miterlimit="10"/>
<path d="M23.5137 7.65847C23.0479 7.16457 23.4673 6.01027 24.4512 5.08187C25.058 4.51027 26.9542 3.43467 27.7657 4.29557C28.2315 4.78947 27.8121 5.94277 26.8272 6.87117C26.2214 7.44377 24.3252 8.51837 23.5137 7.65747V7.65847Z" stroke="#00034A" stroke-miterlimit="10"/>
<path d="M31.036 9.82592C31.2296 10.4781 30.3334 11.3178 29.036 11.7009C28.2386 11.9368 25.9665 12.2856 25.65 11.217C25.4574 10.5648 26.3535 9.72512 27.6509 9.34202C28.4473 9.10612 30.7205 8.75732 31.036 9.82592Z" stroke="#00034A" stroke-miterlimit="10"/>
<path d="M3.3634 22.0034C3.4773 22.9046 3.6356 23.8119 3.8069 24.6426C4.2838 27.0317 5.0348 30.693 7.813 31.4168C8.688 32.0015 12.7526 31.945 15.9915 31.2817C19.2294 30.6184 22.9875 29.0811 23.5722 28.197C24.8898 27.1587 24.5339 24.1325 23.9765 21.2978C23.7749 20.3361 23.5158 19.2413 23.2083 18.2322C24.8515 17.5114 24.7265 16.6173 24.4664 15.3783C24.1368 13.7412 22.9744 12.0346 21.1125 12.0638C20.8474 12.0474 20.5817 12.042 20.3162 12.0477C20.4865 8.52948 16.5581 6.86618 13.8484 8.67158C12.806 9.44968 11.9028 10.3986 11.177 11.4781C10.0859 10.7575 8.8801 10.2278 7.6114 9.91158C3.3644 9.10508 2.4511 12.6313 3.7676 14.8793C3.8328 14.9982 3.9034 15.1139 3.9793 15.2261C3.3976 15.3846 2.834 15.6036 2.2979 15.8794C0.577102 16.5699 0.827102 18.0508 1.0962 19.3481C1.3543 20.5931 2.0993 21.6476 3.3634 22.0034Z" fill="#00034A" stroke="#00034A" stroke-miterlimit="10"/>
<path d="M23.544 14.7937C23.2849 13.5054 22.9291 12.0356 21.1125 12.0638C20.5132 12.0271 19.9118 12.0467 19.3161 12.1223C19.3161 12.0003 19.3353 11.8652 19.3736 11.7191C19.6619 9.15248 17.4512 6.26938 13.8484 8.67158C12.806 9.44978 11.9028 10.3986 11.177 11.4781C10.0859 10.7576 8.8801 10.2278 7.6114 9.91158C3.3644 9.10508 2.4511 12.6314 3.7676 14.8794C3.8352 15.0044 3.9118 15.1203 3.9793 15.2261C3.3976 15.3847 2.834 15.6036 2.2979 15.8794C0.577102 16.5699 0.827102 18.0508 1.0962 19.3481C1.3654 20.6455 1.5861 21.5195 3.3059 21.5195C3.4243 22.5677 3.5912 23.6098 3.8059 24.6425C4.3825 27.5256 5.2676 30.4087 6.8906 30.8321C7.7656 31.4168 11.8302 31.3603 15.0681 30.697C18.3071 30.0337 22.0642 28.4964 22.6498 27.6123C23.9664 26.574 23.6115 23.5478 23.0531 20.7131C22.8515 19.7514 22.5924 18.6566 22.2849 17.6475C23.9281 16.9267 23.8031 16.0326 23.544 14.7937Z" fill="#9BFF00" stroke="#00034A" stroke-miterlimit="10"/>
<path d="M16.2213 27.949C16.2213 27.074 15.6357 23.6728 14.924 19.8572" stroke="#00034A" stroke-miterlimit="10" stroke-linecap="round"/>
<path d="M10.9935 20.6546C11.8493 24.4409 12.676 27.7857 12.9834 28.6023" stroke="#00034A" stroke-miterlimit="10" stroke-linecap="round"/>
<path d="M18.5572 18.954C18.5572 18.954 15.7799 19.6848 12.9734 20.2615C10.168 20.8381 7.33325 21.2222 7.33325 21.2222" stroke="#00034A" stroke-miterlimit="10" stroke-linecap="round"/>
<path d="M7.64966 14.6394C7.64966 14.6394 9.62956 14.1203 11.6377 13.6787C13.6457 13.2362 15.674 12.9771 15.674 12.9771" stroke="#00034A" stroke-miterlimit="10" stroke-linecap="round"/>
<path d="M37.9161 16.7191C37.7305 16.6114 37.5065 16.5922 37.3052 16.6667L35.7195 17.2725C35.492 17.3611 35.2352 17.3284 35.0371 17.1858L33.3364 15.9661C33.1383 15.8235 32.8815 15.7908 32.654 15.8794L30.7316 16.6193C30.5038 16.7022 30.2499 16.67 30.0501 16.5326L28.291 15.2645C28.091 15.1266 27.8366 15.0943 27.6085 15.1778L25.6872 15.9268C25.4615 16.0127 25.2075 15.9765 25.0148 15.831L23.6307 14.8703C23.266 14.5946 22.7395 14.7306 22.5541 15.1485C21.7668 16.9076 21.0359 20.9823 20.5268 24.9027C20.0177 28.8241 19.5661 33.686 19.8544 35.7898C19.8705 35.8953 19.9097 35.9958 19.9694 36.0842C20.1871 36.4058 20.5692 36.8967 20.9129 37.1003C21.0992 37.2101 21.3249 37.2305 21.5278 37.1558L23.1035 36.56C23.3276 36.4715 23.5815 36.5043 23.7758 36.6467L25.4775 37.8665C25.6737 38.0127 25.9308 38.0491 26.1599 37.9633L28.0813 37.2132C28.307 37.1273 28.561 37.1635 28.7537 37.309L30.4554 38.5298C30.6552 38.667 30.909 38.6993 31.1368 38.6165L33.0592 37.8766C33.2834 37.7881 33.5372 37.8208 33.7316 37.9632L35.1832 38.9139C35.5455 39.191 36.0709 39.0656 36.2689 38.6548C37.0855 36.7324 37.9121 31.9279 38.4313 27.9692C38.9494 24.0095 39.2861 19.9258 38.9786 18.0236C38.9614 17.9186 38.9211 17.8187 38.8607 17.7312C38.653 17.4308 38.2115 16.8905 37.9161 16.7191Z" fill="#00034A" stroke="#00034A" stroke-miterlimit="10"/>
<path d="M34.4705 38.1155C34.8328 38.3926 35.3581 38.2672 35.5562 37.8564C36.3728 35.934 37.1994 31.1295 37.7185 27.1708C38.2367 23.2111 38.5734 19.1264 38.2659 17.2241C38.1915 16.7781 37.7294 16.51 37.3052 16.6667L35.7195 17.2725C35.492 17.3611 35.2352 17.3284 35.0371 17.1858L33.3364 15.9661C33.1383 15.8235 32.8815 15.7908 32.654 15.8794L30.7316 16.6193C30.5038 16.7023 30.2499 16.67 30.0501 16.5326L28.291 15.2645C28.091 15.1266 27.8366 15.0943 27.6085 15.1778L25.6872 15.9268C25.4615 16.0127 25.2075 15.9765 25.0148 15.831L23.6307 14.8703C23.266 14.5946 22.7395 14.7307 22.5541 15.1485C21.7668 16.9076 21.0359 20.9823 20.5268 24.9027C20.0177 28.8241 19.5661 33.686 19.8544 35.7899C19.9234 36.2401 20.3875 36.5143 20.8151 36.3574L22.3907 35.7616C22.6147 35.6731 22.8685 35.7054 23.0631 35.8473L24.7648 37.0681C24.9613 37.2138 25.2182 37.2498 25.4472 37.1639L27.3686 36.4149C27.5943 36.329 27.8483 36.3651 28.041 36.5106L29.7426 37.7304C29.9421 37.8684 30.1962 37.9011 30.4241 37.8181L32.3465 37.0782C32.5705 36.9894 32.8243 37.0218 33.0189 37.1639L34.4705 38.1155Z" fill="white" stroke="#00034A" stroke-miterlimit="10"/>
<path d="M32.8275 27.449C33.048 26.3309 32.4429 25.2138 31.3859 24.7877C32.1627 24.8954 32.8771 24.3455 32.9716 23.5669C33.0956 22.6062 32.0099 22.0105 31.0492 21.6445C31.0794 21.324 31.0633 20.9994 31.0008 20.6838C30.9434 20.2514 30.3667 19.9732 29.9151 19.9147C29.4635 19.8572 28.8385 19.9822 28.6651 20.3764C28.5208 20.6809 28.4207 21.0043 28.3677 21.3371C26.7716 21.4586 25.509 22.7375 25.408 24.3351C25.1861 25.4517 25.7983 26.5664 26.8597 26.9783C26.0522 26.854 25.3062 27.4334 25.2266 28.2464C25.0814 29.3321 26.1863 29.9097 27.148 30.1688C27.1026 30.4682 27.1026 30.7727 27.148 31.072C27.2054 31.4954 27.782 31.7827 28.2337 31.8402C28.6853 31.8987 29.3194 31.7737 29.4837 31.3795C29.6232 31.0933 29.7233 30.7894 29.7811 30.4763C31.4454 30.4506 32.7913 29.1132 32.8275 27.449Z" fill="#9BFF00" stroke="#00034A" stroke-linejoin="round"/>
<path d="M31.3858 24.7867C30.7024 24.5425 29.9754 24.4446 29.2517 24.4994" stroke="#00034A" stroke-linecap="round" stroke-linejoin="round"/>
<path d="M26.8303 26.9783C27.4965 27.2368 28.2133 27.3386 28.9251 27.2756" stroke="#00034A" stroke-linecap="round" stroke-linejoin="round"/>
<path d="M21.9533 3.57581C22.175 2.24111 21.8111 1.06771 21.1408 0.956813C20.4704 0.846013 19.7476 1.83791 19.5258 3.17261C19.304 4.50731 19.667 5.67971 20.3383 5.79161C21.0087 5.90251 21.7315 4.91051 21.9533 3.57581Z" fill="#9BFF00" stroke="#00034A" stroke-miterlimit="10"/>
<path d="M26.1398 6.87217C27.1247 5.94277 27.545 4.78947 27.0783 4.29557C26.6126 3.80157 25.4362 4.15337 24.4523 5.08187C23.4674 6.01027 23.048 7.16357 23.5138 7.65847C23.9795 8.15247 25.1559 7.79967 26.1398 6.87217Z" fill="#9BFF00" stroke="#00034A" stroke-miterlimit="10"/>
<path d="M28.3485 11.7009C29.6459 11.3178 30.5422 10.4781 30.3496 9.82589C30.1571 9.17469 28.9483 8.95889 27.6509 9.34199C26.3535 9.72509 25.4574 10.5648 25.65 11.217C25.8425 11.8682 27.0511 12.084 28.3485 11.7009Z" fill="#9BFF00" stroke="#00034A" stroke-miterlimit="10"/>
</g>
<defs>
<clipPath id="clip0_2301_15106">
<rect width="40" height="40" fill="white"/>
</clipPath>
</defs>
</svg>
