<svg width="40" height="40" viewBox="0 0 40 40" fill="none" xmlns="http://www.w3.org/2000/svg">
<path d="M5.81815 20.812C6.72015 20.812 7.78545 20.812 8.63735 20.9655C9.33574 21.0914 11.0769 21.9787 11.3808 22.6535C11.8068 23.1365 12.0153 25.7039 12.0153 27.8356C12.0153 29.9673 11.8068 32.5337 11.3808 33.0167C10.9539 33.9649 8.74755 33.9649 7.08905 33.9649C6.05615 33.9649 4.80885 33.9649 3.91275 33.7348C3.32255 33.5833 1.76925 32.6635 1.52625 32.1235C1.10035 31.6779 0.891846 29.074 0.891846 26.9414C0.891846 24.8107 1.10035 22.2433 1.52625 21.7603C1.95325 20.813 4.15965 20.812 5.81815 20.812Z" fill="#00034A" stroke="#00034A" stroke-miterlimit="10"/>
<path d="M35.2964 6.21897C34.534 6.01047 33.6654 6.00647 32.9099 6.00647C31.2524 6.00647 29.045 6.00647 28.6191 8.14697C28.1931 9.20937 27.9846 14.8637 27.9846 19.5155C27.9846 24.1664 28.1931 29.859 28.6191 30.882C28.8689 32.1284 30.5176 33.3373 31.7108 33.6856C32.4938 33.9128 33.3988 33.9167 34.1818 33.9167C35.8394 33.9167 38.0477 33.9167 38.4737 31.7762C38.8996 30.7148 39.1082 25.0596 39.1082 20.4087C39.1082 15.7578 38.8996 10.1016 38.4737 9.07857C38.2189 7.79287 36.5328 6.55637 35.2964 6.21897Z" fill="#00034A" stroke="#00034A" stroke-miterlimit="10"/>
<path d="M19.3645 13.395C20.2872 13.395 21.3811 13.398 22.2438 13.6685C23.1016 13.937 24.6834 14.9611 24.9273 15.8424C25.3719 16.6569 25.5618 20.7314 25.5618 24.1408C25.5618 27.5513 25.3532 31.6621 24.9273 32.4392C24.5004 33.9935 22.293 33.9935 20.6355 33.9935C19.8249 33.9935 18.8815 33.9905 18.0808 33.8066C17.1247 33.5892 15.3462 32.5337 15.0727 31.546C14.6468 30.7689 14.4382 26.6571 14.4382 23.2476C14.4382 19.8372 14.6271 15.7637 15.0727 14.9492C15.4987 13.395 17.706 13.395 19.3645 13.395Z" fill="#00034A" stroke="#00034A" stroke-miterlimit="10"/>
<path d="M10.1089 21.7603C9.68305 20.813 7.47565 20.813 5.81815 20.813C4.15965 20.813 1.95225 20.813 1.52625 21.7603C1.10035 22.2423 0.891846 24.8097 0.891846 26.9414C0.891846 29.073 1.10035 31.6779 1.52625 32.1235C1.95325 33.0708 4.15965 33.0708 5.81815 33.0708C7.47565 33.0708 9.68305 33.0708 10.1089 32.1235C10.5349 31.6405 10.7434 29.074 10.7434 26.9414C10.7434 24.8107 10.5349 22.2433 10.1089 21.7603Z" fill="#9BFF00" stroke="#00034A" stroke-miterlimit="10"/>
<path d="M23.6544 14.9492C23.2285 13.4049 21.0221 13.395 19.3645 13.395C17.706 13.395 15.4986 13.395 15.0727 14.9492C14.6271 15.7637 14.4382 19.8372 14.4382 23.2476C14.4382 26.6571 14.6468 30.7689 15.0727 31.546C15.4986 33.0904 17.706 33.0993 19.3645 33.0993C21.0221 33.0993 23.2285 33.0993 23.6554 31.5451C24.0813 30.7679 24.2899 26.6571 24.2899 23.2476C24.2899 19.8372 24.099 15.7637 23.6544 14.9492Z" fill="#9BFF00" stroke="#00034A" stroke-miterlimit="10"/>
<path d="M37.2018 8.18537C36.7749 6.02517 34.5684 6.00647 32.9099 6.00647C31.2524 6.00647 29.045 6.00647 28.6191 8.14697C28.1932 9.20937 27.9846 14.8637 27.9846 19.5155C27.9846 24.1664 28.1932 29.859 28.6191 30.8821C29.045 33.0049 31.2524 33.0235 32.9099 33.0235C34.5684 33.0235 36.7758 33.0235 37.2018 30.8821C37.6277 29.8216 37.8363 24.1664 37.8363 19.5155C37.8363 14.8637 37.6277 9.20837 37.2018 8.18537Z" fill="white" stroke="#00034A" stroke-miterlimit="10"/>
</svg>
