<svg width="40" height="40" viewBox="0 0 40 40" fill="none" xmlns="http://www.w3.org/2000/svg">
<g clip-path="url(#clip0_2301_15067)">
<path d="M14.0051 3.77002C13.0791 3.77002 12.3291 4.52102 12.3291 5.44602C12.3291 6.41502 13.2791 7.36402 14.2471 7.36402C15.1721 7.36402 15.9221 6.61402 15.9221 5.68902C15.9221 4.72002 14.9731 3.77102 14.0041 3.77102L14.0051 3.77002Z" fill="#00034A" stroke="#00034A" stroke-miterlimit="10"/>
<path d="M18.0169 3.26598C18.0094 3.43092 18.0347 3.5957 18.0911 3.75084C18.1476 3.90599 18.2342 4.04844 18.3459 4.16998C18.5809 4.42598 18.9059 4.79498 19.2259 4.94298C19.3753 5.01235 19.5369 5.0515 19.7015 5.05819C19.8661 5.06489 20.0304 5.03899 20.1849 4.98198C21.2819 4.57698 22.1759 4.62698 22.8619 5.13998C23.0909 5.43698 23.2869 5.80698 23.4489 6.24998C23.5909 6.65798 24.1789 7.26098 24.5739 7.44698C24.7227 7.51739 24.8841 7.55746 25.0486 7.56484C25.2131 7.57222 25.3774 7.54678 25.5319 7.48998C25.8448 7.37623 26.0999 7.14319 26.2414 6.84184C26.3829 6.5405 26.3992 6.19537 26.2869 5.88198C26.0256 4.92407 25.4871 4.06475 24.7389 3.41198C24.025 2.59369 23.0657 2.02804 22.0041 1.79935C20.9425 1.57067 19.8354 1.6912 18.8479 2.14298C18.6133 2.22617 18.4089 2.37749 18.2609 2.57756C18.1128 2.77763 18.0279 3.01734 18.0169 3.26598Z" fill="#00034A" stroke="#00034A" stroke-miterlimit="10"/>
<path d="M14.0049 7.12201C14.2284 7.12747 14.4507 7.08817 14.6588 7.00642C14.8668 6.92467 15.0564 6.80213 15.2164 6.646C15.3764 6.48988 15.5035 6.30333 15.5903 6.09733C15.6772 5.89133 15.7219 5.67005 15.7219 5.44651C15.7219 5.22297 15.6772 5.00169 15.5903 4.79569C15.5035 4.58969 15.3764 4.40314 15.2164 4.24701C15.0564 4.09089 14.8668 3.96834 14.6588 3.8866C14.4507 3.80485 14.2284 3.76555 14.0049 3.77101C13.5677 3.78169 13.1519 3.96291 12.8464 4.27596C12.5409 4.58901 12.3699 5.00909 12.3699 5.44651C12.3699 5.88392 12.5409 6.304 12.8464 6.61706C13.1519 6.93011 13.5677 7.11132 14.0049 7.12201Z" fill="#9BFF00" stroke="#00034A" stroke-miterlimit="10"/>
<path d="M18.092 3.75099C18.0355 3.59581 18.0102 3.43097 18.0176 3.26598C18.0251 3.10099 18.0651 2.93909 18.1353 2.78963C18.2056 2.64016 18.3048 2.50608 18.4271 2.3951C18.5494 2.28412 18.6925 2.19843 18.848 2.14299C19.5123 1.83907 20.2348 1.68329 20.9654 1.68645C21.6959 1.68961 22.417 1.85164 23.0786 2.16131C23.7403 2.47097 24.3267 2.92085 24.7971 3.47975C25.2676 4.03865 25.6108 4.69319 25.803 5.39799C25.8725 5.59233 25.8932 5.80076 25.8632 6.00496C25.8332 6.20916 25.7536 6.40288 25.6312 6.56908C25.5089 6.73528 25.3476 6.86889 25.1615 6.95815C24.9754 7.04741 24.7702 7.08959 24.564 7.08099C24.3165 7.06986 24.078 6.98484 23.8793 6.83691C23.6806 6.68897 23.5307 6.48489 23.449 6.25099C22.77 4.39999 21.512 3.82799 19.7 4.49599C19.5455 4.55305 19.3812 4.57902 19.2166 4.57238C19.052 4.56574 18.8904 4.52664 18.7409 4.45731C18.5915 4.38798 18.4572 4.2898 18.3459 4.16842C18.2345 4.04703 18.1482 3.90583 18.092 3.75099Z" fill="#9BFF00" stroke="#00034A" stroke-miterlimit="10"/>
<path d="M36.7219 13.75C35.1139 12.701 31.4659 11.462 28.1859 10.91C24.2719 10.251 19.5459 10.328 18.3539 11.104C16.5139 12.294 15.0599 17.729 14.3239 22.127C13.6639 26.076 13.2519 30.994 14.1429 33.211C14.4669 34.019 15.1969 34.404 15.7089 35.068C16.5809 36.192 21.0179 37.828 24.9309 38.488C28.8439 39.146 33.5709 39.068 34.7629 38.294C36.6029 37.074 38.0369 31.668 38.7929 27.27C39.5479 22.873 39.9739 17.274 38.6179 15.54C38.1279 14.908 37.3999 14.192 36.7219 13.75Z" fill="#00034A" stroke="#00034A" stroke-miterlimit="10"/>
<path d="M33.552 37.083C35.392 35.863 36.826 30.457 37.582 26.06C38.337 21.662 38.763 16.063 37.407 14.33C36.536 13.205 32.099 11.568 28.186 10.91C24.272 10.251 19.546 10.328 18.354 11.104C16.514 12.294 15.06 17.729 14.324 22.127C13.588 26.525 13.162 32.123 14.499 33.857C15.37 34.981 19.807 36.618 23.72 37.277C27.634 37.935 32.36 37.857 33.552 37.083Z" fill="#9BFF00" stroke="#00034A" stroke-miterlimit="10"/>
<path d="M25.958 31.174C27.836 31.174 29.637 30.428 30.965 29.1C32.2929 27.7721 33.039 25.971 33.039 24.093C33.039 22.215 32.2929 20.4139 30.965 19.086C29.637 17.7581 27.836 17.012 25.958 17.012C24.08 17.012 22.2789 17.7581 20.9509 19.086C19.623 20.4139 18.877 22.215 18.877 24.093C18.877 25.971 19.623 27.7721 20.9509 29.1C22.2789 30.428 24.08 31.174 25.958 31.174Z" fill="white" stroke="#00034A" stroke-miterlimit="10"/>
<path d="M20.4171 15.947C20.6265 15.9523 20.8349 15.9156 21.03 15.8391C21.225 15.7626 21.4028 15.6478 21.5528 15.5016C21.7028 15.3553 21.822 15.1805 21.9034 14.9874C21.9848 14.7944 22.0267 14.587 22.0267 14.3775C22.0267 14.168 21.9848 13.9606 21.9034 13.7675C21.822 13.5745 21.7028 13.3997 21.5528 13.2534C21.4028 13.1072 21.225 12.9924 21.03 12.9159C20.8349 12.8394 20.6265 12.8027 20.4171 12.808C20.0077 12.8183 19.6185 12.9882 19.3326 13.2814C19.0467 13.5746 18.8867 13.968 18.8867 14.3775C18.8867 14.787 19.0467 15.1803 19.3326 15.4736C19.6185 15.7668 20.0077 15.9367 20.4171 15.947Z" fill="white" stroke="#00034A" stroke-miterlimit="10"/>
<path d="M34.3751 18.31C34.5858 18.3175 34.7959 18.2825 34.9929 18.2071C35.1898 18.1316 35.3695 18.0173 35.5213 17.8708C35.673 17.7244 35.7937 17.5489 35.8762 17.3548C35.9586 17.1606 36.0011 16.9519 36.0011 16.741C36.0011 16.5301 35.9586 16.3214 35.8762 16.1273C35.7937 15.9332 35.673 15.7577 35.5213 15.6112C35.3695 15.4648 35.1898 15.3504 34.9929 15.275C34.7959 15.1995 34.5858 15.1645 34.3751 15.172C33.9686 15.1865 33.5837 15.3582 33.3013 15.6509C33.0189 15.9435 32.8611 16.3343 32.8611 16.741C32.8611 17.1477 33.0189 17.5385 33.3013 17.8312C33.5837 18.1238 33.9686 18.2955 34.3751 18.31Z" fill="white" stroke="#00034A" stroke-miterlimit="10"/>
<path d="M31.4891 35.378C31.6998 35.3855 31.9099 35.3505 32.1069 35.2751C32.3038 35.1996 32.4835 35.0852 32.6353 34.9388C32.787 34.7924 32.9077 34.6169 32.9902 34.4227C33.0726 34.2286 33.1151 34.0199 33.1151 33.809C33.1151 33.5981 33.0726 33.3894 32.9902 33.1953C32.9077 33.0012 32.787 32.8257 32.6353 32.6792C32.4835 32.5328 32.3038 32.4184 32.1069 32.343C31.9099 32.2675 31.6998 32.2325 31.4891 32.24C31.0826 32.2545 30.6977 32.4262 30.4153 32.7188C30.1329 33.0115 29.9751 33.4023 29.9751 33.809C29.9751 34.2157 30.1329 34.6065 30.4153 34.8992C30.6977 35.1918 31.0826 35.3635 31.4891 35.378Z" fill="white" stroke="#00034A" stroke-miterlimit="10"/>
<path d="M17.5299 33.015C17.7393 33.0203 17.9477 32.9836 18.1428 32.9071C18.3378 32.8306 18.5156 32.7158 18.6656 32.5696C18.8156 32.4233 18.9348 32.2485 19.0162 32.0554C19.0976 31.8624 19.1395 31.655 19.1395 31.4455C19.1395 31.236 19.0976 31.0286 19.0162 30.8355C18.9348 30.6425 18.8156 30.4677 18.6656 30.3214C18.5156 30.1751 18.3378 30.0604 18.1428 29.9839C17.9477 29.9074 17.7393 29.8707 17.5299 29.876C17.1205 29.8863 16.7313 30.0562 16.4454 30.3494C16.1595 30.6426 15.9995 31.036 15.9995 31.4455C15.9995 31.855 16.1595 32.2483 16.4454 32.5415C16.7313 32.8348 17.1205 33.0047 17.5299 33.015Z" fill="white" stroke="#00034A" stroke-miterlimit="10"/>
<path d="M25.958 26.457C26.2724 26.4635 26.585 26.4071 26.8774 26.2912C27.1699 26.1754 27.4362 26.0023 27.6609 25.7822C27.8856 25.5621 28.0641 25.2993 28.1859 25.0094C28.3078 24.7194 28.3706 24.408 28.3706 24.0935C28.3706 23.779 28.3078 23.4676 28.1859 23.1776C28.0641 22.8876 27.8856 22.6249 27.6609 22.4048C27.4362 22.1847 27.1699 22.0116 26.8774 21.8957C26.585 21.7799 26.2724 21.7235 25.958 21.73C25.3395 21.7427 24.7507 21.9973 24.3179 22.4392C23.885 22.881 23.6426 23.4749 23.6426 24.0935C23.6426 24.712 23.885 25.306 24.3179 25.7478C24.7507 26.1897 25.3395 26.4443 25.958 26.457Z" fill="#9BFF00" stroke="#00034A" stroke-miterlimit="10"/>
<path d="M15.12 19.54C14.9854 19.372 14.8422 19.2111 14.691 19.058C14.9255 18.111 14.9124 17.1195 14.653 16.179C14.4299 14.9239 13.7427 13.7986 12.728 13.027C11.9541 12.0091 10.8244 11.3208 9.56495 11.1C9.34709 10.2399 9.10902 9.38496 8.85096 8.53601C8.96376 8.46098 9.06202 8.36611 9.14095 8.25601C9.61596 7.82001 9.34496 6.24101 9.05496 5.06901C8.83496 4.18601 8.52395 3.09001 8.11495 2.53201C7.90695 2.24901 6.90795 1.26501 6.70995 1.21301C5.6774 0.984502 4.60349 1.02479 3.59095 1.33001C2.55131 1.53157 1.57891 1.99095 0.762955 2.66601C0.278955 3.10201 0.558955 4.68101 0.839955 5.83401C1.12095 6.98701 1.61495 8.54601 2.24495 8.74001C2.31795 8.77501 2.39495 8.80201 2.47295 8.82101C2.54295 8.96901 2.61595 9.10501 2.69295 9.22501C2.86295 10.115 3.08895 11.133 3.30095 12.005C3.30095 12.078 3.32795 12.159 3.35495 12.241C3.37095 12.288 3.38695 12.336 3.39795 12.382C2.37558 12.9447 1.57786 13.842 1.13867 14.9232C0.69949 16.0044 0.645567 17.2038 0.985955 18.32C1.21495 19.319 1.70595 20.238 2.40995 20.984C1.99789 21.713 1.7366 22.5174 1.6416 23.3493C1.5466 24.1813 1.61984 25.0239 1.85695 25.827C2.15195 26.988 2.63495 27.981 3.30095 28.765C5.49496 31.35 8.28096 32.231 11.641 31.378C16.484 30.148 18.276 27.058 17.346 23.25C17.0718 21.7868 16.282 20.4705 15.12 19.54Z" fill="#00034A" stroke="#00034A" stroke-miterlimit="10"/>
<path d="M13.685 18.233C13.9578 17.2438 13.9578 16.1992 13.685 15.21C13.4807 14.0626 12.8878 13.0205 12.0059 12.2586C11.124 11.4967 10.0068 11.0615 8.84196 11.026L8.73495 10.677C8.47804 9.63311 8.19394 8.59609 7.88295 7.56701C7.99495 7.49201 8.09296 7.39701 8.17296 7.28701C8.64795 6.85101 8.37696 5.27201 8.08596 4.10001C7.79596 2.92801 7.33995 1.37801 6.70995 1.21301C5.6774 0.984502 4.60349 1.02479 3.59095 1.33001C2.55131 1.53157 1.57891 1.99095 0.762955 2.66601C0.278955 3.10201 0.558955 4.68101 0.839955 5.83401C1.12095 6.98701 1.61495 8.54601 2.24495 8.74001C2.36395 8.79701 2.49195 8.83301 2.62295 8.84601C2.79695 9.81601 3.05895 11.006 3.30095 12.004C3.30095 12.121 3.36895 12.256 3.39795 12.382C2.37558 12.9447 1.57786 13.842 1.13867 14.9232C0.69949 16.0044 0.645567 17.2038 0.985955 18.32C1.21495 19.319 1.70595 20.238 2.40995 20.984C1.99789 21.713 1.7366 22.5174 1.6416 23.3493C1.5466 24.1813 1.61984 25.0239 1.85695 25.827C2.82695 29.644 5.82896 31.639 10.672 30.409C15.516 29.179 17.308 26.089 16.378 22.282C16.2243 21.4606 15.9066 20.6786 15.4439 19.9827C14.9812 19.2869 14.383 18.6924 13.685 18.233Z" fill="white" stroke="#00034A" stroke-miterlimit="10"/>
<path d="M8.21191 28.113C8.83191 28.036 9.44691 27.92 10.0519 27.764C10.6603 27.622 11.2589 27.441 11.8439 27.222" stroke="#00034A" stroke-miterlimit="10" stroke-linecap="round"/>
<path d="M2.63208 5.31002C3.25408 5.24002 3.86908 5.12402 4.47208 4.96202C5.08208 4.82702 5.68108 4.64902 6.26508 4.42902" stroke="#00034A" stroke-miterlimit="10" stroke-linecap="round"/>
<path d="M8.24995 23.192C8.62204 23.1991 8.9918 23.1318 9.3376 22.9943C9.68341 22.8568 9.99834 22.6517 10.264 22.391C10.5296 22.1304 10.7406 21.8194 10.8846 21.4763C11.0287 21.1331 11.1029 20.7647 11.1029 20.3925C11.1029 20.0204 11.0287 19.652 10.8846 19.3088C10.7406 18.9657 10.5296 18.6547 10.264 18.394C9.99834 18.1334 9.68341 17.9283 9.3376 17.7907C8.9918 17.6532 8.62204 17.586 8.24995 17.593C7.50734 17.593 6.79515 17.888 6.27005 18.4131C5.74495 18.9382 5.44995 19.6504 5.44995 20.393C5.44995 21.1356 5.74495 21.8478 6.27005 22.3729C6.79515 22.898 7.50734 23.193 8.24995 23.193V23.192Z" fill="#9BFF00" stroke="#00034A" stroke-miterlimit="10"/>
<path d="M8.63794 25.914L9.12194 27.881" stroke="#00034A" stroke-miterlimit="10" stroke-linecap="round"/>
<path d="M10.45 25.469L10.934 27.435" stroke="#00034A" stroke-miterlimit="10" stroke-linecap="round"/>
<path d="M5.5481 13.293L6.6721 17.893" stroke="#00034A" stroke-miterlimit="10" stroke-linecap="round"/>
<path d="M7.36011 12.847L8.49311 17.448" stroke="#00034A" stroke-miterlimit="10" stroke-linecap="round"/>
</g>
<defs>
<clipPath id="clip0_2301_15067">
<rect width="40" height="40" fill="white"/>
</clipPath>
</defs>
</svg>
