<svg width="40" height="40" viewBox="0 0 40 40" fill="none" xmlns="http://www.w3.org/2000/svg">
<path d="M16.29 34.85C16.29 36.0833 16.7799 37.266 17.652 38.138C18.524 39.0101 19.7068 39.5 20.94 39.5C22.1733 39.5 23.356 39.0101 24.2281 38.138C25.1001 37.266 25.59 36.0833 25.59 34.85C25.59 33.6167 25.1001 32.434 24.2281 31.5619C23.356 30.6899 22.1733 30.2 20.94 30.2C19.7068 30.2 18.524 30.6899 17.652 31.5619C16.7799 32.434 16.29 33.6167 16.29 34.85Z" fill="#48EEFF" stroke="#231F20" stroke-miterlimit="10"/>
<path d="M32.6701 13.15C32.6701 5.56 28.4501 0.5 20.0001 0.5C11.5501 0.5 6.93007 5.57 7.36007 13.15C7.52007 15.91 9.51007 17.67 12.7801 17.67C16.0501 17.67 18.0301 15.85 18.2101 13.15C18.2201 12.6765 18.4113 12.2249 18.7443 11.8882C19.0773 11.5515 19.5267 11.3553 20.0001 11.34C20.4801 11.34 20.9405 11.5307 21.2799 11.8701C21.6194 12.2096 21.8101 12.67 21.8101 13.15C21.8077 13.633 21.6174 14.0962 21.2796 14.4414C20.9418 14.7867 20.4829 14.987 20.0001 15C17.1401 15.21 15.4901 17.54 15.4901 20.42V21.78C15.4901 23.96 15.7201 25.78 16.4401 26.52C17.8011 27.2923 19.3455 27.6827 20.9101 27.65C22.4715 27.6834 24.0129 27.2929 25.3701 26.52C25.6492 26.2924 25.872 26.0034 26.0212 25.6756C26.1704 25.3478 26.2418 24.99 26.2301 24.63C30.5101 22.67 32.6701 18.56 32.6701 13.15Z" fill="#48EEFF" stroke="#231F20" stroke-miterlimit="10"/>
<path d="M23.4302 3.06C25.2391 3.38022 26.8798 4.32082 28.0702 5.72" stroke="white" stroke-miterlimit="10" stroke-linecap="round"/>
<path d="M21.3601 32.37C21.661 32.3517 21.9611 32.4167 22.2275 32.5578C22.4939 32.6989 22.7163 32.9108 22.8701 33.17" stroke="white" stroke-miterlimit="10" stroke-linecap="round"/>
</svg>
