<svg width="40" height="40" viewBox="0 0 40 40" fill="none" xmlns="http://www.w3.org/2000/svg">
<g clip-path="url(#clip0_2301_13750)">
<path d="M10.8101 3.72C9.67006 7.01 12.5601 11.72 12.9201 11.81C13.2801 11.9 18.4401 10 19.5801 6.75C20.4901 4.12 19.6301 1.86 16.7101 0.849996C13.7901 -0.160004 11.7101 1.09 10.8101 3.72Z" fill="#FFE236" stroke="#231F20" stroke-miterlimit="10"/>
<path d="M13.26 5.23C13.26 5.74187 13.4633 6.23277 13.8253 6.59472C14.1872 6.95666 14.6781 7.16 15.19 7.16C15.7019 7.16 16.1928 6.95666 16.5547 6.59472C16.9167 6.23277 17.12 5.74187 17.12 5.23C17.12 4.71814 16.9167 4.22723 16.5547 3.86529C16.1928 3.50334 15.7019 3.3 15.19 3.3C14.6781 3.3 14.1872 3.50334 13.8253 3.86529C13.4633 4.22723 13.26 4.71814 13.26 5.23Z" fill="white" stroke="#231F20" stroke-miterlimit="10"/>
<path d="M36.0001 38.85C37.9201 38.28 38.8501 31.11 39.0701 28.3C39.2901 25.49 39.5201 18.3 37.7201 17.4C36.8401 16.6 29.8901 15.32 25.7701 14.99C21.6501 14.66 14.5901 14.82 13.6001 15.47C11.6401 16 10.7101 23.21 10.4801 26C10.2501 28.79 10.0001 36 11.8401 36.92C12.7101 37.72 19.6601 39 23.7801 39.33C27.9001 39.66 35.0001 39.5 36.0001 38.85Z" fill="#48EEFF" stroke="#231F20" stroke-miterlimit="10"/>
<path d="M21.0501 24.27C21.5466 23.9976 21.9608 23.5968 22.2493 23.1095C22.5378 22.6222 22.69 22.0663 22.6901 21.5C22.7717 21.0512 22.7525 20.5899 22.634 20.1494C22.5156 19.709 22.3007 19.3003 22.0051 18.953C21.7094 18.6056 21.3403 18.3283 20.9244 18.141C20.5085 17.9537 20.0562 17.8612 19.6001 17.87C19.1499 17.7908 18.6876 17.8132 18.2471 17.9354C17.8066 18.0577 17.399 18.2768 17.054 18.5768C16.709 18.8768 16.4353 19.25 16.253 19.6692C16.0707 20.0884 15.9843 20.5431 16.0001 21C15.9039 21.5601 15.963 22.1359 16.1711 22.6648C16.3791 23.1937 16.7281 23.6555 17.1801 24C13.1801 25.28 14.8901 31.46 15.0401 31.55C15.3325 31.7611 15.6799 31.8827 16.0401 31.9C15.9013 32.9015 15.959 33.9205 16.2101 34.9C16.3701 35.32 17.4001 35.44 18.2601 35.51C19.1201 35.58 20.1501 35.62 20.3801 35.23C20.7939 34.2831 21.0148 33.2632 21.0301 32.23C21.3751 32.2509 21.7197 32.182 22.0301 32.03C22.1501 32 24.7301 26.14 21.0501 24.27Z" fill="white" stroke="#231F20" stroke-miterlimit="10"/>
<path d="M34.4001 29.2C34.4001 27.35 33.9001 25.92 32.4601 25.2C32.9544 24.9276 33.367 24.5282 33.6553 24.043C33.9436 23.5578 34.0971 23.0044 34.1001 22.44C34.1871 21.9887 34.1716 21.5236 34.0549 21.079C33.9381 20.6345 33.7231 20.2218 33.4255 19.8715C33.128 19.5211 32.7556 19.2421 32.3358 19.0549C31.916 18.8677 31.4595 18.7772 31.0001 18.79C30.551 18.7066 30.089 18.7244 29.6478 18.8421C29.2065 18.9599 28.797 19.1746 28.4493 19.4706C28.1015 19.7667 27.8241 20.1366 27.6374 20.5534C27.4507 20.9702 27.3594 21.4234 27.3701 21.88C27.2805 22.4399 27.3427 23.0135 27.5502 23.5412C27.7578 24.0689 28.103 24.5312 28.5501 24.88C27.0101 25.37 26.3401 26.72 25.9901 28.54C25.6401 30.36 25.0901 31.82 25.6901 32.36C26.1626 32.7564 26.7385 33.0096 27.3501 33.09C27.228 34.0035 27.2927 34.9322 27.5401 35.82C27.7001 36.24 28.7301 36.36 29.5901 36.43C30.4501 36.5 31.4801 36.54 31.7001 36.16C32.0872 35.3218 32.2982 34.413 32.3201 33.49C32.9449 33.5002 33.5594 33.3301 34.0901 33C34.7701 32.59 34.4501 31.05 34.4001 29.2Z" fill="white" stroke="#231F20" stroke-miterlimit="10"/>
<path d="M35.5901 18.49C37.0001 18.8 36.8601 19.05 37.1501 20.13" stroke="white" stroke-miterlimit="10" stroke-linecap="round"/>
<path d="M30.76 7.23999C30.76 7.91099 31.0266 8.5545 31.501 9.02897C31.9755 9.50344 32.619 9.76999 33.29 9.76999C33.961 9.76999 34.6045 9.50344 35.079 9.02897C35.5535 8.5545 35.82 7.91099 35.82 7.23999C35.82 6.56899 35.5535 5.92548 35.079 5.45101C34.6045 4.97654 33.961 4.70999 33.29 4.70999C32.619 4.70999 31.9755 4.97654 31.501 5.45101C31.0266 5.92548 30.76 6.56899 30.76 7.23999Z" fill="#FFE236" stroke="#231F20" stroke-miterlimit="10"/>
<path d="M24.03 9.77C24.03 9.99062 24.0735 10.2091 24.1579 10.4129C24.2423 10.6167 24.3661 10.8019 24.5221 10.9579C24.6781 11.1139 24.8633 11.2377 25.0671 11.3221C25.2709 11.4065 25.4894 11.45 25.71 11.45C25.9306 11.45 26.1491 11.4065 26.3529 11.3221C26.5568 11.2377 26.742 11.1139 26.898 10.9579C27.054 10.8019 27.1777 10.6167 27.2621 10.4129C27.3466 10.2091 27.39 9.99062 27.39 9.77C27.39 9.54938 27.3466 9.33091 27.2621 9.12709C27.1777 8.92326 27.054 8.73806 26.898 8.58206C26.742 8.42605 26.5568 8.30231 26.3529 8.21788C26.1491 8.13345 25.9306 8.09 25.71 8.09C25.4894 8.09 25.2709 8.13345 25.0671 8.21788C24.8633 8.30231 24.6781 8.42605 24.5221 8.58206C24.3661 8.73806 24.2423 8.92326 24.1579 9.12709C24.0735 9.33091 24.03 9.54938 24.03 9.77Z" fill="#FFE236" stroke="#231F20" stroke-miterlimit="10"/>
<path d="M11.7201 22.16C11.0839 22.0946 10.442 22.1114 9.81012 22.21C9.81012 21.07 9.63012 19.62 9.48012 18.4C9.23012 16.24 8.73012 13.45 8.33012 12.88C7.55012 11.78 5.43012 12.1 4.19012 12.24C2.95012 12.38 1.49012 12.63 1.19012 12.98C0.830153 13.4985 0.68995 14.1384 0.800117 14.76C0.838951 15.3939 1.12645 15.9869 1.60012 16.41C2.31142 16.6177 3.06158 16.6554 3.79012 16.52C3.85012 17.36 3.95012 18.25 4.04012 19.04C4.19012 20.26 4.39012 21.71 4.62012 22.82C3.98326 22.8796 3.35562 23.0138 2.75012 23.22C1.94012 23.5 1.98012 24.72 2.07012 25.43C2.16012 26.14 2.40012 27.33 3.25012 27.43C4.75336 27.4452 6.25525 27.3348 7.74012 27.1C9.23941 26.9878 10.7255 26.7401 12.1801 26.36C12.9901 26.08 12.9501 24.86 12.8701 24.15C12.7901 23.44 12.5701 22.24 11.7201 22.16Z" fill="#FF52A1" stroke="#231F20" stroke-miterlimit="10"/>
<path d="M2.02002 7.11C2.02002 7.44225 2.08546 7.77124 2.2126 8.07819C2.33975 8.38514 2.52611 8.66405 2.76104 8.89898C2.99597 9.13391 3.27488 9.32027 3.58183 9.44742C3.88878 9.57456 4.21778 9.64 4.55002 9.64C4.88226 9.64 5.21125 9.57456 5.51821 9.44742C5.82516 9.32027 6.10407 9.13391 6.339 8.89898C6.57393 8.66405 6.76029 8.38514 6.88743 8.07819C7.01458 7.77124 7.08002 7.44225 7.08002 7.11C7.08002 6.439 6.81347 5.79549 6.339 5.32102C5.86453 4.84655 5.22102 4.58 4.55002 4.58C3.87902 4.58 3.23551 4.84655 2.76104 5.32102C2.28657 5.79549 2.02002 6.439 2.02002 7.11Z" fill="#FF52A1" stroke="#231F20" stroke-miterlimit="10"/>
<path d="M5.38013 13.86C6.26013 13.7 6.70013 13.69 6.93013 13.86C7.16013 14.03 7.09013 14.44 7.09013 14.44" stroke="white" stroke-miterlimit="10" stroke-linecap="round"/>
<path d="M4.59009 6C4.88457 6.04912 5.15495 6.19308 5.36009 6.41" stroke="white" stroke-miterlimit="10" stroke-linecap="round"/>
</g>
<defs>
<clipPath id="clip0_2301_13750">
<rect width="40" height="40" fill="white"/>
</clipPath>
</defs>
</svg>
