<svg width="40" height="40" viewBox="0 0 40 40" fill="none" xmlns="http://www.w3.org/2000/svg">
<g clip-path="url(#clip0_2301_15035)">
<path d="M19.278 4.362C24.55 4.362 33.231 4.618 35.843 6.47C36.8 7.149 37.946 8.235 38.421 9.296C39.394 11.465 39.5 16.761 39.5 21.271C39.5 26.529 39.356 32.865 37.863 34.059C36.37 36.438 26.5 36.736 20.723 36.736C15.513 36.736 6.977 36.494 4.253 34.703C3.246 34.04 2.033 32.85 1.562 31.76C0.605 29.55 0.5 24.303 0.5 19.828C0.5 14.579 0.644 8.243 2.137 7.049C3.63 4.67 13.501 4.362 19.278 4.362Z" fill="#00034A" stroke="#00034A" stroke-miterlimit="10"/>
<path d="M36.419 7.048C34.925 4.67 25.056 4.362 19.278 4.362C13.5 4.362 3.63 4.67 2.137 7.048C0.644 8.242 0.5 14.578 0.5 19.827C0.5 25.075 0.644 31.382 2.137 32.615C3.63 34.993 13.5 35.292 19.277 35.292C25.056 35.292 34.926 34.993 36.419 32.615C37.911 31.421 38.056 25.085 38.056 19.827C38.056 14.569 37.91 8.242 36.419 7.048Z" fill="#9BFF00" stroke="#00034A" stroke-miterlimit="10"/>
<path d="M11.2559 4.833C10.9959 3.437 9.25292 3.263 8.23292 3.263C7.21192 3.263 5.46892 3.437 5.20892 4.833C4.94892 5.517 4.91992 9.138 4.91992 12.133C4.91992 15.127 4.91992 18.758 5.20892 19.442C5.46892 20.799 7.21192 20.972 8.23292 20.972C9.25292 20.972 10.9959 20.799 11.2559 19.442C11.5159 18.758 11.5459 15.137 11.5459 12.132C11.5459 9.128 11.5159 5.479 11.2559 4.833Z" fill="white" stroke="#00034A" stroke-miterlimit="10"/>
<path d="M22.3021 4.833C22.0421 3.437 20.2991 3.263 19.2781 3.263C18.2581 3.263 16.5141 3.437 16.2541 4.833C15.9941 5.517 15.9651 9.138 15.9651 12.133C15.9651 15.127 15.9651 18.758 16.2551 19.442C16.5151 20.799 18.2571 20.972 19.2781 20.972C20.2981 20.972 22.0421 20.799 22.3021 19.442C22.5621 18.758 22.5901 15.137 22.5901 12.132C22.5901 9.128 22.5611 5.479 22.3021 4.833Z" fill="white" stroke="#00034A" stroke-miterlimit="10"/>
<path d="M8.23291 20.973V29.774" stroke="#00034A" stroke-miterlimit="10" stroke-linecap="round"/>
<path d="M19.2781 21.296V30.872" stroke="#00034A" stroke-miterlimit="10" stroke-linecap="round"/>
<path d="M33.347 4.83298C33.087 3.47598 31.344 3.30298 30.323 3.30298C29.303 3.30298 27.559 3.43698 27.299 4.83298C27.039 5.51698 27.01 9.13798 27.01 12.133C27.01 15.127 27.01 18.758 27.3 19.442C27.56 20.799 29.302 20.972 30.323 20.972C31.343 20.972 33.087 20.799 33.347 19.442C33.607 18.758 33.636 15.137 33.636 12.132C33.636 9.12798 33.607 5.47898 33.347 4.83298Z" fill="white" stroke="#00034A" stroke-miterlimit="10"/>
<path d="M30.323 21.296V29.774" stroke="#00034A" stroke-miterlimit="10" stroke-linecap="round"/>
</g>
<defs>
<clipPath id="clip0_2301_15035">
<rect width="40" height="40" fill="white"/>
</clipPath>
</defs>
</svg>
