<svg width="40" height="40" viewBox="0 0 40 40" fill="none" xmlns="http://www.w3.org/2000/svg">
<g clip-path="url(#clip0_2301_15031)">
<path d="M19.3041 11.3206C29.0397 1.58588 31.3154 1.91958 32.9316 3.53678C33.6009 4.21288 34.2348 4.64178 34.909 5.31488C35.7598 6.17558 36.2416 7.25208 35.0562 9.54828C35.1661 9.66318 35.275 9.78388 35.3829 9.90748C35.9109 10.2765 36.4055 10.6926 36.8598 11.1489C38.1139 12.403 39.423 14.4186 39.0423 15.45C38.8535 16.1059 38.5378 16.7184 38.113 17.2527C37.6973 17.8559 36.8856 18.0342 36.2553 17.6609C35.4329 17.1601 34.6559 16.5881 33.9335 15.9514C33.6176 16.2949 33.2829 16.6393 32.9483 16.9828C32.6146 17.3263 32.2614 17.6521 31.9179 17.968C32.5542 18.6905 33.1259 19.4674 33.6264 20.2898C33.9997 20.9201 33.8214 21.7318 33.2182 22.1475C32.6839 22.5723 32.0714 22.8881 31.4155 23.0768C30.3851 23.4575 28.3685 22.1475 27.1144 20.8943C26.9261 20.7087 26.745 20.5159 26.5717 20.3163C26.4049 20.1986 26.24 20.0759 26.0791 19.9483C24.2862 21.7019 22.7603 23.0984 21.4669 24.1827C24.1759 31.0861 18.3959 38.3334 11.0628 37.2277C9.028 36.9209 7.1449 35.9706 5.6893 34.516C5.0573 33.885 4.3449 33.3698 3.712 32.7378C-1.5307 27.4928 0.870602 18.5393 8.0342 16.6215C10.0229 16.0891 12.1299 16.2078 14.0462 16.9602C15.3288 15.3999 17.0284 13.5413 19.3041 11.3216V11.3206Z" fill="#00034A" stroke="#00034A" stroke-miterlimit="10" stroke-linecap="round" stroke-linejoin="round"/>
<path d="M32.9327 3.53682C31.3155 1.92062 29.0398 1.58592 19.3042 11.3206C17.0285 13.5413 15.3289 15.3989 14.0463 16.9602C7.14372 14.2491 -0.10528 20.027 0.99822 27.3604C2.10162 34.6938 10.7299 38.0826 16.5291 33.4603C19.8362 30.8243 21.0374 26.3397 19.4906 22.4036C20.8095 21.2976 22.3698 19.8679 24.2088 18.0662C24.4943 18.4361 24.8054 18.7865 25.1381 19.1152C26.3922 20.3693 28.4078 21.6794 29.4392 21.2976C30.0947 21.1091 30.7069 20.7937 31.2409 20.3693C31.8444 19.954 32.0233 19.1422 31.6501 18.5117C31.1494 17.6889 30.5774 16.9116 29.9407 16.1889C30.2841 15.8729 30.6374 15.5481 30.972 15.2047C31.3057 14.8612 31.6413 14.5168 31.9563 14.1733C32.679 14.81 33.4562 15.382 34.2791 15.8828C34.9096 16.2559 35.7213 16.0771 36.1367 15.4735C36.5615 14.9393 36.8773 14.3268 37.066 13.6709C37.4467 12.6405 36.1367 10.6249 34.8826 9.37072C34.3207 8.80492 33.6977 8.30332 33.0249 7.87522C34.2791 5.50632 33.7972 4.41022 32.9327 3.53682Z" fill="#9BFF00" stroke="#00034A" stroke-miterlimit="10" stroke-linecap="round" stroke-linejoin="round"/>
<path d="M10.5252 30.0578C13.7074 30.0578 15.6963 26.613 14.1052 23.8572C13.3668 22.5782 12.002 21.7903 10.5252 21.7903C7.34296 21.7903 5.35416 25.2351 6.94526 27.9909C7.68366 29.2699 9.04836 30.0578 10.5252 30.0578Z" fill="white" stroke="#00034A" stroke-miterlimit="10" stroke-linecap="round" stroke-linejoin="round"/>
</g>
<defs>
<clipPath id="clip0_2301_15031">
<rect width="40" height="40" fill="white"/>
</clipPath>
</defs>
</svg>
