<svg width="40" height="40" viewBox="0 0 40 40" fill="none" xmlns="http://www.w3.org/2000/svg">
<g clip-path="url(#clip0_2301_13724)">
<path d="M28 18.37C29.48 17.56 29.76 13.37 29.76 10.25C29.76 7.13 29.47 2.94 28 2.13C27.24 1.31 23.28 0.5 20 0.5C16.72 0.5 12.76 1.31 12 2.13C10.51 2.94 10.23 7.13 10.23 10.25C10.23 13.37 10.51 17.56 12 18.37C12.74 19.19 16.7 20 20 20C23.3 20 27.24 19.19 28 18.37Z" fill="#FFE236" stroke="#231F20" stroke-miterlimit="10"/>
<path d="M18.24 37.87C19.72 37.06 20 32.87 20 29.75C20 26.63 19.72 22.44 18.24 21.62C17.49 20.81 13.53 20 10.24 20C6.95 20 3 20.81 2.24 21.62C0.78 22.44 0.5 26.61 0.5 29.75C0.5 32.89 0.78 37.06 2.26 37.87C3.01 38.69 6.97 39.5 10.26 39.5C13.55 39.5 17.49 38.69 18.24 37.87Z" fill="#FF52A1" stroke="#231F20" stroke-miterlimit="10"/>
<path d="M37.74 37.87C39.22 37.06 39.5 32.87 39.5 29.75C39.5 26.63 39.22 22.44 37.74 21.62C37 20.81 33 20 29.75 20C26.5 20 22.51 20.81 21.75 21.62C20.27 22.44 19.99 26.62 19.99 29.75C19.99 32.88 20.27 37.06 21.75 37.87C22.5 38.69 26.46 39.5 29.75 39.5C33.04 39.5 37 38.69 37.74 37.87Z" fill="#48EEFF" stroke="#231F20" stroke-miterlimit="10"/>
<path d="M21.8501 14.18C22.1153 13.2026 22.2399 12.1925 22.2201 11.18C22.5035 11.1566 22.7844 11.1097 23.0601 11.04C23.5801 10.86 23.9101 10.61 23.9201 10.04C23.9301 9.47 24.0601 9.41 22.6501 7.5C22.131 6.7703 21.5154 6.11433 20.8201 5.55C20.5767 5.38957 20.2916 5.30406 20.0001 5.30406C19.7086 5.30406 19.4235 5.38957 19.1801 5.55C18.4813 6.12969 17.8656 6.80265 17.3501 7.55C16.748 8.29483 16.3147 9.16143 16.0801 10.09C16.0801 10.62 16.4101 10.87 16.9401 11.09C17.2131 11.156 17.4905 11.2028 17.7701 11.23C17.7503 12.2425 17.8749 13.2526 18.1401 14.23C18.3201 14.85 19.2701 14.97 19.9901 14.97C20.7101 14.97 21.6601 14.8 21.8501 14.18Z" fill="white" stroke="#231F20" stroke-miterlimit="10"/>
<path d="M14.1799 27.9C13.2025 27.6348 12.1924 27.5102 11.1799 27.53C11.1564 27.2466 11.1096 26.9657 11.0399 26.69C10.8599 26.17 10.6099 25.84 10.0399 25.83C9.46989 25.82 9.40989 25.69 7.49989 27.1C6.77254 27.622 6.11693 28.2372 5.54989 28.93C5.38946 29.1734 5.30396 29.4585 5.30396 29.75C5.30396 30.0415 5.38946 30.3266 5.54989 30.57C6.13234 31.2661 6.80492 31.8815 7.54989 32.4C8.29472 33.0021 9.16132 33.4354 10.0899 33.67C10.6299 33.67 10.8799 33.34 11.0899 32.81C11.1609 32.538 11.2078 32.2603 11.2299 31.98C12.2424 31.9998 13.2525 31.8752 14.2299 31.61C14.8499 31.43 14.9699 30.48 14.9699 29.76C14.9699 29.04 14.7999 28.09 14.1799 27.9Z" fill="white" stroke="#231F20" stroke-miterlimit="10"/>
<path d="M25.8201 31.6C26.7972 31.8655 27.8079 31.9868 28.8201 31.96C28.8428 32.2468 28.8897 32.5311 28.9601 32.81C29.1401 33.33 29.3901 33.66 29.9601 33.66C30.5301 33.66 30.5901 33.81 32.5001 32.4C33.245 31.8814 33.9175 31.266 34.5001 30.57C34.6601 30.3246 34.7454 30.038 34.7454 29.745C34.7454 29.452 34.6601 29.1654 34.5001 28.92C33.9148 28.2266 33.2426 27.6115 32.5001 27.09C31.752 26.4952 30.8863 26.0657 29.9601 25.83C29.4301 25.83 29.1801 26.16 28.9601 26.68C28.8954 26.9567 28.8487 27.2373 28.8201 27.52C27.8079 27.4932 26.7972 27.6145 25.8201 27.88C25.2001 28.07 25.0801 29.02 25.0801 29.74C25.0801 30.46 25.2001 31.41 25.8201 31.6Z" fill="white" stroke="#231F20" stroke-miterlimit="10"/>
<path d="M24.51 3.14C26.59 3.55 26.83 3.65 27.12 4.66" stroke="white" stroke-miterlimit="10" stroke-linecap="round"/>
<path d="M14.78 22.67C16.85 23.08 17.09 23.18 17.38 24.19" stroke="white" stroke-miterlimit="10" stroke-linecap="round"/>
<path d="M34.3301 22.67C36.4101 23.08 36.6501 23.18 36.9401 24.19" stroke="white" stroke-miterlimit="10" stroke-linecap="round"/>
</g>
<defs>
<clipPath id="clip0_2301_13724">
<rect width="40" height="40" fill="white"/>
</clipPath>
</defs>
</svg>
