<svg width="40" height="40" viewBox="0 0 40 40" fill="none" xmlns="http://www.w3.org/2000/svg">
<path d="M12.0173 8.68392C12.0133 8.99862 12.0064 9.31532 11.9995 9.63302C11.9859 10.1959 11.978 10.7589 11.9758 11.322C11.9758 12.6864 11.9758 14.183 12.0617 15.4626C6.83285 20.4616 1.51025 28.3798 1.51025 32.253C1.51025 34.9848 2.95065 37.909 5.81365 38.4585C7.17815 38.9725 14.4857 39.1067 20.5343 39.1067C26.5829 39.1067 33.8915 38.9725 35.2362 38.4576C37.9739 37.9327 38.4899 35.2611 38.4899 33.2485C38.4899 29.3752 33.1664 21.457 27.8902 16.4482C27.9573 15.1607 27.9671 13.6819 27.9671 12.3174V8.94042C28.3551 8.90622 28.7386 8.83252 29.1116 8.72042C30.77 8.30412 31.0196 6.81242 31.0196 5.62062C31.0196 3.86852 29.8594 1.87562 28.0599 1.52442C25.2238 1.05012 22.3496 0.842421 19.4748 0.903821C16.5996 0.843021 13.7251 1.05082 10.8887 1.52442C9.30415 1.83912 8.98055 3.43242 8.98055 4.62422C8.98055 6.35362 10.2947 8.23402 12.0173 8.68492V8.68392Z" fill="#00034A" stroke="#00034A" stroke-miterlimit="10"/>
<path d="M26.8405 15.4528C26.9066 14.1643 26.9164 12.6864 26.9164 11.322V7.94499C27.3044 7.91079 27.6879 7.83699 28.0609 7.72499C29.7193 7.30859 29.9689 5.81699 29.9689 4.62419C29.9689 3.43239 29.6729 1.83909 28.0609 1.52439C25.2245 1.05009 22.3499 0.842287 19.4748 0.903787C16.5997 0.842987 13.7251 1.05079 10.8887 1.52439C9.30415 1.83909 8.98055 3.43239 8.98055 4.62419C8.98055 5.81789 9.27655 7.41029 10.8887 7.72499C11.2586 7.83549 11.6385 7.90949 12.0232 7.94499C12.0232 9.04199 11.9759 10.2239 11.9759 11.322C11.9759 12.6864 11.9759 14.183 12.0617 15.4626C6.83285 20.4616 1.51025 28.3798 1.51025 32.253C1.51025 34.2656 2.02525 36.9373 4.76305 37.4621C6.12745 37.9771 13.435 38.1103 19.4846 38.1103C25.5323 38.1103 32.8408 37.9771 34.1855 37.4621C36.9232 36.9373 37.4392 34.2656 37.4392 32.253C37.4392 28.3798 32.1157 20.4616 26.8395 15.4528H26.8405Z" fill="#9BFF00" stroke="#00034A" stroke-miterlimit="10"/>
<path d="M13.0628 21.5784C10.3064 24.2776 7.9209 27.7878 7.9209 29.6288C7.9209 30.783 8.2553 32.3103 10.0104 32.6062C10.8983 32.9022 15.5914 32.9782 19.4746 32.9782C23.3567 32.9782 28.0607 32.9022 28.9377 32.6062C30.6938 32.3103 31.0273 30.784 31.0273 29.6297C31.0273 27.7878 28.6516 24.3161 25.8951 21.5685L13.0628 21.5784Z" fill="white" stroke="#00034A" stroke-miterlimit="10"/>
<path d="M15.4485 8.12549C18.1319 8.30699 20.8253 8.30699 23.5097 8.12549" stroke="#00034A" stroke-miterlimit="10" stroke-linecap="round"/>
<path d="M20.7632 12.3993C21.6775 12.4661 22.5955 12.4661 23.5098 12.3993" stroke="#00034A" stroke-miterlimit="10" stroke-linecap="round"/>
<path d="M20.7632 16.2539C21.6779 16.311 22.5952 16.311 23.5098 16.2539" stroke="#00034A" stroke-miterlimit="10" stroke-linecap="round"/>
<path d="M22.0407 26.5576C23.025 26.5576 23.6401 25.4921 23.148 24.6397C22.9196 24.2441 22.4975 24.0004 22.0407 24.0004C21.0565 24.0004 20.4413 25.0659 20.9334 25.9183C21.1618 26.3139 21.5839 26.5576 22.0407 26.5576Z" fill="#00034A"/>
<path d="M16.9076 29.1236C17.8915 29.1509 18.5359 28.1028 18.0676 27.2371C17.8381 26.813 17.3896 26.5541 16.9076 26.5674C15.9237 26.5947 15.3383 27.6768 15.8538 28.5152C16.0799 28.8829 16.4762 29.1117 16.9076 29.1236Z" fill="#00034A"/>
</svg>
