<svg width="40" height="40" viewBox="0 0 40 40" fill="none" xmlns="http://www.w3.org/2000/svg">
<g clip-path="url(#clip0_2301_13707)">
<path d="M39.1999 30.39C37.7899 26.87 37.0999 25.16 34.5399 24.33C36.3699 22.65 36.4599 18.13 36.4599 14.62C36.4599 10.68 36.3499 5.44 33.7899 4.42C32.4999 3.4 25.6699 3 19.9999 3C14.3299 3 7.49993 3.4 6.20993 4.42C3.64993 5.42 3.53993 10.68 3.53993 14.62C3.53993 18.13 3.62993 22.62 5.45993 24.33C2.89993 25.16 2.20993 26.87 0.799929 30.39C0.559437 30.9859 0.450866 31.6269 0.481683 32.2687C0.512499 32.9106 0.681973 33.5382 0.978448 34.1084C1.27492 34.6785 1.69137 35.1777 2.19914 35.5715C2.70691 35.9654 3.29396 36.2446 3.91993 36.39C5.40993 37 13.3899 37 19.9999 37C26.6099 37 34.5899 37 36.0799 36.35C36.7009 36.2036 37.2832 35.9253 37.7872 35.5341C38.2913 35.1429 38.7053 34.6479 39.0012 34.0826C39.2971 33.5173 39.468 32.895 39.5023 32.2579C39.5366 31.6208 39.4335 30.9838 39.1999 30.39Z" fill="#FF52A1" stroke="#231F20" stroke-linejoin="round"/>
<path d="M29.6799 20.8C31.4799 20.18 31.5599 17.01 31.5599 14.62C31.5599 12.23 31.4799 9.06 29.6799 8.44C28.7799 7.82 23.9799 7.56 19.9999 7.56C16.0199 7.56 11.2199 7.82 10.3199 8.44C8.51994 9.06 8.43994 12.23 8.43994 14.62C8.43994 17.01 8.51994 20.18 10.3199 20.8C11.2199 21.42 16.0199 21.68 19.9999 21.68C23.9799 21.68 28.7799 21.42 29.6799 20.8Z" fill="white" stroke="#231F20" stroke-miterlimit="10"/>
<path d="M23.8798 33.22C24.0326 33.1803 24.1752 33.1084 24.298 33.0092C24.4209 32.91 24.5211 32.7858 24.5921 32.6448C24.6631 32.5037 24.7032 32.3492 24.7097 32.1915C24.7162 32.0337 24.689 31.8764 24.6298 31.73C23.9998 30 23.9998 30 19.9998 30C15.9998 30 15.9998 30 15.3698 31.71C15.3107 31.8564 15.2835 32.0137 15.29 32.1715C15.2965 32.3292 15.3366 32.4837 15.4076 32.6248C15.4786 32.7658 15.5788 32.89 15.7016 32.9892C15.8245 33.0884 15.967 33.1603 16.1198 33.2C17.404 33.3891 18.7025 33.4627 19.9998 33.42C21.2966 33.4694 22.5951 33.4024 23.8798 33.22Z" fill="white" stroke="#231F20" stroke-miterlimit="10"/>
<path d="M10.3999 25.31C10.3999 25.31 12.7999 25.59 19.9999 25.59C27.1999 25.59 29.5999 25.31 29.5999 25.31" stroke="#231F20" stroke-miterlimit="10" stroke-linecap="round"/>
<path d="M30.4399 6.09C32.8299 6.37 33.0699 6.72 33.4899 9.02" stroke="white" stroke-miterlimit="10" stroke-linecap="round"/>
</g>
<defs>
<clipPath id="clip0_2301_13707">
<rect width="40" height="40" fill="white"/>
</clipPath>
</defs>
</svg>
