<svg width="40" height="40" viewBox="0 0 40 40" fill="none" xmlns="http://www.w3.org/2000/svg">
<path d="M22.5299 38.32C23.0599 37.43 22.7599 31.8 22.5299 28.52C22.2999 25.24 21.8599 19.62 21.2199 18.81C20.8899 18 19.3199 18 17.9999 18.09C16.6799 18.18 15.1499 18.36 14.9099 19.23C14.3799 20.12 14.6799 25.75 14.9099 29.03C15.1399 32.31 15.5799 37.93 16.2199 38.74C16.5699 39.56 18.1399 39.55 19.4399 39.46C20.7399 39.37 22.2899 39.19 22.5299 38.32Z" fill="#FF52A1" stroke="#231F20" stroke-miterlimit="10"/>
<path d="M16.9998 34.82C17.6951 34.9557 18.4079 34.976 19.1098 34.88C19.8138 34.8816 20.5133 34.7668 21.1798 34.54C21.3598 34.44 21.3498 33.97 21.3198 33.54C21.2898 33.11 21.2398 32.69 21.0598 32.61C20.3786 32.493 19.6831 32.4862 18.9998 32.59C18.2958 32.5883 17.5963 32.7032 16.9298 32.93C16.7498 33.03 16.7598 33.5 16.7898 33.93C16.8198 34.36 16.8498 34.74 16.9998 34.82Z" fill="white" stroke="#231F20" stroke-miterlimit="10"/>
<path d="M20.6298 22.63C19.0966 22.5777 17.562 22.6816 16.0498 22.94" stroke="#231F20" stroke-miterlimit="10" stroke-linecap="round"/>
<path d="M20.7299 24.16C19.1971 24.1094 17.663 24.2099 16.1499 24.46" stroke="#231F20" stroke-miterlimit="10" stroke-linecap="round"/>
<path d="M18.1799 19.45C20.0299 19.45 19.8799 19.39 20.0599 19.9" stroke="white" stroke-miterlimit="10" stroke-linecap="round"/>
<path d="M30.1599 37.81C30.6899 36.93 30.3999 31.3 30.1599 28.02C29.9199 24.74 29.4999 19.12 28.8499 18.31C28.4999 17.48 26.9299 17.5 25.6399 17.58C24.3499 17.66 22.7799 17.86 22.5499 18.73C22.0099 19.61 22.3099 25.24 22.5499 28.52C22.7899 31.8 23.2099 37.42 23.8599 38.23C24.2099 39.06 25.7799 39.04 27.0699 38.96C28.3599 38.88 29.9299 38.68 30.1599 37.81Z" fill="#FFE236" stroke="#231F20" stroke-miterlimit="10"/>
<path d="M24.6699 34.32C25.3623 34.4506 26.0711 34.4709 26.7699 34.38C27.4794 34.3686 28.1822 34.2402 28.8499 34C29.0199 33.9 29.0099 33.43 28.9799 33C28.9499 32.57 28.9099 32.14 28.7199 32.07C28.0286 31.9291 27.3181 31.9088 26.6199 32.01C25.9129 32.0013 25.2095 32.1129 24.5399 32.34C24.3699 32.44 24.3799 32.91 24.3999 33.34C24.4199 33.77 24.4799 34.24 24.6699 34.32Z" fill="white" stroke="#231F20" stroke-miterlimit="10"/>
<path d="M28.2599 22.13C26.727 22.0747 25.1925 22.1752 23.6799 22.43" stroke="#231F20" stroke-miterlimit="10" stroke-linecap="round"/>
<path d="M28.3598 23.65C26.8266 23.5981 25.292 23.702 23.7798 23.96" stroke="#231F20" stroke-miterlimit="10" stroke-linecap="round"/>
<path d="M25.8098 18.94C27.6598 18.94 27.5098 18.89 27.6998 19.39" stroke="white" stroke-miterlimit="10" stroke-linecap="round"/>
<path d="M37.8 37.31C38.33 36.42 38.03 30.79 37.8 27.51C37.57 24.23 37.14 18.61 36.5 17.8C36.15 16.97 34.58 16.99 33.28 17.08C31.98 17.17 30.43 17.35 30.19 18.22C29.66 19.11 29.95 24.74 30.19 28.02C30.43 31.3 30.86 36.92 31.5 37.73C31.85 38.56 33.42 38.54 34.71 38.45C36 38.36 37.56 38.18 37.8 37.31Z" fill="#FF52A1" stroke="#231F20" stroke-miterlimit="10"/>
<path d="M32.2999 33.81C32.9918 33.9457 33.7014 33.966 34.3999 33.87C35.1072 33.8724 35.8101 33.7575 36.4799 33.53C36.6599 33.43 36.6399 32.96 36.6199 32.53C36.5999 32.1 36.5399 31.68 36.3499 31.6C35.6574 31.4694 34.9487 31.4491 34.2499 31.54C33.5426 31.5385 32.8399 31.6534 32.1699 31.88C31.9999 31.98 32.0099 32.45 32.0399 32.88C32.0699 33.31 32.1099 33.73 32.2999 33.81Z" fill="white" stroke="#231F20" stroke-miterlimit="10"/>
<path d="M35.8898 21.62C34.3566 21.5684 32.8221 21.6723 31.3098 21.93" stroke="#231F20" stroke-miterlimit="10" stroke-linecap="round"/>
<path d="M35.9999 23.15C34.4671 23.1 32.9331 23.2005 31.4199 23.45" stroke="#231F20" stroke-miterlimit="10" stroke-linecap="round"/>
<path d="M33.4399 18.44C35.2999 18.44 35.1399 18.39 35.3299 18.89" stroke="white" stroke-miterlimit="10" stroke-linecap="round"/>
<path d="M23.3798 17.81C24.6798 13.6 23.1398 10.05 18.3298 8.56999C13.5198 7.08999 10.2398 9.14999 8.93983 13.36C8.09983 16.07 9.09983 18.89 10.1998 21.1C10.5105 21.6824 10.6459 22.3423 10.5898 23C10.3858 23.0323 10.1947 23.1204 10.0377 23.2545C9.8806 23.3886 9.76368 23.5636 9.69983 23.76C9.63521 23.9763 9.64002 24.2074 9.71356 24.4209C9.7871 24.6343 9.92568 24.8194 10.1098 24.95C9.61983 27.41 10.3898 28.58 12.0098 29.08C13.6298 29.58 14.9298 29.08 15.9098 26.75C16.1264 26.7441 16.3363 26.6737 16.5128 26.5479C16.6892 26.4221 16.8241 26.2466 16.9003 26.0437C16.9765 25.8409 16.9905 25.6199 16.9406 25.4091C16.8906 25.1982 16.7789 25.0071 16.6198 24.86C16.9396 24.2835 17.4187 23.8113 17.9998 23.5C20.1298 22.29 22.5498 20.52 23.3798 17.81Z" fill="#48EEFF" stroke="#231F20" stroke-miterlimit="10"/>
<path d="M12.4897 23.59C13.2468 23.7312 13.985 23.9594 14.6897 24.27" stroke="#231F20" stroke-miterlimit="10" stroke-linecap="round"/>
<path d="M11.9998 25.29C12.7594 25.4205 13.4989 25.6491 14.1998 25.97" stroke="#231F20" stroke-miterlimit="10" stroke-linecap="round"/>
<path d="M13.7798 16.2C13.7798 16.2 13.5898 16.57 13.9398 17.99C14.0563 18.5152 14.2412 19.0229 14.4898 19.5C14.5749 19.6373 14.7068 19.7393 14.8611 19.7871C15.0155 19.8349 15.1819 19.8252 15.3298 19.76C15.8079 19.508 16.2515 19.1954 16.6498 18.83C17.1098 18.4372 17.4929 17.9625 17.7798 17.43C17.8302 17.2978 17.8339 17.1523 17.7903 17.0177C17.7466 16.8831 17.6582 16.7674 17.5398 16.69C17.0561 16.3987 16.539 16.1671 15.9998 16C15.478 15.8303 14.9372 15.7262 14.3898 15.69C14.2491 15.6893 14.1122 15.735 14.0001 15.82C13.8881 15.9049 13.8071 16.0244 13.7698 16.16L13.7798 16.2Z" fill="white" stroke="#231F20" stroke-miterlimit="10"/>
<path d="M14.8697 19.79L14.4897 21.02" stroke="#231F20" stroke-linecap="round" stroke-linejoin="round"/>
<path d="M20.5298 11.54C21.0994 11.9636 21.528 12.5491 21.7598 13.22" stroke="white" stroke-linecap="round" stroke-linejoin="round"/>
<path d="M16.7873 5.00513C16.9348 5.03738 17.0936 5.01145 17.2545 4.92881C17.4153 4.84618 17.5752 4.70846 17.725 4.52352C17.8747 4.33859 18.0114 4.11005 18.1271 3.85097C18.2429 3.59188 18.3356 3.30732 18.3998 3.01353C18.464 2.71974 18.4985 2.42247 18.5014 2.1387C18.5043 1.85493 18.4754 1.59022 18.4165 1.35967C18.3576 1.12913 18.2698 0.937267 18.158 0.795045C18.0463 0.652822 17.9129 0.563022 17.7653 0.530774C17.6178 0.498522 17.4591 0.524453 17.2982 0.607087C17.1373 0.68972 16.9774 0.827437 16.8277 1.01237C16.6779 1.19731 16.5413 1.42585 16.4255 1.68494C16.3097 1.94402 16.2171 2.22859 16.1528 2.52238C16.0886 2.81617 16.0541 3.11344 16.0512 3.39721C16.0484 3.68098 16.0772 3.94569 16.1361 4.17623C16.195 4.40678 16.2829 4.59864 16.3946 4.74086C16.5063 4.88309 16.6398 4.97288 16.7873 5.00513Z" fill="#FFE236" stroke="#231F20" stroke-miterlimit="10"/>
<path d="M7.98255 4.67244C8.24354 5.22085 8.60324 5.69473 8.98253 5.98984C9.36181 6.28495 9.72962 6.3771 10.005 6.24604C10.2804 6.11497 10.4409 5.77142 10.4511 5.29096C10.4612 4.8105 10.3203 4.23249 10.0594 3.68408C9.93013 3.41253 9.7753 3.15643 9.60373 2.93039C9.43215 2.70435 9.24718 2.5128 9.05937 2.36668C8.87157 2.22056 8.68461 2.12272 8.50917 2.07876C8.33373 2.03481 8.17325 2.04558 8.03688 2.11048C7.90052 2.17538 7.79094 2.29312 7.71441 2.45699C7.63788 2.62087 7.59589 2.82766 7.59085 3.06556C7.5858 3.30346 7.6178 3.56781 7.685 3.84352C7.75221 4.11923 7.85332 4.4009 7.98255 4.67244Z" fill="#FFE236" stroke="#231F20" stroke-miterlimit="10"/>
<path d="M3.80028 12.6317C4.08787 12.7196 4.38134 12.7782 4.66393 12.8042C4.94652 12.8302 5.21271 12.823 5.44729 12.783C5.68186 12.7431 5.88024 12.6712 6.03109 12.5714C6.18194 12.4716 6.2823 12.3459 6.32646 12.2015C6.37061 12.0571 6.35769 11.8967 6.28843 11.7297C6.21916 11.5626 6.09492 11.392 5.92279 11.2277C5.75065 11.0634 5.534 10.9086 5.2852 10.7721C5.0364 10.6356 4.76032 10.5201 4.47274 10.4322C4.18515 10.3443 3.89168 10.2857 3.60909 10.2597C3.32649 10.2337 3.06031 10.2409 2.82573 10.2809C2.59115 10.3208 2.39278 10.3927 2.24193 10.4925C2.09108 10.5923 1.99071 10.718 1.94656 10.8624C1.9024 11.0068 1.91533 11.1672 1.98459 11.3342C2.05385 11.5013 2.1781 11.6719 2.35023 11.8362C2.52237 12.0004 2.73902 12.1553 2.98782 12.2918C3.23662 12.4283 3.51269 12.5438 3.80028 12.6317Z" fill="#FFE236" stroke="#231F20" stroke-miterlimit="10"/>
<path d="M23.0802 8.18095C23.2878 8.40445 23.6636 8.45462 24.1251 8.32042C24.5865 8.18623 25.0958 7.87866 25.5408 7.46538C25.9859 7.0521 26.3303 6.56697 26.4982 6.1167C26.6661 5.66643 26.6439 5.28792 26.4364 5.06442C26.3336 4.95375 26.1884 4.88448 26.0092 4.86055C25.8299 4.83662 25.62 4.8585 25.3915 4.92495C25.163 4.99139 24.9204 5.1011 24.6775 5.24781C24.4346 5.39452 24.1961 5.57535 23.9758 5.77999C23.7554 5.98462 23.5574 6.20905 23.3932 6.44045C23.2289 6.67186 23.1015 6.90572 23.0184 7.12867C22.9352 7.35162 22.8979 7.5593 22.9085 7.73985C22.9191 7.9204 22.9775 8.07028 23.0802 8.18095Z" fill="#FFE236" stroke="#231F20" stroke-miterlimit="10"/>
<path d="M25.9188 13.3179C25.943 13.6219 26.2066 13.8944 26.6518 14.0754C27.097 14.2564 27.6872 14.3311 28.2927 14.283C28.8981 14.2349 29.4691 14.068 29.8802 13.819C30.2912 13.5701 30.5086 13.2594 30.4844 12.9553C30.4603 12.6513 30.1966 12.3788 29.7514 12.1978C29.3063 12.0168 28.716 11.9421 28.1106 11.9902C27.5052 12.0383 26.9341 12.2052 26.5231 12.4541C26.112 12.7031 25.8947 13.0138 25.9188 13.3179Z" fill="#FFE236" stroke="#231F20" stroke-miterlimit="10"/>
</svg>
