<svg width="40" height="40" viewBox="0 0 40 40" fill="none" xmlns="http://www.w3.org/2000/svg">
<g clip-path="url(#clip0_2301_13673)">
<path d="M27.8 2.7C25 2.58048 22.2446 3.43182 20 5.11C17.7554 3.43182 15 2.58048 12.2 2.7C4.4 2.7 0.5 7.38 0.5 14.4C0.5 25.19 10.5 32.67 18.12 36.82C18.6965 37.1351 19.343 37.3002 20 37.3002C20.657 37.3002 21.3035 37.1351 21.88 36.82C29.55 32.67 39.5 25.19 39.5 14.4C39.5 7.38 35.6 2.7 27.8 2.7Z" fill="#FF52A1" stroke="#231F20" stroke-miterlimit="10"/>
<path d="M28.36 6.71001C32.74 6.25001 34.27 8.71001 34.9 10.47" stroke="white" stroke-miterlimit="10" stroke-linecap="round"/>
</g>
<defs>
<clipPath id="clip0_2301_13673">
<rect width="40" height="40" fill="white"/>
</clipPath>
</defs>
</svg>
