<svg width="40" height="40" viewBox="0 0 40 40" fill="none" xmlns="http://www.w3.org/2000/svg">
<path d="M19.5346 5.15888C21.6807 3.55428 24.3152 2.74038 26.9924 2.85478C34.0944 2.85478 39.1085 8.26408 39.1085 15.2619C39.1085 25.5772 29.5953 32.7293 22.2623 36.6966C21.1423 37.3089 19.7876 37.3089 18.6676 36.6966C10.4165 32.2034 0.891479 24.3465 0.891479 14.041C0.891479 7.32928 4.61988 2.85478 12.0777 2.85478C14.7546 2.74058 17.3887 3.55448 19.5346 5.15888Z" fill="#00034A" stroke="#00034A" stroke-miterlimit="10"/>
<path d="M26.9924 2.85478C24.3152 2.74038 21.6807 3.55428 19.5346 5.15888C17.3887 3.55448 14.7546 2.74058 12.0777 2.85478C4.61988 2.85478 0.891479 7.32928 0.891479 14.041C0.891479 24.3573 10.4519 31.5085 17.7377 35.4757C18.8578 36.0878 20.2123 36.0878 21.3324 35.4757C28.6654 31.5085 38.1786 24.3573 38.1786 14.041C38.1786 7.32928 34.4492 2.85478 26.9924 2.85478Z" fill="#9BFF00" stroke="#00034A" stroke-miterlimit="10"/>
</svg>
