<svg width="40" height="40" viewBox="0 0 40 40" fill="none" xmlns="http://www.w3.org/2000/svg">
<path d="M32.7101 3.88C31.6101 0.88 24.2701 0.5 20.0001 0.5C15.7301 0.5 8.39007 0.88 7.29007 3.88C6.18007 5.38 6.07007 13.38 6.07007 20C6.07007 26.62 6.18007 34.62 7.29007 36.12C8.39007 39.12 15.7301 39.5 20.0001 39.5C24.2701 39.5 31.6101 39.12 32.7101 36.12C33.8201 34.62 33.9301 26.62 33.9301 20C33.9301 13.38 33.8201 5.38 32.7101 3.88Z" fill="#FF52A1" stroke="#231F20" stroke-miterlimit="10"/>
<path d="M27.6301 7.40001C27.0001 6.22001 22.5601 6.07001 20.0001 6.07001C17.4401 6.07001 13.0001 6.22001 12.3701 7.40001C11.7101 7.99001 11.6401 11.13 11.6401 13.73C11.6401 16.33 11.7101 19.47 12.3701 20.06C13.0401 21.24 17.4401 21.39 20.0001 21.39C22.5601 21.39 27.0001 21.24 27.6301 20.06C28.2901 19.47 28.3601 16.33 28.3601 13.73C28.3601 11.13 28.2901 8.00001 27.6301 7.40001Z" fill="white" stroke="#231F20" stroke-miterlimit="10"/>
<path d="M15.47 24.63C15.3 24.33 14.41 24.18 13.73 24.18C13.05 24.18 12.17 24.33 11.99 24.63C11.7362 25.1381 11.6158 25.7025 11.64 26.27C11.617 26.8353 11.741 27.397 12 27.9C12.18 28.21 13.07 28.36 13.74 28.36C14.41 28.36 15.31 28.21 15.48 27.9C15.7405 27.3978 15.8614 26.8349 15.83 26.27C15.8567 25.7011 15.7325 25.1354 15.47 24.63Z" fill="white" stroke="#231F20" stroke-miterlimit="10"/>
<path d="M21.7401 24.63C21.5701 24.33 20.6701 24.18 20.0001 24.18C19.3301 24.18 18.4301 24.33 18.2601 24.63C18.0011 25.1363 17.8804 25.702 17.9101 26.27C17.8788 26.8349 17.9997 27.3978 18.2601 27.9C18.4301 28.21 19.3301 28.36 20.0001 28.36C20.6701 28.36 21.5701 28.21 21.7401 27.9C22.0006 27.3978 22.1215 26.8349 22.0901 26.27C22.1199 25.702 21.9991 25.1363 21.7401 24.63Z" fill="white" stroke="#231F20" stroke-miterlimit="10"/>
<path d="M15.47 31.6C15.3 31.29 14.41 31.14 13.73 31.14C13.05 31.14 12.17 31.29 11.99 31.6C11.7344 32.104 11.6138 32.6656 11.64 33.23C11.6188 33.7984 11.7427 34.3628 12 34.87C12.18 35.17 13.07 35.32 13.74 35.32C14.41 35.32 15.31 35.17 15.48 34.87C15.739 34.3637 15.8597 33.798 15.83 33.23C15.8582 32.6642 15.7339 32.1013 15.47 31.6Z" fill="white" stroke="#231F20" stroke-miterlimit="10"/>
<path d="M21.7401 31.6C21.5701 31.29 20.6701 31.14 20.0001 31.14C19.3301 31.14 18.4301 31.29 18.2601 31.6C17.9997 32.1022 17.8788 32.6651 17.9101 33.23C17.8804 33.798 18.0011 34.3637 18.2601 34.87C18.4301 35.17 19.3301 35.32 20.0001 35.32C20.6701 35.32 21.5701 35.17 21.7401 34.87C21.9991 34.3637 22.1199 33.798 22.0901 33.23C22.1215 32.6651 22.0006 32.1022 21.7401 31.6Z" fill="white" stroke="#231F20" stroke-miterlimit="10"/>
<path d="M28.0001 24.63C27.8201 24.33 26.9301 24.18 26.2601 24.18C25.5901 24.18 24.6901 24.33 24.5201 24.63C24.2611 25.1363 24.1404 25.702 24.1701 26.27C24.1388 26.8349 24.2597 27.3978 24.5201 27.9C24.6901 28.21 25.5801 28.36 26.2601 28.36C26.9401 28.36 27.8201 28.21 28.0001 27.9C28.2557 27.396 28.3763 26.8344 28.3501 26.27C28.3744 25.7025 28.254 25.1381 28.0001 24.63Z" fill="white" stroke="#231F20" stroke-miterlimit="10"/>
<path d="M28.0001 31.6C27.8201 31.29 26.9301 31.14 26.2601 31.14C25.5901 31.14 24.6901 31.29 24.5201 31.6C24.2597 32.1022 24.1388 32.6651 24.1701 33.23C24.1404 33.798 24.2611 34.3637 24.5201 34.87C24.6901 35.17 25.5801 35.32 26.2601 35.32C26.9401 35.32 27.8201 35.17 28.0001 34.87C28.254 34.3619 28.3744 33.7975 28.3501 33.23C28.3763 32.6656 28.2557 32.104 28.0001 31.6Z" fill="white" stroke="#231F20" stroke-miterlimit="10"/>
<path d="M26.5801 3.29001C30.2901 4.14001 30.2901 4.14001 31.1401 7.46001" stroke="white" stroke-miterlimit="10" stroke-linecap="round"/>
</svg>
