<svg width="40" height="40" viewBox="0 0 40 40" fill="none" xmlns="http://www.w3.org/2000/svg">
<g clip-path="url(#clip0_2301_13623)">
<path d="M34.0001 23.32C33.1921 22.6392 32.2526 22.132 31.2401 21.83C31.3001 21.53 31.3601 21.24 31.4101 20.92C31.5585 20.0513 31.528 19.1614 31.3202 18.3049C31.1125 17.4484 30.7319 16.6434 30.2019 15.9393C29.672 15.2351 29.0037 14.6467 28.2382 14.21C27.4726 13.7734 26.626 13.4977 25.7501 13.4C24.8868 13.214 23.9946 13.2069 23.1285 13.3792C22.2624 13.5515 21.4408 13.8996 20.7145 14.4019C19.9882 14.9042 19.3726 15.5501 18.9057 16.2997C18.4389 17.0493 18.1306 17.8866 18.0001 18.76C17.9501 19.08 17.9101 19.37 17.8701 19.68C16.8169 19.6413 15.7673 19.8253 14.7901 20.22C12.8701 20.77 11.2801 24.92 10.7901 28.15C10.3001 31.38 10.6501 34.71 12.3001 35.84C13.0501 36.84 17.6801 38.42 21.6201 39.06C25.5601 39.7 30.4601 39.63 31.4901 38.94C33.4101 38.39 34.8101 35.35 35.3301 32.12C35.8501 28.89 35.6101 24.44 34.0001 23.32ZM25.2101 16.75C26.9201 17.02 28.1301 18.33 27.7701 20.75C26.7701 20.49 25.6901 20.26 24.6701 20.09C23.6501 19.92 22.5901 19.81 21.5301 19.74C21.9101 17.34 23.4701 16.47 25.1701 16.75H25.2101Z" fill="#FF52A1" stroke="#231F20" stroke-miterlimit="10"/>
<path d="M13.3301 26.28C14.2301 28.72 18.6201 29.43 23.0101 30.14C27.4001 30.85 31.8001 31.55 33.4101 29.53" stroke="#231F20" stroke-miterlimit="10" stroke-linecap="round"/>
<path d="M19.6702 27.81C19.5802 27.46 18.8902 27.18 18.3502 27.09C17.8102 27 17.0702 27.09 16.8802 27.35C16.5782 27.872 16.3875 28.4508 16.3202 29.05C16.2006 29.6407 16.2006 30.2493 16.3202 30.84C16.4102 31.19 17.1002 31.47 17.6402 31.56C18.1802 31.65 18.9202 31.56 19.1102 31.29C19.414 30.7689 19.6048 30.1897 19.6702 29.59C19.7895 29.0027 19.7895 28.3973 19.6702 27.81Z" fill="white" stroke="#231F20" stroke-miterlimit="10"/>
<path d="M29.71 29.43C29.62 29.08 28.93 28.8 28.39 28.71C27.85 28.62 27.11 28.71 26.92 28.98C26.6162 29.5011 26.4254 30.0803 26.36 30.68C26.2342 31.27 26.2342 31.88 26.36 32.47C26.44 32.81 27.13 33.09 27.67 33.18C28.21 33.27 28.95 33.18 29.14 32.92C29.4419 32.3972 29.6357 31.8191 29.71 31.22C29.8259 30.629 29.8259 30.021 29.71 29.43Z" fill="white" stroke="#231F20" stroke-miterlimit="10"/>
<path d="M30.4202 24.47C32.7502 24.65 32.6602 25.83 32.5702 27.01" stroke="white" stroke-miterlimit="10" stroke-linecap="round"/>
<path d="M18.76 14C18.5664 12.7906 17.9552 11.6873 17.0327 10.8816C16.1101 10.076 14.9345 9.619 13.71 9.59V9.49C14.5201 9.30173 15.2228 8.80076 15.6649 8.09637C16.1071 7.39198 16.2527 6.54134 16.07 5.73C15.59 3.66 12.91 3.21 10.54 3.29C10.3471 2.60902 10.0646 1.95666 9.70005 1.35C9.26005 0.519999 7.85005 0.369999 6.86005 0.589999C5.87005 0.809999 4.67005 1.59 4.62005 2.51C4.54861 3.2377 4.58229 3.97189 4.72005 4.69C2.00005 6.11 -0.119952 8.77 0.890047 13.22C1.08266 14.4272 1.69445 15.528 2.61798 16.329C3.5415 17.13 4.71771 17.58 5.94005 17.6V17.7C5.538 17.7897 5.1577 17.9581 4.82108 18.1955C4.48446 18.433 4.19819 18.7347 3.97879 19.0833C3.75938 19.432 3.61118 19.8206 3.54275 20.2268C3.47431 20.633 3.48699 21.0487 3.58005 21.45C4.12005 23.82 6.90005 24.14 9.14005 24C9.3234 24.6494 9.59243 25.2716 9.94005 25.85C10.4 26.68 11.81 26.85 12.8 26.6C13.79 26.35 14.99 25.6 15.04 24.68C15.1059 23.9792 15.0756 23.2726 14.95 22.58C17.7 21.25 19.86 18.76 18.76 14Z" fill="#48EEFF" stroke="#231F20" stroke-linejoin="round"/>
<path d="M13.7101 9.54999C12.1344 9.56725 10.579 9.9076 9.14014 10.55" stroke="#231F20" stroke-linecap="round" stroke-linejoin="round"/>
<path d="M5.93994 17.6C7.5201 17.6245 9.08441 17.2822 10.5099 16.6" stroke="#231F20" stroke-linecap="round" stroke-linejoin="round"/>
<path d="M11.53 5.32C11.9592 5.19756 12.4129 5.18944 12.8462 5.29644C13.2794 5.40344 13.6772 5.62185 14 5.93" stroke="white" stroke-miterlimit="10" stroke-linecap="round"/>
<path d="M26.0273 9.27158C26.2369 9.28572 26.4501 9.21715 26.6546 9.06977C26.8591 8.92238 27.0509 8.69908 27.2192 8.41261C27.3874 8.12614 27.5287 7.78211 27.6351 7.40016C27.7415 7.01821 27.8108 6.60582 27.8391 6.18655C27.8673 5.76727 27.8541 5.34931 27.8 4.95654C27.7459 4.56376 27.652 4.20386 27.5238 3.89739C27.3956 3.59091 27.2355 3.34386 27.0526 3.17034C26.8698 2.99683 26.6677 2.90024 26.4581 2.8861C26.0347 2.85753 25.606 3.16651 25.2662 3.74507C24.9264 4.32362 24.7034 5.12436 24.6463 5.97113C24.5892 6.81789 24.7026 7.64133 24.9616 8.26028C25.2205 8.87924 25.6039 9.24301 26.0273 9.27158Z" fill="#FFE236" stroke="#231F20" stroke-miterlimit="10"/>
<path d="M30.111 10.6534C30.2873 10.7677 30.5069 10.8114 30.7573 10.782C31.0077 10.7527 31.2839 10.6508 31.5702 10.4823C31.8565 10.3137 32.1472 10.0818 32.4259 9.79976C32.7045 9.5177 32.9656 9.19103 33.1941 8.8384C33.4227 8.48577 33.6143 8.11407 33.758 7.74455C33.9017 7.37502 33.9947 7.0149 34.0316 6.68474C34.0686 6.35458 34.0487 6.06085 33.9733 5.82032C33.8979 5.57979 33.7683 5.39717 33.592 5.28288C33.4157 5.1686 33.1961 5.12489 32.9457 5.15426C32.6954 5.18362 32.4191 5.28548 32.1328 5.45402C31.8465 5.62256 31.5558 5.85448 31.2771 6.13653C30.9985 6.41859 30.7374 6.74526 30.5089 7.0979C30.2803 7.45053 30.0887 7.82222 29.945 8.19175C29.8013 8.56127 29.7083 8.9214 29.6714 9.25156C29.6345 9.58172 29.6543 9.87545 29.7297 10.116C29.8051 10.3565 29.9347 10.5391 30.111 10.6534Z" fill="#FFE236" stroke="#231F20" stroke-miterlimit="10"/>
<path d="M33.8318 13.9496C34.0685 14.3018 34.5754 14.4514 35.2408 14.3657C35.9063 14.2799 36.6758 13.9657 37.3801 13.4922C38.0845 13.0188 38.6659 12.4248 38.9966 11.8409C39.3272 11.2571 39.38 10.7313 39.1432 10.3791C38.9065 10.0269 38.3997 9.87729 37.7342 9.96306C37.0688 10.0488 36.2992 10.363 35.5949 10.8365C34.8906 11.31 34.3091 11.904 33.9785 12.4878C33.6478 13.0716 33.5951 13.5974 33.8318 13.9496Z" fill="#FFE236" stroke="#231F20" stroke-miterlimit="10"/>
</g>
<defs>
<clipPath id="clip0_2301_13623">
<rect width="40" height="40" fill="white"/>
</clipPath>
</defs>
</svg>
