<svg width="40" height="40" viewBox="0 0 40 40" fill="none" xmlns="http://www.w3.org/2000/svg">
<path d="M34.9362 7.13541C36.1405 8.61461 36.5776 15.0799 36.5776 20.6247C36.5776 26.1706 36.1415 32.6348 34.9372 34.1141C34.7761 34.3695 31.2596 39.1089 20.5569 39.1089C13.2263 39.1089 9.26686 36.8674 7.44866 35.3851C6.55656 34.6418 5.75566 33.7954 5.06276 32.8637C3.85846 31.3844 3.42236 24.9201 3.42236 19.3743C3.42236 13.8295 3.85846 7.36421 5.06276 5.88591C5.23366 5.65611 8.75606 0.891113 19.4431 0.891113C26.923 0.891113 30.8933 3.22501 32.6603 4.70431C33.5074 5.42711 34.2708 6.24251 34.9362 7.13541Z" fill="#00034A" stroke="#00034A" stroke-miterlimit="10"/>
<path d="M33.8233 5.88691C33.6603 5.66881 30.1438 0.891113 19.4431 0.891113C8.74236 0.891113 5.22386 5.66881 5.06276 5.88691C3.85946 7.36421 3.42236 13.8304 3.42236 19.3753C3.42236 24.9211 3.85946 31.3854 5.06276 32.8647C5.22386 33.0817 8.74126 37.8594 19.4431 37.8594C30.1449 37.8594 33.6613 33.12 33.8233 32.8647C35.0266 31.3854 35.4627 24.9211 35.4627 19.3753C35.4627 13.8304 35.0276 7.36521 33.8233 5.88691Z" fill="#9BFF00" stroke="#00034A" stroke-miterlimit="10"/>
<path d="M32.2213 10.7491C29.9365 13.0721 25.6706 14.4463 19.4421 14.4463C13.2146 14.4463 8.94961 13.0711 6.65601 10.7491" stroke="#00034A" stroke-miterlimit="10" stroke-linecap="round"/>
<path d="M32.2213 19.3752C29.9365 21.6972 25.6706 23.0724 19.4421 23.0724C13.2146 23.0724 8.94961 21.6972 6.65601 19.3752" stroke="#00034A" stroke-miterlimit="10" stroke-linecap="round"/>
<path d="M32.2213 26.7688C29.9365 29.0918 25.6706 30.466 19.4421 30.466C13.2146 30.466 8.94961 29.0908 6.65601 26.7688" stroke="#00034A" stroke-miterlimit="10" stroke-linecap="round"/>
<path d="M19.4431 9.82976C23.0401 9.82976 25.9554 8.72666 25.9554 7.36526C25.9554 6.00386 23.0401 4.90076 19.4431 4.90076C15.8461 4.90076 12.9307 6.00386 12.9307 7.36626C12.9307 8.72566 15.848 9.82976 19.4431 9.82976Z" fill="#9BFF00" stroke="#00034A" stroke-miterlimit="10"/>
</svg>
