<svg width="40" height="40" viewBox="0 0 40 40" fill="none" xmlns="http://www.w3.org/2000/svg">
<g clip-path="url(#clip0_2301_13610)">
<path d="M28.6113 29.8617C23.5068 29.8617 19.3705 25.4516 19.3705 20.0049C19.3705 14.5582 23.5068 10.1481 28.6113 10.1481C29.2695 10.1497 29.9256 10.2251 30.567 10.373C31.4864 10.6058 32.3132 9.756 32.0551 8.8433C32.0113 8.6885 31.9376 8.5438 31.8382 8.4172C28.9927 4.8285 24.426 2.7457 18.1482 2.7457C6.63871 2.7554 0.888916 9.6591 0.888916 20.0049C0.888916 30.3507 6.63871 37.2543 18.1384 37.2543C24.4456 37.2543 29.0122 35.1715 31.8284 31.5828C32.4145 30.837 31.9735 29.7365 31.0347 29.6018C30.8754 29.579 30.7132 29.5875 30.5572 29.627C29.9193 29.7775 29.2666 29.8562 28.6113 29.8617Z" fill="#48EEFF" stroke="#231F20" stroke-miterlimit="10"/>
<path d="M38.5855 17.5505C37.9108 17.2333 37.1974 17.0065 36.4635 16.8757C35.9123 16.7641 35.3532 16.6955 34.7914 16.6704C34.6004 16.1775 34.3716 15.7002 34.1069 15.2427C33.7486 14.589 33.3119 13.9815 32.8063 13.4337C32.481 13.122 31.9679 13.122 31.6427 13.4337C31.1371 13.9815 30.7003 14.589 30.3421 15.2427C30.0856 15.7064 29.8602 16.1866 29.6674 16.6802C29.1378 16.7044 28.6111 16.7731 28.093 16.8855C27.359 17.0282 26.6437 17.2546 25.9613 17.5602C25.5711 17.7828 25.4143 18.2657 25.5995 18.675C25.9678 19.3242 26.4108 19.9281 26.9196 20.4742C27.2865 20.8645 27.6785 21.2303 28.093 21.5694C27.9411 22.1202 27.8364 22.6828 27.7801 23.2514C27.6905 23.9918 27.6905 24.7404 27.7801 25.4809C27.8691 25.9348 28.301 26.2371 28.758 26.1654C29.4906 26.0155 30.203 25.7792 30.8799 25.4613C31.3597 25.2392 31.8236 24.9844 32.2685 24.6986C32.7175 24.983 33.1846 25.2378 33.6668 25.4613C34.3438 25.7792 35.0561 26.0155 35.7888 26.1654C36.2457 26.2371 36.6776 25.9348 36.7666 25.4809C36.8562 24.7404 36.8562 23.9918 36.7666 23.2514C36.7163 22.706 36.6181 22.1661 36.4733 21.6379C36.9258 21.2826 37.3447 20.8865 37.7249 20.4547C38.2416 19.9187 38.6855 19.3171 39.045 18.6652C39.2271 18.2305 39.021 17.7307 38.5855 17.5505Z" fill="#FFE236" stroke="#231F20" stroke-miterlimit="10"/>
<path d="M19.0381 5.2099C20.7985 5.1492 22.5534 5.4384 24.2012 6.0606" stroke="white" stroke-miterlimit="10" stroke-linecap="round"/>
</g>
<defs>
<clipPath id="clip0_2301_13610">
<rect width="40" height="40" fill="white"/>
</clipPath>
</defs>
</svg>
