<svg width="40" height="40" viewBox="0 0 40 40" fill="none" xmlns="http://www.w3.org/2000/svg">
<g clip-path="url(#clip0_2301_14908)">
<path d="M35.834 16.153C36.5762 16.2851 37.2977 16.5144 37.98 16.835C38.36 16.992 38.955 17.716 39.248 18.01C39.3686 18.1306 39.4506 18.2844 39.4835 18.4518C39.5165 18.6192 39.4989 18.7926 39.433 18.95C39.0697 19.6092 38.6212 20.2178 38.099 20.76C37.7144 21.1965 37.2906 21.5968 36.833 21.956C36.979 22.49 37.079 23.036 37.13 23.588C37.22 24.336 37.22 25.093 37.13 25.842C37.0867 26.0631 36.9593 26.2587 36.7747 26.3878C36.59 26.5168 36.3625 26.5693 36.14 26.534C35.3993 26.3824 34.6793 26.1434 33.995 25.822C33.508 25.596 33.035 25.339 32.582 25.051C32.132 25.34 31.662 25.598 31.178 25.822C30.4934 26.1434 29.773 26.3824 29.032 26.534C28.8096 26.5688 28.5824 26.5162 28.398 26.387C28.165 26.224 27.1 25.083 27.055 24.853C26.9644 24.1044 26.9644 23.3476 27.055 22.599C27.1093 22.0474 27.2086 21.5013 27.352 20.966C27.2225 20.8342 27.0968 20.6989 26.975 20.56C26.7004 20.3154 26.4369 20.0588 26.185 19.791C25.6705 19.2385 25.2224 18.6277 24.85 17.971C24.76 17.7714 24.7476 17.5454 24.8153 17.3372C24.883 17.129 25.0259 16.9535 25.216 16.845C25.9059 16.536 26.6289 16.3071 27.371 16.163C27.8949 16.0492 28.4274 15.9796 28.963 15.955C29.158 15.455 29.386 14.97 29.645 14.501C30.0072 13.8401 30.4488 13.2258 30.96 12.672C31.1183 12.5201 31.3291 12.4353 31.5485 12.4353C31.7679 12.4353 31.9787 12.5201 32.137 12.672C32.969 13.574 33.831 14.377 34.44 15.49C34.534 15.653 34.624 15.818 34.709 15.985C35.086 16.021 35.462 16.077 35.834 16.153Z" fill="#00034A" stroke="#00034A" stroke-miterlimit="10"/>
<path d="M37.9801 16.835C37.2978 16.5144 36.5763 16.2851 35.8341 16.153C35.277 16.0401 34.712 15.9705 34.1441 15.945C33.9511 15.4465 33.7197 14.9637 33.4521 14.501C33.0899 13.84 32.6483 13.2258 32.1371 12.672C31.9788 12.5201 31.768 12.4353 31.5486 12.4353C31.3293 12.4353 31.1184 12.5201 30.9601 12.672C30.4489 13.2261 30.0073 13.8407 29.6451 14.502C29.3851 14.97 29.1581 15.456 28.9631 15.955C28.4276 15.9796 27.895 16.0492 27.3711 16.163C26.6291 16.3071 25.906 16.536 25.2161 16.845C25.0257 16.9535 24.8827 17.1292 24.815 17.3376C24.7473 17.5461 24.7598 17.7723 24.8501 17.972C25.2225 18.6287 25.6706 19.2395 26.1851 19.792C26.5551 20.186 26.9521 20.555 27.3711 20.898C27.2171 21.455 27.1111 22.024 27.0551 22.599C26.9645 23.3476 26.9645 24.1044 27.0551 24.853C27.0984 25.0737 27.2255 25.269 27.4097 25.398C27.5939 25.527 27.8209 25.5797 28.0431 25.545C28.7841 25.3934 29.5045 25.1544 30.1891 24.833C30.6741 24.6086 31.1432 24.3513 31.5931 24.063C32.0471 24.35 32.5191 24.607 33.0071 24.833C33.6913 25.1546 34.4114 25.3936 35.1521 25.545C35.3745 25.58 35.6017 25.5274 35.7861 25.3984C35.9706 25.2694 36.0978 25.0739 36.1411 24.853C36.2311 24.105 36.2311 23.348 36.1411 22.599C36.09 22.0477 35.9906 21.5019 35.8441 20.968C36.3021 20.608 36.7251 20.208 37.1101 19.771C37.6323 19.2288 38.0808 18.6203 38.4441 17.961C38.488 17.8566 38.5108 17.7446 38.5112 17.6314C38.5117 17.5182 38.4897 17.406 38.4465 17.3014C38.4034 17.1967 38.34 17.1016 38.2599 17.0216C38.1799 16.9415 38.0848 16.8781 37.9801 16.835Z" fill="white" stroke="#00034A" stroke-miterlimit="10"/>
<path d="M22.784 27.248C24.369 28.568 26.363 29.353 28.53 29.353C29.1924 29.3475 29.8522 29.268 30.497 29.116C31.743 28.822 32.709 30.305 33.084 30.881C33.2255 31.099 33.2953 31.3559 33.2835 31.6156C33.2716 31.8753 33.1788 32.1248 33.018 32.329C30.171 35.958 25.554 38.064 19.177 38.064C8.32 38.064 0.5 30.25 0.5 19.387C0.5 8.92701 6.314 1.94701 17.95 1.93701C23.947 1.93701 29.298 4.20201 33.028 8.90701C33.189 9.11136 33.2819 9.36101 33.2937 9.6209C33.3056 9.88078 33.2357 10.1378 33.0939 10.356C32.9521 10.5741 32.7456 10.7423 32.5033 10.837C32.261 10.9317 31.9951 10.9482 31.743 10.884C31.0946 10.7347 30.4314 10.6585 29.766 10.657C24.605 10.657 20.422 15.116 20.422 20.623C20.422 23.167 21.315 25.487 22.784 27.248Z" fill="#00034A" stroke="#00034A" stroke-miterlimit="10"/>
<path d="M28.53 29.353C23.369 29.353 19.186 24.894 19.186 19.387C19.186 13.88 23.369 9.42103 28.53 9.42103C29.1954 9.42253 29.8586 9.49868 30.507 9.64804C30.759 9.71152 31.0245 9.69464 31.2664 9.59975C31.5083 9.50486 31.7145 9.33671 31.8561 9.11883C31.9978 8.90096 32.0677 8.64425 32.0562 8.38465C32.0447 8.12505 31.9523 7.87554 31.792 7.67104C28.915 4.04204 24.298 1.93604 17.951 1.93604C6.314 1.94604 0.5 8.92603 0.5 19.387C0.5 29.847 6.314 36.827 17.94 36.827C24.318 36.827 28.935 34.722 31.783 31.093C31.9435 30.8885 32.036 30.6388 32.0475 30.3791C32.059 30.1193 31.9889 29.8625 31.8471 29.6446C31.7054 29.4266 31.499 29.2585 31.2569 29.1637C31.0147 29.0689 30.7491 29.0522 30.497 29.116C29.8522 29.268 29.1924 29.3475 28.53 29.353Z" fill="#9BFF00" stroke="#00034A" stroke-miterlimit="10"/>
</g>
<defs>
<clipPath id="clip0_2301_14908">
<rect width="40" height="40" fill="white"/>
</clipPath>
</defs>
</svg>
