<svg width="40" height="40" viewBox="0 0 40 40" fill="none" xmlns="http://www.w3.org/2000/svg">
<path d="M35.38 3.88C34.16 0.88 26.09 0.5 21.39 0.5C17.74 0.5 12.07 0.74 9.15004 2.25C8.62104 2.00416 8.0433 1.8811 7.46004 1.89C6.12004 1.89 4.33004 2.41 3.98004 5.17C3.63004 6.55 3.29004 13.9 3.29004 20C3.29004 26.1 3.63004 33.45 4.00004 34.83C4.35004 37.59 6.14004 38.11 7.48004 38.11C8.0633 38.1189 8.64104 37.9958 9.17004 37.75C12.09 39.26 17.76 39.5 21.41 39.5C26.11 39.5 34.18 39.12 35.41 36.12C36.62 34.62 36.74 26.62 36.74 20C36.74 13.38 36.59 5.38 35.38 3.88Z" fill="#48EEFF" stroke="#231F20" stroke-miterlimit="10"/>
<path d="M13.04 20C13.04 22.4002 13.9935 24.7021 15.6907 26.3993C17.3879 28.0965 19.6898 29.05 22.09 29.05C24.4902 29.05 26.7922 28.0965 28.4894 26.3993C30.1866 24.7021 31.14 22.4002 31.14 20C31.14 17.5998 30.1866 15.2979 28.4894 13.6007C26.7922 11.9035 24.4902 10.95 22.09 10.95C19.6898 10.95 17.3879 11.9035 15.6907 13.6007C13.9935 15.2979 13.04 17.5998 13.04 20Z" fill="white" stroke="#231F20" stroke-miterlimit="10"/>
<path d="M20.1501 26.47C19.2901 25.37 18.8601 23.04 18.8601 20C18.8601 16.96 19.2901 14.63 20.1501 13.53" stroke="#231F20" stroke-miterlimit="10" stroke-linecap="round"/>
<path d="M24 13.53C24.86 14.63 25.29 16.96 25.29 20C25.29 23.04 24.86 25.37 24 26.47" stroke="#231F20" stroke-miterlimit="10" stroke-linecap="round"/>
<path d="M16.0801 17.64C18.0685 17.3713 20.0738 17.2476 22.0801 17.27C24.0864 17.2467 26.0918 17.3704 28.0801 17.64" stroke="#231F20" stroke-miterlimit="10" stroke-linecap="round"/>
<path d="M28.0901 22.36C26.1018 22.6296 24.0964 22.7533 22.0901 22.73C20.0838 22.7524 18.0785 22.6288 16.0901 22.36" stroke="#231F20" stroke-miterlimit="10" stroke-linecap="round"/>
<path d="M8.85997 8.85999C8.58997 12.57 8.58997 27.43 8.85997 31.14V8.85999Z" fill="white"/>
<path d="M8.85997 8.85999C8.58997 12.57 8.58997 27.43 8.85997 31.14" stroke="#231F20" stroke-miterlimit="10" stroke-linecap="round"/>
<path d="M28.52 3.67999C32.3 4.23999 32.52 4.20999 32.99 6.09999" stroke="white" stroke-miterlimit="10" stroke-linecap="round"/>
</svg>
