<svg width="40" height="40" viewBox="0 0 40 40" fill="none" xmlns="http://www.w3.org/2000/svg">
<g clip-path="url(#clip0_2301_14832)">
<path d="M35.285 2.425C31.845 0.747 24.312 0.5 19.536 0.5C13.68 0.5 3.673 0.871 2.16 3.8C0.646 5.264 0.5 13.074 0.5 19.536C0.5 24.533 0.588 30.335 1.327 33.386C1.785 35.281 3.121 36.851 4.911 37.655C8.442 39.241 15.765 39.478 20.441 39.478C26.299 39.478 36.305 39.107 37.818 36.178C39.331 34.714 39.478 26.904 39.478 20.442C39.478 15.411 39.389 9.564 38.636 6.529C38.194 4.749 36.944 3.234 35.285 2.425Z" fill="#00034A" stroke="#00034A" stroke-miterlimit="10"/>
<path d="M36.913 3.8C35.4 0.87 25.393 0.5 19.536 0.5C13.68 0.5 3.673 0.871 2.16 3.8C0.646 5.264 0.5 13.074 0.5 19.536C0.5 26 0.646 33.81 2.16 35.273C3.673 38.201 13.679 38.573 19.536 38.573C25.393 38.573 35.4 38.201 36.913 35.273C38.426 33.808 38.573 25.999 38.573 19.536C38.573 13.074 38.426 5.264 36.913 3.8Z" fill="#9BFF00" stroke="#00034A" stroke-miterlimit="10"/>
<path d="M33.2031 7.94899C32.0031 6.17199 24.1241 5.93799 19.5361 5.93799C14.9481 5.93799 7.07005 6.17199 5.86905 7.94799C4.69805 8.79799 4.58105 13.571 4.58105 17.496C4.58105 21.42 4.69805 26.165 5.86905 27.053C7.05005 28.83 14.9291 29.054 19.5361 29.054C24.1441 29.054 32.0021 28.83 33.2031 27.053C34.3941 26.165 34.5111 21.42 34.5111 17.496C34.5111 13.572 34.3751 8.79799 33.2031 7.94899Z" fill="white" stroke="#00034A" stroke-miterlimit="10"/>
<path d="M26.887 15.631C26.0181 14.1361 24.9619 12.7583 23.744 11.531C23.3511 11.194 22.8506 11.0087 22.333 11.0087C21.8154 11.0087 21.3149 11.194 20.922 11.531C19.7111 12.7619 18.6586 14.1393 17.789 15.631C17.6701 15.8268 17.5561 16.0255 17.447 16.227C17.0478 15.6392 16.5865 15.0961 16.071 14.607C15.778 14.3576 15.4058 14.2206 15.021 14.2206C14.6362 14.2206 14.264 14.3576 13.971 14.607C13.0626 15.5244 12.2756 16.5545 11.629 17.672C11.385 18.082 10.019 20.444 10.019 21.655C10.0037 21.9945 10.103 22.3292 10.3011 22.6053C10.4992 22.8814 10.7845 23.0828 11.111 23.177C12.517 23.783 25.755 23.831 27.581 23.031C28.0149 22.9051 28.3943 22.638 28.6593 22.2722C28.9243 21.9063 29.0597 21.4625 29.044 21.011C29.044 20.903 29.298 19.653 26.887 15.631Z" fill="#9BFF00" stroke="#00034A" stroke-miterlimit="10"/>
</g>
<defs>
<clipPath id="clip0_2301_14832">
<rect width="40" height="40" fill="white"/>
</clipPath>
</defs>
</svg>
