<svg width="40" height="40" viewBox="0 0 40 40" fill="none" xmlns="http://www.w3.org/2000/svg">
<path d="M26.9669 12.752C30.5569 11.708 34.7379 11.919 35.5539 12.846C38.2239 16.027 34.8359 23.213 32.3239 25.472C29.4269 27.912 26.3639 28.466 23.7779 26.649C23.7379 27.684 23.6899 28.794 23.6359 29.796L23.7239 29.831C26.2869 30.861 30.4859 32.592 30.4859 35.961C30.4759 37.332 29.6399 37.974 28.3279 38.441C25.7679 38.951 23.1609 39.191 20.5509 39.16C17.9406 39.1904 15.3342 38.9491 12.7739 38.44C11.4109 37.946 10.2109 36.717 10.2109 35.185C10.2109 32.825 13.7659 31.17 16.2529 30.012C16.5219 29.887 16.7779 29.768 17.0159 29.654C16.9659 28.804 16.9199 27.836 16.8799 26.881C12.8209 29.307 8.21691 25.899 6.3439 22.276C4.2789 18.816 3.53091 13.936 4.44591 12.846C5.30191 11.826 9.86091 11.679 13.5549 12.914C13.4605 12.3062 13.4117 11.6921 13.4089 11.077C13.4099 6.537 18.1919 0.5 19.9999 0.5C23.6459 0.5 27.0059 8.777 27.0059 11.824C27.0039 12.134 26.9919 12.444 26.9669 12.752Z" fill="#00034A" stroke="#00034A" stroke-miterlimit="10"/>
<path d="M35.554 12.846C34.699 11.874 30.139 11.689 26.445 12.914C26.5393 12.3062 26.5881 11.6921 26.591 11.077C26.591 6.537 21.808 0.5 20 0.5C18.192 0.5 13.41 6.537 13.41 11.077C13.412 11.692 13.46 12.306 13.555 12.914C9.86096 11.679 5.30196 11.825 4.44596 12.846C3.27996 14.236 4.81596 21.78 8.33496 24.696C11.251 27.126 14.265 27.68 16.841 25.892C16.889 27.146 16.948 28.507 17.016 29.654C14.576 30.82 10.211 32.57 10.211 35.185C10.211 36.575 11.047 37.217 12.359 37.693C14.919 38.203 17.526 38.443 20.136 38.413C22.746 38.445 25.353 38.203 27.913 37.693C29.226 37.227 30.061 36.585 30.071 35.214C30.071 32.152 25.415 30.529 23.189 29.615C23.257 28.478 23.315 27.136 23.364 25.902C25.949 27.719 29.012 27.165 31.908 24.725C35.185 21.78 36.721 14.237 35.554 12.846Z" fill="#9BFF00" stroke="#00034A" stroke-miterlimit="10"/>
<path d="M20 8.646V12.282" stroke="#00034A" stroke-miterlimit="10" stroke-linecap="round"/>
<path d="M25.376 20.2049C26.4092 18.7451 27.8748 17.6468 29.566 17.0649" stroke="#00034A" stroke-miterlimit="10" stroke-linecap="round"/>
<path d="M13.0301 20.2049C11.9969 18.7451 10.5312 17.6468 8.84009 17.0649" stroke="#00034A" stroke-miterlimit="10" stroke-linecap="round"/>
</svg>
