<svg width="40" height="40" viewBox="0 0 40 40" fill="none" xmlns="http://www.w3.org/2000/svg">
<g clip-path="url(#clip0_2301_13505)">
<path d="M36 13.2C35.12 12.2 30.43 12.01 26.63 13.27C26.727 12.6446 26.7772 12.0129 26.78 11.38C26.78 6.71 21.86 0.5 20 0.5C18.14 0.5 13.22 6.71 13.22 11.38C13.2229 12.0129 13.273 12.6446 13.37 13.27C9.57003 12 4.88003 12.15 4.00003 13.2C2.80003 14.63 4.38003 22.39 8.00003 25.39C11 27.89 14.1 28.46 16.75 26.62C16.8 27.91 16.86 29.31 16.93 30.49C14.42 31.69 9.93003 33.49 9.93003 36.18C9.93003 37.61 10.79 38.27 12.14 38.76C14.7738 39.2835 17.4549 39.5315 20.14 39.5C22.8252 39.5327 25.5064 39.2847 28.14 38.76C29.49 38.28 30.35 37.62 30.36 36.21C30.36 33.06 25.57 31.39 23.28 30.45C23.35 29.28 23.41 27.9 23.46 26.63C26.12 28.5 29.27 27.93 32.25 25.42C35.62 22.39 37.2 14.63 36 13.2Z" fill="#FFE236" stroke="#231F20" stroke-miterlimit="10"/>
<path d="M20 8.88V12.62" stroke="#231F20" stroke-miterlimit="10" stroke-linecap="round"/>
<path d="M25.53 20.77C26.5928 19.2684 28.1005 18.1386 29.84 17.54" stroke="#231F20" stroke-miterlimit="10" stroke-linecap="round"/>
<path d="M12.83 20.77C11.7672 19.2684 10.2596 18.1386 8.52002 17.54" stroke="#231F20" stroke-miterlimit="10" stroke-linecap="round"/>
<path d="M20.9399 4.45999C21.6091 5.18518 22.1532 6.0165 22.5499 6.91999" stroke="white" stroke-miterlimit="10" stroke-linecap="round"/>
</g>
<defs>
<clipPath id="clip0_2301_13505">
<rect width="40" height="40" fill="white"/>
</clipPath>
</defs>
</svg>
