<svg width="40" height="40" viewBox="0 0 40 40" fill="none" xmlns="http://www.w3.org/2000/svg">
<path d="M6.79919 22.5345C6.94339 25.8761 7.13769 28.7202 7.54479 30.3959C7.83129 31.5771 9.08609 33.0359 10.1535 33.6383C12.4894 34.9578 17.1161 35.2571 20.4763 35.2571C24.5949 35.2571 30.6726 34.8077 32.0961 32.6003C32.88 31.4064 33.1469 27.5174 33.3382 22.7209C34.7764 22.5473 36.1068 21.8703 37.0937 20.8098C38.326 19.5197 39.5307 17.4643 38.9666 16.2037C38.8518 15.4198 36.8259 12.6012 34.8863 10.537C34.5263 10.1544 34.1407 9.76589 33.7483 9.38909C31.8273 7.38479 29.3138 5.33729 28.582 5.18819C28.582 5.18819 27.9227 4.99689 26.9573 4.77709C26.2248 4.61869 25.5051 5.09319 25.3621 5.82879C24.2862 10.0227 19.2444 11.7135 15.8574 9.01629C15.3315 8.35559 14.9516 7.59089 14.7429 6.77259C14.5408 5.84159 13.236 4.56519 12.1941 4.76829C11.2386 4.99689 10.5322 5.16949 10.5027 5.18819C9.74729 5.34119 7.08169 7.52019 5.15199 9.58339C3.22219 11.6485 1.14819 14.4682 1.03339 15.251C0.469293 16.5127 1.67409 18.6053 2.94449 19.8376C3.24769 20.1662 3.57729 20.4802 3.89809 20.7912C4.67879 21.6377 5.68539 22.242 6.79919 22.5345Z" fill="#00034A" stroke="#00034A" stroke-miterlimit="10"/>
<path d="M38.014 15.2501C37.8982 14.4672 35.8733 11.6476 33.9327 9.58439C31.9931 7.52019 29.3374 5.34119 28.5819 5.18919C28.5819 5.18919 27.9227 4.99689 26.9573 4.77709C26.2249 4.61929 25.5056 5.09349 25.3621 5.82879C24.2201 10.2818 18.6859 11.8288 15.4005 8.61339C14.6176 7.84719 14.0606 6.88049 13.7903 5.81898C13.6322 5.09319 12.9233 4.62649 12.1941 4.76829C11.2385 4.99689 10.5322 5.16959 10.5027 5.18819C9.74729 5.34119 7.08169 7.52018 5.15199 9.58338C3.22219 11.6485 1.14819 14.4682 1.03339 15.251C0.469293 16.5127 1.67409 18.6053 2.94449 19.8376C3.94259 20.9199 5.30209 21.5996 6.76679 21.7487C6.95809 26.5265 7.22589 30.4351 8.00879 31.6291C9.38529 33.8561 15.4052 34.3045 19.5237 34.3045C23.6422 34.3045 29.719 33.8561 31.1425 31.6487C31.9264 30.4537 32.1942 26.5648 32.3856 21.7683C33.8234 21.5945 35.1534 20.9175 36.1401 19.8572C37.3733 18.5671 38.5771 16.5118 38.014 15.2501Z" fill="#9BFF00" stroke="#00034A" stroke-miterlimit="10"/>
<path d="M7.59766 18.366C7.60936 17.0219 7.76246 15.6827 8.05676 14.371" stroke="#00034A" stroke-miterlimit="10" stroke-linecap="round"/>
<path d="M31.5153 18.366C31.4823 17.0194 31.306 15.6802 30.9895 14.371" stroke="#00034A" stroke-miterlimit="10" stroke-linecap="round"/>
</svg>
