<svg width="40" height="40" viewBox="0 0 40 40" fill="none" xmlns="http://www.w3.org/2000/svg">
<g clip-path="url(#clip0_2301_13491)">
<path d="M25.51 11.54C25.5787 11.2364 25.5859 10.9221 25.5311 10.6156C25.4763 10.3092 25.3607 10.0168 25.191 9.75582C25.0214 9.49481 24.8011 9.27045 24.5433 9.09598C24.2855 8.92151 23.9953 8.80047 23.69 8.74001C23.4049 8.61575 23.0978 8.54983 22.7868 8.54612C22.4758 8.54242 22.1673 8.60101 21.8793 8.71844C21.5913 8.83586 21.3298 9.00975 21.11 9.22986C20.8903 9.44996 20.7169 9.71182 20.6 10C19.274 12.943 18.1514 15.9734 17.24 19.07C16.2314 22.1381 15.4362 25.2722 14.86 28.45C14.7913 28.7536 14.7841 29.0679 14.8388 29.3744C14.8936 29.6808 15.0093 29.9732 15.1789 30.2342C15.3486 30.4952 15.5688 30.7196 15.8266 30.894C16.0844 31.0685 16.3746 31.1896 16.68 31.25C16.9637 31.3744 17.2695 31.4406 17.5793 31.4449C17.8891 31.4492 18.1966 31.3913 18.4837 31.2748C18.7708 31.1583 19.0316 30.9855 19.2508 30.7665C19.47 30.5476 19.6431 30.287 19.76 30C21.0952 27.0597 22.2213 24.0288 23.13 20.93C24.139 17.8587 24.9342 14.7212 25.51 11.54Z" fill="#FF52A1" stroke="#231F20" stroke-miterlimit="10"/>
<path d="M8.31993 21.86C7.64993 21.14 6.90993 20.38 6.20993 19.7C6.90993 19.02 7.64993 18.26 8.31993 17.53C9.79185 15.9791 11.13 14.3065 12.3199 12.53C12.5561 12.1055 12.6355 11.6114 12.5441 11.1342C12.4526 10.657 12.1963 10.2272 11.8199 9.92002C11.2599 9.31002 10.3699 8.67002 9.40993 9.39002C7.7432 10.7138 6.19409 12.1793 4.77993 13.77C3.50895 15.1508 2.31386 16.5996 1.19993 18.11C0.979913 18.3123 0.804275 18.5581 0.684131 18.8318C0.563987 19.1055 0.501953 19.4011 0.501953 19.7C0.501953 19.9989 0.563987 20.2946 0.684131 20.5683C0.804275 20.8419 0.979913 21.0877 1.19993 21.29C2.33481 22.8011 3.5464 24.253 4.82993 25.64C6.24495 27.2239 7.79403 28.6826 9.45993 30C10.4599 30.71 11.3099 30.07 11.8699 29.46C12.2463 29.1528 12.5026 28.723 12.5941 28.2459C12.6855 27.7687 12.6061 27.2746 12.3699 26.85C11.161 25.077 9.8063 23.4079 8.31993 21.86Z" fill="#FF52A1" stroke="#231F20" stroke-miterlimit="10"/>
<path d="M31.68 17.53C32.35 18.26 33.09 19.02 33.79 19.7C33.09 20.38 32.35 21.14 31.68 21.86C30.1932 23.4111 28.8385 25.0835 27.63 26.86C27.3938 27.2846 27.3145 27.7787 27.4059 28.2558C27.4973 28.733 27.7536 29.1628 28.13 29.47C28.69 30.08 29.58 30.72 30.54 30.01C32.2067 28.6862 33.7558 27.2208 35.17 25.63C36.4535 24.243 37.6651 22.7911 38.8 21.28C39.02 21.0777 39.1957 20.8319 39.3158 20.5582C39.4359 20.2845 39.498 19.9889 39.498 19.69C39.498 19.3911 39.4359 19.0955 39.3158 18.8218C39.1957 18.5481 39.02 18.3023 38.8 18.1C37.6702 16.5849 36.4584 15.1328 35.17 13.75C33.7558 12.1592 32.2067 10.6938 30.54 9.37C29.54 8.65 28.69 9.29 28.13 9.9C27.7536 10.2072 27.4973 10.637 27.4059 11.1142C27.3145 11.5913 27.3938 12.0854 27.63 12.51C28.835 14.2953 30.1899 15.9747 31.68 17.53Z" fill="#FF52A1" stroke="#231F20" stroke-miterlimit="10"/>
<path d="M30.1899 11.25C30.8176 11.7004 31.3768 12.2393 31.8499 12.85" stroke="white" stroke-miterlimit="10" stroke-linecap="round"/>
<path d="M23 10.47C23.1256 10.4898 23.2454 10.5366 23.3511 10.6072C23.4569 10.6778 23.5461 10.7704 23.6126 10.8788C23.6791 10.9871 23.7214 11.1086 23.7365 11.2348C23.7516 11.361 23.7391 11.489 23.7 11.61" stroke="white" stroke-miterlimit="10" stroke-linecap="round"/>
<path d="M10.6199 11.07C10.7654 11.1628 10.8695 11.3082 10.9105 11.4759C10.9515 11.6435 10.9262 11.8205 10.8399 11.97" stroke="white" stroke-miterlimit="10" stroke-linecap="round"/>
</g>
<defs>
<clipPath id="clip0_2301_13491">
<rect width="40" height="40" fill="white"/>
</clipPath>
</defs>
</svg>
