<svg width="40" height="40" viewBox="0 0 40 40" fill="none" xmlns="http://www.w3.org/2000/svg">
<g clip-path="url(#clip0_2301_13456)">
<path d="M39.44 32C38.9641 30.2713 38.2399 28.6208 37.29 27.1C37.04 26.65 36.75 26.2 36.47 25.76C36.6662 25.6042 36.847 25.4301 37.01 25.24C37.2605 24.9764 37.417 24.6374 37.4549 24.2757C37.4929 23.914 37.4103 23.5499 37.22 23.24C37.22 23.24 36.86 22.24 33.53 20.36C32.3145 19.6665 31.0181 19.1257 29.67 18.75C29.2544 18.673 28.8249 18.7464 28.4585 18.9571C28.0921 19.1678 27.8126 19.5021 27.67 19.9C27.3208 21.239 27.1394 22.6162 27.13 24C27.13 24.53 27.13 27.49 27.78 28.64C27.9739 28.965 28.2591 29.2258 28.6 29.39C27.0859 29.4037 25.5774 29.578 24.1 29.91C23.5385 30.1601 23.0614 30.5676 22.7266 31.0831C22.3918 31.5987 22.2136 32.2003 22.2136 32.815C22.2136 33.4297 22.3918 34.0313 22.7266 34.5469C23.0614 35.0625 23.5385 35.4699 24.1 35.72C26.3251 36.1619 28.5922 36.3564 30.86 36.3C33.1245 36.3565 35.3884 36.162 37.61 35.72C39.39 35.28 39.65 32.87 39.44 32Z" fill="#FF52A1" stroke="#231F20" stroke-miterlimit="10"/>
<path d="M27.78 28.61C27.9522 28.9371 28.2287 29.1974 28.5657 29.3496C28.9026 29.5018 29.2807 29.5371 29.64 29.45C29.8816 29.3976 30.1189 29.3274 30.35 29.24C30.59 29.71 30.85 30.18 31.1 30.62" stroke="#231F20" stroke-miterlimit="10" stroke-linecap="round"/>
<path d="M17.6801 2.73999C16.4941 4.08387 15.5043 5.58878 14.7401 7.20999C14.5101 7.66999 14.2901 8.21 14.0701 8.64C13.837 8.55723 13.5955 8.50023 13.3501 8.47C12.9904 8.40024 12.6177 8.45294 12.2915 8.61969C11.9652 8.78643 11.7042 9.05762 11.5501 9.39C11.5501 9.39 10.8801 10.26 11.1501 14.06C11.2315 15.4595 11.4868 16.8435 11.9101 18.18C12.0774 18.5514 12.3678 18.8536 12.7322 19.0358C13.0965 19.218 13.5125 19.2689 13.9101 19.18C15.2392 18.7367 16.5062 18.125 17.6801 17.36C18.1201 17.08 20.6101 15.47 21.2101 14.29C21.3731 13.9478 21.4355 13.5663 21.3901 13.19C22.2267 14.4524 23.1992 15.6194 24.2901 16.67C24.7921 17.0373 25.398 17.2353 26.0201 17.2353C26.6421 17.2353 27.248 17.0373 27.7501 16.67C28.2827 16.3513 28.7033 15.8753 28.9541 15.3076C29.2048 14.7398 29.2733 14.1083 29.1501 13.5C28.3062 11.387 27.2295 9.37461 25.9401 7.49999C24.7509 5.5688 23.3525 3.77463 21.7701 2.14999C20.5001 0.999995 18.3401 2.04999 17.6801 2.73999Z" fill="#FF52A1" stroke="#231F20" stroke-miterlimit="10"/>
<path d="M21.2501 14.33C21.4245 14.0087 21.4886 13.639 21.4326 13.2777C21.3766 12.9164 21.2036 12.5835 20.9401 12.33C20.761 12.1575 20.5706 11.9971 20.3701 11.85C20.6301 11.39 20.8901 10.92 21.1201 10.47" stroke="#231F20" stroke-miterlimit="10" stroke-linecap="round"/>
<path d="M2.91994 35.88C4.65176 36.3349 6.44027 36.537 8.22994 36.48H9.80994C9.84598 36.7277 9.90284 36.9719 9.97994 37.21C10.0836 37.5616 10.3006 37.869 10.5973 38.0842C10.894 38.2995 11.2536 38.4105 11.6199 38.4C11.6199 38.4 12.6899 38.6 15.9599 36.65C17.1717 35.9464 18.2876 35.0893 19.2799 34.1C19.557 33.7829 19.7098 33.3761 19.7098 32.955C19.7098 32.5339 19.557 32.1271 19.2799 31.81C18.302 30.8098 17.1996 29.9394 15.9999 29.22C15.5499 28.95 12.9999 27.46 11.6599 27.46C11.2825 27.4678 10.9151 27.5822 10.5999 27.79C11.3462 26.4761 11.9465 25.0845 12.3899 23.64C12.4926 23.0248 12.3955 22.3929 12.113 21.8369C11.8305 21.2808 11.3773 20.8298 10.8199 20.55C10.3 20.2106 9.68567 20.0451 9.06559 20.0774C8.44551 20.1098 7.85173 20.3383 7.36994 20.73C5.87254 22.4322 4.57105 24.2973 3.48994 26.29C2.29839 28.2262 1.32575 30.2889 0.58994 32.44C0.05994 34.18 1.99994 35.61 2.91994 35.88Z" fill="#FF52A1" stroke="#231F20" stroke-miterlimit="10"/>
<path d="M11.64 27.46C11.2736 27.4494 10.914 27.5605 10.6174 27.7757C10.3207 27.991 10.1036 28.2984 10 28.65C9.92415 28.8884 9.86731 29.1325 9.83 29.38C9.3 29.38 8.77 29.33 8.25 29.33" stroke="#231F20" stroke-miterlimit="10" stroke-linecap="round"/>
<path d="M20.1899 3.85001C20.9499 3.92001 21.1899 4.21001 21.9399 5.48001" stroke="white" stroke-miterlimit="10" stroke-linecap="round"/>
<path d="M31.0999 21.24C31.9445 21.6249 32.7659 22.059 33.5599 22.54" stroke="white" stroke-miterlimit="10" stroke-linecap="round"/>
<path d="M9.83984 22.65C10.3198 23.03 10.4898 23.41 10.2798 23.78" stroke="white" stroke-miterlimit="10" stroke-linecap="round"/>
</g>
<defs>
<clipPath id="clip0_2301_13456">
<rect width="40" height="40" fill="white"/>
</clipPath>
</defs>
</svg>
