<svg width="40" height="40" viewBox="0 0 40 40" fill="none" xmlns="http://www.w3.org/2000/svg">
<g clip-path="url(#clip0_2301_14741)">
<path d="M23.2804 8.55479C23.2499 8.35479 23.2499 8.15139 23.2804 7.95139C22.6485 7.69289 21.9311 7.23399 22.1031 6.51659C22.2261 6.00939 22.7328 5.69419 23.2421 5.80799C22.5373 5.45749 22.1985 4.64119 22.448 3.89459C22.6199 2.83059 23.5523 2.05779 24.6298 2.08629C24.6897 1.87309 24.7801 1.66959 24.8971 1.48289C25.0415 1.26279 25.4523 1.19599 25.7589 1.26279C26.1501 1.34829 27.3569 1.73249 27.3569 2.21999C27.3864 2.43219 27.3864 2.64849 27.3569 2.86069C28.0075 3.15749 28.6767 3.63609 28.5333 4.25819C28.4099 4.76929 27.8974 5.08519 27.3854 4.96579C28.0836 5.32279 28.4167 6.13599 28.1696 6.88019C28.0448 7.96899 27.0918 8.77099 25.9978 8.70809C25.9388 8.91349 25.8513 9.10909 25.7393 9.29189C25.5958 9.52089 25.1654 9.59749 24.8686 9.52089C24.4725 9.41859 23.2804 9.05899 23.2804 8.55479Z" fill="#00034A"/>
<path d="M17.7583 6.2296C18.6408 6.2296 19.3572 5.5142 19.3572 4.6317C19.3572 3.4946 17.886 2.6593 16.8404 2.6593C15.9579 2.6593 15.2424 3.3747 15.2424 4.2582C15.2424 5.3943 16.7136 6.2296 17.7583 6.2296Z" fill="#00034A"/>
<path d="M30.0742 15.9608C29.6634 15.722 29.2133 15.2041 29.3273 14.7648C29.395 14.4486 29.5047 14.1429 29.6536 13.8558C28.831 13.1767 27.9593 12.1527 28.5529 11.1473C28.9694 10.4324 29.8878 10.1922 30.601 10.6117C29.7327 9.76991 29.5954 8.42561 30.2757 7.42561C31.0266 5.89611 32.7943 5.15931 34.4092 5.70291C34.5988 5.40801 34.8278 5.14171 35.0892 4.90881C35.6091 4.41841 36.8818 5.05621 37.4134 5.35891C37.835 5.59771 38.2753 6.11461 38.1603 6.55491C38.0896 6.88801 37.9736 7.20941 37.8164 7.51111C38.6674 8.25801 39.4615 9.30071 38.9446 10.1714C38.5253 10.8883 37.6037 11.1287 36.8877 10.708C37.7485 11.562 37.8809 12.9073 37.2031 13.9128C36.0071 15.9422 34.4377 16.1043 33.0697 15.6355C32.8869 15.9205 32.6638 16.178 32.4093 16.4021C31.8943 16.9013 30.6049 16.2694 30.0742 15.9608Z" fill="#00034A"/>
<path d="M23.2804 8.55479C23.2499 8.35479 23.2499 8.15139 23.2804 7.95139C22.6485 7.69289 21.9311 7.23399 22.1031 6.51659C22.2261 6.00939 22.7328 5.69419 23.2421 5.80799C22.5373 5.45749 22.1985 4.64119 22.448 3.89459C22.6199 2.83059 23.5523 2.05779 24.6298 2.08629C24.6897 1.87309 24.7801 1.66959 24.8971 1.48289C25.0415 1.26279 25.4523 1.19599 25.7589 1.26279C26.1501 1.34829 27.3569 1.73249 27.3569 2.21999C27.3864 2.43219 27.3864 2.64849 27.3569 2.86069C28.0075 3.15749 28.6767 3.63609 28.5333 4.25819C28.4099 4.76929 27.8974 5.08519 27.3854 4.96579C28.0836 5.32279 28.4167 6.13599 28.1696 6.88019C28.0448 7.96899 27.0918 8.77099 25.9978 8.70809C25.9388 8.91349 25.8513 9.10909 25.7393 9.29189C25.5958 9.52089 25.1654 9.59749 24.8686 9.52089C24.4725 9.41859 23.2804 9.05899 23.2804 8.55479Z" stroke="#00034A" stroke-linejoin="round"/>
<path d="M17.7583 6.2296C18.6408 6.2296 19.3572 5.5142 19.3572 4.6317C19.3572 3.4946 17.886 2.6593 16.8404 2.6593C15.9579 2.6593 15.2424 3.3747 15.2424 4.2582C15.2424 5.3943 16.7136 6.2296 17.7583 6.2296Z" stroke="#00034A" stroke-linejoin="round"/>
<path d="M30.0742 15.9608C29.6634 15.722 29.2133 15.2041 29.3273 14.7648C29.395 14.4486 29.5047 14.1429 29.6536 13.8558C28.831 13.1767 27.9593 12.1527 28.5529 11.1473C28.9694 10.4324 29.8878 10.1922 30.601 10.6117C29.7327 9.76991 29.5954 8.42561 30.2757 7.42561C31.0266 5.89611 32.7943 5.15931 34.4092 5.70291C34.5988 5.40801 34.8278 5.14171 35.0892 4.90881C35.6091 4.41841 36.8818 5.05621 37.4134 5.35891C37.835 5.59771 38.2753 6.11461 38.1603 6.55491C38.0896 6.88801 37.9736 7.20941 37.8164 7.51111C38.6674 8.25801 39.4615 9.30071 38.9446 10.1714C38.5253 10.8883 37.6037 11.1287 36.8877 10.708C37.7485 11.562 37.8809 12.9073 37.2031 13.9128C36.0071 15.9422 34.4377 16.1043 33.0697 15.6355C32.8869 15.9205 32.6638 16.178 32.4093 16.4021C31.8943 16.9013 30.6049 16.2694 30.0742 15.9608Z" stroke="#00034A" stroke-linejoin="round"/>
<path d="M5.35979 22.6337C5.92589 25.4405 6.44969 27.6615 7.03149 28.3141C7.43149 28.7583 8.52229 29.3607 9.10219 29.5563C10.7768 30.1223 13.7447 29.8639 15.8979 29.5563C18.5769 29.174 22.4234 28.2266 23.1319 26.6866C23.5152 25.8346 23.3039 23.2892 22.96 20.169C23.872 19.9078 24.6639 19.3359 25.1987 18.5524C25.8689 17.6335 26.3957 16.1505 25.9456 15.3948C25.0649 14.1431 23.9853 13.0439 22.7496 12.1409C22.0309 11.5299 21.2503 10.9957 20.4205 10.5469C19.5845 9.98585 18.6886 9.51985 17.7494 9.15725C16.8102 8.79465 17.2993 9.10025 16.6782 9.10025C16.1827 9.06205 15.7519 9.43675 15.721 9.93265C15.4751 12.5221 12.8136 14.1518 10.3955 13.1934C9.91859 12.7836 9.54779 12.2648 9.31439 11.681C9.11099 11.1739 8.22359 10.7532 7.75869 10.5429C7.55349 10.4503 7.32029 10.4408 7.10809 10.5164C6.74939 10.6442 6.39859 10.7916 6.05659 10.9567C4.86449 11.8996 3.84159 13.0385 3.03169 14.3246C2.10849 15.5569 1.39739 16.9347 0.927587 18.401C0.688787 19.2619 1.67449 20.5061 2.59239 21.1763C3.33929 21.7778 4.42719 22.4362 5.36079 22.6328L5.35979 22.6337Z" fill="#00034A" stroke="#00034A" stroke-miterlimit="10"/>
<path d="M24.84 14.7266C23.9592 13.4753 22.8796 12.3765 21.6441 11.4737C20.485 10.4885 19.1684 9.70536 17.7494 9.15726C16.3304 8.60916 17.2993 9.10026 16.6782 9.10026C16.1828 9.06206 15.7519 9.43676 15.721 9.93266C15.4368 12.9249 12.0201 14.4874 9.57079 12.7452C8.95999 12.3108 8.48719 11.7097 8.20879 11.0138C8.03519 10.5791 7.54909 10.3595 7.10819 10.5165C6.74939 10.6443 6.39859 10.7917 6.05659 10.9568C4.86449 11.8997 3.84159 13.0386 3.03169 14.3247C2.10849 15.557 1.39739 16.9348 0.927587 18.4011C0.688787 19.262 1.67449 20.5062 2.59239 21.1764C3.34129 21.7789 4.28269 22.0884 5.24289 22.0471C5.85609 25.1281 6.41039 27.6164 7.03249 28.3151C8.17149 29.578 12.1133 29.2714 14.7933 28.8891C17.4733 28.5058 21.3188 27.5584 22.0273 26.0185C22.4106 25.1664 22.2003 22.6211 21.8554 19.5018C22.7678 19.2404 23.5601 18.6682 24.0951 17.8842C24.7643 16.9663 25.2911 15.4824 24.8419 14.7266H24.84Z" fill="#9BFF00" stroke="#00034A" stroke-miterlimit="10"/>
<path d="M5.48161 19.7602C5.36161 18.8882 5.33591 18.0058 5.40491 17.1284" stroke="#00034A" stroke-miterlimit="10" stroke-linecap="round"/>
<path d="M20.9462 17.3858C20.803 16.5131 20.562 15.6593 20.2278 14.8405" stroke="#00034A" stroke-miterlimit="10" stroke-linecap="round"/>
<path d="M31.8058 29.9985L32.2373 29.9415C32.4352 29.919 32.6331 29.9844 32.7788 30.1204C33.0736 30.3955 33.5384 30.768 33.6947 31.1523C33.7318 31.2435 33.7485 31.3418 33.7438 31.4402C33.4099 33.1159 32.8192 34.7299 31.9926 36.2252C30.6049 38.9239 28.7102 39.5273 23.2942 37.7564C20.2939 36.7775 16.525 35.8459 15.4302 32.5222C15.3844 32.3826 15.3375 32.2434 15.2897 32.1045C14.9261 31.1188 15.9983 26.5441 17.1176 23.1182C17.8268 20.7446 18.8231 18.4664 20.0845 16.3343C20.3245 15.9861 20.8229 15.9444 21.1174 16.2478L21.9891 17.1185C22.141 17.2728 22.3581 17.3442 22.5719 17.3102L24.1325 17.0615C24.3492 17.0253 24.5701 17.0964 24.7251 17.2522L25.8356 18.3725C25.9849 18.5316 26.2048 18.6038 26.4194 18.5642L27.9888 18.3145C28.2029 18.2802 28.4204 18.3516 28.5726 18.5062L29.6831 19.6364C29.8406 19.7879 30.0593 19.8583 30.2757 19.827L31.51 19.6255C31.7068 19.594 31.9074 19.6516 32.0574 19.7828C32.3542 20.0442 32.8171 20.4383 32.9792 20.8098C33.0185 20.9002 33.0382 20.9975 33.0353 21.0957C32.9478 23.6478 32.4836 26.173 31.6574 28.5892L31.2535 29.8197L31.2614 29.8265C31.4052 29.9678 31.607 30.0318 31.8058 29.9985Z" fill="#00034A" stroke="#00034A" stroke-miterlimit="10"/>
<path d="M32.2373 29.9415L31.8068 29.9985C31.608 30.0316 31.4053 29.9677 31.2614 29.8265L30.4762 29.1091L30.9076 27.7981C31.7336 25.3822 32.1979 22.8574 32.2854 20.3056C32.2969 19.8857 31.9238 19.5589 31.509 19.6255L30.2757 19.827C30.0588 19.8585 29.8396 19.7877 29.6821 19.6354L28.5716 18.5062C28.4197 18.3519 28.2026 18.2806 27.9888 18.3145L26.4194 18.5642C26.2048 18.604 25.9848 18.5318 25.8356 18.3725L24.7251 17.2522C24.5699 17.0966 24.3492 17.0256 24.1325 17.0615L22.5719 17.3102C22.3581 17.3442 22.141 17.2728 21.9891 17.1185L21.1174 16.2478C20.8223 15.9459 20.3253 15.9875 20.0845 16.3343C18.8231 18.4664 17.8268 20.7446 17.1176 23.1182C15.9982 26.5441 14.9261 31.1179 15.2897 32.1045C16.0169 34.2096 15.7398 34.7452 22.5434 36.9652C27.9594 38.7352 29.8551 38.1328 31.2417 35.4341C32.0684 33.9388 32.6591 32.3247 32.993 30.6491C33.0127 30.2304 32.6527 29.8938 32.2363 29.9415H32.2373Z" fill="white" stroke="#00034A" stroke-miterlimit="10"/>
<path d="M29.5868 31.4628C29.2835 32.3584 28.9321 33.2369 28.5342 34.0946" stroke="#00034A" stroke-miterlimit="10" stroke-linecap="round"/>
<path d="M28.2187 23.9408C28.2187 23.9408 26.4281 23.4632 24.6582 22.8893C22.8882 22.3143 21.1655 21.6353 21.1655 21.6353" stroke="#00034A" stroke-miterlimit="10" stroke-linecap="round"/>
<path d="M26.9646 27.7981C26.9646 27.7981 25.1661 27.2812 23.3756 26.7456C21.587 26.209 19.873 25.4916 19.873 25.4916" stroke="#00034A" stroke-miterlimit="10" stroke-linecap="round"/>
<path d="M22.495 30.5921C22.495 30.5921 21.5388 30.3818 20.5816 30.0663C19.6244 29.7499 18.6682 29.3391 18.6682 29.3391" stroke="#00034A" stroke-miterlimit="10" stroke-linecap="round"/>
<path d="M16.8404 5.8562C18.0708 5.8561 18.8399 4.524 18.2246 3.4584C17.9391 2.9639 17.4114 2.6593 16.8404 2.6593C15.6099 2.6593 14.8408 3.9913 15.4561 5.0569C15.7416 5.5515 16.2693 5.8562 16.8404 5.8562Z" fill="#9BFF00" stroke="#00034A" stroke-miterlimit="10"/>
<path d="M36.2852 13.5403C36.9629 12.5343 36.8301 11.1887 35.9688 10.3346C36.6852 10.7548 37.6066 10.5145 38.0267 9.79799C38.5436 8.92729 37.7495 7.88459 36.8965 7.13769C37.0547 6.83599 37.1717 6.51459 37.2414 6.18149C37.3564 5.74119 36.9171 5.22429 36.4946 4.98549C36.0739 4.74569 35.4135 4.60219 35.0892 4.90879C34.8279 5.14169 34.5991 5.40879 34.4091 5.70289C32.7943 5.15939 31.0265 5.89609 30.2757 7.42569C29.5952 8.42539 29.732 9.76959 30.6 10.6117C29.887 10.1929 28.9694 10.433 28.5529 11.1473C27.9593 12.1527 28.831 13.1767 29.6536 13.8558C29.505 14.1429 29.3956 14.4487 29.3283 14.7649C29.2133 15.2051 29.6624 15.7221 30.0752 15.9609C30.486 16.2007 31.1661 16.3441 31.4904 16.0277C31.7459 15.8056 31.968 15.5471 32.1508 15.2621C33.5198 15.7309 35.0892 15.5687 36.2852 13.5403Z" fill="#9BFF00" stroke="#00034A" stroke-linejoin="round"/>
<path d="M35.9688 10.3346C35.4145 9.82956 34.7635 9.44206 34.0554 9.19556" stroke="#00034A" stroke-linecap="round" stroke-linejoin="round"/>
<path d="M30.6196 10.6019C31.1601 11.1277 31.8156 11.5208 32.534 11.7507" stroke="#00034A" stroke-linecap="round" stroke-linejoin="round"/>
<path d="M27.2518 6.50683C27.4987 5.76233 27.1651 4.94903 26.4665 4.59243C26.9789 4.71243 27.492 4.39633 27.6154 3.88483C27.7589 3.26273 27.0886 2.78413 26.438 2.48733C26.4685 2.27483 26.4685 2.05903 26.438 1.84653C26.438 1.55963 26.0646 1.32963 25.759 1.26283C25.4523 1.19593 25.0415 1.26283 24.8971 1.48293C24.7801 1.66963 24.6907 1.87313 24.6298 2.08533C23.5523 2.05683 22.6199 2.82963 22.4481 3.89363C22.198 4.64053 22.5368 5.45743 23.2421 5.80803C22.7331 5.69413 22.2266 6.00883 22.1031 6.51563C21.9311 7.23303 22.6485 7.69293 23.2805 7.95143C23.25 8.15093 23.25 8.35433 23.2805 8.55483C23.2805 8.84183 23.6539 9.07083 23.9497 9.14743C24.2465 9.22413 24.677 9.14743 24.8214 8.91843C24.9334 8.73563 25.0199 8.54013 25.0789 8.33473C26.173 8.39763 27.126 7.59553 27.2508 6.50673L27.2518 6.50683Z" fill="#9BFF00" stroke="#00034A" stroke-linejoin="round"/>
<path d="M26.4664 4.63069C26.0344 4.43009 25.5649 4.32259 25.0886 4.31519" stroke="#00034A" stroke-linecap="round" stroke-linejoin="round"/>
<path d="M23.2803 5.77954C23.7069 5.99974 24.1786 6.11764 24.6582 6.12354" stroke="#00034A" stroke-linecap="round" stroke-linejoin="round"/>
</g>
<defs>
<clipPath id="clip0_2301_14741">
<rect width="40" height="40" fill="white"/>
</clipPath>
</defs>
</svg>
