<svg width="40" height="40" viewBox="0 0 40 40" fill="none" xmlns="http://www.w3.org/2000/svg">
<g clip-path="url(#clip0_2301_13418)">
<path d="M32.4399 20.49C35.9799 21.36 38.4399 19.11 39.4399 15.06C39.6499 14.22 38.7599 13.46 36.7599 12.75C36.7599 12.63 36.8299 12.52 36.8599 12.4C37.3499 10.49 34.7799 8.87998 29.1699 7.39998C23.5599 5.91998 20.5299 6.13998 20.0399 8.04998C20.0399 8.16998 19.9899 8.27998 19.9599 8.39998C17.8699 8.06998 16.7199 8.30998 16.4999 9.13998C15.4999 13.19 16.4999 16.35 20.0499 17.28C20.5456 18.5964 21.4101 19.7421 22.5399 20.58C22.5186 20.6386 22.5019 20.6988 22.4899 20.76C22.1968 21.8216 21.9895 22.9051 21.8699 24C21.1124 24.0145 20.3809 24.278 19.788 24.7497C19.1952 25.2214 18.7742 25.8752 18.5899 26.61C18.4299 27.22 20.1499 27.96 23.7099 28.87C27.2699 29.78 29.1399 29.96 29.2899 29.36C29.4854 28.6277 29.4335 27.8513 29.1424 27.1514C28.8512 26.4516 28.3371 25.8676 27.6799 25.49C28.0789 24.4837 28.3965 23.447 28.6299 22.39C28.6524 22.3283 28.6692 22.2647 28.6799 22.2C30.0738 22.0112 31.3814 21.4165 32.4399 20.49Z" fill="#FFE236" stroke="#231F20" stroke-miterlimit="10"/>
<path d="M20.1798 10.83C19.9431 12.1493 19.8726 13.4931 19.9698 14.83" stroke="#231F20" stroke-miterlimit="10" stroke-linecap="round"/>
<path d="M35.47 14.75C35.0445 16.0282 34.4599 17.2477 33.73 18.38" stroke="#231F20" stroke-miterlimit="10" stroke-linecap="round"/>
<path d="M32.1599 9.99997C34.4099 10.83 34.9899 11.3 35.0399 12" stroke="white" stroke-miterlimit="10" stroke-linecap="round"/>
<path d="M19.9999 26.7L19.6799 26.38C19.7336 25.4635 19.6799 24.5439 19.5199 23.64C18.6199 18.39 15.0999 15.38 9.26993 16.38C3.43993 17.38 1.12993 21.38 1.99993 26.64C2.15158 27.5602 2.40999 28.4596 2.76993 29.32C2.76993 29.44 2.65993 29.56 2.59993 29.68C1.59993 31.85 0.259927 34.53 0.499927 35.14C1.15993 36.79 4.90993 35.43 4.90993 35.43C4.90993 35.43 6.30993 39.18 7.99993 38.62C8.55993 38.43 9.59993 36.12 10.5499 34.07C11.1269 34.052 11.7018 33.9919 12.2699 33.89C12.8562 33.793 13.4345 33.6526 13.9999 33.47C15.5799 35.1 17.3299 36.93 17.9299 36.92C19.7099 36.92 19.7499 32.92 19.7499 32.92C19.7499 32.92 23.7499 32.92 23.8199 31.18C23.8499 30.5 21.6999 28.42 19.9999 26.7Z" fill="#FF52A1" stroke="#231F20" stroke-miterlimit="10"/>
<path d="M5.84985 25.14C5.84985 26.4475 6.36926 27.7014 7.29382 28.626C8.21837 29.5506 9.47234 30.07 10.7799 30.07C12.0874 30.07 13.3413 29.5506 14.2659 28.626C15.1904 27.7014 15.7099 26.4475 15.7099 25.14C15.7099 23.8324 15.1904 22.5785 14.2659 21.6539C13.3413 20.7294 12.0874 20.21 10.7799 20.21C9.47234 20.21 8.21837 20.7294 7.29382 21.6539C6.36926 22.5785 5.84985 23.8324 5.84985 25.14Z" fill="white" stroke="#231F20" stroke-miterlimit="10"/>
<path d="M4.58984 31C5.56663 32.0267 6.79864 32.7756 8.15984 33.17" stroke="#231F20" stroke-miterlimit="10" stroke-linecap="round"/>
<path d="M18.5899 28.62C18.0098 29.916 17.0952 31.0343 15.9399 31.86" stroke="#231F20" stroke-miterlimit="10" stroke-linecap="round"/>
<path d="M12 17.9C12.627 17.8433 13.2587 17.926 13.8499 18.1421C14.4412 18.3582 14.9773 18.7024 15.42 19.15" stroke="white" stroke-miterlimit="10" stroke-linecap="round"/>
<path d="M15.5 5.17999C15.5 4.52999 14.83 3.97999 13.02 3.79999C12.84 1.99999 12.3 1.32999 11.64 1.32999C10.98 1.32999 10.45 1.99999 10.27 3.79999C8.46004 3.99999 7.79004 4.52999 7.79004 5.17999C7.79004 5.82999 8.46004 6.37999 10.27 6.55999C10.45 8.36999 11 8.99999 11.64 8.99999C12.28 8.99999 12.84 8.33999 13.02 6.52999C14.83 6.37999 15.5 5.82999 15.5 5.17999Z" fill="#FFE236" stroke="#231F20" stroke-miterlimit="10"/>
<path d="M8.77001 11.27C8.77001 10.74 8.23001 10.27 6.77001 10.14C6.62001 8.65998 6.18001 8.13998 5.64001 8.13998C5.10001 8.13998 4.64001 8.68998 4.51001 10.14C3.03001 10.29 2.51001 10.74 2.51001 11.27C2.51001 11.8 3.06001 12.27 4.51001 12.4C4.66001 13.89 5.11001 14.4 5.64001 14.4C6.17001 14.4 6.64001 13.86 6.77001 12.4C8.23001 12.25 8.77001 11.81 8.77001 11.27Z" fill="#FFE236" stroke="#231F20" stroke-miterlimit="10"/>
</g>
<defs>
<clipPath id="clip0_2301_13418">
<rect width="40" height="40" fill="white"/>
</clipPath>
</defs>
</svg>
