<svg width="40" height="40" viewBox="0 0 40 40" fill="none" xmlns="http://www.w3.org/2000/svg">
<path d="M15.8992 21.6093C14.9209 22.2745 11.9176 23.3996 11.0078 22.0984C10.098 20.7972 12.2209 18.3809 13.1894 17.7157C14.1579 17.0505 15.2438 17.2559 16.1242 18.5472C17.0046 19.8385 16.8579 20.9245 15.8992 21.6093Z" fill="#FFE236" stroke="#231F20" stroke-miterlimit="10"/>
<path d="M11.937 30.3063C11.6043 29.5725 9.91195 29.5628 8.64015 29.5628C7.36835 29.5628 5.70535 29.5628 5.34335 30.3063C5.01075 30.678 4.85425 32.6542 4.85425 34.2879C4.85425 35.9216 5.01075 37.9076 5.34335 38.2793C5.66615 39.013 7.35865 39.0228 8.64015 39.0228C9.92165 39.0228 11.575 39.0228 11.937 38.2793C12.2598 37.9076 12.4163 35.9314 12.4163 34.2879C12.4163 32.6444 12.2598 30.7074 11.937 30.3063Z" fill="#FF52A1" stroke="#231F20" stroke-miterlimit="10"/>
<path d="M22.3362 25.0822C22.0133 23.8593 20.3209 23.8593 19.0295 23.8593C17.7381 23.8593 16.0947 23.8593 15.7327 25.0529C15.4099 25.6496 15.2534 28.8095 15.2534 31.4215C15.2534 34.0335 15.4099 37.2032 15.7327 37.7999C16.0947 39.013 17.7676 39.0228 19.0295 39.0228C20.2914 39.0228 21.9644 39.0228 22.3264 37.8293C22.659 37.2325 22.8155 34.0727 22.8155 31.4509C22.8155 28.8291 22.6688 25.679 22.3362 25.0822Z" fill="#FF52A1" stroke="#231F20" stroke-miterlimit="10"/>
<path d="M32.7256 19.8581C32.4027 18.2244 30.7005 18.2048 29.4287 18.2048C28.1569 18.2048 26.4939 18.2048 26.1319 19.8581C25.7993 20.6701 25.6428 25.0137 25.6428 28.6627C25.6428 32.3117 25.7993 36.6162 26.1319 37.4673C26.4645 39.1011 28.157 39.1108 29.4287 39.1108C30.7004 39.1108 32.3636 39.1108 32.7256 37.4673C33.0582 36.6553 33.2147 32.302 33.2147 28.6627C33.2147 25.0234 33.0778 20.6701 32.7256 19.8581Z" fill="#FFE236" stroke="#231F20" stroke-miterlimit="10"/>
<path d="M30.4658 19.9462C31.0724 19.9462 31.2387 20.0832 31.3463 21.2669" stroke="white" stroke-miterlimit="10" stroke-linecap="round"/>
<path d="M20.2524 25.6985C20.8492 25.6985 21.0155 25.8453 21.1231 27.029" stroke="white" stroke-miterlimit="10" stroke-linecap="round"/>
<path d="M9.65747 31.2552C10.2543 31.2552 10.4206 31.3922 10.5282 32.5759" stroke="white" stroke-miterlimit="10" stroke-linecap="round"/>
<path d="M17.9535 5.5262C18.9346 5.473 19.9186 5.5255 20.8884 5.6828C21.808 4.9784 22.7276 4.3132 23.4906 3.824C26.044 2.1707 29.4484 0.889099 30.3876 0.889099C31.9039 0.889099 36.5997 1.4761 37.9302 3.5305C39.2607 5.5849 37.8421 10.0948 37.2356 11.484C36.8638 12.3351 34.3007 14.908 31.7083 16.5613C30.955 17.0407 30.006 17.5885 28.9984 18.1266V18.1951C28.7361 19.1738 28.355 20.1167 27.8636 21.0027C27.3432 22.0337 26.6443 22.9644 25.7994 23.7517C25.3638 24.0861 24.7578 24.0861 24.3222 23.7517C23.594 23.0712 22.9621 22.2944 22.4439 21.443C22.1895 21.0419 21.945 20.5919 21.7395 20.181C20.2484 19.1831 18.9904 17.875 18.0514 16.3461C17.0567 14.8744 16.3895 13.2063 16.0948 11.4547C15.7793 11.0599 15.4854 10.6485 15.2143 10.222C14.6714 9.3886 14.2405 8.4874 13.9328 7.5415C13.8388 7.0182 14.0966 6.4948 14.5687 6.2502C15.0408 6.0056 15.1752 5.673 17.9535 5.5262Z" fill="#48EEFF" stroke="#231F20" stroke-miterlimit="10"/>
<path d="M20.8101 12.746C20.806 14.9299 23.1677 16.2994 25.0611 15.2109C25.9431 14.7039 26.4861 13.7634 26.4842 12.746C26.4883 10.562 24.1267 9.1926 22.2333 10.2811C21.3512 10.7881 20.8082 11.7286 20.8101 12.746Z" fill="white" stroke="#231F20" stroke-miterlimit="10"/>
<path d="M34.7312 10.0851C32.979 8.2406 31.5885 6.0836 30.6321 3.7262" stroke="#231F20" stroke-miterlimit="10" stroke-linecap="round"/>
<path d="M26.6503 18.5277C25.7255 19.06 24.7681 19.5338 23.7839 19.9462" stroke="#231F20" stroke-miterlimit="10" stroke-linecap="round"/>
<path d="M19.6069 7.63931C18.7448 8.26311 17.9245 8.94291 17.1514 9.67421" stroke="#231F20" stroke-miterlimit="10" stroke-linecap="round"/>
<path d="M35.6605 3.79471C34.9335 3.31861 34.1001 3.02961 33.2344 2.95331" stroke="white" stroke-miterlimit="10" stroke-linecap="round"/>
<path d="M5.78369 16.7863C5.78369 17.8783 6.96579 18.5608 7.91149 18.0148C8.35039 17.7614 8.62079 17.2931 8.62079 16.7863C8.62079 15.6943 7.43869 15.0119 6.49299 15.5578C6.05409 15.8112 5.78369 16.2795 5.78369 16.7863Z" fill="#FFE236" stroke="#231F20" stroke-miterlimit="10" stroke-linecap="round"/>
<path d="M1.51831 24.1235C1.51831 25.7652 3.29551 26.7913 4.71731 25.9704C5.37711 25.5895 5.78361 24.8854 5.78361 24.1235C5.78361 22.4818 4.00641 21.4557 2.58461 22.2765C1.92481 22.6575 1.51831 23.3616 1.51831 24.1235Z" fill="#FFE236" stroke="#231F20" stroke-miterlimit="10" stroke-linecap="round"/>
</svg>
