<svg width="40" height="40" viewBox="0 0 40 40" fill="none" xmlns="http://www.w3.org/2000/svg">
<g clip-path="url(#clip0_2301_14708)">
<path d="M20.2121 5.5478C19.2704 5.3952 18.3149 5.3443 17.3623 5.3961C14.6642 5.538 14.0759 6.0987 14.0759 6.0987C13.6178 6.3362 13.3674 6.8441 13.4581 7.3521C13.7567 8.2715 14.1755 9.1456 14.7027 9.9556C14.9658 10.3695 15.2515 10.7686 15.557 11.1519C15.8428 12.8537 16.4912 14.4728 17.4569 15.9016C18.4285 17.4832 19.819 18.7919 21.2252 19.9892C21.3799 20.2799 21.5494 20.5775 21.7228 20.8514C22.5456 22.2034 23.7035 23.2302 24.8476 24.2984C25.2706 24.6234 25.8593 24.6234 26.2823 24.2984C27.1027 23.5341 27.7813 22.6307 28.2867 21.6299C28.7636 20.7696 29.1341 19.8532 29.3884 18.9032V18.8372C30.3669 18.3149 31.2883 17.7828 32.0195 17.3167C34.5372 15.7105 37.0254 13.2134 37.387 12.3866C37.9763 11.0376 39.3529 6.6584 38.0611 4.6639C36.2479 1.8643 32.6038 0.8927 29.4367 0.8927C28.5242 0.8927 25.2191 2.1373 22.7388 3.7425C21.9977 4.2175 21.1049 4.864 20.2121 5.5478Z" fill="#00034A" stroke="#00034A" stroke-miterlimit="10"/>
<path d="M20.9422 23.5585C20.2692 23.1978 19.2503 23.1978 18.4068 23.1978C17.1533 23.1978 15.5569 23.1978 15.2061 24.3566C14.8928 24.9361 14.74 28.0047 14.74 30.5411C14.74 33.0775 14.8928 36.1551 15.2061 36.7345C15.3697 37.2834 16.8833 38.6817 17.4568 38.8798C18.1072 39.1044 18.9399 39.1064 19.6415 39.1064C20.8674 39.1064 22.4913 39.1064 22.8431 37.9485C23.1663 37.3691 23.3181 34.3005 23.3181 31.7542C23.3181 29.2088 23.1752 26.1501 22.852 25.5707C22.7397 25.142 21.3994 23.8039 20.9422 23.5585Z" fill="#00034A" stroke="#00034A" stroke-miterlimit="10" stroke-linecap="round"/>
<path d="M8.31918 28.7357C9.18148 28.7357 10.2428 28.7407 10.9148 28.986C11.4854 29.194 12.521 30.1291 12.7546 30.6425C13.068 31.0328 13.2197 32.9129 13.2197 34.5093C13.2197 36.1057 13.068 38.0243 12.7546 38.385C12.4028 39.1073 10.7976 39.1073 9.55298 39.1073C8.84538 39.1073 8.00878 39.1043 7.36138 38.9693C6.81348 38.857 5.33538 37.6962 5.11758 37.2005C4.79438 36.8389 4.64258 34.9104 4.64258 33.3239C4.64258 31.7373 4.79438 29.8187 5.11758 29.4581C5.46938 28.7358 7.08448 28.7357 8.31918 28.7357Z" fill="#00034A" stroke="#00034A" stroke-miterlimit="10" stroke-linecap="round"/>
<path d="M10.618 21.488C9.73409 20.2247 11.7956 17.8784 12.7367 17.232C13.9241 16.416 15.685 17.163 16.4251 18.2489C17.2804 19.5024 17.1375 20.5568 16.2063 21.2219C14.9913 22.0487 11.7276 23.0755 10.618 21.488Z" fill="#00034A" stroke="#00034A" stroke-miterlimit="10" stroke-linecap="round"/>
<path d="M7.76137 17.9158C8.52207 17.9158 9.13897 17.299 9.13897 16.5382C9.13897 15.468 7.85197 14.9517 6.92177 14.9517C6.16197 14.9517 5.54517 15.5686 5.54517 16.3293C5.54517 17.3995 6.83107 17.9158 7.76137 17.9158Z" fill="#00034A" stroke="#00034A" stroke-miterlimit="10" stroke-linecap="round"/>
<path d="M6.38462 23.6628C6.38462 24.8068 5.45732 25.7342 4.31332 25.7342C2.98202 25.7342 1.40332 24.9576 1.40332 23.4539C1.40282 22.3102 2.33012 21.383 3.47372 21.3835C4.80602 21.3835 6.38462 22.16 6.38462 23.6628Z" fill="#00034A" stroke="#00034A" stroke-miterlimit="10" stroke-linecap="round"/>
<path d="M15.3677 21.0131C14.4178 21.6586 11.5009 22.7514 10.618 21.4881C9.73409 20.2248 11.7956 17.8785 12.7367 17.2321C13.6767 16.5866 14.7311 16.7857 15.5855 18.0401C16.4408 19.2935 16.298 20.3479 15.3677 21.0131Z" fill="#9BFF00" stroke="#00034A" stroke-miterlimit="10"/>
<path d="M28.5046 17.7069C27.2708 17.7069 25.6557 17.7069 25.3039 19.3132C24.9817 20.1015 24.8289 24.3191 24.8289 27.8617C24.8289 31.4052 24.9817 35.5854 25.3039 36.4112C25.6734 38.2243 28.0621 39.1073 29.6743 39.1073C30.909 39.1073 32.5241 39.1073 32.8749 37.5109C33.1981 36.7226 33.3499 32.4951 33.3499 28.9614C33.3499 25.4277 33.2168 21.2002 32.8749 20.4119C32.5172 18.5987 30.1128 17.7069 28.5046 17.7069Z" fill="#00034A" stroke="#00034A" stroke-miterlimit="10"/>
<path d="M11.5199 29.4581C11.1976 28.7456 9.55398 28.7358 8.31918 28.7358C7.08448 28.7358 5.46938 28.7358 5.11758 29.4581C4.79438 29.8187 4.64258 31.7383 4.64258 33.3239C4.64258 34.9104 4.79438 36.8389 5.11758 37.2005C5.43098 37.913 7.07458 37.9218 8.31918 37.9218C9.56378 37.9218 11.1691 37.9218 11.5199 37.2005C11.8342 36.8389 11.986 34.9202 11.986 33.3239C11.986 31.7276 11.8342 29.8473 11.5199 29.4581Z" fill="white" stroke="#00034A" stroke-miterlimit="10"/>
<path d="M21.6182 24.3852C21.3049 23.1978 19.6612 23.1978 18.4068 23.1978C17.1533 23.1978 15.5569 23.1978 15.2061 24.3566C14.8928 24.9361 14.74 28.0047 14.74 30.5411C14.74 33.0775 14.8928 36.1551 15.2061 36.7345C15.5569 37.913 17.1819 37.9219 18.4068 37.9219C19.6326 37.9219 21.2566 37.9219 21.6094 36.7631C21.9316 36.1836 22.0834 33.115 22.0834 30.5697C22.0834 28.0234 21.9415 24.9646 21.6182 24.3852Z" fill="white" stroke="#00034A" stroke-miterlimit="10"/>
<path d="M31.7071 19.3122C31.3927 17.7256 29.7402 17.7069 28.5045 17.7069C27.2707 17.7069 25.6556 17.7069 25.3038 19.3132C24.9806 20.1015 24.8289 24.3191 24.8289 27.8617C24.8289 31.4052 24.9806 35.5854 25.3038 36.4112C25.627 37.9977 27.2707 38.0076 28.5055 38.0076C29.7402 38.0076 31.3553 38.0076 31.7071 36.4112C32.0293 35.6228 32.1821 31.3954 32.1821 27.8617C32.1821 24.328 32.049 20.1005 31.7071 19.3122Z" fill="white" stroke="#00034A" stroke-miterlimit="10"/>
<path d="M17.3623 5.3961C18.3149 5.344 19.2704 5.3949 20.2121 5.5478C21.0303 4.9132 21.8732 4.3109 22.7388 3.7425C25.2181 2.1373 28.5242 0.8927 29.4367 0.8927C30.9089 0.8927 35.4684 1.4633 36.7603 3.4578C38.0522 5.4523 36.6746 9.8324 36.0863 11.1805C35.7246 12.0083 33.2364 14.5053 30.7187 16.1115C29.8606 16.6501 28.983 17.157 28.0876 17.6311V17.6971C27.8327 18.6476 27.4624 19.5633 26.9849 20.4237C26.4796 21.4249 25.8011 22.3287 24.9806 23.0932C24.5577 23.4177 23.9697 23.4177 23.5468 23.0932C22.8397 22.4324 22.226 21.6782 21.7228 20.8514C21.4765 20.4622 21.238 20.0246 21.0389 19.6256C19.5911 18.6565 18.3696 17.3863 17.4579 15.9017C16.4921 14.4726 15.8442 12.8529 15.558 11.1519C15.2515 10.7689 14.966 10.3695 14.7027 9.9556C14.1755 9.1466 13.7567 8.2706 13.4581 7.3522C13.3674 6.8441 13.6178 6.3362 14.0759 6.0987C14.534 5.8612 14.6642 5.538 17.3623 5.3961Z" fill="#9BFF00" stroke="#00034A" stroke-miterlimit="10"/>
<path d="M22.8914 15.1616C25.0124 15.1616 26.338 12.8656 25.2775 11.0287C24.7853 10.1762 23.8758 9.65112 22.8914 9.65112C20.7704 9.65122 19.4448 11.9473 20.5054 13.7841C20.9976 14.6365 21.9071 15.1616 22.8914 15.1616Z" fill="white" stroke="#00034A" stroke-miterlimit="10"/>
<path d="M33.6542 9.82265C31.9525 8.03165 30.602 5.93715 29.6731 3.64795" stroke="#00034A" stroke-miterlimit="10" stroke-linecap="round"/>
<path d="M25.8073 18.0203C24.9095 18.5376 23.9793 18.9978 23.0244 19.3979" stroke="#00034A" stroke-miterlimit="10" stroke-linecap="round"/>
<path d="M18.9676 7.44775C18.1303 8.05345 17.3336 8.71345 16.5828 9.42355" stroke="#00034A" stroke-miterlimit="10" stroke-linecap="round"/>
<path d="M6.92278 17.7068C7.98288 17.7353 8.67618 16.6054 8.17078 15.6731C7.92358 15.2172 7.44118 14.9387 6.92278 14.9526C5.86268 14.981 5.23088 16.1464 5.78548 17.0502C6.02918 17.4473 6.45708 17.6943 6.92278 17.7068Z" fill="#9BFF00" stroke="#00034A" stroke-miterlimit="10" stroke-linecap="round"/>
<path d="M3.47488 25.5253C5.06898 25.5599 6.10288 23.8559 5.33588 22.4581C4.96438 21.781 4.24698 21.3667 3.47488 21.3835C1.88068 21.4182 0.921878 23.1656 1.74908 24.5288C2.11628 25.1341 2.76708 25.5099 3.47488 25.5253Z" fill="#9BFF00" stroke="#00034A" stroke-miterlimit="10" stroke-linecap="round"/>
</g>
<defs>
<clipPath id="clip0_2301_14708">
<rect width="40" height="40" fill="white"/>
</clipPath>
</defs>
</svg>
