<svg width="40" height="40" viewBox="0 0 40 40" fill="none" xmlns="http://www.w3.org/2000/svg">
<path d="M26.509 3.77901C27.7215 2.69891 29.2671 2.0662 30.889 1.98601C35.292 1.60701 39.079 5.00901 39.464 9.37001C39.988 15.6 34.658 20.426 30.394 23.188C29.806 23.518 29.124 23.645 28.456 23.547C24.795 22.728 20.165 21.069 17.334 17.809C15.764 16.435 14.526 14.713 13.931 12.558C12.855 8.63301 14.309 5.41601 18.669 4.21501C20.2142 3.71193 21.8865 3.76321 23.398 4.36001L24.594 4.86401L25.956 8.93401L24.594 12.411L26.567 13.798L26.593 14.177L27.778 15.009L27.815 15.538L29.571 13.091L27.148 10.407L28.844 7.42201L26.509 3.77901Z" fill="#00034A" stroke="#00034A" stroke-miterlimit="10"/>
<path d="M30.889 1.98604C29.2671 2.06623 27.7215 2.69894 26.509 3.77904L28.844 7.42204L27.148 10.407L29.571 13.091L26.79 16.967L26.567 13.798L23.272 11.482L24.745 7.72204L23.398 4.36004C21.8865 3.76323 20.2142 3.71196 18.669 4.21504C14.309 5.41604 12.855 8.63304 13.931 12.558C15.597 18.595 22.303 21.231 27.245 22.335C27.9128 22.4333 28.5944 22.3074 29.183 21.977C33.447 19.215 38.776 14.389 38.253 8.15804C37.895 4.09804 35.395 1.59804 30.889 1.98604Z" fill="#9BFF00" stroke="#00034A" stroke-miterlimit="10"/>
<path d="M15.8379 28.052C15.1847 28.7318 14.744 29.5874 14.5699 30.514C13.7199 33.83 15.5269 36.634 19.3959 37.83C22.6319 38.663 24.6289 37.103 25.5009 34.216C26.2279 32.045 27.9329 26.676 28.0209 22.674C28.0209 21.385 26.1279 19.864 24.9779 19.525C22.7403 19.1111 20.4694 18.9036 18.1939 18.905C15.3739 18.827 11.7019 18.905 10.8779 19.428C10.1731 19.9926 9.67833 20.7776 9.47291 21.657C8.985 23.2662 8.51663 24.8814 8.06791 26.502C5.08291 25.93 3.11591 27.422 2.40891 30.194C1.27591 33.906 4.08591 36.702 7.23491 37.51C10.4809 38.344 12.5839 36.813 13.3399 33.906L14.5799 29.06C14.6449 28.828 14.7049 28.587 14.7669 28.34C14.7969 28.216 14.8289 28.091 14.8609 27.965C15.1749 27.997 15.5029 28.025 15.8379 28.052Z" fill="#00034A" stroke="#00034A" stroke-miterlimit="10"/>
<path d="M26.8091 21.463C26.8091 20.553 26.3241 19.923 24.9771 19.525C22.7398 19.1112 20.4693 18.9037 18.1941 18.905C15.3741 18.827 11.7021 18.905 10.8781 19.428C10.1734 19.9927 9.67859 20.7776 9.47309 21.657C8.98518 23.2662 8.51681 24.8814 8.06809 26.502C5.08309 25.93 3.11609 27.422 2.40909 30.194C1.70209 32.965 2.77709 35.466 6.02309 36.299C9.27009 37.132 11.3731 35.601 12.1281 32.694L13.3681 27.849C13.4661 27.5 13.5531 27.132 13.6501 26.754C14.8031 26.87 16.1401 26.948 17.3511 26.987C16.6375 27.3069 16.012 27.7948 15.5279 28.409C15.0438 29.0232 14.7155 29.7454 14.5711 30.514C13.8241 33.421 14.9481 35.785 18.1851 36.619C21.4211 37.452 23.4171 35.892 24.2901 33.004C25.0161 30.834 26.7221 25.465 26.8091 21.464V21.463Z" fill="white" stroke="#00034A" stroke-miterlimit="10"/>
<path d="M17.3999 27.0449C18.454 26.7404 19.5728 26.7404 20.6269 27.0449" stroke="#00034A" stroke-miterlimit="10" stroke-linecap="round"/>
<path d="M7.4669 5.08699C6.5469 5.37699 5.1899 5.86199 6.7989 9.54399C7.2679 10.618 8.8509 14.1 10.5489 13.594C11.0039 13.459 11.9249 13.168 11.1789 9.13699C10.8519 7.37099 9.7959 4.36799 7.4779 5.08299L7.4669 5.08699Z" fill="#00034A"/>
<path d="M12.8941 16.2299C12.8941 17.0229 12.2521 17.6649 11.4601 17.6649C10.5661 17.6649 9.29907 16.3969 9.29907 15.5039C9.29907 14.7119 9.94107 14.0699 10.7331 14.0699C11.6261 14.0699 12.8931 15.3369 12.8931 16.2299H12.8941Z" fill="#00034A"/>
<path d="M7.4669 5.08699C6.5469 5.37699 5.1899 5.86199 6.7989 9.54399C7.2679 10.618 8.8509 14.1 10.5489 13.594C11.0039 13.459 11.9249 13.168 11.1789 9.13699C10.8519 7.37099 9.7959 4.36799 7.4779 5.08299L7.4669 5.08699Z" stroke="#00034A" stroke-miterlimit="10"/>
<path d="M12.8941 16.2299C12.8941 17.0229 12.2521 17.6649 11.4601 17.6649C10.5661 17.6649 9.29907 16.3969 9.29907 15.5039C9.29907 14.7119 9.94107 14.0699 10.7331 14.0699C11.6261 14.0699 12.8931 15.3369 12.8931 16.2299H12.8941Z" stroke="#00034A" stroke-miterlimit="10"/>
<path d="M7.4669 5.08699C6.5469 5.37699 5.1899 5.86199 6.7989 9.54399C8.4069 13.226 9.3669 13.004 9.8219 12.868C10.2779 12.732 11.1979 12.442 10.4519 8.40999C9.7059 4.37999 8.3779 4.80599 7.4669 5.08699Z" fill="#9BFF00" stroke="#00034A" stroke-miterlimit="10"/>
<path d="M10.7331 16.938C11.1135 16.938 11.4784 16.7868 11.7474 16.5178C12.0164 16.2488 12.1676 15.8839 12.1676 15.5035C12.1676 15.123 12.0164 14.7581 11.7474 14.4891C11.4784 14.2201 11.1135 14.069 10.7331 14.069C10.3526 14.069 9.98776 14.2201 9.71874 14.4891C9.44972 14.7581 9.29858 15.123 9.29858 15.5035C9.29858 15.8839 9.44972 16.2488 9.71874 16.5178C9.98776 16.7868 10.3526 16.938 10.7331 16.938Z" fill="#9BFF00" stroke="#00034A" stroke-miterlimit="10"/>
<path d="M1.28503 10.019C0.645032 10.426 -0.294968 11.056 1.73103 13.546C2.24603 14.18 2.67303 14.628 3.02903 14.941C4.60303 16.68 5.16703 16.371 5.45703 16.214L5.46103 16.211C5.78103 16.037 6.43103 15.601 5.01603 12.684C4.38603 11.387 2.95003 9.00504 1.29103 10.015L1.28503 10.019Z" fill="#00034A"/>
<path d="M7.85508 18.3529C7.85508 18.9789 7.34708 19.4859 6.72108 19.4859C6.01208 19.4859 4.86108 18.3349 4.86108 17.6259C4.86108 16.9999 5.36808 16.4919 5.99408 16.4919C6.70408 16.4919 7.85408 17.6439 7.85408 18.3519L7.85508 18.3529Z" fill="#00034A"/>
<path d="M1.28503 10.019C0.645032 10.426 -0.294968 11.056 1.73103 13.546C2.24603 14.18 2.67303 14.628 3.02903 14.941C4.60303 16.68 5.16703 16.371 5.45703 16.214L5.46103 16.211C5.78103 16.037 6.43103 15.601 5.01603 12.684C4.38603 11.387 2.95003 9.00504 1.29103 10.015L1.28503 10.019Z" stroke="#00034A" stroke-miterlimit="10"/>
<path d="M7.85508 18.3529C7.85508 18.9789 7.34708 19.4859 6.72108 19.4859C6.01208 19.4859 4.86108 18.3349 4.86108 17.6259C4.86108 16.9999 5.36808 16.4919 5.99408 16.4919C6.70408 16.4919 7.85408 17.6439 7.85408 18.3519L7.85508 18.3529Z" stroke="#00034A" stroke-miterlimit="10"/>
<path d="M1.28503 10.0191C0.645032 10.4261 -0.294968 11.0561 1.73103 13.5461C3.75603 16.0361 4.41503 15.6591 4.73503 15.4841C5.05503 15.3101 5.70403 14.8741 4.28903 11.9571C2.87403 9.04005 1.95403 9.61205 1.28503 10.0191Z" fill="#9BFF00" stroke="#00034A" stroke-miterlimit="10"/>
<path d="M5.99411 18.7599C6.14303 18.7599 6.29049 18.7306 6.42807 18.6736C6.56565 18.6166 6.69067 18.5331 6.79597 18.4278C6.90127 18.3225 6.9848 18.1975 7.04179 18.0599C7.09878 17.9223 7.12811 17.7749 7.12811 17.6259C7.12811 17.477 7.09878 17.3296 7.04179 17.192C6.9848 17.0544 6.90127 16.9294 6.79597 16.8241C6.69067 16.7188 6.56565 16.6353 6.42807 16.5783C6.29049 16.5213 6.14303 16.4919 5.99411 16.4919C5.69335 16.4919 5.40491 16.6114 5.19225 16.8241C4.97958 17.0367 4.86011 17.3252 4.86011 17.6259C4.86011 17.9267 4.97958 18.2151 5.19225 18.4278C5.40491 18.6405 5.69335 18.7599 5.99411 18.7599Z" fill="#9BFF00" stroke="#00034A" stroke-miterlimit="10"/>
</svg>
