<svg width="40" height="40" viewBox="0 0 40 40" fill="none" xmlns="http://www.w3.org/2000/svg">
<g clip-path="url(#clip0_2301_14679)">
<path d="M30.957 17.0901C33.036 17.2301 34.604 17.4531 35.188 17.7971C36.355 18.1391 37.598 19.4721 38.129 20.5221C39.237 22.7091 39.417 26.2061 39.417 28.5281C39.417 31.8481 39.047 37.5651 36.126 38.4321C34.666 39.3181 26.875 39.4061 20.428 39.4061C13.981 39.4061 6.19 39.2891 4.729 38.4321C3.852 38.1721 2.856 37.2471 2.296 36.5221C0.734 34.4951 0.5 30.3481 0.5 27.7001C0.5 24.3701 0.87 18.6531 3.87 17.8051C4.522 17.4151 6.45 17.1821 8.963 17.0451C9.206 14.2901 9.683 11.8451 10.599 11.2511C11.232 10.4331 13.959 10.1811 16.88 10.1021V3.97806C16.88 2.93606 16.968 1.15406 17.698 0.881059C18.128 0.554059 20.356 0.577059 21.297 0.587059L21.593 0.589059C23.181 0.589059 25.119 0.619059 25.489 0.881059C26.05 1.09106 26.829 1.95506 27.002 2.52506C27.21 3.21006 27.244 4.16206 27.244 4.80506C27.244 5.82806 27.118 7.61006 26.388 7.88306C25.2994 8.15193 24.1758 8.25043 23.057 8.17506C23.092 8.81406 23.102 9.45306 23.105 10.1251C25.018 10.2061 26.758 10.3851 27.747 10.7791C28.56 11.1031 29.471 11.9091 29.902 12.6481C30.425 13.5481 30.754 15.2061 30.957 17.0901Z" fill="#00034A" stroke="#00034A" stroke-miterlimit="10"/>
<path d="M35.188 17.797C34.526 17.407 32.598 17.173 30.095 17.037C29.852 14.281 29.375 11.837 28.459 11.243C27.816 10.425 25.079 10.171 22.168 10.093C22.168 9.12002 22.168 8.23301 22.119 7.34701C23.2374 7.42231 24.3608 7.32381 25.449 7.05501C26.18 6.78301 26.307 5.00001 26.307 3.97801C26.307 2.95501 26.219 1.15401 25.489 0.881014C25.119 0.618014 23.181 0.589014 21.593 0.589014C20.97 0.589014 18.185 0.511014 17.698 0.881014C16.968 1.15401 16.88 2.93601 16.88 3.97801V10.103C13.959 10.181 11.232 10.434 10.599 11.253C9.683 11.847 9.206 14.291 8.963 17.047C6.45 17.183 4.522 17.417 3.869 17.807C0.87 18.653 0.5 24.37 0.5 27.7C0.5 31.03 0.87 36.737 3.792 37.604C5.252 38.461 13.043 38.577 19.49 38.577C25.937 38.577 33.728 38.49 35.188 37.604C38.11 36.737 38.48 31.02 38.48 27.7C38.48 24.379 38.11 18.653 35.188 17.796V17.797Z" fill="#9BFF00" stroke="#00034A" stroke-miterlimit="10"/>
<path d="M19.4901 22.276C20.5696 22.276 21.605 21.8472 22.3683 21.0838C23.1317 20.3204 23.5606 19.2851 23.5606 18.2055C23.5606 17.1259 23.1317 16.0906 22.3683 15.3272C21.605 14.5639 20.5696 14.135 19.4901 14.135C18.4105 14.135 17.3751 14.5639 16.6118 15.3272C15.8484 16.0906 15.4196 17.1259 15.4196 18.2055C15.4196 19.2851 15.8484 20.3204 16.6118 21.0838C17.3751 21.8472 18.4105 22.276 19.4901 22.276Z" fill="white" stroke="#00034A" stroke-miterlimit="10"/>
<path d="M8.63197 22.267C8.53979 26.3455 8.72521 30.4256 9.18697 34.479" stroke="#00034A" stroke-miterlimit="10" stroke-linecap="round"/>
<path d="M30.329 22.267C30.4212 26.3455 30.2358 30.4256 29.774 34.479" stroke="#00034A" stroke-miterlimit="10" stroke-linecap="round"/>
<path d="M23.268 35.8419C23.495 34.6909 23.593 33.518 23.561 32.346C23.561 30.924 23.483 28.451 22.85 28.1C22.538 27.74 20.902 27.7 19.49 27.7C18.078 27.7 16.442 27.7 16.13 28.1C15.497 28.47 15.42 30.924 15.42 32.346C15.3873 33.5185 15.4849 34.691 15.711 35.8419" stroke="#00034A" stroke-miterlimit="10" stroke-linecap="round"/>
</g>
<defs>
<clipPath id="clip0_2301_14679">
<rect width="40" height="40" fill="white"/>
</clipPath>
</defs>
</svg>
