<svg width="40" height="40" viewBox="0 0 40 40" fill="none" xmlns="http://www.w3.org/2000/svg">
<g clip-path="url(#clip0_2301_14654)">
<path d="M36.9699 10.153C36.1199 10.153 35.4299 10.843 35.4299 11.693C35.4299 12.644 36.5519 13.925 37.5139 13.925C38.3639 13.925 39.0539 13.236 39.0539 12.385C39.0539 11.435 37.9319 10.153 36.9699 10.153Z" fill="#00034A" stroke="#00034A" stroke-miterlimit="10" stroke-linecap="round"/>
<path d="M30.7519 1.82996C29.5619 1.82996 28.5979 2.79496 28.5979 3.98396C28.5979 5.29396 30.1649 6.82996 31.4729 6.82996C32.6629 6.82996 33.6269 5.86596 33.6269 4.67696C33.6269 3.36696 32.0589 1.82996 30.7519 1.82996Z" fill="#00034A" stroke="#00034A" stroke-miterlimit="10" stroke-linecap="round"/>
<path d="M24.32 5.81604C23.469 5.81604 22.78 6.50604 22.78 7.35604C22.78 8.29504 23.895 9.45204 24.836 9.45204C25.686 9.45204 26.376 8.76204 26.376 7.91204C26.376 6.97304 25.261 5.81604 24.32 5.81604Z" fill="#00034A" stroke="#00034A" stroke-miterlimit="10" stroke-linecap="round"/>
<path d="M9.21293 1.22599C12.1169 0.835992 15.9959 0.387992 16.8049 0.660992C17.6329 0.865992 18.6349 1.09899 19.2409 1.73599C19.5569 2.06999 19.7709 2.48599 19.8579 2.93699C19.8875 3.39024 19.7877 3.84255 19.5701 4.24126C19.3525 4.63996 19.0261 4.96863 18.6289 5.18899C18.4211 5.28227 18.2019 5.34783 17.9769 5.38399C18.3669 7.42999 18.6879 9.60399 18.9509 11.553C19.7009 17.098 20.4909 24.476 19.6139 26.055C19.2729 27.555 16.6019 29.388 14.2439 29.7C12.1839 29.972 7.92993 29.252 6.83493 27.209C5.59693 25.961 4.40793 18.632 3.66793 13.097C3.40793 11.171 3.14793 9.01699 2.94393 6.96399C2.90081 6.93965 2.85846 6.91397 2.81693 6.88699C2.63997 6.88067 2.46424 6.85485 2.29293 6.80999C1.84977 6.70477 1.44615 6.47449 1.13007 6.14653C0.813991 5.81857 0.598746 5.40673 0.509934 4.95999C0.479743 4.50555 0.579104 4.05187 0.796475 3.65164C1.01385 3.25142 1.34031 2.92108 1.73793 2.69899C2.43993 2.20199 6.30793 1.61699 9.21293 1.22699V1.22599Z" fill="#00034A" stroke="#00034A" stroke-miterlimit="10"/>
<path d="M16.8051 0.65999C15.9961 0.38799 12.1171 0.83599 9.21311 1.22599C6.30911 1.61599 2.44011 2.20099 1.73811 2.69799C1.34065 2.92 1.01429 3.25018 0.796932 3.65021C0.579571 4.05024 0.480117 4.50371 0.510114 4.95799C0.598581 5.4051 0.813672 5.81736 1.12978 6.1457C1.44588 6.47404 1.84969 6.70462 2.29311 6.80999C2.50311 6.86499 2.72011 6.89199 2.93711 6.88799C3.14111 8.96399 3.40411 11.148 3.66711 13.097C4.40811 18.632 5.59711 25.961 6.83511 27.209C7.56611 28.573 10.6161 29.616 12.9751 29.304C15.3341 28.992 18.0041 27.16 18.3451 25.659C19.2221 24.08 18.4331 16.703 17.6821 11.157C17.4191 9.20699 17.0981 7.03499 16.7081 4.98699C16.9331 4.95199 17.1531 4.88699 17.3611 4.79299C17.7579 4.57247 18.0839 4.24388 18.3013 3.84541C18.5186 3.44694 18.6185 2.99495 18.5891 2.54199C18.5024 2.09072 18.2884 1.6737 17.9722 1.34021C17.6561 1.00671 17.2511 0.770674 16.8051 0.65999Z" fill="#9BFF00" stroke="#00034A" stroke-miterlimit="10"/>
<path d="M7.26394 15.8059C7.35194 16.7809 7.45894 17.7559 7.58494 18.6129C7.92694 21.1269 8.48194 24.4599 9.16494 25.0159C9.55494 25.6199 11.2209 26.0589 12.5359 25.8829C13.8519 25.7079 15.3529 24.8399 15.5579 24.1479C16.0639 23.4179 15.7329 20.0749 15.3919 17.5599C15.2657 16.6246 15.1193 15.692 14.9529 14.7629L7.26394 15.8059Z" fill="white" stroke="#00034A" stroke-miterlimit="10"/>
<path d="M5.86011 6.37203C8.54223 6.18719 11.2089 5.82237 13.8421 5.28003" stroke="#00034A" stroke-miterlimit="10" stroke-linecap="round"/>
<path d="M12.293 8.90606C12.9672 8.85884 13.6376 8.76765 14.3 8.63306" stroke="#00034A" stroke-miterlimit="10" stroke-linecap="round"/>
<path d="M12.6831 11.966C13.3574 11.9194 14.0279 11.8282 14.6901 11.693" stroke="#00034A" stroke-miterlimit="10" stroke-linecap="round"/>
<path d="M12.5171 19.178C12.6528 19.1823 12.7881 19.1592 12.9148 19.1102C13.0415 19.0612 13.157 18.9872 13.2546 18.8927C13.3521 18.7982 13.4297 18.685 13.4827 18.5599C13.5356 18.4348 13.5629 18.3004 13.5629 18.1645C13.5629 18.0287 13.5356 17.8942 13.4827 17.7691C13.4297 17.644 13.3521 17.5309 13.2546 17.4363C13.157 17.3418 13.0415 17.2678 12.9148 17.2188C12.7881 17.1698 12.6528 17.1467 12.5171 17.151C12.2538 17.1593 12.0041 17.2697 11.8207 17.4589C11.6374 17.648 11.5349 17.9011 11.5349 18.1645C11.5349 18.4279 11.6374 18.681 11.8207 18.8702C12.0041 19.0593 12.2538 19.1697 12.5171 19.178Z" fill="#00034A"/>
<path d="M11.0549 23.456C11.1907 23.4602 11.3259 23.4372 11.4526 23.3882C11.5793 23.3391 11.6949 23.2652 11.7924 23.1706C11.89 23.0761 11.9675 22.9629 12.0205 22.8379C12.0735 22.7128 12.1008 22.5783 12.1008 22.4425C12.1008 22.3066 12.0735 22.1722 12.0205 22.0471C11.9675 21.922 11.89 21.8088 11.7924 21.7143C11.6949 21.6198 11.5793 21.5458 11.4526 21.4968C11.3259 21.4478 11.1907 21.4247 11.0549 21.429C10.7916 21.4372 10.5419 21.5476 10.3586 21.7368C10.1753 21.926 10.0728 22.179 10.0728 22.4425C10.0728 22.7059 10.1753 22.959 10.3586 23.1481C10.5419 23.3373 10.7916 23.4477 11.0549 23.456Z" fill="#00034A"/>
<path d="M30.7519 6.13796C31.3232 6.13796 31.8711 5.91102 32.275 5.50706C32.679 5.10311 32.9059 4.55523 32.9059 3.98396C32.9059 3.41268 32.679 2.8648 32.275 2.46085C31.8711 2.05689 31.3232 1.82996 30.7519 1.82996C30.1806 1.82996 29.6327 2.05689 29.2288 2.46085C28.8248 2.8648 28.5979 3.41268 28.5979 3.98396C28.5979 4.55523 28.8248 5.10311 29.2288 5.50706C29.6327 5.91102 30.1806 6.13796 30.7519 6.13796Z" fill="#9BFF00" stroke="#00034A" stroke-miterlimit="10" stroke-linecap="round"/>
<path d="M24.32 8.89604C24.5223 8.89604 24.7225 8.85621 24.9094 8.77881C25.0962 8.70142 25.266 8.58799 25.409 8.44498C25.552 8.30198 25.6654 8.13221 25.7428 7.94537C25.8202 7.75853 25.86 7.55828 25.86 7.35604C25.86 7.1538 25.8202 6.95355 25.7428 6.76671C25.6654 6.57987 25.552 6.4101 25.409 6.2671C25.266 6.12409 25.0962 6.01066 24.9094 5.93327C24.7225 5.85587 24.5223 5.81604 24.32 5.81604C23.9116 5.81604 23.5199 5.97829 23.2311 6.2671C22.9423 6.5559 22.78 6.94761 22.78 7.35604C22.78 7.76447 22.9423 8.15618 23.2311 8.44498C23.5199 8.73379 23.9116 8.89604 24.32 8.89604Z" fill="#9BFF00" stroke="#00034A" stroke-miterlimit="10" stroke-linecap="round"/>
<path d="M36.9699 13.233C37.3784 13.233 37.7701 13.0707 38.0589 12.7819C38.3477 12.4931 38.5099 12.1014 38.5099 11.693C38.5099 11.2845 38.3477 10.8928 38.0589 10.604C37.7701 10.3152 37.3784 10.153 36.9699 10.153C36.5615 10.153 36.1698 10.3152 35.881 10.604C35.5922 10.8928 35.4299 11.2845 35.4299 11.693C35.4299 12.1014 35.5922 12.4931 35.881 12.7819C36.1698 13.0707 36.5615 13.233 36.9699 13.233Z" fill="#9BFF00" stroke="#00034A" stroke-miterlimit="10" stroke-linecap="round"/>
<path d="M14.2359 33.666C13.6059 34.278 13.0919 34.88 13.0819 35.2C13.1159 36.856 15.1539 39.124 16.8249 39.393C17.3309 39.452 18.7149 38.36 19.7479 37.444C20.2449 37.044 25.4109 32.6 25.9379 28.293C30.2239 28.418 35.3279 24.078 35.9459 23.553L35.9659 23.537C36.9399 22.669 38.2659 21.471 38.2759 20.954C38.2609 20.2271 37.9757 19.5319 37.4759 19.004C36.7549 18.075 35.7459 16.96 34.5429 16.761C33.966 16.8956 33.4304 17.1681 32.9819 17.555C32.9598 17.5314 32.9375 17.5081 32.9149 17.485C32.7709 17.335 32.6199 17.173 32.4649 17.006C32.2349 16.758 31.9949 16.5 31.7549 16.266C32.3789 15.652 32.8949 15.058 32.9049 14.736C32.903 14.0067 32.6163 13.307 32.1059 12.786C31.3839 11.856 30.3769 10.742 29.1729 10.543C28.6659 10.485 27.2829 11.576 26.2489 12.443C25.7229 12.892 20.5479 17.317 20.0309 21.643C15.6939 21.507 10.5189 25.951 10.0019 26.4C9.02789 27.267 7.71189 28.466 7.69189 28.973C7.72189 30.415 9.8679 33.517 11.4349 33.156C12.0169 33.026 12.5579 32.756 13.0129 32.373L13.0729 32.443C13.4139 32.839 13.7909 33.228 14.1779 33.599L14.2359 33.666Z" fill="#00034A" stroke="#00034A" stroke-miterlimit="10"/>
<path d="M24.8359 27.14C29.1729 27.267 34.3479 22.823 34.8639 22.384C35.8389 21.517 37.1639 20.318 37.1739 19.802C37.1592 19.0753 36.8743 18.3801 36.3749 17.852C35.9231 17.2711 35.269 16.8818 34.5429 16.762C33.9061 16.9102 33.3205 17.2262 32.8469 17.677C32.5249 17.219 32.1749 16.703 31.8139 16.332C31.4539 15.962 31.0539 15.504 30.6539 15.114C31.2779 14.5 31.7939 13.905 31.8039 13.584C31.802 12.8547 31.5153 12.155 31.0049 11.634C30.5531 11.0531 29.899 10.6638 29.1729 10.544C28.6659 10.484 27.2829 11.576 26.2489 12.444C25.7229 12.892 20.5479 17.317 20.0309 21.644C15.6939 21.507 10.5189 25.952 10.0019 26.4C9.02789 27.267 7.71189 28.466 7.69189 28.973C7.70789 29.699 7.99189 30.394 8.49189 30.922C9.03789 31.555 9.95389 32.092 10.3339 32.004C10.9716 31.8611 11.5599 31.5515 12.0389 31.107C12.3609 31.565 12.7119 32.023 13.0719 32.442C13.4329 32.862 13.8319 33.271 14.2419 33.661C13.6079 34.275 13.0919 34.879 13.0819 35.201C13.0969 35.927 13.3819 36.621 13.8819 37.15C14.3357 37.7332 14.9934 38.123 15.7229 38.241C16.2299 38.3 17.6139 37.208 18.6469 36.292C19.1439 35.892 24.3099 31.448 24.8359 27.14Z" fill="white" stroke="#00034A" stroke-miterlimit="10"/>
<path d="M14.3689 29.1581C15.2494 29.8343 15.9824 30.6833 16.5229 31.6531L16.7759 31.4391C15.8954 30.7496 15.1657 29.8868 14.6319 28.9041L14.3689 29.1581Z" stroke="#00034A" stroke-miterlimit="10"/>
<path d="M17 26.868C17.8778 27.5479 18.6074 28.4 19.144 29.372L19.398 29.148C18.5227 28.4688 17.7931 27.6203 17.253 26.653L17 26.868Z" stroke="#00034A" stroke-miterlimit="10"/>
<path d="M30.5181 19.597C29.6428 18.9141 28.9137 18.0623 28.3741 17.092L28.1201 17.317C28.9814 17.9994 29.6971 18.8474 30.2251 19.811L30.5181 19.597Z" stroke="#00034A" stroke-miterlimit="10"/>
<path d="M27.896 21.848C27.0133 21.1745 26.2799 20.3253 25.742 19.354L25.489 19.578C26.3718 20.2518 27.1052 21.1014 27.643 22.073L27.896 21.848Z" stroke="#00034A" stroke-miterlimit="10"/>
<path d="M24.8359 27.1399C23.3518 27.0404 21.903 26.6428 20.5759 25.9709" stroke="#00034A" stroke-miterlimit="10" stroke-linecap="round"/>
<path d="M20.0601 21.585C21.5441 21.685 22.9931 22.083 24.3201 22.755" stroke="#00034A" stroke-miterlimit="10" stroke-linecap="round"/>
<path d="M22.75 22.112L23.423 21.537C23.623 22.007 23.93 22.424 24.319 22.755" stroke="#00034A" stroke-miterlimit="10"/>
<path d="M22.01 26.566L21.454 27.209C21.2301 26.7785 20.9518 26.3786 20.626 26.019" stroke="#00034A" stroke-miterlimit="10"/>
</g>
<defs>
<clipPath id="clip0_2301_14654">
<rect width="40" height="40" fill="white"/>
</clipPath>
</defs>
</svg>
