<svg width="40" height="40" viewBox="0 0 40 40" fill="none" xmlns="http://www.w3.org/2000/svg">
<path d="M5.49473 12.9806C5.05603 12.3667 3.69933 12.5831 2.46653 13.4656C1.23373 14.3481 0.590431 15.5611 1.03023 16.176C1.22303 16.4446 1.42863 16.5538 1.62053 16.8214C2.06023 17.4363 3.41593 17.2189 4.64963 16.3364C5.88243 15.4539 6.52483 14.2408 6.08603 13.6269C5.89323 13.3574 5.68663 13.2491 5.49473 12.9806Z" fill="#00034A"/>
<path d="M8.41882 18.1653C7.97902 17.5514 6.10092 18.1427 4.22382 19.4866C2.34662 20.8295 1.18082 22.4174 1.62062 23.0313C1.83312 23.3284 2.21092 23.6776 2.21092 23.6776C2.65062 24.2915 4.52872 23.7003 6.40592 22.3574C8.28402 21.0135 9.44882 19.4256 9.00912 18.8117C8.83042 18.5807 8.63292 18.3638 8.41882 18.1653Z" fill="#00034A"/>
<path d="M10.9541 24.322C10.5143 23.7081 8.32632 24.5208 6.06642 26.1382C3.80662 27.7556 2.33092 29.5648 2.77062 30.1787C2.99692 30.4935 3.36092 30.8251 3.36092 30.8251C3.80072 31.439 5.98872 30.6264 8.24862 29.009C10.5084 27.3916 11.9841 25.5823 11.5444 24.9684C11.3181 24.6536 10.9541 24.322 10.9541 24.322Z" fill="#00034A"/>
<path d="M5.49473 12.9806C5.05603 12.3667 3.69933 12.5831 2.46653 13.4656C1.23373 14.3481 0.590431 15.5611 1.03023 16.176C1.22303 16.4446 1.42863 16.5538 1.62053 16.8214C2.06023 17.4363 3.41593 17.2189 4.64963 16.3364C5.88243 15.4539 6.52483 14.2408 6.08603 13.6269C5.89323 13.3574 5.68663 13.2491 5.49473 12.9806Z" stroke="#00034A" stroke-miterlimit="10"/>
<path d="M8.41882 18.1653C7.97902 17.5514 6.10092 18.1427 4.22382 19.4866C2.34662 20.8295 1.18082 22.4174 1.62062 23.0313C1.83312 23.3284 2.21092 23.6776 2.21092 23.6776C2.65062 24.2915 4.52872 23.7003 6.40592 22.3574C8.28402 21.0135 9.44882 19.4256 9.00912 18.8117C8.83042 18.5807 8.63292 18.3638 8.41882 18.1653Z" stroke="#00034A" stroke-miterlimit="10"/>
<path d="M10.9541 24.322C10.5143 23.7081 8.32632 24.5208 6.06642 26.1382C3.80662 27.7556 2.33092 29.5648 2.77062 30.1787C2.99692 30.4935 3.36092 30.8251 3.36092 30.8251C3.80072 31.439 5.98872 30.6264 8.24862 29.009C10.5084 27.3916 11.9841 25.5823 11.5444 24.9684C11.3181 24.6536 10.9541 24.322 10.9541 24.322Z" stroke="#00034A" stroke-miterlimit="10"/>
<path d="M5.81562 21.711C7.69372 20.3671 8.85852 18.7802 8.41882 18.1663C7.98002 17.5514 6.10092 18.1427 4.22382 19.4866C2.34662 20.8295 1.18082 22.4174 1.62062 23.0313C2.06032 23.6452 3.93842 23.0549 5.81562 21.711Z" fill="#9BFF00" stroke="#00034A" stroke-miterlimit="10"/>
<path d="M4.05932 15.691C5.29212 14.8085 5.93452 13.5954 5.49572 12.9806C5.05602 12.3667 3.69932 12.5831 2.46652 13.4656C1.23382 14.3481 0.59042 15.5611 1.03022 16.176C1.46992 16.7899 2.82552 16.5725 4.05932 15.691Z" fill="#9BFF00" stroke="#00034A" stroke-miterlimit="10"/>
<path d="M7.65832 28.3626C9.91812 26.7462 11.3938 24.9369 10.9541 24.3221C10.5143 23.7082 8.32632 24.5208 6.06642 26.1382C3.80662 27.7556 2.33092 29.5648 2.77062 30.1787C3.21042 30.7926 5.39842 29.98 7.65832 28.3626Z" fill="#9BFF00" stroke="#00034A" stroke-miterlimit="10"/>
<path d="M27.2137 15.996C30.9729 15.996 35.5073 16.4839 36.3583 17.1441C37.3618 17.5327 38.3781 18.7182 38.6752 19.7178C39.0825 21.0912 39.1081 22.9654 39.1081 24.5257C39.1081 27.0797 39.0412 31.3367 37.3382 31.9968C36.8502 32.4268 35.158 32.7426 33.092 32.9531L33.4285 35.2769C33.4777 35.3556 33.5151 35.4442 33.5387 35.5425C34.2165 35.6999 34.555 36.0079 34.555 36.6356C34.555 37.2859 34.2008 37.582 33.4924 37.7069C33.1835 37.7561 25.492 37.7197 23.4014 37.7089L22.8859 37.7069C22.1421 37.5909 20.8435 36.6562 20.8435 35.8623C20.8435 35.1638 21.2075 34.9345 21.9335 34.7535L22.2159 32.8085C20.6516 32.5793 19.4415 32.3107 19.0401 31.9968C18.4036 31.7489 17.4768 30.9205 17.159 30.3243C16.3316 28.7768 16.2903 25.7466 16.2903 23.7524C16.2903 21.1994 16.3572 17.8042 18.0602 17.1441C18.9112 16.4839 23.4545 15.996 27.2137 15.996Z" fill="#00034A" stroke="#00034A" stroke-miterlimit="10"/>
<path d="M36.3583 17.1441C35.5073 16.4839 30.9729 15.996 27.2137 15.996C23.4555 15.996 18.9112 16.4839 18.0602 17.1441C16.3582 17.8032 16.2903 21.1994 16.2903 23.7534C16.2903 26.3074 16.3572 30.5634 18.0602 31.2236C18.5482 31.6063 20.2404 31.9221 22.3074 32.1798L21.9335 34.7535C21.2065 34.9345 20.8435 35.1647 20.8435 35.8623C20.8435 36.5608 21.1681 36.8195 21.906 36.9346C22.1539 36.9346 32.1594 36.9917 32.5126 36.9346C33.2209 36.8097 33.5751 36.5136 33.5751 35.8623C33.5751 35.213 33.2111 34.906 32.484 34.7535L32.1112 32.1798C34.1772 31.9693 35.8694 31.6535 36.3583 31.2236C38.0603 30.5644 38.1272 26.3074 38.1272 23.7534C38.1272 21.1994 38.0603 17.8042 36.3583 17.1441Z" fill="#9BFF00" stroke="#00034A" stroke-miterlimit="10"/>
<path d="M34.072 28.8416C35.3441 28.3733 35.4021 25.9718 35.4021 24.1832C35.4021 22.3946 35.3441 19.9941 34.072 19.5347C33.4315 19.0664 30.0255 18.722 27.2138 18.722C24.402 18.722 20.9862 19.0664 20.3467 19.5347C19.0737 19.9941 19.0166 22.4045 19.0166 24.1832C19.0166 25.963 19.0736 28.3733 20.3457 28.8416C20.9872 29.3011 24.3922 29.6454 27.2138 29.6454C30.0354 29.6454 33.4315 29.3011 34.072 28.8416Z" fill="white" stroke="#00034A" stroke-miterlimit="10"/>
<path d="M24.2012 34.418C25.1932 34.2261 26.2044 34.1525 27.2137 34.1986C28.22 34.1527 29.2283 34.2263 30.2173 34.418" stroke="#00034A" stroke-miterlimit="10" stroke-linecap="round"/>
<path d="M17.7248 4.28845C21.3787 3.38825 25.8561 2.49005 26.8134 2.37495C29.025 2.09945 32.6799 2.75855 32.0817 5.73665C31.3163 8.23805 30.4254 10.6994 29.4126 13.1113C26.9236 19.0949 25.0149 20.3385 24.769 20.4998C24.761 20.5049 24.7531 20.5101 24.7454 20.5155C23.0011 21.8339 21.1839 20.6661 19.6964 19.5347L18.9802 18.9857C17.5428 20.4664 15.9963 21.7552 14.8353 21.1747C14.3602 20.9366 14.0876 20.6434 13.6134 20.4054C12.4269 19.8121 12.3984 17.6605 12.7811 14.227L8.3244 10.8308C7.2048 9.97005 6.5732 9.01375 8.0844 7.85575C10.2557 6.20095 16.6062 4.55605 17.7248 4.28845Z" fill="#00034A" stroke="#00034A" stroke-miterlimit="10"/>
<path d="M26.8123 2.37503C25.855 2.49013 21.3786 3.38833 17.7247 4.28853C16.6061 4.55613 10.2546 6.20103 8.08325 7.85583C6.57205 9.01383 7.20365 9.97013 8.32225 10.8309L12.7791 14.2261C12.3973 17.6596 12.4259 19.8122 13.6124 20.4055C14.7979 20.9987 16.3867 19.64 17.8497 18.1191L19.6953 19.5358C20.8149 20.3858 22.0299 20.8738 23.5224 19.7453C23.608 19.6784 25.5786 18.6169 28.1896 12.342C29.2021 9.93013 30.0926 7.46873 30.8578 4.96733C31.3359 2.58653 29.873 1.99233 26.8123 2.37503Z" fill="#9BFF00" stroke="#00034A" stroke-miterlimit="10"/>
<path d="M16.2903 12.5143C19.0339 10.4188 21.9093 8.50156 24.8988 6.77466L16.2903 12.5143Z" fill="#9BFF00"/>
<path d="M16.2903 12.5143C19.0339 10.4188 21.9093 8.50156 24.8988 6.77466" stroke="#00034A" stroke-miterlimit="10" stroke-linecap="round"/>
<path d="M17.8016 18.1191C16.9889 17.4304 16.74 17.1628 16.74 17.1628L17.8016 18.1191Z" fill="#9BFF00"/>
<path d="M17.8016 18.1191C16.9889 17.4304 16.74 17.1628 16.74 17.1628" stroke="#00034A" stroke-miterlimit="10" stroke-linecap="round"/>
</svg>
