<svg width="40" height="40" viewBox="0 0 40 40" fill="none" xmlns="http://www.w3.org/2000/svg">
<path d="M7.39299 7.41064C6.53789 7.41064 5.84399 8.10454 5.84399 8.95964C5.84399 9.94444 7.04409 10.8713 8.00049 10.8713C8.85559 10.8713 9.54949 10.1784 9.54949 9.32234C9.54949 8.33744 8.34939 7.41064 7.39299 7.41064Z" fill="#00034A" stroke="#00034A" stroke-miterlimit="10"/>
<path d="M9.42267 4.87686C9.47077 5.35846 9.97307 5.93446 10.3397 6.23716C10.8442 6.63416 11.5746 6.54896 11.9742 6.04646C13.1311 4.63116 14.3843 4.50726 15.7986 5.66316C16.5173 6.20176 17.5495 5.76046 17.6567 4.86876C17.666 4.79126 17.6675 4.71296 17.6612 4.63506C17.6199 4.13386 17.1393 3.60406 16.7726 3.28066C14.6825 1.29216 11.309 1.64686 9.67817 4.02666C9.48457 4.26556 9.39317 4.57116 9.42267 4.87686Z" fill="#00034A" stroke="#00034A" stroke-miterlimit="10"/>
<path d="M31.3447 28.179C30.1667 28.1789 29.2119 29.1339 29.2119 30.3119C29.2119 31.5906 30.6547 32.9823 31.9305 32.9823C33.1084 32.9823 34.0633 32.0274 34.0633 30.8495C34.0633 29.5708 32.6205 28.179 31.3447 28.179Z" fill="#00034A" stroke="#00034A" stroke-miterlimit="10"/>
<path d="M27.3386 3.41431C21.345 3.41431 16.4856 8.27271 16.4856 14.2663C16.4856 20.4014 22.1244 26.0176 28.2566 26.0176C34.2502 26.0176 39.1085 21.1592 39.1085 15.1656C39.1085 9.03051 33.4708 3.41431 27.3386 3.41431Z" fill="#00034A" stroke="#00034A" stroke-miterlimit="10"/>
<path d="M27.3386 25.1192C33.3322 25.1192 38.1905 20.2598 38.1905 14.2662C38.1905 8.27261 33.3332 3.41431 27.3386 3.41431C21.345 3.41431 16.4856 8.27271 16.4856 14.2663C16.4856 20.2608 21.345 25.1192 27.3386 25.1192Z" fill="#9BFF00" stroke="#00034A" stroke-miterlimit="10"/>
<path d="M26.4107 23.5417C24.7378 22.088 23.7146 18.8563 23.4089 14.5444C23.1023 10.2315 23.6576 6.8947 25.1201 5.2218" stroke="#00034A" stroke-miterlimit="10" stroke-linecap="round"/>
<path d="M28.2566 5.00159C29.9393 6.44549 30.9526 9.68699 31.2593 13.9891C31.564 18.2921 31.0106 21.6388 29.5569 23.3215" stroke="#00034A" stroke-miterlimit="10" stroke-linecap="round"/>
<path d="M18.5901 11.5319C21.3804 10.9541 24.2085 10.577 27.0527 10.4035C29.893 10.1754 32.746 10.1497 35.5899 10.3269" stroke="#00034A" stroke-miterlimit="10" stroke-linecap="round"/>
<path d="M36.0782 17.0105C33.2846 17.5881 30.4533 17.9652 27.6058 18.1388C24.7652 18.3678 21.9118 18.3934 19.0676 18.2155" stroke="#00034A" stroke-miterlimit="10" stroke-linecap="round"/>
<path d="M22.5096 15.3189C21.7263 14.8403 17.3849 13.9802 13.761 13.5782C10.1371 13.1762 5.70143 13.0907 4.84043 13.3866C3.15673 13.5881 2.63093 15.5391 2.46873 17.0203C2.33503 18.2351 2.38223 19.7743 3.29143 20.6156C2.24953 21.2565 1.86623 22.7485 1.73253 23.9525C1.59893 25.1575 1.65593 26.7065 2.53553 27.5577C1.46423 28.1887 1.08193 29.6807 0.948231 30.8946C0.856831 31.7251 0.846931 32.7247 1.13793 33.5415C1.43673 34.3848 2.39993 35.6085 3.25113 35.9092C4.03543 36.3869 8.37583 37.2479 11.9997 37.6391C15.6235 38.0322 20.0603 38.1364 20.9213 37.8406C22.604 37.6302 23.1298 35.6891 23.292 34.1971C23.4256 32.993 23.3785 31.4529 22.4988 30.6027C23.5406 29.9707 23.924 28.4796 24.0478 27.2648C24.1716 26.0509 24.1333 24.5118 23.2536 23.6704C24.2955 23.0384 24.6788 21.5474 24.8125 20.3326C24.898 19.5433 24.9118 18.6096 24.669 17.8213C24.3938 16.9279 23.404 15.6344 22.5096 15.3189Z" fill="#00034A" stroke="#00034A" stroke-miterlimit="10"/>
<path d="M21.7263 29.6513C22.7681 29.0202 23.1514 27.5282 23.2753 26.3144C23.3991 25.1005 23.3608 23.5604 22.4811 22.719C23.523 22.088 23.9063 20.596 24.04 19.3821C24.2021 17.8901 24.1068 15.8831 22.5096 15.3189C21.7263 14.8403 17.3849 13.9802 13.761 13.5782C10.1371 13.1762 5.70139 13.0907 4.84039 13.3876C3.15669 13.5881 2.63089 15.5381 2.46869 17.0203C2.33499 18.2351 2.38219 19.7743 3.29139 20.6157C2.24949 21.2565 1.86619 22.7485 1.73249 23.9525C1.59889 25.1575 1.65589 26.7066 2.53549 27.5577C1.46419 28.1887 1.08189 29.6807 0.948187 30.8946C0.785987 32.3768 0.881387 34.3936 2.47849 34.9578C3.26189 35.4365 7.60329 36.2965 11.2271 36.6887C14.851 37.0808 19.2867 37.186 20.1477 36.8892C21.8314 36.6788 22.3573 34.7386 22.5194 33.2466C22.6531 32.0416 22.6059 30.5024 21.7263 29.6513Z" fill="white" stroke="#00034A" stroke-miterlimit="10"/>
<path d="M19.8236 22.26C17.7937 21.8594 15.7447 21.5628 13.6845 21.3715C11.6319 21.1103 9.56699 20.9568 7.49829 20.9115" stroke="#00034A" stroke-miterlimit="10" stroke-linecap="round"/>
<path d="M19.5462 17.6228C19.037 17.5229 18.5229 17.4494 18.0061 17.4026C17.4927 17.3312 16.9753 17.2931 16.457 17.2886" stroke="#00034A" stroke-miterlimit="10" stroke-linecap="round"/>
<path d="M19.3548 19.4205C19.0579 19.3536 18.5518 19.277 17.8254 19.1915C17.3115 19.1249 16.7944 19.0866 16.2764 19.0765" stroke="#00034A" stroke-miterlimit="10" stroke-linecap="round"/>
<path d="M6.70508 28.1887C7.88058 28.4462 9.92698 28.7529 12.8432 29.0772C15.7594 29.4026 17.8254 29.5362 19.0294 29.5362" stroke="#00034A" stroke-miterlimit="10" stroke-linecap="round"/>
<path d="M6.74231 18.2725C7.64001 18.2986 8.22941 17.3431 7.80321 16.5526C7.59381 16.1643 7.18331 15.9272 6.74231 15.9401C5.84451 15.9663 5.31181 16.9544 5.78331 17.7188C5.98941 18.053 6.34981 18.261 6.74231 18.2725Z" fill="#9BFF00" stroke="#00034A" stroke-miterlimit="10" stroke-linecap="round"/>
<path d="M11.3706 18.7698C12.2684 18.796 12.8578 17.8405 12.4316 17.05C12.2222 16.6616 11.8117 16.4246 11.3706 16.4374C10.4729 16.4636 9.94023 17.4518 10.4117 18.2161C10.6178 18.5503 10.9782 18.7584 11.3706 18.7698Z" fill="#9BFF00" stroke="#00034A" stroke-miterlimit="10" stroke-linecap="round"/>
<path d="M18.7914 24.555C18.2853 24.4542 17.7741 24.3807 17.2601 24.3349C16.7494 24.269 16.2356 24.231 15.7209 24.2209" stroke="#00034A" stroke-miterlimit="10" stroke-linecap="round"/>
<path d="M18.5899 26.3527C18.0808 26.2521 17.5666 26.1786 17.0497 26.1326C16.5364 26.0608 16.019 26.0224 15.5007 26.0176" stroke="#00034A" stroke-miterlimit="10" stroke-linecap="round"/>
<path d="M5.98741 25.2047C6.88511 25.2309 7.47451 24.2754 7.04831 23.4849C6.83901 23.0965 6.42841 22.8595 5.98741 22.8723C5.08971 22.8985 4.55691 23.8867 5.02841 24.651C5.23461 24.9852 5.59501 25.1933 5.98741 25.2047Z" fill="#9BFF00" stroke="#00034A" stroke-miterlimit="10" stroke-linecap="round"/>
<path d="M10.6062 25.7119C11.5043 25.7145 12.0684 24.7439 11.6217 23.9648C11.4131 23.6011 11.0254 23.3773 10.6062 23.3785C9.70809 23.3812 9.14959 24.355 9.60089 25.1315C9.80919 25.4897 10.1918 25.7107 10.6062 25.7119Z" fill="#9BFF00" stroke="#00034A" stroke-miterlimit="10" stroke-linecap="round"/>
<path d="M17.9492 32.2618C17.6524 32.1949 17.1462 32.1183 16.4189 32.0328C15.6926 31.9463 15.1667 31.9649 14.8699 31.9649" stroke="#00034A" stroke-miterlimit="10" stroke-linecap="round"/>
<path d="M17.7574 34.0496C17.2469 33.9595 16.7335 33.8861 16.2182 33.8295C15.7043 33.763 15.1872 33.725 14.6692 33.7155" stroke="#00034A" stroke-miterlimit="10" stroke-linecap="round"/>
<path d="M5.14623 32.9026C6.04433 32.9052 6.60843 31.9347 6.16173 31.1556C5.95313 30.7919 5.56543 30.568 5.14623 30.5693C4.24813 30.5719 3.68963 31.5458 4.14093 32.3222C4.34923 32.6805 4.73183 32.9014 5.14623 32.9026Z" fill="#9BFF00" stroke="#00034A" stroke-miterlimit="10" stroke-linecap="round"/>
<path d="M9.76476 33.4088C10.6625 33.435 11.2519 32.4795 10.8257 31.6889C10.6164 31.3006 10.2058 31.0636 9.76476 31.0764C8.86706 31.1026 8.33426 32.0908 8.80576 32.8551C9.01196 33.1893 9.37236 33.3974 9.76476 33.4088Z" fill="#9BFF00" stroke="#00034A" stroke-miterlimit="10" stroke-linecap="round"/>
<path d="M7.39304 10.5087C8.58554 10.5117 9.33404 9.22275 8.74044 8.18855C8.46354 7.70615 7.94934 7.40925 7.39304 7.41065C6.20064 7.41365 5.45864 8.70635 6.05754 9.73755C6.33404 10.2136 6.84244 10.5073 7.39304 10.5087Z" fill="#9BFF00" stroke="#00034A" stroke-miterlimit="10"/>
<path d="M31.3449 32.4435C32.9864 32.4789 34.0506 30.724 33.2605 29.2848C32.878 28.5879 32.1396 28.1617 31.3449 28.1788C29.7034 28.2142 28.7158 30.0132 29.5672 31.4171C29.9453 32.0407 30.6158 32.4278 31.3449 32.4435Z" fill="#9BFF00" stroke="#00034A" stroke-miterlimit="10"/>
<path d="M9.84045 5.66126C9.34705 5.25316 9.27465 4.52376 9.67825 4.02666C11.3087 1.64656 14.6822 1.29136 16.7727 3.27966C17.4498 3.86966 17.2343 4.97146 16.3848 5.26286C16.0168 5.38916 15.6101 5.32356 15.3003 5.08816C13.885 3.93036 12.6328 4.05516 11.4759 5.47056C11.0763 5.97356 10.3451 6.05886 9.84045 5.66126Z" fill="#9BFF00" stroke="#00034A" stroke-miterlimit="10"/>
</svg>
