<svg width="40" height="40" viewBox="0 0 40 40" fill="none" xmlns="http://www.w3.org/2000/svg">
<g clip-path="url(#clip0_2301_13288)">
<path d="M39.5 14.25V12.62C39.5 8.96 38.78 4.09 35.83 3.15C34.36 2.2 26.51 1.25 20 1.25C13.49 1.25 5.64 2.2 4.17 3.15C1.22 4.09 0.5 9 0.5 12.62V14.25C0.503611 14.9704 0.667979 15.6808 0.981112 16.3296C1.29425 16.9784 1.74825 17.549 2.31 18C2.08924 19.9085 1.98571 21.8288 2 23.75C2 28.58 2.51 35 5.26 36.25C6.63 37.5 13.94 38.75 20 38.75C26.06 38.75 33.37 37.5 34.74 36.25C37.49 35 38 28.58 38 23.75C38.0143 21.8288 37.9108 19.9085 37.69 18C38.2523 17.5495 38.7067 16.9789 39.0199 16.3301C39.333 15.6812 39.4971 14.9705 39.5 14.25ZM29.83 30.75C28.91 31.75 24.04 32.75 20 32.75C15.96 32.75 11.09 31.75 10.17 30.75C8.34 29.75 8 24.62 8 20.75C8 19.98 8 19.15 8.05 18.32C8.7248 17.8766 9.27901 17.2726 9.66297 16.5623C10.0469 15.852 10.2486 15.0575 10.25 14.25C10.3068 15.5047 10.8453 16.6892 11.7533 17.557C12.6613 18.4249 13.869 18.9091 15.125 18.9091C16.381 18.9091 17.5887 18.4249 18.4967 17.557C19.4047 16.6892 19.9432 15.5047 20 14.25C20.0568 15.5047 20.5953 16.6892 21.5033 17.557C22.4113 18.4249 23.619 18.9091 24.875 18.9091C26.131 18.9091 27.3387 18.4249 28.2467 17.557C29.1547 16.6892 29.6932 15.5047 29.75 14.25C29.7568 15.062 29.9661 15.8596 30.359 16.5703C30.7519 17.281 31.3159 17.8824 32 18.32C32 19.15 32.05 19.98 32.05 20.75C32 24.62 31.66 29.75 29.83 30.75Z" fill="#FF52A1" stroke="#231F20" stroke-linejoin="round"/>
<path d="M10.25 9.37001V6.73001" stroke="#231F20" stroke-linecap="round" stroke-linejoin="round"/>
<path d="M20 9.37V6" stroke="#231F20" stroke-linecap="round" stroke-linejoin="round"/>
<path d="M29.75 9.37001V6.73001" stroke="#231F20" stroke-linecap="round" stroke-linejoin="round"/>
<path d="M32.9199 5.07001C34.5899 5.38001 35.3999 5.46001 35.9199 7.07001" stroke="white" stroke-miterlimit="10" stroke-linecap="round"/>
</g>
<defs>
<clipPath id="clip0_2301_13288">
<rect width="40" height="40" fill="white"/>
</clipPath>
</defs>
</svg>
