<svg width="40" height="40" viewBox="0 0 40 40" fill="none" xmlns="http://www.w3.org/2000/svg">
<g clip-path="url(#clip0_2301_14592)">
<path fill-rule="evenodd" clip-rule="evenodd" d="M2.60626 17.7165C2.40836 19.4883 2.31586 21.2703 2.32916 23.053C2.32916 26.1959 2.55426 30.0405 3.52426 32.5614C3.99006 33.7741 5.06126 35.5539 6.29566 36.1141C7.60766 37.3131 14.6129 38.5101 20.4211 38.5101C26.2293 38.5101 33.2336 37.3121 34.5466 36.1141C37.1824 34.9161 37.6718 28.7639 37.6718 24.135C37.6852 22.2939 37.5858 20.4536 37.374 18.6246C38.4656 17.7502 39.1032 16.4292 39.1086 15.0306V13.468C39.1086 11.4828 38.8875 9.12307 38.1809 7.28627C37.6158 5.81607 36.3185 3.81117 34.75 3.31097C33.3407 2.40087 25.8176 1.48987 19.5789 1.48987C13.3402 1.48987 5.81706 2.40087 4.40866 3.31097C1.58126 4.21217 0.891357 8.91667 0.891357 12.3869V13.9486C0.897557 15.2093 1.41666 16.4132 2.32916 17.2831C2.41366 17.4325 2.50606 17.5789 2.60626 17.7165ZM19.5789 31.6778C23.451 31.6778 28.1182 30.7196 28.9998 29.7614C30.753 28.8022 31.0793 23.8864 31.1275 20.1774C31.1275 19.8157 31.1157 19.4403 31.1039 19.057C31.0947 18.7868 31.0874 18.5165 31.0823 18.2462C30.53 17.6762 29.9432 16.9313 29.5472 16.2443C28.4939 19.5345 24.3597 20.5866 21.8619 18.2C21.2673 17.632 20.6589 16.8428 20.2364 16.1362C19.2501 19.4996 15.0509 20.6223 12.5176 18.2C11.9368 17.6448 11.3511 16.8792 10.9285 16.1952C10.6376 17.3189 9.93906 18.2942 8.96876 18.9312C8.92066 19.7273 8.92066 20.5223 8.92066 21.2604C8.92066 24.1498 9.11916 27.7742 10.0361 29.6867C10.0754 29.7133 10.1167 29.7378 10.159 29.7614C11.0405 30.7196 15.7077 31.6778 19.5789 31.6778Z" fill="#00034A" stroke="#00034A" stroke-linejoin="round"/>
<path d="M38.2664 13.9486V12.3859C38.2664 8.87837 37.5765 4.21217 34.75 3.31097C33.3407 2.40087 25.8176 1.48987 19.5789 1.48987C13.3402 1.48987 5.81706 2.40087 4.40866 3.31097C1.58126 4.21217 0.891357 8.91667 0.891357 12.3869V13.9486C0.898357 15.3468 1.53566 16.6672 2.62596 17.5426C2.41446 19.3716 2.31536 21.2118 2.32916 23.053C2.32916 27.6819 2.81756 33.8341 5.45336 35.0321C6.76636 36.2301 13.7717 37.4281 19.5789 37.4281C25.3871 37.4281 32.3923 36.2291 33.7053 35.0321C36.3401 33.8341 36.8296 27.6809 36.8296 23.052C36.8429 21.2112 36.7435 19.3712 36.5318 17.5426C37.6232 16.6681 38.2608 15.3471 38.2664 13.9486ZM28.9988 29.7614C28.1182 30.7196 23.451 31.6778 19.5789 31.6778C15.7067 31.6778 11.0405 30.7196 10.159 29.7614C8.40466 28.8022 8.07936 23.8864 8.07936 20.1774C8.07936 19.4403 8.07936 18.6443 8.12656 17.8482C9.44026 16.9854 10.2327 15.5203 10.2356 13.9486C10.4087 17.5448 14.4098 19.6051 17.4377 17.6571C18.7087 16.8395 19.5062 15.4581 19.5789 13.9486C19.7438 17.5452 23.7403 19.6145 26.7726 17.6733C28.0517 16.8545 28.8535 15.4657 28.9231 13.9486C28.9361 15.5297 29.7473 16.9972 31.0793 17.8492C31.0793 18.6452 31.1275 19.4403 31.1275 20.1784C31.0784 23.8864 30.754 28.8032 28.9998 29.7604L28.9988 29.7614Z" fill="#9BFF00" stroke="#00034A" stroke-linejoin="round"/>
<path d="M10.2356 9.27154V6.74194" stroke="#00034A" stroke-linecap="round" stroke-linejoin="round"/>
<path d="M19.5789 9.27151V6.04211" stroke="#00034A" stroke-linecap="round" stroke-linejoin="round"/>
<path d="M28.9231 9.27154V6.74194" stroke="#00034A" stroke-linecap="round" stroke-linejoin="round"/>
<path d="M19.5542 31.6896C23.4264 31.6896 28.0945 30.7314 28.9751 29.7732C30.7294 28.815 31.0547 23.8982 31.1028 20.1892C31.1028 19.4521 31.0547 18.6562 31.0547 17.8601C29.7229 17.0083 28.9118 15.5412 28.8984 13.9604C28.7254 17.5566 24.7242 19.6169 21.6963 17.6689C20.4254 16.8513 19.6278 15.4699 19.5552 13.9604C19.4076 17.557 15.422 19.6451 12.381 17.719C11.0848 16.898 10.2738 15.4934 10.211 13.9604C10.2082 15.5322 9.41629 16.9975 8.10289 17.861C8.05469 18.657 8.05469 19.4522 8.05469 20.1903C8.05469 23.8983 8.38099 28.815 10.1343 29.7722C11.0158 30.7314 15.682 31.6896 19.5542 31.6896Z" fill="white" stroke="#00034A" stroke-linejoin="round"/>
</g>
<defs>
<clipPath id="clip0_2301_14592">
<rect width="40" height="40" fill="white"/>
</clipPath>
</defs>
</svg>
