<svg width="40" height="40" viewBox="0 0 40 40" fill="none" xmlns="http://www.w3.org/2000/svg">
<g clip-path="url(#clip0_2301_14579)">
<path d="M19.278 1.83901C24.482 1.83901 33.005 2.11901 35.738 4.11001C36.35 4.55601 37.522 5.67301 37.863 6.27801C39.356 7.65501 39.5 14.77 39.5 20.722C39.5 26.673 39.356 33.818 37.863 35.167C36.37 37.815 26.5 38.161 20.723 38.161C15.829 38.161 8.001 37.913 4.812 36.228C4.071 35.837 2.55 34.455 2.137 33.722C0.644 32.345 0.5 25.2 0.5 19.278C0.5 13.356 0.644 6.21001 2.137 4.83301C3.63 2.18501 13.5 1.83801 19.277 1.83801L19.278 1.83901Z" fill="#00034A" stroke="#00034A" stroke-miterlimit="10"/>
<path d="M36.419 4.83301C34.926 2.18501 25.056 1.83801 19.278 1.83801C13.5 1.83801 3.63 2.18501 2.137 4.83301C0.644 6.21001 0.5 13.355 0.5 19.278C0.5 25.2 0.644 32.345 2.137 33.722C3.63 36.37 13.5 36.717 19.277 36.717C25.056 36.717 34.926 36.37 36.419 33.722C37.911 32.374 38.056 25.229 38.056 19.278C38.056 13.327 37.911 6.21001 36.419 4.83301Z" fill="#9BFF00" stroke="#00034A" stroke-miterlimit="10"/>
<path d="M31.517 16.6C30.457 15.224 23.39 15.252 19.277 15.252C15.166 15.252 8.09701 15.252 7.03901 16.601C5.96901 17.284 5.86401 20.944 5.86401 23.977C5.86401 27.01 5.97001 30.66 7.03901 31.344C8.09801 32.721 15.166 32.692 19.278 32.692C23.39 32.692 30.458 32.692 31.517 31.344C32.586 30.66 32.692 27.001 32.692 23.977C32.692 20.953 32.586 17.283 31.517 16.6Z" fill="white" stroke="#00034A" stroke-miterlimit="10"/>
<path d="M34.0299 11.468C34.0299 11.468 29.1099 11.228 19.2779 11.228C9.4459 11.228 4.5249 11.468 4.5249 11.468" stroke="#00034A" stroke-miterlimit="10" stroke-linecap="round"/>
<path d="M28.6669 24.1701C28.6669 24.1701 25.5369 23.9771 19.2769 23.9771C13.0179 23.9771 9.88892 24.1701 9.88892 24.1701" stroke="#00034A" stroke-miterlimit="10" stroke-linecap="round"/>
<path d="M14.155 19.278V23.977" stroke="#00034A" stroke-miterlimit="10" stroke-linecap="round"/>
<path d="M24.3999 23.977V19.277" stroke="#00034A" stroke-miterlimit="10" stroke-linecap="round"/>
<path d="M16.7161 23.9771V28.6671" stroke="#00034A" stroke-miterlimit="10" stroke-linecap="round"/>
<path d="M7.2019 11.227L9.8899 5.86401" stroke="#00034A" stroke-miterlimit="10" stroke-linecap="round"/>
<path d="M13.9141 11.227L16.5911 5.86401" stroke="#00034A" stroke-miterlimit="10" stroke-linecap="round"/>
<path d="M20.616 11.227L23.303 5.86401" stroke="#00034A" stroke-miterlimit="10" stroke-linecap="round"/>
<path d="M27.3279 11.227L30.0049 5.86401" stroke="#00034A" stroke-miterlimit="10" stroke-linecap="round"/>
</g>
<defs>
<clipPath id="clip0_2301_14579">
<rect width="40" height="40" fill="white"/>
</clipPath>
</defs>
</svg>
