<svg width="40" height="40" viewBox="0 0 40 40" fill="none" xmlns="http://www.w3.org/2000/svg">
<path d="M36.07 18.27C35.86 17.7792 35.516 17.3575 35.0774 17.0533C34.6387 16.7491 34.1232 16.5746 33.59 16.55C32.89 16.45 30.46 17.24 28.02 18.13C28.8024 16.5817 29.1905 14.8643 29.15 13.13C29.2064 11.2565 28.7499 9.4031 27.83 7.77C28.04 5.65 28.16 3.71 28.12 3.38C28 2.48 26.23 1.62 25.12 1.18C24.01 0.739999 22.12 0.179999 21.4 0.779999C20.508 1.80145 19.6798 2.87682 18.92 4C13.56 4.42 10.92 8 10.92 13.09C10.8736 14.8539 11.2726 16.601 12.08 18.17C9.60997 17.27 7.14997 16.46 6.43997 16.56C5.8993 16.5808 5.37583 16.7556 4.93116 17.0639C4.48649 17.3721 4.13913 17.801 3.92997 18.3C3.75914 18.8049 3.73228 19.3473 3.85238 19.8666C3.97249 20.3858 4.23481 20.8614 4.60997 21.24C5.89371 22.1352 7.29319 22.8518 8.76997 23.37C8.12969 24.958 7.81349 26.658 7.83997 28.37C7.83997 35 11.9 39.5 20 39.5C28.1 39.5 32.2 35 32.2 28.34C32.2098 26.6227 31.8695 24.9214 31.2 23.34C32.6719 22.8251 34.0652 22.1083 35.34 21.21C35.7257 20.8381 35.9988 20.365 36.1279 19.845C36.257 19.325 36.237 18.7791 36.07 18.27Z" fill="#48EEFF" stroke="#231F20" stroke-miterlimit="10"/>
<path d="M25.7599 6.79001C25.0634 6.31119 24.3154 5.91203 23.5299 5.60001C22.7588 5.24207 21.9506 4.97042 21.1199 4.79001" stroke="#231F20" stroke-miterlimit="10" stroke-linecap="round"/>
<path d="M17.99 25.29C17.99 25.8284 18.2039 26.3447 18.5846 26.7254C18.9653 27.1061 19.4816 27.32 20.02 27.32C20.5584 27.32 21.0747 27.1061 21.4554 26.7254C21.8361 26.3447 22.05 25.8284 22.05 25.29C22.05 24.7516 21.8361 24.2353 21.4554 23.8546C21.0747 23.4739 20.5584 23.26 20.02 23.26C19.4816 23.26 18.9653 23.4739 18.5846 23.8546C18.2039 24.2353 17.99 24.7516 17.99 25.29Z" fill="#FFE236" stroke="#231F20" stroke-miterlimit="10"/>
<path d="M17.99 32.4C17.99 32.9384 18.2039 33.4547 18.5846 33.8354C18.9653 34.2161 19.4816 34.43 20.02 34.43C20.5584 34.43 21.0747 34.2161 21.4554 33.8354C21.8361 33.4547 22.05 32.9384 22.05 32.4C22.05 31.8616 21.8361 31.3453 21.4554 30.9646C21.0747 30.5839 20.5584 30.37 20.02 30.37C19.4816 30.37 18.9653 30.5839 18.5846 30.9646C18.2039 31.3453 17.99 31.8616 17.99 32.4Z" fill="#FFE236" stroke="#231F20" stroke-miterlimit="10"/>
<path d="M14.95 11.59C14.95 11.9931 15.1101 12.3798 15.3951 12.6648C15.6802 12.9499 16.0668 13.11 16.47 13.11C16.8731 13.11 17.2597 12.9499 17.5448 12.6648C17.8298 12.3798 17.99 11.9931 17.99 11.59C17.99 11.1869 17.8298 10.8003 17.5448 10.5152C17.2597 10.2302 16.8731 10.07 16.47 10.07C16.0668 10.07 15.6802 10.2302 15.3951 10.5152C15.1101 10.8003 14.95 11.1869 14.95 11.59Z" fill="#231F20"/>
<path d="M22.05 11.59C22.05 11.7896 22.0894 11.9873 22.1658 12.1717C22.2421 12.3561 22.3541 12.5237 22.4952 12.6648C22.6364 12.806 22.804 12.9179 22.9884 12.9943C23.1728 13.0707 23.3704 13.11 23.57 13.11C23.7697 13.11 23.9673 13.0707 24.1517 12.9943C24.3361 12.9179 24.5037 12.806 24.6449 12.6648C24.786 12.5237 24.898 12.3561 24.9743 12.1717C25.0507 11.9873 25.09 11.7896 25.09 11.59C25.09 11.3904 25.0507 11.1927 24.9743 11.0083C24.898 10.8239 24.786 10.6564 24.6449 10.5152C24.5037 10.3741 24.3361 10.2621 24.1517 10.1857C23.9673 10.1093 23.7697 10.07 23.57 10.07C23.3704 10.07 23.1728 10.1093 22.9884 10.1857C22.804 10.2621 22.6364 10.3741 22.4952 10.5152C22.3541 10.6564 22.2421 10.8239 22.1658 11.0083C22.0894 11.1927 22.05 11.3904 22.05 11.59Z" fill="#231F20"/>
<path d="M17 16.16C17.8434 16.8502 18.9112 17.2061 20 17.16C21.1053 17.2148 22.1917 16.8586 23.05 16.16" stroke="#231F20" stroke-miterlimit="10" stroke-linecap="round"/>
<path d="M25.26 3.12C26.42 3.65 26.48 3.6 26.34 4.79" stroke="white" stroke-miterlimit="10" stroke-linecap="round"/>
</svg>
