<svg width="40" height="40" viewBox="0 0 40 40" fill="none" xmlns="http://www.w3.org/2000/svg">
<g clip-path="url(#clip0_2301_14512)">
<path d="M33.0106 10.8392C32.7227 10.2446 33.2308 9.32461 35.1012 8.29851C36.4575 7.55351 38.1137 7.29791 38.9452 8.85481C39.2302 9.38751 39.2862 9.92021 37.8925 10.8058C38.2572 11.0741 38.5904 11.3562 38.8213 11.7218C39.1467 12.345 38.6582 13.2354 36.7406 14.2625C35.3499 15.0056 33.7104 15.27 32.8485 13.7062C32.5516 13.1696 32.5054 12.6349 33.9267 11.7385C33.5551 11.4722 33.2367 11.2019 33.0106 10.8392Z" fill="#00034A" stroke="#00034A" stroke-miterlimit="10" stroke-linecap="round"/>
<path d="M26.8549 3.75367C28.3223 1.59627 29.3189 1.44397 29.9519 1.83617C31.1175 2.56047 31.6601 3.51687 30.9829 4.81817C31.1008 4.86537 31.2139 4.92237 31.323 4.99017C33.214 6.20597 32.4071 8.00557 31.2945 9.63127C29.8182 11.7887 28.8117 11.9508 28.1886 11.5488C27.0318 10.8019 26.4814 9.87987 27.1684 8.56287C27.0464 8.51417 26.9289 8.45457 26.8175 8.38497C25.015 7.08167 25.701 5.45107 26.8549 3.75367Z" fill="#00034A" stroke="#00034A" stroke-miterlimit="10" stroke-linecap="round"/>
<path d="M33.2504 17.445C31.7495 16.4573 29.7229 15.8145 27.9291 15.7476C27.4397 15.7476 27.0662 16.5634 26.8165 17.2819C25.2538 17.0037 23.8257 17.0037 23.1829 17.7143C22.3199 18.2117 20.8918 21.8837 19.8942 25.0003C18.8976 28.116 17.9776 31.9325 18.3511 32.8436C18.6499 35.3528 23.2261 36.721 25.0818 37.3107C27.5556 38.097 30.9013 38.9314 31.9943 37.7333C32.8572 37.234 34.2853 33.5522 35.2829 30.4464C36.2796 27.3405 37.2192 23.5339 36.8073 22.6228C36.6737 21.5121 35.0873 20.3818 34.188 19.854C34.4819 18.65 34.071 18.2225 33.2504 17.445Z" fill="#00034A" stroke="#00034A" stroke-miterlimit="10"/>
<path d="M11.7589 13.8231C11.8837 13.9509 12.0469 14.0344 12.2238 14.0609C12.8948 14.1062 13.5687 14.0642 14.2289 13.9361C14.8897 13.8173 15.5334 13.6175 16.1455 13.3415C16.4658 13.1651 16.6272 12.795 16.5386 12.4402C16.45 12.0854 16.5288 11.8839 15.3307 10.4558C14.6491 9.62445 13.8703 8.87775 13.0111 8.23165C12.6604 8.01515 12.2024 8.10215 11.9555 8.43215C11.5905 9.00645 11.3005 9.62505 11.0925 10.273C10.8167 10.9987 10.6768 11.769 10.6797 12.5454C10.7013 12.7232 10.7807 12.889 10.9058 13.0171C11.1918 13.312 11.4651 13.5204 11.7589 13.8231Z" fill="#00034A"/>
<path d="M15.0625 15.441C11.3187 15.441 8.28369 18.476 8.28369 22.2198C8.28369 26.111 12.0304 29.8036 15.9157 29.8036C19.6592 29.8038 22.6939 26.7693 22.6945 23.0258C22.6945 19.1336 18.9478 15.441 15.0625 15.441Z" fill="#00034A"/>
<path d="M14.4678 33.0156C14.4678 33.0156 14.4678 33.5621 15.6669 34.9912C16.3474 35.8206 17.1263 36.5642 17.9865 37.2055C18.3328 37.4335 18.7971 37.3491 19.0411 37.0139C19.4046 36.4388 19.6946 35.8203 19.904 35.173C20.1832 34.4358 20.3227 33.6515 20.3168 32.8632C20.2987 32.6841 20.2204 32.5164 20.0947 32.3875C19.7605 32.0435 19.2829 31.4125 18.7728 31.3477C18.1051 31.3018 17.4344 31.3434 16.7775 31.4715C16.116 31.5874 15.4719 31.7872 14.8609 32.0661C14.5455 32.247 14.3858 32.6132 14.4678 32.9674V33.0156Z" fill="#00034A"/>
<path d="M5.70465 13.7732C7.57405 13.9363 7.95735 14.3196 7.95735 14.3196C8.33675 14.5457 8.98545 15.104 9.14765 15.5423C9.21215 15.7166 9.21525 15.9076 9.15645 16.0839C8.91985 16.7165 8.59695 17.3135 8.19715 17.8579C7.82595 18.4139 7.38465 18.9196 6.88405 19.3627C6.74415 19.4629 6.57645 19.5168 6.40445 19.517C5.82655 19.517 5.49925 18.8624 5.07165 18.5577C4.52575 17.9998 4.08135 17.3509 3.75855 16.6402C3.44765 16.033 3.21545 15.3886 3.06755 14.7226C3.00195 14.3144 3.26775 13.9263 3.67205 13.84C4.34395 13.7312 5.02705 13.7088 5.70465 13.7732Z" fill="#00034A"/>
<path d="M21.8491 29.9146C21.7843 29.74 21.7811 29.5486 21.8403 29.372C22.0822 28.7448 22.4047 28.1518 22.7995 27.6078C23.168 27.0497 23.6096 26.5436 24.1127 26.103C24.3995 25.8979 24.7851 25.8979 25.0719 26.103C25.9133 26.9512 26.7379 27.7051 27.2392 28.8255C27.5507 29.433 27.7827 30.0767 27.9291 30.7431C27.9948 31.151 27.7296 31.5389 27.3256 31.6257C26.6503 31.7078 25.9675 31.7078 25.2921 31.6257C23.4325 31.4527 23.0492 31.0793 23.0492 31.0793V31.1363C22.7003 30.9279 22.0054 30.3372 21.8491 29.9146Z" fill="#00034A"/>
<path d="M2.42473 22.891C3.85373 21.6919 4.40023 21.6919 4.40023 21.6919L4.41003 21.7116C4.58273 21.6665 4.76543 21.6807 4.92903 21.7519C5.23863 21.8875 5.98753 22.5804 6.16453 22.9107C6.44563 23.52 6.64613 24.1658 6.75913 24.8273C6.88723 25.4874 6.92923 26.1614 6.88393 26.8323C6.82983 27.1959 6.53933 27.4784 6.17433 27.5223C5.39803 27.5242 4.62793 27.3843 3.90193 27.1095C3.25483 26.8994 2.63643 26.6095 2.06103 26.2465C1.70033 25.9772 0.989727 25.4238 0.904227 24.9521C0.868727 24.7563 0.908727 24.5543 1.01623 24.3869C1.42083 23.8306 1.89353 23.3279 2.42473 22.891Z" fill="#00034A"/>
<path d="M24.8321 22.4695C24.5527 21.8583 24.3528 21.2139 24.2375 20.5519C24.1252 19.9063 24.0961 19.249 24.151 18.596C24.198 18.2286 24.4922 17.9423 24.8606 17.905C25.637 17.9021 26.4073 18.042 27.133 18.3178C27.7817 18.5252 28.3999 18.8152 28.9739 19.1808C29.3356 19.4442 30.0472 20.0054 30.1366 20.4733C30.1738 20.6692 30.1352 20.8719 30.0285 21.0404C29.6062 21.5884 29.1168 22.0813 28.5719 22.5078C27.992 22.9942 26.9581 24.0067 26.0715 23.6204C25.7177 23.4661 25.0071 22.7751 24.8321 22.4695Z" fill="#00034A"/>
<path d="M6.57746 31.6543C6.74946 29.7938 7.06586 29.4203 7.06586 29.4203C7.26726 29.0969 7.66196 28.9509 8.02516 29.0655C8.65356 29.3044 9.24696 29.6267 9.78946 30.0238C10.6446 30.5958 11.4643 31.3703 12.1483 32.1438C12.353 32.4304 12.353 32.8154 12.1483 33.1021C11.5904 33.648 10.9415 34.0923 10.2308 34.4152C9.62406 34.7275 8.97956 34.9597 8.31316 35.1061C8.11686 35.1355 7.91676 35.0895 7.75296 34.9774C7.38926 34.7277 6.68166 34.1537 6.57746 33.6967C6.49566 33.0184 6.49566 32.3327 6.57746 31.6543Z" fill="#00034A"/>
<path d="M18.8778 13.2551C18.6732 12.9684 18.6732 12.5835 18.8778 12.2968C19.4324 11.7466 20.0821 11.3014 20.7954 10.9827C21.4027 10.6722 22.047 10.4403 22.713 10.2927C22.9092 10.2613 23.1101 10.3063 23.2742 10.4186C23.6378 10.6672 24.3504 11.2442 24.4487 11.7022C24.5358 12.3769 24.5358 13.06 24.4487 13.7347C24.2855 15.5953 23.9406 16.0169 23.9406 16.0169C23.7488 16.3518 23.3445 16.5009 22.9813 16.3708C22.3502 16.1318 21.7539 15.8095 21.2082 15.4125C20.345 14.7931 19.5625 14.0683 18.8788 13.2551H18.8778Z" fill="#00034A"/>
<path d="M11.7589 13.8231C11.8837 13.9509 12.0469 14.0344 12.2238 14.0609C12.8948 14.1062 13.5687 14.0642 14.2289 13.9361C14.8897 13.8173 15.5334 13.6175 16.1455 13.3415C16.4658 13.1651 16.6272 12.795 16.5386 12.4402C16.45 12.0854 16.5288 11.8839 15.3307 10.4558C14.6491 9.62445 13.8703 8.87775 13.0111 8.23165C12.6604 8.01515 12.2024 8.10215 11.9555 8.43215C11.5905 9.00645 11.3005 9.62505 11.0925 10.273C10.8167 10.9987 10.6768 11.769 10.6797 12.5454C10.7013 12.7232 10.7807 12.889 10.9058 13.0171C11.1918 13.312 11.4651 13.5204 11.7589 13.8231Z" stroke="#00034A" stroke-miterlimit="10"/>
<path d="M15.0625 15.441C11.3187 15.441 8.28369 18.476 8.28369 22.2198C8.28369 26.111 12.0304 29.8036 15.9157 29.8036C19.6592 29.8038 22.6939 26.7693 22.6945 23.0258C22.6945 19.1336 18.9478 15.441 15.0625 15.441Z" stroke="#00034A" stroke-miterlimit="10"/>
<path d="M14.4678 33.0156C14.4678 33.0156 14.4678 33.5621 15.6669 34.9912C16.3474 35.8206 17.1263 36.5642 17.9865 37.2055C18.3328 37.4335 18.7971 37.3491 19.0411 37.0139C19.4046 36.4388 19.6946 35.8203 19.904 35.173C20.1832 34.4358 20.3227 33.6515 20.3168 32.8632C20.2987 32.6841 20.2204 32.5164 20.0947 32.3875C19.7605 32.0435 19.2829 31.4125 18.7728 31.3477C18.1051 31.3018 17.4344 31.3434 16.7775 31.4715C16.116 31.5874 15.4719 31.7872 14.8609 32.0661C14.5455 32.247 14.3858 32.6132 14.4678 32.9674V33.0156Z" stroke="#00034A" stroke-miterlimit="10"/>
<path d="M5.70465 13.7732C7.57405 13.9363 7.95735 14.3196 7.95735 14.3196C8.33675 14.5457 8.98545 15.104 9.14765 15.5423C9.21215 15.7166 9.21525 15.9076 9.15645 16.0839C8.91985 16.7165 8.59695 17.3135 8.19715 17.8579C7.82595 18.4139 7.38465 18.9196 6.88405 19.3627C6.74415 19.4629 6.57645 19.5168 6.40445 19.517C5.82655 19.517 5.49925 18.8624 5.07165 18.5577C4.52575 17.9998 4.08135 17.3509 3.75855 16.6402C3.44765 16.033 3.21545 15.3886 3.06755 14.7226C3.00195 14.3144 3.26775 13.9263 3.67205 13.84C4.34395 13.7312 5.02705 13.7088 5.70465 13.7732Z" stroke="#00034A" stroke-miterlimit="10"/>
<path d="M21.8491 29.9146C21.7843 29.74 21.7811 29.5486 21.8403 29.372C22.0822 28.7448 22.4047 28.1518 22.7995 27.6078C23.168 27.0497 23.6096 26.5436 24.1127 26.103C24.3995 25.8979 24.7851 25.8979 25.0719 26.103C25.9133 26.9512 26.7379 27.7051 27.2392 28.8255C27.5507 29.433 27.7827 30.0767 27.9291 30.7431C27.9948 31.151 27.7296 31.5389 27.3256 31.6257C26.6503 31.7078 25.9675 31.7078 25.2921 31.6257C23.4325 31.4527 23.0492 31.0793 23.0492 31.0793V31.1363C22.7003 30.9279 22.0054 30.3372 21.8491 29.9146Z" stroke="#00034A" stroke-miterlimit="10"/>
<path d="M2.42473 22.891C3.85373 21.6919 4.40023 21.6919 4.40023 21.6919L4.41003 21.7116C4.58273 21.6665 4.76543 21.6807 4.92903 21.7519C5.23863 21.8875 5.98753 22.5804 6.16453 22.9107C6.44563 23.52 6.64613 24.1658 6.75913 24.8273C6.88723 25.4874 6.92923 26.1614 6.88393 26.8323C6.82983 27.1959 6.53933 27.4784 6.17433 27.5223C5.39803 27.5242 4.62793 27.3843 3.90193 27.1095C3.25483 26.8994 2.63643 26.6095 2.06103 26.2465C1.70033 25.9772 0.989727 25.4238 0.904227 24.9521C0.868727 24.7563 0.908727 24.5543 1.01623 24.3869C1.42083 23.8306 1.89353 23.3279 2.42473 22.891Z" stroke="#00034A" stroke-miterlimit="10"/>
<path d="M24.8321 22.4695C24.5527 21.8583 24.3528 21.2139 24.2375 20.5519C24.1252 19.9063 24.0961 19.249 24.151 18.596C24.198 18.2286 24.4922 17.9423 24.8606 17.905C25.637 17.9021 26.4073 18.042 27.133 18.3178C27.7817 18.5252 28.3999 18.8152 28.9739 19.1808C29.3356 19.4442 30.0472 20.0054 30.1366 20.4733C30.1738 20.6692 30.1352 20.8719 30.0285 21.0404C29.6062 21.5884 29.1168 22.0814 28.5719 22.5078C27.992 22.9943 26.9581 24.0067 26.0715 23.6204C25.7177 23.4661 25.0071 22.7751 24.8321 22.4695Z" stroke="#00034A" stroke-miterlimit="10"/>
<path d="M6.57746 31.6543C6.74946 29.7938 7.06586 29.4203 7.06586 29.4203C7.26726 29.0969 7.66196 28.9509 8.02516 29.0655C8.65356 29.3044 9.24696 29.6267 9.78946 30.0238C10.6446 30.5958 11.4643 31.3703 12.1483 32.1438C12.353 32.4304 12.353 32.8154 12.1483 33.1021C11.5904 33.648 10.9415 34.0923 10.2308 34.4152C9.62406 34.7275 8.97956 34.9597 8.31316 35.1061C8.11686 35.1355 7.91676 35.0895 7.75296 34.9774C7.38926 34.7277 6.68166 34.1537 6.57746 33.6967C6.49566 33.0184 6.49566 32.3327 6.57746 31.6543Z" stroke="#00034A" stroke-miterlimit="10"/>
<path d="M18.8778 13.2551C18.6732 12.9684 18.6732 12.5835 18.8778 12.2968C19.4324 11.7466 20.0821 11.3014 20.7954 10.9827C21.4027 10.6722 22.047 10.4403 22.713 10.2927C22.9092 10.2613 23.1101 10.3063 23.2742 10.4186C23.6378 10.6672 24.3504 11.2442 24.4487 11.7022C24.5358 12.3769 24.5358 13.06 24.4487 13.7347C24.2855 15.5953 23.9406 16.0169 23.9406 16.0169C23.7488 16.3518 23.3445 16.5009 22.9813 16.3708C22.3502 16.1318 21.7539 15.8095 21.2082 15.4125C20.345 14.7931 19.5625 14.0683 18.8788 13.2551H18.8778Z" stroke="#00034A" stroke-miterlimit="10"/>
<path d="M15.0624 28.9986C20.2808 28.9986 23.5422 23.3496 20.9331 18.8304C19.7221 16.733 17.4843 15.441 15.0624 15.441C9.84405 15.441 6.58255 21.09 9.19175 25.6092C10.4027 27.7066 12.6406 28.9986 15.0624 28.9986Z" fill="#9BFF00" stroke="#00034A" stroke-miterlimit="10"/>
<path d="M15.6857 11.6343C15.6857 11.6343 15.6758 11.079 14.4768 9.64994C14.0482 9.11864 13.5557 8.64224 13.0103 8.23174C12.6598 8.01584 12.2025 8.10274 11.9557 8.43224C11.5907 9.00654 11.3007 9.62514 11.0928 10.2731C10.8169 10.9988 10.677 11.7691 10.68 12.5455C10.7236 12.9109 11.0068 13.2017 11.3709 13.2551C12.0415 13.3003 12.7151 13.2583 13.375 13.1303C14.0358 13.0114 14.6795 12.8117 15.2916 12.5356C15.6119 12.3592 15.7733 11.9892 15.6847 11.6344L15.6857 11.6343Z" fill="#9BFF00" stroke="#00034A" stroke-miterlimit="10"/>
<path d="M14.4678 33.0156C14.4678 33.0156 14.4678 33.5621 15.6669 34.9912C16.0945 35.5199 16.5869 35.9937 17.1333 36.3996C17.4797 36.6275 17.944 36.5431 18.1879 36.2079C18.5516 35.633 18.8406 35.0147 19.0509 34.367C19.33 33.6299 19.4696 32.8456 19.4637 32.0573C19.4265 31.6888 19.1401 31.3947 18.7728 31.3477C18.1051 31.3018 17.4344 31.3434 16.7775 31.4715C16.116 31.5874 15.4719 31.7872 14.8609 32.0661C14.5455 32.247 14.3858 32.6132 14.4678 32.9674V33.0156Z" fill="#9BFF00" stroke="#00034A" stroke-miterlimit="10"/>
<path d="M7.95828 14.3195C7.95828 14.3195 7.57498 13.9362 5.70458 13.7731C5.02698 13.7086 4.34388 13.7311 3.67198 13.8399C3.26768 13.9262 3.00188 14.3143 3.06758 14.7225C3.21498 15.3879 3.44788 16.0327 3.75848 16.6391C4.08128 17.3501 4.52568 17.9994 5.07158 18.5576C5.35858 18.7625 5.74388 18.7625 6.03088 18.5576C6.53158 18.1144 6.97298 17.6083 7.34398 17.0519C7.74378 16.5075 8.06658 15.9105 8.30328 15.2778C8.36208 15.1016 8.35898 14.9105 8.29438 14.7363C8.23348 14.5626 8.11538 14.4154 7.95828 14.3195Z" fill="#9BFF00" stroke="#00034A" stroke-miterlimit="10"/>
<path d="M22.195 30.2734C22.195 30.2734 22.5783 30.6469 24.4389 30.8199C25.1139 30.9018 25.7964 30.9018 26.4714 30.8199C26.8753 30.7335 27.141 30.3461 27.0759 29.9382C26.9295 29.2719 26.6972 28.6273 26.3849 28.0207C26.0665 27.3075 25.6216 26.6578 25.0718 26.1031C24.7849 25.8983 24.3995 25.8983 24.1125 26.1031C23.6095 26.5437 23.1678 27.0498 22.7994 27.6079C22.4046 28.1519 22.0821 28.7449 21.8402 29.3721C21.718 29.7355 21.8657 30.1349 22.195 30.3314V30.2734Z" fill="#9BFF00" stroke="#00034A" stroke-miterlimit="10"/>
<path d="M4.40024 21.692C4.40024 21.692 3.85374 21.692 2.42474 22.8911C1.89384 23.3278 1.42054 23.8301 1.01624 24.386C0.792836 24.7336 0.876636 25.1948 1.20794 25.4416C1.78324 25.8045 2.40164 26.0941 3.04884 26.3036C3.77514 26.5788 4.54474 26.7184 5.32124 26.7164C5.68614 26.6726 5.97674 26.3901 6.03084 26.0264C6.07614 25.3555 6.03414 24.6815 5.90604 24.0214C5.79184 23.3594 5.59194 22.7152 5.31134 22.1048C5.13744 21.7817 4.76524 21.6194 4.41004 21.7117L4.40024 21.692Z" fill="#9BFF00" stroke="#00034A" stroke-miterlimit="10"/>
<path d="M25.7432 22.9009C25.7432 22.9009 26.2897 22.9009 27.7188 21.7018C28.2637 21.2758 28.753 20.783 29.1754 20.2353C29.3961 19.8855 29.308 19.4246 28.9739 19.1808C28.3996 18.8158 27.7809 18.5258 27.133 18.3178C26.4073 18.042 25.637 17.9021 24.8606 17.905C24.4922 17.9423 24.198 18.2286 24.151 18.596C24.0961 19.249 24.1252 19.9063 24.2375 20.5519C24.3525 21.2133 24.552 21.8581 24.8321 22.4685C25.013 22.7839 25.3792 22.9436 25.7334 22.8616L25.7432 22.9009Z" fill="#9BFF00" stroke="#00034A" stroke-miterlimit="10"/>
<path d="M7.06586 29.4203C7.06586 29.4203 6.74946 29.7938 6.57746 31.6543C6.49566 32.3327 6.49566 33.0184 6.57746 33.6967C6.66856 34.0973 7.05266 34.3602 7.45906 34.3002C8.12536 34.1541 8.76996 33.9221 9.37666 33.6102C10.0874 33.2871 10.7364 32.8424 11.2942 32.2961C11.4989 32.0095 11.4989 31.6245 11.2942 31.3378C10.8512 30.837 10.3454 30.3953 9.78946 30.0238C9.24686 29.6268 8.65346 29.3045 8.02516 29.0655C7.66216 28.9508 7.26746 29.0973 7.06586 29.4203Z" fill="#9BFF00" stroke="#00034A" stroke-miterlimit="10"/>
<path d="M23.0874 15.211C23.0874 15.211 23.4314 14.7884 23.5956 12.9288C23.6826 12.2541 23.6826 11.5709 23.5956 10.8962C23.5088 10.4923 23.1209 10.227 22.713 10.2927C22.0474 10.4404 21.4033 10.6722 20.7964 10.9827C20.0827 11.3013 19.4327 11.7465 18.8778 12.2968C18.6732 12.5835 18.6732 12.9684 18.8778 13.2551C19.3103 13.7672 19.8056 14.2222 20.3541 14.6075C20.9001 15.0046 21.4967 15.3269 22.1281 15.5658C22.4914 15.6959 22.8957 15.5458 23.0874 15.211Z" fill="#9BFF00" stroke="#00034A" stroke-miterlimit="10"/>
<path d="M33.0104 10.8392C33.2562 11.2333 33.6444 11.5184 34.0936 11.6353C32.5013 12.5936 32.5406 13.1489 32.8473 13.7062C33.1539 14.2615 33.9687 14.4827 35.8863 13.4566C37.8039 12.4305 38.2933 11.539 37.967 10.9159C37.7115 10.5129 37.3085 10.2279 36.8456 10.1197C38.4378 9.1615 38.3887 8.6051 38.0919 8.0488C37.795 7.4925 36.9704 7.2724 35.101 8.2985C33.2306 9.3246 32.7225 10.2446 33.0104 10.8392Z" fill="#9BFF00" stroke="#00034A" stroke-miterlimit="10" stroke-linecap="round"/>
<path d="M25.9643 7.57903C26.4442 7.87783 27.0205 7.98093 27.5742 7.86703C26.3564 9.78363 26.7112 10.3409 27.3344 10.7429C27.9575 11.1459 28.964 10.9827 30.4402 8.82633C31.9175 6.66893 31.9932 5.42173 31.3228 4.99023C30.8453 4.69363 30.2712 4.59433 29.7218 4.71303C30.9395 2.79543 30.5847 2.22933 29.9517 1.83623C29.3188 1.44303 28.3222 1.59633 26.8557 3.75373C25.3883 5.91113 25.3411 7.12893 25.9643 7.57903Z" fill="#9BFF00" stroke="#00034A" stroke-miterlimit="10" stroke-linecap="round"/>
<path d="M35.9542 21.8168C35.8392 20.8585 34.6883 20.0437 33.2504 19.3626C33.4607 18.6343 33.6042 17.7802 33.2504 17.445C32.4638 16.9274 31.5946 16.5481 30.6802 16.3236C29.8019 15.9776 28.8714 15.7829 27.9281 15.7476C27.4397 15.7476 27.0662 16.5634 26.8175 17.2819C25.2547 17.0037 23.8257 17.0037 23.1829 17.7143C22.3199 18.2117 20.8918 21.8837 19.8942 25.0003C18.8976 28.116 17.9776 31.9325 18.3511 32.8436C18.5428 34.4535 21.7548 35.7194 24.2286 36.5057C26.7015 37.292 30.0472 38.1255 31.1411 36.9274C32.0041 36.4291 33.4322 32.7473 34.4298 29.6404C35.4264 26.5346 36.367 22.7279 35.9542 21.8168Z" fill="white" stroke="#00034A" stroke-miterlimit="10"/>
<path d="M20.7002 29.9382C24.0199 31.4541 27.509 32.5674 31.0931 33.2544" stroke="#00034A" stroke-miterlimit="10" stroke-linecap="round"/>
<path d="M23.116 22.3831C26.4416 23.9038 29.9373 25.0208 33.5285 25.7101" stroke="#00034A" stroke-miterlimit="10" stroke-linecap="round"/>
</g>
<defs>
<clipPath id="clip0_2301_14512">
<rect width="40" height="40" fill="white"/>
</clipPath>
</defs>
</svg>
