<svg width="140" height="15" viewBox="0 0 140 15" fill="none" xmlns="http://www.w3.org/2000/svg">
<path d="M4.46396 7.884C1.40396 7.47 0.143963 6.192 0.143963 4.104V3.906C0.143963 1.512 1.90796 3.33786e-06 4.76996 3.33786e-06C7.99196 3.33786e-06 9.37796 1.584 9.37796 4.626V5.058H7.50596C7.50596 2.682 6.71396 1.656 4.78796 1.656H4.66196C3.13196 1.656 2.06996 2.484 2.06996 3.762V3.906C2.06996 5.22 2.71796 5.994 5.09396 6.318C8.15396 6.732 9.52196 7.902 9.52196 10.206V10.404C9.52196 12.96 7.73996 14.472 4.76996 14.472C1.65596 14.472 -3.7089e-05 12.852 -3.7089e-05 9.774V9.594H1.87196C1.87196 11.826 3.00596 12.816 4.69796 12.816H4.84196C6.53396 12.816 7.59596 11.916 7.59596 10.494V10.35C7.59596 8.928 6.76796 8.19 4.46396 7.884ZM15.9719 1.872V14.256H14.0999V1.872H10.6439V0.216004H19.4279V1.872H15.9719ZM22.9788 0.216004V14.256H21.1068V0.216004H22.9788ZM27.1016 7.596C27.1016 11.16 27.9296 12.816 30.1256 12.816H30.2516C32.1236 12.816 32.8796 11.628 32.8796 9.594H34.7696V9.774C34.7696 12.924 33.2396 14.472 30.1256 14.472C26.7596 14.472 25.1756 12.456 25.1756 7.596V6.876C25.1756 2.016 26.7596 3.33786e-06 30.1256 3.33786e-06C33.2396 3.33786e-06 34.7696 1.548 34.7696 4.86V5.418H32.8796C32.8796 2.862 32.1596 1.656 30.2516 1.656H30.1256C27.9476 1.656 27.1016 3.312 27.1016 6.876V7.596ZM38.6915 0.216004V7.146L43.3355 0.216004H45.6035L41.5175 6.03L45.6035 14.256H43.5155L40.3475 7.686L38.6915 10.044V14.256H36.8195V0.216004H38.6915ZM49.3108 0.216004V14.256H47.4388V0.216004H49.3108ZM51.8137 0.216004H59.9137V1.872H53.6857V6.264H59.0137V7.92H53.6857V12.6H59.9137V14.256H51.8137V0.216004ZM65.8292 7.884C62.7692 7.47 61.5092 6.192 61.5092 4.104V3.906C61.5092 1.512 63.2732 3.33786e-06 66.1352 3.33786e-06C69.3572 3.33786e-06 70.7432 1.584 70.7432 4.626V5.058H68.8712C68.8712 2.682 68.0792 1.656 66.1532 1.656H66.0272C64.4972 1.656 63.4352 2.484 63.4352 3.762V3.906C63.4352 5.22 64.0832 5.994 66.4592 6.318C69.5192 6.732 70.8872 7.902 70.8872 10.206V10.404C70.8872 12.96 69.1052 14.472 66.1352 14.472C63.0212 14.472 61.3652 12.852 61.3652 9.774V9.594H63.2372C63.2372 11.826 64.3712 12.816 66.0632 12.816H66.2072C67.8992 12.816 68.9612 11.916 68.9612 10.494V10.35C68.9612 8.928 68.1332 8.19 65.8292 7.884ZM78.0606 7.596C78.0606 11.16 78.8886 12.816 81.0846 12.816H81.2106C83.0826 12.816 83.8386 11.628 83.8386 9.594H85.7286V9.774C85.7286 12.924 84.1986 14.472 81.0846 14.472C77.7186 14.472 76.1346 12.456 76.1346 7.596V6.876C76.1346 2.016 77.7186 3.33786e-06 81.0846 3.33786e-06C84.1986 3.33786e-06 85.7286 1.548 85.7286 4.86V5.418H83.8386C83.8386 2.862 83.1186 1.656 81.2106 1.656H81.0846C78.9066 1.656 78.0606 3.312 78.0606 6.876V7.596ZM92.4945 14.472C89.1105 14.472 87.4725 12.456 87.4725 7.596V6.876C87.4725 2.016 89.1105 3.33786e-06 92.4945 3.33786e-06C95.8605 3.33786e-06 97.4985 2.016 97.4985 6.876V7.596C97.4985 12.456 95.8605 14.472 92.4945 14.472ZM92.4225 12.816H92.5485C94.7085 12.816 95.5725 11.16 95.5725 7.596V6.876C95.5725 3.312 94.7085 1.656 92.5485 1.656H92.4225C90.2625 1.656 89.3985 3.312 89.3985 6.876V7.596C89.3985 11.16 90.2625 12.816 92.4225 12.816ZM107.151 14.256H99.6086V0.216004H101.481V12.6H107.151V14.256ZM113.043 14.472C109.659 14.472 108.021 12.456 108.021 7.596V6.876C108.021 2.016 109.659 3.33786e-06 113.043 3.33786e-06C116.409 3.33786e-06 118.047 2.016 118.047 6.876V7.596C118.047 12.456 116.409 14.472 113.043 14.472ZM112.971 12.816H113.097C115.257 12.816 116.121 11.16 116.121 7.596V6.876C116.121 3.312 115.257 1.656 113.097 1.656H112.971C110.811 1.656 109.947 3.312 109.947 6.876V7.596C109.947 11.16 110.811 12.816 112.971 12.816ZM122.029 8.784V14.256H120.157V0.216004H124.315C126.421 0.216004 128.815 0.918003 128.815 4.32V4.68C128.815 6.93 127.771 7.992 126.475 8.46L128.815 14.256H126.781L124.657 8.784H122.029ZM122.029 7.146H124.369C125.449 7.146 126.907 6.75 126.907 4.626V4.392C126.907 2.268 125.449 1.872 124.369 1.872H122.029V7.146ZM134.911 7.884C131.851 7.47 130.591 6.192 130.591 4.104V3.906C130.591 1.512 132.355 3.33786e-06 135.217 3.33786e-06C138.439 3.33786e-06 139.825 1.584 139.825 4.626V5.058H137.953C137.953 2.682 137.161 1.656 135.235 1.656H135.109C133.579 1.656 132.517 2.484 132.517 3.762V3.906C132.517 5.22 133.165 5.994 135.541 6.318C138.601 6.732 139.969 7.902 139.969 10.206V10.404C139.969 12.96 138.187 14.472 135.217 14.472C132.103 14.472 130.447 12.852 130.447 9.774V9.594H132.319C132.319 11.826 133.453 12.816 135.145 12.816H135.289C136.981 12.816 138.043 11.916 138.043 10.494V10.35C138.043 8.928 137.215 8.19 134.911 7.884Z" fill="#121212"/>
</svg>
