<svg width="40" height="40" viewBox="0 0 40 40" fill="none" xmlns="http://www.w3.org/2000/svg">
<g clip-path="url(#clip0_2301_14481)">
<path d="M17.864 8.078C18.715 8.27928 19.589 8.36671 20.463 8.338C21.3355 8.34983 22.2057 8.24627 23.051 8.03C23.2657 7.95968 23.4521 7.82217 23.5827 7.63777C23.7132 7.45338 23.781 7.23188 23.776 7.006C23.776 7.006 23.901 6.31 22.713 4.176C22.057 2.941 21.125 1.938 20.189 0.916002C20.0004 0.736031 19.7497 0.63562 19.489 0.63562C19.2283 0.63562 18.9776 0.736031 18.789 0.916002C18.1871 1.56076 17.6678 2.27794 17.243 3.051C16.711 3.9431 16.3476 4.92544 16.171 5.949C16.131 6.619 17.191 7.853 17.864 8.079V8.078Z" fill="#00034A"/>
<path d="M19.494 10.5081C17.1423 10.5081 14.8869 11.4423 13.224 13.1051C11.5612 14.768 10.627 17.0234 10.627 19.3751C10.627 24.4411 15.385 29.2991 20.463 29.2991C22.8146 29.2991 25.07 28.3649 26.7329 26.702C28.3958 25.0391 29.33 22.7837 29.33 20.4321C29.33 15.3651 24.572 10.5081 19.494 10.5081Z" fill="#00034A"/>
<path d="M16.18 33.0421C16.18 33.0421 16.055 33.7381 17.243 35.8721C17.904 37.0811 18.835 38.0821 19.767 39.0841C19.9557 39.264 20.2063 39.3644 20.467 39.3644C20.7277 39.3644 20.9784 39.264 21.167 39.0841C21.7679 38.4384 22.2871 37.7213 22.713 36.9491C23.2343 36.0763 23.5973 35.1182 23.785 34.1191C23.7994 33.8852 23.7361 33.6532 23.605 33.4591C23.297 33.0041 22.642 32.1731 22.092 31.9891C21.2444 31.7652 20.3707 31.6549 19.494 31.6611C18.6178 31.6493 17.7439 31.7535 16.895 31.9711C16.6741 32.0431 16.4832 32.1862 16.352 32.3781C16.224 32.5747 16.1629 32.808 16.18 33.0421Z" fill="#00034A"/>
<path d="M9.48704 6.28705C11.834 6.91505 12.24 7.53305 12.24 7.53305C12.53 7.79105 13.005 8.28005 13.209 8.59005C13.381 8.74405 13.508 9.00805 13.552 9.23505C13.5951 9.46212 13.5628 9.69704 13.46 9.90405C13.0271 10.6411 12.4974 11.3167 11.885 11.9131C11.2751 12.5393 10.5871 13.0844 9.83804 13.5351C9.62232 13.6527 9.37245 13.692 9.13104 13.6461C8.50204 13.5261 7.93104 12.6881 7.54504 12.2271C6.97474 11.3808 6.56241 10.4383 6.32804 9.44505C6.07527 8.59071 5.92949 7.7083 5.89404 6.81805C5.90794 6.56637 6.01417 6.32865 6.19241 6.15042C6.37065 5.97218 6.60836 5.86594 6.86004 5.85205C7.75004 5.89205 8.63104 6.03805 9.48704 6.28705Z" fill="#00034A"/>
<path d="M26.385 30.842C26.3416 30.6153 26.3739 30.3806 26.477 30.174C26.921 29.4168 27.4671 28.7243 28.1 28.116C28.7099 27.4898 29.3979 26.9446 30.147 26.494C30.357 26.388 30.597 26.356 30.827 26.401C32.325 26.696 33.321 29.315 33.627 30.555C33.881 31.409 34.027 32.291 34.063 33.182C34.0491 33.4337 33.9429 33.6714 33.7647 33.8497C33.5864 34.0279 33.3487 34.1341 33.097 34.148C32.2068 34.108 31.3246 33.962 30.469 33.713C28.122 33.056 27.717 32.467 27.717 32.467C27.295 32.091 26.5 31.441 26.385 30.842Z" fill="#00034A"/>
<path d="M3.13996 17.22C5.27496 16.033 5.97096 16.158 5.97096 16.158C6.61396 16.144 7.75096 17.294 7.96396 17.94C8.18065 18.7856 8.28455 19.6561 8.27296 20.529C8.30102 21.4026 8.2136 22.2762 8.01296 23.127C7.93876 23.3489 7.79337 23.5402 7.59936 23.6711C7.40535 23.802 7.17357 23.8652 6.93996 23.851C5.9164 23.6743 4.93406 23.311 4.04196 22.779C3.09996 22.261 0.657959 20.75 0.657959 19.476C0.657959 19.216 0.757959 18.965 0.937959 18.776C1.60374 18.1667 2.34396 17.6443 3.14096 17.221L3.13996 17.22Z" fill="#00034A"/>
<path d="M31.9921 22.0701C31.7749 21.2212 31.671 20.3472 31.6831 19.4711C31.6772 18.5943 31.7879 17.7207 32.0121 16.8731C32.0861 16.6512 32.2313 16.4599 32.4251 16.329C32.619 16.1981 32.8506 16.1348 33.0841 16.1491C34.0831 16.3371 35.0411 16.6991 35.9141 17.2211C36.6863 17.6467 37.4033 18.1656 38.0491 18.7661C38.3851 19.1191 38.6401 19.4721 39.0181 19.8241C39.1981 20.0127 39.2985 20.2634 39.2985 20.5241C39.2985 20.7848 39.1981 21.0354 39.0181 21.2241C38.3675 21.8299 37.6439 22.3523 36.8641 22.7791C34.7291 23.9671 34.0341 23.8421 34.0341 23.8421C34.0341 23.8421 33.5611 23.8021 33.3691 23.6701C33.0161 23.4291 32.1031 22.4101 31.9921 22.0701Z" fill="#00034A"/>
<path d="M6.30902 29.4781C6.96602 27.1311 7.55502 26.7251 7.55502 26.7251C7.70902 26.5531 7.97302 26.4261 8.20002 26.3821C8.42702 26.3391 8.66202 26.3721 8.86902 26.4741C10.633 27.5491 12.369 29.4011 13.441 31.1831C13.546 31.3935 13.5782 31.6328 13.5326 31.8636C13.487 32.0943 13.3662 32.3033 13.189 32.4581C12.3532 33.0318 11.4211 33.4504 10.437 33.6941C9.58202 33.9471 8.70002 34.0931 7.80902 34.1281C7.55761 34.1141 7.32016 34.008 7.14202 33.8301C6.77202 33.4601 6.54202 33.1431 6.17202 32.7731C5.99384 32.5947 5.88773 32.3568 5.87402 32.1051C5.91402 31.2151 6.06002 30.3341 6.30902 29.4781Z" fill="#00034A"/>
<path d="M26.487 8.84695C26.3692 8.63136 26.3298 8.38165 26.3754 8.14028C26.421 7.89891 26.5487 7.68077 26.737 7.52295C27.5835 6.95255 28.5264 6.54023 29.52 6.30595C30.3743 6.05318 31.2567 5.9074 32.147 5.87195C32.399 5.88495 32.637 5.99195 32.815 6.16995C33.168 6.52295 34.054 7.38895 34.082 7.89495C34.042 8.78495 33.896 9.66595 33.647 10.5219C32.99 12.8689 32.401 13.2749 32.401 13.2749C32.247 13.4469 32.031 13.6219 31.805 13.6649C31.5778 13.7094 31.3423 13.6778 31.135 13.5749C29.28 12.4849 27.587 10.6749 26.487 8.84695Z" fill="#00034A"/>
<path d="M17.864 8.078C18.715 8.27928 19.589 8.36671 20.463 8.338C21.3355 8.34983 22.2057 8.24627 23.051 8.03C23.2657 7.95968 23.4521 7.82217 23.5827 7.63777C23.7132 7.45338 23.781 7.23188 23.776 7.006C23.776 7.006 23.901 6.31 22.713 4.176C22.057 2.941 21.125 1.938 20.189 0.916002C20.0004 0.736031 19.7497 0.63562 19.489 0.63562C19.2283 0.63562 18.9776 0.736031 18.789 0.916002C18.1871 1.56076 17.6678 2.27794 17.243 3.051C16.711 3.9431 16.3476 4.92544 16.171 5.949C16.131 6.619 17.191 7.853 17.864 8.079V8.078Z" stroke="#00034A" stroke-miterlimit="10"/>
<path d="M19.494 10.5081C17.1423 10.5081 14.8869 11.4423 13.224 13.1051C11.5612 14.768 10.627 17.0234 10.627 19.3751C10.627 24.4411 15.385 29.2991 20.463 29.2991C22.8146 29.2991 25.07 28.3649 26.7329 26.702C28.3958 25.0391 29.33 22.7837 29.33 20.4321C29.33 15.3651 24.572 10.5081 19.494 10.5081Z" stroke="#00034A" stroke-miterlimit="10"/>
<path d="M16.18 33.0421C16.18 33.0421 16.055 33.7381 17.243 35.8721C17.904 37.0811 18.835 38.0821 19.767 39.0841C19.9557 39.264 20.2063 39.3644 20.467 39.3644C20.7277 39.3644 20.9784 39.264 21.167 39.0841C21.7679 38.4384 22.2871 37.7213 22.713 36.9491C23.2343 36.0763 23.5973 35.1182 23.785 34.1191C23.7994 33.8852 23.7361 33.6532 23.605 33.4591C23.297 33.0041 22.642 32.1731 22.092 31.9891C21.2444 31.7652 20.3707 31.6549 19.494 31.6611C18.6178 31.6493 17.7439 31.7535 16.895 31.9711C16.6741 32.0431 16.4832 32.1862 16.352 32.3781C16.224 32.5747 16.1629 32.808 16.18 33.0421Z" stroke="#00034A" stroke-miterlimit="10"/>
<path d="M9.48704 6.28705C11.834 6.91505 12.24 7.53305 12.24 7.53305C12.53 7.79105 13.005 8.28005 13.209 8.59005C13.381 8.74405 13.508 9.00805 13.552 9.23505C13.5951 9.46212 13.5628 9.69704 13.46 9.90405C13.0271 10.6411 12.4974 11.3167 11.885 11.9131C11.2751 12.5393 10.5871 13.0844 9.83804 13.5351C9.62232 13.6527 9.37245 13.692 9.13104 13.6461C8.50204 13.5261 7.93104 12.6881 7.54504 12.2271C6.97474 11.3808 6.56241 10.4383 6.32804 9.44505C6.07527 8.59071 5.92949 7.7083 5.89404 6.81805C5.90794 6.56637 6.01417 6.32865 6.19241 6.15042C6.37065 5.97218 6.60836 5.86594 6.86004 5.85205C7.75004 5.89205 8.63104 6.03805 9.48704 6.28705Z" stroke="#00034A" stroke-miterlimit="10"/>
<path d="M26.385 30.842C26.3416 30.6153 26.3739 30.3806 26.477 30.174C26.921 29.4168 27.4671 28.7243 28.1 28.116C28.7099 27.4898 29.3979 26.9446 30.147 26.494C30.357 26.388 30.597 26.356 30.827 26.401C32.325 26.696 33.321 29.315 33.627 30.555C33.881 31.409 34.027 32.291 34.063 33.182C34.0491 33.4337 33.9429 33.6714 33.7647 33.8497C33.5864 34.0279 33.3487 34.1341 33.097 34.148C32.2068 34.108 31.3246 33.962 30.469 33.713C28.122 33.056 27.717 32.467 27.717 32.467C27.295 32.091 26.5 31.441 26.385 30.842Z" stroke="#00034A" stroke-miterlimit="10"/>
<path d="M3.13996 17.22C5.27496 16.033 5.97096 16.158 5.97096 16.158C6.61396 16.144 7.75096 17.294 7.96396 17.94C8.18065 18.7856 8.28455 19.6561 8.27296 20.529C8.30102 21.4026 8.2136 22.2762 8.01296 23.127C7.93876 23.3489 7.79337 23.5402 7.59936 23.6711C7.40535 23.802 7.17357 23.8652 6.93996 23.851C5.9164 23.6743 4.93406 23.311 4.04196 22.779C3.09996 22.261 0.657959 20.75 0.657959 19.476C0.657959 19.216 0.757959 18.965 0.937959 18.776C1.60374 18.1667 2.34396 17.6443 3.14096 17.221L3.13996 17.22Z" stroke="#00034A" stroke-miterlimit="10"/>
<path d="M31.9921 22.0701C31.7749 21.2212 31.671 20.3472 31.6831 19.4711C31.6772 18.5943 31.7879 17.7207 32.0121 16.8731C32.0861 16.6512 32.2313 16.4599 32.4251 16.329C32.619 16.1981 32.8506 16.1348 33.0841 16.1491C34.0831 16.3371 35.0411 16.6991 35.9141 17.2211C36.6863 17.6467 37.4033 18.1656 38.0491 18.7661C38.3851 19.1191 38.6401 19.4721 39.0181 19.8241C39.1981 20.0127 39.2985 20.2634 39.2985 20.5241C39.2985 20.7848 39.1981 21.0354 39.0181 21.2241C38.3675 21.8299 37.6439 22.3523 36.8641 22.7791C34.7291 23.9671 34.0341 23.8421 34.0341 23.8421C34.0341 23.8421 33.5611 23.8021 33.3691 23.6701C33.0161 23.4291 32.1031 22.4101 31.9921 22.0701Z" stroke="#00034A" stroke-miterlimit="10"/>
<path d="M6.30902 29.4781C6.96602 27.1311 7.55502 26.7251 7.55502 26.7251C7.70902 26.5531 7.97302 26.4261 8.20002 26.3821C8.42702 26.3391 8.66202 26.3721 8.86902 26.4741C10.633 27.5491 12.369 29.4011 13.441 31.1831C13.546 31.3935 13.5782 31.6328 13.5326 31.8636C13.487 32.0943 13.3662 32.3033 13.189 32.4581C12.3532 33.0318 11.4211 33.4504 10.437 33.6941C9.58202 33.9471 8.70002 34.0931 7.80902 34.1281C7.55761 34.1141 7.32016 34.008 7.14202 33.8301C6.77202 33.4601 6.54202 33.1431 6.17202 32.7731C5.99384 32.5947 5.88773 32.3568 5.87402 32.1051C5.91402 31.2151 6.06002 30.3341 6.30902 29.4781Z" stroke="#00034A" stroke-miterlimit="10"/>
<path d="M26.487 8.84695C26.3692 8.63136 26.3298 8.38165 26.3754 8.14028C26.421 7.89891 26.5487 7.68077 26.737 7.52295C27.5835 6.95255 28.5264 6.54023 29.52 6.30595C30.3743 6.05318 31.2567 5.9074 32.147 5.87195C32.399 5.88495 32.637 5.99195 32.815 6.16995C33.168 6.52295 34.054 7.38895 34.082 7.89495C34.042 8.78495 33.896 9.66595 33.647 10.5219C32.99 12.8689 32.401 13.2749 32.401 13.2749C32.247 13.4469 32.031 13.6219 31.805 13.6649C31.5778 13.7094 31.3423 13.6778 31.135 13.5749C29.28 12.4849 27.587 10.6749 26.487 8.84695Z" stroke="#00034A" stroke-miterlimit="10"/>
<path d="M19.494 28.2421C21.8456 28.2421 24.101 27.3079 25.7639 25.645C27.4268 23.9821 28.361 21.7267 28.361 19.3751C28.361 17.0234 27.4268 14.768 25.7639 13.1051C24.101 11.4423 21.8456 10.5081 19.494 10.5081C17.1423 10.5081 14.8869 11.4423 13.224 13.1051C11.5612 14.768 10.627 17.0234 10.627 19.3751C10.627 21.7267 11.5612 23.9821 13.224 25.645C14.8869 27.3079 17.1423 28.2421 19.494 28.2421Z" fill="#9BFF00" stroke="#00034A" stroke-miterlimit="10"/>
<path d="M22.8069 5.949C22.8069 5.949 22.9319 5.253 21.7439 3.119C21.3209 2.32203 20.7988 1.58181 20.1899 0.916002C20.0013 0.736031 19.7506 0.63562 19.4899 0.63562C19.2292 0.63562 18.9785 0.736031 18.7899 0.916002C18.1879 1.56073 17.6686 2.27792 17.2439 3.051C16.7119 3.9431 16.3485 4.92544 16.1719 5.949C16.1577 6.18248 16.2209 6.41411 16.3518 6.60795C16.4828 6.80179 16.674 6.94699 16.8959 7.021C17.7469 7.221 18.6209 7.31 19.4949 7.281C20.3674 7.29283 21.2376 7.18927 22.0829 6.973C22.2976 6.90268 22.484 6.76517 22.6146 6.58077C22.7451 6.39638 22.8129 6.17488 22.8079 5.949H22.8069Z" fill="#9BFF00" stroke="#00034A" stroke-miterlimit="10"/>
<path d="M16.18 33.0421C16.18 33.0421 16.055 33.7381 17.243 35.8721C17.67 36.6521 18.193 37.3761 18.798 38.0261C18.9867 38.206 19.2373 38.3064 19.498 38.3064C19.7587 38.3064 20.0094 38.206 20.198 38.0261C20.7988 37.3807 21.318 36.664 21.744 35.8921C22.2653 35.0193 22.6283 34.0612 22.816 33.0621C22.8301 32.8286 22.7668 32.5971 22.6359 32.4033C22.505 32.2094 22.3138 32.0642 22.092 31.9901C21.2444 31.7658 20.3708 31.6552 19.494 31.6611C18.6178 31.6493 17.7439 31.7535 16.895 31.9711C16.6741 32.0431 16.4832 32.1862 16.352 32.3781C16.2237 32.5746 16.1633 32.8079 16.18 33.0421Z" fill="#9BFF00" stroke="#00034A" stroke-miterlimit="10"/>
<path d="M12.24 7.53305C12.24 7.53305 11.834 6.91505 9.48704 6.28705C8.63178 6.03814 7.74989 5.89211 6.86004 5.85205C6.60836 5.86594 6.37065 5.97218 6.19241 6.15042C6.01417 6.32865 5.90794 6.56637 5.89404 6.81805C5.92904 7.70805 6.07504 8.59105 6.32804 9.44505C6.56241 10.4383 6.97474 11.3808 7.54504 12.2271C7.70262 12.4156 7.9207 12.5437 8.16213 12.5894C8.40356 12.6352 8.65339 12.5958 8.86904 12.4781C9.61819 12.0275 10.3062 11.4824 10.916 10.8561C11.5284 10.2594 12.0581 9.58335 12.491 8.84605C12.594 8.64005 12.626 8.40505 12.582 8.17805C12.539 7.95105 12.412 7.68705 12.24 7.53305Z" fill="#9BFF00" stroke="#00034A" stroke-miterlimit="10"/>
<path d="M26.747 31.41C26.747 31.41 27.153 32 29.5 32.656C30.3552 32.9048 31.2371 33.0509 32.127 33.091C32.3787 33.0771 32.6164 32.9709 32.7946 32.7926C32.9728 32.6144 33.0791 32.3767 33.093 32.125C33.0576 31.2344 32.9118 30.3516 32.659 29.497C32.415 28.5129 31.996 27.5807 31.422 26.745C31.2672 26.5679 31.0581 26.4471 30.8273 26.4017C30.5966 26.3563 30.3573 26.3887 30.147 26.494C29.3978 26.9445 28.7098 27.4897 28.1 28.116C27.4672 28.7243 26.9211 29.4168 26.477 30.174C26.3739 30.3805 26.3416 30.6153 26.385 30.842C26.429 31.069 26.575 31.256 26.747 31.41Z" fill="#9BFF00" stroke="#00034A" stroke-miterlimit="10"/>
<path d="M5.97107 16.158C5.97107 16.158 5.27507 16.033 3.14107 17.221C2.3444 17.6443 1.60452 18.1668 0.939073 18.776C0.759102 18.9646 0.658691 19.2153 0.658691 19.476C0.658691 19.7367 0.759102 19.9873 0.939073 20.176C1.5834 20.778 2.30026 21.2973 3.07307 21.722C3.96517 22.254 4.94751 22.6173 5.97107 22.794C6.20455 22.8082 6.43618 22.7449 6.63002 22.614C6.82386 22.4831 6.96906 22.2918 7.04307 22.07C7.24436 21.2189 7.33179 20.345 7.30307 19.471C7.3149 18.5985 7.21134 17.7283 6.99507 16.883C6.92475 16.6682 6.78724 16.4818 6.60284 16.3513C6.41845 16.2207 6.19695 16.153 5.97107 16.158Z" fill="#9BFF00" stroke="#00034A" stroke-miterlimit="10"/>
<path d="M33.065 22.785C33.065 22.785 33.76 22.91 35.895 21.722C36.675 21.295 37.398 20.772 38.049 20.167C38.2288 19.9783 38.329 19.7276 38.329 19.467C38.329 19.2064 38.2288 18.9557 38.049 18.767C37.4033 18.1662 36.6863 17.647 35.914 17.221C35.0412 16.6997 34.0832 16.3368 33.084 16.149C32.8506 16.135 32.619 16.1983 32.4252 16.3292C32.2314 16.4601 32.0862 16.6512 32.012 16.873C31.7878 17.7206 31.6772 18.5943 31.683 19.471C31.6712 20.3472 31.7755 21.2212 31.993 22.07C32.065 22.29 32.208 22.482 32.4 22.613C32.592 22.744 33.065 22.785 33.065 22.785Z" fill="#9BFF00" stroke="#00034A" stroke-miterlimit="10"/>
<path d="M7.55502 26.725C7.55502 26.725 6.96502 27.131 6.30902 29.478C6.06012 30.3332 5.91409 31.2151 5.87402 32.105C5.88792 32.3567 5.99415 32.5944 6.17239 32.7726C6.35063 32.9508 6.58834 33.0571 6.84002 33.071C7.73002 33.036 8.61302 32.89 9.46702 32.637C10.4515 32.3931 11.384 31.9741 12.22 31.4C12.3971 31.2452 12.5179 31.0361 12.5633 30.8053C12.6087 30.5746 12.5763 30.3353 12.471 30.125C12.0205 29.3758 11.4753 28.6878 10.849 28.078C10.2635 27.4574 9.59759 26.918 8.86902 26.474C8.66177 26.3708 8.42629 26.3388 8.19902 26.383C7.97302 26.426 7.70902 26.553 7.55502 26.725Z" fill="#9BFF00" stroke="#00034A" stroke-miterlimit="10"/>
<path d="M31.4319 12.2169C31.4319 12.2169 32.0219 11.8119 32.6779 9.46495C32.9268 8.60935 33.0729 7.72712 33.1129 6.83695C33.0988 6.58544 32.9924 6.34797 32.8142 6.16994C32.636 5.99191 32.3984 5.88582 32.1469 5.87195C31.2566 5.9074 30.3742 6.05318 29.5199 6.30595C28.5267 6.54034 27.5842 6.95266 26.7379 7.52295C26.5495 7.68064 26.4215 7.89871 26.3758 8.14009C26.33 8.38147 26.3693 8.63125 26.4869 8.84695C26.9369 9.59595 27.4829 10.2839 28.1099 10.8939C28.7179 11.5267 29.41 12.0728 30.1669 12.5169C30.3739 12.6199 30.6089 12.6519 30.8359 12.6089C31.0629 12.5649 31.2779 12.3899 31.4319 12.2169Z" fill="#9BFF00" stroke="#00034A" stroke-miterlimit="10"/>
</g>
<defs>
<clipPath id="clip0_2301_14481">
<rect width="40" height="40" fill="white"/>
</clipPath>
</defs>
</svg>
