<svg width="40" height="40" viewBox="0 0 40 40" fill="none" xmlns="http://www.w3.org/2000/svg">
<path d="M36.803 20.319C36.009 19.161 34.719 18.251 32.631 17.589C31.924 14.849 30.523 12.203 28.356 10.394C27.4009 9.86492 26.3815 9.46158 25.323 9.19396C25.236 8.07796 25.007 7.05996 24.529 6.78796C24.219 6.43796 23.469 5.56396 23.087 5.34596C22.731 4.94196 20.827 4.53796 19.24 4.53796C17.654 4.53796 15.76 4.94196 15.394 5.34596C14.76 5.71196 14.586 7.44196 14.558 8.92296C13.008 9.13796 11.512 9.63696 10.144 10.394C8.981 11.356 7.644 14.24 7.048 17.26C1.27 18.673 0.5 21.567 0.5 26.01C0.5 28.085 0.847 29.584 2.458 30.444C3.313 32.144 5.69 32.548 7.214 33.45C7.58513 34.0784 8.11741 34.5962 8.75578 34.9499C9.39415 35.3035 10.1154 35.4802 10.845 35.4617C11.5746 35.4431 12.2859 35.23 12.9055 34.8443C13.525 34.4586 14.0303 33.9144 14.369 33.268C16.449 33.334 18.654 33.365 20.721 33.365C22.718 33.365 24.846 33.34 26.869 33.283C26.953 33.343 27.039 33.398 27.127 33.45C27.5214 34.1165 28.0967 34.6575 28.786 35.0105C29.4754 35.3634 30.2506 35.5138 31.0219 35.4442C31.7933 35.3746 32.5291 35.0879 33.1441 34.6173C33.7592 34.1466 34.2282 33.5113 34.497 32.785C35.249 32.676 35.807 32.55 36.106 32.404C38.99 31.731 39.5 30.038 39.5 27.452C39.46 24.322 39.1 21.943 36.803 20.319Z" fill="#00034A" stroke="#00034A" stroke-miterlimit="10"/>
<path d="M31.442 17.26C30.856 14.27 29.519 11.365 28.356 10.394C26.9822 9.63337 25.479 9.13489 23.923 8.92396C23.923 7.43296 23.731 5.71196 23.087 5.34596C22.731 4.94196 20.827 4.53796 19.24 4.53796C17.654 4.53796 15.76 4.94196 15.394 5.34596C14.76 5.71196 14.586 7.44196 14.558 8.92296C13.008 9.13796 11.512 9.63696 10.144 10.394C8.981 11.356 7.644 14.24 7.048 17.26C1.27 18.673 0.5 21.567 0.5 26.01C0.5 28.596 1.038 30.288 3.894 30.961C5.327 31.625 12.942 31.923 19.279 31.923C25.587 31.923 33.202 31.673 34.663 30.962C37.548 30.288 38.058 28.596 38.058 26.01C38 21.596 37.308 18.673 31.442 17.26Z" fill="#9BFF00" stroke="#00034A" stroke-miterlimit="10"/>
<path d="M26.279 18.02C26.2433 16.3135 25.5551 14.6856 24.356 13.471C22.7276 12.8434 20.995 12.5302 19.25 12.548C17.503 12.5214 15.767 12.8282 14.135 13.452C12.9353 14.666 12.2464 16.2936 12.21 18C12.22 19.048 26.279 19.048 26.279 18.02Z" fill="white" stroke="#00034A" stroke-miterlimit="10"/>
<path d="M9.29803 34.02C10.3845 34.02 11.4264 33.5884 12.1947 32.8202C12.9629 32.0519 13.3945 31.01 13.3945 29.9235C13.3945 28.8371 12.9629 27.7951 12.1947 27.0269C11.4264 26.2586 10.3845 25.827 9.29803 25.827C8.2117 25.827 7.16987 26.2586 6.40172 27.0267C5.63357 27.7949 5.20203 28.8367 5.20203 29.923C5.20203 31.0094 5.63357 32.0512 6.40172 32.8193C7.16987 33.5875 8.2117 34.02 9.29803 34.02Z" fill="white" stroke="#00034A" stroke-miterlimit="10"/>
<path d="M29.212 34.02C30.2984 34.02 31.3404 33.5884 32.1086 32.8202C32.8769 32.0519 33.3085 31.01 33.3085 29.9235C33.3085 28.8371 32.8769 27.7951 32.1086 27.0269C31.3404 26.2586 30.2984 25.827 29.212 25.827C28.1256 25.827 27.0838 26.2586 26.3157 27.0267C25.5475 27.7949 25.116 28.8367 25.116 29.923C25.116 31.0094 25.5475 32.0512 26.3157 32.8193C27.0838 33.5875 28.1256 34.02 29.212 34.02Z" fill="white" stroke="#00034A" stroke-miterlimit="10"/>
<path d="M21.173 8.82701C21.173 8.82701 20.529 8.76001 19.25 8.76001C17.971 8.76001 17.327 8.82701 17.327 8.82701" stroke="#00034A" stroke-miterlimit="10" stroke-linecap="round"/>
<path d="M13.385 22.5H15.731" stroke="#00034A" stroke-miterlimit="10" stroke-linecap="round"/>
<path d="M15.73 24.8459H18.077" stroke="#00034A" stroke-miterlimit="10" stroke-linecap="round"/>
<path d="M18.077 22.5H20.423" stroke="#00034A" stroke-miterlimit="10" stroke-linecap="round"/>
<path d="M20.423 24.8459H22.76" stroke="#00034A" stroke-miterlimit="10" stroke-linecap="round"/>
<path d="M22.76 22.5H25.106" stroke="#00034A" stroke-miterlimit="10" stroke-linecap="round"/>
</svg>
