<svg width="40" height="40" viewBox="0 0 40 40" fill="none" xmlns="http://www.w3.org/2000/svg">
<g clip-path="url(#clip0_2301_14406)">
<path d="M19.108 1.06628C9.10942 1.06628 1.00342 9.17228 1.00342 19.1708C1.00342 29.459 10.6205 38.9338 20.8919 38.9338C30.8904 38.9338 38.9964 30.8277 38.9964 20.8292C38.9964 10.541 29.3793 1.06628 19.108 1.06628Z" fill="#00034A" stroke="#00034A" stroke-miterlimit="10" stroke-linecap="round" stroke-linejoin="round"/>
<path d="M19.108 37.2754C29.1077 37.2754 37.2125 29.1694 37.2125 19.1708C37.2125 9.17228 29.1077 1.06628 19.108 1.06628C9.10942 1.06628 1.00342 9.17228 1.00342 19.1708C1.00342 29.1694 9.10942 37.2754 19.108 37.2754Z" fill="#9BFF00" stroke="#00034A" stroke-miterlimit="10" stroke-linecap="round" stroke-linejoin="round"/>
<path d="M19.1081 31.2405C25.7742 31.2405 31.1778 25.8369 31.1778 19.1708C31.1778 12.5047 25.7742 7.10107 19.1081 7.10107C12.4432 7.10107 7.03833 12.5047 7.03833 19.1708C7.03833 25.8369 12.4432 31.2405 19.1081 31.2405Z" fill="white" stroke="#00034A" stroke-miterlimit="10" stroke-linecap="round" stroke-linejoin="round"/>
<path d="M20.4599 18.2172C20.4599 14.4515 19.5305 11.7961 18.3718 11.7961C17.2131 11.7961 16.2717 13.4617 16.2717 17.1068C16.2717 21.6571 18.2028 22.3933 21.2685 22.4054C24.3342 22.4175 26.2533 21.476 26.2654 20.3173C26.2775 19.1586 25.0463 18.2172 20.4599 18.2172Z" fill="#9BFF00" stroke="#00034A" stroke-miterlimit="10" stroke-linecap="round" stroke-linejoin="round"/>
</g>
<defs>
<clipPath id="clip0_2301_14406">
<rect width="40" height="40" fill="white"/>
</clipPath>
</defs>
</svg>
