<svg width="40" height="40" viewBox="0 0 40 40" fill="none" xmlns="http://www.w3.org/2000/svg">
<g clip-path="url(#clip0_2301_13156)">
<path d="M37.0001 4.24001C35.1101 2.80001 32.5501 1.86001 30.0001 4.24001C28.4801 5.24001 24.3301 9.24001 19.7801 15.24C18.5901 16.82 17.4601 18.32 16.4301 19.73C12.6901 16.89 9.74005 14.88 8.52005 14.73C6.45005 13.93 4.21005 16.18 2.77005 18.07C1.33005 19.96 -0.319948 22.63 1.00005 24.4C1.47005 25.54 4.13005 27.93 7.87005 30.78C12.3601 34.19 15.6001 36.78 17.5001 37.02C20.4101 38.15 22.5001 34.71 30.8701 23.66C35.4201 17.66 38.3201 12.66 38.8701 10.97C40.4301 7.89001 38.8401 5.68001 37.0001 4.24001Z" fill="#48EEFF" stroke="#231F20" stroke-miterlimit="10"/>
<path d="M28.5601 8.89003C30.2001 7.05003 31.7201 5.31003 33.1101 5.16003" stroke="white" stroke-miterlimit="10" stroke-linecap="round"/>
</g>
<defs>
<clipPath id="clip0_2301_13156">
<rect width="40" height="40" fill="white"/>
</clipPath>
</defs>
</svg>
