<svg width="40" height="40" viewBox="0 0 40 40" fill="none" xmlns="http://www.w3.org/2000/svg">
<g clip-path="url(#clip0_2301_14381)">
<path d="M35.592 14.5926C35.7254 14.6534 35.8559 14.7201 35.9824 14.7947C36.619 15.0674 37.5479 15.6971 37.9835 16.2631C38.7191 17.2215 39.1095 19.1254 39.1095 20.6448C39.1095 22.5517 38.5338 25.0815 37.392 25.5719C36.8928 25.8609 36.3408 26.047 35.7686 26.1193C35.1545 28.2331 34.2482 29.989 33.0024 30.5559C32.3236 31.1405 29.8978 31.7065 27.066 32.0842C26.653 32.1481 26.2306 32.1083 25.8369 31.9684C25.1306 31.7173 23.9271 30.8796 23.4386 30.3401L23.4366 30.3372C22.7745 30.0743 21.8789 29.8948 20.6665 29.8948C18.2319 29.8948 17.0705 30.5932 16.4859 31.2347C15.917 31.865 15.069 32.1666 14.2298 32.0371C12.5132 31.8115 10.9752 31.5172 9.86868 31.1935C8.42868 30.7717 6.90338 29.9183 5.90578 28.7913C5.27218 28.0772 4.76308 27.0109 4.37558 25.7897C3.71838 25.5003 3.22398 24.9971 2.60798 24.6479C1.46618 24.1574 0.890381 21.6267 0.890381 19.7208C0.890381 17.8149 1.46618 15.2851 2.60798 14.7947C3.09578 14.51 3.63468 14.3238 4.19408 14.2464C4.80718 12.1511 5.71358 10.3963 6.95928 9.85783C8.11088 8.87693 14.2651 7.88623 19.3335 7.88623C23.2296 7.88623 27.7448 8.49333 30.148 9.20353C31.6978 9.66063 33.3752 10.6062 34.3345 11.9206C34.8436 12.6171 35.2614 13.5489 35.592 14.5926Z" fill="#00034A" stroke="#00034A" stroke-miterlimit="10"/>
<path d="M35.9824 14.7947C35.4949 14.5102 34.9564 14.3239 34.3973 14.2464C33.8215 12.1511 32.9151 10.3963 31.6694 9.85783C30.5178 8.91413 24.4008 7.88623 19.3335 7.88623C14.2651 7.88623 8.11088 8.87693 6.95928 9.85783C5.71358 10.3963 4.80718 12.1511 4.19318 14.2464C3.63398 14.3248 3.09548 14.5102 2.60798 14.7947C1.46618 15.2851 0.890381 17.8139 0.890381 19.7208C0.890381 21.6277 1.46618 24.1574 2.60798 24.6479C3.09728 24.9257 3.63608 25.1052 4.19408 25.1766C4.76988 27.2718 5.67528 29.0277 6.92108 29.5652C7.60078 30.141 9.97948 30.7168 12.8585 31.0944C13.6977 31.224 14.5457 30.9224 15.1146 30.292C15.6992 29.6505 16.8606 28.9521 19.2952 28.9521C21.7308 28.9521 22.8912 29.678 23.4386 30.3391C24.0075 30.9695 24.8555 31.2711 25.6947 31.1415C28.5265 30.7639 30.9523 30.1979 31.6311 29.6123C32.8769 29.0463 33.7832 27.2905 34.3973 25.1766C34.9695 25.1043 35.5215 24.9182 36.0207 24.6293C37.1624 24.1388 37.7373 21.6081 37.7373 19.7022C37.7373 17.7953 37.1242 15.2861 35.9824 14.7947Z" fill="#9BFF00" stroke="#00034A" stroke-miterlimit="10"/>
<path d="M28.2244 25.4503C29.8851 24.846 30.7159 21.7317 30.7159 19.3814C30.7159 17.0312 29.8851 13.9168 28.2244 13.3125C27.3936 12.7083 22.9668 12.0952 19.2952 12.0952C15.6237 12.0952 11.1969 12.7083 10.367 13.3116C8.70529 13.9168 7.87549 17.0312 7.87549 19.3814C7.87549 21.7316 8.70539 24.846 10.367 25.4503C11.1969 26.0634 15.6247 26.0634 19.2952 26.0634C22.9668 26.0634 27.3936 26.0634 28.2244 25.4503Z" fill="white" stroke="#00034A" stroke-miterlimit="10"/>
<path d="M14.5762 15.1998C11.9052 15.4548 11.5942 15.5019 10.99 17.0213" stroke="#00034A" stroke-miterlimit="10" stroke-linecap="round"/>
</g>
<defs>
<clipPath id="clip0_2301_14381">
<rect width="40" height="40" fill="white"/>
</clipPath>
</defs>
</svg>
