<svg width="40" height="40" viewBox="0 0 40 40" fill="none" xmlns="http://www.w3.org/2000/svg">
<g clip-path="url(#clip0_2301_14377)">
<path d="M19.5611 28.885C19.7461 29.193 19.9461 29.494 20.1601 29.785C20.6281 30.372 21.6371 31.244 22.3901 31.362C22.8671 31.437 23.3561 31.331 23.7581 31.064C25.071 30.0365 26.2495 28.8482 27.2661 27.527C28.0361 26.5781 28.7306 25.5704 29.3431 24.513C30.6255 24.6659 31.9186 24.7077 33.2081 24.638C34.8751 24.5892 36.5297 24.3363 38.1351 23.885C38.582 23.7091 38.9473 23.3732 39.1599 22.9426C39.3725 22.512 39.4172 22.0177 39.2851 21.556C38.7117 19.9921 37.9458 18.5056 37.0051 17.131C36.3044 16.0876 35.529 15.0964 34.6851 14.165C35.1591 13.085 35.5491 11.971 35.8551 10.832C36.3251 9.23499 36.5941 7.58699 36.6571 5.92399C36.6384 5.43947 36.4381 4.97971 36.0961 4.63599C35.4961 4.03299 34.6831 3.23399 33.7921 3.19499C32.1256 3.26249 30.4739 3.53522 28.8741 4.00699C27.741 4.32768 26.6308 4.72458 25.5511 5.19499C24.6646 4.40882 23.7217 3.68857 22.7301 3.03999C21.3533 2.09902 19.8666 1.32998 18.3031 0.749986C17.8367 0.620482 17.3386 0.670803 16.9075 0.890989C16.4764 1.11117 16.1436 1.48518 15.9751 1.93899C15.5185 3.54328 15.2652 5.19856 15.2211 6.86599C15.1765 8.06223 15.2152 9.26013 15.3371 10.451C14.2263 11.0724 13.1723 11.7901 12.1871 12.596C10.8671 13.6126 9.6766 14.787 8.64212 16.093C8.37271 16.4977 8.26581 16.9891 8.34273 17.4692C8.41965 17.9493 8.67475 18.3827 9.05712 18.683C9.43912 18.955 9.71512 19.273 10.0771 19.556C10.4551 19.826 10.8471 20.076 11.2511 20.306C9.46562 21.6892 7.78317 23.2005 6.21712 24.828C3.80212 27.272 0.720121 30.548 0.700121 31.784C0.380121 32.75 1.37612 34.954 2.71912 36.296C4.01612 37.593 6.30712 39.87 8.26012 39.199C9.48712 39.199 12.8101 36.097 15.2161 33.682C16.7716 32.1838 18.223 30.581 19.5601 28.885H19.5611Z" fill="#00034A" stroke="#00034A" stroke-miterlimit="10"/>
<path d="M38.2661 20.683C37.6927 19.1191 36.9268 17.6326 35.9861 16.258C35.2854 15.2146 34.5101 14.2233 33.6661 13.292C34.1401 12.212 34.5301 11.097 34.8361 9.95799C35.3061 8.36199 35.5751 6.71299 35.6381 5.04999C35.6193 4.56557 35.419 4.10595 35.077 3.76233C34.7351 3.41871 34.2764 3.2162 33.7921 3.19499C32.1256 3.26249 30.4739 3.53522 28.8741 4.00699C27.741 4.32768 26.6308 4.72458 25.5511 5.19499C24.6646 4.40882 23.7217 3.68857 22.7301 3.03999C21.3533 2.09902 19.8666 1.32998 18.3031 0.749986C17.8367 0.620482 17.3386 0.670803 16.9075 0.890989C16.4764 1.11117 16.1436 1.48518 15.9751 1.93899C15.5185 3.54328 15.2652 5.19856 15.2211 6.86599C15.1765 8.06223 15.2152 9.26013 15.3371 10.451C14.2263 11.0724 13.1723 11.7901 12.1871 12.596C10.8671 13.6126 9.6766 14.787 8.64212 16.093C8.37271 16.4977 8.26581 16.9891 8.34273 17.4692C8.41965 17.9493 8.67475 18.3827 9.05712 18.683C9.83316 19.2358 10.6654 19.7051 11.5401 20.083C9.64708 21.5262 7.86753 23.1126 6.21712 24.828C3.80212 27.272 0.720121 30.548 0.700121 31.784C0.380121 32.75 1.37612 34.954 2.71912 36.296C4.06212 37.639 6.31312 38.644 7.24112 38.326C8.46812 38.326 11.7911 35.224 14.1971 32.808C15.8865 31.1809 17.4528 29.4308 18.8831 27.572C19.2251 28.354 19.6531 29.096 20.1591 29.784C20.4603 30.1622 20.8925 30.4138 21.3701 30.489C21.8478 30.5641 22.3363 30.4575 22.7391 30.19C24.0512 29.1627 25.2291 27.9747 26.2451 26.654C27.0152 25.7046 27.71 24.6965 28.3231 23.639C29.6051 23.7921 30.8979 23.8342 32.1871 23.765C33.8544 23.7159 35.5094 23.4627 37.1151 23.011C37.5616 22.835 37.9266 22.4991 38.1392 22.0688C38.3518 21.6385 38.3976 21.1445 38.2661 20.683Z" fill="#9BFF00" stroke="#00034A" stroke-miterlimit="10"/>
<path d="M15.03 21.35C15.69 21.605 16.369 21.818 17.058 21.987C17.248 22.687 17.474 23.377 17.734 24.055" stroke="#00034A" stroke-miterlimit="10" stroke-linecap="round"/>
</g>
<defs>
<clipPath id="clip0_2301_14377">
<rect width="40" height="40" fill="white"/>
</clipPath>
</defs>
</svg>
