<svg width="40" height="40" viewBox="0 0 40 40" fill="none" xmlns="http://www.w3.org/2000/svg">
<g clip-path="url(#clip0_2301_14339)">
<path d="M22.434 1.55207C21.7581 1.39687 20.9604 2.36747 20.65 3.71727C20.4005 4.81057 20.5351 6.49447 21.8554 6.79697C22.5303 6.95127 23.329 5.98157 23.6394 4.63087C23.9046 3.47457 23.7799 1.86047 22.434 1.55207Z" fill="#00034A"/>
<path d="M25.4263 6.12121C24.5186 7.16841 24.2062 8.38461 24.7289 8.83841C25.8095 9.77561 27.0119 9.10071 27.8646 8.11831C28.7723 7.07211 29.0847 5.85491 28.5621 5.40111C27.4815 4.46491 26.2791 5.13881 25.4263 6.12121Z" fill="#00034A"/>
<path d="M26.4009 12.3043C26.2456 11.6294 27.2133 10.8287 28.5641 10.5173C29.404 10.3238 31.5603 10.3425 31.8334 11.5292C31.9896 12.2031 31.021 13.0028 29.6712 13.3152C28.8303 13.5097 26.6749 13.49 26.4009 12.3043Z" fill="#00034A"/>
<path d="M22.434 1.55207C21.7581 1.39687 20.9604 2.36747 20.65 3.71727C20.4005 4.81057 20.5351 6.49447 21.8554 6.79697C22.5303 6.95127 23.329 5.98157 23.6394 4.63087C23.9046 3.47457 23.7799 1.86047 22.434 1.55207Z" stroke="#00034A" stroke-miterlimit="10"/>
<path d="M25.4263 6.12121C24.5186 7.16841 24.2062 8.38461 24.7289 8.83841C25.8095 9.77561 27.0119 9.10071 27.8646 8.11831C28.7723 7.07211 29.0847 5.85491 28.5621 5.40111C27.4815 4.46491 26.2791 5.13881 25.4263 6.12121Z" stroke="#00034A" stroke-miterlimit="10"/>
<path d="M26.4009 12.3043C26.2456 11.6294 27.2133 10.8287 28.5641 10.5173C29.404 10.3238 31.5603 10.3425 31.8334 11.5292C31.9896 12.2031 31.021 13.0028 29.6712 13.3152C28.8303 13.5097 26.6749 13.49 26.4009 12.3043Z" stroke="#00034A" stroke-miterlimit="10"/>
<path d="M12.6041 7.75195C6.13511 7.75195 0.891113 12.996 0.891113 19.465C0.891113 26.1 6.99171 31.9108 13.5796 31.9108C20.0486 31.9108 25.2935 26.6659 25.2935 20.1969C25.2935 13.5628 19.1929 7.75195 12.6041 7.75195Z" fill="#00034A" stroke="#00034A" stroke-miterlimit="10"/>
<path d="M12.6041 31.1789C19.0731 31.1789 24.317 25.935 24.317 19.465C24.317 12.996 19.0731 7.75195 12.6041 7.75195C6.13511 7.75195 0.891113 12.996 0.891113 19.465C0.891113 25.934 6.13511 31.1789 12.6041 31.1789Z" fill="white" stroke="#00034A" stroke-miterlimit="10"/>
<path d="M10.9478 29.3879C9.20398 27.6923 8.36108 24.1292 8.36108 19.4659C8.36108 14.8015 9.20398 11.2482 10.9478 9.55359" stroke="#00034A" stroke-miterlimit="10" stroke-linecap="round"/>
<path d="M14.3096 9.55261C16.0042 11.2482 16.8569 14.8103 16.8569 19.4649C16.8569 24.1204 16.0042 27.6924 14.3096 29.387" stroke="#00034A" stroke-miterlimit="10" stroke-linecap="round"/>
<path d="M3.40015 15.8545C6.45065 15.4427 9.52715 15.2539 12.605 15.2896C15.6824 15.2534 18.7582 15.4422 21.808 15.8545" stroke="#00034A" stroke-miterlimit="10" stroke-linecap="round"/>
<path d="M21.808 23.085C18.7577 23.4976 15.6819 23.6872 12.6041 23.6508C9.52645 23.6864 6.45035 23.4976 3.40015 23.0859" stroke="#00034A" stroke-miterlimit="10" stroke-linecap="round"/>
<path d="M21.5439 31.8478C21.313 32.2152 21.0979 32.5935 20.8984 32.9795C20.4241 33.738 20.1353 34.5976 20.0555 35.4886C20.0555 36.5338 21.7089 37.804 22.5557 38.1331C23.3691 38.4495 24.5382 38.6312 24.9213 38.2481C25.4627 37.53 25.8238 36.6925 25.9744 35.8059L26.1375 35.1162C30.6103 36.9071 34.2687 35.1732 36.5095 31.0266C37.7355 28.7612 41.5197 17.6367 36.8062 16.4676C30.0159 14.7337 23.1491 17.1858 20.697 21.7254C19.0103 24.8542 18.9062 27.9065 20.6538 30.39C20.8837 30.8949 21.1794 31.3822 21.5439 31.8478Z" fill="#00034A" stroke="#00034A" stroke-miterlimit="10"/>
<path d="M35.8482 29.8762C38.3003 25.3454 39.2768 17.0806 36.8061 16.4676C30.0158 14.7337 23.149 17.1857 20.6969 21.7253C18.7243 25.3837 18.9159 28.937 21.7029 31.6003C21.4111 32.0453 21.1429 32.506 20.8973 32.9795C20.4233 33.7381 20.1349 34.5977 20.0554 35.4886C20.0554 36.0249 21.0801 36.6664 21.8945 36.9818C22.7088 37.2981 23.8769 37.4808 24.26 37.0977C24.8018 36.3798 25.163 35.5422 25.3132 34.6555L25.4762 33.9659C29.949 35.7567 33.6074 34.0228 35.8482 29.8762Z" fill="#9BFF00" stroke="#00034A" stroke-miterlimit="10"/>
<path d="M29.4883 22.2814C27.1536 23.7825 25.4268 26.0628 24.6147 28.717L29.4893 22.2814H29.4883Z" fill="#9BFF00"/>
<path d="M29.4883 22.2814C27.1536 23.7825 25.4268 26.0628 24.6147 28.717" stroke="#00034A" stroke-miterlimit="10" stroke-linecap="round"/>
<path d="M23.096 4.27817C23.4055 2.92737 23.1098 1.70727 22.4339 1.55207C21.758 1.39687 20.9603 2.36747 20.6499 3.71727C20.3404 5.06797 20.6371 6.28907 21.313 6.44337C21.9879 6.59857 22.7866 5.62897 23.096 4.27817Z" fill="#9BFF00" stroke="#00034A" stroke-miterlimit="10"/>
<path d="M27.3214 7.7657C28.2301 6.7194 28.5425 5.5023 28.0189 5.0484C27.4952 4.5945 26.335 5.0749 25.4263 6.1212C24.5186 7.1684 24.2062 8.3846 24.7289 8.8384C25.2534 9.2933 26.4127 8.8129 27.3214 7.7657Z" fill="#9BFF00" stroke="#00034A" stroke-miterlimit="10"/>
<path d="M29.129 12.9625C30.4788 12.6511 31.4474 11.8504 31.2912 11.1745C31.135 10.5006 29.9139 10.2059 28.5641 10.5173C27.2133 10.8287 26.2457 11.6294 26.4009 12.3053C26.5571 12.9792 27.7782 13.2739 29.129 12.9625Z" fill="#9BFF00" stroke="#00034A" stroke-miterlimit="10"/>
</g>
<defs>
<clipPath id="clip0_2301_14339">
<rect width="40" height="40" fill="white"/>
</clipPath>
</defs>
</svg>
