<svg width="40" height="40" viewBox="0 0 40 40" fill="none" xmlns="http://www.w3.org/2000/svg">
<g clip-path="url(#clip0_2301_13090)">
<path d="M0.5 20.06C0.5 23.3036 1.78851 26.4143 4.08208 28.7079C6.37565 31.0014 9.4864 32.29 12.73 32.29C15.9736 32.29 19.0843 31.0014 21.3779 28.7079C23.6715 26.4143 24.96 23.3036 24.96 20.06C24.96 16.8164 23.6715 13.7056 21.3779 11.412C19.0843 9.11847 15.9736 7.82996 12.73 7.82996C9.4864 7.82996 6.37565 9.11847 4.08208 11.412C1.78851 13.7056 0.5 16.8164 0.5 20.06Z" fill="#FFE236" stroke="#231F20" stroke-miterlimit="10"/>
<path d="M11 30.42C9.18005 28.65 8.30005 24.93 8.30005 20.06C8.30005 15.19 9.18005 11.48 11 9.70996" stroke="#231F20" stroke-miterlimit="10" stroke-linecap="round"/>
<path d="M14.51 9.70996C16.28 11.48 17.17 15.2 17.17 20.06C17.17 24.92 16.28 28.65 14.51 30.42" stroke="#231F20" stroke-miterlimit="10" stroke-linecap="round"/>
<path d="M3.12012 16.2899C6.30486 15.86 9.5167 15.6628 12.7301 15.6999C15.9435 15.6622 19.1554 15.8593 22.3401 16.2899" stroke="#231F20" stroke-miterlimit="10" stroke-linecap="round"/>
<path d="M22.3401 23.8399C19.1554 24.2705 15.9435 24.4677 12.7301 24.4299C9.5167 24.467 6.30486 24.2698 3.12012 23.8399" stroke="#231F20" stroke-miterlimit="10" stroke-linecap="round"/>
<path d="M21.4699 13.59C20.6859 12.2653 19.5553 11.1796 18.2 10.45" stroke="white" stroke-miterlimit="10" stroke-linecap="round"/>
<path d="M37.0001 30.93C39.5601 26.2 40.5801 17.57 38.0001 16.93C30.9101 15.12 23.7401 17.68 21.1801 22.42C19.1201 26.24 19.3201 29.95 22.2301 32.73C21.9253 33.195 21.6449 33.6757 21.3901 34.17C20.8948 34.962 20.5934 35.8596 20.5101 36.79C20.5101 37.35 21.5801 38.02 22.4301 38.35C23.2801 38.68 24.5001 38.87 24.9001 38.47C25.4658 37.7204 25.8431 36.8458 26.0001 35.92L26.1701 35.2C30.8401 37.07 34.6601 35.26 37.0001 30.93Z" fill="#48EEFF" stroke="#231F20" stroke-miterlimit="10"/>
<path d="M30.36 22.9999C27.9218 24.5672 26.1182 26.9483 25.27 29.7199L30.36 22.9999Z" fill="#48EEFF"/>
<path d="M30.36 22.9999C27.9218 24.5672 26.1182 26.9483 25.27 29.7199" stroke="#231F20" stroke-miterlimit="10" stroke-linecap="round"/>
<path d="M31.55 18.35C33.0335 18.0349 34.5666 18.0349 36.05 18.35" stroke="white" stroke-miterlimit="10" stroke-linecap="round"/>
<path d="M21.8227 6.4638C21.9904 6.50224 22.1716 6.47424 22.3559 6.38141C22.5403 6.28858 22.7241 6.13274 22.8971 5.92278C23.07 5.71281 23.2286 5.45285 23.3638 5.15772C23.499 4.86259 23.6081 4.53808 23.685 4.20271C23.7618 3.86734 23.8049 3.52769 23.8118 3.20314C23.8186 2.8786 23.7891 2.57551 23.7249 2.31119C23.6607 2.04688 23.563 1.8265 23.4375 1.66265C23.312 1.4988 23.1611 1.39469 22.9934 1.35626C22.8258 1.31782 22.6446 1.34582 22.4602 1.43865C22.2759 1.53147 22.092 1.68732 21.9191 1.89728C21.7462 2.10724 21.5876 2.36721 21.4524 2.66234C21.3172 2.95747 21.2081 3.28198 21.1312 3.61735C21.0543 3.95271 21.0112 4.29237 21.0044 4.61691C20.9975 4.94146 21.0271 5.24454 21.0913 5.50886C21.1555 5.77318 21.2531 5.99355 21.3786 6.1574C21.5041 6.32125 21.655 6.42537 21.8227 6.4638Z" fill="#FF52A1" stroke="#231F20" stroke-miterlimit="10"/>
<path d="M25.3901 8.9644C25.6526 9.19211 26.0851 9.202 26.5927 8.99191C27.1003 8.78182 27.6413 8.36896 28.0967 7.84414C28.5521 7.31931 28.8847 6.72553 29.0211 6.19341C29.1576 5.6613 29.0869 5.23443 28.8244 5.00672C28.562 4.77901 28.1295 4.76912 27.6219 4.97921C27.1143 5.1893 26.5733 5.60217 26.1179 6.12699C25.6625 6.65181 25.3299 7.24559 25.1935 7.77771C25.057 8.30983 25.1277 8.73669 25.3901 8.9644Z" fill="#FF52A1" stroke="#231F20" stroke-miterlimit="10"/>
<path d="M27.1356 12.583C27.1743 12.7506 27.2787 12.9014 27.4427 13.0266C27.6067 13.1519 27.8273 13.2492 28.0917 13.313C28.3561 13.3768 28.6592 13.4058 28.9838 13.3985C29.3083 13.3911 29.6479 13.3475 29.9831 13.2701C30.3184 13.1927 30.6427 13.083 30.9376 12.9474C31.2326 12.8117 31.4923 12.6527 31.702 12.4795C31.9117 12.3062 32.0672 12.1221 32.1598 11.9376C32.2523 11.7531 32.28 11.5719 32.2413 11.4043C32.2026 11.2366 32.0983 11.0859 31.9342 10.9607C31.7702 10.8354 31.5496 10.7381 31.2852 10.6743C31.0208 10.6105 30.7177 10.5815 30.3931 10.5888C30.0686 10.5962 29.729 10.6398 29.3938 10.7172C29.0585 10.7946 28.7342 10.9043 28.4393 11.0399C28.1443 11.1756 27.8846 11.3346 27.6749 11.5078C27.4652 11.6811 27.3097 11.8652 27.2172 12.0497C27.1246 12.2342 27.0969 12.4154 27.1356 12.583Z" fill="#FF52A1" stroke="#231F20" stroke-miterlimit="10"/>
</g>
<defs>
<clipPath id="clip0_2301_13090">
<rect width="40" height="40" fill="white"/>
</clipPath>
</defs>
</svg>
