<svg width="40" height="40" viewBox="0 0 40 40" fill="none" xmlns="http://www.w3.org/2000/svg">
<g clip-path="url(#clip0_2301_14335)">
<path d="M29.6159 1.60796C24.9659 -0.547043 20.2199 0.772957 16.1449 4.81996C12.3209 8.62396 10.9049 13.04 12.5049 17.437L11.6029 18.33C7.04989 22.833 1.92689 28.675 1.26689 30.13C-0.422114 32.556 1.11189 34.866 2.55689 36.322C4.49189 38.27 7.09389 40.495 9.86789 38.616C11.2659 37.966 17.1379 32.871 21.6979 28.339L22.5819 27.446C26.9299 29.076 31.3549 27.688 35.1789 23.884C39.2549 19.827 40.5949 15.091 38.4689 10.433C38.2039 9.87796 37.4729 9.31096 36.9989 8.95296C36.7537 8.7679 36.4499 8.6778 36.1435 8.69931C35.8371 8.72081 35.5488 8.85247 35.3319 9.06996C32.0519 12.302 28.9269 15.174 27.9269 15.466C27.4393 15.6505 26.9174 15.7267 26.3975 15.6892C25.8775 15.6518 25.3719 15.5015 24.9159 15.249C24.6168 14.7764 24.4326 14.2404 24.3779 13.6839C24.3232 13.1273 24.3996 12.5657 24.6009 12.044C24.9009 11.074 27.7739 7.93896 31.0349 4.66796C31.2534 4.45305 31.387 4.16647 31.4111 3.86093C31.4351 3.55539 31.3481 3.25143 31.1659 3.00496C30.8489 2.57596 30.0599 1.82496 29.6159 1.60696V1.60796Z" fill="#00034A" stroke="#00034A" stroke-miterlimit="10"/>
<path d="M34.0899 22.872C38.1659 18.815 39.5049 14.079 37.3799 9.41996C37.2923 9.23612 37.1618 9.07602 36.9993 8.95315C36.8369 8.83029 36.6474 8.74825 36.4466 8.71394C36.2459 8.67963 36.0398 8.69407 35.8459 8.75602C35.6519 8.81798 35.4756 8.92565 35.3319 9.06996C32.0519 12.303 28.9269 15.175 27.9269 15.467C27.301 15.704 26.6214 15.7615 25.9646 15.6329C25.3078 15.5042 24.7001 15.1946 24.2099 14.739C23.7597 14.2473 23.4557 13.6396 23.3322 12.9845C23.2087 12.3294 23.2706 11.6528 23.5109 11.031C23.8109 10.061 26.6849 6.92596 29.9459 3.65496C30.0909 3.51275 30.1997 3.33783 30.2631 3.14489C30.3266 2.95194 30.3428 2.7466 30.3105 2.54608C30.2782 2.34556 30.1982 2.15572 30.0773 1.99249C29.9565 1.82926 29.7982 1.69739 29.6159 1.60796C24.9659 -0.547043 20.2199 0.772957 16.1449 4.81996C12.3209 8.62396 10.9049 13.04 12.5049 17.437L11.6029 18.33C7.04989 22.833 1.92689 28.675 1.26689 30.13C-0.422114 32.556 1.11189 34.866 2.55689 36.322C4.00389 37.778 6.31389 39.272 8.77889 37.603C10.1759 36.953 16.0479 31.858 20.6089 27.325L21.4919 26.432C25.8399 28.062 30.2659 26.676 34.0899 22.872Z" fill="#9BFF00" stroke="#00034A" stroke-miterlimit="10"/>
<path d="M18.4841 24.085C17.1296 23.0492 15.9216 21.8349 14.8931 20.475" stroke="#00034A" stroke-miterlimit="10" stroke-linecap="round"/>
</g>
<defs>
<clipPath id="clip0_2301_14335">
<rect width="40" height="40" fill="white"/>
</clipPath>
</defs>
</svg>
