<svg xmlns="http://www.w3.org/2000/svg" xmlns:xlink="http://www.w3.org/1999/xlink" xmlns:inkscape="http://www.inkscape.org/namespaces/inkscape" version="1.1" width="375" height="375" viewBox="0 0 375 375">
<defs>
<clipPath id="clip_1">
<path transform="matrix(.24,0,0,.24,0,0)" d="M0 0H1562.5V1562.5H0Z" clip-rule="evenodd"/>
</clipPath>
<clipPath id="clip_2">
<path transform="matrix(.24,0,0,.24,0,0)" d="M0 0H1562.5V1562.5H0Z" clip-rule="evenodd"/>
</clipPath>
<clipPath id="clip_3">
<path transform="matrix(.24,0,0,.24,0,0)" d="M469.5372 588.35726H1091.4122V972.73226H469.5372Z" clip-rule="evenodd"/>
</clipPath>
<clipPath id="clip_4">
<path transform="matrix(.24,0,0,.24,0,0)" d="M683.4356 961.2256H751.0796V972.73226H683.4356Z" clip-rule="evenodd"/>
</clipPath>
<clipPath id="clip_5">
<path transform="matrix(.24,0,0,.24,0,0)" d="M469.5372 588.35726H1091.4122V972.73226H469.5372Z" clip-rule="evenodd"/>
</clipPath>
<clipPath id="clip_6">
<path transform="matrix(.24,0,0,.24,0,0)" d="M805.9261 961.2256H873.57009V972.73226H805.9261Z" clip-rule="evenodd"/>
</clipPath>
<clipPath id="clip_7">
<path transform="matrix(.24,0,0,.24,0,0)" d="M469.5372 588.35726H1091.4122V972.73226H469.5372Z" clip-rule="evenodd"/>
</clipPath>
</defs>
<g clip-path="url(#clip_1)">
<path transform="matrix(.75,0,0,.75,0,0)" d="M0 0H500V500H0Z" fill="#ffffff"/>
</g>
<g clip-path="url(#clip_2)">
<path transform="matrix(.75,0,0,.75,0,0)" d="M0 0H500V500H0Z" fill="#ffffff"/>
</g>
<g clip-path="url(#clip_3)">
<path transform="matrix(.43877179,0,0,.43877179,111.371929,104.32785)" d="M168.92578 87.20703C168.88672 87.39844 168.6914 88.26953 168.36328 89.74219 167.9375 91.40234 167.41407 93.9375 166.46875 97.109378 164.57032 103.453128 161.32422 112.58594 155.71485 123.18359 145.46094 142.64453 124.859378 159.30078 118.16797 180.11328 111.859378 199.80469 121.08984 220.46485 130.46875 237.5039 134.16407 244.19532 137.125 251.0039 139.73438 257.73829 141.6289 262.84376 143.02344 267.89064 144.125 272.90235 133.29688 272.4375 122.84766 271.66407 113.03906 270.65626 107.97266 259.22657 101.83984 248.17969 94.10547 238.35547 92.08984 242.59375 90.29297 246.90235 88.66797 251.27735 88.1875 252.58985 87.71875 253.90625 87.25781 255.20313 86.75391 256.4961 86.28906 257.79689 85.921878 259.14845 85.20703 261.58595 84.47266 264.0039 83.73828 266.3828 71.51172 264.02345 63.347658 261.4297 58.03125 259.1875 58.472658 256.88673 58.898439 254.5664 59.34375 252.20703 59.61328 250.63672 60.003908 249.07032 60.42578 247.5039 60.523439 247.15625 60.601564 246.82813 60.69922 246.48047 60.98828 245.35547 61.257814 244.23438 61.55078 243.09375 61.589845 242.97657 61.609376 242.86328 61.64453 242.7461 61.9375 241.69922 62.20703 240.69532 62.4375 239.72657 62.476564 239.57422 62.515626 239.4375 62.554689 239.30469 62.828126 238.19922 63.058595 237.17578 63.26953 236.1875 63.503908 235.08594 63.695314 234.0625 63.871095 233.09375 66.94531 214.96875 57.410158 219.82422 39.34375 233.5 34.21875 237.36719 29.382813 241.02344 25.222657 244.58594 16.75 251.625 10.40625 258.19923 6.324219 263 4.195312 265.35939 2.6875 267.48439 1.644531 268.83985 .57812508 270.1953 0 270.9297 0 270.9297 0 270.9297 .15625 270.01954 .42187504 268.3164 .714844 266.59767 1.042969 264.10157 1.992188 260.85157 3.695312 254.3125 7.097656 245.08594 13.34375 234.66016 16.402344 229.39844 20.210938 224.0039 24.507813 218.39453 28.878907 212.85938 33.79297 207.21485 39.1875 201.58203 50.003908 190.34375 62.61328 179.20313 76.01953 168.39063 89.421878 157.57813 102.265628 147.92578 113.73828 138.89453 125.14844 129.85938 135.1875 121.42578 143.3711 113.82031 151.55469 106.24219 157.89844 99.546878 162.23047 94.76953 166.27344 90.203128 168.63282 87.515628 168.92578 87.20703" fill="#0e3b2e"/>
<path transform="matrix(.43877179,0,0,.43877179,111.371929,104.32785)" d="M79.40234 284.19923C79.19141 285.1289 78.99609 286.0547 78.80469 286.98439 78.609378 287.94923 78.41797 288.91798 78.22266 289.88673 74.546878 308.08985 72.24609 325.16798 70.02344 339.7539 67.56641 356.23439 65.32031 369.57814 63.328126 378.73048 62.4375 383.3125 61.492189 386.77345 60.94922 389.15235 60.347658 391.53517 60.04297 392.77345 60.04297 392.77345 60.04297 392.77345 59.691408 387.66798 59.035158 378.40235 58.414064 369.21095 57.140626 355.86329 55.996095 339.1914 55.01172 323.98829 53.94922 305.92189 55.148439 285.3789 55.203126 284.3711 55.265626 283.3672 55.339845 282.35939 55.398439 281.41407 55.45703 280.46485 55.535158 279.4961 62.59375 281.23829 70.62109 282.8047 79.40234 284.19923" fill="#0e3b2e"/>
</g>
<g clip-path="url(#clip_4)">
<path transform="matrix(.43877179,0,0,.43877179,111.371929,104.32785)" d="M156.33203 398.67189C139.63672 361.83985 134.39453 333.03907 125.07422 303.23048 124.18359 300.42579 123.27344 297.58595 122.30859 294.73829 121.97656 293.73439 121.62891 292.71095 121.26172 291.70314 120.93359 290.71876 120.58594 289.75 120.234378 288.76173 128.92188 289.40235 137.97657 289.88673 147.3164 290.17579 147.47266 291.16407 147.625 292.1289 147.80078 293.07814 147.97657 294.0625 148.14844 295.05079 148.34375 296.01564 148.38282 296.32423 148.4375 296.6172 148.4961 296.92579 150.85547 309.4414 152.34766 321.27735 153.44922 332.28517 155.09375 348.70704 156.83203 364.23829 156.33203 398.67189" fill="#0e3b2e"/>
</g>
<g clip-path="url(#clip_5)">
<path transform="matrix(.43877179,0,0,.43877179,111.371929,104.32785)" d="M95.265628 127.9375C95.265628 139.77735 85.66406 149.3789 73.82031 149.3789 61.98047 149.3789 52.378908 139.77735 52.378908 127.9375 52.378908 116.09375 61.98047 106.49219 73.82031 106.49219 85.66406 106.49219 95.265628 116.09375 95.265628 127.9375" fill="#0e3b2e"/>
<path transform="matrix(.43877179,0,0,.43877179,111.371929,104.32785)" d="M344 270.9297C344 270.9297 343.41798 270.1953 342.35548 268.83985 341.3125 267.48439 339.80079 265.35939 337.67579 263 333.59376 258.19923 327.2461 251.625 318.77735 244.58594 314.6172 241.02344 309.78126 237.36719 304.63673 233.5 286.4336 219.72657 276.89845 214.91016 280.20704 233.5 280.35939 234.46875 280.5703 235.51172 280.82423 236.61328 281.03517 237.60157 281.26954 238.625 281.53907 239.72657H281.5586C281.59767 239.96094 281.65626 240.1914 281.71485 240.4414H281.73439C281.90626 241.17969 282.1172 241.95313 282.33595 242.7461 282.4297 243.11328 282.52735 243.5 282.625 243.86719 282.9297 245.02735 283.22657 246.17188 283.51564 247.3086 283.53126 247.3711 283.5547 247.44532 283.5703 247.5039 284 249.07032 284.3828 250.63672 284.65626 252.20703 285.04298 254.29688 285.42579 256.34376 285.8125 258.39454 280.84376 260.73439 272.77345 263.46095 260.14845 266.03517 259.44923 263.7539 258.77345 261.46876 258.0586 259.14845 257.70704 257.79689 257.22267 256.4961 256.73829 255.20313 256.27735 253.90625 255.79688 252.58985 255.32813 251.27735 253.70313 246.90235 251.90625 242.59375 249.89453 238.35547 242.21485 248.10157 236.10157 259.0703 231.05469 270.42579 221.2461 271.48829 210.80078 272.30079 199.89063 272.8047 200.9961 267.83595 202.36719 262.8047 204.26172 257.73829 206.8789 251.0039 209.83594 244.19532 213.52735 237.5039 222.91016 220.46485 232.13672 199.80469 225.8125 180.11328 219.13672 159.30078 198.53516 142.64453 188.28516 123.18359 182.67578 112.58594 179.42969 103.453128 177.53125 97.109378 176.58203 93.9375 176.0625 91.40234 175.63672 89.74219 175.3086 88.26953 175.11328 87.39844 175.07422 87.20703 175.36719 87.515628 177.72657 90.203128 181.7461 94.76953 186.10157 99.546878 192.44532 106.24219 200.6289 113.82031 208.8086 121.42578 218.84766 129.85938 230.26172 138.89453 241.73047 147.92578 254.57813 157.57813 267.98048 168.39063 281.38673 179.20313 294 190.34375 304.8086 201.58203 310.20704 207.21485 315.1211 212.85938 319.47267 218.39453 323.78126 224.0039 327.59767 229.39844 330.65235 234.66016 336.89845 245.08594 340.3047 254.3125 342.0078 260.85157 342.95314 264.10157 343.28126 266.59767 343.57423 268.3164 343.84376 270.01954 344 270.9297 344 270.9297" fill="#0e3b2e"/>
</g>
<g clip-path="url(#clip_6)">
<path transform="matrix(.43877179,0,0,.43877179,111.371929,104.32785)" d="M223.82032 288.60939C223.44922 289.59376 223.10547 290.58204 222.77344 291.5664 222.42969 292.57423 222.07813 293.59767 221.72657 294.60548 220.76172 297.48829 219.8125 300.3672 218.92578 303.23048 209.60547 333.03907 204.35938 361.83985 187.66797 398.67189 187.16407 364.23829 188.90625 348.70704 190.55078 332.28517 191.65235 321.27735 193.14063 309.4414 195.5 296.92579 195.5586 296.59767 195.61719 296.28907 195.67578 295.96095 195.86719 294.9922 196.04297 294.0078 196.19922 293.01954H196.21485C196.3711 292.0703 196.54688 291.10157 196.69922 290.1172 206.08203 289.78907 215.13672 289.28517 223.82032 288.60939" fill="#0e3b2e"/>
</g>
<g clip-path="url(#clip_7)">
<path transform="matrix(.43877179,0,0,.43877179,111.371929,104.32785)" d="M287.98048 339.1914C286.85939 355.86329 285.58204 369.21095 284.9414 378.40235 284.3047 387.66798 283.95704 392.77345 283.95704 392.77345 283.95704 392.77345 283.64845 391.53517 283.05079 389.15235 282.5078 386.77345 281.5586 383.3125 280.67189 378.73048 278.6797 369.57814 276.4336 356.23439 273.97657 339.7539 271.73048 325.08985 269.4336 307.89454 265.71876 289.57423 265.52345 288.6289 265.32814 287.66017 265.14064 286.6914H265.1172C264.9414 285.76564 264.73048 284.83985 264.53517 283.89064 273.375 282.45704 281.40235 280.8125 288.42579 279.01564 288.42579 279.11329 288.4453 279.20704 288.4453 279.3047 288.52345 280.17579 288.58204 281.04689 288.63673 281.89454 288.69923 282.92189 288.77345 283.90626 288.8125 284.91407 290.05079 305.64845 288.98829 323.8711 287.98048 339.1914" fill="#0e3b2e"/>
<path transform="matrix(.43877179,0,0,.43877179,111.371929,104.32785)" d="M248.73047 127.9375C248.73047 139.77735 258.33595 149.3789 270.17579 149.3789 282.01564 149.3789 291.6211 139.77735 291.6211 127.9375 291.6211 116.09375 282.01564 106.49219 270.17579 106.49219 258.33595 106.49219 248.73047 116.09375 248.73047 127.9375" fill="#0e3b2e"/>
<path transform="matrix(.43877179,0,0,.43877179,111.371929,104.32785)" d="M320.61329 260.1914C320.61329 267.3125 308.58204 273.85157 288.42579 279.01564 281.40235 280.8125 273.375 282.45704 264.53517 283.89064 252.36719 285.8828 238.67578 287.48829 223.82032 288.60939 215.13672 289.28517 206.08203 289.78907 196.69922 290.1172 188.36328 290.40626 179.79688 290.5625 171.03125 290.5625 162.96485 290.5625 155.03516 290.42579 147.3164 290.17579 137.97657 289.88673 128.92188 289.40235 120.234378 288.76173 105.38281 287.6797 91.64844 286.1328 79.40234 284.19923 70.62109 282.8047 62.59375 281.23829 55.535158 279.4961 34.234376 274.23439 21.449219 267.52345 21.449219 260.1914 21.449219 252.08985 37.097658 244.73828 62.554689 239.30469 62.515626 239.4375 62.476564 239.57422 62.4375 239.72657 50.33203 243.69532 43.308595 248.375 43.308595 253.36328 43.308595 257.58204 48.28125 261.5664 57.101564 265.08985 63.5625 267.6797 72.109378 270 82.265628 271.9922 92.015628 273.90626 103.27344 275.51173 115.63281 276.73048 124.95703 277.64064 134.91797 278.33595 145.32422 278.76173 153.625 279.11329 162.23047 279.28517 171.03125 279.28517 180.53125 279.28517 189.79688 279.07423 198.6914 278.6836 209.15625 278.20314 219.13672 277.46876 228.46485 276.51954 240.80469 275.26173 252.0039 273.59767 261.63673 271.625 271.96485 269.51564 280.51564 267.0586 286.80079 264.3125 294.48048 261.0078 298.7578 257.29298 298.7578 253.36328 298.7578 248.64453 292.54689 244.25782 281.73439 240.4414H281.71485C281.65626 240.1914 281.59767 239.96094 281.5586 239.72657 305.8164 245.125 320.61329 252.32032 320.61329 260.1914" fill="#0e3b2e"/>
</g>
<path transform="matrix(1,0,0,-1,0,383.03999)" d="M112.688938 149.24573H262.31108V241.83425H112.688938Z" fill-opacity="0"/>
</svg>
